<?xml version="1.0" encoding="UTF-8"?><svg id="Layer_1" xmlns="http://www.w3.org/2000/svg" xmlns:xlink="http://www.w3.org/1999/xlink" viewBox="0 0 262.7298 141.5378"><defs><style>.cls-1,.cls-2,.cls-3,.cls-4,.cls-5,.cls-6,.cls-7,.cls-8{fill:none;}.cls-9{clip-path:url(#clippath);}.cls-10{fill:#fff;}.cls-11{fill:#909090;}.cls-12{fill:#c4c4c4;}.cls-13{fill:#e30510;}.cls-14{fill:#585857;}.cls-2{stroke-miterlimit:10;stroke-width:.1px;}.cls-2,.cls-3{stroke:#000;}.cls-3{stroke-linejoin:bevel;stroke-width:.297px;}.cls-3,.cls-4,.cls-5,.cls-6,.cls-7,.cls-8{stroke-linecap:round;}.cls-4{stroke:#929296;}.cls-4,.cls-5,.cls-6,.cls-7,.cls-8{stroke-linejoin:round;stroke-width:20.974px;}.cls-5{stroke:#5a5a5c;}.cls-6{stroke:#59595c;}.cls-7{stroke:#bbbdbd;}.cls-8{stroke:#e30510;}</style><clipPath id="clippath"><rect class="cls-1" x="-346.6732" y="-375.9382" width="1071.4959" height="757.701"/></clipPath></defs><path class="cls-13" d="M152.4122,8.1591c0-1.45,1.175-2.625,2.625-2.625h8.923c1.45,0,2.625,1.175,2.625,2.625s-1.175,2.625-2.625,2.625h-8.923c-1.45,0-2.625-1.175-2.625-2.625"/><g><path d="M176.7767,9.3461h-.9043v1.1885h-.4658v-1.1885h-2.5518v-.3359l2.3975-2.998h.5166l-2.3125,2.9199h1.9639v-1.0459h.4521v1.0459h.9043v.4141Z"/><path d="M178.0726,10.2953c-.2744-.1846-.4873-.4512-.6396-.7979-.1533-.3467-.2295-.7549-.2295-1.2236,0-.4697,.0762-.8779,.2295-1.2246,.1523-.3467,.3652-.6123,.6396-.7979,.2734-.1855,.584-.2773,.9326-.2773,.3496,0,.6602,.0918,.9336,.2773s.4883,.4512,.6436,.7979c.1543,.3467,.2324,.7549,.2324,1.2246,0,.4688-.0781,.877-.2324,1.2236-.1553,.3467-.3701,.6133-.6436,.7979-.2734,.1855-.584,.2783-.9336,.2783-.3486,0-.6592-.0928-.9326-.2783Zm1.6279-.3682c.2002-.1465,.3555-.3594,.4678-.6396,.1123-.2793,.168-.6182,.168-1.0137,0-.3965-.0557-.7344-.168-1.0146s-.2676-.4932-.4678-.6396-.4326-.2197-.6953-.2197-.4941,.0732-.6943,.2197-.3564,.3594-.4678,.6396c-.1123,.2803-.168,.6182-.168,1.0146,0,.3955,.0557,.7344,.168,1.0137,.1113,.2803,.2676,.4932,.4678,.6396s.4316,.2197,.6943,.2197,.4951-.0732,.6953-.2197Z"/><path d="M181.6957,8.0961c-.1865-.2266-.2803-.5225-.2803-.8887s.0938-.6621,.2803-.8887c.1875-.2256,.4346-.3389,.7402-.3389,.3008,0,.5469,.1123,.7363,.3359,.1895,.2246,.2842,.5215,.2842,.8916s-.0947,.668-.2842,.8916-.4355,.3359-.7363,.3359c-.3057,0-.5527-.1133-.7402-.3389Zm1.2471-.2002c.127-.166,.1904-.3955,.1904-.6885s-.0635-.5225-.1904-.6875c-.127-.166-.2959-.249-.5068-.249-.2158,0-.3857,.084-.5107,.252s-.1875,.3965-.1875,.6846c0,.2891,.0625,.5166,.1875,.6846s.2949,.252,.5107,.252c.2109,0,.3799-.083,.5068-.248Zm2.2324-1.8838h.3809l-3.0879,4.5225h-.3809l3.0879-4.5225Zm-.7041,4.2158c-.1895-.2266-.2842-.5225-.2842-.8887s.0947-.6621,.2842-.8877c.1895-.2266,.4346-.3398,.7363-.3398,.3057,0,.5518,.1133,.7393,.3398,.1875,.2256,.2812,.5215,.2812,.8877s-.0938,.6621-.2812,.8887c-.1875,.2256-.4336,.3389-.7393,.3389-.3018,0-.5469-.1133-.7363-.3389Zm1.2461-.2041c.125-.168,.1875-.3955,.1875-.6846,0-.2881-.0625-.5166-.1875-.6846s-.2949-.252-.5098-.252c-.2109,0-.3799,.083-.5068,.249-.1279,.165-.1914,.3945-.1914,.6875s.0635,.5225,.1914,.6885c.127,.166,.2959,.248,.5068,.248,.2148,0,.3848-.084,.5098-.252Z"/></g><g><path d="M198.1605,5.2621v4.5225h-.4717V5.6762h-2.8613v4.1084h-.4717V5.2621h3.8047Z"/><path d="M202.1918,6.5766c.2588,.1445,.4609,.3486,.6074,.6113s.2197,.5615,.2197,.8975c0,.3408-.0732,.6416-.2197,.9043s-.3477,.4668-.6045,.6104c-.2559,.1445-.5459,.2168-.8682,.2168-.2764,0-.5244-.0566-.7461-.1709-.2227-.1143-.4043-.2812-.5459-.501v1.8926h-.459V6.3861h.4395v.6719c.1377-.2236,.3193-.3955,.5459-.5166,.2256-.1201,.4814-.1807,.7656-.1807,.3184,0,.6074,.0723,.8652,.2158Zm-.252,2.6689c.1943-.1104,.3457-.2666,.4561-.4688,.1094-.2021,.1641-.4326,.1641-.6914,0-.2578-.0547-.4873-.1641-.6875-.1104-.2002-.2617-.3564-.4561-.4688-.1934-.1123-.4092-.168-.6455-.168-.2412,0-.458,.0557-.6494,.168-.1924,.1123-.3428,.2686-.4521,.4688-.1104,.2002-.165,.4297-.165,.6875,0,.2588,.0547,.4893,.165,.6914,.1094,.2021,.2598,.3584,.4521,.4688,.1914,.1094,.4082,.1641,.6494,.1641,.2363,0,.4521-.0547,.6455-.1641Z"/><path d="M204.5248,9.5942c-.2627-.1484-.4697-.3545-.6201-.6172-.1514-.2627-.2266-.5596-.2266-.8916,0-.3311,.0752-.6289,.2266-.8916,.1504-.2627,.3574-.4668,.6201-.6133s.5576-.2197,.8848-.2197,.6221,.0732,.8848,.2197,.4688,.3506,.6172,.6133,.2227,.5605,.2227,.8916c0,.332-.0742,.6289-.2227,.8916s-.3545,.4688-.6172,.6172-.5576,.2227-.8848,.2227-.6221-.0742-.8848-.2227Zm1.5342-.3486c.1914-.1104,.3408-.2666,.4492-.4688,.1074-.2021,.1611-.4326,.1611-.6914,0-.2578-.0537-.4883-.1611-.6914-.1084-.2021-.2578-.3584-.4492-.4678-.1914-.1104-.4082-.165-.6494-.165s-.458,.0547-.6494,.165c-.1914,.1094-.3428,.2656-.4521,.4678-.1094,.2031-.165,.4336-.165,.6914,0,.2588,.0557,.4893,.165,.6914s.2607,.3584,.4521,.4688c.1914,.1094,.4082,.1641,.6494,.1641s.458-.0547,.6494-.1641Z"/><path d="M211.43,9.3842v1.2207h-.4326v-.8203h-3.043v.8203h-.4326v-1.2207h.1934c.2285-.0127,.3838-.1807,.4658-.5039,.0811-.3232,.1377-.7754,.168-1.3564l.0449-1.1377h2.5068v2.998h.5293Zm-2.7842-.6426c-.0605,.3115-.168,.5264-.3232,.6426h2.1191v-2.5908h-1.6348l-.0381,.7559c-.0225,.4824-.0625,.8799-.123,1.1924Z"/><path d="M215.2093,6.3861l-1.6992,3.8057c-.1377,.3184-.2969,.5449-.4775,.6777-.1816,.1338-.3984,.2002-.6533,.2002-.1631,0-.3164-.0254-.458-.0771-.1426-.0518-.2646-.1289-.3682-.2324l.2129-.3428c.1719,.1729,.3789,.2588,.6201,.2588,.1553,0,.2871-.043,.3975-.1289,.1094-.0869,.2119-.2334,.3066-.4395l.1484-.3301-1.5176-3.3916h.4775l1.2793,2.8877,1.2793-2.8877h.4521Z"/><path d="M217.1605,8.2729h-.7754v1.5117h-.459v-3.3984h.459v1.4922h.7822l1.1943-1.4922h.498l-1.3379,1.6475,1.4346,1.751h-.543l-1.2529-1.5117Z"/><path d="M222.0707,6.7934h-1.2861v2.9912h-.459v-2.9912h-1.2852v-.4072h3.0303v.4072Z"/><path d="M225.139,7.8725c.2236,.1855,.3359,.4521,.3359,.8008,0,.3623-.1211,.6396-.3623,.834-.2412,.1934-.585,.2881-1.0332,.2842l-1.3438-.0068v-3.3984h.459v1.1895l.9688,.0127c.4268,.0039,.751,.0986,.9756,.2842Zm-.3721,1.3789c.1621-.1309,.2432-.3242,.2432-.5781,0-.25-.0801-.4346-.2393-.5557-.1592-.1201-.3984-.1826-.7178-.1875l-.8584-.0127v1.5117l.8584,.0127c.3145,.0049,.5527-.0586,.7139-.1904Zm1.2764-2.8652h.459v3.3984h-.459v-3.3984Z"/><path d="M232.5482,6.3861v3.3984h-.458v-2.9912h-2.1318v2.9912h-.459v-3.3984h3.0488Z"/><path d="M233.8539,6.3861h.459v2.7012l2.2676-2.7012h.4062v3.3984h-.458v-2.7002l-2.2617,2.7002h-.4131v-3.3984Z"/><path d="M240.6888,6.7934h-1.2852v2.9912h-.459v-2.9912h-1.2861v-.4072h3.0303v.4072Z"/><path d="M243.5443,6.6938c.2373,.2217,.3555,.5498,.3555,.9844v2.1064h-.4395v-.5293c-.1035,.1758-.2549,.3145-.4551,.4131s-.4385,.1484-.7139,.1484c-.3789,0-.6807-.0908-.9053-.2715-.2236-.1807-.3359-.4199-.3359-.7168,0-.2881,.1045-.5215,.3135-.6982,.209-.1758,.542-.2646,.998-.2646h1.0791v-.2061c0-.293-.082-.5166-.2451-.6689-.1641-.1533-.4033-.2295-.7178-.2295-.2148,0-.4219,.0352-.6201,.1064s-.3682,.1689-.5098,.2939l-.207-.3418c.1719-.1465,.3789-.2598,.6201-.3398,.2412-.0791,.4951-.1191,.7627-.1191,.4434,0,.7832,.1104,1.0205,.333Zm-.5166,2.584c.1846-.1191,.3232-.29,.4131-.5137v-.5557h-1.0654c-.582,0-.8721,.2021-.8721,.6074,0,.1982,.0752,.3545,.2256,.4678,.1504,.1143,.3623,.1719,.6328,.1719,.2588,0,.4805-.0596,.666-.1777Z"/><path d="M245.1205,6.3861h.459v1.5059h2.1377v-1.5059h.459v3.3984h-.459v-1.499h-2.1377v1.499h-.459v-3.3984Z"/><path d="M249.4808,6.3861h.459v2.7012l2.2676-2.7012h.4072v3.3984h-.459v-2.7002l-2.2607,2.7002h-.4141v-3.3984Z"/><path d="M256.5355,6.3861v3.3984h-.4199v-1.124h-1.1953l-.7881,1.124h-.4971l.8457-1.1885c-.2627-.0732-.4648-.1982-.6074-.375-.1416-.1768-.2129-.4004-.2129-.6719,0-.3789,.1289-.667,.3877-.8652s.6113-.2979,1.0596-.2979h1.4277Zm-1.4473,1.9316h1.0273v-1.5244h-.9951c-.6631,0-.9951,.2568-.9951,.7686,0,.5039,.3213,.7559,.9629,.7559Z"/></g><path class="cls-14" d="M152.4122,20.5784c0-1.45,1.175-2.625,2.625-2.625h8.923c1.45,0,2.625,1.175,2.625,2.625s-1.175,2.625-2.625,2.625h-8.923c-1.45,0-2.625-1.175-2.625-2.625"/><g><path d="M179.4886,18.4311l1.2852,1.79,1.2793-1.79h.5625l-1.5449,2.1709,1.667,2.3516h-.5615l-1.4023-1.9443-1.4014,1.9443h-.5498l1.6602-2.332-1.5439-2.1904h.5498Z"/><path d="M183.6878,18.4311l1.2852,1.79,1.2793-1.79h.5625l-1.5449,2.1709,1.667,2.3516h-.5615l-1.4023-1.9443-1.4014,1.9443h-.5498l1.6602-2.332-1.5439-2.1904h.5498Z"/></g><g><path d="M195.1214,21.9418c-.3643-.2002-.6484-.4746-.8525-.8232-.2051-.3496-.3076-.7412-.3076-1.1758,0-.4355,.1025-.8271,.3076-1.1758,.2041-.3496,.4883-.624,.8525-.8242,.3633-.2002,.7695-.2998,1.2178-.2998,.4473,0,.8516,.0986,1.2109,.2969s.6426,.4727,.8496,.8232c.207,.3516,.3105,.7441,.3105,1.1797,0,.4346-.1035,.8281-.3105,1.1787s-.4902,.626-.8496,.8232c-.3594,.1982-.7637,.2979-1.2109,.2979-.4482,0-.8545-.1006-1.2178-.3008Zm2.1865-.3682c.2891-.1611,.5146-.3857,.6787-.6719,.1631-.2861,.2451-.6064,.2451-.959,0-.3535-.082-.6729-.2451-.96-.1641-.2861-.3896-.5098-.6787-.6719-.2881-.1611-.6113-.2422-.9688-.2422s-.6816,.0811-.9727,.2422c-.291,.1621-.5186,.3857-.6846,.6719-.166,.2871-.249,.6064-.249,.96,0,.3525,.083,.6729,.249,.959s.3936,.5107,.6846,.6719,.6152,.2422,.9727,.2422,.6807-.0811,.9688-.2422Z"/><path d="M203.058,21.8031v1.2207h-.4336v-.8203h-3.042v.8203h-.4336v-1.2207h.1943c.2275-.0127,.3828-.1807,.4648-.5039s.1377-.7754,.168-1.3564l.0449-1.1377h2.5068v2.998h.5303Zm-2.7852-.6426c-.0596,.3115-.168,.5264-.3223,.6426h2.1182v-2.5908h-1.6338l-.0391,.7559c-.0215,.4824-.0625,.8799-.123,1.1924Z"/><path d="M206.9203,20.6469h-2.8418c.0254,.3525,.1611,.6387,.4062,.8555,.2461,.2178,.5557,.3262,.9307,.3262,.2109,0,.4053-.0371,.5811-.1123,.1768-.0762,.3301-.1865,.459-.333l.2588,.2969c-.1514,.1807-.3398,.3193-.5654,.4141-.2266,.0947-.4746,.1416-.7461,.1416-.3486,0-.6582-.0742-.9268-.2227-.2695-.1484-.4795-.3545-.6299-.6172-.1514-.2627-.2266-.5596-.2266-.8916,0-.3311,.0723-.6289,.2168-.8916,.1436-.2627,.3418-.4668,.5938-.6133s.5352-.2197,.8496-.2197,.5967,.0732,.8467,.2197,.4453,.3496,.5879,.6104c.1416,.2607,.2129,.5586,.2129,.8945l-.0068,.1426Zm-2.4639-1.1602c-.2217,.209-.3477,.4814-.3779,.8174h2.4092c-.0303-.3359-.1562-.6084-.3779-.8174s-.498-.3135-.8301-.3135c-.3271,0-.6016,.1045-.8232,.3135Z"/><path d="M210.9203,20.6918h-.7373v1.5117h-.458v-1.5117h-.7363l-1.04,1.5117h-.5498l1.2217-1.751-1.125-1.6475h.498l.9951,1.4922h.7363v-1.4922h.458v1.4922h.7373l1.001-1.4922h.4971l-1.124,1.6543,1.2217,1.7441h-.5498l-1.0459-1.5117Z"/><path d="M216.5921,21.8031v1.2207h-.4336v-.8203h-3.042v.8203h-.4336v-1.2207h.1943c.2275-.0127,.3828-.1807,.4648-.5039s.1377-.7754,.168-1.3564l.0449-1.1377h2.5068v2.998h.5303Zm-2.7852-.6426c-.0596,.3115-.168,.5264-.3223,.6426h2.1182v-2.5908h-1.6338l-.0391,.7559c-.0215,.4824-.0625,.8799-.123,1.1924Z"/><path d="M219.6742,19.1127c.2363,.2217,.3545,.5498,.3545,.9844v2.1064h-.4385v-.5293c-.1035,.1758-.2559,.3145-.4561,.4131s-.4385,.1484-.7139,.1484c-.3789,0-.6807-.0908-.9043-.2715s-.3359-.4199-.3359-.7168c0-.2881,.1045-.5215,.3135-.6982,.209-.1758,.541-.2646,.998-.2646h1.0791v-.2061c0-.293-.082-.5166-.2461-.6689-.1631-.1533-.4023-.2295-.7168-.2295-.2158,0-.4219,.0352-.6201,.1064s-.3682,.1689-.5107,.2939l-.2061-.3418c.1719-.1465,.3789-.2598,.6201-.3398,.2412-.0791,.4951-.1191,.7617-.1191,.4434,0,.7842,.1104,1.0215,.333Zm-.5176,2.584c.1855-.1191,.3232-.29,.4141-.5137v-.5557h-1.0664c-.5811,0-.8721,.2021-.8721,.6074,0,.1982,.0752,.3545,.2266,.4678,.1504,.1143,.3613,.1719,.6328,.1719,.2588,0,.4805-.0596,.665-.1777Z"/></g><path class="cls-11" d="M152.4122,32.9977c0-1.45,1.175-2.625,2.625-2.625h8.923c1.45,0,2.625,1.175,2.625,2.625s-1.175,2.625-2.625,2.625h-8.923c-1.45,0-2.625-1.175-2.625-2.625"/><g><path d="M179.4886,30.85l1.2852,1.79,1.2793-1.79h.5625l-1.5449,2.1709,1.667,2.3516h-.5615l-1.4023-1.9443-1.4014,1.9443h-.5498l1.6602-2.332-1.5439-2.1904h.5498Z"/><path d="M183.6878,30.85l1.2852,1.79,1.2793-1.79h.5625l-1.5449,2.1709,1.667,2.3516h-.5615l-1.4023-1.9443-1.4014,1.9443h-.5498l1.6602-2.332-1.5439-2.1904h.5498Z"/></g><g><path d="M197.4046,30.5141c.3271,.2754,.4912,.6543,.4912,1.1367s-.1641,.8604-.4912,1.1338-.7793,.4102-1.3564,.4102h-1.2148v1.4277h-.4775v-4.5225h1.6924c.5771,0,1.0293,.1377,1.3564,.4141Zm-.3418,1.9668c.2363-.1963,.3555-.4727,.3555-.8301,0-.3662-.1191-.6475-.3555-.8428-.2373-.1963-.5791-.2939-1.0273-.2939h-1.2021v2.2607h1.2021c.4482,0,.79-.0977,1.0273-.2939Z"/><path d="M201.0228,31.5317c.2373,.2217,.3555,.5498,.3555,.9844v2.1064h-.4395v-.5293c-.1035,.1758-.2549,.3145-.4551,.4131s-.4385,.1484-.7139,.1484c-.3789,0-.6807-.0908-.9053-.2715-.2236-.1807-.3359-.4199-.3359-.7168,0-.2881,.1045-.5215,.3135-.6982,.209-.1758,.542-.2646,.998-.2646h1.0791v-.2061c0-.293-.082-.5166-.2451-.6689-.1641-.1533-.4033-.2295-.7178-.2295-.2148,0-.4219,.0352-.6201,.1064s-.3682,.1689-.5098,.2939l-.207-.3418c.1719-.1465,.3789-.2598,.6201-.3398,.2412-.0791,.4951-.1191,.7627-.1191,.4434,0,.7832,.1104,1.0205,.333Zm-.5166,2.584c.1846-.1191,.3232-.29,.4131-.5137v-.5557h-1.0654c-.582,0-.8721,.2021-.8721,.6074,0,.1982,.0752,.3545,.2256,.4678,.1504,.1143,.3623,.1719,.6328,.1719,.2588,0,.4805-.0596,.666-.1777Z"/><path d="M204.8119,33.143c.1309,.1377,.1963,.3057,.1963,.5039s-.0674,.375-.2031,.5303c-.1357,.1543-.3193,.2744-.5527,.3584-.2324,.084-.4883,.126-.7686,.126-.2451,0-.4863-.0361-.7236-.1064-.2363-.0713-.4434-.1758-.6201-.3135l.1553-.3428c.1553,.1162,.3359,.207,.543,.2715,.2061,.0645,.415,.0967,.626,.0967,.3145,0,.5723-.0586,.7725-.1777,.2002-.1182,.3008-.2783,.3008-.4814,0-.1807-.082-.3213-.2461-.4229-.1641-.1006-.3877-.1514-.6719-.1514h-.5811v-.3359h.5557c.2539,0,.458-.0488,.6133-.1455s.2324-.2275,.2324-.3906c0-.1816-.0869-.3232-.2617-.4268-.1738-.1035-.4014-.1553-.6816-.1553-.3652,0-.7275,.0928-1.085,.2783l-.1289-.3555c.4043-.2109,.8242-.3164,1.2598-.3164,.2578,0,.4922,.0371,.7012,.1123,.208,.0762,.3721,.1826,.4902,.3203,.1191,.1377,.1777,.2969,.1777,.4775,0,.1729-.0586,.3252-.1777,.459-.1182,.1338-.2783,.2324-.4814,.2969,.2412,.0566,.4277,.1533,.5596,.291Z"/><path d="M208.9037,33.6986c0,.2969-.1094,.5254-.3291,.6846s-.5469,.2393-.9824,.2393h-1.5439v-3.3984h1.499c.3877,0,.6914,.0762,.9111,.2266s.3291,.3662,.3291,.6455c0,.1855-.0508,.3438-.1514,.4756-.1016,.1309-.2422,.2285-.4229,.2939,.46,.1074,.6904,.3848,.6904,.833Zm-2.4092-.9629h1.0205c.2627,0,.4639-.0488,.6045-.1484,.1396-.0986,.21-.2432,.21-.4326s-.0703-.332-.21-.4268c-.1406-.0947-.3418-.1416-.6045-.1416h-1.0205v1.1494Zm1.7373,1.3828c.1465-.0947,.2197-.2432,.2197-.4453,0-.2031-.0664-.3525-.2002-.4492-.1328-.0967-.3447-.1455-.6328-.1455h-1.124v1.1826h1.0791c.293,0,.5117-.0479,.6582-.1426Z"/><path d="M212.7552,31.224v3.3984h-.459v-2.9912h-1.6279l-.0459,.8398c-.0342,.7061-.1162,1.249-.2451,1.6279s-.3594,.5684-.6914,.5684c-.0898,0-.2002-.0166-.3291-.0518l.0322-.3936c.0771,.0176,.1309,.0254,.1611,.0254,.1768,0,.3105-.0811,.4004-.2451,.0908-.1641,.1514-.3662,.1816-.6074,.0293-.2412,.0557-.5596,.0771-.9561l.0586-1.2148h2.4873Z"/><path d="M217.0306,33.0658h-2.8418c.0254,.3525,.1611,.6387,.4062,.8555,.2461,.2178,.5557,.3262,.9307,.3262,.2109,0,.4053-.0371,.5811-.1123,.1768-.0762,.3301-.1865,.459-.333l.2588,.2969c-.1514,.1807-.3398,.3193-.5654,.4141-.2266,.0947-.4746,.1416-.7461,.1416-.3486,0-.6582-.0742-.9268-.2227-.2695-.1484-.4795-.3545-.6299-.6172-.1514-.2627-.2266-.5596-.2266-.8916,0-.3311,.0723-.6289,.2168-.8916,.1436-.2627,.3418-.4668,.5938-.6133s.5352-.2197,.8496-.2197,.5967,.0732,.8467,.2197,.4453,.3496,.5879,.6104c.1416,.2607,.2129,.5586,.2129,.8945l-.0068,.1426Zm-2.4639-1.1602c-.2217,.209-.3477,.4814-.3779,.8174h2.4092c-.0303-.3359-.1562-.6084-.3779-.8174s-.498-.3135-.8301-.3135c-.3271,0-.6016,.1045-.8232,.3135Z"/><path d="M220.6166,31.224v3.3984h-.458v-1.415c-.3926,.1729-.7783,.2588-1.1572,.2588-.4092,0-.7275-.0938-.9561-.2812s-.3418-.4688-.3418-.8428v-1.1182h.458v1.0918c0,.2549,.082,.4473,.2461,.5781,.1631,.1318,.3896,.1973,.6777,.1973,.3193,0,.6768-.084,1.0732-.252v-1.6152h.458Z"/><path d="M224.8929,33.0658h-2.8418c.0254,.3525,.1611,.6387,.4062,.8555,.2461,.2178,.5557,.3262,.9307,.3262,.2109,0,.4053-.0371,.5811-.1123,.1768-.0762,.3301-.1865,.459-.333l.2588,.2969c-.1514,.1807-.3398,.3193-.5654,.4141-.2266,.0947-.4746,.1416-.7461,.1416-.3486,0-.6582-.0742-.9268-.2227-.2695-.1484-.4795-.3545-.6299-.6172-.1514-.2627-.2266-.5596-.2266-.8916,0-.3311,.0723-.6289,.2168-.8916,.1436-.2627,.3418-.4668,.5938-.6133s.5352-.2197,.8496-.2197,.5967,.0732,.8467,.2197,.4453,.3496,.5879,.6104c.1416,.2607,.2129,.5586,.2129,.8945l-.0068,.1426Zm-2.4639-1.1602c-.2217,.209-.3477,.4814-.3779,.8174h2.4092c-.0303-.3359-.1562-.6084-.3779-.8174s-.498-.3135-.8301-.3135c-.3271,0-.6016,.1045-.8232,.3135Z"/><path d="M225.9144,31.224h.459v1.5059h2.1377v-1.5059h.459v3.3984h-.459v-1.499h-2.1377v1.499h-.459v-3.3984Z"/><path d="M230.2748,31.224h.459v2.7012l2.2676-2.7012h.4062v3.3984h-.458v-2.7002l-2.2617,2.7002h-.4131v-3.3984Z"/><path d="M237.3294,31.224v3.3984h-.4199v-1.124h-1.1953l-.7881,1.124h-.4971l.8457-1.1885c-.2627-.0732-.4648-.1982-.6074-.375-.1416-.1768-.2129-.4004-.2129-.6719,0-.3789,.1289-.667,.3877-.8652s.6113-.2979,1.0596-.2979h1.4277Zm-1.4473,1.9316h1.0273v-1.5244h-.9951c-.6631,0-.9951,.2568-.9951,.7686,0,.5039,.3213,.7559,.9629,.7559Z"/></g><path class="cls-12" d="M152.4122,45.4169c0-1.45,1.175-2.625,2.625-2.625h8.923c1.45,0,2.625,1.175,2.625,2.625s-1.175,2.625-2.625,2.625h-8.923c-1.45,0-2.625-1.175-2.625-2.625"/><g><path d="M179.4886,43.2699l1.2852,1.79,1.2793-1.79h.5625l-1.5449,2.1709,1.667,2.3516h-.5615l-1.4023-1.9443-1.4014,1.9443h-.5498l1.6602-2.332-1.5439-2.1904h.5498Z"/><path d="M183.6878,43.2699l1.2852,1.79,1.2793-1.79h.5625l-1.5449,2.1709,1.667,2.3516h-.5615l-1.4023-1.9443-1.4014,1.9443h-.5498l1.6602-2.332-1.5439-2.1904h.5498Z"/></g><g><path d="M199.0521,42.5199v4.5225h-.458v-3.6182l-1.7773,3.043h-.2256l-1.7764-3.0234v3.5986h-.459v-4.5225h.3936l1.9639,3.3535,1.9453-3.3535h.3936Z"/><path d="M203.4388,45.4858h-2.8428c.0264,.3525,.1621,.6387,.4072,.8555,.2451,.2178,.5557,.3262,.9307,.3262,.2109,0,.4043-.0371,.5811-.1123,.1768-.0762,.3291-.1865,.459-.333l.2578,.2969c-.1504,.1807-.3389,.3193-.5654,.4141-.2256,.0947-.4746,.1416-.7461,.1416-.3486,0-.6572-.0742-.9268-.2227s-.4795-.3545-.6299-.6172-.2256-.5596-.2256-.8916c0-.3311,.0713-.6289,.2158-.8916s.3428-.4668,.5947-.6133,.5352-.2197,.8496-.2197,.5957,.0732,.8457,.2197,.4463,.3496,.5879,.6104c.1426,.2607,.2139,.5586,.2139,.8945l-.0068,.1426Zm-2.4648-1.1602c-.2217,.209-.3477,.4814-.3779,.8174h2.4102c-.0303-.3359-.1562-.6084-.3779-.8174s-.499-.3135-.8301-.3135c-.3281,0-.6025,.1045-.8242,.3135Z"/><path d="M207.7738,46.642v1.2207h-.4326v-.8203h-3.043v.8203h-.4326v-1.2207h.1934c.2285-.0127,.3838-.1807,.4658-.5039,.0811-.3232,.1377-.7754,.168-1.3564l.0449-1.1377h2.5068v2.998h.5293Zm-2.7842-.6426c-.0605,.3115-.168,.5264-.3232,.6426h2.1191v-2.5908h-1.6348l-.0381,.7559c-.0225,.4824-.0625,.8799-.123,1.1924Z"/><path d="M208.6654,43.644h.459v2.7012l2.2676-2.7012h.4062v3.3984h-.458v-2.7002l-2.2617,2.7002h-.4131v-3.3984Z"/><path d="M216.6498,46.642v1.2529h-.4326v-.8525h-3.1074v-3.3984h.459v2.998h2.0732v-2.998h.459v2.998h.5488Z"/><path d="M217.5287,43.644h.459v2.7012l2.2676-2.7012h.4062v3.3984h-.458v-2.7002l-2.2617,2.7002h-.4131v-3.3984Z"/><path d="M221.973,43.644h.459v1.5059h2.1387v-1.5059h.458v3.3984h-.458v-1.499h-2.1387v1.499h-.459v-3.3984Z"/><path d="M228.5238,43.9516c.2373,.2217,.3555,.5498,.3555,.9844v2.1064h-.4395v-.5293c-.1035,.1758-.2549,.3145-.4551,.4131s-.4385,.1484-.7139,.1484c-.3789,0-.6807-.0908-.9053-.2715-.2236-.1807-.3359-.4199-.3359-.7168,0-.2881,.1045-.5215,.3135-.6982,.209-.1758,.542-.2646,.998-.2646h1.0791v-.2061c0-.293-.082-.5166-.2451-.6689-.1641-.1533-.4033-.2295-.7178-.2295-.2148,0-.4219,.0352-.6201,.1064s-.3682,.1689-.5098,.2939l-.207-.3418c.1719-.1465,.3789-.2598,.6201-.3398,.2412-.0791,.4951-.1191,.7627-.1191,.4434,0,.7832,.1104,1.0205,.333Zm-.5166,2.584c.1846-.1191,.3232-.29,.4131-.5137v-.5557h-1.0654c-.582,0-.8721,.2021-.8721,.6074,0,.1982,.0752,.3545,.2256,.4678,.1504,.1143,.3623,.1719,.6328,.1719,.2588,0,.4805-.0596,.666-.1777Z"/></g><path class="cls-10" d="M152.4622,57.7863c0-1.45,1.175-2.625,2.625-2.625h8.923c1.45,0,2.625,1.175,2.625,2.625s-1.175,2.625-2.625,2.625h-8.923c-1.45,0-2.625-1.175-2.625-2.625"/><path class="cls-2" d="M152.4622,57.7863c0-1.45,1.175-2.625,2.625-2.625h8.923c1.45,0,2.625,1.175,2.625,2.625s-1.175,2.625-2.625,2.625h-8.923c-1.45,0-2.625-1.175-2.625-2.625Z"/><g><path d="M180.5326,55.6889l1.2852,1.79,1.2793-1.79h.5625l-1.5449,2.1709,1.667,2.3516h-.5615l-1.4023-1.9443-1.4014,1.9443h-.5498l1.6602-2.332-1.5439-2.1904h.5498Z"/><path d="M184.7318,55.6889l1.2852,1.79,1.2793-1.79h.5625l-1.5449,2.1709,1.667,2.3516h-.5615l-1.4023-1.9443-1.4014,1.9443h-.5498l1.6602-2.332-1.5439-2.1904h.5498Z"/></g><g><path d="M198.1605,54.9389v4.5225h-.4717v-4.1084h-2.8613v4.1084h-.4717v-4.5225h3.8047Z"/><path d="M202.1918,56.2533c.2588,.1445,.4609,.3486,.6074,.6113s.2197,.5615,.2197,.8975c0,.3408-.0732,.6416-.2197,.9043s-.3477,.4668-.6045,.6104c-.2559,.1445-.5459,.2168-.8682,.2168-.2764,0-.5244-.0566-.7461-.1709-.2227-.1143-.4043-.2812-.5459-.501v1.8926h-.459v-4.6514h.4395v.6719c.1377-.2236,.3193-.3955,.5459-.5166,.2256-.1201,.4814-.1807,.7656-.1807,.3184,0,.6074,.0723,.8652,.2158Zm-.252,2.6689c.1943-.1104,.3457-.2666,.4561-.4688,.1094-.2021,.1641-.4326,.1641-.6914,0-.2578-.0547-.4873-.1641-.6875-.1104-.2002-.2617-.3564-.4561-.4688-.1934-.1123-.4092-.168-.6455-.168-.2412,0-.458,.0557-.6494,.168-.1924,.1123-.3428,.2686-.4521,.4688-.1104,.2002-.165,.4297-.165,.6875,0,.2588,.0547,.4893,.165,.6914,.1094,.2021,.2598,.3584,.4521,.4688,.1914,.1094,.4082,.1641,.6494,.1641,.2363,0,.4521-.0547,.6455-.1641Z"/><path d="M204.5248,59.2709c-.2627-.1484-.4697-.3545-.6201-.6172-.1514-.2627-.2266-.5596-.2266-.8916,0-.3311,.0752-.6289,.2266-.8916,.1504-.2627,.3574-.4668,.6201-.6133s.5576-.2197,.8848-.2197,.6221,.0732,.8848,.2197,.4688,.3506,.6172,.6133,.2227,.5605,.2227,.8916c0,.332-.0742,.6289-.2227,.8916s-.3545,.4688-.6172,.6172-.5576,.2227-.8848,.2227-.6221-.0742-.8848-.2227Zm1.5342-.3486c.1914-.1104,.3408-.2666,.4492-.4688,.1074-.2021,.1611-.4326,.1611-.6914,0-.2578-.0537-.4883-.1611-.6914-.1084-.2021-.2578-.3584-.4492-.4678-.1914-.1104-.4082-.165-.6494-.165s-.458,.0547-.6494,.165c-.1914,.1094-.3428,.2656-.4521,.4678-.1094,.2031-.165,.4336-.165,.6914,0,.2588,.0557,.4893,.165,.6914s.2607,.3584,.4521,.4688c.1914,.1094,.4082,.1641,.6494,.1641s.458-.0547,.6494-.1641Z"/><path d="M210.681,56.0629v3.3984h-.459v-1.415c-.3916,.1729-.7773,.2588-1.1562,.2588-.4092,0-.7285-.0938-.9561-.2812-.2285-.1875-.3428-.4688-.3428-.8428v-1.1182h.459v1.0918c0,.2549,.082,.4473,.2451,.5781,.1641,.1318,.3896,.1973,.6787,.1973,.3184,0,.6758-.084,1.0723-.252v-1.6152h.459Z"/><path d="M211.9857,56.0629h.459v2.7012l2.2676-2.7012h.4062v3.3984h-.458v-2.7002l-2.2617,2.7002h-.4131v-3.3984Z"/><path d="M219.4017,57.9047h-2.8418c.0254,.3525,.1611,.6387,.4062,.8555,.2461,.2178,.5557,.3262,.9307,.3262,.2109,0,.4053-.0371,.5811-.1123,.1768-.0762,.3301-.1865,.459-.333l.2588,.2969c-.1514,.1807-.3398,.3193-.5654,.4141-.2266,.0947-.4746,.1416-.7461,.1416-.3486,0-.6582-.0742-.9268-.2227-.2695-.1484-.4795-.3545-.6299-.6172-.1514-.2627-.2266-.5596-.2266-.8916,0-.3311,.0723-.6289,.2168-.8916,.1436-.2627,.3418-.4668,.5938-.6133s.5352-.2197,.8496-.2197,.5967,.0732,.8467,.2197,.4453,.3496,.5879,.6104c.1416,.2607,.2129,.5586,.2129,.8945l-.0068,.1426Zm-2.4639-1.1602c-.2217,.209-.3477,.4814-.3779,.8174h2.4092c-.0303-.3359-.1562-.6084-.3779-.8174s-.498-.3135-.8301-.3135c-.3271,0-.6016,.1045-.8232,.3135Z"/><path d="M223.349,57.9496h-.7744v1.5117h-.459v-3.3984h.459v1.4922h.7812l1.1953-1.4922h.4971l-1.3369,1.6475,1.4346,1.751h-.543l-1.2539-1.5117Z"/><path d="M228.0589,56.3705c.2373,.2217,.3555,.5498,.3555,.9844v2.1064h-.4395v-.5293c-.1035,.1758-.2549,.3145-.4551,.4131s-.4385,.1484-.7139,.1484c-.3789,0-.6807-.0908-.9053-.2715-.2236-.1807-.3359-.4199-.3359-.7168,0-.2881,.1045-.5215,.3135-.6982,.209-.1758,.542-.2646,.998-.2646h1.0791v-.2061c0-.293-.082-.5166-.2451-.6689-.1641-.1533-.4033-.2295-.7178-.2295-.2148,0-.4219,.0352-.6201,.1064s-.3682,.1689-.5098,.2939l-.207-.3418c.1719-.1465,.3789-.2598,.6201-.3398,.2412-.0791,.4951-.1191,.7627-.1191,.4434,0,.7832,.1104,1.0205,.333Zm-.5166,2.584c.1846-.1191,.3232-.29,.4131-.5137v-.5557h-1.0654c-.582,0-.8721,.2021-.8721,.6074,0,.1982,.0752,.3545,.2256,.4678,.1504,.1143,.3623,.1719,.6328,.1719,.2588,0,.4805-.0596,.666-.1777Z"/><path d="M232.0257,56.4701h-1.2861v2.9912h-.459v-2.9912h-1.2852v-.4072h3.0303v.4072Z"/><path d="M235.6625,57.9047h-2.8428c.0264,.3525,.1621,.6387,.4072,.8555,.2451,.2178,.5557,.3262,.9307,.3262,.2109,0,.4043-.0371,.5811-.1123,.1768-.0762,.3291-.1865,.459-.333l.2578,.2969c-.1504,.1807-.3389,.3193-.5654,.4141-.2256,.0947-.4746,.1416-.7461,.1416-.3486,0-.6572-.0742-.9268-.2227s-.4795-.3545-.6299-.6172-.2256-.5596-.2256-.8916c0-.3311,.0713-.6289,.2158-.8916s.3428-.4668,.5947-.6133,.5352-.2197,.8496-.2197,.5957,.0732,.8457,.2197,.4463,.3496,.5879,.6104c.1426,.2607,.2139,.5586,.2139,.8945l-.0068,.1426Zm-2.4648-1.1602c-.2217,.209-.3477,.4814-.3779,.8174h2.4102c-.0303-.3359-.1562-.6084-.3779-.8174s-.499-.3135-.8301-.3135c-.3281,0-.6025,.1045-.8242,.3135Z"/><path d="M239.0863,56.4701h-1.9443v2.9912h-.459v-3.3984h2.4033v.4072Z"/><path d="M240.2689,59.2709c-.2627-.1484-.4697-.3545-.6201-.6172s-.2256-.5596-.2256-.8916c0-.3311,.0752-.6289,.2256-.8916s.3574-.4668,.6201-.6133,.5576-.2197,.8848-.2197c.3281,0,.623,.0732,.8857,.2197s.4678,.3506,.6172,.6133c.1484,.2627,.2227,.5605,.2227,.8916,0,.332-.0742,.6289-.2227,.8916-.1494,.2627-.3545,.4688-.6172,.6172s-.5576,.2227-.8857,.2227c-.3271,0-.6221-.0742-.8848-.2227Zm1.5342-.3486c.1914-.1104,.3418-.2666,.4492-.4688s.1611-.4326,.1611-.6914c0-.2578-.0537-.4883-.1611-.6914-.1074-.2021-.2578-.3584-.4492-.4678-.1914-.1104-.4082-.165-.6494-.165s-.457,.0547-.6484,.165c-.1924,.1094-.3428,.2656-.4521,.4678-.1104,.2031-.165,.4336-.165,.6914,0,.2588,.0547,.4893,.165,.6914,.1094,.2021,.2598,.3584,.4521,.4688,.1914,.1094,.4072,.1641,.6484,.1641s.458-.0547,.6494-.1641Z"/><path d="M246.4769,56.2533c.2588,.1445,.4609,.3486,.6074,.6113s.2197,.5615,.2197,.8975c0,.3408-.0732,.6416-.2197,.9043s-.3477,.4668-.6045,.6104c-.2559,.1445-.5459,.2168-.8682,.2168-.2764,0-.5244-.0566-.7461-.1709-.2227-.1143-.4043-.2812-.5459-.501v1.8926h-.459v-4.6514h.4395v.6719c.1377-.2236,.3193-.3955,.5459-.5166,.2256-.1201,.4814-.1807,.7656-.1807,.3184,0,.6074,.0723,.8652,.2158Zm-.252,2.6689c.1943-.1104,.3457-.2666,.4561-.4688,.1094-.2021,.1641-.4326,.1641-.6914,0-.2578-.0547-.4873-.1641-.6875-.1104-.2002-.2617-.3564-.4561-.4688-.1934-.1123-.4092-.168-.6455-.168-.2412,0-.458,.0557-.6494,.168-.1924,.1123-.3428,.2686-.4521,.4688-.1104,.2002-.165,.4297-.165,.6875,0,.2588,.0547,.4893,.165,.6914,.1094,.2021,.2598,.3584,.4521,.4688,.1914,.1094,.4082,.1641,.6494,.1641,.2363,0,.4521-.0547,.6455-.1641Z"/><path d="M248.2923,56.0629h.459v2.7012l2.2676-2.7012h.4062v3.3984h-.458v-2.7002l-2.2617,2.7002h-.4131v-3.3984Z"/><path d="M252.7367,56.0629h.459v2.7012l2.2676-2.7012h.4072v3.3984h-.459v-2.7002l-2.2607,2.7002h-.4141v-3.3984Z"/></g><g><path class="cls-6" d="M75.0223,13.7407c30.0366,1.5741,53.1108,27.1998,51.5367,57.2373-1.5741,30.0366-27.1998,53.1108-57.2373,51.5367-16.5807-.8694-30.6522-8.3511-40.6449-21.6117"/><g><path class="cls-7" d="M24.0853,42.5595c9.6732-18.1917,27.4833-28.8936,48.087-28.8936"/><path class="cls-4" d="M18.5379,77.5848c-2.1888-12.411-.369-23.8977,5.5476-35.0253"/><path class="cls-5" d="M28.6771,100.9034c-5.5026-7.3026-8.5518-14.3136-10.1394-23.319"/><path class="cls-8" d="M75.0223,13.7407c30.0366,1.5741,53.1108,27.1998,51.5367,57.2373-.8708,16.6171-9.1029,31.1032-21.3709,40.4639"/><path class="cls-3" d="M75.0223,13.7407c30.0366,1.5741,53.1108,27.1998,51.5367,57.2373-1.5741,30.0366-27.1998,53.1108-57.2373,51.5367-16.5807-.8694-30.6522-8.3511-40.6449-21.6117"/><path class="cls-7" d="M72.172,13.6662c1.143,0,1.7091,.0144,2.8503,.0747"/><path class="cls-3" d="M126.6345,68.1296c0,30.0798-24.3846,54.4635-54.4635,54.4635s-54.4644-24.3837-54.4644-54.4635S42.0912,13.6661,72.171,13.6661s54.4635,24.3837,54.4635,54.4635Z"/><path d="M122.805,89.9139c0,.4365-.3537,.7911-.7911,.7911-.4365,0-.7902-.3546-.7902-.7911s.3537-.7911,.7902-.7911c.4374,0,.7911,.3546,.7911,.7911"/><path d="M20.4127,82.7942c0,.4365-.3537,.7911-.7911,.7911-.4365,0-.7902-.3546-.7902-.7911s.3537-.7911,.7902-.7911c.4374,0,.7911,.3546,.7911,.7911"/><path d="M20.8704,51.7738c0,.4365-.3537,.7911-.7911,.7911-.4365,0-.7902-.3546-.7902-.7911s.3537-.7911,.7902-.7911c.4374,0,.7911,.3546,.7911,.7911"/><path d="M50.3331,18.5282c0,.4365-.3537,.7911-.7911,.7911-.4365,0-.7902-.3546-.7902-.7911s.3537-.7911,.7902-.7911c.4374,0,.7911,.3546,.7911,.7911"/></g><g class="cls-9"><path class="cls-10" d="M74.6152,18.0718c2.4003,0,4.3461-1.9458,4.3461-4.3461s-1.9458-4.3452-4.3461-4.3452-4.3461,1.9449-4.3461,4.3452,1.9458,4.3461,4.3461,4.3461"/><path class="cls-2" d="M74.6152,18.0718c2.4003,0,4.3461-1.9458,4.3461-4.3461s-1.9458-4.3452-4.3461-4.3452-4.3461,1.9449-4.3461,4.3452,1.9458,4.3461,4.3461,4.3461Z"/><path d="M74.6152,14.5167c.4365,0,.7911-.3537,.7911-.7911,0-.4365-.3546-.7902-.7911-.7902s-.7911,.3537-.7911,.7902c0,.4374,.3546,.7911,.7911,.7911"/></g></g></svg>