<?xml version="1.0" encoding="UTF-8"?><svg id="Layer_1" xmlns="http://www.w3.org/2000/svg" xmlns:xlink="http://www.w3.org/1999/xlink" viewBox="0 0 262.7298 141.5378"><defs><style>.cls-1,.cls-2,.cls-3,.cls-4,.cls-5,.cls-6,.cls-7,.cls-8{fill:none;}.cls-9{clip-path:url(#clippath);}.cls-10{fill:#fff;}.cls-11{fill:#909090;}.cls-12{fill:#c4c4c4;}.cls-13{fill:#e30510;}.cls-14{fill:#585857;}.cls-2{stroke-miterlimit:10;stroke-width:.1px;}.cls-2,.cls-3{stroke:#000;}.cls-3{stroke-linejoin:bevel;stroke-width:.297px;}.cls-3,.cls-4,.cls-5,.cls-6,.cls-7,.cls-8{stroke-linecap:round;}.cls-4{stroke:#929296;}.cls-4,.cls-5,.cls-6,.cls-7,.cls-8{stroke-linejoin:round;stroke-width:20.974px;}.cls-5{stroke:#5a5a5c;}.cls-6{stroke:#59595c;}.cls-7{stroke:#bbbdbd;}.cls-8{stroke:#e30510;}.cls-15{font-family:Montserrat-Regular, Montserrat;font-size:6.4604px;}</style><clipPath id="clippath"><rect class="cls-1" x="-346.6732" y="-375.9382" width="1071.4959" height="757.701"/></clipPath></defs><path class="cls-13" d="M152.4122,8.1591c0-1.45,1.175-2.625,2.625-2.625h8.923c1.45,0,2.625,1.175,2.625,2.625s-1.175,2.625-2.625,2.625h-8.923c-1.45,0-2.625-1.175-2.625-2.625"/><text class="cls-15" transform="translate(172.5967 10.5344)"><tspan x="0" y="0">40%</tspan></text><text class="cls-15" transform="translate(193.5933 9.7844)"><tspan x="0" y="0">Продукты питания</tspan></text><path class="cls-14" d="M152.4122,20.5784c0-1.45,1.175-2.625,2.625-2.625h8.923c1.45,0,2.625,1.175,2.625,2.625s-1.175,2.625-2.625,2.625h-8.923c-1.45,0-2.625-1.175-2.625-2.625"/><text class="cls-15" transform="translate(178.6807 22.9533)"><tspan x="0" y="0">ХХ</tspan></text><text class="cls-15" transform="translate(193.5933 22.2033)"><tspan x="0" y="0">Одежда</tspan></text><path class="cls-11" d="M152.4122,32.9977c0-1.45,1.175-2.625,2.625-2.625h8.923c1.45,0,2.625,1.175,2.625,2.625s-1.175,2.625-2.625,2.625h-8.923c-1.45,0-2.625-1.175-2.625-2.625"/><text class="cls-15" transform="translate(178.6807 35.3723)"><tspan x="0" y="0">ХХ</tspan></text><text class="cls-15" transform="translate(193.5933 34.6223)"><tspan x="0" y="0">Развлечения</tspan></text><path class="cls-12" d="M152.4122,45.4169c0-1.45,1.175-2.625,2.625-2.625h8.923c1.45,0,2.625,1.175,2.625,2.625s-1.175,2.625-2.625,2.625h-8.923c-1.45,0-2.625-1.175-2.625-2.625"/><text class="cls-15" transform="translate(178.6807 47.7922)"><tspan x="0" y="0">ХХ</tspan></text><text class="cls-15" transform="translate(193.5933 47.0422)"><tspan x="0" y="0">Медицина</tspan></text><path class="cls-10" d="M152.4622,57.7863c0-1.45,1.175-2.625,2.625-2.625h8.923c1.45,0,2.625,1.175,2.625,2.625s-1.175,2.625-2.625,2.625h-8.923c-1.45,0-2.625-1.175-2.625-2.625"/><path class="cls-2" d="M152.4622,57.7863c0-1.45,1.175-2.625,2.625-2.625h8.923c1.45,0,2.625,1.175,2.625,2.625s-1.175,2.625-2.625,2.625h-8.923c-1.45,0-2.625-1.175-2.625-2.625Z"/><text class="cls-15" transform="translate(179.7246 60.2112)"><tspan x="0" y="0">ХХ</tspan></text><text class="cls-15" transform="translate(193.5933 59.4612)"><tspan x="0" y="0">Прочие категории</tspan></text><g><path class="cls-6" d="M75.0223,13.7407c30.0366,1.5741,53.1108,27.1998,51.5367,57.2373-1.5741,30.0366-27.1998,53.1108-57.2373,51.5367-16.5807-.8694-30.6522-8.3511-40.6449-21.6117"/><g><path class="cls-7" d="M24.0853,42.5595c9.6732-18.1917,27.4833-28.8936,48.087-28.8936"/><path class="cls-4" d="M18.5379,77.5848c-2.1888-12.411-.369-23.8977,5.5476-35.0253"/><path class="cls-5" d="M28.6771,100.9034c-5.5026-7.3026-8.5518-14.3136-10.1394-23.319"/><path class="cls-8" d="M75.0223,13.7407c30.0366,1.5741,53.1108,27.1998,51.5367,57.2373-.8708,16.6171-9.1029,31.1032-21.3709,40.4639"/><path class="cls-3" d="M75.0223,13.7407c30.0366,1.5741,53.1108,27.1998,51.5367,57.2373-1.5741,30.0366-27.1998,53.1108-57.2373,51.5367-16.5807-.8694-30.6522-8.3511-40.6449-21.6117"/><path class="cls-7" d="M72.172,13.6662c1.143,0,1.7091,.0144,2.8503,.0747"/><path class="cls-3" d="M126.6345,68.1296c0,30.0798-24.3846,54.4635-54.4635,54.4635s-54.4644-24.3837-54.4644-54.4635S42.0912,13.6661,72.171,13.6661s54.4635,24.3837,54.4635,54.4635Z"/><path d="M122.805,89.9139c0,.4365-.3537,.7911-.7911,.7911-.4365,0-.7902-.3546-.7902-.7911s.3537-.7911,.7902-.7911c.4374,0,.7911,.3546,.7911,.7911"/><path d="M20.4127,82.7942c0,.4365-.3537,.7911-.7911,.7911-.4365,0-.7902-.3546-.7902-.7911s.3537-.7911,.7902-.7911c.4374,0,.7911,.3546,.7911,.7911"/><path d="M20.8704,51.7738c0,.4365-.3537,.7911-.7911,.7911-.4365,0-.7902-.3546-.7902-.7911s.3537-.7911,.7902-.7911c.4374,0,.7911,.3546,.7911,.7911"/><path d="M50.3331,18.5282c0,.4365-.3537,.7911-.7911,.7911-.4365,0-.7902-.3546-.7902-.7911s.3537-.7911,.7902-.7911c.4374,0,.7911,.3546,.7911,.7911"/></g><g class="cls-9"><path class="cls-10" d="M74.6152,18.0718c2.4003,0,4.3461-1.9458,4.3461-4.3461s-1.9458-4.3452-4.3461-4.3452-4.3461,1.9449-4.3461,4.3452,1.9458,4.3461,4.3461,4.3461"/><path class="cls-2" d="M74.6152,18.0718c2.4003,0,4.3461-1.9458,4.3461-4.3461s-1.9458-4.3452-4.3461-4.3452-4.3461,1.9449-4.3461,4.3452,1.9458,4.3461,4.3461,4.3461Z"/><path d="M74.6152,14.5167c.4365,0,.7911-.3537,.7911-.7911,0-.4365-.3546-.7902-.7911-.7902s-.7911,.3537-.7911,.7902c0,.4374,.3546,.7911,.7911,.7911"/></g></g></svg>