<?xml version="1.0" encoding="UTF-8"?><svg id="Layer_1" xmlns="http://www.w3.org/2000/svg" viewBox="0 0 262.7298 141.5378"><defs><style>.cls-1{fill:#fff;}.cls-2{fill:#909090;}.cls-3{fill:#c4c4c4;}.cls-4{fill:#e30510;}.cls-5{fill:#585857;}.cls-6{stroke-miterlimit:10;stroke-width:.1px;}.cls-6,.cls-7{stroke:#000;}.cls-6,.cls-7,.cls-8,.cls-9,.cls-10,.cls-11,.cls-12{fill:none;}.cls-7{stroke-linejoin:bevel;stroke-width:.297px;}.cls-7,.cls-8,.cls-9,.cls-10,.cls-11,.cls-12{stroke-linecap:round;}.cls-8{stroke:#929296;}.cls-8,.cls-9,.cls-10,.cls-11,.cls-12{stroke-linejoin:round;stroke-width:20.974px;}.cls-9{stroke:#5a5a5c;}.cls-10{stroke:#59595c;}.cls-11{stroke:#bbbdbd;}.cls-12{stroke:#e30510;}</style></defs><path class="cls-4" d="M152.4122,8.1591c0-1.45,1.175-2.625,2.625-2.625h8.923c1.45,0,2.625,1.175,2.625,2.625s-1.175,2.625-2.625,2.625h-8.923c-1.45,0-2.625-1.175-2.625-2.625"/><g><path d="M176.7765,9.3461h-.9043v1.1885h-.4653v-1.1885h-2.5518v-.3359l2.397-2.998h.5166l-2.3125,2.9199h1.9639v-1.0459h.4521v1.0459h.9043v.4141Z"/><path d="M178.0724,10.2953c-.2739-.1846-.4868-.4512-.6396-.7979-.1533-.3467-.2295-.7549-.2295-1.2236,0-.4697,.0762-.8779,.2295-1.2246,.1528-.3467,.3657-.6123,.6396-.7979,.2734-.1855,.5845-.2773,.9331-.2773,.3491,0,.6602,.0918,.9336,.2773s.4878,.4512,.6431,.7979c.1548,.3467,.2324,.7549,.2324,1.2246,0,.4688-.0776,.877-.2324,1.2236-.1553,.3467-.3696,.6133-.6431,.7979-.2734,.1855-.5845,.2783-.9336,.2783-.3486,0-.6597-.0928-.9331-.2783Zm1.6279-.3682c.2002-.1465,.356-.3594,.4683-.6396,.1118-.2793,.168-.6182,.168-1.0137,0-.3965-.0562-.7344-.168-1.0146-.1123-.2803-.2681-.4932-.4683-.6396s-.4321-.2197-.6948-.2197-.4941,.0732-.6943,.2197-.3564,.3594-.4683,.6396c-.1123,.2803-.168,.6182-.168,1.0146,0,.3955,.0557,.7344,.168,1.0137,.1118,.2803,.2681,.4932,.4683,.6396s.4316,.2197,.6943,.2197,.4946-.0732,.6948-.2197Z"/><path d="M181.6959,8.0961c-.187-.2266-.2808-.5225-.2808-.8887s.0938-.6621,.2808-.8887c.1875-.2256,.4341-.3389,.7397-.3389,.3013,0,.5469,.1123,.7363,.3359,.1899,.2246,.2847,.5215,.2847,.8916s-.0947,.668-.2847,.8916c-.1895,.2236-.4351,.3359-.7363,.3359-.3057,0-.5522-.1133-.7397-.3389Zm1.2471-.2002c.127-.166,.1904-.3955,.1904-.6885s-.0635-.5225-.1904-.6875c-.127-.166-.2964-.249-.5073-.249-.2153,0-.3853,.084-.5103,.252s-.1875,.3965-.1875,.6846c0,.2891,.0625,.5166,.1875,.6846s.2949,.252,.5103,.252c.2109,0,.3804-.083,.5073-.248Zm2.2319-1.8838h.3813l-3.0884,4.5225h-.3809l3.0879-4.5225Zm-.7041,4.2158c-.1895-.2266-.2842-.5225-.2842-.8887s.0947-.6621,.2842-.8877c.1895-.2266,.4351-.3398,.7363-.3398,.3057,0,.5522,.1133,.7397,.3398,.1875,.2256,.2812,.5215,.2812,.8877s-.0938,.6621-.2812,.8887c-.1875,.2256-.4341,.3389-.7397,.3389-.3013,0-.5469-.1133-.7363-.3389Zm1.2466-.2041c.125-.168,.1875-.3955,.1875-.6846,0-.2881-.0625-.5166-.1875-.6846s-.2949-.252-.5103-.252c-.2109,0-.3799,.083-.5068,.249-.1274,.165-.1909,.3945-.1909,.6875s.0635,.5225,.1909,.6885c.127,.166,.2959,.248,.5068,.248,.2153,0,.3853-.084,.5103-.252Z"/></g><g><path d="M198.1608,5.2621v4.5225h-.4717V5.6762h-2.8618v4.1084h-.4717V5.2621h3.8052Z"/><path d="M202.192,6.5766c.2583,.1445,.4609,.3486,.6069,.6113,.1465,.2627,.2197,.5615,.2197,.8975,0,.3408-.0732,.6416-.2197,.9043-.146,.2627-.3477,.4668-.604,.6104-.2559,.1445-.5459,.2168-.8687,.2168-.2759,0-.5244-.0566-.7461-.1709-.2222-.1143-.4038-.2812-.5459-.501v1.8926h-.459V6.3861h.4395v.6719c.1377-.2236,.3198-.3955,.5459-.5166,.2261-.1201,.4814-.1807,.7656-.1807,.3188,0,.6074,.0723,.8657,.2158Zm-.252,2.6689c.1938-.1104,.3457-.2666,.4556-.4688,.1094-.2021,.1646-.4326,.1646-.6914,0-.2578-.0552-.4873-.1646-.6875-.1099-.2002-.2617-.3564-.4556-.4688s-.4092-.168-.646-.168c-.2412,0-.458,.0557-.6494,.168-.1919,.1123-.3423,.2686-.4521,.4688s-.165,.4297-.165,.6875c0,.2588,.0552,.4893,.165,.6914s.2603,.3584,.4521,.4688c.1914,.1094,.4082,.1641,.6494,.1641,.2368,0,.4521-.0547,.646-.1641Z"/><path d="M204.5245,9.5942c-.2627-.1484-.4697-.3545-.6201-.6172-.1509-.2627-.2261-.5596-.2261-.8916,0-.3311,.0752-.6289,.2261-.8916,.1504-.2627,.3574-.4668,.6201-.6133s.5576-.2197,.8848-.2197c.3276,0,.6226,.0732,.8853,.2197s.4683,.3506,.6172,.6133c.1484,.2627,.2227,.5605,.2227,.8916,0,.332-.0742,.6289-.2227,.8916-.1489,.2627-.3545,.4688-.6172,.6172s-.5576,.2227-.8853,.2227c-.3271,0-.6221-.0742-.8848-.2227Zm1.5342-.3486c.1914-.1104,.3413-.2666,.4492-.4688,.1074-.2021,.1611-.4326,.1611-.6914,0-.2578-.0537-.4883-.1611-.6914-.1079-.2021-.2578-.3584-.4492-.4678-.1914-.1104-.4082-.165-.6494-.165s-.4575,.0547-.6489,.165c-.1919,.1094-.3428,.2656-.4521,.4678-.1099,.2031-.165,.4336-.165,.6914,0,.2588,.0552,.4893,.165,.6914,.1094,.2021,.2603,.3584,.4521,.4688,.1914,.1094,.4077,.1641,.6489,.1641s.458-.0547,.6494-.1641Z"/><path d="M211.4303,9.3842v1.2207h-.4331v-.8203h-3.0425v.8203h-.4331v-1.2207h.1938c.228-.0127,.3833-.1807,.4653-.5039,.0815-.3232,.1377-.7754,.168-1.3564l.0449-1.1377h2.5068v2.998h.5298Zm-2.7847-.6426c-.0601,.3115-.168,.5264-.3228,.6426h2.1187v-2.5908h-1.6343l-.0386,.7559c-.022,.4824-.0625,.8799-.123,1.1924Z"/><path d="M215.2091,6.3861l-1.6987,3.8057c-.1382,.3184-.2974,.5449-.478,.6777-.1812,.1338-.3984,.2002-.6528,.2002-.1636,0-.3164-.0254-.4585-.0771s-.2646-.1289-.3682-.2324l.2129-.3428c.1724,.1729,.3794,.2588,.6206,.2588,.1548,0,.2871-.043,.397-.1289,.1099-.0869,.2124-.2334,.3071-.4395l.1484-.3301-1.5181-3.3916h.478l1.2793,2.8877,1.2788-2.8877h.4521Z"/><path d="M217.1603,8.2729h-.7749v1.5117h-.459v-3.3984h.459v1.4922h.7817l1.1948-1.4922h.4976l-1.3374,1.6475,1.4346,1.751h-.543l-1.2534-1.5117Z"/><path d="M222.0704,6.7934h-1.2856v2.9912h-.459v-2.9912h-1.2856v-.4072h3.0303v.4072Z"/><path d="M225.1388,7.8725c.2241,.1855,.3359,.4521,.3359,.8008,0,.3623-.1206,.6396-.3618,.834-.2412,.1934-.5854,.2881-1.0337,.2842l-1.3438-.0068v-3.3984h.459v1.1895l.9688,.0127c.4268,.0039,.7515,.0986,.9756,.2842Zm-.3716,1.3789c.1616-.1309,.2427-.3242,.2427-.5781,0-.25-.0801-.4346-.2393-.5557-.1592-.1201-.3984-.1826-.7173-.1875l-.8589-.0127v1.5117l.8589,.0127c.3145,.0049,.5527-.0586,.7139-.1904Zm1.2759-2.8652h.459v3.3984h-.459v-3.3984Z"/><path d="M232.5485,6.3861v3.3984h-.4585v-2.9912h-2.1318v2.9912h-.459v-3.3984h3.0493Z"/><path d="M233.8536,6.3861h.459v2.7012l2.2676-2.7012h.4067v3.3984h-.4585v-2.7002l-2.2612,2.7002h-.4136v-3.3984Z"/><path d="M240.6891,6.7934h-1.2856v2.9912h-.459v-2.9912h-1.2856v-.4072h3.0303v.4072Z"/><path d="M243.5446,6.6938c.2368,.2217,.355,.5498,.355,.9844v2.1064h-.439v-.5293c-.1035,.1758-.2554,.3145-.4556,.4131s-.4385,.1484-.7139,.1484c-.3789,0-.6807-.0908-.9048-.2715-.2236-.1807-.3359-.4199-.3359-.7168,0-.2881,.1045-.5215,.3135-.6982,.209-.1758,.5415-.2646,.998-.2646h1.0791v-.2061c0-.293-.082-.5166-.2456-.6689-.1636-.1533-.4028-.2295-.7173-.2295-.2153,0-.4219,.0352-.6201,.1064s-.3682,.1689-.5103,.2939l-.2065-.3418c.1719-.1465,.3789-.2598,.6201-.3398,.2412-.0791,.4951-.1191,.7622-.1191,.4434,0,.7837,.1104,1.021,.333Zm-.5171,2.584c.1851-.1191,.3232-.29,.4136-.5137v-.5557h-1.0659c-.5815,0-.8721,.2021-.8721,.6074,0,.1982,.0752,.3545,.2261,.4678,.1504,.1143,.3618,.1719,.6328,.1719,.2588,0,.4805-.0596,.6655-.1777Z"/><path d="M245.1202,6.3861h.459v1.5059h2.1382v-1.5059h.4585v3.3984h-.4585v-1.499h-2.1382v1.499h-.459v-3.3984Z"/><path d="M249.4811,6.3861h.459v2.7012l2.2676-2.7012h.4067v3.3984h-.4585v-2.7002l-2.2612,2.7002h-.4136v-3.3984Z"/><path d="M256.5358,6.3861v3.3984h-.4199v-1.124h-1.1953l-.7881,1.124h-.4976l.8462-1.1885c-.2627-.0732-.4648-.1982-.6074-.375-.1421-.1768-.2129-.4004-.2129-.6719,0-.3789,.1289-.667,.3877-.8652,.2583-.1982,.6113-.2979,1.0596-.2979h1.4277Zm-1.4473,1.9316h1.0273v-1.5244h-.9951c-.6631,0-.9951,.2568-.9951,.7686,0,.5039,.3208,.7559,.9629,.7559Z"/></g><path class="cls-5" d="M152.4122,20.5784c0-1.45,1.175-2.625,2.625-2.625h8.923c1.45,0,2.625,1.175,2.625,2.625s-1.175,2.625-2.625,2.625h-8.923c-1.45,0-2.625-1.175-2.625-2.625"/><g><path d="M179.4884,18.4311l1.2856,1.79,1.2788-1.79h.5625l-1.5444,2.1709,1.667,2.3516h-.562l-1.4019-1.9443-1.4019,1.9443h-.5493l1.6602-2.332-1.5439-2.1904h.5493Z"/><path d="M183.6876,18.4311l1.2856,1.79,1.2788-1.79h.5625l-1.5444,2.1709,1.667,2.3516h-.562l-1.4019-1.9443-1.4019,1.9443h-.5493l1.6602-2.332-1.5439-2.1904h.5493Z"/></g><g><path d="M195.1212,21.9418c-.3638-.2002-.6484-.4746-.8525-.8232-.2046-.3496-.3071-.7412-.3071-1.1758,0-.4355,.1025-.8271,.3071-1.1758,.2041-.3496,.4888-.624,.8525-.8242s.77-.2998,1.2178-.2998,.8516,.0986,1.2114,.2969c.3594,.1982,.6426,.4727,.8496,.8232,.2065,.3516,.3101,.7441,.3101,1.1797,0,.4346-.1035,.8281-.3101,1.1787-.207,.3506-.4902,.626-.8496,.8232-.3599,.1982-.7637,.2979-1.2114,.2979s-.854-.1006-1.2178-.3008Zm2.187-.3682c.2886-.1611,.5146-.3857,.6782-.6719s.2456-.6064,.2456-.959c0-.3535-.082-.6729-.2456-.96-.1636-.2861-.3896-.5098-.6782-.6719-.2886-.1611-.6118-.2422-.9692-.2422s-.6816,.0811-.9722,.2422c-.291,.1621-.519,.3857-.6851,.6719-.1655,.2871-.2485,.6064-.2485,.96,0,.3525,.083,.6729,.2485,.959,.166,.2861,.394,.5107,.6851,.6719,.2905,.1611,.6147,.2422,.9722,.2422s.6807-.0811,.9692-.2422Z"/><path d="M203.0577,21.8031v1.2207h-.4331v-.8203h-3.0425v.8203h-.4331v-1.2207h.1938c.228-.0127,.3833-.1807,.4653-.5039,.0815-.3232,.1377-.7754,.168-1.3564l.0449-1.1377h2.5068v2.998h.5298Zm-2.7847-.6426c-.0601,.3115-.168,.5264-.3228,.6426h2.1187v-2.5908h-1.6343l-.0386,.7559c-.022,.4824-.0625,.8799-.123,1.1924Z"/><path d="M206.9205,20.6469h-2.8423c.0259,.3525,.1616,.6387,.4067,.8555,.2456,.2178,.5557,.3262,.9307,.3262,.2109,0,.4048-.0371,.5811-.1123,.1768-.0762,.3296-.1865,.459-.333l.2583,.2969c-.1509,.1807-.3394,.3193-.5654,.4141s-.4746,.1416-.7461,.1416c-.3486,0-.6577-.0742-.9268-.2227-.2695-.1484-.4795-.3545-.6299-.6172-.1509-.2627-.2261-.5596-.2261-.8916,0-.3311,.0718-.6289,.2163-.8916,.144-.2627,.3423-.4668,.5942-.6133s.5352-.2197,.8496-.2197,.5962,.0732,.8462,.2197,.4458,.3496,.5879,.6104,.2134,.5586,.2134,.8945l-.0068,.1426Zm-2.4644-1.1602c-.2217,.209-.3477,.4814-.3779,.8174h2.4097c-.0303-.3359-.1562-.6084-.3779-.8174s-.4985-.3135-.8301-.3135c-.3276,0-.6021,.1045-.8237,.3135Z"/><path d="M210.9201,20.6918h-.7368v1.5117h-.4585v-1.5117h-.7363l-1.04,1.5117h-.5493l1.2212-1.751-1.1245-1.6475h.4976l.9951,1.4922h.7363v-1.4922h.4585v1.4922h.7368l1.001-1.4922h.4976l-1.124,1.6543,1.2212,1.7441h-.5493l-1.0464-1.5117Z"/><path d="M216.5919,21.8031v1.2207h-.4331v-.8203h-3.0425v.8203h-.4331v-1.2207h.1938c.228-.0127,.3833-.1807,.4653-.5039,.0815-.3232,.1377-.7754,.168-1.3564l.0449-1.1377h2.5068v2.998h.5298Zm-2.7847-.6426c-.0601,.3115-.168,.5264-.3228,.6426h2.1187v-2.5908h-1.6343l-.0386,.7559c-.022,.4824-.0625,.8799-.123,1.1924Z"/><path d="M219.674,19.1127c.2368,.2217,.355,.5498,.355,.9844v2.1064h-.439v-.5293c-.1035,.1758-.2554,.3145-.4556,.4131s-.4385,.1484-.7139,.1484c-.3789,0-.6807-.0908-.9048-.2715-.2236-.1807-.3359-.4199-.3359-.7168,0-.2881,.1045-.5215,.3135-.6982,.209-.1758,.5415-.2646,.998-.2646h1.0791v-.2061c0-.293-.082-.5166-.2456-.6689-.1636-.1533-.4028-.2295-.7173-.2295-.2153,0-.4219,.0352-.6201,.1064s-.3682,.1689-.5103,.2939l-.2065-.3418c.1719-.1465,.3789-.2598,.6201-.3398,.2412-.0791,.4951-.1191,.7622-.1191,.4434,0,.7837,.1104,1.021,.333Zm-.5171,2.584c.1851-.1191,.3232-.29,.4136-.5137v-.5557h-1.0659c-.5815,0-.8721,.2021-.8721,.6074,0,.1982,.0752,.3545,.2261,.4678,.1504,.1143,.3618,.1719,.6328,.1719,.2588,0,.4805-.0596,.6655-.1777Z"/></g><path class="cls-2" d="M152.4122,32.9977c0-1.45,1.175-2.625,2.625-2.625h8.923c1.45,0,2.625,1.175,2.625,2.625s-1.175,2.625-2.625,2.625h-8.923c-1.45,0-2.625-1.175-2.625-2.625"/><g><path d="M179.4884,30.85l1.2856,1.79,1.2788-1.79h.5625l-1.5444,2.1709,1.667,2.3516h-.562l-1.4019-1.9443-1.4019,1.9443h-.5493l1.6602-2.332-1.5439-2.1904h.5493Z"/><path d="M183.6876,30.85l1.2856,1.79,1.2788-1.79h.5625l-1.5444,2.1709,1.667,2.3516h-.562l-1.4019-1.9443-1.4019,1.9443h-.5493l1.6602-2.332-1.5439-2.1904h.5493Z"/></g><g><path d="M197.4049,30.5141c.3271,.2754,.4912,.6543,.4912,1.1367s-.1641,.8604-.4912,1.1338-.7793,.4102-1.3564,.4102h-1.2148v1.4277h-.478v-4.5225h1.6929c.5771,0,1.0293,.1377,1.3564,.4141Zm-.3423,1.9668c.2368-.1963,.3555-.4727,.3555-.8301,0-.3662-.1187-.6475-.3555-.8428-.2368-.1963-.5791-.2939-1.0273-.2939h-1.2017v2.2607h1.2017c.4482,0,.7905-.0977,1.0273-.2939Z"/><path d="M201.0231,31.5317c.2368,.2217,.355,.5498,.355,.9844v2.1064h-.439v-.5293c-.1035,.1758-.2554,.3145-.4556,.4131s-.4385,.1484-.7139,.1484c-.3789,0-.6807-.0908-.9048-.2715-.2236-.1807-.3359-.4199-.3359-.7168,0-.2881,.1045-.5215,.3135-.6982,.209-.1758,.5415-.2646,.998-.2646h1.0791v-.2061c0-.293-.082-.5166-.2456-.6689-.1636-.1533-.4028-.2295-.7173-.2295-.2153,0-.4219,.0352-.6201,.1064s-.3682,.1689-.5103,.2939l-.2065-.3418c.1719-.1465,.3789-.2598,.6201-.3398,.2412-.0791,.4951-.1191,.7622-.1191,.4434,0,.7837,.1104,1.021,.333Zm-.5171,2.584c.1851-.1191,.3232-.29,.4136-.5137v-.5557h-1.0659c-.5815,0-.8721,.2021-.8721,.6074,0,.1982,.0752,.3545,.2261,.4678,.1504,.1143,.3618,.1719,.6328,.1719,.2588,0,.4805-.0596,.6655-.1777Z"/><path d="M204.8117,33.143c.1313,.1377,.1968,.3057,.1968,.5039s-.0679,.375-.2031,.5303c-.1357,.1543-.3198,.2744-.5527,.3584-.2324,.084-.4888,.126-.7686,.126-.2456,0-.4868-.0361-.7236-.1064-.2368-.0713-.4438-.1758-.6201-.3135l.1548-.3428c.1553,.1162,.3359,.207,.543,.2715,.2065,.0645,.4155,.0967,.6265,.0967,.3145,0,.5718-.0586,.772-.1777,.2002-.1182,.3008-.2783,.3008-.4814,0-.1807-.082-.3213-.2456-.4229-.1641-.1006-.3877-.1514-.6719-.1514h-.5815v-.3359h.5557c.2539,0,.4585-.0488,.6138-.1455,.1548-.0967,.2324-.2275,.2324-.3906,0-.1816-.0874-.3232-.2617-.4268s-.4014-.1553-.6816-.1553c-.3657,0-.7275,.0928-1.085,.2783l-.1294-.3555c.4048-.2109,.8247-.3164,1.2598-.3164,.2583,0,.4922,.0371,.7012,.1123,.2085,.0762,.3721,.1826,.4907,.3203s.1777,.2969,.1777,.4775c0,.1729-.0591,.3252-.1777,.459s-.2788,.2324-.4814,.2969c.2412,.0566,.4277,.1533,.5591,.291Z"/><path d="M208.9039,33.6986c0,.2969-.1099,.5254-.3291,.6846-.2197,.1592-.5474,.2393-.9824,.2393h-1.5439v-3.3984h1.499c.3877,0,.6914,.0762,.9106,.2266,.2197,.1504,.3296,.3662,.3296,.6455,0,.1855-.0508,.3438-.1519,.4756-.1011,.1309-.2422,.2285-.4229,.2939,.4604,.1074,.6909,.3848,.6909,.833Zm-2.4097-.9629h1.021c.2627,0,.4639-.0488,.604-.1484,.1396-.0986,.21-.2432,.21-.4326s-.0703-.332-.21-.4268c-.1401-.0947-.3413-.1416-.604-.1416h-1.021v1.1494Zm1.7378,1.3828c.1465-.0947,.2197-.2432,.2197-.4453,0-.2031-.0669-.3525-.2002-.4492s-.3447-.1455-.6333-.1455h-1.124v1.1826h1.0791c.293,0,.5122-.0479,.6587-.1426Z"/><path d="M212.755,31.224v3.3984h-.459v-2.9912h-1.6279l-.0454,.8398c-.0342,.7061-.1162,1.249-.2451,1.6279-.1294,.3789-.3599,.5684-.6914,.5684-.0903,0-.2002-.0166-.3296-.0518l.0322-.3936c.0776,.0176,.1313,.0254,.1616,.0254,.1768,0,.3101-.0811,.4004-.2451,.0908-.1641,.1509-.3662,.1812-.6074,.0298-.2412,.0557-.5596,.0776-.9561l.0581-1.2148h2.4873Z"/><path d="M217.0309,33.0658h-2.8423c.0259,.3525,.1616,.6387,.4067,.8555,.2456,.2178,.5557,.3262,.9307,.3262,.2109,0,.4048-.0371,.5811-.1123,.1768-.0762,.3296-.1865,.459-.333l.2583,.2969c-.1509,.1807-.3394,.3193-.5654,.4141s-.4746,.1416-.7461,.1416c-.3486,0-.6577-.0742-.9268-.2227-.2695-.1484-.4795-.3545-.6299-.6172-.1509-.2627-.2261-.5596-.2261-.8916,0-.3311,.0718-.6289,.2163-.8916,.144-.2627,.3423-.4668,.5942-.6133s.5352-.2197,.8496-.2197,.5962,.0732,.8462,.2197,.4458,.3496,.5879,.6104,.2134,.5586,.2134,.8945l-.0068,.1426Zm-2.4644-1.1602c-.2217,.209-.3477,.4814-.3779,.8174h2.4097c-.0303-.3359-.1562-.6084-.3779-.8174s-.4985-.3135-.8301-.3135c-.3276,0-.6021,.1045-.8237,.3135Z"/><path d="M220.6168,31.224v3.3984h-.4585v-1.415c-.3921,.1729-.7778,.2588-1.1567,.2588-.4092,0-.728-.0938-.9561-.2812-.2285-.1875-.3423-.4688-.3423-.8428v-1.1182h.4585v1.0918c0,.2549,.082,.4473,.2456,.5781,.1636,.1318,.3896,.1973,.6782,.1973,.3188,0,.6763-.084,1.0728-.252v-1.6152h.4585Z"/><path d="M224.8932,33.0658h-2.8423c.0259,.3525,.1616,.6387,.4067,.8555,.2456,.2178,.5557,.3262,.9307,.3262,.2109,0,.4048-.0371,.5811-.1123,.1768-.0762,.3296-.1865,.459-.333l.2583,.2969c-.1509,.1807-.3394,.3193-.5654,.4141s-.4746,.1416-.7461,.1416c-.3486,0-.6577-.0742-.9268-.2227-.2695-.1484-.4795-.3545-.6299-.6172-.1509-.2627-.2261-.5596-.2261-.8916,0-.3311,.0718-.6289,.2163-.8916,.144-.2627,.3423-.4668,.5942-.6133s.5352-.2197,.8496-.2197,.5962,.0732,.8462,.2197,.4458,.3496,.5879,.6104,.2134,.5586,.2134,.8945l-.0068,.1426Zm-2.4644-1.1602c-.2217,.209-.3477,.4814-.3779,.8174h2.4097c-.0303-.3359-.1562-.6084-.3779-.8174s-.4985-.3135-.8301-.3135c-.3276,0-.6021,.1045-.8237,.3135Z"/><path d="M225.9142,31.224h.459v1.5059h2.1382v-1.5059h.4585v3.3984h-.4585v-1.499h-2.1382v1.499h-.459v-3.3984Z"/><path d="M230.2745,31.224h.459v2.7012l2.2676-2.7012h.4067v3.3984h-.4585v-2.7002l-2.2612,2.7002h-.4136v-3.3984Z"/><path d="M237.3297,31.224v3.3984h-.4199v-1.124h-1.1953l-.7881,1.124h-.4976l.8462-1.1885c-.2627-.0732-.4648-.1982-.6074-.375-.1421-.1768-.2129-.4004-.2129-.6719,0-.3789,.1289-.667,.3877-.8652,.2583-.1982,.6113-.2979,1.0596-.2979h1.4277Zm-1.4473,1.9316h1.0273v-1.5244h-.9951c-.6631,0-.9951,.2568-.9951,.7686,0,.5039,.3208,.7559,.9629,.7559Z"/></g><path class="cls-3" d="M152.4122,45.4169c0-1.45,1.175-2.625,2.625-2.625h8.923c1.45,0,2.625,1.175,2.625,2.625s-1.175,2.625-2.625,2.625h-8.923c-1.45,0-2.625-1.175-2.625-2.625"/><g><path d="M179.4884,43.2699l1.2856,1.79,1.2788-1.79h.5625l-1.5444,2.1709,1.667,2.3516h-.562l-1.4019-1.9443-1.4019,1.9443h-.5493l1.6602-2.332-1.5439-2.1904h.5493Z"/><path d="M183.6876,43.2699l1.2856,1.79,1.2788-1.79h.5625l-1.5444,2.1709,1.667,2.3516h-.562l-1.4019-1.9443-1.4019,1.9443h-.5493l1.6602-2.332-1.5439-2.1904h.5493Z"/></g><g><path d="M199.0524,42.5199v4.5225h-.4585v-3.6182l-1.7769,3.043h-.2261l-1.7764-3.0234v3.5986h-.459v-4.5225h.394l1.9639,3.3535,1.9448-3.3535h.394Z"/><path d="M203.4386,45.4858h-2.8423c.0259,.3525,.1616,.6387,.4067,.8555,.2456,.2178,.5557,.3262,.9307,.3262,.2109,0,.4048-.0371,.5811-.1123,.1768-.0762,.3296-.1865,.459-.333l.2583,.2969c-.1509,.1807-.3394,.3193-.5654,.4141s-.4746,.1416-.7461,.1416c-.3486,0-.6577-.0742-.9268-.2227-.2695-.1484-.4795-.3545-.6299-.6172-.1509-.2627-.2261-.5596-.2261-.8916,0-.3311,.0718-.6289,.2163-.8916,.144-.2627,.3423-.4668,.5942-.6133s.5352-.2197,.8496-.2197,.5962,.0732,.8462,.2197,.4458,.3496,.5879,.6104,.2134,.5586,.2134,.8945l-.0068,.1426Zm-2.4644-1.1602c-.2217,.209-.3477,.4814-.3779,.8174h2.4097c-.0303-.3359-.1562-.6084-.3779-.8174s-.4985-.3135-.8301-.3135c-.3276,0-.6021,.1045-.8237,.3135Z"/><path d="M207.7741,46.642v1.2207h-.4331v-.8203h-3.0425v.8203h-.4331v-1.2207h.1938c.228-.0127,.3833-.1807,.4653-.5039,.0815-.3232,.1377-.7754,.168-1.3564l.0449-1.1377h2.5068v2.998h.5298Zm-2.7847-.6426c-.0601,.3115-.168,.5264-.3228,.6426h2.1187v-2.5908h-1.6343l-.0386,.7559c-.022,.4824-.0625,.8799-.123,1.1924Z"/><path d="M208.6652,43.644h.459v2.7012l2.2676-2.7012h.4067v3.3984h-.4585v-2.7002l-2.2612,2.7002h-.4136v-3.3984Z"/><path d="M216.65,46.642v1.2529h-.4331v-.8525h-3.1074v-3.3984h.459v2.998h2.0737v-2.998h.4585v2.998h.5493Z"/><path d="M217.5284,43.644h.459v2.7012l2.2676-2.7012h.4067v3.3984h-.4585v-2.7002l-2.2612,2.7002h-.4136v-3.3984Z"/><path d="M221.9733,43.644h.459v1.5059h2.1382v-1.5059h.4585v3.3984h-.4585v-1.499h-2.1382v1.499h-.459v-3.3984Z"/><path d="M228.5241,43.9516c.2368,.2217,.355,.5498,.355,.9844v2.1064h-.439v-.5293c-.1035,.1758-.2554,.3145-.4556,.4131s-.4385,.1484-.7139,.1484c-.3789,0-.6807-.0908-.9048-.2715-.2236-.1807-.3359-.4199-.3359-.7168,0-.2881,.1045-.5215,.3135-.6982,.209-.1758,.5415-.2646,.998-.2646h1.0791v-.2061c0-.293-.082-.5166-.2456-.6689-.1636-.1533-.4028-.2295-.7173-.2295-.2153,0-.4219,.0352-.6201,.1064s-.3682,.1689-.5103,.2939l-.2065-.3418c.1719-.1465,.3789-.2598,.6201-.3398,.2412-.0791,.4951-.1191,.7622-.1191,.4434,0,.7837,.1104,1.021,.333Zm-.5171,2.584c.1851-.1191,.3232-.29,.4136-.5137v-.5557h-1.0659c-.5815,0-.8721,.2021-.8721,.6074,0,.1982,.0752,.3545,.2261,.4678,.1504,.1143,.3618,.1719,.6328,.1719,.2588,0,.4805-.0596,.6655-.1777Z"/></g><path class="cls-1" d="M152.4622,57.7863c0-1.45,1.175-2.625,2.625-2.625h8.923c1.45,0,2.625,1.175,2.625,2.625s-1.175,2.625-2.625,2.625h-8.923c-1.45,0-2.625-1.175-2.625-2.625"/><path class="cls-6" d="M152.4622,57.7863c0-1.45,1.175-2.625,2.625-2.625h8.923c1.45,0,2.625,1.175,2.625,2.625s-1.175,2.625-2.625,2.625h-8.923c-1.45,0-2.625-1.175-2.625-2.625Z"/><g><path d="M180.5324,55.6889l1.2856,1.79,1.2788-1.79h.5625l-1.5444,2.1709,1.667,2.3516h-.562l-1.4019-1.9443-1.4019,1.9443h-.5493l1.6602-2.332-1.5439-2.1904h.5493Z"/><path d="M184.7316,55.6889l1.2856,1.79,1.2788-1.79h.5625l-1.5444,2.1709,1.667,2.3516h-.562l-1.4019-1.9443-1.4019,1.9443h-.5493l1.6602-2.332-1.5439-2.1904h.5493Z"/></g><g><path d="M198.1608,54.9389v4.5225h-.4717v-4.1084h-2.8618v4.1084h-.4717v-4.5225h3.8052Z"/><path d="M202.192,56.2533c.2583,.1445,.4609,.3486,.6069,.6113,.1465,.2627,.2197,.5615,.2197,.8975,0,.3408-.0732,.6416-.2197,.9043-.146,.2627-.3477,.4668-.604,.6104-.2559,.1445-.5459,.2168-.8687,.2168-.2759,0-.5244-.0566-.7461-.1709-.2222-.1143-.4038-.2812-.5459-.501v1.8926h-.459v-4.6514h.4395v.6719c.1377-.2236,.3198-.3955,.5459-.5166,.2261-.1201,.4814-.1807,.7656-.1807,.3188,0,.6074,.0723,.8657,.2158Zm-.252,2.6689c.1938-.1104,.3457-.2666,.4556-.4688,.1094-.2021,.1646-.4326,.1646-.6914,0-.2578-.0552-.4873-.1646-.6875-.1099-.2002-.2617-.3564-.4556-.4688s-.4092-.168-.646-.168c-.2412,0-.458,.0557-.6494,.168-.1919,.1123-.3423,.2686-.4521,.4688s-.165,.4297-.165,.6875c0,.2588,.0552,.4893,.165,.6914s.2603,.3584,.4521,.4688c.1914,.1094,.4082,.1641,.6494,.1641,.2368,0,.4521-.0547,.646-.1641Z"/><path d="M204.5245,59.2709c-.2627-.1484-.4697-.3545-.6201-.6172-.1509-.2627-.2261-.5596-.2261-.8916,0-.3311,.0752-.6289,.2261-.8916,.1504-.2627,.3574-.4668,.6201-.6133s.5576-.2197,.8848-.2197c.3276,0,.6226,.0732,.8853,.2197s.4683,.3506,.6172,.6133c.1484,.2627,.2227,.5605,.2227,.8916,0,.332-.0742,.6289-.2227,.8916-.1489,.2627-.3545,.4688-.6172,.6172s-.5576,.2227-.8853,.2227c-.3271,0-.6221-.0742-.8848-.2227Zm1.5342-.3486c.1914-.1104,.3413-.2666,.4492-.4688,.1074-.2021,.1611-.4326,.1611-.6914,0-.2578-.0537-.4883-.1611-.6914-.1079-.2021-.2578-.3584-.4492-.4678-.1914-.1104-.4082-.165-.6494-.165s-.4575,.0547-.6489,.165c-.1919,.1094-.3428,.2656-.4521,.4678-.1099,.2031-.165,.4336-.165,.6914,0,.2588,.0552,.4893,.165,.6914,.1094,.2021,.2603,.3584,.4521,.4688,.1914,.1094,.4077,.1641,.6489,.1641s.458-.0547,.6494-.1641Z"/><path d="M210.6808,56.0629v3.3984h-.4585v-1.415c-.3921,.1729-.7778,.2588-1.1567,.2588-.4092,0-.728-.0938-.9561-.2812-.2285-.1875-.3423-.4688-.3423-.8428v-1.1182h.4585v1.0918c0,.2549,.082,.4473,.2456,.5781,.1636,.1318,.3896,.1973,.6782,.1973,.3188,0,.6763-.084,1.0728-.252v-1.6152h.4585Z"/><path d="M211.9855,56.0629h.459v2.7012l2.2676-2.7012h.4067v3.3984h-.4585v-2.7002l-2.2612,2.7002h-.4136v-3.3984Z"/><path d="M219.402,57.9047h-2.8423c.0259,.3525,.1616,.6387,.4067,.8555,.2456,.2178,.5557,.3262,.9307,.3262,.2109,0,.4048-.0371,.5811-.1123,.1768-.0762,.3296-.1865,.459-.333l.2583,.2969c-.1509,.1807-.3394,.3193-.5654,.4141s-.4746,.1416-.7461,.1416c-.3486,0-.6577-.0742-.9268-.2227-.2695-.1484-.4795-.3545-.6299-.6172-.1509-.2627-.2261-.5596-.2261-.8916,0-.3311,.0718-.6289,.2163-.8916,.144-.2627,.3423-.4668,.5942-.6133s.5352-.2197,.8496-.2197,.5962,.0732,.8462,.2197,.4458,.3496,.5879,.6104,.2134,.5586,.2134,.8945l-.0068,.1426Zm-2.4644-1.1602c-.2217,.209-.3477,.4814-.3779,.8174h2.4097c-.0303-.3359-.1562-.6084-.3779-.8174s-.4985-.3135-.8301-.3135c-.3276,0-.6021,.1045-.8237,.3135Z"/><path d="M223.3492,57.9496h-.7749v1.5117h-.459v-3.3984h.459v1.4922h.7817l1.1948-1.4922h.4976l-1.3374,1.6475,1.4346,1.751h-.543l-1.2534-1.5117Z"/><path d="M228.0592,56.3705c.2368,.2217,.355,.5498,.355,.9844v2.1064h-.439v-.5293c-.1035,.1758-.2554,.3145-.4556,.4131s-.4385,.1484-.7139,.1484c-.3789,0-.6807-.0908-.9048-.2715-.2236-.1807-.3359-.4199-.3359-.7168,0-.2881,.1045-.5215,.3135-.6982,.209-.1758,.5415-.2646,.998-.2646h1.0791v-.2061c0-.293-.082-.5166-.2456-.6689-.1636-.1533-.4028-.2295-.7173-.2295-.2153,0-.4219,.0352-.6201,.1064s-.3682,.1689-.5103,.2939l-.2065-.3418c.1719-.1465,.3789-.2598,.6201-.3398,.2412-.0791,.4951-.1191,.7622-.1191,.4434,0,.7837,.1104,1.021,.333Zm-.5171,2.584c.1851-.1191,.3232-.29,.4136-.5137v-.5557h-1.0659c-.5815,0-.8721,.2021-.8721,.6074,0,.1982,.0752,.3545,.2261,.4678,.1504,.1143,.3618,.1719,.6328,.1719,.2588,0,.4805-.0596,.6655-.1777Z"/><path d="M232.0255,56.4701h-1.2856v2.9912h-.459v-2.9912h-1.2856v-.4072h3.0303v.4072Z"/><path d="M235.6622,57.9047h-2.8423c.0259,.3525,.1616,.6387,.4067,.8555,.2456,.2178,.5557,.3262,.9307,.3262,.2109,0,.4048-.0371,.5811-.1123,.1768-.0762,.3296-.1865,.459-.333l.2583,.2969c-.1509,.1807-.3394,.3193-.5654,.4141s-.4746,.1416-.7461,.1416c-.3486,0-.6577-.0742-.9268-.2227-.2695-.1484-.4795-.3545-.6299-.6172-.1509-.2627-.2261-.5596-.2261-.8916,0-.3311,.0718-.6289,.2163-.8916,.144-.2627,.3423-.4668,.5942-.6133s.5352-.2197,.8496-.2197,.5962,.0732,.8462,.2197,.4458,.3496,.5879,.6104,.2134,.5586,.2134,.8945l-.0068,.1426Zm-2.4644-1.1602c-.2217,.209-.3477,.4814-.3779,.8174h2.4097c-.0303-.3359-.1562-.6084-.3779-.8174s-.4985-.3135-.8301-.3135c-.3276,0-.6021,.1045-.8237,.3135Z"/><path d="M239.0866,56.4701h-1.9443v2.9912h-.459v-3.3984h2.4033v.4072Z"/><path d="M240.2692,59.2709c-.2627-.1484-.4697-.3545-.6201-.6172-.1509-.2627-.2261-.5596-.2261-.8916,0-.3311,.0752-.6289,.2261-.8916,.1504-.2627,.3574-.4668,.6201-.6133s.5576-.2197,.8848-.2197c.3276,0,.6226,.0732,.8853,.2197s.4683,.3506,.6172,.6133c.1484,.2627,.2227,.5605,.2227,.8916,0,.332-.0742,.6289-.2227,.8916-.1489,.2627-.3545,.4688-.6172,.6172s-.5576,.2227-.8853,.2227c-.3271,0-.6221-.0742-.8848-.2227Zm1.5342-.3486c.1914-.1104,.3413-.2666,.4492-.4688,.1074-.2021,.1611-.4326,.1611-.6914,0-.2578-.0537-.4883-.1611-.6914-.1079-.2021-.2578-.3584-.4492-.4678-.1914-.1104-.4082-.165-.6494-.165s-.4575,.0547-.6489,.165c-.1919,.1094-.3428,.2656-.4521,.4678-.1099,.2031-.165,.4336-.165,.6914,0,.2588,.0552,.4893,.165,.6914,.1094,.2021,.2603,.3584,.4521,.4688,.1914,.1094,.4077,.1641,.6489,.1641s.458-.0547,.6494-.1641Z"/><path d="M246.4772,56.2533c.2583,.1445,.4609,.3486,.6069,.6113,.1465,.2627,.2197,.5615,.2197,.8975,0,.3408-.0732,.6416-.2197,.9043-.146,.2627-.3477,.4668-.604,.6104-.2559,.1445-.5459,.2168-.8687,.2168-.2759,0-.5244-.0566-.7461-.1709-.2222-.1143-.4038-.2812-.5459-.501v1.8926h-.459v-4.6514h.4395v.6719c.1377-.2236,.3198-.3955,.5459-.5166,.2261-.1201,.4814-.1807,.7656-.1807,.3188,0,.6074,.0723,.8657,.2158Zm-.252,2.6689c.1938-.1104,.3457-.2666,.4556-.4688,.1094-.2021,.1646-.4326,.1646-.6914,0-.2578-.0552-.4873-.1646-.6875-.1099-.2002-.2617-.3564-.4556-.4688s-.4092-.168-.646-.168c-.2412,0-.458,.0557-.6494,.168-.1919,.1123-.3423,.2686-.4521,.4688s-.165,.4297-.165,.6875c0,.2588,.0552,.4893,.165,.6914s.2603,.3584,.4521,.4688c.1914,.1094,.4082,.1641,.6494,.1641,.2368,0,.4521-.0547,.646-.1641Z"/><path d="M248.2921,56.0629h.459v2.7012l2.2676-2.7012h.4067v3.3984h-.4585v-2.7002l-2.2612,2.7002h-.4136v-3.3984Z"/><path d="M252.7369,56.0629h.459v2.7012l2.2676-2.7012h.4067v3.3984h-.4585v-2.7002l-2.2612,2.7002h-.4136v-3.3984Z"/></g><g><path class="cls-10" d="M75.0223,13.7407c30.0366,1.5741,53.1108,27.1998,51.5367,57.2373-1.5741,30.0366-27.1998,53.1108-57.2373,51.5367-16.5807-.8694-30.6522-8.3511-40.6449-21.6117"/><g><path class="cls-11" d="M24.0853,42.5595c9.6732-18.1917,27.4833-28.8936,48.087-28.8936"/><path class="cls-8" d="M18.5379,77.5848c-2.1888-12.411-.369-23.8977,5.5476-35.0253"/><path class="cls-9" d="M28.6771,100.9034c-5.5026-7.3026-8.5518-14.3136-10.1394-23.319"/><path class="cls-12" d="M75.0223,13.7407c30.0366,1.5741,53.1108,27.1998,51.5367,57.2373-.8708,16.6171-9.1029,31.1032-21.3709,40.4639"/><path class="cls-7" d="M75.0223,13.7407c30.0366,1.5741,53.1108,27.1998,51.5367,57.2373-1.5741,30.0366-27.1998,53.1108-57.2373,51.5367-16.5807-.8694-30.6522-8.3511-40.6449-21.6117"/><path class="cls-11" d="M72.172,13.6662c1.143,0,1.7091,.0144,2.8503,.0747"/><path class="cls-7" d="M126.6345,68.1296c0,30.0798-24.3846,54.4635-54.4635,54.4635s-54.4644-24.3837-54.4644-54.4635S42.0912,13.6661,72.171,13.6661s54.4635,24.3837,54.4635,54.4635Z"/><path d="M122.805,89.9139c0,.4365-.3537,.7911-.7911,.7911-.4365,0-.7902-.3546-.7902-.7911s.3537-.7911,.7902-.7911c.4374,0,.7911,.3546,.7911,.7911"/><path d="M20.4127,82.7942c0,.4365-.3537,.7911-.7911,.7911-.4365,0-.7902-.3546-.7902-.7911s.3537-.7911,.7902-.7911c.4374,0,.7911,.3546,.7911,.7911"/><path d="M20.8704,51.7738c0,.4365-.3537,.7911-.7911,.7911-.4365,0-.7902-.3546-.7902-.7911s.3537-.7911,.7902-.7911c.4374,0,.7911,.3546,.7911,.7911"/><path d="M50.3331,18.5282c0,.4365-.3537,.7911-.7911,.7911-.4365,0-.7902-.3546-.7902-.7911s.3537-.7911,.7902-.7911c.4374,0,.7911,.3546,.7911,.7911"/></g><g><path class="cls-1" d="M74.6152,18.0718c2.4003,0,4.3461-1.9458,4.3461-4.3461s-1.9458-4.3452-4.3461-4.3452-4.3461,1.9449-4.3461,4.3452,1.9458,4.3461,4.3461,4.3461"/><path class="cls-6" d="M74.6152,18.0718c2.4003,0,4.3461-1.9458,4.3461-4.3461s-1.9458-4.3452-4.3461-4.3452-4.3461,1.9449-4.3461,4.3452,1.9458,4.3461,4.3461,4.3461Z"/><path d="M74.6152,14.5167c.4365,0,.7911-.3537,.7911-.7911,0-.4365-.3546-.7902-.7911-.7902s-.7911,.3537-.7911,.7902c0,.4374,.3546,.7911,.7911,.7911"/></g></g></svg>