<?xml version="1.0" encoding="UTF-8"?><svg id="Layer_1" xmlns="http://www.w3.org/2000/svg" viewBox="0 0 339.9832 205.3148"><defs><style>.cls-1{fill:#c4c4c4;}.cls-2{fill:#e30510;}.cls-3{fill:#222;}.cls-4{fill:none;stroke:#000;stroke-linecap:round;stroke-linejoin:bevel;stroke-width:.3px;}</style></defs><g><path class="cls-3" d="M3.9613,5.1006v1.2949h-.6001v-.7451H.6762v.7451H.0712l.0054-1.2949H.2265c.2197-.0103,.374-.1729,.4624-.4878s.1426-.7656,.1626-1.3525l.04-1.1099H3.4564v2.9502h.5049Zm-2.6499-.6475c-.0566,.3013-.147,.5171-.27,.6475h1.7749V2.7002H1.4462l-.0249,.6201c-.0166,.4536-.0532,.8311-.1099,1.1328Z"/><path class="cls-3" d="M4.5966,2.1504h.6396v2.4849l1.8804-2.4849h.605v3.5h-.6401V3.1704l-1.8799,2.48h-.605V2.1504Z"/><path class="cls-3" d="M11.8314,2.1504v3.5h-.6499v-1.5h-1.8101v1.5h-.6499V2.1504h.6499v1.4448h1.8101v-1.4448h.6499Z"/><path class="cls-3" d="M15.1513,4.8403h-1.75l-.3452,.8101h-.6699l1.5752-3.5h.6396l1.5801,3.5h-.6797l-.3501-.8101Zm-.2148-.5098l-.6602-1.5303-.6553,1.5303h1.3154Z"/><path class="cls-3" d="M19.9511,5.6504l-.0049-2.3198-1.1504,1.9199h-.29l-1.1499-1.8901v2.29h-.6147V2.1504h.5347l1.3853,2.3149,1.3701-2.3149h.5298l.0103,3.5h-.6201Z"/><path class="cls-3" d="M21.5766,2.1504h.6396v2.4849l1.8804-2.4849h.605v3.5h-.6401V3.1704l-1.8799,2.48h-.605V2.1504Z"/><path class="cls-3" d="M26.9911,4.1753h-.6499v1.4751h-.6396V2.1504h.6396v1.4648h.6699l1.0054-1.4648h.6899l-1.1953,1.6948,1.2402,1.8052h-.7349l-1.0254-1.4751Z"/><path class="cls-3" d="M31.6513,4.8403h-1.75l-.3452,.8101h-.6699l1.5752-3.5h.6396l1.5801,3.5h-.6797l-.3501-.8101Zm-.2148-.5098l-.6602-1.5303-.6553,1.5303h1.3154Z"/><path class="cls-3" d="M36.8686,2.3003c.2246,.1001,.3975,.2437,.5176,.4302,.1196,.1865,.1797,.4082,.1797,.665,0,.2534-.0601,.4741-.1797,.6626-.1201,.188-.293,.3325-.5176,.4321-.2251,.1001-.4893,.1504-.7925,.1504h-.79v1.0098h-.6499V2.1504h1.4399c.3032,0,.5674,.0498,.7925,.1499Zm-.1777,1.6099c.1465-.1196,.2202-.2915,.2202-.5146,0-.2236-.0737-.395-.2202-.5151s-.3618-.1802-.645-.1802h-.7598v1.3901h.7598c.2832,0,.4985-.0601,.645-.1802Z"/><path class="cls-3" d="M40.8764,5.1055v.5449h-2.625V2.1504h2.5547v.5449h-1.9048v.9102h1.6899v.5352h-1.6899v.9648h1.9751Z"/><path class="cls-3" d="M43.9408,4.8403h-1.75l-.3452,.8101h-.6699l1.5752-3.5h.6396l1.5801,3.5h-.6797l-.3501-.8101Zm-.2148-.5098l-.6602-1.5303-.6553,1.5303h1.3154Z"/><path class="cls-3" d="M48.516,2.1504v3.5h-.6401V2.7002h-1.3799l-.0298,.875c-.0171,.4902-.0571,.8877-.1201,1.1929-.0635,.3047-.165,.5366-.3052,.6948-.1396,.1582-.333,.2373-.5801,.2373-.0864,0-.2046-.0166-.355-.0498l.0454-.5649c.043,.0132,.0933,.02,.1499,.02,.2031,0,.3472-.1211,.4321-.3628,.0854-.2412,.1377-.6221,.1577-1.1421l.0498-1.4502h2.5752Z"/><path class="cls-3" d="M52.1029,3.6177c.2251,.1885,.3379,.4678,.3379,.8379,0,.3867-.1235,.6821-.3701,.8872s-.5933,.3076-1.04,.3076h-1.5049V2.1504h.6396v1.1851h.9702c.4199,0,.7427,.0942,.9673,.2822Zm-.5171,1.3579c.1362-.1167,.2046-.2866,.2046-.5103,0-.4233-.2632-.6348-.7896-.6348h-.8354v1.3198h.8354c.2529,0,.4482-.0581,.585-.1748Z"/><path class="cls-3" d="M56.2357,2.1504v3.5h-.6499v-1.5h-1.8101v1.5h-.6499V2.1504h.6499v1.4448h1.8101v-1.4448h.6499Z"/><path class="cls-3" d="M57.891,5.4678c-.2866-.1548-.5117-.3701-.6748-.645-.1636-.2749-.2451-.5825-.2451-.9224s.0815-.6475,.2451-.9224c.1631-.2749,.3882-.4902,.6748-.645,.2866-.1553,.6084-.2324,.9648-.2324,.3569,0,.6782,.0771,.9653,.2324,.2866,.1548,.5112,.3691,.6748,.6426,.1631,.2729,.2451,.5815,.2451,.9248s-.082,.6519-.2451,.9248c-.1636,.2734-.3882,.4878-.6748,.6426-.2871,.1553-.6084,.2324-.9653,.2324-.3564,0-.6782-.0771-.9648-.2324Zm1.5952-.4951c.1865-.105,.333-.2515,.4399-.4399,.1064-.188,.1597-.3989,.1597-.6323s-.0532-.4443-.1597-.6323c-.1069-.1885-.2534-.335-.4399-.4399-.187-.1055-.397-.1577-.6304-.1577s-.4434,.0522-.6299,.1577c-.1865,.105-.3335,.2515-.4399,.4399-.1069,.188-.1602,.3989-.1602,.6323s.0532,.4443,.1602,.6323c.1064,.1885,.2534,.335,.4399,.4399,.1865,.1055,.3965,.1577,.6299,.1577s.4434-.0522,.6304-.1577Z"/><path class="cls-3" d="M63.8559,2.7002h-1.7354l.0049,2.9502h-.6396V2.1504h2.375l-.0049,.5498Z"/><path class="cls-3" d="M65.081,5.4678c-.2866-.1548-.5117-.3701-.6748-.645-.1636-.2749-.2451-.5825-.2451-.9224s.0815-.6475,.2451-.9224c.1631-.2749,.3882-.4902,.6748-.645,.2866-.1553,.6084-.2324,.9648-.2324,.3569,0,.6782,.0771,.9653,.2324,.2866,.1548,.5112,.3691,.6748,.6426,.1631,.2729,.2451,.5815,.2451,.9248s-.082,.6519-.2451,.9248c-.1636,.2734-.3882,.4878-.6748,.6426-.2871,.1553-.6084,.2324-.9653,.2324-.3564,0-.6782-.0771-.9648-.2324Zm1.5952-.4951c.1865-.105,.333-.2515,.4399-.4399,.1064-.188,.1597-.3989,.1597-.6323s-.0532-.4443-.1597-.6323c-.1069-.1885-.2534-.335-.4399-.4399-.187-.1055-.397-.1577-.6304-.1577s-.4434,.0522-.6299,.1577c-.1865,.105-.3335,.2515-.4399,.4399-.1069,.188-.1602,.3989-.1602,.6323s.0532,.4443,.1602,.6323c.1064,.1885,.2534,.335,.4399,.4399,.1865,.1055,.3965,.1577,.6299,.1577s.4434-.0522,.6304-.1577Z"/><path class="cls-3" d="M72.8856,4.1377c.1167,.145,.1748,.3262,.1748,.5425,0,.3071-.1133,.5454-.3398,.7153-.2271,.1699-.5552,.2549-.9854,.2549h-1.6597V2.1504h1.5649c.3931,0,.6997,.0781,.9199,.2349s.3301,.3784,.3301,.665c0,.1836-.0444,.3418-.1323,.4751-.0884,.1333-.2163,.2349-.3828,.3052,.2231,.0601,.3936,.1621,.5103,.3071Zm-2.1704-.4922h.8701c.21,0,.3701-.042,.48-.125,.1104-.0835,.165-.2065,.165-.3701,0-.1631-.0547-.2876-.165-.3726-.1099-.085-.27-.1274-.48-.1274h-.8701v.9951Zm1.6904,.9849c0-.3398-.23-.5098-.6904-.5098h-1v1.0298h1c.4604,0,.6904-.1733,.6904-.52Z"/><path class="cls-3" d="M76.6356,4.1377c.1167,.145,.1748,.3262,.1748,.5425,0,.3071-.1133,.5454-.3398,.7153-.2271,.1699-.5552,.2549-.9854,.2549h-1.6597V2.1504h1.5649c.3931,0,.6997,.0781,.9199,.2349s.3301,.3784,.3301,.665c0,.1836-.0444,.3418-.1323,.4751-.0884,.1333-.2163,.2349-.3828,.3052,.2231,.0601,.3936,.1621,.5103,.3071Zm-2.1704-.4922h.8701c.21,0,.3701-.042,.48-.125,.1104-.0835,.165-.2065,.165-.3701,0-.1631-.0547-.2876-.165-.3726-.1099-.085-.27-.1274-.48-.1274h-.8701v.9951Zm1.6904,.9849c0-.3398-.23-.5098-.6904-.5098h-1v1.0298h1c.4604,0,.6904-.1733,.6904-.52Z"/><path class="cls-3" d="M80.6703,2.1504v3.5h-.6396V2.7002h-1.8154v2.9502h-.6396V2.1504h3.0947Z"/><path class="cls-3" d="M85.308,2.3003c.2246,.1001,.3975,.2437,.5176,.4302,.1196,.1865,.1797,.4082,.1797,.665,0,.2534-.0601,.4741-.1797,.6626-.1201,.188-.293,.3325-.5176,.4321-.2251,.1001-.4893,.1504-.7925,.1504h-.79v1.0098h-.6499V2.1504h1.4399c.3032,0,.5674,.0498,.7925,.1499Zm-.1777,1.6099c.1465-.1196,.2202-.2915,.2202-.5146,0-.2236-.0737-.395-.2202-.5151s-.3618-.1802-.645-.1802h-.7598v1.3901h.7598c.2832,0,.4985-.0601,.645-.1802Z"/><path class="cls-3" d="M87.3451,5.4678c-.2866-.1548-.5117-.3701-.6748-.645-.1636-.2749-.2451-.5825-.2451-.9224s.0815-.6475,.2451-.9224c.1631-.2749,.3882-.4902,.6748-.645,.2866-.1553,.6084-.2324,.9648-.2324,.3569,0,.6782,.0771,.9653,.2324,.2866,.1548,.5112,.3691,.6748,.6426,.1631,.2729,.2451,.5815,.2451,.9248s-.082,.6519-.2451,.9248c-.1636,.2734-.3882,.4878-.6748,.6426-.2871,.1553-.6084,.2324-.9653,.2324-.3564,0-.6782-.0771-.9648-.2324Zm1.5952-.4951c.1865-.105,.333-.2515,.4399-.4399,.1064-.188,.1597-.3989,.1597-.6323s-.0532-.4443-.1597-.6323c-.1069-.1885-.2534-.335-.4399-.4399-.187-.1055-.397-.1577-.6304-.1577s-.4434,.0522-.6299,.1577c-.1865,.105-.3335,.2515-.4399,.4399-.1069,.188-.1602,.3989-.1602,.6323s.0532,.4443,.1602,.6323c.1064,.1885,.2534,.335,.4399,.4399,.1865,.1055,.3965,.1577,.6299,.1577s.4434-.0522,.6304-.1577Z"/><path class="cls-3" d="M91.5878,5.4678c-.2852-.1548-.5083-.3691-.6699-.6426-.1621-.2729-.2427-.5815-.2427-.9248s.0815-.6519,.2451-.9248c.1631-.2734,.3872-.4878,.6724-.6426,.2852-.1553,.604-.2324,.9575-.2324,.2866,0,.5483,.0498,.7852,.1499,.2363,.1001,.4365,.2451,.6001,.4351l-.4204,.395c-.2534-.2734-.5649-.4102-.9351-.4102-.2397,0-.4546,.0522-.6445,.1577-.1904,.105-.3384,.2505-.4453,.4375-.1064,.1865-.1602,.3979-.1602,.6348s.0537,.4482,.1602,.6348c.1069,.187,.2549,.3325,.4453,.4375,.1899,.1055,.4048,.1577,.6445,.1577,.3701,0,.6816-.1382,.9351-.415l.4204,.3999c-.1636,.1899-.3643,.335-.6025,.4351-.2388,.1001-.501,.1499-.7876,.1499-.3535,0-.6724-.0771-.9575-.2324Z"/><path class="cls-3" d="M95.2128,5.4678c-.2852-.1548-.5083-.3691-.6699-.6426-.1621-.2729-.2427-.5815-.2427-.9248s.0815-.6519,.2451-.9248c.1631-.2734,.3872-.4878,.6724-.6426,.2852-.1553,.604-.2324,.9575-.2324,.2866,0,.5483,.0498,.7852,.1499,.2363,.1001,.4365,.2451,.6001,.4351l-.4204,.395c-.2534-.2734-.5649-.4102-.9351-.4102-.2397,0-.4546,.0522-.6445,.1577-.1904,.105-.3384,.2505-.4453,.4375-.1064,.1865-.1602,.3979-.1602,.6348s.0537,.4482,.1602,.6348c.1069,.187,.2549,.3325,.4453,.4375,.1899,.1055,.4048,.1577,.6445,.1577,.3701,0,.6816-.1382,.9351-.415l.4204,.3999c-.1636,.1899-.3643,.335-.6025,.4351-.2388,.1001-.501,.1499-.7876,.1499-.3535,0-.6724-.0771-.9575-.2324Z"/><path class="cls-3" d="M98.1903,2.1504h.6396v2.4849l1.8804-2.4849h.605v3.5h-.6401V3.1704l-1.8799,2.48h-.605V2.1504Z"/><path class="cls-3" d="M102.3202,2.1504h.6396v2.4849l1.8804-2.4849h.605v3.5h-.6401V3.1704l-1.8799,2.48h-.605V2.1504Z"/></g><path class="cls-1" d="M19.0446,112.6664c0,4.6757-3.8035,8.4792-8.4792,8.4792s-8.4792-3.8035-8.4792-8.4792V54.4232c0-4.6757,3.8035-8.4792,8.4792-8.4792s8.4792,3.8035,8.4792,8.4792v58.2433Z"/><path class="cls-1" d="M125.902,116.9271c0,2.3257-1.8921,4.2186-4.2186,4.2186h-8.5212c-2.3265,0-4.2186-1.8929-4.2186-4.2186s1.8921-4.2186,4.2186-4.2186h8.5212c2.3265,0,4.2186,1.8929,4.2186,4.2186Z"/><path class="cls-1" d="M45.7589,112.6664c0,4.6757-3.8035,8.4792-8.4792,8.4792s-8.4792-3.8035-8.4792-8.4792v-18.2916c0-4.6757,3.8035-8.4793,8.4792-8.4793s8.4792,3.8035,8.4792,8.4793v18.2916Z"/><path class="cls-1" d="M72.2524,113.3322c0,4.3083-3.5048,7.8138-7.8138,7.8138h-1.3308c-4.3091,0-7.8138-3.5056-7.8138-7.8138s3.5047-7.8138,7.8138-7.8138h1.3308c4.3091,0,7.8138,3.5056,7.8138,7.8138Z"/><path class="cls-1" d="M152.6164,112.6664c0,4.6757-3.8035,8.4792-8.4792,8.4792s-8.4792-3.8035-8.4792-8.4792v-18.2916c0-4.6757,3.8035-8.4793,8.4792-8.4793s8.4792,3.8035,8.4792,8.4793v18.2916Z"/><path class="cls-1" d="M179.3308,112.6664c0,4.6757-3.8035,8.4792-8.4792,8.4792s-8.4792-3.8035-8.4792-8.4792v-36.0576c0-4.6757,3.8035-8.4792,8.4792-8.4792s8.4792,3.8035,8.4792,8.4792v36.0576Z"/><path class="cls-1" d="M99.1877,154.9357c0,4.6757-3.8035,8.4792-8.4792,8.4792s-8.4792-3.8035-8.4792-8.4792v-25.2075c0-4.6757,3.8035-8.4792,8.4792-8.4792s8.4792,3.8035,8.4792,8.4792v25.2075Z"/><path class="cls-1" d="M206.0448,112.6669c0,4.6749-3.8035,8.4792-8.4792,8.4792s-8.4784-3.8043-8.4784-8.4792v-22.5345c0-4.6749,3.8035-8.4784,8.4784-8.4784s8.4792,3.8035,8.4792,8.4784v22.5345Z"/><path class="cls-1" d="M232.7596,165.7861c0,4.6757-3.8035,8.4792-8.4792,8.4792s-8.4792-3.8035-8.4792-8.4792v-36.0576c0-4.6757,3.8035-8.4792,8.4792-8.4792s8.4792,3.8035,8.4792,8.4792v36.0576Z"/><path class="cls-2" d="M259.8777,112.6664c0,4.9058-3.9772,8.883-8.883,8.883s-8.883-3.9771-8.883-8.883V48.243c0-4.9066,3.9771-8.883,8.883-8.883s8.883,3.9764,8.883,8.883V112.6664Z"/><line class="cls-4" x1="10.5654" y1="116.806" x2="10.5654" y2="37.5795"/><path d="M9.8387,37.5794c0-.4013,.3254-.7268,.7268-.7268s.7268,.3255,.7268,.7268-.3254,.7268-.7268,.7268-.7268-.3255-.7268-.7268"/><line class="cls-4" x1="117.4226" y1="116.806" x2="117.4226" y2="37.5795"/><path d="M116.6959,37.5794c0-.4013,.3254-.7268,.7268-.7268s.7268,.3255,.7268,.7268-.3255,.7268-.7268,.7268-.7268-.3255-.7268-.7268"/><line class="cls-4" x1="37.2794" y1="116.806" x2="37.2794" y2="37.5795"/><path d="M36.5527,37.5794c0-.4013,.3254-.7268,.7268-.7268s.7268,.3255,.7268,.7268-.3255,.7268-.7268,.7268-.7268-.3255-.7268-.7268"/><line class="cls-4" x1="144.137" y1="116.806" x2="144.137" y2="37.5795"/><path d="M143.4103,37.5794c0-.4013,.3254-.7268,.7268-.7268s.7268,.3255,.7268,.7268-.3255,.7268-.7268,.7268-.7268-.3255-.7268-.7268"/><line class="cls-4" x1="63.9938" y1="116.806" x2="63.9938" y2="37.5795"/><path d="M63.2671,37.5794c0-.4013,.3254-.7268,.7268-.7268s.7268,.3255,.7268,.7268-.3255,.7268-.7268,.7268-.7268-.3255-.7268-.7268"/><line class="cls-4" x1="170.8514" y1="116.806" x2="170.8514" y2="37.5795"/><path d="M170.1247,37.5794c0-.4013,.3254-.7268,.7268-.7268s.7268,.3255,.7268,.7268-.3255,.7268-.7268,.7268-.7268-.3255-.7268-.7268"/><line class="cls-4" x1="90.7082" y1="155.9167" x2="90.7082" y2="37.5793"/><path d="M89.9815,37.5794c0-.4013,.3254-.7268,.7268-.7268s.7268,.3255,.7268,.7268-.3255,.7268-.7268,.7268-.7268-.3255-.7268-.7268"/><line class="cls-4" x1="197.5658" y1="116.806" x2="197.5658" y2="37.5795"/><path d="M196.8391,37.5794c0-.4013,.3254-.7268,.7268-.7268s.7268,.3255,.7268,.7268-.3255,.7268-.7268,.7268-.7268-.3255-.7268-.7268"/><line class="cls-4" x1="224.2802" y1="167.1993" x2="224.2802" y2="37.5796"/><path d="M223.5535,37.5794c0-.4013,.3254-.7268,.7268-.7268s.7268,.3255,.7268,.7268-.3255,.7268-.7268,.7268-.7268-.3255-.7268-.7268"/><line class="cls-4" x1="250.9946" y1="116.806" x2="250.9946" y2="37.5795"/><path d="M250.2679,37.5794c0-.4013,.3254-.7268,.7268-.7268s.7268,.3255,.7268,.7268-.3255,.7268-.7268,.7268-.7268-.3255-.7268-.7268"/><g><path d="M9.1176,31.2031h-.9043v1.1885h-.4653v-1.1885h-2.5518v-.3359l2.397-2.998h.5166l-2.3125,2.9204h1.9639v-1.0469h.4521v1.0469h.9043v.4136Z"/><path d="M10.1444,31.8198c.0649,.0669,.0972,.1499,.0972,.2485,0,.0518-.0078,.1079-.0225,.168-.0151,.0605-.0381,.1294-.0679,.207l-.2715,.8916h-.3101l.2197-.937c-.0688-.0215-.125-.061-.168-.1196-.0435-.0581-.0649-.1279-.0649-.21,0-.0986,.0327-.1816,.0972-.2485s.1465-.1001,.2456-.1001c.0986,0,.1807,.0332,.2451,.1001Z"/><path d="M11.7826,32.1523c-.2739-.1851-.4868-.4507-.6396-.7979-.1533-.3462-.2295-.7544-.2295-1.2241,0-.4692,.0762-.8774,.2295-1.2241,.1528-.3467,.3657-.6128,.6396-.7979,.2734-.1851,.5845-.2778,.9331-.2778,.3491,0,.6602,.0928,.9336,.2778s.4878,.4512,.6431,.7979c.1548,.3467,.2324,.7549,.2324,1.2241,0,.4697-.0776,.8779-.2324,1.2241-.1553,.3472-.3696,.6128-.6431,.7979-.2734,.1855-.5845,.2778-.9336,.2778-.3486,0-.6597-.0923-.9331-.2778Zm1.6279-.3682c.2002-.146,.356-.3594,.4683-.6396,.1118-.2798,.168-.6177,.168-1.0142,0-.396-.0562-.7344-.168-1.0142-.1123-.2798-.2681-.4932-.4683-.6396s-.4321-.2197-.6948-.2197-.4941,.0732-.6943,.2197-.3564,.3599-.4683,.6396c-.1123,.2798-.168,.6182-.168,1.0142,0,.3965,.0557,.7344,.168,1.0142,.1118,.2803,.2681,.4937,.4683,.6396,.2002,.1465,.4316,.2197,.6943,.2197s.4946-.0732,.6948-.2197Z"/></g><g><path d="M34.0653,27.8691v4.5225h-.4653v-4.1089h-1.0659v-.4136h1.5312Z"/><path d="M35.7445,31.8198c.0649,.0669,.0972,.1499,.0972,.2485,0,.0518-.0078,.1079-.0225,.168-.0151,.0605-.0381,.1294-.0679,.207l-.2715,.8916h-.3101l.2197-.937c-.0688-.0215-.125-.061-.168-.1196-.0435-.0581-.0649-.1279-.0649-.21,0-.0986,.0327-.1816,.0972-.2485s.1465-.1001,.2456-.1001c.0986,0,.1807,.0332,.2451,.1001Z"/><path d="M39.7597,30.4473c.1528,.1895,.2295,.4175,.2295,.6846,0,.2627-.0708,.4922-.2129,.688-.1426,.1963-.3457,.3467-.6108,.4521-.2646,.1055-.5762,.1582-.9336,.1582-.5425,0-.9688-.1162-1.2788-.3486s-.4653-.5493-.4653-.9497c0-.2715,.0742-.5005,.2231-.688,.1484-.1875,.3647-.3286,.6489-.4233-.2324-.0903-.4092-.2207-.5298-.3906-.1206-.1704-.1807-.3716-.1807-.604,0-.3662,.1431-.6567,.4297-.8721,.2861-.2153,.6704-.3232,1.1528-.3232,.3188,0,.5977,.0483,.8369,.1455,.2388,.0967,.4253,.2358,.5586,.4165,.1338,.1812,.2002,.3921,.2002,.6333,0,.2324-.0625,.4336-.187,.604-.125,.1699-.3037,.3003-.5361,.3906,.2842,.0947,.5024,.2368,.6553,.4268Zm-.5879,1.3438c.2266-.1641,.3394-.3857,.3394-.6655,0-.2803-.1128-.501-.3394-.6621-.2261-.1616-.5391-.2427-.9399-.2427-.396,0-.707,.0811-.9331,.2427-.2266,.1611-.3394,.3818-.3394,.6621,0,.2842,.1118,.5068,.3359,.6685,.2236,.1616,.5361,.2422,.9365,.2422,.4009,0,.7139-.0815,.9399-.2451Zm-1.7603-2.1582c.1982,.1465,.4717,.2197,.8203,.2197,.3491,0,.6235-.0732,.8237-.2197,.2002-.146,.3008-.3423,.3008-.5879,0-.2539-.1025-.4541-.3071-.6006s-.4771-.2197-.8174-.2197c-.3442,0-.6167,.0732-.8169,.2197s-.3008,.3447-.3008,.5942c0,.25,.0991,.4482,.2974,.5942Z"/></g><g><path d="M60.1557,32.1523c-.2739-.1851-.4868-.4507-.6396-.7979-.1533-.3462-.2295-.7544-.2295-1.2241,0-.4692,.0762-.8774,.2295-1.2241,.1528-.3467,.3657-.6128,.6396-.7979,.2734-.1851,.5845-.2778,.9331-.2778,.3491,0,.6602,.0928,.9336,.2778s.4878,.4512,.6431,.7979c.1548,.3467,.2324,.7549,.2324,1.2241,0,.4697-.0776,.8779-.2324,1.2241-.1553,.3472-.3696,.6128-.6431,.7979-.2734,.1855-.5845,.2778-.9336,.2778-.3486,0-.6597-.0923-.9331-.2778Zm1.6279-.3682c.2002-.146,.356-.3594,.4683-.6396,.1118-.2798,.168-.6177,.168-1.0142,0-.396-.0562-.7344-.168-1.0142-.1123-.2798-.2681-.4932-.4683-.6396s-.4321-.2197-.6948-.2197-.4941,.0732-.6943,.2197-.3564,.3599-.4683,.6396c-.1123,.2798-.168,.6182-.168,1.0142,0,.3965,.0557,.7344,.168,1.0142,.1118,.2803,.2681,.4937,.4683,.6396,.2002,.1465,.4316,.2197,.6943,.2197s.4946-.0732,.6948-.2197Z"/><path d="M64.164,31.8198c.0649,.0669,.0972,.1499,.0972,.2485,0,.0518-.0078,.1079-.0225,.168-.0151,.0605-.0381,.1294-.0679,.207l-.2715,.8916h-.3101l.2197-.937c-.0688-.0215-.125-.061-.168-.1196-.0435-.0581-.0649-.1279-.0649-.21,0-.0986,.0327-.1816,.0972-.2485s.1465-.1001,.2456-.1001c.0986,0,.1807,.0332,.2451,.1001Z"/><path d="M68.0014,27.8691v.3296l-1.8931,4.1929h-.5039l1.8608-4.1089h-2.3257v.8462h-.459v-1.2598h3.3208Z"/></g><g><path class="cls-3" d="M84.5077,30.4468h2.5864v.395h-2.5864v-.395Z"/><path d="M90.9047,31.978v.4136h-3.1719v-.3296l1.8799-1.8413c.2368-.2324,.3975-.4336,.4814-.604,.084-.1699,.126-.3413,.126-.5132,0-.2671-.0918-.4751-.2744-.6235-.1831-.1489-.4448-.2231-.7852-.2231-.5298,0-.9409,.168-1.2339,.5039l-.3296-.2842c.1768-.2065,.4019-.3657,.6753-.478,.2734-.1118,.5825-.168,.9268-.168,.4609,0,.8262,.1089,1.0952,.3262,.269,.2178,.4038,.5161,.4038,.895,0,.2324-.0518,.4565-.1553,.6719-.103,.2153-.2993,.4629-.5879,.7427l-1.5376,1.5117h2.4873Z"/><path d="M92.0868,31.8198c.0649,.0669,.0972,.1499,.0972,.2485,0,.0518-.0078,.1079-.0225,.168-.0151,.0605-.0381,.1294-.0679,.207l-.2715,.8916h-.3101l.2197-.937c-.0688-.0215-.125-.061-.168-.1196-.0435-.0581-.0649-.1279-.0649-.21,0-.0986,.0327-.1816,.0972-.2485s.1465-.1001,.2456-.1001c.0986,0,.1807,.0332,.2451,.1001Z"/><path d="M93.725,32.1523c-.2739-.1851-.4868-.4507-.6396-.7979-.1533-.3462-.2295-.7544-.2295-1.2241,0-.4692,.0762-.8774,.2295-1.2241,.1528-.3467,.3657-.6128,.6396-.7979,.2734-.1851,.5845-.2778,.9331-.2778,.3491,0,.6602,.0928,.9336,.2778s.4878,.4512,.6431,.7979c.1548,.3467,.2324,.7549,.2324,1.2241,0,.4697-.0776,.8779-.2324,1.2241-.1553,.3472-.3696,.6128-.6431,.7979-.2734,.1855-.5845,.2778-.9336,.2778-.3486,0-.6597-.0923-.9331-.2778Zm1.6279-.3682c.2002-.146,.356-.3594,.4683-.6396,.1118-.2798,.168-.6177,.168-1.0142,0-.396-.0562-.7344-.168-1.0142-.1123-.2798-.2681-.4932-.4683-.6396s-.4321-.2197-.6948-.2197-.4941,.0732-.6943,.2197-.3564,.3599-.4683,.6396c-.1123,.2798-.168,.6182-.168,1.0142,0,.3965,.0557,.7344,.168,1.0142,.1118,.2803,.2681,.4937,.4683,.6396,.2002,.1465,.4316,.2197,.6943,.2197s.4946-.0732,.6948-.2197Z"/></g><g><path d="M113.2968,32.1523c-.2739-.1851-.4868-.4507-.6396-.7979-.1533-.3462-.2295-.7544-.2295-1.2241,0-.4692,.0762-.8774,.2295-1.2241,.1528-.3467,.3657-.6128,.6396-.7979,.2734-.1851,.5845-.2778,.9331-.2778,.3491,0,.6602,.0928,.9336,.2778s.4878,.4512,.6431,.7979c.1548,.3467,.2324,.7549,.2324,1.2241,0,.4697-.0776,.8779-.2324,1.2241-.1553,.3472-.3696,.6128-.6431,.7979-.2734,.1855-.5845,.2778-.9336,.2778-.3486,0-.6597-.0923-.9331-.2778Zm1.6279-.3682c.2002-.146,.356-.3594,.4683-.6396,.1118-.2798,.168-.6177,.168-1.0142,0-.396-.0562-.7344-.168-1.0142-.1123-.2798-.2681-.4932-.4683-.6396s-.4321-.2197-.6948-.2197-.4941,.0732-.6943,.2197-.3564,.3599-.4683,.6396c-.1123,.2798-.168,.6182-.168,1.0142,0,.3965,.0557,.7344,.168,1.0142,.1118,.2803,.2681,.4937,.4683,.6396,.2002,.1465,.4316,.2197,.6943,.2197s.4946-.0732,.6948-.2197Z"/><path d="M117.3051,31.8198c.0649,.0669,.0972,.1499,.0972,.2485,0,.0518-.0078,.1079-.0225,.168-.0151,.0605-.0381,.1294-.0679,.207l-.2715,.8916h-.3101l.2197-.937c-.0688-.0215-.125-.061-.168-.1196-.0435-.0581-.0649-.1279-.0649-.21,0-.0986,.0327-.1816,.0972-.2485s.1465-.1001,.2456-.1001c.0986,0,.1807,.0332,.2451,.1001Z"/><path d="M121.1615,31.978v.4136h-3.1719v-.3296l1.8799-1.8413c.2368-.2324,.3975-.4336,.4814-.604,.084-.1699,.126-.3413,.126-.5132,0-.2671-.0918-.4751-.2744-.6235-.1831-.1489-.4448-.2231-.7852-.2231-.5298,0-.9409,.168-1.2339,.5039l-.3296-.2842c.1768-.2065,.4019-.3657,.6753-.478,.2734-.1118,.5825-.168,.9268-.168,.4609,0,.8262,.1089,1.0952,.3262,.269,.2178,.4038,.5161,.4038,.895,0,.2324-.0518,.4565-.1553,.6719-.103,.2153-.2993,.4629-.5879,.7427l-1.5376,1.5117h2.4873Z"/></g><g><path d="M141.1088,27.8691v4.5225h-.4653v-4.1089h-1.0659v-.4136h1.5312Z"/><path d="M142.788,31.8198c.0649,.0669,.0972,.1499,.0972,.2485,0,.0518-.0078,.1079-.0225,.168-.0151,.0605-.0381,.1294-.0679,.207l-.2715,.8916h-.3101l.2197-.937c-.0688-.0215-.125-.061-.168-.1196-.0435-.0581-.0649-.1279-.0649-.21,0-.0986,.0327-.1816,.0972-.2485s.1465-.1001,.2456-.1001c.0986,0,.1807,.0332,.2451,.1001Z"/><path d="M146.2221,29.8525c.23,.1123,.4102,.2705,.5391,.4751,.1294,.2046,.1938,.4424,.1938,.7139,0,.2754-.0664,.519-.2002,.73-.1333,.2109-.3174,.3735-.5522,.4878s-.4985,.1709-.7915,.1709c-.5986,0-1.0571-.1968-1.376-.5908s-.478-.9507-.478-1.6699c0-.5039,.0859-.9307,.2583-1.2793,.1724-.3491,.4136-.6128,.7236-.7915s.6719-.2681,1.0854-.2681c.4478,0,.8052,.082,1.0723,.2456l-.1875,.3745c-.2153-.1421-.5078-.2129-.8784-.2129-.4995,0-.8916,.1582-1.1758,.4746s-.4263,.7764-.4263,1.3794c0,.1074,.0063,.2305,.0195,.3682,.1118-.2456,.2905-.436,.5361-.5718,.2451-.1357,.5273-.2036,.8462-.2036,.2974,0,.561,.0562,.7915,.168Zm-.0322,1.9155c.2041-.1787,.3066-.4165,.3066-.7139,0-.2969-.1025-.5337-.3066-.7104-.2046-.1768-.4814-.2651-.8306-.2651-.228,0-.4292,.0435-.604,.1294-.1743,.0864-.311,.2046-.4102,.3555s-.1484,.3188-.1484,.5039c0,.1724,.0464,.3315,.1387,.478,.0928,.1465,.2295,.2646,.4102,.355,.1812,.0908,.3965,.1357,.6465,.1357,.3271,0,.5933-.0894,.7979-.2681Z"/></g><g><path d="M169.0595,31.978v.4136h-3.1719v-.3296l1.8799-1.8413c.2368-.2324,.3975-.4336,.4814-.604,.084-.1699,.126-.3413,.126-.5132,0-.2671-.0918-.4751-.2744-.6235-.1831-.1489-.4448-.2231-.7852-.2231-.5298,0-.9409,.168-1.2339,.5039l-.3296-.2842c.1768-.2065,.4019-.3657,.6753-.478,.2734-.1118,.5825-.168,.9268-.168,.4609,0,.8262,.1089,1.0952,.3262,.269,.2178,.4038,.5161,.4038,.895,0,.2324-.0518,.4565-.1553,.6719-.103,.2153-.2993,.4629-.5879,.7427l-1.5376,1.5117h2.4873Z"/><path d="M170.2416,31.8198c.0649,.0669,.0972,.1499,.0972,.2485,0,.0518-.0078,.1079-.0225,.168-.0151,.0605-.0381,.1294-.0679,.207l-.2715,.8916h-.3101l.2197-.937c-.0688-.0215-.125-.061-.168-.1196-.0435-.0581-.0649-.1279-.0649-.21,0-.0986,.0327-.1816,.0972-.2485s.1465-.1001,.2456-.1001c.0986,0,.1807,.0332,.2451,.1001Z"/><path d="M174.2567,30.4473c.1528,.1895,.2295,.4175,.2295,.6846,0,.2627-.0708,.4922-.2129,.688-.1426,.1963-.3457,.3467-.6108,.4521-.2646,.1055-.5762,.1582-.9336,.1582-.5425,0-.9688-.1162-1.2788-.3486s-.4653-.5493-.4653-.9497c0-.2715,.0742-.5005,.2231-.688,.1484-.1875,.3647-.3286,.6489-.4233-.2324-.0903-.4092-.2207-.5298-.3906-.1206-.1704-.1807-.3716-.1807-.604,0-.3662,.1431-.6567,.4297-.8721,.2861-.2153,.6704-.3232,1.1528-.3232,.3188,0,.5977,.0483,.8369,.1455,.2388,.0967,.4253,.2358,.5586,.4165,.1338,.1812,.2002,.3921,.2002,.6333,0,.2324-.0625,.4336-.187,.604-.125,.1699-.3037,.3003-.5361,.3906,.2842,.0947,.5024,.2368,.6553,.4268Zm-.5879,1.3438c.2266-.1641,.3394-.3857,.3394-.6655,0-.2803-.1128-.501-.3394-.6621-.2261-.1616-.5391-.2427-.9399-.2427-.396,0-.707,.0811-.9331,.2427-.2266,.1611-.3394,.3818-.3394,.6621,0,.2842,.1118,.5068,.3359,.6685,.2236,.1616,.5361,.2422,.9365,.2422,.4009,0,.7139-.0815,.9399-.2451Zm-1.7603-2.1582c.1982,.1465,.4717,.2197,.8203,.2197,.3491,0,.6235-.0732,.8237-.2197,.2002-.146,.3008-.3423,.3008-.5879,0-.2539-.1025-.4541-.3071-.6006s-.4771-.2197-.8174-.2197c-.3442,0-.6167,.0732-.8169,.2197s-.3008,.3447-.3008,.5942c0,.25,.0991,.4482,.2974,.5942Z"/></g><g><path d="M195.9774,31.978v.4136h-3.1719v-.3296l1.8799-1.8413c.2368-.2324,.3975-.4336,.4814-.604,.084-.1699,.126-.3413,.126-.5132,0-.2671-.0918-.4751-.2744-.6235-.1831-.1489-.4448-.2231-.7852-.2231-.5298,0-.9409,.168-1.2339,.5039l-.3296-.2842c.1768-.2065,.4019-.3657,.6753-.478,.2734-.1118,.5825-.168,.9268-.168,.4609,0,.8262,.1089,1.0952,.3262,.269,.2178,.4038,.5161,.4038,.895,0,.2324-.0518,.4565-.1553,.6719-.103,.2153-.2993,.4629-.5879,.7427l-1.5376,1.5117h2.4873Z"/><path d="M197.1596,31.8198c.0649,.0669,.0972,.1499,.0972,.2485,0,.0518-.0078,.1079-.0225,.168-.0151,.0605-.0381,.1294-.0679,.207l-.2715,.8916h-.3101l.2197-.937c-.0688-.0215-.125-.061-.168-.1196-.0435-.0581-.0649-.1279-.0649-.21,0-.0986,.0327-.1816,.0972-.2485s.1465-.1001,.2456-.1001c.0986,0,.1807,.0332,.2451,.1001Z"/><path d="M201.0165,31.978v.4136h-3.1719v-.3296l1.8799-1.8413c.2368-.2324,.3975-.4336,.4814-.604,.084-.1699,.126-.3413,.126-.5132,0-.2671-.0918-.4751-.2744-.6235-.1831-.1489-.4448-.2231-.7852-.2231-.5298,0-.9409,.168-1.2339,.5039l-.3296-.2842c.1768-.2065,.4019-.3657,.6753-.478,.2734-.1118,.5825-.168,.9268-.168,.4609,0,.8262,.1089,1.0952,.3262,.269,.2178,.4038,.5161,.4038,.895,0,.2324-.0518,.4565-.1553,.6719-.103,.2153-.2993,.4629-.5879,.7427l-1.5376,1.5117h2.4873Z"/></g><g><path class="cls-3" d="M218.7753,30.4468h2.5864v.395h-2.5864v-.395Z"/><path d="M225.1723,31.978v.4136h-3.1719v-.3296l1.8799-1.8413c.2368-.2324,.3975-.4336,.4814-.604,.084-.1699,.126-.3413,.126-.5132,0-.2671-.0918-.4751-.2744-.6235-.1831-.1489-.4448-.2231-.7852-.2231-.5298,0-.9409,.168-1.2339,.5039l-.3296-.2842c.1768-.2065,.4019-.3657,.6753-.478,.2734-.1118,.5825-.168,.9268-.168,.4609,0,.8262,.1089,1.0952,.3262,.269,.2178,.4038,.5161,.4038,.895,0,.2324-.0518,.4565-.1553,.6719-.103,.2153-.2993,.4629-.5879,.7427l-1.5376,1.5117h2.4873Z"/><path d="M226.3544,31.8198c.0649,.0669,.0972,.1499,.0972,.2485,0,.0518-.0078,.1079-.0225,.168-.0151,.0605-.0381,.1294-.0679,.207l-.2715,.8916h-.3101l.2197-.937c-.0688-.0215-.125-.061-.168-.1196-.0435-.0581-.0649-.1279-.0649-.21,0-.0986,.0327-.1816,.0972-.2485s.1465-.1001,.2456-.1001c.0986,0,.1807,.0332,.2451,.1001Z"/><path d="M230.1923,27.8691v.3296l-1.8931,4.1929h-.5039l1.8608-4.1089h-2.3257v.8462h-.459v-1.2598h3.3208Z"/></g><g><path d="M250.3324,31.2031h-.9043v1.1885h-.4653v-1.1885h-2.5518v-.3359l2.397-2.998h.5166l-2.3125,2.9204h1.9639v-1.0469h.4521v1.0469h.9043v.4136Z"/><path d="M251.3593,31.8198c.0649,.0669,.0972,.1499,.0972,.2485,0,.0518-.0078,.1079-.0225,.168-.0151,.0605-.0381,.1294-.0679,.207l-.2715,.8916h-.3101l.2197-.937c-.0688-.0215-.125-.061-.168-.1196-.0435-.0581-.0649-.1279-.0649-.21,0-.0986,.0327-.1816,.0972-.2485s.1465-.1001,.2456-.1001c.0986,0,.1807,.0332,.2451,.1001Z"/><path d="M255.1972,27.8691v.3296l-1.8931,4.1929h-.5039l1.8608-4.1089h-2.3257v.8462h-.459v-1.2598h3.3208Z"/></g><line class="cls-4" x1="10.3809" y1="120.9658" x2="250.2682" y2="120.9658"/><g><path d="M6.3383,188.5659v.3198H3.8832v-.2549l1.4551-1.4253c.1836-.1797,.3076-.3354,.3726-.4673s.0977-.2642,.0977-.3975c0-.2065-.0708-.3677-.2124-.4824-.1421-.1152-.3442-.1729-.6079-.1729-.4097,0-.728,.1304-.9546,.3901l-.2554-.2197c.1367-.1602,.311-.2837,.5225-.3701,.2119-.0869,.4512-.1299,.7178-.1299,.3564,0,.6392,.084,.8477,.2524,.208,.168,.3125,.3989,.3125,.6924,0,.1802-.04,.3535-.1201,.52s-.2319,.3584-.4551,.5747l-1.1899,1.1704h1.9248Z"/><path d="M7.411,188.7007c-.2119-.1431-.377-.3491-.4951-.6177-.1182-.2681-.1777-.584-.1777-.9473s.0596-.6792,.1777-.9473c.1182-.2686,.2832-.4746,.4951-.6177,.2114-.1436,.4521-.2148,.7222-.2148s.5112,.0713,.7227,.2148c.2119,.1431,.3774,.3491,.4976,.6177,.1201,.2681,.1802,.584,.1802,.9473s-.0601,.6792-.1802,.9473c-.1201,.2686-.2856,.4746-.4976,.6177-.2114,.1436-.4526,.2148-.7227,.2148s-.5107-.0713-.7222-.2148Zm1.2598-.2852c.1553-.1133,.2759-.2778,.3628-.4946,.0864-.2168,.1299-.4785,.1299-.7852s-.0435-.5684-.1299-.7852c-.0869-.2163-.2075-.3813-.3628-.4946-.1548-.1133-.334-.1704-.5376-.1704-.2031,0-.3823,.0571-.5371,.1704-.1553,.1133-.2759,.2783-.3628,.4946-.0864,.2168-.1299,.4785-.1299,.7852s.0435,.5684,.1299,.7852c.0869,.2168,.2075,.3813,.3628,.4946,.1548,.1138,.334,.1704,.5371,.1704,.2036,0,.3828-.0566,.5376-.1704Z"/><path d="M10.9682,185.3857v3.5h-.3599v-3.1802h-.8252v-.3198h1.1851Z"/><path d="M14.143,188.5659v.3198h-2.4551v-.2549l1.4551-1.4253c.1836-.1797,.3076-.3354,.3726-.4673s.0977-.2642,.0977-.3975c0-.2065-.0708-.3677-.2124-.4824-.1421-.1152-.3442-.1729-.6079-.1729-.4097,0-.728,.1304-.9546,.3901l-.2554-.2197c.1367-.1602,.311-.2837,.5225-.3701,.2119-.0869,.4512-.1299,.7178-.1299,.3564,0,.6392,.084,.8477,.2524,.208,.168,.3125,.3989,.3125,.6924,0,.1802-.04,.3535-.1201,.52s-.2319,.3584-.4551,.5747l-1.1899,1.1704h1.9248Z"/></g><g><path d="M33.1239,188.5659v.3198h-2.4551v-.2549l1.4551-1.4253c.1836-.1797,.3076-.3354,.3726-.4673s.0977-.2642,.0977-.3975c0-.2065-.0708-.3677-.2124-.4824-.1421-.1152-.3442-.1729-.6079-.1729-.4097,0-.728,.1304-.9546,.3901l-.2554-.2197c.1367-.1602,.311-.2837,.5225-.3701,.2119-.0869,.4512-.1299,.7178-.1299,.3564,0,.6392,.084,.8477,.2524,.208,.168,.3125,.3989,.3125,.6924,0,.1802-.04,.3535-.1201,.52s-.2319,.3584-.4551,.5747l-1.1899,1.1704h1.9248Z"/><path d="M34.2016,188.7007c-.2119-.1431-.377-.3491-.4951-.6177-.1182-.2681-.1777-.584-.1777-.9473s.0596-.6792,.1777-.9473c.1182-.2686,.2832-.4746,.4951-.6177,.2114-.1436,.4521-.2148,.7222-.2148s.5112,.0713,.7227,.2148c.2119,.1431,.3774,.3491,.4976,.6177,.1201,.2681,.1802,.584,.1802,.9473s-.0601,.6792-.1802,.9473c-.1201,.2686-.2856,.4746-.4976,.6177-.2114,.1436-.4526,.2148-.7227,.2148s-.5107-.0713-.7222-.2148Zm1.2598-.2852c.1553-.1133,.2759-.2778,.3628-.4946,.0864-.2168,.1299-.4785,.1299-.7852s-.0435-.5684-.1299-.7852c-.0869-.2163-.2075-.3813-.3628-.4946-.1548-.1133-.334-.1704-.5376-.1704-.2031,0-.3823,.0571-.5371,.1704-.1553,.1133-.2759,.2783-.3628,.4946-.0864,.2168-.1299,.4785-.1299,.7852s.0435,.5684,.1299,.7852c.0869,.2168,.2075,.3813,.3628,.4946,.1548,.1138,.334,.1704,.5371,.1704,.2036,0,.3828-.0566,.5376-.1704Z"/><path d="M37.7641,185.3857v3.5h-.3599v-3.1802h-.8252v-.3198h1.1851Z"/><path d="M40.5814,187.1831c.1914,.1787,.2876,.4111,.2876,.6978,0,.1997-.0483,.3774-.145,.5322-.0967,.1553-.2402,.2778-.4302,.3677s-.4219,.1348-.6948,.1348c-.2534,0-.4927-.0405-.7178-.1221-.2251-.082-.4058-.1909-.5425-.3276l.1753-.2852c.1162,.1201,.2715,.2178,.4648,.2925,.1934,.0752,.3999,.1128,.6201,.1128,.2866,0,.5083-.0625,.665-.1875,.1562-.125,.2349-.2979,.2349-.5176,0-.2168-.0786-.3867-.2349-.5103-.1567-.123-.3936-.1851-.7104-.1851h-.25v-.2646l.9702-1.2153h-1.79v-.3198h2.25v.2549l-.9897,1.2451c.3662,.02,.6455,.1191,.8374,.2974Z"/></g><g><path d="M59.9389,188.5659v.3198h-2.4551v-.2549l1.4551-1.4253c.1836-.1797,.3076-.3354,.3726-.4673s.0977-.2642,.0977-.3975c0-.2065-.0708-.3677-.2124-.4824-.1421-.1152-.3442-.1729-.6079-.1729-.4097,0-.728,.1304-.9546,.3901l-.2554-.2197c.1367-.1602,.311-.2837,.5225-.3701,.2119-.0869,.4512-.1299,.7178-.1299,.3564,0,.6392,.084,.8477,.2524,.208,.168,.3125,.3989,.3125,.6924,0,.1802-.04,.3535-.1201,.52s-.2319,.3584-.4551,.5747l-1.1899,1.1704h1.9248Z"/><path d="M61.0165,188.7007c-.2119-.1431-.377-.3491-.4951-.6177-.1182-.2681-.1777-.584-.1777-.9473s.0596-.6792,.1777-.9473c.1182-.2686,.2832-.4746,.4951-.6177,.2114-.1436,.4521-.2148,.7222-.2148s.5112,.0713,.7227,.2148c.2119,.1431,.3774,.3491,.4976,.6177,.1201,.2681,.1802,.584,.1802,.9473s-.0601,.6792-.1802,.9473c-.1201,.2686-.2856,.4746-.4976,.6177-.2114,.1436-.4526,.2148-.7227,.2148s-.5107-.0713-.7222-.2148Zm1.2598-.2852c.1553-.1133,.2759-.2778,.3628-.4946,.0864-.2168,.1299-.4785,.1299-.7852s-.0435-.5684-.1299-.7852c-.0869-.2163-.2075-.3813-.3628-.4946-.1548-.1133-.334-.1704-.5376-.1704-.2031,0-.3823,.0571-.5371,.1704-.1553,.1133-.2759,.2783-.3628,.4946-.0864,.2168-.1299,.4785-.1299,.7852s.0435,.5684,.1299,.7852c.0869,.2168,.2075,.3813,.3628,.4946,.1548,.1138,.334,.1704,.5371,.1704,.2036,0,.3828-.0566,.5376-.1704Z"/><path d="M64.579,185.3857v3.5h-.3599v-3.1802h-.8252v-.3198h1.1851Z"/><path d="M68.3437,187.9658h-.6997v.9199h-.3604v-.9199h-1.9746v-.2603l1.855-2.3198h.3999l-1.79,2.2598h1.52v-.8096h.3501v.8096h.6997v.3203Z"/></g><g><path d="M86.9828,188.5659v.3198h-2.4551v-.2549l1.4551-1.4253c.1836-.1797,.3076-.3354,.3726-.4673s.0977-.2642,.0977-.3975c0-.2065-.0708-.3677-.2124-.4824-.1421-.1152-.3442-.1729-.6079-.1729-.4097,0-.728,.1304-.9546,.3901l-.2554-.2197c.1367-.1602,.311-.2837,.5225-.3701,.2119-.0869,.4512-.1299,.7178-.1299,.3564,0,.6392,.084,.8477,.2524,.208,.168,.3125,.3989,.3125,.6924,0,.1802-.04,.3535-.1201,.52s-.2319,.3584-.4551,.5747l-1.1899,1.1704h1.9248Z"/><path d="M88.0605,188.7007c-.2119-.1431-.377-.3491-.4951-.6177-.1182-.2681-.1777-.584-.1777-.9473s.0596-.6792,.1777-.9473c.1182-.2686,.2832-.4746,.4951-.6177,.2114-.1436,.4521-.2148,.7222-.2148s.5112,.0713,.7227,.2148c.2119,.1431,.3774,.3491,.4976,.6177,.1201,.2681,.1802,.584,.1802,.9473s-.0601,.6792-.1802,.9473c-.1201,.2686-.2856,.4746-.4976,.6177-.2114,.1436-.4526,.2148-.7227,.2148s-.5107-.0713-.7222-.2148Zm1.2598-.2852c.1553-.1133,.2759-.2778,.3628-.4946,.0864-.2168,.1299-.4785,.1299-.7852s-.0435-.5684-.1299-.7852c-.0869-.2163-.2075-.3813-.3628-.4946-.1548-.1133-.334-.1704-.5376-.1704-.2031,0-.3823,.0571-.5371,.1704-.1553,.1133-.2759,.2783-.3628,.4946-.0864,.2168-.1299,.4785-.1299,.7852s.0435,.5684,.1299,.7852c.0869,.2168,.2075,.3813,.3628,.4946,.1548,.1138,.334,.1704,.5371,.1704,.2036,0,.3828-.0566,.5376-.1704Z"/><path d="M91.623,185.3857v3.5h-.3599v-3.1802h-.8252v-.3198h1.1851Z"/><path d="M94.4403,187.0933c.2314,.1816,.3472,.436,.3472,.7627,0,.2031-.0474,.3848-.1421,.5449-.0952,.1597-.2378,.2856-.4277,.3774s-.4233,.1372-.6997,.1372c-.25,0-.4878-.0405-.7129-.1221-.2246-.082-.4058-.1909-.5425-.3276l.1753-.2852c.1167,.1201,.27,.2178,.46,.2925,.1899,.0752,.395,.1128,.6147,.1128,.29,0,.5142-.0654,.6729-.1953,.1582-.1299,.2373-.3032,.2373-.52,0-.2397-.0894-.4214-.2676-.5449-.1782-.123-.479-.1851-.9023-.1851h-.7451l.1802-1.7549h1.915v.3198h-1.6001l-.1201,1.1152h.4502c.5063,0,.8755,.0908,1.1074,.2725Z"/></g><g><path d="M113.807,188.5659v.3198h-2.4551v-.2549l1.4551-1.4253c.1836-.1797,.3076-.3354,.3726-.4673s.0977-.2642,.0977-.3975c0-.2065-.0708-.3677-.2124-.4824-.1421-.1152-.3442-.1729-.6079-.1729-.4097,0-.728,.1304-.9546,.3901l-.2554-.2197c.1367-.1602,.311-.2837,.5225-.3701,.2119-.0869,.4512-.1299,.7178-.1299,.3564,0,.6392,.084,.8477,.2524,.208,.168,.3125,.3989,.3125,.6924,0,.1802-.04,.3535-.1201,.52s-.2319,.3584-.4551,.5747l-1.1899,1.1704h1.9248Z"/><path d="M114.8847,188.7007c-.2119-.1431-.377-.3491-.4951-.6177-.1182-.2681-.1777-.584-.1777-.9473s.0596-.6792,.1777-.9473c.1182-.2686,.2832-.4746,.4951-.6177,.2114-.1436,.4521-.2148,.7222-.2148s.5112,.0713,.7227,.2148c.2119,.1431,.3774,.3491,.4976,.6177,.1201,.2681,.1802,.584,.1802,.9473s-.0601,.6792-.1802,.9473c-.1201,.2686-.2856,.4746-.4976,.6177-.2114,.1436-.4526,.2148-.7227,.2148s-.5107-.0713-.7222-.2148Zm1.2598-.2852c.1553-.1133,.2759-.2778,.3628-.4946,.0864-.2168,.1299-.4785,.1299-.7852s-.0435-.5684-.1299-.7852c-.0869-.2163-.2075-.3813-.3628-.4946-.1548-.1133-.334-.1704-.5376-.1704-.2031,0-.3823,.0571-.5371,.1704-.1553,.1133-.2759,.2783-.3628,.4946-.0864,.2168-.1299,.4785-.1299,.7852s.0435,.5684,.1299,.7852c.0869,.2168,.2075,.3813,.3628,.4946,.1548,.1138,.334,.1704,.5371,.1704,.2036,0,.3828-.0566,.5376-.1704Z"/><path d="M118.4472,185.3857v3.5h-.3599v-3.1802h-.8252v-.3198h1.1851Z"/><path d="M121.2992,186.9209c.1787,.0864,.3179,.209,.418,.3672,.0996,.1587,.1499,.3428,.1499,.5527,0,.2134-.0518,.4019-.1553,.5649-.103,.1636-.2456,.2891-.4272,.3774s-.3857,.1323-.6128,.1323c-.4634,0-.8184-.1523-1.0649-.4575-.2466-.3047-.3701-.7354-.3701-1.2925,0-.3896,.0669-.7197,.2002-.9897s.3198-.4741,.5601-.6123c.2397-.1387,.52-.2075,.8398-.2075,.3467,0,.6235,.063,.8301,.1899l-.145,.29c-.1665-.1104-.3931-.165-.6797-.165-.3867,0-.6904,.1226-.9102,.3672-.2202,.2451-.3301,.6011-.3301,1.0679,0,.083,.0049,.1782,.0151,.2847,.0864-.1899,.2251-.3374,.415-.4424s.4082-.1577,.6548-.1577c.23,0,.4341,.0435,.6123,.1304Zm-.0249,1.4824c.1582-.1382,.2378-.3228,.2378-.5527s-.0796-.4131-.2378-.5498-.3726-.2051-.6426-.2051c-.1763,0-.3325,.0332-.4673,.1001s-.2407,.1582-.3174,.2749-.1152,.2466-.1152,.3901c0,.1333,.0361,.2568,.1074,.3701,.0718,.1133,.1777,.2046,.3179,.2749,.1396,.0698,.3066,.105,.5,.105,.2529,0,.459-.0693,.6172-.2075Z"/></g><g><path d="M141.0458,188.5659v.3198h-2.4551v-.2549l1.4551-1.4253c.1836-.1797,.3076-.3354,.3726-.4673s.0977-.2642,.0977-.3975c0-.2065-.0708-.3677-.2124-.4824-.1421-.1152-.3442-.1729-.6079-.1729-.4097,0-.728,.1304-.9546,.3901l-.2554-.2197c.1367-.1602,.311-.2837,.5225-.3701,.2119-.0869,.4512-.1299,.7178-.1299,.3564,0,.6392,.084,.8477,.2524,.208,.168,.3125,.3989,.3125,.6924,0,.1802-.04,.3535-.1201,.52s-.2319,.3584-.4551,.5747l-1.1899,1.1704h1.9248Z"/><path d="M142.1234,188.7007c-.2119-.1431-.377-.3491-.4951-.6177-.1182-.2681-.1777-.584-.1777-.9473s.0596-.6792,.1777-.9473c.1182-.2686,.2832-.4746,.4951-.6177,.2114-.1436,.4521-.2148,.7222-.2148s.5112,.0713,.7227,.2148c.2119,.1431,.3774,.3491,.4976,.6177,.1201,.2681,.1802,.584,.1802,.9473s-.0601,.6792-.1802,.9473c-.1201,.2686-.2856,.4746-.4976,.6177-.2114,.1436-.4526,.2148-.7227,.2148s-.5107-.0713-.7222-.2148Zm1.2598-.2852c.1553-.1133,.2759-.2778,.3628-.4946,.0864-.2168,.1299-.4785,.1299-.7852s-.0435-.5684-.1299-.7852c-.0869-.2163-.2075-.3813-.3628-.4946-.1548-.1133-.334-.1704-.5376-.1704-.2031,0-.3823,.0571-.5371,.1704-.1553,.1133-.2759,.2783-.3628,.4946-.0864,.2168-.1299,.4785-.1299,.7852s.0435,.5684,.1299,.7852c.0869,.2168,.2075,.3813,.3628,.4946,.1548,.1138,.334,.1704,.5371,.1704,.2036,0,.3828-.0566,.5376-.1704Z"/><path d="M145.6859,185.3857v3.5h-.3599v-3.1802h-.8252v-.3198h1.1851Z"/><path d="M148.9457,185.3857v.2549l-1.4648,3.2451h-.3901l1.4399-3.1802h-1.7998v.6553h-.355v-.9751h2.5698Z"/></g><g><path d="M167.5727,188.5659v.3198h-2.4551v-.2549l1.4551-1.4253c.1836-.1797,.3076-.3354,.3726-.4673s.0977-.2642,.0977-.3975c0-.2065-.0708-.3677-.2124-.4824-.1421-.1152-.3442-.1729-.6079-.1729-.4097,0-.728,.1304-.9546,.3901l-.2554-.2197c.1367-.1602,.311-.2837,.5225-.3701,.2119-.0869,.4512-.1299,.7178-.1299,.3564,0,.6392,.084,.8477,.2524,.208,.168,.3125,.3989,.3125,.6924,0,.1802-.04,.3535-.1201,.52s-.2319,.3584-.4551,.5747l-1.1899,1.1704h1.9248Z"/><path d="M168.6503,188.7007c-.2119-.1431-.377-.3491-.4951-.6177-.1182-.2681-.1777-.584-.1777-.9473s.0596-.6792,.1777-.9473c.1182-.2686,.2832-.4746,.4951-.6177,.2114-.1436,.4521-.2148,.7222-.2148s.5112,.0713,.7227,.2148c.2119,.1431,.3774,.3491,.4976,.6177,.1201,.2681,.1802,.584,.1802,.9473s-.0601,.6792-.1802,.9473c-.1201,.2686-.2856,.4746-.4976,.6177-.2114,.1436-.4526,.2148-.7227,.2148s-.5107-.0713-.7222-.2148Zm1.2598-.2852c.1553-.1133,.2759-.2778,.3628-.4946,.0864-.2168,.1299-.4785,.1299-.7852s-.0435-.5684-.1299-.7852c-.0869-.2163-.2075-.3813-.3628-.4946-.1548-.1133-.334-.1704-.5376-.1704-.2031,0-.3823,.0571-.5371,.1704-.1553,.1133-.2759,.2783-.3628,.4946-.0864,.2168-.1299,.4785-.1299,.7852s.0435,.5684,.1299,.7852c.0869,.2168,.2075,.3813,.3628,.4946,.1548,.1138,.334,.1704,.5371,.1704,.2036,0,.3828-.0566,.5376-.1704Z"/><path d="M172.2128,185.3857v3.5h-.3599v-3.1802h-.8252v-.3198h1.1851Z"/><path d="M175.515,187.3809c.1182,.1465,.1777,.3232,.1777,.5298,0,.2036-.0552,.3809-.165,.5327-.1104,.1514-.2676,.2681-.4727,.3501-.2051,.0815-.4458,.1221-.7227,.1221-.4199,0-.75-.0898-.9897-.27-.2402-.1797-.3599-.4248-.3599-.7349,0-.21,.0571-.3872,.1724-.5322,.1147-.145,.2822-.2544,.5024-.3276-.1802-.0698-.3169-.1709-.4102-.3027-.0933-.1313-.1396-.2871-.1396-.4673,0-.2832,.1104-.5083,.332-.6748,.2217-.167,.5195-.25,.8926-.25,.2466,0,.4629,.0371,.6475,.1123,.1851,.0752,.3291,.1826,.4326,.3223,.1035,.1401,.1553,.3037,.1553,.4902,0,.1802-.0483,.3359-.145,.4673-.0967,.1318-.2354,.2329-.415,.3027,.2197,.0732,.3892,.1831,.5073,.3301Zm-.4551,1.04c.1753-.127,.2627-.2983,.2627-.5151s-.0874-.3877-.2627-.5127c-.1748-.125-.4175-.1875-.7275-.1875-.3066,0-.5474,.0625-.7222,.1875-.1753,.125-.2627,.2959-.2627,.5127,0,.2202,.0864,.3926,.2603,.5176,.1729,.125,.4146,.1875,.7246,.1875s.5527-.0635,.7275-.1899Zm-1.3623-1.6699c.1533,.1133,.3647,.1699,.6348,.1699s.4824-.0566,.6377-.1699c.1548-.1133,.2324-.2651,.2324-.4551,0-.1968-.0791-.3516-.2373-.4653-.1587-.1133-.3691-.1699-.6328-.1699-.2666,0-.4775,.0566-.6323,.1699-.1548,.1138-.2324,.2671-.2324,.46,0,.1934,.0767,.3472,.23,.4604Z"/></g><g><path d="M194.5009,188.5659v.3198h-2.4551v-.2549l1.4551-1.4253c.1836-.1797,.3076-.3354,.3726-.4673s.0977-.2642,.0977-.3975c0-.2065-.0708-.3677-.2124-.4824-.1421-.1152-.3442-.1729-.6079-.1729-.4097,0-.728,.1304-.9546,.3901l-.2554-.2197c.1367-.1602,.311-.2837,.5225-.3701,.2119-.0869,.4512-.1299,.7178-.1299,.3564,0,.6392,.084,.8477,.2524,.208,.168,.3125,.3989,.3125,.6924,0,.1802-.04,.3535-.1201,.52s-.2319,.3584-.4551,.5747l-1.1899,1.1704h1.9248Z"/><path d="M195.5785,188.7007c-.2119-.1431-.377-.3491-.4951-.6177-.1182-.2681-.1777-.584-.1777-.9473s.0596-.6792,.1777-.9473c.1182-.2686,.2832-.4746,.4951-.6177,.2114-.1436,.4521-.2148,.7222-.2148s.5112,.0713,.7227,.2148c.2119,.1431,.3774,.3491,.4976,.6177,.1201,.2681,.1802,.584,.1802,.9473s-.0601,.6792-.1802,.9473c-.1201,.2686-.2856,.4746-.4976,.6177-.2114,.1436-.4526,.2148-.7227,.2148s-.5107-.0713-.7222-.2148Zm1.2598-.2852c.1553-.1133,.2759-.2778,.3628-.4946,.0864-.2168,.1299-.4785,.1299-.7852s-.0435-.5684-.1299-.7852c-.0869-.2163-.2075-.3813-.3628-.4946-.1548-.1133-.334-.1704-.5376-.1704-.2031,0-.3823,.0571-.5371,.1704-.1553,.1133-.2759,.2783-.3628,.4946-.0864,.2168-.1299,.4785-.1299,.7852s.0435,.5684,.1299,.7852c.0869,.2168,.2075,.3813,.3628,.4946,.1548,.1138,.334,.1704,.5371,.1704,.2036,0,.3828-.0566,.5376-.1704Z"/><path d="M199.141,185.3857v3.5h-.3599v-3.1802h-.8252v-.3198h1.1851Z"/><path d="M202.0858,185.8135c.2466,.3047,.3701,.7358,.3701,1.2925,0,.3896-.0669,.7197-.2002,.9897s-.3198,.4741-.5601,.6123c-.2397,.1387-.52,.2075-.8398,.2075-.3467,0-.6235-.063-.8301-.1899l.145-.29c.1665,.1104,.3931,.165,.6802,.165,.3862,0,.6899-.1226,.9097-.3672,.2202-.2451,.3301-.6011,.3301-1.0679,0-.0864-.0049-.1816-.0151-.2847-.0864,.1899-.2246,.3374-.4146,.4424-.1904,.105-.4087,.1577-.6553,.1577-.23,0-.4341-.0435-.6123-.1304-.1787-.0864-.3179-.209-.4175-.3672-.1001-.1582-.1504-.3428-.1504-.5527,0-.2134,.0518-.4014,.1553-.5649,.103-.1631,.2456-.2891,.4272-.3774s.3857-.1323,.6128-.1323c.4634,0,.8184,.1523,1.0649,.4575Zm-.5576,1.2622c.1353-.0664,.2407-.1582,.3174-.2749s.1152-.2466,.1152-.3901c0-.1333-.0361-.2563-.1074-.3701-.0718-.1133-.1777-.2046-.3174-.2749-.1401-.0698-.3071-.105-.5-.105-.2534,0-.4595,.0693-.6177,.2075-.1582,.1387-.2378,.3228-.2378,.5527s.0796,.4131,.2378,.5498,.3726,.2051,.6426,.2051c.1763,0,.3325-.0332,.4673-.1001Z"/></g><g><path d="M220.7021,188.5659v.3198h-2.4551v-.2549l1.4551-1.4253c.1836-.1797,.3076-.3354,.3726-.4673s.0977-.2642,.0977-.3975c0-.2065-.0708-.3677-.2124-.4824-.1421-.1152-.3442-.1729-.6079-.1729-.4097,0-.728,.1304-.9546,.3901l-.2554-.2197c.1367-.1602,.311-.2837,.5225-.3701,.2119-.0869,.4512-.1299,.7178-.1299,.3564,0,.6392,.084,.8477,.2524,.208,.168,.3125,.3989,.3125,.6924,0,.1802-.04,.3535-.1201,.52s-.2319,.3584-.4551,.5747l-1.1899,1.1704h1.9248Z"/><path d="M221.7797,188.7007c-.2119-.1431-.377-.3491-.4951-.6177-.1182-.2681-.1777-.584-.1777-.9473s.0596-.6792,.1777-.9473c.1182-.2686,.2832-.4746,.4951-.6177,.2114-.1436,.4521-.2148,.7222-.2148s.5112,.0713,.7227,.2148c.2119,.1431,.3774,.3491,.4976,.6177,.1201,.2681,.1802,.584,.1802,.9473s-.0601,.6792-.1802,.9473c-.1201,.2686-.2856,.4746-.4976,.6177-.2114,.1436-.4526,.2148-.7227,.2148s-.5107-.0713-.7222-.2148Zm1.2598-.2852c.1553-.1133,.2759-.2778,.3628-.4946,.0864-.2168,.1299-.4785,.1299-.7852s-.0435-.5684-.1299-.7852c-.0869-.2163-.2075-.3813-.3628-.4946-.1548-.1133-.334-.1704-.5376-.1704-.2031,0-.3823,.0571-.5371,.1704-.1553,.1133-.2759,.2783-.3628,.4946-.0864,.2168-.1299,.4785-.1299,.7852s.0435,.5684,.1299,.7852c.0869,.2168,.2075,.3813,.3628,.4946,.1548,.1138,.334,.1704,.5371,.1704,.2036,0,.3828-.0566,.5376-.1704Z"/><path d="M226.7621,188.5659v.3198h-2.4551v-.2549l1.4551-1.4253c.1836-.1797,.3076-.3354,.3726-.4673s.0977-.2642,.0977-.3975c0-.2065-.0708-.3677-.2124-.4824-.1421-.1152-.3442-.1729-.6079-.1729-.4097,0-.728,.1304-.9546,.3901l-.2554-.2197c.1367-.1602,.311-.2837,.5225-.3701,.2119-.0869,.4512-.1299,.7178-.1299,.3564,0,.6392,.084,.8477,.2524,.208,.168,.3125,.3989,.3125,.6924,0,.1802-.04,.3535-.1201,.52s-.2319,.3584-.4551,.5747l-1.1899,1.1704h1.9248Z"/><path d="M227.8397,188.7007c-.2119-.1431-.377-.3491-.4951-.6177-.1182-.2681-.1777-.584-.1777-.9473s.0596-.6792,.1777-.9473c.1182-.2686,.2832-.4746,.4951-.6177,.2114-.1436,.4521-.2148,.7222-.2148s.5112,.0713,.7227,.2148c.2119,.1431,.3774,.3491,.4976,.6177,.1201,.2681,.1802,.584,.1802,.9473s-.0601,.6792-.1802,.9473c-.1201,.2686-.2856,.4746-.4976,.6177-.2114,.1436-.4526,.2148-.7227,.2148s-.5107-.0713-.7222-.2148Zm1.2598-.2852c.1553-.1133,.2759-.2778,.3628-.4946,.0864-.2168,.1299-.4785,.1299-.7852s-.0435-.5684-.1299-.7852c-.0869-.2163-.2075-.3813-.3628-.4946-.1548-.1133-.334-.1704-.5376-.1704-.2031,0-.3823,.0571-.5371,.1704-.1553,.1133-.2759,.2783-.3628,.4946-.0864,.2168-.1299,.4785-.1299,.7852s.0435,.5684,.1299,.7852c.0869,.2168,.2075,.3813,.3628,.4946,.1548,.1138,.334,.1704,.5371,.1704,.2036,0,.3828-.0566,.5376-.1704Z"/></g><g><path d="M248.4276,188.5659v.3198h-2.4551v-.2549l1.4551-1.4253c.1836-.1797,.3076-.3354,.3726-.4673s.0977-.2642,.0977-.3975c0-.2065-.0708-.3677-.2124-.4824-.1421-.1152-.3442-.1729-.6079-.1729-.4097,0-.728,.1304-.9546,.3901l-.2554-.2197c.1367-.1602,.311-.2837,.5225-.3701,.2119-.0869,.4512-.1299,.7178-.1299,.3564,0,.6392,.084,.8477,.2524,.208,.168,.3125,.3989,.3125,.6924,0,.1802-.04,.3535-.1201,.52s-.2319,.3584-.4551,.5747l-1.1899,1.1704h1.9248Z"/><path d="M249.5004,188.7007c-.2119-.1431-.377-.3491-.4951-.6177-.1182-.2681-.1777-.584-.1777-.9473s.0596-.6792,.1777-.9473c.1182-.2686,.2832-.4746,.4951-.6177,.2114-.1436,.4521-.2148,.7222-.2148s.5112,.0713,.7227,.2148c.2119,.1431,.3774,.3491,.4976,.6177,.1201,.2681,.1802,.584,.1802,.9473s-.0601,.6792-.1802,.9473c-.1201,.2686-.2856,.4746-.4976,.6177-.2114,.1436-.4526,.2148-.7227,.2148s-.5107-.0713-.7222-.2148Zm1.2598-.2852c.1553-.1133,.2759-.2778,.3628-.4946,.0864-.2168,.1299-.4785,.1299-.7852s-.0435-.5684-.1299-.7852c-.0869-.2163-.2075-.3813-.3628-.4946-.1548-.1133-.334-.1704-.5376-.1704-.2031,0-.3823,.0571-.5371,.1704-.1553,.1133-.2759,.2783-.3628,.4946-.0864,.2168-.1299,.4785-.1299,.7852s.0435,.5684,.1299,.7852c.0869,.2168,.2075,.3813,.3628,.4946,.1548,.1138,.334,.1704,.5371,.1704,.2036,0,.3828-.0566,.5376-.1704Z"/><path d="M254.4774,188.5659v.3198h-2.4551v-.2549l1.4551-1.4253c.1836-.1797,.3076-.3354,.3726-.4673s.0977-.2642,.0977-.3975c0-.2065-.0708-.3677-.2124-.4824-.1421-.1152-.3442-.1729-.6079-.1729-.4097,0-.728,.1304-.9546,.3901l-.2554-.2197c.1367-.1602,.311-.2837,.5225-.3701,.2119-.0869,.4512-.1299,.7178-.1299,.3564,0,.6392,.084,.8477,.2524,.208,.168,.3125,.3989,.3125,.6924,0,.1802-.04,.3535-.1201,.52s-.2319,.3584-.4551,.5747l-1.1899,1.1704h1.9248Z"/><path d="M255.8476,185.3857v3.5h-.3599v-3.1802h-.8252v-.3198h1.1851Z"/></g><g><path d="M6.3383,188.5659v.3198H3.8832v-.2549l1.4551-1.4253c.1836-.1797,.3076-.3354,.3726-.4673s.0977-.2642,.0977-.3975c0-.2065-.0708-.3677-.2124-.4824-.1421-.1152-.3442-.1729-.6079-.1729-.4097,0-.728,.1304-.9546,.3901l-.2554-.2197c.1367-.1602,.311-.2837,.5225-.3701,.2119-.0869,.4512-.1299,.7178-.1299,.3564,0,.6392,.084,.8477,.2524,.208,.168,.3125,.3989,.3125,.6924,0,.1802-.04,.3535-.1201,.52s-.2319,.3584-.4551,.5747l-1.1899,1.1704h1.9248Z"/><path d="M7.411,188.7007c-.2119-.1431-.377-.3491-.4951-.6177-.1182-.2681-.1777-.584-.1777-.9473s.0596-.6792,.1777-.9473c.1182-.2686,.2832-.4746,.4951-.6177,.2114-.1436,.4521-.2148,.7222-.2148s.5112,.0713,.7227,.2148c.2119,.1431,.3774,.3491,.4976,.6177,.1201,.2681,.1802,.584,.1802,.9473s-.0601,.6792-.1802,.9473c-.1201,.2686-.2856,.4746-.4976,.6177-.2114,.1436-.4526,.2148-.7227,.2148s-.5107-.0713-.7222-.2148Zm1.2598-.2852c.1553-.1133,.2759-.2778,.3628-.4946,.0864-.2168,.1299-.4785,.1299-.7852s-.0435-.5684-.1299-.7852c-.0869-.2163-.2075-.3813-.3628-.4946-.1548-.1133-.334-.1704-.5376-.1704-.2031,0-.3823,.0571-.5371,.1704-.1553,.1133-.2759,.2783-.3628,.4946-.0864,.2168-.1299,.4785-.1299,.7852s.0435,.5684,.1299,.7852c.0869,.2168,.2075,.3813,.3628,.4946,.1548,.1138,.334,.1704,.5371,.1704,.2036,0,.3828-.0566,.5376-.1704Z"/><path d="M10.9682,185.3857v3.5h-.3599v-3.1802h-.8252v-.3198h1.1851Z"/><path d="M14.143,188.5659v.3198h-2.4551v-.2549l1.4551-1.4253c.1836-.1797,.3076-.3354,.3726-.4673s.0977-.2642,.0977-.3975c0-.2065-.0708-.3677-.2124-.4824-.1421-.1152-.3442-.1729-.6079-.1729-.4097,0-.728,.1304-.9546,.3901l-.2554-.2197c.1367-.1602,.311-.2837,.5225-.3701,.2119-.0869,.4512-.1299,.7178-.1299,.3564,0,.6392,.084,.8477,.2524,.208,.168,.3125,.3989,.3125,.6924,0,.1802-.04,.3535-.1201,.52s-.2319,.3584-.4551,.5747l-1.1899,1.1704h1.9248Z"/></g><g><path d="M33.1239,188.5659v.3198h-2.4551v-.2549l1.4551-1.4253c.1836-.1797,.3076-.3354,.3726-.4673s.0977-.2642,.0977-.3975c0-.2065-.0708-.3677-.2124-.4824-.1421-.1152-.3442-.1729-.6079-.1729-.4097,0-.728,.1304-.9546,.3901l-.2554-.2197c.1367-.1602,.311-.2837,.5225-.3701,.2119-.0869,.4512-.1299,.7178-.1299,.3564,0,.6392,.084,.8477,.2524,.208,.168,.3125,.3989,.3125,.6924,0,.1802-.04,.3535-.1201,.52s-.2319,.3584-.4551,.5747l-1.1899,1.1704h1.9248Z"/><path d="M34.2016,188.7007c-.2119-.1431-.377-.3491-.4951-.6177-.1182-.2681-.1777-.584-.1777-.9473s.0596-.6792,.1777-.9473c.1182-.2686,.2832-.4746,.4951-.6177,.2114-.1436,.4521-.2148,.7222-.2148s.5112,.0713,.7227,.2148c.2119,.1431,.3774,.3491,.4976,.6177,.1201,.2681,.1802,.584,.1802,.9473s-.0601,.6792-.1802,.9473c-.1201,.2686-.2856,.4746-.4976,.6177-.2114,.1436-.4526,.2148-.7227,.2148s-.5107-.0713-.7222-.2148Zm1.2598-.2852c.1553-.1133,.2759-.2778,.3628-.4946,.0864-.2168,.1299-.4785,.1299-.7852s-.0435-.5684-.1299-.7852c-.0869-.2163-.2075-.3813-.3628-.4946-.1548-.1133-.334-.1704-.5376-.1704-.2031,0-.3823,.0571-.5371,.1704-.1553,.1133-.2759,.2783-.3628,.4946-.0864,.2168-.1299,.4785-.1299,.7852s.0435,.5684,.1299,.7852c.0869,.2168,.2075,.3813,.3628,.4946,.1548,.1138,.334,.1704,.5371,.1704,.2036,0,.3828-.0566,.5376-.1704Z"/><path d="M37.7641,185.3857v3.5h-.3599v-3.1802h-.8252v-.3198h1.1851Z"/><path d="M40.5814,187.1831c.1914,.1787,.2876,.4111,.2876,.6978,0,.1997-.0483,.3774-.145,.5322-.0967,.1553-.2402,.2778-.4302,.3677s-.4219,.1348-.6948,.1348c-.2534,0-.4927-.0405-.7178-.1221-.2251-.082-.4058-.1909-.5425-.3276l.1753-.2852c.1162,.1201,.2715,.2178,.4648,.2925,.1934,.0752,.3999,.1128,.6201,.1128,.2866,0,.5083-.0625,.665-.1875,.1562-.125,.2349-.2979,.2349-.5176,0-.2168-.0786-.3867-.2349-.5103-.1567-.123-.3936-.1851-.7104-.1851h-.25v-.2646l.9702-1.2153h-1.79v-.3198h2.25v.2549l-.9897,1.2451c.3662,.02,.6455,.1191,.8374,.2974Z"/></g><g><path d="M59.9389,188.5659v.3198h-2.4551v-.2549l1.4551-1.4253c.1836-.1797,.3076-.3354,.3726-.4673s.0977-.2642,.0977-.3975c0-.2065-.0708-.3677-.2124-.4824-.1421-.1152-.3442-.1729-.6079-.1729-.4097,0-.728,.1304-.9546,.3901l-.2554-.2197c.1367-.1602,.311-.2837,.5225-.3701,.2119-.0869,.4512-.1299,.7178-.1299,.3564,0,.6392,.084,.8477,.2524,.208,.168,.3125,.3989,.3125,.6924,0,.1802-.04,.3535-.1201,.52s-.2319,.3584-.4551,.5747l-1.1899,1.1704h1.9248Z"/><path d="M61.0165,188.7007c-.2119-.1431-.377-.3491-.4951-.6177-.1182-.2681-.1777-.584-.1777-.9473s.0596-.6792,.1777-.9473c.1182-.2686,.2832-.4746,.4951-.6177,.2114-.1436,.4521-.2148,.7222-.2148s.5112,.0713,.7227,.2148c.2119,.1431,.3774,.3491,.4976,.6177,.1201,.2681,.1802,.584,.1802,.9473s-.0601,.6792-.1802,.9473c-.1201,.2686-.2856,.4746-.4976,.6177-.2114,.1436-.4526,.2148-.7227,.2148s-.5107-.0713-.7222-.2148Zm1.2598-.2852c.1553-.1133,.2759-.2778,.3628-.4946,.0864-.2168,.1299-.4785,.1299-.7852s-.0435-.5684-.1299-.7852c-.0869-.2163-.2075-.3813-.3628-.4946-.1548-.1133-.334-.1704-.5376-.1704-.2031,0-.3823,.0571-.5371,.1704-.1553,.1133-.2759,.2783-.3628,.4946-.0864,.2168-.1299,.4785-.1299,.7852s.0435,.5684,.1299,.7852c.0869,.2168,.2075,.3813,.3628,.4946,.1548,.1138,.334,.1704,.5371,.1704,.2036,0,.3828-.0566,.5376-.1704Z"/><path d="M64.579,185.3857v3.5h-.3599v-3.1802h-.8252v-.3198h1.1851Z"/><path d="M68.3437,187.9658h-.6997v.9199h-.3604v-.9199h-1.9746v-.2603l1.855-2.3198h.3999l-1.79,2.2598h1.52v-.8096h.3501v.8096h.6997v.3203Z"/></g><g><path d="M86.9828,188.5659v.3198h-2.4551v-.2549l1.4551-1.4253c.1836-.1797,.3076-.3354,.3726-.4673s.0977-.2642,.0977-.3975c0-.2065-.0708-.3677-.2124-.4824-.1421-.1152-.3442-.1729-.6079-.1729-.4097,0-.728,.1304-.9546,.3901l-.2554-.2197c.1367-.1602,.311-.2837,.5225-.3701,.2119-.0869,.4512-.1299,.7178-.1299,.3564,0,.6392,.084,.8477,.2524,.208,.168,.3125,.3989,.3125,.6924,0,.1802-.04,.3535-.1201,.52s-.2319,.3584-.4551,.5747l-1.1899,1.1704h1.9248Z"/><path d="M88.0605,188.7007c-.2119-.1431-.377-.3491-.4951-.6177-.1182-.2681-.1777-.584-.1777-.9473s.0596-.6792,.1777-.9473c.1182-.2686,.2832-.4746,.4951-.6177,.2114-.1436,.4521-.2148,.7222-.2148s.5112,.0713,.7227,.2148c.2119,.1431,.3774,.3491,.4976,.6177,.1201,.2681,.1802,.584,.1802,.9473s-.0601,.6792-.1802,.9473c-.1201,.2686-.2856,.4746-.4976,.6177-.2114,.1436-.4526,.2148-.7227,.2148s-.5107-.0713-.7222-.2148Zm1.2598-.2852c.1553-.1133,.2759-.2778,.3628-.4946,.0864-.2168,.1299-.4785,.1299-.7852s-.0435-.5684-.1299-.7852c-.0869-.2163-.2075-.3813-.3628-.4946-.1548-.1133-.334-.1704-.5376-.1704-.2031,0-.3823,.0571-.5371,.1704-.1553,.1133-.2759,.2783-.3628,.4946-.0864,.2168-.1299,.4785-.1299,.7852s.0435,.5684,.1299,.7852c.0869,.2168,.2075,.3813,.3628,.4946,.1548,.1138,.334,.1704,.5371,.1704,.2036,0,.3828-.0566,.5376-.1704Z"/><path d="M91.623,185.3857v3.5h-.3599v-3.1802h-.8252v-.3198h1.1851Z"/><path d="M94.4403,187.0933c.2314,.1816,.3472,.436,.3472,.7627,0,.2031-.0474,.3848-.1421,.5449-.0952,.1597-.2378,.2856-.4277,.3774s-.4233,.1372-.6997,.1372c-.25,0-.4878-.0405-.7129-.1221-.2246-.082-.4058-.1909-.5425-.3276l.1753-.2852c.1167,.1201,.27,.2178,.46,.2925,.1899,.0752,.395,.1128,.6147,.1128,.29,0,.5142-.0654,.6729-.1953,.1582-.1299,.2373-.3032,.2373-.52,0-.2397-.0894-.4214-.2676-.5449-.1782-.123-.479-.1851-.9023-.1851h-.7451l.1802-1.7549h1.915v.3198h-1.6001l-.1201,1.1152h.4502c.5063,0,.8755,.0908,1.1074,.2725Z"/></g><g><path d="M113.807,188.5659v.3198h-2.4551v-.2549l1.4551-1.4253c.1836-.1797,.3076-.3354,.3726-.4673s.0977-.2642,.0977-.3975c0-.2065-.0708-.3677-.2124-.4824-.1421-.1152-.3442-.1729-.6079-.1729-.4097,0-.728,.1304-.9546,.3901l-.2554-.2197c.1367-.1602,.311-.2837,.5225-.3701,.2119-.0869,.4512-.1299,.7178-.1299,.3564,0,.6392,.084,.8477,.2524,.208,.168,.3125,.3989,.3125,.6924,0,.1802-.04,.3535-.1201,.52s-.2319,.3584-.4551,.5747l-1.1899,1.1704h1.9248Z"/><path d="M114.8847,188.7007c-.2119-.1431-.377-.3491-.4951-.6177-.1182-.2681-.1777-.584-.1777-.9473s.0596-.6792,.1777-.9473c.1182-.2686,.2832-.4746,.4951-.6177,.2114-.1436,.4521-.2148,.7222-.2148s.5112,.0713,.7227,.2148c.2119,.1431,.3774,.3491,.4976,.6177,.1201,.2681,.1802,.584,.1802,.9473s-.0601,.6792-.1802,.9473c-.1201,.2686-.2856,.4746-.4976,.6177-.2114,.1436-.4526,.2148-.7227,.2148s-.5107-.0713-.7222-.2148Zm1.2598-.2852c.1553-.1133,.2759-.2778,.3628-.4946,.0864-.2168,.1299-.4785,.1299-.7852s-.0435-.5684-.1299-.7852c-.0869-.2163-.2075-.3813-.3628-.4946-.1548-.1133-.334-.1704-.5376-.1704-.2031,0-.3823,.0571-.5371,.1704-.1553,.1133-.2759,.2783-.3628,.4946-.0864,.2168-.1299,.4785-.1299,.7852s.0435,.5684,.1299,.7852c.0869,.2168,.2075,.3813,.3628,.4946,.1548,.1138,.334,.1704,.5371,.1704,.2036,0,.3828-.0566,.5376-.1704Z"/><path d="M118.4472,185.3857v3.5h-.3599v-3.1802h-.8252v-.3198h1.1851Z"/><path d="M121.2992,186.9209c.1787,.0864,.3179,.209,.418,.3672,.0996,.1587,.1499,.3428,.1499,.5527,0,.2134-.0518,.4019-.1553,.5649-.103,.1636-.2456,.2891-.4272,.3774s-.3857,.1323-.6128,.1323c-.4634,0-.8184-.1523-1.0649-.4575-.2466-.3047-.3701-.7354-.3701-1.2925,0-.3896,.0669-.7197,.2002-.9897s.3198-.4741,.5601-.6123c.2397-.1387,.52-.2075,.8398-.2075,.3467,0,.6235,.063,.8301,.1899l-.145,.29c-.1665-.1104-.3931-.165-.6797-.165-.3867,0-.6904,.1226-.9102,.3672-.2202,.2451-.3301,.6011-.3301,1.0679,0,.083,.0049,.1782,.0151,.2847,.0864-.1899,.2251-.3374,.415-.4424s.4082-.1577,.6548-.1577c.23,0,.4341,.0435,.6123,.1304Zm-.0249,1.4824c.1582-.1382,.2378-.3228,.2378-.5527s-.0796-.4131-.2378-.5498-.3726-.2051-.6426-.2051c-.1763,0-.3325,.0332-.4673,.1001s-.2407,.1582-.3174,.2749-.1152,.2466-.1152,.3901c0,.1333,.0361,.2568,.1074,.3701,.0718,.1133,.1777,.2046,.3179,.2749,.1396,.0698,.3066,.105,.5,.105,.2529,0,.459-.0693,.6172-.2075Z"/></g><g><path d="M141.0458,188.5659v.3198h-2.4551v-.2549l1.4551-1.4253c.1836-.1797,.3076-.3354,.3726-.4673s.0977-.2642,.0977-.3975c0-.2065-.0708-.3677-.2124-.4824-.1421-.1152-.3442-.1729-.6079-.1729-.4097,0-.728,.1304-.9546,.3901l-.2554-.2197c.1367-.1602,.311-.2837,.5225-.3701,.2119-.0869,.4512-.1299,.7178-.1299,.3564,0,.6392,.084,.8477,.2524,.208,.168,.3125,.3989,.3125,.6924,0,.1802-.04,.3535-.1201,.52s-.2319,.3584-.4551,.5747l-1.1899,1.1704h1.9248Z"/><path d="M142.1234,188.7007c-.2119-.1431-.377-.3491-.4951-.6177-.1182-.2681-.1777-.584-.1777-.9473s.0596-.6792,.1777-.9473c.1182-.2686,.2832-.4746,.4951-.6177,.2114-.1436,.4521-.2148,.7222-.2148s.5112,.0713,.7227,.2148c.2119,.1431,.3774,.3491,.4976,.6177,.1201,.2681,.1802,.584,.1802,.9473s-.0601,.6792-.1802,.9473c-.1201,.2686-.2856,.4746-.4976,.6177-.2114,.1436-.4526,.2148-.7227,.2148s-.5107-.0713-.7222-.2148Zm1.2598-.2852c.1553-.1133,.2759-.2778,.3628-.4946,.0864-.2168,.1299-.4785,.1299-.7852s-.0435-.5684-.1299-.7852c-.0869-.2163-.2075-.3813-.3628-.4946-.1548-.1133-.334-.1704-.5376-.1704-.2031,0-.3823,.0571-.5371,.1704-.1553,.1133-.2759,.2783-.3628,.4946-.0864,.2168-.1299,.4785-.1299,.7852s.0435,.5684,.1299,.7852c.0869,.2168,.2075,.3813,.3628,.4946,.1548,.1138,.334,.1704,.5371,.1704,.2036,0,.3828-.0566,.5376-.1704Z"/><path d="M145.6859,185.3857v3.5h-.3599v-3.1802h-.8252v-.3198h1.1851Z"/><path d="M148.9457,185.3857v.2549l-1.4648,3.2451h-.3901l1.4399-3.1802h-1.7998v.6553h-.355v-.9751h2.5698Z"/></g><g><path d="M167.5727,188.5659v.3198h-2.4551v-.2549l1.4551-1.4253c.1836-.1797,.3076-.3354,.3726-.4673s.0977-.2642,.0977-.3975c0-.2065-.0708-.3677-.2124-.4824-.1421-.1152-.3442-.1729-.6079-.1729-.4097,0-.728,.1304-.9546,.3901l-.2554-.2197c.1367-.1602,.311-.2837,.5225-.3701,.2119-.0869,.4512-.1299,.7178-.1299,.3564,0,.6392,.084,.8477,.2524,.208,.168,.3125,.3989,.3125,.6924,0,.1802-.04,.3535-.1201,.52s-.2319,.3584-.4551,.5747l-1.1899,1.1704h1.9248Z"/><path d="M168.6503,188.7007c-.2119-.1431-.377-.3491-.4951-.6177-.1182-.2681-.1777-.584-.1777-.9473s.0596-.6792,.1777-.9473c.1182-.2686,.2832-.4746,.4951-.6177,.2114-.1436,.4521-.2148,.7222-.2148s.5112,.0713,.7227,.2148c.2119,.1431,.3774,.3491,.4976,.6177,.1201,.2681,.1802,.584,.1802,.9473s-.0601,.6792-.1802,.9473c-.1201,.2686-.2856,.4746-.4976,.6177-.2114,.1436-.4526,.2148-.7227,.2148s-.5107-.0713-.7222-.2148Zm1.2598-.2852c.1553-.1133,.2759-.2778,.3628-.4946,.0864-.2168,.1299-.4785,.1299-.7852s-.0435-.5684-.1299-.7852c-.0869-.2163-.2075-.3813-.3628-.4946-.1548-.1133-.334-.1704-.5376-.1704-.2031,0-.3823,.0571-.5371,.1704-.1553,.1133-.2759,.2783-.3628,.4946-.0864,.2168-.1299,.4785-.1299,.7852s.0435,.5684,.1299,.7852c.0869,.2168,.2075,.3813,.3628,.4946,.1548,.1138,.334,.1704,.5371,.1704,.2036,0,.3828-.0566,.5376-.1704Z"/><path d="M172.2128,185.3857v3.5h-.3599v-3.1802h-.8252v-.3198h1.1851Z"/><path d="M175.515,187.3809c.1182,.1465,.1777,.3232,.1777,.5298,0,.2036-.0552,.3809-.165,.5327-.1104,.1514-.2676,.2681-.4727,.3501-.2051,.0815-.4458,.1221-.7227,.1221-.4199,0-.75-.0898-.9897-.27-.2402-.1797-.3599-.4248-.3599-.7349,0-.21,.0571-.3872,.1724-.5322,.1147-.145,.2822-.2544,.5024-.3276-.1802-.0698-.3169-.1709-.4102-.3027-.0933-.1313-.1396-.2871-.1396-.4673,0-.2832,.1104-.5083,.332-.6748,.2217-.167,.5195-.25,.8926-.25,.2466,0,.4629,.0371,.6475,.1123,.1851,.0752,.3291,.1826,.4326,.3223,.1035,.1401,.1553,.3037,.1553,.4902,0,.1802-.0483,.3359-.145,.4673-.0967,.1318-.2354,.2329-.415,.3027,.2197,.0732,.3892,.1831,.5073,.3301Zm-.4551,1.04c.1753-.127,.2627-.2983,.2627-.5151s-.0874-.3877-.2627-.5127c-.1748-.125-.4175-.1875-.7275-.1875-.3066,0-.5474,.0625-.7222,.1875-.1753,.125-.2627,.2959-.2627,.5127,0,.2202,.0864,.3926,.2603,.5176,.1729,.125,.4146,.1875,.7246,.1875s.5527-.0635,.7275-.1899Zm-1.3623-1.6699c.1533,.1133,.3647,.1699,.6348,.1699s.4824-.0566,.6377-.1699c.1548-.1133,.2324-.2651,.2324-.4551,0-.1968-.0791-.3516-.2373-.4653-.1587-.1133-.3691-.1699-.6328-.1699-.2666,0-.4775,.0566-.6323,.1699-.1548,.1138-.2324,.2671-.2324,.46,0,.1934,.0767,.3472,.23,.4604Z"/></g><g><path d="M194.5009,188.5659v.3198h-2.4551v-.2549l1.4551-1.4253c.1836-.1797,.3076-.3354,.3726-.4673s.0977-.2642,.0977-.3975c0-.2065-.0708-.3677-.2124-.4824-.1421-.1152-.3442-.1729-.6079-.1729-.4097,0-.728,.1304-.9546,.3901l-.2554-.2197c.1367-.1602,.311-.2837,.5225-.3701,.2119-.0869,.4512-.1299,.7178-.1299,.3564,0,.6392,.084,.8477,.2524,.208,.168,.3125,.3989,.3125,.6924,0,.1802-.04,.3535-.1201,.52s-.2319,.3584-.4551,.5747l-1.1899,1.1704h1.9248Z"/><path d="M195.5785,188.7007c-.2119-.1431-.377-.3491-.4951-.6177-.1182-.2681-.1777-.584-.1777-.9473s.0596-.6792,.1777-.9473c.1182-.2686,.2832-.4746,.4951-.6177,.2114-.1436,.4521-.2148,.7222-.2148s.5112,.0713,.7227,.2148c.2119,.1431,.3774,.3491,.4976,.6177,.1201,.2681,.1802,.584,.1802,.9473s-.0601,.6792-.1802,.9473c-.1201,.2686-.2856,.4746-.4976,.6177-.2114,.1436-.4526,.2148-.7227,.2148s-.5107-.0713-.7222-.2148Zm1.2598-.2852c.1553-.1133,.2759-.2778,.3628-.4946,.0864-.2168,.1299-.4785,.1299-.7852s-.0435-.5684-.1299-.7852c-.0869-.2163-.2075-.3813-.3628-.4946-.1548-.1133-.334-.1704-.5376-.1704-.2031,0-.3823,.0571-.5371,.1704-.1553,.1133-.2759,.2783-.3628,.4946-.0864,.2168-.1299,.4785-.1299,.7852s.0435,.5684,.1299,.7852c.0869,.2168,.2075,.3813,.3628,.4946,.1548,.1138,.334,.1704,.5371,.1704,.2036,0,.3828-.0566,.5376-.1704Z"/><path d="M199.141,185.3857v3.5h-.3599v-3.1802h-.8252v-.3198h1.1851Z"/><path d="M202.0858,185.8135c.2466,.3047,.3701,.7358,.3701,1.2925,0,.3896-.0669,.7197-.2002,.9897s-.3198,.4741-.5601,.6123c-.2397,.1387-.52,.2075-.8398,.2075-.3467,0-.6235-.063-.8301-.1899l.145-.29c.1665,.1104,.3931,.165,.6802,.165,.3862,0,.6899-.1226,.9097-.3672,.2202-.2451,.3301-.6011,.3301-1.0679,0-.0864-.0049-.1816-.0151-.2847-.0864,.1899-.2246,.3374-.4146,.4424-.1904,.105-.4087,.1577-.6553,.1577-.23,0-.4341-.0435-.6123-.1304-.1787-.0864-.3179-.209-.4175-.3672-.1001-.1582-.1504-.3428-.1504-.5527,0-.2134,.0518-.4014,.1553-.5649,.103-.1631,.2456-.2891,.4272-.3774s.3857-.1323,.6128-.1323c.4634,0,.8184,.1523,1.0649,.4575Zm-.5576,1.2622c.1353-.0664,.2407-.1582,.3174-.2749s.1152-.2466,.1152-.3901c0-.1333-.0361-.2563-.1074-.3701-.0718-.1133-.1777-.2046-.3174-.2749-.1401-.0698-.3071-.105-.5-.105-.2534,0-.4595,.0693-.6177,.2075-.1582,.1387-.2378,.3228-.2378,.5527s.0796,.4131,.2378,.5498,.3726,.2051,.6426,.2051c.1763,0,.3325-.0332,.4673-.1001Z"/></g><g><path d="M220.7021,188.5659v.3198h-2.4551v-.2549l1.4551-1.4253c.1836-.1797,.3076-.3354,.3726-.4673s.0977-.2642,.0977-.3975c0-.2065-.0708-.3677-.2124-.4824-.1421-.1152-.3442-.1729-.6079-.1729-.4097,0-.728,.1304-.9546,.3901l-.2554-.2197c.1367-.1602,.311-.2837,.5225-.3701,.2119-.0869,.4512-.1299,.7178-.1299,.3564,0,.6392,.084,.8477,.2524,.208,.168,.3125,.3989,.3125,.6924,0,.1802-.04,.3535-.1201,.52s-.2319,.3584-.4551,.5747l-1.1899,1.1704h1.9248Z"/><path d="M221.7797,188.7007c-.2119-.1431-.377-.3491-.4951-.6177-.1182-.2681-.1777-.584-.1777-.9473s.0596-.6792,.1777-.9473c.1182-.2686,.2832-.4746,.4951-.6177,.2114-.1436,.4521-.2148,.7222-.2148s.5112,.0713,.7227,.2148c.2119,.1431,.3774,.3491,.4976,.6177,.1201,.2681,.1802,.584,.1802,.9473s-.0601,.6792-.1802,.9473c-.1201,.2686-.2856,.4746-.4976,.6177-.2114,.1436-.4526,.2148-.7227,.2148s-.5107-.0713-.7222-.2148Zm1.2598-.2852c.1553-.1133,.2759-.2778,.3628-.4946,.0864-.2168,.1299-.4785,.1299-.7852s-.0435-.5684-.1299-.7852c-.0869-.2163-.2075-.3813-.3628-.4946-.1548-.1133-.334-.1704-.5376-.1704-.2031,0-.3823,.0571-.5371,.1704-.1553,.1133-.2759,.2783-.3628,.4946-.0864,.2168-.1299,.4785-.1299,.7852s.0435,.5684,.1299,.7852c.0869,.2168,.2075,.3813,.3628,.4946,.1548,.1138,.334,.1704,.5371,.1704,.2036,0,.3828-.0566,.5376-.1704Z"/><path d="M226.7621,188.5659v.3198h-2.4551v-.2549l1.4551-1.4253c.1836-.1797,.3076-.3354,.3726-.4673s.0977-.2642,.0977-.3975c0-.2065-.0708-.3677-.2124-.4824-.1421-.1152-.3442-.1729-.6079-.1729-.4097,0-.728,.1304-.9546,.3901l-.2554-.2197c.1367-.1602,.311-.2837,.5225-.3701,.2119-.0869,.4512-.1299,.7178-.1299,.3564,0,.6392,.084,.8477,.2524,.208,.168,.3125,.3989,.3125,.6924,0,.1802-.04,.3535-.1201,.52s-.2319,.3584-.4551,.5747l-1.1899,1.1704h1.9248Z"/><path d="M227.8397,188.7007c-.2119-.1431-.377-.3491-.4951-.6177-.1182-.2681-.1777-.584-.1777-.9473s.0596-.6792,.1777-.9473c.1182-.2686,.2832-.4746,.4951-.6177,.2114-.1436,.4521-.2148,.7222-.2148s.5112,.0713,.7227,.2148c.2119,.1431,.3774,.3491,.4976,.6177,.1201,.2681,.1802,.584,.1802,.9473s-.0601,.6792-.1802,.9473c-.1201,.2686-.2856,.4746-.4976,.6177-.2114,.1436-.4526,.2148-.7227,.2148s-.5107-.0713-.7222-.2148Zm1.2598-.2852c.1553-.1133,.2759-.2778,.3628-.4946,.0864-.2168,.1299-.4785,.1299-.7852s-.0435-.5684-.1299-.7852c-.0869-.2163-.2075-.3813-.3628-.4946-.1548-.1133-.334-.1704-.5376-.1704-.2031,0-.3823,.0571-.5371,.1704-.1553,.1133-.2759,.2783-.3628,.4946-.0864,.2168-.1299,.4785-.1299,.7852s.0435,.5684,.1299,.7852c.0869,.2168,.2075,.3813,.3628,.4946,.1548,.1138,.334,.1704,.5371,.1704,.2036,0,.3828-.0566,.5376-.1704Z"/></g><g><path d="M248.4276,188.5659v.3198h-2.4551v-.2549l1.4551-1.4253c.1836-.1797,.3076-.3354,.3726-.4673s.0977-.2642,.0977-.3975c0-.2065-.0708-.3677-.2124-.4824-.1421-.1152-.3442-.1729-.6079-.1729-.4097,0-.728,.1304-.9546,.3901l-.2554-.2197c.1367-.1602,.311-.2837,.5225-.3701,.2119-.0869,.4512-.1299,.7178-.1299,.3564,0,.6392,.084,.8477,.2524,.208,.168,.3125,.3989,.3125,.6924,0,.1802-.04,.3535-.1201,.52s-.2319,.3584-.4551,.5747l-1.1899,1.1704h1.9248Z"/><path d="M249.5004,188.7007c-.2119-.1431-.377-.3491-.4951-.6177-.1182-.2681-.1777-.584-.1777-.9473s.0596-.6792,.1777-.9473c.1182-.2686,.2832-.4746,.4951-.6177,.2114-.1436,.4521-.2148,.7222-.2148s.5112,.0713,.7227,.2148c.2119,.1431,.3774,.3491,.4976,.6177,.1201,.2681,.1802,.584,.1802,.9473s-.0601,.6792-.1802,.9473c-.1201,.2686-.2856,.4746-.4976,.6177-.2114,.1436-.4526,.2148-.7227,.2148s-.5107-.0713-.7222-.2148Zm1.2598-.2852c.1553-.1133,.2759-.2778,.3628-.4946,.0864-.2168,.1299-.4785,.1299-.7852s-.0435-.5684-.1299-.7852c-.0869-.2163-.2075-.3813-.3628-.4946-.1548-.1133-.334-.1704-.5376-.1704-.2031,0-.3823,.0571-.5371,.1704-.1553,.1133-.2759,.2783-.3628,.4946-.0864,.2168-.1299,.4785-.1299,.7852s.0435,.5684,.1299,.7852c.0869,.2168,.2075,.3813,.3628,.4946,.1548,.1138,.334,.1704,.5371,.1704,.2036,0,.3828-.0566,.5376-.1704Z"/><path d="M254.4774,188.5659v.3198h-2.4551v-.2549l1.4551-1.4253c.1836-.1797,.3076-.3354,.3726-.4673s.0977-.2642,.0977-.3975c0-.2065-.0708-.3677-.2124-.4824-.1421-.1152-.3442-.1729-.6079-.1729-.4097,0-.728,.1304-.9546,.3901l-.2554-.2197c.1367-.1602,.311-.2837,.5225-.3701,.2119-.0869,.4512-.1299,.7178-.1299,.3564,0,.6392,.084,.8477,.2524,.208,.168,.3125,.3989,.3125,.6924,0,.1802-.04,.3535-.1201,.52s-.2319,.3584-.4551,.5747l-1.1899,1.1704h1.9248Z"/><path d="M255.8476,185.3857v3.5h-.3599v-3.1802h-.8252v-.3198h1.1851Z"/></g></svg>