<?xml version="1.0" encoding="UTF-8"?><svg id="Layer_1" xmlns="http://www.w3.org/2000/svg" viewBox="0 0 339.9832 205.3148"><defs><style>.cls-1{fill:#222;}.cls-2{stroke-dasharray:0 0 0 2.0077;}.cls-2,.cls-3,.cls-4{stroke-linecap:round;}.cls-2,.cls-3,.cls-4,.cls-5{fill:none;}.cls-2,.cls-4{stroke:#858585;stroke-linejoin:round;}.cls-2,.cls-4,.cls-5{stroke-width:.5px;}.cls-3{stroke:#000;stroke-linejoin:bevel;stroke-width:.3px;}.cls-6{opacity:.5;}.cls-5{stroke:#e30510;stroke-miterlimit:10;}</style></defs><g class="cls-6"><g><line class="cls-4" x1="12.3824" y1="182.4045" x2="12.3824" y2="182.4045"/><line class="cls-2" x1="12.3824" y1="180.3968" x2="12.3824" y2="18.7733"/><line class="cls-4" x1="12.3824" y1="17.7694" x2="12.3824" y2="17.7694"/></g><g><line class="cls-4" x1="34.3275" y1="182.4045" x2="34.3275" y2="182.4045"/><line class="cls-2" x1="34.3275" y1="180.3968" x2="34.3275" y2="18.7733"/><line class="cls-4" x1="34.3275" y1="17.7694" x2="34.3275" y2="17.7694"/></g><g><line class="cls-4" x1="56.2728" y1="182.4045" x2="56.2728" y2="182.4045"/><line class="cls-2" x1="56.2728" y1="180.3968" x2="56.2728" y2="18.7733"/><line class="cls-4" x1="56.2728" y1="17.7694" x2="56.2728" y2="17.7694"/></g><g><line class="cls-4" x1="78.218" y1="182.4045" x2="78.218" y2="182.4045"/><line class="cls-2" x1="78.218" y1="180.3968" x2="78.218" y2="18.7733"/><line class="cls-4" x1="78.218" y1="17.7694" x2="78.218" y2="17.7694"/></g><g><line class="cls-4" x1="100.1632" y1="182.4045" x2="100.1632" y2="182.4045"/><line class="cls-2" x1="100.1632" y1="180.3968" x2="100.1632" y2="18.7733"/><line class="cls-4" x1="100.1632" y1="17.7694" x2="100.1632" y2="17.7694"/></g><g><line class="cls-4" x1="122.1085" y1="182.4045" x2="122.1085" y2="182.4045"/><line class="cls-2" x1="122.1085" y1="180.3968" x2="122.1085" y2="18.7733"/><line class="cls-4" x1="122.1085" y1="17.7694" x2="122.1085" y2="17.7694"/></g><g><line class="cls-4" x1="144.0537" y1="182.4045" x2="144.0537" y2="182.4045"/><line class="cls-2" x1="144.0537" y1="180.3968" x2="144.0537" y2="18.7733"/><line class="cls-4" x1="144.0537" y1="17.7694" x2="144.0537" y2="17.7694"/></g><g><line class="cls-4" x1="165.9989" y1="182.4045" x2="165.9989" y2="182.4045"/><line class="cls-2" x1="165.9989" y1="180.3968" x2="165.9989" y2="18.7733"/><line class="cls-4" x1="165.9989" y1="17.7694" x2="165.9989" y2="17.7694"/></g></g><g class="cls-6"><g><line class="cls-4" x1="187.9441" y1="182.4045" x2="187.9441" y2="182.4045"/><line class="cls-2" x1="187.9441" y1="180.3968" x2="187.9441" y2="18.7733"/><line class="cls-4" x1="187.9441" y1="17.7694" x2="187.9441" y2="17.7694"/></g><g><line class="cls-4" x1="209.8894" y1="182.4045" x2="209.8894" y2="182.4045"/><line class="cls-2" x1="209.8894" y1="180.3968" x2="209.8894" y2="18.7733"/><line class="cls-4" x1="209.8894" y1="17.7694" x2="209.8894" y2="17.7694"/></g><g><line class="cls-4" x1="231.8346" y1="182.4045" x2="231.8346" y2="182.4045"/><line class="cls-2" x1="231.8346" y1="180.3968" x2="231.8346" y2="18.7733"/><line class="cls-4" x1="231.8346" y1="17.7694" x2="231.8346" y2="17.7694"/></g><g><line class="cls-4" x1="253.7798" y1="182.4045" x2="253.7798" y2="182.4045"/><line class="cls-2" x1="253.7798" y1="180.3968" x2="253.7798" y2="18.7733"/><line class="cls-4" x1="253.7798" y1="17.7694" x2="253.7798" y2="17.7694"/></g><g><line class="cls-4" x1="275.725" y1="182.4045" x2="275.725" y2="182.4045"/><line class="cls-2" x1="275.725" y1="180.3968" x2="275.725" y2="18.7733"/><line class="cls-4" x1="275.725" y1="17.7694" x2="275.725" y2="17.7694"/></g></g><g><path class="cls-1" d="M3.5909,2.1505v3.5h-.6396V2.7003H1.1359v2.9502H.4962V2.1505H3.5909Z"/><path class="cls-1" d="M5.2511,5.4678c-.2861-.1553-.5117-.3701-.6748-.6455-.1631-.2744-.2451-.582-.2451-.9219s.082-.6475,.2451-.9229c.1631-.2744,.3887-.4902,.6748-.6445,.2871-.1553,.6084-.2324,.9648-.2324,.3574,0,.6787,.0771,.9658,.2324,.2861,.1543,.5107,.3691,.6748,.6426,.1631,.2725,.2451,.5811,.2451,.9248,0,.3428-.082,.6514-.2451,.9248-.1641,.2734-.3887,.4873-.6748,.6426-.2871,.1553-.6084,.2324-.9658,.2324-.3564,0-.6777-.0771-.9648-.2324Zm1.5957-.4951c.1865-.1055,.333-.252,.4395-.4404,.1064-.1875,.1602-.3984,.1602-.6318s-.0537-.4443-.1602-.6328-.2529-.335-.4395-.4395c-.1875-.1055-.3975-.1582-.6309-.1582s-.4434,.0527-.6299,.1582c-.1865,.1045-.333,.251-.4395,.4395-.1074,.1885-.1602,.3994-.1602,.6328s.0527,.4443,.1602,.6318c.1064,.1885,.2529,.335,.4395,.4404s.3965,.1572,.6299,.1572,.4434-.0518,.6309-.1572Z"/><path class="cls-1" d="M11.381,2.7003h-1.1592v2.9502h-.6455V2.7003h-1.1553v-.5498h2.96v.5498Z"/><path class="cls-1" d="M14.1935,2.2999c.2246,.1006,.3975,.2441,.5176,.4307s.1797,.4082,.1797,.665c0,.2529-.0596,.4736-.1797,.6621s-.293,.333-.5176,.4326-.4893,.1504-.792,.1504h-.79v1.0098h-.6504V2.1505h1.4404c.3027,0,.5674,.0498,.792,.1494Zm-.1777,1.6104c.1465-.1201,.2207-.292,.2207-.5146,0-.2236-.0742-.3955-.2207-.5156s-.3613-.1797-.6445-.1797h-.7598v1.3896h.7598c.2832,0,.498-.0596,.6445-.1797Z"/><path class="cls-1" d="M18.2013,5.1055v.5449h-2.625V2.1505h2.5547v.5449h-1.9043v.9102h1.6895v.5352h-1.6895v.9648h1.9746Z"/><path class="cls-1" d="M18.9513,2.1505h2.7246v.5352h-2.085v.8594h1.0352c.4199,0,.7393,.0879,.957,.2627,.2188,.1748,.3281,.4277,.3281,.7578,0,.3467-.1201,.6143-.3604,.8018-.2402,.1885-.582,.2832-1.0254,.2832h-1.5742V2.1505Zm1.54,3c.25,0,.4395-.0488,.5693-.1455s.1953-.2363,.1953-.4199c0-.3594-.2549-.54-.7646-.54h-.9004v1.1055h.9004Z"/><path class="cls-1" d="M22.6466,2.1505h.6396v2.4844l1.8799-2.4844h.6055v3.5h-.6406V3.17l-1.8799,2.4805h-.6045V2.1505Z"/><path class="cls-1" d="M29.3107,2.7003h-1.1592v2.9502h-.6455V2.7003h-1.1553v-.5498h2.96v.5498Z"/><path class="cls-1" d="M32.5157,5.1055v.5449h-2.625V2.1505h2.5547v.5449h-1.9043v.9102h1.6895v.5352h-1.6895v.9648h1.9746Z"/><path class="cls-1" d="M36.2511,2.1505v3.5h-.6406V2.7003h-1.3799l-.0293,.875c-.0176,.4902-.0576,.8877-.1201,1.1924-.0635,.3047-.165,.5371-.3057,.6953-.1396,.1582-.333,.2373-.5801,.2373-.0859,0-.2041-.0166-.3545-.0498l.0449-.5654c.043,.0137,.0938,.0205,.1504,.0205,.2031,0,.3467-.1211,.4316-.3633,.0859-.2412,.1377-.6221,.1582-1.1416l.0498-1.4502h2.5752Z"/><path class="cls-1" d="M39.838,3.6173c.2256,.1885,.3379,.4678,.3379,.8379,0,.3867-.123,.6826-.3701,.8877-.2461,.2051-.5928,.3076-1.04,.3076h-1.5049V2.1505h.6396v1.1846h.9707c.4199,0,.7422,.0947,.9668,.2822Zm-.5166,1.3584c.1357-.1172,.2041-.2871,.2041-.5107,0-.4229-.2627-.6348-.7891-.6348h-.8359v1.3203h.8359c.2529,0,.4482-.0586,.585-.1748Z"/><path class="cls-1" d="M41.5138,5.4678c-.2852-.1553-.5088-.3691-.6699-.6426-.1621-.2734-.2432-.582-.2432-.9248,0-.3438,.082-.6523,.2451-.9248,.1631-.2734,.3877-.4883,.6729-.6426,.2852-.1553,.6035-.2324,.957-.2324,.2871,0,.5488,.0498,.7852,.1494,.2363,.1006,.4365,.2451,.6006,.4355l-.4209,.3945c-.2529-.2734-.5645-.4102-.9346-.4102-.2402,0-.4551,.0527-.6445,.1582-.1904,.1045-.3389,.25-.4453,.4375-.1064,.1865-.1602,.3975-.1602,.6348,0,.2363,.0537,.4482,.1602,.6348s.2549,.332,.4453,.4375c.1895,.1055,.4043,.1572,.6445,.1572,.3701,0,.6816-.1377,.9346-.415l.4209,.4004c-.1641,.1895-.3643,.335-.6025,.4346-.2393,.1006-.501,.1504-.7881,.1504-.3535,0-.6719-.0771-.957-.2324Z"/><path class="cls-1" d="M45.7755,4.1749h-.6494v1.4756h-.6396V2.1505h.6396v1.4648h.6699l1.0049-1.4648h.6904l-1.1953,1.6943,1.2402,1.8057h-.7354l-1.0254-1.4756Z"/><path class="cls-1" d="M48.1212,2.1505h.6396v2.4844l1.8799-2.4844h.6055v3.5h-.6406V3.17l-1.8799,2.4805h-.6045V2.1505Z"/><path class="cls-1" d="M54.8712,5.1055v.5449h-2.625V2.1505h2.5547v.5449h-1.9053v.9102h1.6904v.5352h-1.6904v.9648h1.9756Z"/><path class="cls-1" d="M59.2482,2.2999c.2246,.1006,.3975,.2441,.5176,.4307s.1797,.4082,.1797,.665c0,.2529-.0596,.4736-.1797,.6621s-.293,.333-.5176,.4326-.4893,.1504-.792,.1504h-.79v1.0098h-.6504V2.1505h1.4404c.3027,0,.5674,.0498,.792,.1494Zm-.1777,1.6104c.1465-.1201,.2207-.292,.2207-.5146,0-.2236-.0742-.3955-.2207-.5156s-.3613-.1797-.6445-.1797h-.7598v1.3896h.7598c.2832,0,.498-.0596,.6445-.1797Z"/><path class="cls-1" d="M62.9503,4.8399h-1.75l-.3447,.8105h-.6699l1.5752-3.5h.6396l1.5801,3.5h-.6797l-.3506-.8105Zm-.2148-.5098l-.6602-1.5303-.6553,1.5303h1.3154Z"/><path class="cls-1" d="M65.1886,5.4678c-.2852-.1553-.5088-.3691-.6699-.6426-.1621-.2734-.2432-.582-.2432-.9248,0-.3438,.082-.6523,.2451-.9248,.1631-.2734,.3877-.4883,.6729-.6426,.2852-.1553,.6035-.2324,.957-.2324,.2871,0,.5488,.0498,.7852,.1494,.2363,.1006,.4365,.2451,.6006,.4355l-.4209,.3945c-.2529-.2734-.5645-.4102-.9346-.4102-.2402,0-.4551,.0527-.6445,.1582-.1904,.1045-.3389,.25-.4453,.4375-.1064,.1865-.1602,.3975-.1602,.6348,0,.2363,.0537,.4482,.1602,.6348s.2549,.332,.4453,.4375c.1895,.1055,.4043,.1572,.6445,.1572,.3701,0,.6816-.1377,.9346-.415l.4209,.4004c-.1641,.1895-.3643,.335-.6025,.4346-.2393,.1006-.501,.1504-.7881,.1504-.3535,0-.6719-.0771-.957-.2324Z"/><path class="cls-1" d="M68.5655,2.1505l.8252,1.1699,.8252-1.1699h.7598l-1.1748,1.6797,1.2695,1.8203h-.7695l-.9102-1.2754-.9053,1.2754h-.75l1.2656-1.7949-1.1855-1.7051h.75Z"/><path class="cls-1" d="M72.296,5.4678c-.2871-.1553-.5117-.3701-.6748-.6455-.1641-.2744-.2451-.582-.2451-.9219s.0811-.6475,.2451-.9229c.1631-.2744,.3877-.4902,.6748-.6445,.2861-.1553,.6084-.2324,.9648-.2324s.6777,.0771,.9648,.2324c.2871,.1543,.5117,.3691,.6748,.6426,.1631,.2725,.2451,.5811,.2451,.9248,0,.3428-.082,.6514-.2451,.9248s-.3877,.4873-.6748,.6426-.6084,.2324-.9648,.2324-.6787-.0771-.9648-.2324Zm1.5947-.4951c.1865-.1055,.333-.252,.4404-.4404,.1064-.1875,.1592-.3984,.1592-.6318s-.0527-.4443-.1592-.6328c-.1074-.1885-.2539-.335-.4404-.4395-.1865-.1055-.3965-.1582-.6299-.1582s-.4434,.0527-.6299,.1582c-.1865,.1045-.334,.251-.4404,.4395s-.1602,.3994-.1602,.6328,.0537,.4443,.1602,.6318c.1064,.1885,.2539,.335,.4404,.4404s.3965,.1572,.6299,.1572,.4434-.0518,.6299-.1572Z"/><path class="cls-1" d="M79.3556,5.1007v1.2949h-.6006v-.7451h-2.6846v.7451h-.6055l.0059-1.2949h.1494c.2197-.0107,.374-.1729,.4629-.4883,.0879-.3145,.1426-.7656,.1621-1.3525l.04-1.1094h2.5654v2.9502h.5049Zm-2.6504-.6475c-.0566,.3008-.1465,.5166-.2695,.6475h1.7744V2.7003h-1.3701l-.0244,.6201c-.0166,.4531-.0537,.8311-.1104,1.1328Z"/><path class="cls-1" d="M82.5675,3.6173c.2256,.1885,.3379,.4678,.3379,.8379,0,.3867-.123,.6826-.3701,.8877-.2461,.2051-.5928,.3076-1.04,.3076h-1.5049V2.1505h.6396v1.1846h.9707c.4199,0,.7422,.0947,.9668,.2822Zm-.5166,1.3584c.1357-.1172,.2041-.2871,.2041-.5107,0-.4229-.2627-.6348-.7891-.6348h-.8359v1.3203h.8359c.2529,0,.4482-.0586,.585-.1748Zm1.3594-2.8252h.6406v3.5h-.6406V2.1505Z"/></g><g><path d="M10.0284,186.2559v2.6299h-.3252v-.8701h-.9248l-.6104,.8701h-.3848l.6553-.9199c-.2041-.0566-.3604-.1533-.4707-.29-.1094-.1367-.165-.3105-.165-.5205,0-.293,.1006-.5166,.3008-.6699,.1992-.1533,.4727-.2295,.8193-.2295h1.1055Zm-1.1201,1.4951h.7949v-1.1807h-.7695c-.5137,0-.7705,.1982-.7705,.5947,0,.3906,.248,.5859,.7451,.5859Z"/><path d="M10.9884,186.2559h.3545v1.165h1.6553v-1.165h.3555v2.6299h-.3555v-1.1602h-1.6553v1.1602h-.3545v-2.6299Z"/><path d="M16.5226,188.171c0,.2295-.085,.4062-.2549,.5293-.1699,.124-.4229,.1855-.7598,.1855h-1.1953v-2.6299h1.1602c.2998,0,.5352,.0576,.7051,.1748,.1699,.1162,.2549,.2832,.2549,.5,0,.1436-.0391,.2656-.1172,.3672s-.1875,.1777-.3271,.2275c.3564,.083,.5342,.2988,.5342,.6455Zm-1.8643-.7451h.79c.2031,0,.3584-.0381,.4668-.1152s.1631-.1885,.1631-.335-.0547-.2568-.1631-.3301-.2637-.1104-.4668-.1104h-.79v.8906Zm1.3447,1.0693c.1133-.0732,.1699-.1875,.1699-.3447,0-.1562-.0518-.2725-.1553-.3477s-.2666-.1123-.4893-.1123h-.8701v.915h.835c.2266,0,.3965-.0361,.5098-.1104Z"/></g><g><path d="M32.4464,188.5303c-.2705,.2334-.6523,.3604-1.1455,.3799v.9453h-.3447v-.9404c-.4902-.0195-.8691-.1475-1.1377-.3818-.2686-.2354-.4023-.5576-.4023-.9678,0-.4062,.1338-.7246,.4023-.9551,.2686-.2295,.6475-.3545,1.1377-.375v-1.0596h.3447v1.0596c.4932,.0234,.875,.1504,1.1455,.3799,.2695,.2305,.4053,.5469,.4053,.9502,0,.4102-.1357,.7314-.4053,.9648Zm-2.3779-.2295c.2021,.1768,.498,.2764,.8877,.2998v-2.0498c-.3867,.0195-.6816,.1172-.8848,.292s-.3047,.416-.3047,.7227c0,.3135,.1006,.5586,.3018,.7354Zm2.125,.0049c.2051-.1768,.3076-.4238,.3076-.7402,0-.3096-.1025-.5518-.3076-.7246-.2051-.1738-.502-.2705-.8926-.29v2.0498c.3906-.0205,.6875-.1182,.8926-.2949Z"/><path d="M35.8566,187.6807h-2.2002c.0195,.2734,.125,.4941,.3145,.6621,.1904,.1689,.4307,.2529,.7207,.2529,.1631,0,.3125-.0293,.4492-.0879,.1367-.0576,.2559-.1436,.3555-.2568l.2002,.2295c-.1172,.1396-.2627,.2471-.4375,.3203s-.3682,.1094-.5781,.1094c-.2695,0-.5088-.0576-.7168-.1719-.209-.1152-.3711-.2744-.4883-.4775-.1162-.2031-.1748-.4336-.1748-.6904s.0557-.4863,.168-.6895c.1113-.2041,.2646-.3623,.46-.4756,.1943-.1133,.4141-.1699,.6572-.1699s.4619,.0566,.6553,.1699,.3447,.2715,.4551,.4727c.1094,.2021,.165,.4326,.165,.6924l-.0049,.1104Zm-1.9082-.8975c-.1719,.1611-.2686,.3721-.292,.6318h1.8652c-.0234-.2598-.1211-.4707-.293-.6318-.1719-.1621-.3857-.2432-.6426-.2432-.2529,0-.4658,.0811-.6377,.2432Z"/><path d="M38.8107,188.171c0,.2295-.085,.4062-.2549,.5293-.1699,.124-.4229,.1855-.7598,.1855h-1.1953v-2.6299h1.1602c.2998,0,.5352,.0576,.7051,.1748,.1699,.1162,.2549,.2832,.2549,.5,0,.1436-.0391,.2656-.1172,.3672s-.1875,.1777-.3271,.2275c.3564,.083,.5342,.2988,.5342,.6455Zm-1.8643-.7451h.79c.2031,0,.3584-.0381,.4668-.1152s.1631-.1885,.1631-.335-.0547-.2568-.1631-.3301-.2637-.1104-.4668-.1104h-.79v.8906Zm1.3447,1.0693c.1133-.0732,.1699-.1875,.1699-.3447,0-.1562-.0518-.2725-.1553-.3477s-.2666-.1123-.4893-.1123h-.8701v.915h.835c.2266,0,.3965-.0361,.5098-.1104Z"/></g><g><path d="M54.4777,186.2559v2.6299h-.3252v-2.0801l-1.0645,1.7598h-.1602l-1.0654-1.7646v2.085h-.3252v-2.6299h.3604l1.1152,1.8945,1.1348-1.8945h.3301Z"/><path d="M57.1378,186.4932c.1826,.1719,.2744,.4258,.2744,.7627v1.6299h-.3398v-.4102c-.0801,.1367-.1973,.2432-.3525,.3203-.1553,.0762-.3389,.1143-.5527,.1143-.293,0-.5264-.0693-.7002-.21-.1729-.1396-.2598-.3242-.2598-.5547,0-.2236,.0811-.4033,.2432-.54,.1611-.1367,.4189-.2051,.7725-.2051h.835v-.1602c0-.2266-.0635-.3984-.1904-.5176-.127-.1182-.3115-.1768-.5547-.1768-.167,0-.3271,.0273-.4805,.082s-.2852,.1309-.3945,.2275l-.1602-.2646c.1328-.1133,.293-.2012,.4795-.2627,.1875-.0615,.3838-.0928,.5908-.0928,.3428,0,.6064,.0859,.79,.2578Zm-.4004,2c.1436-.0918,.25-.2246,.3203-.3975v-.4307h-.8252c-.4502,0-.6748,.1572-.6748,.4707,0,.1533,.0576,.2744,.1748,.3623,.1162,.0879,.2803,.1328,.4902,.1328,.1992,0,.3711-.0459,.5146-.1377Z"/><path d="M60.337,186.4034c.2002,.1113,.3574,.2686,.4707,.4727,.1133,.2031,.1699,.4346,.1699,.6943,0,.2637-.0566,.4971-.1699,.7002s-.2695,.3613-.4678,.4727-.4229,.167-.6729,.167c-.2129,0-.4053-.0439-.5771-.1318-.1719-.0889-.3125-.2178-.4229-.3877v1.4648h-.3545v-3.5996h.3398v.5195c.1064-.1729,.2471-.3066,.4229-.3994,.1748-.0938,.3721-.1406,.5918-.1406,.2471,0,.4707,.0557,.6699,.168Zm-.1943,2.0645c.1494-.085,.2676-.2051,.3525-.3623,.085-.1562,.127-.335,.127-.5352s-.042-.377-.127-.5322-.2031-.2754-.3525-.3623c-.1504-.0869-.3174-.1299-.5-.1299-.1865,0-.3545,.043-.5029,.1299s-.2646,.207-.3496,.3623-.1279,.332-.1279,.5322,.043,.3789,.1279,.5352c.085,.1572,.2012,.2773,.3496,.3623s.3164,.1279,.5029,.1279c.1826,0,.3496-.043,.5-.1279Z"/></g><g><path d="M75.503,186.4932c.1836,.1719,.2754,.4258,.2754,.7627v1.6299h-.3408v-.4102c-.0791,.1367-.1973,.2432-.3516,.3203-.1553,.0762-.3398,.1143-.5527,.1143-.2939,0-.5273-.0693-.7002-.21-.1738-.1396-.2598-.3242-.2598-.5547,0-.2236,.0801-.4033,.2422-.54s.4189-.2051,.7725-.2051h.835v-.1602c0-.2266-.0635-.3984-.1895-.5176-.127-.1182-.3125-.1768-.5557-.1768-.166,0-.3262,.0273-.4795,.082s-.2852,.1309-.3955,.2275l-.1602-.2646c.1338-.1133,.2939-.2012,.4805-.2627s.3828-.0928,.5898-.0928c.3438,0,.6064,.0859,.79,.2578Zm-.4004,2c.1436-.0918,.25-.2246,.3203-.3975v-.4307h-.8252c-.4492,0-.6748,.1572-.6748,.4707,0,.1533,.0586,.2744,.1748,.3623,.1172,.0879,.2803,.1328,.4902,.1328,.2002,0,.3721-.0459,.5146-.1377Z"/><path d="M79.0382,186.2559v2.6299h-.3555v-2.3154h-1.6494v2.3154h-.3555v-2.6299h2.3604Z"/><path d="M82.0275,186.4034c.2002,.1113,.3574,.2686,.4707,.4727,.1133,.2031,.1699,.4346,.1699,.6943,0,.2637-.0566,.4971-.1699,.7002s-.2695,.3613-.4678,.4727-.4229,.167-.6729,.167c-.2129,0-.4053-.0439-.5771-.1318-.1719-.0889-.3125-.2178-.4229-.3877v1.4648h-.3545v-3.5996h.3398v.5195c.1064-.1729,.2471-.3066,.4229-.3994,.1748-.0938,.3721-.1406,.5918-.1406,.2471,0,.4707,.0557,.6699,.168Zm-.1943,2.0645c.1494-.085,.2676-.2051,.3525-.3623,.085-.1562,.127-.335,.127-.5352s-.042-.377-.127-.5322-.2031-.2754-.3525-.3623c-.1504-.0869-.3174-.1299-.5-.1299-.1865,0-.3545,.043-.5029,.1299s-.2646,.207-.3496,.3623-.1279,.332-.1279,.5322,.043,.3789,.1279,.5352c.085,.1572,.2012,.2773,.3496,.3623s.3164,.1279,.5029,.1279c.1826,0,.3496-.043,.5-.1279Z"/></g><g><path d="M98.4337,186.2559v2.6299h-.3242v-2.0801l-1.0654,1.7598h-.1602l-1.0645-1.7646v2.085h-.3252v-2.6299h.3604l1.1143,1.8945,1.1357-1.8945h.3291Z"/><path d="M101.0939,186.4932c.1836,.1719,.2754,.4258,.2754,.7627v1.6299h-.3408v-.4102c-.0791,.1367-.1973,.2432-.3516,.3203-.1553,.0762-.3398,.1143-.5527,.1143-.2939,0-.5273-.0693-.7002-.21-.1738-.1396-.2598-.3242-.2598-.5547,0-.2236,.0801-.4033,.2422-.54s.4189-.2051,.7725-.2051h.835v-.1602c0-.2266-.0635-.3984-.1895-.5176-.127-.1182-.3125-.1768-.5557-.1768-.166,0-.3262,.0273-.4795,.082s-.2852,.1309-.3955,.2275l-.1602-.2646c.1338-.1133,.2939-.2012,.4805-.2627s.3828-.0928,.5898-.0928c.3438,0,.6064,.0859,.79,.2578Zm-.4004,2c.1436-.0918,.25-.2246,.3203-.3975v-.4307h-.8252c-.4492,0-.6748,.1572-.6748,.4707,0,.1533,.0586,.2744,.1748,.3623,.1172,.0879,.2803,.1328,.4902,.1328,.2002,0,.3721-.0459,.5146-.1377Z"/><path d="M102.2687,186.2559h.3555v2.0898l1.7549-2.0898h.3154v2.6299h-.3555v-2.0898l-1.75,2.0898h-.3203v-2.6299Zm.6553-.5508c-.1328-.1133-.2012-.2725-.2051-.4795h.2549c.0039,.1299,.0498,.2344,.1406,.3125,.0898,.0781,.2061,.1172,.3496,.1172s.2607-.0391,.3525-.1172,.1387-.1826,.1426-.3125h.2549c-.0029,.207-.0723,.3662-.207,.4795-.1357,.1143-.3164,.1709-.543,.1709s-.4062-.0566-.54-.1709Z"/></g><g><path d="M117.0568,186.2559h.3555v2.0898l1.7549-2.0898h.3154v2.6299h-.3555v-2.0898l-1.75,2.0898h-.3203v-2.6299Z"/><path d="M123.38,186.4053c.1982,.1133,.3535,.2715,.4668,.4756,.1133,.2031,.1699,.4326,.1699,.6895s-.0566,.4873-.1699,.6904-.2686,.3623-.4668,.4775c-.1982,.1143-.4209,.1719-.668,.1719-.2334,0-.4453-.0508-.6348-.1523-.1904-.1016-.3447-.2422-.4629-.4219-.1182-.1807-.1875-.3867-.207-.6201h-.6006v1.1699h-.3545v-2.6299h.3545v1.1348h.6055c.0264-.2266,.0986-.4277,.2178-.6025,.1182-.1748,.2705-.3105,.457-.4072s.3955-.1455,.625-.1455c.2471,0,.4697,.0566,.668,.1699Zm-.1807,2.0654c.1455-.0869,.2598-.208,.3428-.3652,.083-.1562,.125-.335,.125-.5352s-.042-.3779-.125-.5352c-.083-.1562-.1973-.2773-.3428-.3623-.1445-.085-.3076-.127-.4873-.127s-.3428,.042-.4873,.127c-.1455,.085-.2598,.2061-.3428,.3623-.083,.1572-.125,.335-.125,.5352s.042,.3789,.125,.5352c.083,.1572,.1973,.2783,.3428,.3652,.1445,.0869,.3076,.1299,.4873,.1299s.3428-.043,.4873-.1299Z"/><path d="M124.7316,186.2559h.3555v1.165h1.6553v-1.165h.3545v2.6299h-.3545v-1.1602h-1.6553v1.1602h-.3555v-2.6299Z"/></g><g><path d="M139.1456,186.2559h.3545v2.0898l1.7559-2.0898h.3145v2.6299h-.3545v-2.0898l-1.75,2.0898h-.3203v-2.6299Z"/><path d="M145.4679,186.4053c.1982,.1133,.3545,.2715,.4678,.4756,.1133,.2031,.1699,.4326,.1699,.6895s-.0566,.4873-.1699,.6904-.2695,.3623-.4678,.4775c-.1982,.1143-.4209,.1719-.667,.1719-.2334,0-.4453-.0508-.6357-.1523-.1895-.1016-.3438-.2422-.4619-.4219-.1182-.1807-.1875-.3867-.208-.6201h-.5996v1.1699h-.3555v-2.6299h.3555v1.1348h.6045c.0273-.2266,.0996-.4277,.2178-.6025s.2705-.3105,.458-.4072c.1865-.0967,.3945-.1455,.625-.1455,.2461,0,.4688,.0566,.667,.1699Zm-.1797,2.0654c.1445-.0869,.2588-.208,.3428-.3652,.083-.1562,.125-.335,.125-.5352s-.042-.3779-.125-.5352c-.084-.1562-.1982-.2773-.3428-.3623-.1455-.085-.3076-.127-.4873-.127-.1807,0-.3428,.042-.4883,.127-.1445,.085-.2588,.2061-.3418,.3623-.084,.1572-.125,.335-.125,.5352s.041,.3789,.125,.5352c.083,.1572,.1973,.2783,.3418,.3652,.1455,.0869,.3076,.1299,.4883,.1299,.1797,0,.3418-.043,.4873-.1299Z"/><path d="M148.9698,186.2559v2.6299h-.3545v-2.3154h-1.2598l-.0352,.6504c-.0264,.5469-.0898,.9668-.1904,1.2598-.0996,.293-.2783,.4404-.5352,.4404-.0693,0-.1543-.0137-.2549-.04l.0254-.3057c.0596,.0137,.1016,.0205,.125,.0205,.1367,0,.2402-.0635,.3096-.1904,.0703-.126,.1172-.2832,.1406-.4697s.043-.4336,.0596-.7402l.0449-.9395h1.9248Z"/></g><g><path d="M164.1017,186.4932c.1836,.1719,.2754,.4258,.2754,.7627v1.6299h-.3408v-.4102c-.0791,.1367-.1973,.2432-.3516,.3203-.1553,.0762-.3398,.1143-.5527,.1143-.2939,0-.5273-.0693-.7002-.21-.1738-.1396-.2598-.3242-.2598-.5547,0-.2236,.0801-.4033,.2422-.54s.4189-.2051,.7725-.2051h.835v-.1602c0-.2266-.0635-.3984-.1895-.5176-.127-.1182-.3125-.1768-.5557-.1768-.166,0-.3262,.0273-.4795,.082s-.2852,.1309-.3955,.2275l-.1602-.2646c.1338-.1133,.2939-.2012,.4805-.2627s.3828-.0928,.5898-.0928c.3438,0,.6064,.0859,.79,.2578Zm-.4004,2c.1436-.0918,.25-.2246,.3203-.3975v-.4307h-.8252c-.4492,0-.6748,.1572-.6748,.4707,0,.1533,.0586,.2744,.1748,.3623,.1172,.0879,.2803,.1328,.4902,.1328,.2002,0,.3721-.0459,.5146-.1377Z"/><path d="M167.4864,188.171c0,.2295-.085,.4062-.2549,.5293-.1699,.124-.4229,.1855-.7598,.1855h-1.1953v-2.6299h1.1602c.2998,0,.5352,.0576,.7051,.1748,.1699,.1162,.2549,.2832,.2549,.5,0,.1436-.0391,.2656-.1172,.3672s-.1875,.1777-.3271,.2275c.3564,.083,.5342,.2988,.5342,.6455Zm-1.8643-.7451h.79c.2031,0,.3584-.0381,.4668-.1152s.1631-.1885,.1631-.335-.0547-.2568-.1631-.3301-.2637-.1104-.4668-.1104h-.79v.8906Zm1.3447,1.0693c.1133-.0732,.1699-.1875,.1699-.3447,0-.1562-.0518-.2725-.1553-.3477s-.2666-.1123-.4893-.1123h-.8701v.915h.835c.2266,0,.3965-.0361,.5098-.1104Z"/><path d="M170.132,186.5704h-1.5059v2.3154h-.3545v-2.6299h1.8604v.3145Z"/></g><g><path d="M184.3322,188.7403c-.2051-.1133-.3662-.2725-.4824-.4775-.1172-.2051-.1748-.4355-.1748-.6924s.0576-.4863,.1748-.6895c.1162-.2041,.2773-.3623,.4824-.4756s.4375-.1699,.6973-.1699c.2266,0,.4297,.0439,.6074,.1328,.1787,.0879,.3193,.2178,.4229,.3877l-.2646,.1797c-.0869-.1299-.1973-.2275-.3301-.293-.1338-.0645-.2783-.0967-.4355-.0967-.1895,0-.3604,.042-.5127,.127-.1514,.085-.2695,.2061-.3545,.3623-.085,.1572-.1279,.335-.1279,.5352,0,.2031,.043,.3828,.1279,.5381,.085,.1543,.2031,.2744,.3545,.3594,.1523,.085,.3232,.1279,.5127,.1279,.1572,0,.3018-.0322,.4355-.0947,.1328-.0635,.2432-.1602,.3301-.29l.2646,.1797c-.1035,.1699-.2451,.2988-.4248,.3877-.1807,.0879-.3818,.1318-.6055,.1318-.2598,0-.4922-.0566-.6973-.1699Z"/><path d="M189.0001,187.6807h-2.2002c.0195,.2734,.125,.4941,.3145,.6621,.1904,.1689,.4307,.2529,.7207,.2529,.1631,0,.3125-.0293,.4492-.0879,.1367-.0576,.2559-.1436,.3555-.2568l.2002,.2295c-.1172,.1396-.2627,.2471-.4375,.3203s-.3682,.1094-.5781,.1094c-.2695,0-.5088-.0576-.7168-.1719-.209-.1152-.3711-.2744-.4883-.4775-.1162-.2031-.1748-.4336-.1748-.6904s.0557-.4863,.168-.6895c.1113-.2041,.2646-.3623,.46-.4756,.1943-.1133,.4141-.1699,.6572-.1699s.4619,.0566,.6553,.1699,.3447,.2715,.4551,.4727c.1094,.2021,.165,.4326,.165,.6924l-.0049,.1104Zm-1.9082-.8975c-.1719,.1611-.2686,.3721-.292,.6318h1.8652c-.0234-.2598-.1211-.4707-.293-.6318-.1719-.1621-.3857-.2432-.6426-.2432-.2529,0-.4658,.0811-.6377,.2432Z"/><path d="M189.7443,186.2559h.3555v1.165h1.6553v-1.165h.3545v2.6299h-.3545v-1.1602h-1.6553v1.1602h-.3555v-2.6299Z"/></g><g><path d="M206.713,188.7383c-.2031-.1152-.3633-.2744-.4805-.4775-.1162-.2031-.1748-.4336-.1748-.6904s.0586-.4863,.1748-.6895c.1172-.2041,.2773-.3623,.4805-.4756s.4316-.1699,.6846-.1699c.2539,0,.4824,.0566,.6855,.1699s.3623,.2715,.4775,.4756c.1152,.2031,.1719,.4326,.1719,.6895s-.0566,.4873-.1719,.6904-.2744,.3623-.4775,.4775c-.2031,.1143-.4316,.1719-.6855,.1719-.2529,0-.4814-.0576-.6846-.1719Zm1.1875-.2705c.1484-.085,.2637-.2051,.3477-.3623,.083-.1562,.125-.335,.125-.5352s-.042-.3779-.125-.5352c-.084-.1562-.1992-.2773-.3477-.3623s-.3154-.127-.5029-.127c-.1865,0-.3535,.042-.502,.127s-.2656,.2061-.3506,.3623c-.085,.1572-.127,.335-.127,.5352s.042,.3789,.127,.5352c.085,.1572,.2021,.2773,.3506,.3623s.3154,.1279,.502,.1279c.1875,0,.3545-.043,.5029-.1279Z"/><path d="M210.3976,187.7159h-.5996v1.1699h-.3555v-2.6299h.3555v1.1543h.6045l.9258-1.1543h.3848l-1.0352,1.2744,1.1104,1.3555h-.4199l-.9707-1.1699Z"/><path d="M214.1476,186.5704h-.9951v2.3154h-.3545v-2.3154h-.9951v-.3145h2.3447v.3145Z"/></g><g><path d="M227.7384,186.2559h.3555v1.165h1.6553v-1.165h.3545v2.6299h-.3545v-1.1602h-1.6553v1.1602h-.3555v-2.6299Z"/><path d="M231.4689,188.7383c-.2031-.1152-.3633-.2744-.4805-.4775-.1162-.2031-.1738-.4336-.1738-.6904s.0576-.4863,.1738-.6895c.1172-.2041,.2773-.3623,.4805-.4756s.4316-.1699,.6855-.1699c.2529,0,.4814,.0566,.6846,.1699,.2041,.1133,.3623,.2715,.4775,.4756,.1152,.2031,.1719,.4326,.1719,.6895s-.0566,.4873-.1719,.6904-.2734,.3623-.4775,.4775c-.2031,.1143-.4316,.1719-.6846,.1719-.2539,0-.4824-.0576-.6855-.1719Zm1.1875-.2705c.1484-.085,.2637-.2051,.3477-.3623,.084-.1562,.125-.335,.125-.5352s-.041-.3779-.125-.5352c-.084-.1562-.1992-.2773-.3477-.3623s-.3154-.127-.502-.127c-.1875,0-.3545,.042-.5029,.127s-.2646,.2061-.3506,.3623c-.084,.1572-.127,.335-.127,.5352s.043,.3789,.127,.5352c.0859,.1572,.2021,.2773,.3506,.3623s.3154,.1279,.5029,.1279c.1865,0,.3535-.043,.502-.1279Z"/><path d="M236.2238,186.2559v2.6299h-.3252v-.8701h-.9248l-.6104,.8701h-.3848l.6553-.9199c-.2041-.0566-.3604-.1533-.4697-.29-.1104-.1367-.166-.3105-.166-.5205,0-.293,.1006-.5166,.3008-.6699,.1992-.1533,.4727-.2295,.8203-.2295h1.1045Zm-1.1201,1.4951h.7949v-1.1807h-.7695c-.5137,0-.7695,.1982-.7695,.5947,0,.3906,.248,.5859,.7441,.5859Z"/></g><g><path d="M252.4523,188.5753v.9453h-.335v-.6348h-2.3555v.6348h-.335v-.9453h.1504c.1768-.0098,.2969-.1396,.3604-.3896,.0625-.25,.1064-.5996,.1299-1.0498l.0352-.8799h1.9395v2.3193h.4102Zm-2.1553-.4971c-.0469,.2412-.1299,.4072-.25,.4971h1.6406v-2.0049h-1.2656l-.0303,.585c-.0166,.374-.0479,.6807-.0947,.9229Z"/><path d="M255.3976,187.6807h-2.2002c.0195,.2734,.125,.4941,.3145,.6621,.1904,.1689,.4307,.2529,.7207,.2529,.1631,0,.3125-.0293,.4492-.0879,.1367-.0576,.2559-.1436,.3555-.2568l.2002,.2295c-.1172,.1396-.2627,.2471-.4375,.3203s-.3682,.1094-.5781,.1094c-.2695,0-.5088-.0576-.7168-.1719-.209-.1152-.3711-.2744-.4883-.4775-.1162-.2031-.1748-.4336-.1748-.6904s.0557-.4863,.168-.6895c.1113-.2041,.2646-.3623,.46-.4756,.1943-.1133,.4141-.1699,.6572-.1699s.4619,.0566,.6553,.1699,.3447,.2715,.4551,.4727c.1094,.2021,.165,.4326,.165,.6924l-.0049,.1104Zm-1.9082-.8975c-.1719,.1611-.2686,.3721-.292,.6318h1.8652c-.0234-.2598-.1211-.4707-.293-.6318-.1719-.1621-.3857-.2432-.6426-.2432-.2529,0-.4658,.0811-.6377,.2432Z"/><path d="M257.0968,187.7159h-.5996v1.1699h-.3555v-2.6299h.3555v1.1543h.6045l.9258-1.1543h.3848l-1.0352,1.2744,1.1104,1.3555h-.4199l-.9707-1.1699Z"/></g><g><path d="M273.798,186.2559v2.6299h-.3252v-.8701h-.9248l-.6104,.8701h-.3848l.6553-.9199c-.2041-.0566-.3604-.1533-.4707-.29-.1094-.1367-.165-.3105-.165-.5205,0-.293,.1006-.5166,.3008-.6699,.1992-.1533,.4727-.2295,.8193-.2295h1.1055Zm-1.1201,1.4951h.7949v-1.1807h-.7695c-.5137,0-.7705,.1982-.7705,.5947,0,.3906,.248,.5859,.7451,.5859Z"/><path d="M274.7579,186.2559h.3545v1.165h1.6553v-1.165h.3555v2.6299h-.3555v-1.1602h-1.6553v1.1602h-.3545v-2.6299Z"/><path d="M280.2921,188.171c0,.2295-.085,.4062-.2549,.5293-.1699,.124-.4229,.1855-.7598,.1855h-1.1953v-2.6299h1.1602c.2998,0,.5352,.0576,.7051,.1748,.1699,.1162,.2549,.2832,.2549,.5,0,.1436-.0391,.2656-.1172,.3672s-.1875,.1777-.3271,.2275c.3564,.083,.5342,.2988,.5342,.6455Zm-1.8643-.7451h.79c.2031,0,.3584-.0381,.4668-.1152s.1631-.1885,.1631-.335-.0547-.2568-.1631-.3301-.2637-.1104-.4668-.1104h-.79v.8906Zm1.3447,1.0693c.1133-.0732,.1699-.1875,.1699-.3447,0-.1562-.0518-.2725-.1553-.3477s-.2666-.1123-.4893-.1123h-.8701v.915h.835c.2266,0,.3965-.0361,.5098-.1104Z"/></g><line class="cls-3" x1="2.6692" y1="128.9658" x2="275.725" y2="128.9658"/><path class="cls-5" d="M11.3353,129.0496c5.6704,2.4512,6.6178-.794,11.54-.9578,6.1693,.9566,4.6065-2.3202,8.9165-3.8697,4.1153-.7731,8.0758,2.2463,12.0576,1.0259,3.7272-1.7283,8.1224,1.3552,11.2724-2.2895,3.1472-2.8676,5.3837,3.4246,8.722,1.7167,3.4034-2.0808,8.3242,1.9931,8.6748-.0575,1.8226-14.9785,2.0086-30.1874,3.1245-45.2591,.4815-2.2141,.2229-15.6008,2.2364-14.6676,1.3855,1.0067,2.2821,2.6994,3.387,4.0753,3.2462,1.8725,7.4858,.0462,10.9353-.5887,2.7244,.8848,3.2916,14.7975,4.9734,18.2632,.9358,1.5845,3.2692-.4011,4.6503-.4306,2.4748-.7779,3.168,3.1234,4.2667,4.9853,1.3068,3.0484,3.1172,5.629,5.1194,8.0381,1.639,2.211,3.6756,.0743,5.4119-.7749,1.6924-.8237,1.9636-.5081,2.4157,1.2489,.7467,2.9017,1.302,5.8728,1.9544,8.8095,1.4753,5.0483,.2876,8.7647,5.8847,5.5129,1.1279-.4815,2.2309-.2665,3.2498,.4331,2.3997,2.2399,5.329,1.5886,8.1395,1.7623,2.4339,.2349,3.3279,12.4099,5.7298,10.5903,5.7573-13.2611,4.2706-16.224,18.3642-16.3598,3.873-.5355,3.4635-7.0836,5.4175-10.2041l.5604-.5793c2.7803-1.8126,7.5641,8.8805,10.7249,9.5826,5.1138,.8347,5.7988,1.815,7.9358-4.4003,.7616-1.3273,1.0433-3.8324,2.7351-3.7328,2.5456,.2418,5.2802-.2081,7.4409,1.7562,3.0017,2.5692,6.9503,2.6438,9.8312,5.4931,1.3545,1.2989,3.0478,1.5114,4.6191,.7539,5.1777-2.6628,10.9117,1.9768,16.0808-.5326,.8939-.2957,2.4418-1.3364,2.8789,.1926,1.7018,4.3276,1.9539,9.3139,3.8521,13.5475,1.8772,2.6423,3.9966-9.8755,4.9061-11.3493,4.6809-6.5449,13.952,1.2696,19.0899-4.6058,.751-.678,1.6341-1.1597,2.6108-.9834,7.739,.667,8.0726,13.304,14.68,.9397"/></svg>