<?xml version="1.0" encoding="UTF-8"?><svg id="Layer_1" xmlns="http://www.w3.org/2000/svg" viewBox="0 0 266.432 184.2543"><defs><style>.cls-1{fill:#c4c4c4;}.cls-2{fill:#e30510;}.cls-3{fill:none;stroke:#000;stroke-linecap:round;stroke-linejoin:bevel;stroke-width:.3px;}</style></defs><path class="cls-1" d="M19.0446,141.6059c0,4.6757-3.8035,8.4792-8.4792,8.4792s-8.4792-3.8035-8.4792-8.4792v-58.5841c0-4.6757,3.8035-8.4792,8.4792-8.4792s8.4792,3.8035,8.4792,8.4792v58.5841Z"/><path class="cls-1" d="M45.7589,141.6059c0,4.6757-3.8035,8.4792-8.4792,8.4792s-8.4792-3.8035-8.4792-8.4792v-62.06c0-4.6757,3.8035-8.4793,8.4792-8.4793s8.4792,3.8035,8.4792,8.4793v62.06Z"/><path class="cls-1" d="M72.2524,141.6059c0,4.6757-3.8035,8.4792-8.4792,8.4792s-8.4792-3.8035-8.4792-8.4792V77.5459c0-4.6757,3.8035-8.4793,8.4792-8.4793s8.4792,3.8035,8.4792,8.4793v64.06Z"/><path class="cls-1" d="M152.6164,141.6059c0,4.6757-3.8035,8.4792-8.4792,8.4792s-8.4792-3.8035-8.4792-8.4792V67.3143c0-4.6757,3.8035-8.4793,8.4792-8.4793s8.4792,3.8035,8.4792,8.4793v74.2916Z"/><path class="cls-1" d="M179.3308,141.6059c0,4.6757-3.8035,8.4792-8.4792,8.4792s-8.4792-3.8035-8.4792-8.4792V55.5482c0-4.6757,3.8035-8.4792,8.4792-8.4792s8.4792,3.8035,8.4792,8.4792v86.0576Z"/><path class="cls-1" d="M99.1877,141.6059c0,4.6757-3.8035,8.4792-8.4792,8.4792s-8.4792-3.8035-8.4792-8.4792V75.3062c0-4.6757,3.8035-8.4792,8.4792-8.4792s8.4792,3.8035,8.4792,8.4792v66.2996Z"/><path class="cls-1" d="M125.902,141.6059c0,4.6757-3.8035,8.4792-8.4792,8.4792s-8.4792-3.8035-8.4792-8.4792V74.1388c0-4.6757,3.8035-8.4792,8.4792-8.4792s8.4792,3.8035,8.4792,8.4792v67.4671Z"/><path class="cls-1" d="M206.0448,141.6064c0,4.6749-3.8035,8.4792-8.4792,8.4792s-8.4784-3.8043-8.4784-8.4792V46.0719c0-4.6749,3.8035-8.4784,8.4784-8.4784s8.4792,3.8035,8.4792,8.4784v95.5345Z"/><path class="cls-1" d="M232.7596,141.6059c0,4.6757-3.8035,8.4792-8.4792,8.4792s-8.4792-3.8035-8.4792-8.4792V41.5482c0-4.6757,3.8035-8.4792,8.4792-8.4792s8.4792,3.8035,8.4792,8.4792v100.0576Z"/><path class="cls-2" d="M259.8777,142.19c0,4.2609-3.9772,7.7152-8.883,7.7152s-8.883-3.4543-8.883-7.7152V36.4757c0-4.2616,3.9771-7.7152,8.883-7.7152s8.883,3.4536,8.883,7.7152v105.7143Z"/><line class="cls-3" x1="10.5654" y1="145.7455" x2="10.5654" y2="16.519"/><path d="M9.8387,16.5189c0-.4013,.3254-.7268,.7268-.7268s.7268,.3255,.7268,.7268-.3254,.7268-.7268,.7268-.7268-.3255-.7268-.7268"/><line class="cls-3" x1="117.4226" y1="145.7455" x2="117.4226" y2="16.519"/><path d="M116.6959,16.5189c0-.4013,.3254-.7268,.7268-.7268s.7268,.3255,.7268,.7268-.3255,.7268-.7268,.7268-.7268-.3255-.7268-.7268"/><line class="cls-3" x1="37.2794" y1="145.7455" x2="37.2794" y2="16.519"/><path d="M36.5527,16.5189c0-.4013,.3254-.7268,.7268-.7268s.7268,.3255,.7268,.7268-.3255,.7268-.7268,.7268-.7268-.3255-.7268-.7268"/><line class="cls-3" x1="144.137" y1="145.7455" x2="144.137" y2="16.519"/><path d="M143.4103,16.5189c0-.4013,.3254-.7268,.7268-.7268s.7268,.3255,.7268,.7268-.3255,.7268-.7268,.7268-.7268-.3255-.7268-.7268"/><line class="cls-3" x1="63.9938" y1="145.7455" x2="63.9938" y2="16.519"/><path d="M63.2671,16.5189c0-.4013,.3254-.7268,.7268-.7268s.7268,.3255,.7268,.7268-.3255,.7268-.7268,.7268-.7268-.3255-.7268-.7268"/><line class="cls-3" x1="170.8514" y1="145.7455" x2="170.8514" y2="16.519"/><path d="M170.1247,16.5189c0-.4013,.3254-.7268,.7268-.7268s.7268,.3255,.7268,.7268-.3255,.7268-.7268,.7268-.7268-.3255-.7268-.7268"/><line class="cls-3" x1="90.7082" y1="145.7455" x2="90.7082" y2="16.5188"/><path d="M89.9815,16.5189c0-.4013,.3254-.7268,.7268-.7268s.7268,.3255,.7268,.7268-.3255,.7268-.7268,.7268-.7268-.3255-.7268-.7268"/><line class="cls-3" x1="197.5658" y1="145.7455" x2="197.5658" y2="16.519"/><path d="M196.8391,16.5189c0-.4013,.3254-.7268,.7268-.7268s.7268,.3255,.7268,.7268-.3255,.7268-.7268,.7268-.7268-.3255-.7268-.7268"/><line class="cls-3" x1="224.2802" y1="145.7455" x2="224.2802" y2="16.5191"/><path d="M223.5535,16.5189c0-.4013,.3254-.7268,.7268-.7268s.7268,.3255,.7268,.7268-.3255,.7268-.7268,.7268-.7268-.3255-.7268-.7268"/><line class="cls-3" x1="250.9946" y1="145.7455" x2="250.9946" y2="16.519"/><path d="M250.2679,16.5189c0-.4013,.3254-.7268,.7268-.7268s.7268,.3255,.7268,.7268-.3255,.7268-.7268,.7268-.7268-.3255-.7268-.7268"/><g><path d="M8.173,10.4112h-.7002v.9199h-.3604v-.9199h-1.9746v-.2607l1.8555-2.3193h.3994l-1.79,2.2598h1.5205v-.8096h.3496v.8096h.7002v.3203Z"/><path d="M8.9679,10.8887c.0498,.0518,.0752,.1152,.0752,.1924,0,.04-.0059,.083-.0176,.1299s-.0293,.0996-.0527,.1602l-.21,.6895h-.2402l.1709-.7246c-.0537-.0166-.0967-.0479-.1309-.0928-.0332-.0449-.0498-.0986-.0498-.1621,0-.0771,.0254-.1406,.0752-.1924s.1133-.0781,.1904-.0781c.0762,0,.1396,.0264,.1895,.0781Z"/><path d="M11.6251,9.3663c.1787,.0859,.3174,.209,.418,.3672,.0996,.1582,.1494,.3428,.1494,.5527,0,.2129-.0518,.4014-.1553,.5645-.1025,.1641-.2451,.2891-.4268,.3779-.1816,.0879-.3857,.1318-.6133,.1318-.4629,0-.8184-.1523-1.0645-.457-.2471-.3047-.3701-.7354-.3701-1.293,0-.3896,.0664-.7197,.2002-.9893,.1328-.2705,.3193-.4746,.5596-.6123,.2402-.1387,.5205-.208,.8398-.208,.3467,0,.624,.0635,.8301,.1904l-.1445,.29c-.167-.1104-.3936-.165-.6797-.165-.3867,0-.6904,.1221-.9102,.3672-.2207,.2451-.3301,.6006-.3301,1.0674,0,.083,.0049,.1787,.0146,.2852,.0869-.1904,.2256-.3379,.415-.4424,.1904-.1055,.4082-.1582,.6553-.1582,.2295,0,.4336,.0439,.6123,.1309Zm-.0254,1.4824c.1582-.1387,.2383-.3232,.2383-.5527,0-.2305-.0801-.4131-.2383-.5498s-.3721-.2051-.6426-.2051c-.1758,0-.332,.0332-.4668,.0996-.1348,.0674-.2412,.1582-.3174,.2754-.0771,.1162-.1152,.2461-.1152,.3896,0,.1338,.0361,.2568,.1074,.3701s.1777,.2051,.3174,.2754c.1396,.0693,.3066,.1045,.5,.1045,.2529,0,.459-.0693,.6172-.207Z"/></g><g><path d="M34.7638,9.5382c.2314,.1816,.3467,.4365,.3467,.7627,0,.2031-.0469,.3848-.1416,.5449-.0957,.1602-.2383,.2861-.4277,.3779-.1904,.0918-.4238,.1367-.7002,.1367-.25,0-.4873-.04-.7129-.1221-.2246-.082-.4053-.1904-.542-.3271l.1748-.2852c.1172,.1201,.2705,.2178,.46,.292,.1904,.0752,.3955,.1133,.6152,.1133,.29,0,.5137-.0654,.6729-.1953,.1582-.1299,.2373-.3037,.2373-.5205,0-.2393-.0898-.4209-.2676-.5449-.1787-.123-.4795-.1846-.9023-.1846h-.7451l.1797-1.7549h1.915v.3193h-1.5996l-.1201,1.1152h.4502c.5059,0,.875,.0908,1.1074,.2725Z"/><path d="M36.0314,10.8887c.0498,.0518,.0742,.1152,.0742,.1924,0,.04-.0059,.083-.0166,.1299-.0117,.0469-.0293,.0996-.0527,.1602l-.21,.6895h-.2402l.1699-.7246c-.0537-.0166-.0967-.0479-.1299-.0928s-.0498-.0986-.0498-.1621c0-.0771,.0244-.1406,.0752-.1924,.0498-.0518,.1133-.0781,.1895-.0781,.0771,0,.1396,.0264,.1904,.0781Z"/><path d="M39.0157,11.0108v.3203h-2.4551v-.2549l1.4551-1.4258c.1836-.1797,.3076-.335,.373-.4668,.0645-.1318,.0977-.2646,.0977-.3975,0-.207-.0713-.3682-.2129-.4824-.1416-.1152-.3438-.1729-.6074-.1729-.4102,0-.7285,.1299-.9551,.3896l-.2549-.2197c.1367-.1602,.3105-.2832,.5225-.3701s.4512-.1299,.7178-.1299c.3564,0,.6387,.084,.8477,.2529,.208,.168,.3125,.3984,.3125,.6924,0,.1797-.04,.3535-.1201,.5195-.0801,.167-.2324,.3584-.4551,.5752l-1.1904,1.1699h1.9248Z"/></g><g><path d="M61.2384,9.5382c.2314,.1816,.3467,.4365,.3467,.7627,0,.2031-.0469,.3848-.1416,.5449-.0957,.1602-.2383,.2861-.4277,.3779-.1904,.0918-.4238,.1367-.7002,.1367-.25,0-.4873-.04-.7129-.1221-.2246-.082-.4053-.1904-.542-.3271l.1748-.2852c.1172,.1201,.2705,.2178,.46,.292,.1904,.0752,.3955,.1133,.6152,.1133,.29,0,.5137-.0654,.6729-.1953,.1582-.1299,.2373-.3037,.2373-.5205,0-.2393-.0898-.4209-.2676-.5449-.1787-.123-.4795-.1846-.9023-.1846h-.7451l.1797-1.7549h1.915v.3193h-1.5996l-.1201,1.1152h.4502c.5059,0,.875,.0908,1.1074,.2725Z"/><path d="M62.506,10.8887c.0498,.0518,.0742,.1152,.0742,.1924,0,.04-.0059,.083-.0166,.1299-.0117,.0469-.0293,.0996-.0527,.1602l-.21,.6895h-.2402l.1699-.7246c-.0537-.0166-.0967-.0479-.1299-.0928s-.0498-.0986-.0498-.1621c0-.0771,.0244-.1406,.0752-.1924,.0498-.0518,.1133-.0781,.1895-.0781,.0771,0,.1396,.0264,.1904,.0781Z"/><path d="M65.128,9.5382c.2314,.1816,.3477,.4365,.3477,.7627,0,.2031-.0479,.3848-.1426,.5449s-.2373,.2861-.4277,.3779c-.1895,.0918-.4229,.1367-.6992,.1367-.25,0-.4883-.04-.7129-.1221s-.4062-.1904-.543-.3271l.1758-.2852c.1162,.1201,.2695,.2178,.46,.292,.1895,.0752,.3945,.1133,.6143,.1133,.29,0,.5146-.0654,.6729-.1953s.2373-.3037,.2373-.5205c0-.2393-.0889-.4209-.2676-.5449-.1777-.123-.4785-.1846-.9023-.1846h-.7451l.1807-1.7549h1.915v.3193h-1.6006l-.1201,1.1152h.4502c.5068,0,.876,.0908,1.1074,.2725Z"/></g><g><path d="M86.4083,9.5382c.2314,.1816,.3477,.4365,.3477,.7627,0,.2031-.0479,.3848-.1426,.5449s-.2373,.2861-.4277,.3779c-.1895,.0918-.4229,.1367-.6992,.1367-.25,0-.4883-.04-.7129-.1221s-.4062-.1904-.543-.3271l.1758-.2852c.1162,.1201,.2695,.2178,.46,.292,.1895,.0752,.3945,.1133,.6143,.1133,.29,0,.5146-.0654,.6729-.1953s.2373-.3037,.2373-.5205c0-.2393-.0889-.4209-.2676-.5449-.1777-.123-.4785-.1846-.9023-.1846h-.7451l.1807-1.7549h1.915v.3193h-1.6006l-.1201,1.1152h.4502c.5068,0,.876,.0908,1.1074,.2725Z"/><path d="M87.6759,10.8887c.0498,.0518,.0752,.1152,.0752,.1924,0,.04-.0059,.083-.0176,.1299s-.0293,.0996-.0527,.1602l-.21,.6895h-.2402l.1709-.7246c-.0537-.0166-.0967-.0479-.1309-.0928-.0332-.0449-.0498-.0986-.0498-.1621,0-.0771,.0254-.1406,.0752-.1924s.1133-.0781,.1904-.0781c.0762,0,.1396,.0264,.1895,.0781Z"/><path d="M90.4259,8.2589c.2471,.3047,.3701,.7354,.3701,1.292,0,.3896-.0664,.7197-.2002,.9902-.1328,.2695-.3193,.4736-.5596,.6123s-.5205,.207-.8398,.207c-.3467,0-.624-.0625-.8301-.1895l.1445-.29c.167,.1104,.3936,.165,.6807,.165,.3857,0,.6895-.123,.9092-.3672,.2207-.2451,.3301-.6016,.3301-1.0684,0-.0859-.0049-.1816-.0146-.2842-.0869,.1895-.2246,.3369-.415,.4424-.1904,.1045-.4082,.1572-.6553,.1572-.2295,0-.4336-.043-.6123-.1299s-.3174-.209-.417-.3672c-.1006-.1582-.1504-.3428-.1504-.5527,0-.2139,.0518-.4014,.1553-.5654,.1025-.1631,.2451-.2891,.4268-.377,.1816-.0889,.3857-.1328,.6133-.1328,.4629,0,.8184,.1523,1.0645,.458Zm-.5576,1.2617c.1357-.0664,.2412-.1582,.3174-.2744,.0771-.1172,.1152-.2471,.1152-.3906,0-.1328-.0361-.2559-.1074-.3701-.0713-.1133-.1777-.2041-.3174-.2744s-.3066-.1055-.5-.1055c-.2529,0-.459,.0693-.6172,.208s-.2383,.3223-.2383,.5527c0,.2295,.0801,.4131,.2383,.5498s.3721,.2051,.6426,.2051c.1758,0,.332-.0332,.4668-.1006Z"/></g><g><path d="M114.4142,9.3663c.1787,.0859,.3174,.209,.418,.3672,.0996,.1582,.1494,.3428,.1494,.5527,0,.2129-.0518,.4014-.1553,.5645-.1025,.1641-.2451,.2891-.4268,.3779-.1816,.0879-.3857,.1318-.6133,.1318-.4629,0-.8184-.1523-1.0645-.457-.2471-.3047-.3701-.7354-.3701-1.293,0-.3896,.0664-.7197,.2002-.9893,.1328-.2705,.3193-.4746,.5596-.6123,.2402-.1387,.5205-.208,.8398-.208,.3467,0,.624,.0635,.8301,.1904l-.1445,.29c-.167-.1104-.3936-.165-.6797-.165-.3867,0-.6904,.1221-.9102,.3672-.2207,.2451-.3301,.6006-.3301,1.0674,0,.083,.0049,.1787,.0146,.2852,.0869-.1904,.2256-.3379,.415-.4424,.1904-.1055,.4082-.1582,.6553-.1582,.2295,0,.4336,.0439,.6123,.1309Zm-.0254,1.4824c.1582-.1387,.2383-.3232,.2383-.5527,0-.2305-.0801-.4131-.2383-.5498s-.3721-.2051-.6426-.2051c-.1758,0-.332,.0332-.4668,.0996-.1348,.0674-.2412,.1582-.3174,.2754-.0771,.1162-.1152,.2461-.1152,.3896,0,.1338,.0361,.2568,.1074,.3701s.1777,.2051,.3174,.2754c.1396,.0693,.3066,.1045,.5,.1045,.2529,0,.459-.0693,.6172-.207Z"/><path d="M115.8614,10.8887c.0498,.0518,.0752,.1152,.0752,.1924,0,.04-.0059,.083-.0176,.1299s-.0293,.0996-.0527,.1602l-.21,.6895h-.2402l.1709-.7246c-.0537-.0166-.0967-.0479-.1309-.0928-.0332-.0449-.0498-.0986-.0498-.1621,0-.0771,.0254-.1406,.0752-.1924s.1133-.0781,.1904-.0781c.0762,0,.1396,.0264,.1895,.0781Z"/><path d="M118.8468,11.0108v.3203h-2.4551v-.2549l1.4551-1.4258c.1836-.1797,.3076-.335,.3721-.4668,.0654-.1318,.0977-.2646,.0977-.3975,0-.207-.0703-.3682-.2119-.4824-.1426-.1152-.3447-.1729-.6084-.1729-.4092,0-.7275,.1299-.9541,.3896l-.2559-.2197c.1367-.1602,.3115-.2832,.5225-.3701,.2119-.0869,.4512-.1299,.7178-.1299,.3564,0,.6396,.084,.8477,.2529,.208,.168,.3125,.3984,.3125,.6924,0,.1797-.04,.3535-.1201,.5195-.0801,.167-.2314,.3584-.4551,.5752l-1.1895,1.1699h1.9248Z"/></g><g><path d="M142.2491,7.8311v.2549l-1.4648,3.2451h-.3896l1.4395-3.1807h-1.7998v.6553h-.3545v-.9746h2.5693Z"/><path d="M143.1896,10.8887c.0498,.0518,.0742,.1152,.0742,.1924,0,.04-.0059,.083-.0166,.1299-.0117,.0469-.0293,.0996-.0527,.1602l-.21,.6895h-.2402l.1699-.7246c-.0537-.0166-.0967-.0479-.1299-.0928s-.0498-.0986-.0498-.1621c0-.0771,.0244-.1406,.0752-.1924,.0498-.0518,.1133-.0781,.1895-.0781,.0771,0,.1396,.0264,.1904,.0781Z"/><path d="M145.8116,9.5382c.2314,.1816,.3477,.4365,.3477,.7627,0,.2031-.0479,.3848-.1426,.5449s-.2373,.2861-.4277,.3779c-.1895,.0918-.4229,.1367-.6992,.1367-.25,0-.4883-.04-.7129-.1221s-.4062-.1904-.543-.3271l.1758-.2852c.1162,.1201,.2695,.2178,.46,.292,.1895,.0752,.3945,.1133,.6143,.1133,.29,0,.5146-.0654,.6729-.1953s.2373-.3037,.2373-.5205c0-.2393-.0889-.4209-.2676-.5449-.1777-.123-.4785-.1846-.9023-.1846h-.7451l.1807-1.7549h1.915v.3193h-1.6006l-.1201,1.1152h.4502c.5068,0,.876,.0908,1.1074,.2725Z"/></g><g><path d="M168.0509,8.2589c.2461,.3047,.3701,.7354,.3701,1.292,0,.3896-.0674,.7197-.2002,.9902-.1338,.2695-.3203,.4736-.5605,.6123-.2393,.1387-.5195,.207-.8398,.207-.3467,0-.623-.0625-.8301-.1895l.1455-.29c.166,.1104,.3926,.165,.6797,.165,.3867,0,.6904-.123,.9102-.3672,.2197-.2451,.3301-.6016,.3301-1.0684,0-.0859-.0049-.1816-.0156-.2842-.0859,.1895-.2246,.3369-.4141,.4424-.1904,.1045-.4092,.1572-.6553,.1572-.2305,0-.4346-.043-.6123-.1299-.1787-.0869-.3184-.209-.418-.3672s-.1504-.3428-.1504-.5527c0-.2139,.0518-.4014,.1553-.5654,.1035-.1631,.2461-.2891,.4277-.377,.1816-.0889,.3857-.1328,.6123-.1328,.4639,0,.8184,.1523,1.0654,.458Zm-.5576,1.2617c.1348-.0664,.2402-.1582,.3174-.2744,.0762-.1172,.1152-.2471,.1152-.3906,0-.1328-.0361-.2559-.1074-.3701-.0723-.1133-.1777-.2041-.3174-.2744-.1406-.0703-.3076-.1055-.5-.1055-.2539,0-.46,.0693-.6182,.208s-.2373,.3223-.2373,.5527c0,.2295,.0791,.4131,.2373,.5498s.373,.2051,.6426,.2051c.1768,0,.333-.0332,.4678-.1006Z"/><path d="M169.4054,10.8887c.0498,.0518,.0752,.1152,.0752,.1924,0,.04-.0059,.083-.0176,.1299s-.0293,.0996-.0527,.1602l-.21,.6895h-.2402l.1709-.7246c-.0537-.0166-.0967-.0479-.1309-.0928-.0332-.0449-.0498-.0986-.0498-.1621,0-.0771,.0254-.1406,.0752-.1924s.1133-.0781,.1904-.0781c.0762,0,.1396,.0264,.1895,.0781Z"/><path d="M172.9757,10.4112h-.7002v.9199h-.3604v-.9199h-1.9746v-.2607l1.8555-2.3193h.3994l-1.79,2.2598h1.5205v-.8096h.3496v.8096h.7002v.3203Z"/></g><g><path d="M193.7833,7.8311v3.5h-.3594v-3.1807h-.8252v-.3193h1.1846Z"/><path d="M195.589,7.8311v3.5h-.3604v-3.1807h-.8252v-.3193h1.1855Z"/><path d="M196.8888,10.8887c.0498,.0518,.0742,.1152,.0742,.1924,0,.04-.0059,.083-.0166,.1299-.0117,.0469-.0293,.0996-.0527,.1602l-.21,.6895h-.2402l.1699-.7246c-.0537-.0166-.0967-.0479-.1299-.0928s-.0498-.0986-.0498-.1621c0-.0771,.0244-.1406,.0752-.1924,.0498-.0518,.1133-.0781,.1895-.0781,.0771,0,.1396,.0264,.1904,.0781Z"/><path d="M199.5109,9.628c.1914,.1787,.2881,.4111,.2881,.6982,0,.1992-.0488,.377-.1455,.5322s-.2402,.2773-.4297,.3672c-.1904,.0898-.4219,.1348-.6953,.1348-.2529,0-.4922-.04-.7178-.1221-.2246-.082-.4053-.1904-.542-.3271l.1748-.2852c.1162,.1201,.2715,.2178,.4648,.292,.1934,.0752,.4004,.1133,.6201,.1133,.2871,0,.5088-.0625,.665-.1875s.2354-.2979,.2354-.5176c0-.2168-.0791-.3867-.2354-.5107-.1562-.123-.3936-.1846-.71-.1846h-.25v-.2646l.9697-1.2158h-1.79v-.3193h2.25v.2549l-.9893,1.2451c.3662,.0195,.6455,.1191,.8369,.2969Z"/></g><g><path d="M219.6183,7.8311v3.5h-.3594v-3.1807h-.8252v-.3193h1.1846Z"/><path d="M222.8439,11.0108v.3203h-2.4551v-.2549l1.4551-1.4258c.1836-.1797,.3076-.335,.3721-.4668,.0654-.1318,.0977-.2646,.0977-.3975,0-.207-.0703-.3682-.2119-.4824-.1426-.1152-.3447-.1729-.6084-.1729-.4092,0-.7275,.1299-.9541,.3896l-.2559-.2197c.1367-.1602,.3115-.2832,.5225-.3701,.2119-.0869,.4512-.1299,.7178-.1299,.3564,0,.6396,.084,.8477,.2529,.208,.168,.3125,.3984,.3125,.6924,0,.1797-.04,.3535-.1201,.5195-.0801,.167-.2314,.3584-.4551,.5752l-1.1895,1.1699h1.9248Z"/><path d="M223.7589,10.8887c.0498,.0518,.0742,.1152,.0742,.1924,0,.04-.0059,.083-.0166,.1299-.0117,.0469-.0293,.0996-.0527,.1602l-.21,.6895h-.2402l.1699-.7246c-.0537-.0166-.0967-.0479-.1299-.0928s-.0498-.0986-.0498-.1621c0-.0771,.0244-.1406,.0752-.1924,.0498-.0518,.1133-.0781,.1895-.0781,.0771,0,.1396,.0264,.1904,.0781Z"/><path d="M225.3234,7.8311v3.5h-.3594v-3.1807h-.8252v-.3193h1.1846Z"/></g><g><path d="M247.3829,7.8311v3.5h-.3604v-3.1807h-.8252v-.3193h1.1855Z"/><path d="M250.6075,11.0108v.3203h-2.4551v-.2549l1.4551-1.4258c.1836-.1797,.3076-.335,.373-.4668,.0645-.1318,.0977-.2646,.0977-.3975,0-.207-.0713-.3682-.2129-.4824-.1416-.1152-.3438-.1729-.6074-.1729-.4102,0-.7285,.1299-.9551,.3896l-.2549-.2197c.1367-.1602,.3105-.2832,.5225-.3701s.4512-.1299,.7178-.1299c.3564,0,.6387,.084,.8477,.2529,.208,.168,.3125,.3984,.3125,.6924,0,.1797-.04,.3535-.1201,.5195-.0801,.167-.2324,.3584-.4551,.5752l-1.1904,1.1699h1.9248Z"/><path d="M251.5226,10.8887c.0498,.0518,.0752,.1152,.0752,.1924,0,.04-.0059,.083-.0176,.1299s-.0293,.0996-.0527,.1602l-.21,.6895h-.2402l.1709-.7246c-.0537-.0166-.0967-.0479-.1309-.0928-.0332-.0449-.0498-.0986-.0498-.1621,0-.0771,.0254-.1406,.0752-.1924s.1133-.0781,.1904-.0781c.0762,0,.1396,.0264,.1895,.0781Z"/><path d="M254.63,9.8262c.1182,.1465,.1777,.3232,.1777,.5293,0,.2041-.0547,.3809-.165,.5332-.1104,.1514-.2676,.2676-.4727,.3496s-.4453,.1221-.7227,.1221c-.4199,0-.75-.0898-.9893-.2695-.2402-.1797-.3604-.4248-.3604-.7354,0-.21,.0576-.3867,.1729-.5322,.1143-.1445,.2822-.2539,.502-.3271-.1797-.0703-.3164-.1709-.4102-.3027-.0928-.1318-.1396-.2871-.1396-.4678,0-.2832,.1104-.5078,.332-.6748s.5195-.25,.8926-.25c.2471,0,.4629,.0371,.6475,.1123,.1855,.0752,.3291,.1826,.4326,.3223,.1035,.1406,.1553,.3037,.1553,.4902,0,.1807-.0479,.3359-.1445,.4678s-.2354,.2324-.415,.3027c.2197,.0732,.3887,.1826,.5068,.3301Zm-.4551,1.04c.1758-.127,.2627-.2988,.2627-.5156s-.0869-.3877-.2627-.5127c-.1748-.125-.417-.1875-.7275-.1875-.3066,0-.5469,.0625-.7217,.1875-.1758,.125-.2627,.2959-.2627,.5127,0,.2207,.0859,.3926,.2598,.5176,.1729,.125,.415,.1875,.7246,.1875,.3105,0,.5527-.0635,.7275-.1895Zm-1.3623-1.6699c.1533,.1133,.3652,.1699,.6348,.1699,.2705,0,.4824-.0566,.6377-.1699s.2324-.2656,.2324-.4551c0-.1973-.0791-.3516-.2373-.4658-.1582-.1133-.3691-.1699-.6328-.1699-.2666,0-.4775,.0566-.6318,.1699-.1553,.1143-.2324,.2676-.2324,.46,0,.1934,.0762,.3477,.2295,.4609Z"/></g><line class="cls-3" x1="10.3809" y1="149.9052" x2="250.2682" y2="149.9052"/><g><path d="M6.338,167.505v.3203H3.8829v-.2549l1.4551-1.4258c.1836-.1797,.3076-.335,.373-.4668,.0645-.1318,.0977-.2646,.0977-.3975,0-.207-.0713-.3682-.2129-.4824-.1416-.1152-.3438-.1729-.6074-.1729-.4102,0-.7285,.1299-.9551,.3896l-.2549-.2197c.1367-.1602,.3105-.2832,.5225-.3701s.4512-.1299,.7178-.1299c.3564,0,.6387,.084,.8477,.2529,.208,.168,.3125,.3984,.3125,.6924,0,.1797-.04,.3535-.1201,.5195-.0801,.167-.2324,.3584-.4551,.5752l-1.1904,1.1699h1.9248Z"/><path d="M7.4113,167.6397c-.2119-.1426-.377-.3486-.4951-.6172s-.1777-.584-.1777-.9473,.0596-.6797,.1777-.9473c.1182-.2686,.2832-.4746,.4951-.6182,.2109-.1436,.4521-.2148,.7217-.2148,.2705,0,.5117,.0713,.7227,.2148,.2119,.1436,.3779,.3496,.498,.6182,.1201,.2676,.1797,.584,.1797,.9473s-.0596,.6787-.1797,.9473-.2861,.4746-.498,.6172c-.2109,.1436-.4521,.2148-.7227,.2148-.2695,0-.5107-.0713-.7217-.2148Zm1.2598-.2852c.1553-.1133,.2754-.2773,.3623-.4941s.1299-.4785,.1299-.7852-.043-.5684-.1299-.7852-.207-.3818-.3623-.4951-.334-.1699-.5381-.1699c-.2031,0-.3818,.0566-.5371,.1699s-.2754,.2783-.3623,.4951-.1299,.4785-.1299,.7852,.043,.5684,.1299,.7852,.207,.3809,.3623,.4941c.1553,.1143,.334,.1709,.5371,.1709,.2041,0,.3828-.0566,.5381-.1709Z"/><path d="M10.9679,164.3253v3.5h-.3594v-3.1807h-.8252v-.3193h1.1846Z"/><path d="M14.1427,167.505v.3203h-2.4551v-.2549l1.4551-1.4258c.1836-.1797,.3076-.335,.373-.4668,.0645-.1318,.0977-.2646,.0977-.3975,0-.207-.0713-.3682-.2129-.4824-.1416-.1152-.3438-.1729-.6074-.1729-.4102,0-.7285,.1299-.9551,.3896l-.2549-.2197c.1367-.1602,.3105-.2832,.5225-.3701s.4512-.1299,.7178-.1299c.3564,0,.6387,.084,.8477,.2529,.208,.168,.3125,.3984,.3125,.6924,0,.1797-.04,.3535-.1201,.5195-.0801,.167-.2324,.3584-.4551,.5752l-1.1904,1.1699h1.9248Z"/></g><g><path d="M33.1241,167.505v.3203h-2.4551v-.2549l1.4551-1.4258c.1836-.1797,.3076-.335,.3721-.4668,.0654-.1318,.0977-.2646,.0977-.3975,0-.207-.0703-.3682-.2119-.4824-.1426-.1152-.3447-.1729-.6084-.1729-.4092,0-.7275,.1299-.9541,.3896l-.2559-.2197c.1367-.1602,.3115-.2832,.5225-.3701,.2119-.0869,.4512-.1299,.7178-.1299,.3564,0,.6396,.084,.8477,.2529,.208,.168,.3125,.3984,.3125,.6924,0,.1797-.04,.3535-.1201,.5195-.0801,.167-.2314,.3584-.4551,.5752l-1.1895,1.1699h1.9248Z"/><path d="M34.2013,167.6397c-.2119-.1426-.377-.3486-.4951-.6172s-.1777-.584-.1777-.9473,.0596-.6797,.1777-.9473c.1182-.2686,.2832-.4746,.4951-.6182s.4521-.2148,.7227-.2148c.2695,0,.5107,.0713,.7227,.2148s.377,.3496,.4971,.6182c.1201,.2676,.1807,.584,.1807,.9473s-.0605,.6787-.1807,.9473-.2852,.4746-.4971,.6172c-.2119,.1436-.4531,.2148-.7227,.2148-.2705,0-.5107-.0713-.7227-.2148Zm1.2598-.2852c.1553-.1133,.2764-.2773,.3633-.4941,.0859-.2168,.1299-.4785,.1299-.7852s-.0439-.5684-.1299-.7852c-.0869-.2168-.208-.3818-.3633-.4951-.1543-.1133-.334-.1699-.5371-.1699s-.3828,.0566-.5371,.1699c-.1553,.1133-.2764,.2783-.3633,.4951-.0859,.2168-.1299,.4785-.1299,.7852s.0439,.5684,.1299,.7852c.0869,.2168,.208,.3809,.3633,.4941,.1543,.1143,.334,.1709,.5371,.1709s.3828-.0566,.5371-.1709Z"/><path d="M37.7638,164.3253v3.5h-.3594v-3.1807h-.8252v-.3193h1.1846Z"/><path d="M40.5812,166.1221c.1914,.1787,.2881,.4111,.2881,.6982,0,.1992-.0488,.377-.1455,.5322s-.2402,.2773-.4297,.3672c-.1904,.0898-.4219,.1348-.6953,.1348-.2529,0-.4922-.04-.7178-.1221-.2246-.082-.4053-.1904-.542-.3271l.1748-.2852c.1162,.1201,.2715,.2178,.4648,.292,.1934,.0752,.4004,.1133,.6201,.1133,.2871,0,.5088-.0625,.665-.1875s.2354-.2979,.2354-.5176c0-.2168-.0791-.3867-.2354-.5107-.1562-.123-.3936-.1846-.71-.1846h-.25v-.2646l.9697-1.2158h-1.79v-.3193h2.25v.2549l-.9893,1.2451c.3662,.0195,.6455,.1191,.8369,.2969Z"/></g><g><path d="M59.9386,167.505v.3203h-2.4551v-.2549l1.4551-1.4258c.1836-.1797,.3076-.335,.373-.4668,.0645-.1318,.0977-.2646,.0977-.3975,0-.207-.0713-.3682-.2129-.4824-.1416-.1152-.3438-.1729-.6074-.1729-.4102,0-.7285,.1299-.9551,.3896l-.2549-.2197c.1367-.1602,.3105-.2832,.5225-.3701s.4512-.1299,.7178-.1299c.3564,0,.6387,.084,.8477,.2529,.208,.168,.3125,.3984,.3125,.6924,0,.1797-.04,.3535-.1201,.5195-.0801,.167-.2324,.3584-.4551,.5752l-1.1904,1.1699h1.9248Z"/><path d="M61.0167,167.6397c-.2119-.1426-.377-.3486-.4951-.6172s-.1777-.584-.1777-.9473,.0596-.6797,.1777-.9473c.1182-.2686,.2832-.4746,.4951-.6182,.2109-.1436,.4521-.2148,.7217-.2148,.2705,0,.5117,.0713,.7227,.2148,.2119,.1436,.3779,.3496,.498,.6182,.1201,.2676,.1797,.584,.1797,.9473s-.0596,.6787-.1797,.9473-.2861,.4746-.498,.6172c-.2109,.1436-.4521,.2148-.7227,.2148-.2695,0-.5107-.0713-.7217-.2148Zm1.2598-.2852c.1553-.1133,.2754-.2773,.3623-.4941s.1299-.4785,.1299-.7852-.043-.5684-.1299-.7852-.207-.3818-.3623-.4951-.334-.1699-.5381-.1699c-.2031,0-.3818,.0566-.5371,.1699s-.2754,.2783-.3623,.4951-.1299,.4785-.1299,.7852,.043,.5684,.1299,.7852,.207,.3809,.3623,.4941c.1553,.1143,.334,.1709,.5371,.1709,.2041,0,.3828-.0566,.5381-.1709Z"/><path d="M64.5792,164.3253v3.5h-.3604v-3.1807h-.8252v-.3193h1.1855Z"/><path d="M68.3439,166.9053h-.7002v.9199h-.3604v-.9199h-1.9746v-.2607l1.8555-2.3193h.3994l-1.79,2.2598h1.5205v-.8096h.3496v.8096h.7002v.3203Z"/></g><g><path d="M86.9825,167.505v.3203h-2.4551v-.2549l1.4551-1.4258c.1836-.1797,.3076-.335,.373-.4668,.0645-.1318,.0977-.2646,.0977-.3975,0-.207-.0713-.3682-.2129-.4824-.1416-.1152-.3438-.1729-.6074-.1729-.4102,0-.7285,.1299-.9551,.3896l-.2549-.2197c.1367-.1602,.3105-.2832,.5225-.3701s.4512-.1299,.7178-.1299c.3564,0,.6387,.084,.8477,.2529,.208,.168,.3125,.3984,.3125,.6924,0,.1797-.04,.3535-.1201,.5195-.0801,.167-.2324,.3584-.4551,.5752l-1.1904,1.1699h1.9248Z"/><path d="M88.0607,167.6397c-.2119-.1426-.377-.3486-.4951-.6172s-.1777-.584-.1777-.9473,.0596-.6797,.1777-.9473c.1182-.2686,.2832-.4746,.4951-.6182,.2109-.1436,.4521-.2148,.7217-.2148,.2705,0,.5117,.0713,.7227,.2148,.2119,.1436,.3779,.3496,.498,.6182,.1201,.2676,.1797,.584,.1797,.9473s-.0596,.6787-.1797,.9473-.2861,.4746-.498,.6172c-.2109,.1436-.4521,.2148-.7227,.2148-.2695,0-.5107-.0713-.7217-.2148Zm1.2598-.2852c.1553-.1133,.2754-.2773,.3623-.4941s.1299-.4785,.1299-.7852-.043-.5684-.1299-.7852-.207-.3818-.3623-.4951-.334-.1699-.5381-.1699c-.2031,0-.3818,.0566-.5371,.1699s-.2754,.2783-.3623,.4951-.1299,.4785-.1299,.7852,.043,.5684,.1299,.7852,.207,.3809,.3623,.4941c.1553,.1143,.334,.1709,.5371,.1709,.2041,0,.3828-.0566,.5381-.1709Z"/><path d="M91.6232,164.3253v3.5h-.3604v-3.1807h-.8252v-.3193h1.1855Z"/><path d="M94.4405,166.0323c.2314,.1816,.3467,.4365,.3467,.7627,0,.2031-.0469,.3848-.1416,.5449-.0957,.1602-.2383,.2861-.4277,.3779-.1904,.0918-.4238,.1367-.7002,.1367-.25,0-.4873-.04-.7129-.1221-.2246-.082-.4053-.1904-.542-.3271l.1748-.2852c.1172,.1201,.2705,.2178,.46,.292,.1904,.0752,.3955,.1133,.6152,.1133,.29,0,.5137-.0654,.6729-.1953,.1582-.1299,.2373-.3037,.2373-.5205,0-.2393-.0898-.4209-.2676-.5449-.1787-.123-.4795-.1846-.9023-.1846h-.7451l.1797-1.7549h1.915v.3193h-1.5996l-.1201,1.1152h.4502c.5059,0,.875,.0908,1.1074,.2725Z"/></g><g><path d="M113.8068,167.505v.3203h-2.4551v-.2549l1.4551-1.4258c.1836-.1797,.3076-.335,.373-.4668,.0645-.1318,.0977-.2646,.0977-.3975,0-.207-.0713-.3682-.2129-.4824-.1416-.1152-.3438-.1729-.6074-.1729-.4102,0-.7285,.1299-.9551,.3896l-.2549-.2197c.1367-.1602,.3105-.2832,.5225-.3701s.4512-.1299,.7178-.1299c.3564,0,.6387,.084,.8477,.2529,.208,.168,.3125,.3984,.3125,.6924,0,.1797-.04,.3535-.1201,.5195-.0801,.167-.2324,.3584-.4551,.5752l-1.1904,1.1699h1.9248Z"/><path d="M114.8849,167.6397c-.2119-.1426-.377-.3486-.4951-.6172s-.1777-.584-.1777-.9473,.0596-.6797,.1777-.9473c.1182-.2686,.2832-.4746,.4951-.6182,.2109-.1436,.4521-.2148,.7217-.2148,.2705,0,.5117,.0713,.7227,.2148,.2119,.1436,.3779,.3496,.498,.6182,.1201,.2676,.1797,.584,.1797,.9473s-.0596,.6787-.1797,.9473-.2861,.4746-.498,.6172c-.2109,.1436-.4521,.2148-.7227,.2148-.2695,0-.5107-.0713-.7217-.2148Zm1.2598-.2852c.1553-.1133,.2754-.2773,.3623-.4941s.1299-.4785,.1299-.7852-.043-.5684-.1299-.7852-.207-.3818-.3623-.4951-.334-.1699-.5381-.1699c-.2031,0-.3818,.0566-.5371,.1699s-.2754,.2783-.3623,.4951-.1299,.4785-.1299,.7852,.043,.5684,.1299,.7852,.207,.3809,.3623,.4941c.1553,.1143,.334,.1709,.5371,.1709,.2041,0,.3828-.0566,.5381-.1709Z"/><path d="M118.4474,164.3253v3.5h-.3604v-3.1807h-.8252v-.3193h1.1855Z"/><path d="M121.2989,165.8604c.1787,.0859,.3184,.209,.418,.3672s.1504,.3428,.1504,.5527c0,.2129-.0518,.4014-.1553,.5645-.1035,.1641-.2461,.2891-.4277,.3779-.1816,.0879-.3857,.1318-.6123,.1318-.4639,0-.8184-.1523-1.0654-.457-.2461-.3047-.3701-.7354-.3701-1.293,0-.3896,.0674-.7197,.2002-.9893,.1338-.2705,.3203-.4746,.5605-.6123,.2393-.1387,.5195-.208,.8398-.208,.3467,0,.623,.0635,.8301,.1904l-.1455,.29c-.166-.1104-.3926-.165-.6797-.165-.3867,0-.6904,.1221-.9102,.3672s-.3301,.6006-.3301,1.0674c0,.083,.0049,.1787,.0156,.2852,.0859-.1904,.2246-.3379,.415-.4424,.1895-.1055,.4082-.1582,.6543-.1582,.2305,0,.4346,.0439,.6123,.1309Zm-.0244,1.4824c.1582-.1387,.2373-.3232,.2373-.5527,0-.2305-.0791-.4131-.2373-.5498s-.373-.2051-.6426-.2051c-.1768,0-.333,.0332-.4678,.0996-.1348,.0674-.2402,.1582-.3174,.2754-.0762,.1162-.1152,.2461-.1152,.3896,0,.1338,.0361,.2568,.1074,.3701,.0723,.1133,.1777,.2051,.3184,.2754,.1396,.0693,.3066,.1045,.5,.1045,.2529,0,.459-.0693,.6172-.207Z"/></g><g><path d="M141.046,167.505v.3203h-2.4551v-.2549l1.4551-1.4258c.1836-.1797,.3076-.335,.3721-.4668,.0654-.1318,.0977-.2646,.0977-.3975,0-.207-.0703-.3682-.2119-.4824-.1426-.1152-.3447-.1729-.6084-.1729-.4092,0-.7275,.1299-.9541,.3896l-.2559-.2197c.1367-.1602,.3115-.2832,.5225-.3701,.2119-.0869,.4512-.1299,.7178-.1299,.3564,0,.6396,.084,.8477,.2529,.208,.168,.3125,.3984,.3125,.6924,0,.1797-.04,.3535-.1201,.5195-.0801,.167-.2314,.3584-.4551,.5752l-1.1895,1.1699h1.9248Z"/><path d="M142.1232,167.6397c-.2119-.1426-.377-.3486-.4951-.6172s-.1777-.584-.1777-.9473,.0596-.6797,.1777-.9473c.1182-.2686,.2832-.4746,.4951-.6182s.4521-.2148,.7227-.2148c.2695,0,.5107,.0713,.7227,.2148s.377,.3496,.4971,.6182c.1201,.2676,.1807,.584,.1807,.9473s-.0605,.6787-.1807,.9473-.2852,.4746-.4971,.6172c-.2119,.1436-.4531,.2148-.7227,.2148-.2705,0-.5107-.0713-.7227-.2148Zm1.2598-.2852c.1553-.1133,.2764-.2773,.3633-.4941,.0859-.2168,.1299-.4785,.1299-.7852s-.0439-.5684-.1299-.7852c-.0869-.2168-.208-.3818-.3633-.4951-.1543-.1133-.334-.1699-.5371-.1699s-.3828,.0566-.5371,.1699c-.1553,.1133-.2764,.2783-.3633,.4951-.0859,.2168-.1299,.4785-.1299,.7852s.0439,.5684,.1299,.7852c.0869,.2168,.208,.3809,.3633,.4941,.1543,.1143,.334,.1709,.5371,.1709s.3828-.0566,.5371-.1709Z"/><path d="M145.6857,164.3253v3.5h-.3594v-3.1807h-.8252v-.3193h1.1846Z"/><path d="M148.9454,164.3253v.2549l-1.4648,3.2451h-.3896l1.4395-3.1807h-1.7998v.6553h-.3545v-.9746h2.5693Z"/></g><g><path d="M167.5724,167.505v.3203h-2.4551v-.2549l1.4551-1.4258c.1836-.1797,.3076-.335,.373-.4668,.0645-.1318,.0977-.2646,.0977-.3975,0-.207-.0713-.3682-.2129-.4824-.1416-.1152-.3438-.1729-.6074-.1729-.4102,0-.7285,.1299-.9551,.3896l-.2549-.2197c.1367-.1602,.3105-.2832,.5225-.3701s.4512-.1299,.7178-.1299c.3564,0,.6387,.084,.8477,.2529,.208,.168,.3125,.3984,.3125,.6924,0,.1797-.04,.3535-.1201,.5195-.0801,.167-.2324,.3584-.4551,.5752l-1.1904,1.1699h1.9248Z"/><path d="M168.6505,167.6397c-.2119-.1426-.377-.3486-.4951-.6172s-.1777-.584-.1777-.9473,.0596-.6797,.1777-.9473c.1182-.2686,.2832-.4746,.4951-.6182,.2109-.1436,.4521-.2148,.7217-.2148,.2705,0,.5117,.0713,.7227,.2148,.2119,.1436,.3779,.3496,.498,.6182,.1201,.2676,.1797,.584,.1797,.9473s-.0596,.6787-.1797,.9473-.2861,.4746-.498,.6172c-.2109,.1436-.4521,.2148-.7227,.2148-.2695,0-.5107-.0713-.7217-.2148Zm1.2598-.2852c.1553-.1133,.2754-.2773,.3623-.4941s.1299-.4785,.1299-.7852-.043-.5684-.1299-.7852-.207-.3818-.3623-.4951-.334-.1699-.5381-.1699c-.2031,0-.3818,.0566-.5371,.1699s-.2754,.2783-.3623,.4951-.1299,.4785-.1299,.7852,.043,.5684,.1299,.7852,.207,.3809,.3623,.4941c.1553,.1143,.334,.1709,.5371,.1709,.2041,0,.3828-.0566,.5381-.1709Z"/><path d="M172.213,164.3253v3.5h-.3604v-3.1807h-.8252v-.3193h1.1855Z"/><path d="M175.5148,166.3204c.1182,.1465,.1777,.3232,.1777,.5293,0,.2041-.0547,.3809-.165,.5332-.1104,.1514-.2676,.2676-.4727,.3496s-.4453,.1221-.7227,.1221c-.4199,0-.75-.0898-.9893-.2695-.2402-.1797-.3604-.4248-.3604-.7354,0-.21,.0576-.3867,.1729-.5322,.1143-.1445,.2822-.2539,.502-.3271-.1797-.0703-.3164-.1709-.4102-.3027-.0928-.1318-.1396-.2871-.1396-.4678,0-.2832,.1104-.5078,.332-.6748s.5195-.25,.8926-.25c.2471,0,.4629,.0371,.6475,.1123,.1855,.0752,.3291,.1826,.4326,.3223,.1035,.1406,.1553,.3037,.1553,.4902,0,.1807-.0479,.3359-.1445,.4678s-.2354,.2324-.415,.3027c.2197,.0732,.3887,.1826,.5068,.3301Zm-.4551,1.04c.1758-.127,.2627-.2988,.2627-.5156s-.0869-.3877-.2627-.5127c-.1748-.125-.417-.1875-.7275-.1875-.3066,0-.5469,.0625-.7217,.1875-.1758,.125-.2627,.2959-.2627,.5127,0,.2207,.0859,.3926,.2598,.5176,.1729,.125,.415,.1875,.7246,.1875,.3105,0,.5527-.0635,.7275-.1895Zm-1.3623-1.6699c.1533,.1133,.3652,.1699,.6348,.1699,.2705,0,.4824-.0566,.6377-.1699s.2324-.2656,.2324-.4551c0-.1973-.0791-.3516-.2373-.4658-.1582-.1133-.3691-.1699-.6328-.1699-.2666,0-.4775,.0566-.6318,.1699-.1553,.1143-.2324,.2676-.2324,.46,0,.1934,.0762,.3477,.2295,.4609Z"/></g><g><path d="M194.5011,167.505v.3203h-2.4551v-.2549l1.4551-1.4258c.1836-.1797,.3076-.335,.3721-.4668,.0654-.1318,.0977-.2646,.0977-.3975,0-.207-.0703-.3682-.2119-.4824-.1426-.1152-.3447-.1729-.6084-.1729-.4092,0-.7275,.1299-.9541,.3896l-.2559-.2197c.1367-.1602,.3115-.2832,.5225-.3701,.2119-.0869,.4512-.1299,.7178-.1299,.3564,0,.6396,.084,.8477,.2529,.208,.168,.3125,.3984,.3125,.6924,0,.1797-.04,.3535-.1201,.5195-.0801,.167-.2314,.3584-.4551,.5752l-1.1895,1.1699h1.9248Z"/><path d="M195.5782,167.6397c-.2119-.1426-.377-.3486-.4951-.6172s-.1777-.584-.1777-.9473,.0596-.6797,.1777-.9473c.1182-.2686,.2832-.4746,.4951-.6182s.4521-.2148,.7227-.2148c.2695,0,.5107,.0713,.7227,.2148s.377,.3496,.4971,.6182c.1201,.2676,.1807,.584,.1807,.9473s-.0605,.6787-.1807,.9473-.2852,.4746-.4971,.6172c-.2119,.1436-.4531,.2148-.7227,.2148-.2705,0-.5107-.0713-.7227-.2148Zm1.2598-.2852c.1553-.1133,.2764-.2773,.3633-.4941,.0859-.2168,.1299-.4785,.1299-.7852s-.0439-.5684-.1299-.7852c-.0869-.2168-.208-.3818-.3633-.4951-.1543-.1133-.334-.1699-.5371-.1699s-.3828,.0566-.5371,.1699c-.1553,.1133-.2764,.2783-.3633,.4951-.0859,.2168-.1299,.4785-.1299,.7852s.0439,.5684,.1299,.7852c.0869,.2168,.208,.3809,.3633,.4941,.1543,.1143,.334,.1709,.5371,.1709s.3828-.0566,.5371-.1709Z"/><path d="M199.1407,164.3253v3.5h-.3594v-3.1807h-.8252v-.3193h1.1846Z"/><path d="M202.0861,164.753c.2461,.3047,.3701,.7354,.3701,1.292,0,.3896-.0674,.7197-.2002,.9902-.1338,.2695-.3203,.4736-.5605,.6123-.2393,.1387-.5195,.207-.8398,.207-.3467,0-.623-.0625-.8301-.1895l.1455-.29c.166,.1104,.3926,.165,.6797,.165,.3867,0,.6904-.123,.9102-.3672,.2197-.2451,.3301-.6016,.3301-1.0684,0-.0859-.0049-.1816-.0156-.2842-.0859,.1895-.2246,.3369-.4141,.4424-.1904,.1045-.4092,.1572-.6553,.1572-.2305,0-.4346-.043-.6123-.1299-.1787-.0869-.3184-.209-.418-.3672s-.1504-.3428-.1504-.5527c0-.2139,.0518-.4014,.1553-.5654,.1035-.1631,.2461-.2891,.4277-.377,.1816-.0889,.3857-.1328,.6123-.1328,.4639,0,.8184,.1523,1.0654,.458Zm-.5576,1.2617c.1348-.0664,.2402-.1582,.3174-.2744,.0762-.1172,.1152-.2471,.1152-.3906,0-.1328-.0361-.2559-.1074-.3701-.0723-.1133-.1777-.2041-.3174-.2744-.1406-.0703-.3076-.1055-.5-.1055-.2539,0-.46,.0693-.6182,.208s-.2373,.3223-.2373,.5527c0,.2295,.0791,.4131,.2373,.5498s.373,.2051,.6426,.2051c.1768,0,.333-.0332,.4678-.1006Z"/></g><g><path d="M220.7023,167.505v.3203h-2.4551v-.2549l1.4551-1.4258c.1836-.1797,.3076-.335,.3721-.4668,.0654-.1318,.0977-.2646,.0977-.3975,0-.207-.0703-.3682-.2119-.4824-.1426-.1152-.3447-.1729-.6084-.1729-.4092,0-.7275,.1299-.9541,.3896l-.2559-.2197c.1367-.1602,.3115-.2832,.5225-.3701,.2119-.0869,.4512-.1299,.7178-.1299,.3564,0,.6396,.084,.8477,.2529,.208,.168,.3125,.3984,.3125,.6924,0,.1797-.04,.3535-.1201,.5195-.0801,.167-.2314,.3584-.4551,.5752l-1.1895,1.1699h1.9248Z"/><path d="M221.7794,167.6397c-.2119-.1426-.377-.3486-.4951-.6172s-.1777-.584-.1777-.9473,.0596-.6797,.1777-.9473c.1182-.2686,.2832-.4746,.4951-.6182s.4521-.2148,.7227-.2148c.2695,0,.5107,.0713,.7227,.2148s.377,.3496,.4971,.6182c.1201,.2676,.1807,.584,.1807,.9473s-.0605,.6787-.1807,.9473-.2852,.4746-.4971,.6172c-.2119,.1436-.4531,.2148-.7227,.2148-.2705,0-.5107-.0713-.7227-.2148Zm1.2598-.2852c.1553-.1133,.2764-.2773,.3633-.4941,.0859-.2168,.1299-.4785,.1299-.7852s-.0439-.5684-.1299-.7852c-.0869-.2168-.208-.3818-.3633-.4951-.1543-.1133-.334-.1699-.5371-.1699s-.3828,.0566-.5371,.1699c-.1553,.1133-.2764,.2783-.3633,.4951-.0859,.2168-.1299,.4785-.1299,.7852s.0439,.5684,.1299,.7852c.0869,.2168,.208,.3809,.3633,.4941,.1543,.1143,.334,.1709,.5371,.1709s.3828-.0566,.5371-.1709Z"/><path d="M226.7618,167.505v.3203h-2.4551v-.2549l1.4551-1.4258c.1836-.1797,.3076-.335,.373-.4668,.0645-.1318,.0977-.2646,.0977-.3975,0-.207-.0713-.3682-.2129-.4824-.1416-.1152-.3438-.1729-.6074-.1729-.4102,0-.7285,.1299-.9551,.3896l-.2549-.2197c.1367-.1602,.3105-.2832,.5225-.3701s.4512-.1299,.7178-.1299c.3564,0,.6387,.084,.8477,.2529,.208,.168,.3125,.3984,.3125,.6924,0,.1797-.04,.3535-.1201,.5195-.0801,.167-.2324,.3584-.4551,.5752l-1.1904,1.1699h1.9248Z"/><path d="M227.84,167.6397c-.2119-.1426-.377-.3486-.4951-.6172s-.1777-.584-.1777-.9473,.0596-.6797,.1777-.9473c.1182-.2686,.2832-.4746,.4951-.6182,.2109-.1436,.4521-.2148,.7217-.2148,.2705,0,.5117,.0713,.7227,.2148,.2119,.1436,.3779,.3496,.498,.6182,.1201,.2676,.1797,.584,.1797,.9473s-.0596,.6787-.1797,.9473-.2861,.4746-.498,.6172c-.2109,.1436-.4521,.2148-.7227,.2148-.2695,0-.5107-.0713-.7217-.2148Zm1.2598-.2852c.1553-.1133,.2754-.2773,.3623-.4941s.1299-.4785,.1299-.7852-.043-.5684-.1299-.7852-.207-.3818-.3623-.4951-.334-.1699-.5381-.1699c-.2031,0-.3818,.0566-.5371,.1699s-.2754,.2783-.3623,.4951-.1299,.4785-.1299,.7852,.043,.5684,.1299,.7852,.207,.3809,.3623,.4941c.1553,.1143,.334,.1709,.5371,.1709,.2041,0,.3828-.0566,.5381-.1709Z"/></g><g><path d="M248.4279,167.505v.3203h-2.4551v-.2549l1.4551-1.4258c.1836-.1797,.3076-.335,.3721-.4668,.0654-.1318,.0977-.2646,.0977-.3975,0-.207-.0703-.3682-.2119-.4824-.1426-.1152-.3447-.1729-.6084-.1729-.4092,0-.7275,.1299-.9541,.3896l-.2559-.2197c.1367-.1602,.3115-.2832,.5225-.3701,.2119-.0869,.4512-.1299,.7178-.1299,.3564,0,.6396,.084,.8477,.2529,.208,.168,.3125,.3984,.3125,.6924,0,.1797-.04,.3535-.1201,.5195-.0801,.167-.2314,.3584-.4551,.5752l-1.1895,1.1699h1.9248Z"/><path d="M249.5001,167.6397c-.2119-.1426-.377-.3486-.4951-.6172s-.1777-.584-.1777-.9473,.0596-.6797,.1777-.9473c.1182-.2686,.2832-.4746,.4951-.6182s.4521-.2148,.7227-.2148c.2695,0,.5107,.0713,.7227,.2148s.377,.3496,.4971,.6182c.1201,.2676,.1807,.584,.1807,.9473s-.0605,.6787-.1807,.9473-.2852,.4746-.4971,.6172c-.2119,.1436-.4531,.2148-.7227,.2148-.2705,0-.5107-.0713-.7227-.2148Zm1.2598-.2852c.1553-.1133,.2764-.2773,.3633-.4941,.0859-.2168,.1299-.4785,.1299-.7852s-.0439-.5684-.1299-.7852c-.0869-.2168-.208-.3818-.3633-.4951-.1543-.1133-.334-.1699-.5371-.1699s-.3828,.0566-.5371,.1699c-.1553,.1133-.2764,.2783-.3633,.4951-.0859,.2168-.1299,.4785-.1299,.7852s.0439,.5684,.1299,.7852c.0869,.2168,.208,.3809,.3633,.4941,.1543,.1143,.334,.1709,.5371,.1709s.3828-.0566,.5371-.1709Z"/><path d="M254.4777,167.505v.3203h-2.4551v-.2549l1.4551-1.4258c.1836-.1797,.3076-.335,.3721-.4668,.0654-.1318,.0977-.2646,.0977-.3975,0-.207-.0703-.3682-.2119-.4824-.1426-.1152-.3447-.1729-.6084-.1729-.4092,0-.7275,.1299-.9541,.3896l-.2559-.2197c.1367-.1602,.3115-.2832,.5225-.3701,.2119-.0869,.4512-.1299,.7178-.1299,.3564,0,.6396,.084,.8477,.2529,.208,.168,.3125,.3984,.3125,.6924,0,.1797-.04,.3535-.1201,.5195-.0801,.167-.2314,.3584-.4551,.5752l-1.1895,1.1699h1.9248Z"/><path d="M255.8478,164.3253v3.5h-.3604v-3.1807h-.8252v-.3193h1.1855Z"/></g></svg>