<?xml version="1.0" encoding="UTF-8"?><svg id="Layer_1" xmlns="http://www.w3.org/2000/svg" viewBox="0 0 339.9832 205.3148"><defs><style>.cls-1{letter-spacing:0em;}.cls-2{fill:#c4c4c4;}.cls-3{fill:#e30510;}.cls-4{letter-spacing:-.009em;}.cls-5{fill:none;stroke:#000;stroke-linecap:round;stroke-linejoin:bevel;stroke-width:.3px;}.cls-6,.cls-7,.cls-8{font-size:5px;}.cls-6,.cls-9{font-family:Montserrat-Regular, Montserrat;}.cls-10{letter-spacing:-.019em;}.cls-11{letter-spacing:-.01em;}.cls-7{font-family:Montserrat-Medium, Montserrat;}.cls-7,.cls-8{fill:#222;}.cls-12{letter-spacing:-.019em;}.cls-8{font-family:Montserrat-SemiBold, Montserrat;letter-spacing:.004em;}.cls-9{font-size:6.4604px;}</style></defs><text class="cls-8" transform="translate(.0013 5.6504)"><tspan x="0" y="0">ДИНАМИКА РЕАЛЬНОГО ВВП РОССИИ</tspan></text><path class="cls-2" d="M19.0446,112.6664c0,4.6757-3.8035,8.4792-8.4792,8.4792s-8.4792-3.8035-8.4792-8.4792V54.4232c0-4.6757,3.8035-8.4792,8.4792-8.4792s8.4792,3.8035,8.4792,8.4792v58.2433Z"/><path class="cls-2" d="M125.902,116.9271c0,2.3257-1.8921,4.2186-4.2186,4.2186h-8.5212c-2.3265,0-4.2186-1.8929-4.2186-4.2186s1.8921-4.2186,4.2186-4.2186h8.5212c2.3265,0,4.2186,1.8929,4.2186,4.2186Z"/><path class="cls-2" d="M45.7589,112.6664c0,4.6757-3.8035,8.4792-8.4792,8.4792s-8.4792-3.8035-8.4792-8.4792v-18.2916c0-4.6757,3.8035-8.4793,8.4792-8.4793s8.4792,3.8035,8.4792,8.4793v18.2916Z"/><path class="cls-2" d="M72.2524,113.3322c0,4.3083-3.5048,7.8138-7.8138,7.8138h-1.3308c-4.3091,0-7.8138-3.5056-7.8138-7.8138s3.5047-7.8138,7.8138-7.8138h1.3308c4.3091,0,7.8138,3.5056,7.8138,7.8138Z"/><path class="cls-2" d="M152.6164,112.6664c0,4.6757-3.8035,8.4792-8.4792,8.4792s-8.4792-3.8035-8.4792-8.4792v-18.2916c0-4.6757,3.8035-8.4793,8.4792-8.4793s8.4792,3.8035,8.4792,8.4793v18.2916Z"/><path class="cls-2" d="M179.3308,112.6664c0,4.6757-3.8035,8.4792-8.4792,8.4792s-8.4792-3.8035-8.4792-8.4792v-36.0576c0-4.6757,3.8035-8.4792,8.4792-8.4792s8.4792,3.8035,8.4792,8.4792v36.0576Z"/><path class="cls-2" d="M99.1877,154.9357c0,4.6757-3.8035,8.4792-8.4792,8.4792s-8.4792-3.8035-8.4792-8.4792v-25.2075c0-4.6757,3.8035-8.4792,8.4792-8.4792s8.4792,3.8035,8.4792,8.4792v25.2075Z"/><path class="cls-2" d="M206.0448,112.6669c0,4.6749-3.8035,8.4792-8.4792,8.4792s-8.4784-3.8043-8.4784-8.4792v-22.5345c0-4.6749,3.8035-8.4784,8.4784-8.4784s8.4792,3.8035,8.4792,8.4784v22.5345Z"/><path class="cls-2" d="M232.7596,165.7861c0,4.6757-3.8035,8.4792-8.4792,8.4792s-8.4792-3.8035-8.4792-8.4792v-36.0576c0-4.6757,3.8035-8.4792,8.4792-8.4792s8.4792,3.8035,8.4792,8.4792v36.0576Z"/><path class="cls-3" d="M259.8777,112.6664c0,4.9058-3.9772,8.883-8.883,8.883s-8.883-3.9771-8.883-8.883V48.243c0-4.9066,3.9771-8.883,8.883-8.883s8.883,3.9764,8.883,8.883V112.6664Z"/><line class="cls-5" x1="10.5654" y1="116.806" x2="10.5654" y2="37.5795"/><path d="M9.8387,37.5794c0-.4013,.3254-.7268,.7268-.7268s.7268,.3255,.7268,.7268-.3254,.7268-.7268,.7268-.7268-.3255-.7268-.7268"/><line class="cls-5" x1="117.4226" y1="116.806" x2="117.4226" y2="37.5795"/><path d="M116.6959,37.5794c0-.4013,.3254-.7268,.7268-.7268s.7268,.3255,.7268,.7268-.3255,.7268-.7268,.7268-.7268-.3255-.7268-.7268"/><line class="cls-5" x1="37.2794" y1="116.806" x2="37.2794" y2="37.5795"/><path d="M36.5527,37.5794c0-.4013,.3254-.7268,.7268-.7268s.7268,.3255,.7268,.7268-.3255,.7268-.7268,.7268-.7268-.3255-.7268-.7268"/><line class="cls-5" x1="144.137" y1="116.806" x2="144.137" y2="37.5795"/><path d="M143.4103,37.5794c0-.4013,.3254-.7268,.7268-.7268s.7268,.3255,.7268,.7268-.3255,.7268-.7268,.7268-.7268-.3255-.7268-.7268"/><line class="cls-5" x1="63.9938" y1="116.806" x2="63.9938" y2="37.5795"/><path d="M63.2671,37.5794c0-.4013,.3254-.7268,.7268-.7268s.7268,.3255,.7268,.7268-.3255,.7268-.7268,.7268-.7268-.3255-.7268-.7268"/><line class="cls-5" x1="170.8514" y1="116.806" x2="170.8514" y2="37.5795"/><path d="M170.1247,37.5794c0-.4013,.3254-.7268,.7268-.7268s.7268,.3255,.7268,.7268-.3255,.7268-.7268,.7268-.7268-.3255-.7268-.7268"/><line class="cls-5" x1="90.7082" y1="155.9167" x2="90.7082" y2="37.5793"/><path d="M89.9815,37.5794c0-.4013,.3254-.7268,.7268-.7268s.7268,.3255,.7268,.7268-.3255,.7268-.7268,.7268-.7268-.3255-.7268-.7268"/><line class="cls-5" x1="197.5658" y1="116.806" x2="197.5658" y2="37.5795"/><path d="M196.8391,37.5794c0-.4013,.3254-.7268,.7268-.7268s.7268,.3255,.7268,.7268-.3255,.7268-.7268,.7268-.7268-.3255-.7268-.7268"/><line class="cls-5" x1="224.2802" y1="167.1993" x2="224.2802" y2="37.5796"/><path d="M223.5535,37.5794c0-.4013,.3254-.7268,.7268-.7268s.7268,.3255,.7268,.7268-.3255,.7268-.7268,.7268-.7268-.3255-.7268-.7268"/><line class="cls-5" x1="250.9946" y1="116.806" x2="250.9946" y2="37.5795"/><path d="M250.2679,37.5794c0-.4013,.3254-.7268,.7268-.7268s.7268,.3255,.7268,.7268-.3255,.7268-.7268,.7268-.7268-.3255-.7268-.7268"/><text class="cls-9" transform="translate(4.938 32.3916)"><tspan x="0" y="0">4,0</tspan></text><text class="cls-9" transform="translate(32.4761 32.3916)"><tspan x="0" y="0">1,8</tspan></text><text class="cls-9" transform="translate(58.9507 32.3916)"><tspan x="0" y="0">0</tspan><tspan class="cls-12" x="4.2769" y="0">,</tspan><tspan x="5.5234" y="0">7</tspan></text><text class="cls-7" transform="translate(84.1211 32.3916) scale(1.1547 1)"><tspan x="0" y="0">−</tspan></text><text class="cls-9" transform="translate(87.481 32.3916)"><tspan x="0" y="0">2,0</tspan></text><text class="cls-9" transform="translate(112.0918 32.3916)"><tspan x="0" y="0">0,2</tspan></text><text class="cls-9" transform="translate(139.5195 32.3916)"><tspan x="0" y="0">1,6</tspan></text><text class="cls-9" transform="translate(165.6357 32.3916)"><tspan x="0" y="0">2,8</tspan></text><text class="cls-9" transform="translate(192.5537 32.3916)"><tspan x="0" y="0">2,2</tspan></text><text class="cls-7" transform="translate(218.3887 32.3916) scale(1.1547 1)"><tspan x="0" y="0">−</tspan></text><text class="cls-9" transform="translate(221.7485 32.3916)"><tspan x="0" y="0">2</tspan><tspan class="cls-10" x="3.6694" y="0">,</tspan><tspan x="4.9165" y="0">7</tspan></text><text class="cls-9" transform="translate(246.1528 32.3916)"><tspan x="0" y="0">4</tspan><tspan class="cls-10" x="4.27" y="0">,</tspan><tspan x="5.5171" y="0">7</tspan></text><line class="cls-5" x1="10.3809" y1="120.9658" x2="250.2682" y2="120.9658"/><text class="cls-6" transform="translate(3.6885 188.8857)"><tspan class="cls-11" x="0" y="0">201</tspan><tspan class="cls-1" x="7.8047" y="0">2 </tspan></text><text class="cls-6" transform="translate(30.4741 188.8857)"><tspan class="cls-4" x="0" y="0">201</tspan><tspan x="7.8198" y="0">3 </tspan></text><text class="cls-6" transform="translate(57.2891 188.8857)"><tspan class="cls-4" x="0" y="0">201</tspan><tspan x="7.8198" y="0">4 </tspan></text><text class="cls-6" transform="translate(84.333 188.8857)"><tspan class="cls-4" x="0" y="0">201</tspan><tspan x="7.8198" y="0">5 </tspan></text><text class="cls-6" transform="translate(111.1572 188.8857)"><tspan class="cls-4" x="0" y="0">201</tspan><tspan x="7.8198" y="0">6 </tspan></text><text class="cls-6" transform="translate(138.396 188.8857)"><tspan class="cls-4" x="0" y="0">201</tspan><tspan x="7.8198" y="0">7 </tspan></text><text class="cls-6" transform="translate(164.9228 188.8857)"><tspan class="cls-4" x="0" y="0">201</tspan><tspan x="7.8198" y="0">8 </tspan></text><text class="cls-6" transform="translate(191.8511 188.8857)"><tspan class="cls-4" x="0" y="0">201</tspan><tspan x="7.8198" y="0">9 </tspan></text><text class="cls-6" transform="translate(218.0522 188.8857)"><tspan class="cls-4" x="0" y="0">202</tspan><tspan x="8.855" y="0">0</tspan></text><text class="cls-6" transform="translate(245.7778 188.8857)"><tspan class="cls-11" x="0" y="0">202</tspan><tspan x="8.8398" y="0">1</tspan></text><text class="cls-6" transform="translate(3.6885 188.8857)"><tspan class="cls-11" x="0" y="0">201</tspan><tspan class="cls-1" x="7.8047" y="0">2 </tspan></text><text class="cls-6" transform="translate(30.4741 188.8857)"><tspan class="cls-4" x="0" y="0">201</tspan><tspan x="7.8198" y="0">3 </tspan></text><text class="cls-6" transform="translate(57.2891 188.8857)"><tspan class="cls-4" x="0" y="0">201</tspan><tspan x="7.8198" y="0">4 </tspan></text><text class="cls-6" transform="translate(84.333 188.8857)"><tspan class="cls-4" x="0" y="0">201</tspan><tspan x="7.8198" y="0">5 </tspan></text><text class="cls-6" transform="translate(111.1572 188.8857)"><tspan class="cls-4" x="0" y="0">201</tspan><tspan x="7.8198" y="0">6 </tspan></text><text class="cls-6" transform="translate(138.396 188.8857)"><tspan class="cls-4" x="0" y="0">201</tspan><tspan x="7.8198" y="0">7 </tspan></text><text class="cls-6" transform="translate(164.9228 188.8857)"><tspan class="cls-4" x="0" y="0">201</tspan><tspan x="7.8198" y="0">8 </tspan></text><text class="cls-6" transform="translate(191.8511 188.8857)"><tspan class="cls-4" x="0" y="0">201</tspan><tspan x="7.8198" y="0">9 </tspan></text><text class="cls-6" transform="translate(218.0522 188.8857)"><tspan class="cls-4" x="0" y="0">202</tspan><tspan x="8.855" y="0">0</tspan></text><text class="cls-6" transform="translate(245.7778 188.8857)"><tspan class="cls-11" x="0" y="0">202</tspan><tspan x="8.8398" y="0">1</tspan></text></svg>