<?xml version="1.0" encoding="UTF-8"?><svg id="Layer_1" xmlns="http://www.w3.org/2000/svg" viewBox="0 0 339.9832 205.3148"><defs><style>.cls-1{fill:#222;}.cls-2{stroke-dasharray:0 0 0 2.0077;}.cls-2,.cls-3,.cls-4{stroke-linecap:round;}.cls-2,.cls-3,.cls-4,.cls-5{fill:none;}.cls-2,.cls-4{stroke:#858585;stroke-linejoin:round;}.cls-2,.cls-4,.cls-5{stroke-width:.5px;}.cls-3{stroke:#000;stroke-linejoin:bevel;stroke-width:.3px;}.cls-6{opacity:.5;}.cls-5{stroke:#e30510;stroke-miterlimit:10;}</style></defs><g class="cls-6"><g><line class="cls-4" x1="12.3824" y1="182.4045" x2="12.3824" y2="182.4045"/><line class="cls-2" x1="12.3824" y1="180.3968" x2="12.3824" y2="18.7733"/><line class="cls-4" x1="12.3824" y1="17.7694" x2="12.3824" y2="17.7694"/></g><g><line class="cls-4" x1="34.3275" y1="182.4045" x2="34.3275" y2="182.4045"/><line class="cls-2" x1="34.3275" y1="180.3968" x2="34.3275" y2="18.7733"/><line class="cls-4" x1="34.3275" y1="17.7694" x2="34.3275" y2="17.7694"/></g><g><line class="cls-4" x1="56.2728" y1="182.4045" x2="56.2728" y2="182.4045"/><line class="cls-2" x1="56.2728" y1="180.3968" x2="56.2728" y2="18.7733"/><line class="cls-4" x1="56.2728" y1="17.7694" x2="56.2728" y2="17.7694"/></g><g><line class="cls-4" x1="78.218" y1="182.4045" x2="78.218" y2="182.4045"/><line class="cls-2" x1="78.218" y1="180.3968" x2="78.218" y2="18.7733"/><line class="cls-4" x1="78.218" y1="17.7694" x2="78.218" y2="17.7694"/></g><g><line class="cls-4" x1="100.1632" y1="182.4045" x2="100.1632" y2="182.4045"/><line class="cls-2" x1="100.1632" y1="180.3968" x2="100.1632" y2="18.7733"/><line class="cls-4" x1="100.1632" y1="17.7694" x2="100.1632" y2="17.7694"/></g><g><line class="cls-4" x1="122.1085" y1="182.4045" x2="122.1085" y2="182.4045"/><line class="cls-2" x1="122.1085" y1="180.3968" x2="122.1085" y2="18.7733"/><line class="cls-4" x1="122.1085" y1="17.7694" x2="122.1085" y2="17.7694"/></g><g><line class="cls-4" x1="144.0537" y1="182.4045" x2="144.0537" y2="182.4045"/><line class="cls-2" x1="144.0537" y1="180.3968" x2="144.0537" y2="18.7733"/><line class="cls-4" x1="144.0537" y1="17.7694" x2="144.0537" y2="17.7694"/></g><g><line class="cls-4" x1="165.9989" y1="182.4045" x2="165.9989" y2="182.4045"/><line class="cls-2" x1="165.9989" y1="180.3968" x2="165.9989" y2="18.7733"/><line class="cls-4" x1="165.9989" y1="17.7694" x2="165.9989" y2="17.7694"/></g></g><g class="cls-6"><g><line class="cls-4" x1="187.9441" y1="182.4045" x2="187.9441" y2="182.4045"/><line class="cls-2" x1="187.9441" y1="180.3968" x2="187.9441" y2="18.7733"/><line class="cls-4" x1="187.9441" y1="17.7694" x2="187.9441" y2="17.7694"/></g><g><line class="cls-4" x1="209.8894" y1="182.4045" x2="209.8894" y2="182.4045"/><line class="cls-2" x1="209.8894" y1="180.3968" x2="209.8894" y2="18.7733"/><line class="cls-4" x1="209.8894" y1="17.7694" x2="209.8894" y2="17.7694"/></g><g><line class="cls-4" x1="231.8346" y1="182.4045" x2="231.8346" y2="182.4045"/><line class="cls-2" x1="231.8346" y1="180.3968" x2="231.8346" y2="18.7733"/><line class="cls-4" x1="231.8346" y1="17.7694" x2="231.8346" y2="17.7694"/></g><g><line class="cls-4" x1="253.7798" y1="182.4045" x2="253.7798" y2="182.4045"/><line class="cls-2" x1="253.7798" y1="180.3968" x2="253.7798" y2="18.7733"/><line class="cls-4" x1="253.7798" y1="17.7694" x2="253.7798" y2="17.7694"/></g><g><line class="cls-4" x1="275.725" y1="182.4045" x2="275.725" y2="182.4045"/><line class="cls-2" x1="275.725" y1="180.3968" x2="275.725" y2="18.7733"/><line class="cls-4" x1="275.725" y1="17.7694" x2="275.725" y2="17.7694"/></g></g><g><path class="cls-1" d="M3.5912,2.1505v3.5h-.6396V2.7003H1.1361v2.9502H.4965V2.1505H3.5912Z"/><path class="cls-1" d="M5.2514,5.4678c-.2866-.1553-.5117-.3701-.6748-.6455-.1636-.2744-.2451-.582-.2451-.9219s.0815-.6475,.2451-.9229c.1631-.2744,.3882-.4902,.6748-.6445,.2866-.1553,.6084-.2324,.9648-.2324,.3569,0,.6782,.0771,.9653,.2324,.2866,.1543,.5112,.3691,.6748,.6426,.1631,.2725,.2451,.5811,.2451,.9248,0,.3428-.082,.6514-.2451,.9248-.1636,.2734-.3882,.4873-.6748,.6426-.2871,.1553-.6084,.2324-.9653,.2324-.3564,0-.6782-.0771-.9648-.2324Zm1.5952-.4951c.1865-.1055,.333-.252,.4399-.4404,.1064-.1875,.1597-.3984,.1597-.6318s-.0532-.4443-.1597-.6328c-.1069-.1885-.2534-.335-.4399-.4395-.187-.1055-.397-.1582-.6304-.1582s-.4434,.0527-.6299,.1582c-.1865,.1045-.3335,.251-.4399,.4395-.1069,.1885-.1602,.3994-.1602,.6328s.0532,.4443,.1602,.6318c.1064,.1885,.2534,.335,.4399,.4404s.3965,.1572,.6299,.1572,.4434-.0518,.6304-.1572Z"/><path class="cls-1" d="M11.3813,2.7003h-1.1597v2.9502h-.645V2.7003h-1.1553v-.5498h2.96v.5498Z"/><path class="cls-1" d="M14.1938,2.2999c.2246,.1006,.3975,.2441,.5176,.4307,.1196,.1865,.1797,.4082,.1797,.665,0,.2529-.0601,.4736-.1797,.6621-.1201,.1885-.293,.333-.5176,.4326-.2251,.0996-.4893,.1504-.7925,.1504h-.79v1.0098h-.6499V2.1505h1.4399c.3032,0,.5674,.0498,.7925,.1494Zm-.1777,1.6104c.1465-.1201,.2202-.292,.2202-.5146,0-.2236-.0737-.3955-.2202-.5156s-.3618-.1797-.645-.1797h-.7598v1.3896h.7598c.2832,0,.4985-.0596,.645-.1797Z"/><path class="cls-1" d="M18.2016,5.1055v.5449h-2.625V2.1505h2.5547v.5449h-1.9048v.9102h1.6899v.5352h-1.6899v.9648h1.9751Z"/><path class="cls-1" d="M18.9511,2.1505h2.7251v.5352h-2.0854v.8594h1.0352c.4199,0,.7393,.0879,.9575,.2627s.3276,.4277,.3276,.7578c0,.3467-.1201,.6143-.3599,.8018-.2402,.1885-.582,.2832-1.0254,.2832h-1.5747V2.1505Zm1.54,3c.25,0,.4399-.0488,.5698-.1455s.1948-.2363,.1948-.4199c0-.3594-.2549-.54-.7646-.54h-.9004v1.1055h.9004Z"/><path class="cls-1" d="M22.6464,2.1505h.6396v2.4844l1.8804-2.4844h.605v3.5h-.6401V3.17l-1.8799,2.4805h-.605V2.1505Z"/><path class="cls-1" d="M29.3109,2.7003h-1.1597v2.9502h-.645V2.7003h-1.1553v-.5498h2.96v.5498Z"/><path class="cls-1" d="M32.516,5.1055v.5449h-2.625V2.1505h2.5547v.5449h-1.9048v.9102h1.6899v.5352h-1.6899v.9648h1.9751Z"/><path class="cls-1" d="M36.2509,2.1505v3.5h-.6401V2.7003h-1.3799l-.0298,.875c-.0171,.4902-.0571,.8877-.1201,1.1924-.0635,.3047-.165,.5371-.3052,.6953-.1396,.1582-.333,.2373-.5801,.2373-.0864,0-.2046-.0166-.355-.0498l.0454-.5654c.043,.0137,.0933,.0205,.1499,.0205,.2031,0,.3472-.1211,.4321-.3633,.0854-.2412,.1377-.6221,.1577-1.1416l.0498-1.4502h2.5752Z"/><path class="cls-1" d="M39.8383,3.6173c.2251,.1885,.3379,.4678,.3379,.8379,0,.3867-.1235,.6826-.3701,.8877s-.5933,.3076-1.04,.3076h-1.5049V2.1505h.6396v1.1846h.9702c.4199,0,.7427,.0947,.9673,.2822Zm-.5171,1.3584c.1362-.1172,.2046-.2871,.2046-.5107,0-.4229-.2632-.6348-.7896-.6348h-.8354v1.3203h.8354c.2529,0,.4482-.0586,.585-.1748Z"/><path class="cls-1" d="M41.5136,5.4678c-.2852-.1553-.5083-.3691-.6699-.6426-.1621-.2734-.2427-.582-.2427-.9248,0-.3438,.0815-.6523,.2451-.9248,.1631-.2734,.3872-.4883,.6724-.6426,.2852-.1553,.604-.2324,.9575-.2324,.2866,0,.5483,.0498,.7852,.1494,.2363,.1006,.4365,.2451,.6001,.4355l-.4204,.3945c-.2534-.2734-.5649-.4102-.9351-.4102-.2397,0-.4546,.0527-.6445,.1582-.1904,.1045-.3384,.25-.4453,.4375-.1064,.1865-.1602,.3975-.1602,.6348,0,.2363,.0537,.4482,.1602,.6348,.1069,.1865,.2549,.332,.4453,.4375,.1899,.1055,.4048,.1572,.6445,.1572,.3701,0,.6816-.1377,.9351-.415l.4204,.4004c-.1636,.1895-.3643,.335-.6025,.4346-.2388,.1006-.501,.1504-.7876,.1504-.3535,0-.6724-.0771-.9575-.2324Z"/><path class="cls-1" d="M45.7758,4.1749h-.6499v1.4756h-.6396V2.1505h.6396v1.4648h.6699l1.0054-1.4648h.6899l-1.1953,1.6943,1.2402,1.8057h-.7349l-1.0254-1.4756Z"/><path class="cls-1" d="M48.121,2.1505h.6396v2.4844l1.8804-2.4844h.605v3.5h-.6401V3.17l-1.8799,2.4805h-.605V2.1505Z"/><path class="cls-1" d="M54.871,5.1055v.5449h-2.625V2.1505h2.5547v.5449h-1.9048v.9102h1.6899v.5352h-1.6899v.9648h1.9751Z"/><path class="cls-1" d="M59.2484,2.2999c.2246,.1006,.3975,.2441,.5176,.4307,.1196,.1865,.1797,.4082,.1797,.665,0,.2529-.0601,.4736-.1797,.6621-.1201,.1885-.293,.333-.5176,.4326-.2251,.0996-.4893,.1504-.7925,.1504h-.79v1.0098h-.6499V2.1505h1.4399c.3032,0,.5674,.0498,.7925,.1494Zm-.1777,1.6104c.1465-.1201,.2202-.292,.2202-.5146,0-.2236-.0737-.3955-.2202-.5156s-.3618-.1797-.645-.1797h-.7598v1.3896h.7598c.2832,0,.4985-.0596,.645-.1797Z"/><path class="cls-1" d="M62.9506,4.8399h-1.75l-.3452,.8105h-.6699l1.5752-3.5h.6396l1.5801,3.5h-.6797l-.3501-.8105Zm-.2148-.5098l-.6602-1.5303-.6553,1.5303h1.3154Z"/><path class="cls-1" d="M65.1884,5.4678c-.2852-.1553-.5083-.3691-.6699-.6426-.1621-.2734-.2427-.582-.2427-.9248,0-.3438,.0815-.6523,.2451-.9248,.1631-.2734,.3872-.4883,.6724-.6426,.2852-.1553,.604-.2324,.9575-.2324,.2866,0,.5483,.0498,.7852,.1494,.2363,.1006,.4365,.2451,.6001,.4355l-.4204,.3945c-.2534-.2734-.5649-.4102-.9351-.4102-.2397,0-.4546,.0527-.6445,.1582-.1904,.1045-.3384,.25-.4453,.4375-.1064,.1865-.1602,.3975-.1602,.6348,0,.2363,.0537,.4482,.1602,.6348,.1069,.1865,.2549,.332,.4453,.4375,.1899,.1055,.4048,.1572,.6445,.1572,.3701,0,.6816-.1377,.9351-.415l.4204,.4004c-.1636,.1895-.3643,.335-.6025,.4346-.2388,.1006-.501,.1504-.7876,.1504-.3535,0-.6724-.0771-.9575-.2324Z"/><path class="cls-1" d="M68.5658,2.1505l.8252,1.1699,.8247-1.1699h.7603l-1.1753,1.6797,1.27,1.8203h-.77l-.9097-1.2754-.9053,1.2754h-.75l1.2651-1.7949-1.1851-1.7051h.75Z"/><path class="cls-1" d="M72.2958,5.4678c-.2866-.1553-.5117-.3701-.6748-.6455-.1636-.2744-.2451-.582-.2451-.9219s.0815-.6475,.2451-.9229c.1631-.2744,.3882-.4902,.6748-.6445,.2866-.1553,.6084-.2324,.9648-.2324,.3569,0,.6782,.0771,.9653,.2324,.2866,.1543,.5112,.3691,.6748,.6426,.1631,.2725,.2451,.5811,.2451,.9248,0,.3428-.082,.6514-.2451,.9248-.1636,.2734-.3882,.4873-.6748,.6426-.2871,.1553-.6084,.2324-.9653,.2324-.3564,0-.6782-.0771-.9648-.2324Zm1.5952-.4951c.1865-.1055,.333-.252,.4399-.4404,.1064-.1875,.1597-.3984,.1597-.6318s-.0532-.4443-.1597-.6328c-.1069-.1885-.2534-.335-.4399-.4395-.187-.1055-.397-.1582-.6304-.1582s-.4434,.0527-.6299,.1582c-.1865,.1045-.3335,.251-.4399,.4395-.1069,.1885-.1602,.3994-.1602,.6328s.0532,.4443,.1602,.6318c.1064,.1885,.2534,.335,.4399,.4404s.3965,.1572,.6299,.1572,.4434-.0518,.6304-.1572Z"/><path class="cls-1" d="M79.3554,5.1007v1.2949h-.6001v-.7451h-2.6851v.7451h-.605l.0054-1.2949h.1499c.2197-.0107,.374-.1729,.4624-.4883,.0884-.3145,.1426-.7656,.1626-1.3525l.04-1.1094h2.5649v2.9502h.5049Zm-2.6499-.6475c-.0566,.3008-.147,.5166-.27,.6475h1.7749V2.7003h-1.3701l-.0249,.6201c-.0166,.4531-.0532,.8311-.1099,1.1328Z"/><path class="cls-1" d="M82.5678,3.6173c.2251,.1885,.3379,.4678,.3379,.8379,0,.3867-.1235,.6826-.3701,.8877s-.5933,.3076-1.04,.3076h-1.5049V2.1505h.6396v1.1846h.9702c.4199,0,.7427,.0947,.9673,.2822Zm-.5171,1.3584c.1362-.1172,.2046-.2871,.2046-.5107,0-.4229-.2632-.6348-.7896-.6348h-.8354v1.3203h.8354c.2529,0,.4482-.0586,.585-.1748Zm1.3599-2.8252h.6401v3.5h-.6401V2.1505Z"/></g><g><path d="M10.0282,186.2559v2.6299h-.3247v-.8701h-.9253l-.6099,.8701h-.3853l.6553-.9199c-.2036-.0566-.3599-.1533-.4702-.29-.1099-.1367-.165-.3105-.165-.5205,0-.293,.1001-.5166,.3003-.6699,.1997-.1533,.4731-.2295,.8198-.2295h1.105Zm-1.1201,1.4951h.7954v-1.1807h-.77c-.5137,0-.77,.1982-.77,.5947,0,.3906,.248,.5859,.7446,.5859Z"/><path d="M10.9882,186.2559h.355v1.165h1.6553v-1.165h.355v2.6299h-.355v-1.1602h-1.6553v1.1602h-.355v-2.6299Z"/><path d="M16.5229,188.171c0,.2295-.085,.4062-.2549,.5293-.1699,.124-.4233,.1855-.7598,.1855h-1.1953v-2.6299h1.1602c.2998,0,.5352,.0576,.7051,.1748,.1699,.1162,.2549,.2832,.2549,.5,0,.1436-.0391,.2656-.1177,.3672-.0781,.1016-.1875,.1777-.3271,.2275,.3564,.083,.5347,.2988,.5347,.6455Zm-1.8647-.7451h.79c.2031,0,.3589-.0381,.4673-.1152s.1626-.1885,.1626-.335-.0542-.2568-.1626-.3301-.2642-.1104-.4673-.1104h-.79v.8906Zm1.3447,1.0693c.1133-.0732,.1704-.1875,.1704-.3447,0-.1562-.0518-.2725-.1553-.3477s-.2666-.1123-.4897-.1123h-.8701v.915h.835c.2266,0,.3965-.0361,.5098-.1104Z"/></g><g><path d="M32.4462,188.5303c-.27,.2334-.6519,.3604-1.145,.3799v.9453h-.3447v-.9404c-.4902-.0195-.8691-.1475-1.1377-.3818-.2686-.2354-.4023-.5576-.4023-.9678,0-.4062,.1338-.7246,.4023-.9551,.2686-.2295,.6475-.3545,1.1377-.375v-1.0596h.3447v1.0596c.4932,.0234,.875,.1504,1.145,.3799,.27,.2305,.4053,.5469,.4053,.9502,0,.4102-.1353,.7314-.4053,.9648Zm-2.3774-.2295c.2017,.1768,.4976,.2764,.8877,.2998v-2.0498c-.3867,.0195-.6816,.1172-.8853,.292-.2031,.1748-.3047,.416-.3047,.7227,0,.3135,.1006,.5586,.3022,.7354Zm2.125,.0049c.2051-.1768,.3076-.4238,.3076-.7402,0-.3096-.1025-.5518-.3076-.7246-.2051-.1738-.5024-.2705-.8926-.29v2.0498c.3901-.0205,.6875-.1182,.8926-.2949Z"/><path d="M35.8563,187.6807h-2.2002c.02,.2734,.125,.4941,.3149,.6621,.1899,.1689,.4302,.2529,.7202,.2529,.1631,0,.313-.0293,.4497-.0879,.1367-.0576,.2554-.1436,.355-.2568l.2002,.2295c-.1167,.1396-.2627,.2471-.4375,.3203s-.3677,.1094-.5776,.1094c-.27,0-.5093-.0576-.7173-.1719-.2085-.1152-.3711-.2744-.4878-.4775s-.1748-.4336-.1748-.6904,.0557-.4863,.1675-.6895c.1118-.2041,.2651-.3623,.46-.4756s.4141-.1699,.6577-.1699c.2432,0,.4614,.0566,.6548,.1699s.3452,.2715,.4551,.4727c.1099,.2021,.165,.4326,.165,.6924l-.0049,.1104Zm-1.9077-.8975c-.1719,.1611-.269,.3721-.2925,.6318h1.8652c-.0234-.2598-.1211-.4707-.2925-.6318-.1719-.1621-.3862-.2432-.6426-.2432-.2534,0-.4658,.0811-.6377,.2432Z"/><path d="M38.8109,188.171c0,.2295-.085,.4062-.2549,.5293-.1699,.124-.4233,.1855-.7598,.1855h-1.1953v-2.6299h1.1602c.2998,0,.5352,.0576,.7051,.1748,.1699,.1162,.2549,.2832,.2549,.5,0,.1436-.0391,.2656-.1177,.3672-.0781,.1016-.1875,.1777-.3271,.2275,.3564,.083,.5347,.2988,.5347,.6455Zm-1.8647-.7451h.79c.2031,0,.3589-.0381,.4673-.1152s.1626-.1885,.1626-.335-.0542-.2568-.1626-.3301-.2642-.1104-.4673-.1104h-.79v.8906Zm1.3447,1.0693c.1133-.0732,.1704-.1875,.1704-.3447,0-.1562-.0518-.2725-.1553-.3477s-.2666-.1123-.4897-.1123h-.8701v.915h.835c.2266,0,.3965-.0361,.5098-.1104Z"/></g><g><path d="M54.4774,186.2559v2.6299h-.3247v-2.0801l-1.0649,1.7598h-.1602l-1.0649-1.7646v2.085h-.3252v-2.6299h.3604l1.1147,1.8945,1.1353-1.8945h.3296Z"/><path d="M57.1376,186.4932c.1831,.1719,.2749,.4258,.2749,.7627v1.6299h-.3403v-.4102c-.0796,.1367-.1973,.2432-.3521,.3203-.1553,.0762-.3394,.1143-.5527,.1143-.2935,0-.5269-.0693-.7002-.21-.1733-.1396-.2598-.3242-.2598-.5547,0-.2236,.0806-.4033,.2427-.54,.1616-.1367,.4189-.2051,.7725-.2051h.835v-.1602c0-.2266-.0635-.3984-.1899-.5176-.127-.1182-.312-.1768-.5552-.1768-.1665,0-.3267,.0273-.48,.082s-.2852,.1309-.395,.2275l-.1602-.2646c.1333-.1133,.2935-.2012,.48-.2627,.187-.0615,.3833-.0928,.5903-.0928,.3433,0,.6064,.0859,.79,.2578Zm-.4004,2c.1436-.0918,.25-.2246,.3203-.3975v-.4307h-.8252c-.4497,0-.6748,.1572-.6748,.4707,0,.1533,.0581,.2744,.1748,.3623s.2803,.1328,.4902,.1328c.1997,0,.3716-.0459,.5146-.1377Z"/><path d="M60.3373,186.4034c.2002,.1113,.3569,.2686,.4702,.4727,.1133,.2031,.1699,.4346,.1699,.6943,0,.2637-.0566,.4971-.1699,.7002s-.269,.3613-.4673,.4727c-.1987,.1113-.4229,.167-.6729,.167-.2134,0-.4058-.0439-.5771-.1318-.1719-.0889-.3125-.2178-.4229-.3877v1.4648h-.355v-3.5996h.3403v.5195c.1064-.1729,.2471-.3066,.4224-.3994,.1748-.0938,.3726-.1406,.5923-.1406,.2466,0,.4702,.0557,.6699,.168Zm-.1948,2.0645c.1499-.085,.2676-.2051,.3525-.3623,.085-.1562,.1274-.335,.1274-.5352s-.0425-.377-.1274-.5322-.2026-.2754-.3525-.3623-.3169-.1299-.5-.1299c-.1865,0-.354,.043-.5024,.1299s-.2651,.207-.3501,.3623-.1274,.332-.1274,.5322,.0425,.3789,.1274,.5352c.085,.1572,.2017,.2773,.3501,.3623s.3159,.1279,.5024,.1279c.1831,0,.3501-.043,.5-.1279Z"/></g><g><path d="M75.5033,186.4932c.1831,.1719,.2749,.4258,.2749,.7627v1.6299h-.3403v-.4102c-.0796,.1367-.1973,.2432-.3521,.3203-.1553,.0762-.3394,.1143-.5527,.1143-.2935,0-.5269-.0693-.7002-.21-.1733-.1396-.2598-.3242-.2598-.5547,0-.2236,.0806-.4033,.2427-.54,.1616-.1367,.4189-.2051,.7725-.2051h.835v-.1602c0-.2266-.0635-.3984-.1899-.5176-.127-.1182-.312-.1768-.5552-.1768-.1665,0-.3267,.0273-.48,.082s-.2852,.1309-.395,.2275l-.1602-.2646c.1333-.1133,.2935-.2012,.48-.2627,.187-.0615,.3833-.0928,.5903-.0928,.3433,0,.6064,.0859,.79,.2578Zm-.4004,2c.1436-.0918,.25-.2246,.3203-.3975v-.4307h-.8252c-.4497,0-.6748,.1572-.6748,.4707,0,.1533,.0581,.2744,.1748,.3623s.2803,.1328,.4902,.1328c.1997,0,.3716-.0459,.5146-.1377Z"/><path d="M79.0385,186.2559v2.6299h-.3555v-2.3154h-1.6499v2.3154h-.355v-2.6299h2.3604Z"/><path d="M82.0277,186.4034c.2002,.1113,.3569,.2686,.4702,.4727,.1133,.2031,.1699,.4346,.1699,.6943,0,.2637-.0566,.4971-.1699,.7002s-.269,.3613-.4673,.4727c-.1987,.1113-.4229,.167-.6729,.167-.2134,0-.4058-.0439-.5771-.1318-.1719-.0889-.3125-.2178-.4229-.3877v1.4648h-.355v-3.5996h.3403v.5195c.1064-.1729,.2471-.3066,.4224-.3994,.1748-.0938,.3726-.1406,.5923-.1406,.2466,0,.4702,.0557,.6699,.168Zm-.1948,2.0645c.1499-.085,.2676-.2051,.3525-.3623,.085-.1562,.1274-.335,.1274-.5352s-.0425-.377-.1274-.5322-.2026-.2754-.3525-.3623-.3169-.1299-.5-.1299c-.1865,0-.354,.043-.5024,.1299s-.2651,.207-.3501,.3623-.1274,.332-.1274,.5322,.0425,.3789,.1274,.5352c.085,.1572,.2017,.2773,.3501,.3623s.3159,.1279,.5024,.1279c.1831,0,.3501-.043,.5-.1279Z"/></g><g><path d="M98.434,186.2559v2.6299h-.3247v-2.0801l-1.0649,1.7598h-.1602l-1.0649-1.7646v2.085h-.3252v-2.6299h.3604l1.1147,1.8945,1.1353-1.8945h.3296Z"/><path d="M101.0941,186.4932c.1831,.1719,.2749,.4258,.2749,.7627v1.6299h-.3403v-.4102c-.0796,.1367-.1973,.2432-.3521,.3203-.1553,.0762-.3394,.1143-.5527,.1143-.2935,0-.5269-.0693-.7002-.21-.1733-.1396-.2598-.3242-.2598-.5547,0-.2236,.0806-.4033,.2427-.54,.1616-.1367,.4189-.2051,.7725-.2051h.835v-.1602c0-.2266-.0635-.3984-.1899-.5176-.127-.1182-.312-.1768-.5552-.1768-.1665,0-.3267,.0273-.48,.082s-.2852,.1309-.395,.2275l-.1602-.2646c.1333-.1133,.2935-.2012,.48-.2627,.187-.0615,.3833-.0928,.5903-.0928,.3433,0,.6064,.0859,.79,.2578Zm-.4004,2c.1436-.0918,.25-.2246,.3203-.3975v-.4307h-.8252c-.4497,0-.6748,.1572-.6748,.4707,0,.1533,.0581,.2744,.1748,.3623s.2803,.1328,.4902,.1328c.1997,0,.3716-.0459,.5146-.1377Z"/><path d="M102.2689,186.2559h.355v2.0898l1.7554-2.0898h.3149v2.6299h-.355v-2.0898l-1.75,2.0898h-.3203v-2.6299Zm.6553-.5508c-.1333-.1133-.2017-.2725-.2051-.4795h.2549c.0034,.1299,.0498,.2344,.1401,.3125,.0898,.0781,.2065,.1172,.3501,.1172,.1431,0,.2607-.0391,.3525-.1172,.0913-.0781,.1387-.1826,.1421-.3125h.2554c-.0034,.207-.0728,.3662-.2075,.4795-.1353,.1143-.3159,.1709-.5425,.1709-.2271,0-.4067-.0566-.54-.1709Z"/></g><g><path d="M117.057,186.2559h.355v2.0898l1.7554-2.0898h.3149v2.6299h-.355v-2.0898l-1.75,2.0898h-.3203v-2.6299Z"/><path d="M123.3798,186.4053c.1982,.1133,.354,.2715,.4673,.4756,.1133,.2031,.1699,.4326,.1699,.6895s-.0566,.4873-.1699,.6904-.269,.3623-.4673,.4775c-.1982,.1143-.4209,.1719-.6675,.1719-.2334,0-.4453-.0508-.6353-.1523s-.3442-.2422-.4624-.4219c-.1182-.1807-.1875-.3867-.2075-.6201h-.6001v1.1699h-.355v-2.6299h.355v1.1348h.605c.0269-.2266,.0991-.4277,.2178-.6025,.1182-.1748,.2705-.3105,.4575-.4072,.1865-.0967,.395-.1455,.625-.1455,.2466,0,.4692,.0566,.6675,.1699Zm-.1802,2.0654c.145-.0869,.2593-.208,.3428-.3652,.083-.1562,.125-.335,.125-.5352s-.042-.3779-.125-.5352c-.0835-.1562-.1978-.2773-.3428-.3623s-.3076-.127-.4873-.127c-.1802,0-.3428,.042-.4878,.127s-.2593,.2061-.3423,.3623c-.0835,.1572-.125,.335-.125,.5352s.0415,.3789,.125,.5352c.083,.1572,.1973,.2783,.3423,.3652s.3076,.1299,.4878,.1299c.1797,0,.3423-.043,.4873-.1299Z"/><path d="M124.7318,186.2559h.355v1.165h1.6553v-1.165h.355v2.6299h-.355v-1.1602h-1.6553v1.1602h-.355v-2.6299Z"/></g><g><path d="M139.1454,186.2559h.355v2.0898l1.7554-2.0898h.3149v2.6299h-.355v-2.0898l-1.75,2.0898h-.3203v-2.6299Z"/><path d="M145.4682,186.4053c.1982,.1133,.354,.2715,.4673,.4756,.1133,.2031,.1699,.4326,.1699,.6895s-.0566,.4873-.1699,.6904-.269,.3623-.4673,.4775c-.1982,.1143-.4209,.1719-.6675,.1719-.2334,0-.4453-.0508-.6353-.1523s-.3442-.2422-.4624-.4219c-.1182-.1807-.1875-.3867-.2075-.6201h-.6001v1.1699h-.355v-2.6299h.355v1.1348h.605c.0269-.2266,.0991-.4277,.2178-.6025,.1182-.1748,.2705-.3105,.4575-.4072,.1865-.0967,.395-.1455,.625-.1455,.2466,0,.4692,.0566,.6675,.1699Zm-.1802,2.0654c.145-.0869,.2593-.208,.3428-.3652,.083-.1562,.125-.335,.125-.5352s-.042-.3779-.125-.5352c-.0835-.1562-.1978-.2773-.3428-.3623s-.3076-.127-.4873-.127c-.1802,0-.3428,.042-.4878,.127s-.2593,.2061-.3423,.3623c-.0835,.1572-.125,.335-.125,.5352s.0415,.3789,.125,.5352c.083,.1572,.1973,.2783,.3423,.3652s.3076,.1299,.4878,.1299c.1797,0,.3423-.043,.4873-.1299Z"/><path d="M148.9701,186.2559v2.6299h-.355v-2.3154h-1.2598l-.0352,.6504c-.0264,.5469-.0898,.9668-.1899,1.2598s-.2783,.4404-.5352,.4404c-.0698,0-.1548-.0137-.2549-.04l.0249-.3057c.0601,.0137,.1021,.0205,.125,.0205,.1367,0,.2402-.0635,.3101-.1904,.0703-.126,.1167-.2832,.1401-.4697s.0435-.4336,.0601-.7402l.0449-.9395h1.9248Z"/></g><g><path d="M164.102,186.4932c.1831,.1719,.2749,.4258,.2749,.7627v1.6299h-.3403v-.4102c-.0796,.1367-.1973,.2432-.3521,.3203-.1553,.0762-.3394,.1143-.5527,.1143-.2935,0-.5269-.0693-.7002-.21-.1733-.1396-.2598-.3242-.2598-.5547,0-.2236,.0806-.4033,.2427-.54,.1616-.1367,.4189-.2051,.7725-.2051h.835v-.1602c0-.2266-.0635-.3984-.1899-.5176-.127-.1182-.312-.1768-.5552-.1768-.1665,0-.3267,.0273-.48,.082s-.2852,.1309-.395,.2275l-.1602-.2646c.1333-.1133,.2935-.2012,.48-.2627,.187-.0615,.3833-.0928,.5903-.0928,.3433,0,.6064,.0859,.79,.2578Zm-.4004,2c.1436-.0918,.25-.2246,.3203-.3975v-.4307h-.8252c-.4497,0-.6748,.1572-.6748,.4707,0,.1533,.0581,.2744,.1748,.3623s.2803,.1328,.4902,.1328c.1997,0,.3716-.0459,.5146-.1377Z"/><path d="M167.4867,188.171c0,.2295-.085,.4062-.2549,.5293-.1699,.124-.4233,.1855-.7598,.1855h-1.1953v-2.6299h1.1602c.2998,0,.5352,.0576,.7051,.1748,.1699,.1162,.2549,.2832,.2549,.5,0,.1436-.0391,.2656-.1177,.3672-.0781,.1016-.1875,.1777-.3271,.2275,.3564,.083,.5347,.2988,.5347,.6455Zm-1.8647-.7451h.79c.2031,0,.3589-.0381,.4673-.1152s.1626-.1885,.1626-.335-.0542-.2568-.1626-.3301-.2642-.1104-.4673-.1104h-.79v.8906Zm1.3447,1.0693c.1133-.0732,.1704-.1875,.1704-.3447,0-.1562-.0518-.2725-.1553-.3477s-.2666-.1123-.4897-.1123h-.8701v.915h.835c.2266,0,.3965-.0361,.5098-.1104Z"/><path d="M170.1317,186.5704h-1.5054v2.3154h-.355v-2.6299h1.8604v.3145Z"/></g><g><path d="M184.3324,188.7403c-.2051-.1133-.3662-.2725-.4829-.4775s-.1748-.4355-.1748-.6924,.0581-.4863,.1748-.6895c.1167-.2041,.2778-.3623,.4829-.4756,.2046-.1133,.4375-.1699,.6973-.1699,.2266,0,.4292,.0439,.6074,.1328,.1782,.0879,.3193,.2178,.4224,.3877l-.2646,.1797c-.0869-.1299-.1968-.2275-.3301-.293-.1333-.0645-.2783-.0967-.4351-.0967-.1899,0-.3608,.042-.5127,.127-.1514,.085-.27,.2061-.355,.3623-.085,.1572-.1274,.335-.1274,.5352,0,.2031,.0425,.3828,.1274,.5381,.085,.1543,.2036,.2744,.355,.3594,.1519,.085,.3228,.1279,.5127,.1279,.1567,0,.3018-.0322,.4351-.0947,.1333-.0635,.2432-.1602,.3301-.29l.2646,.1797c-.103,.1699-.2446,.2988-.4248,.3877-.1802,.0879-.3818,.1318-.605,.1318-.2598,0-.4927-.0566-.6973-.1699Z"/><path d="M188.9999,187.6807h-2.2002c.02,.2734,.125,.4941,.3149,.6621,.1899,.1689,.4302,.2529,.7202,.2529,.1631,0,.313-.0293,.4497-.0879,.1367-.0576,.2554-.1436,.355-.2568l.2002,.2295c-.1167,.1396-.2627,.2471-.4375,.3203s-.3677,.1094-.5776,.1094c-.27,0-.5093-.0576-.7173-.1719-.2085-.1152-.3711-.2744-.4878-.4775s-.1748-.4336-.1748-.6904,.0557-.4863,.1675-.6895c.1118-.2041,.2651-.3623,.46-.4756s.4141-.1699,.6577-.1699c.2432,0,.4614,.0566,.6548,.1699s.3452,.2715,.4551,.4727c.1099,.2021,.165,.4326,.165,.6924l-.0049,.1104Zm-1.9077-.8975c-.1719,.1611-.269,.3721-.2925,.6318h1.8652c-.0234-.2598-.1211-.4707-.2925-.6318-.1719-.1621-.3862-.2432-.6426-.2432-.2534,0-.4658,.0811-.6377,.2432Z"/><path d="M189.7445,186.2559h.355v1.165h1.6553v-1.165h.355v2.6299h-.355v-1.1602h-1.6553v1.1602h-.355v-2.6299Z"/></g><g><path d="M206.7128,188.7383c-.2031-.1152-.3633-.2744-.48-.4775s-.1748-.4336-.1748-.6904,.0581-.4863,.1748-.6895c.1167-.2041,.2769-.3623,.48-.4756,.2036-.1133,.4316-.1699,.6851-.1699s.4819,.0566,.6851,.1699c.2036,.1133,.3628,.2715,.4775,.4756,.1152,.2031,.1724,.4326,.1724,.6895s-.0571,.4873-.1724,.6904c-.1147,.2031-.2739,.3623-.4775,.4775-.2031,.1143-.4316,.1719-.6851,.1719s-.4814-.0576-.6851-.1719Zm1.1875-.2705c.1484-.085,.2642-.2051,.3477-.3623,.0835-.1562,.125-.335,.125-.5352s-.0415-.3779-.125-.5352c-.0835-.1562-.1992-.2773-.3477-.3623-.1479-.085-.3154-.127-.5024-.127-.1865,0-.354,.042-.5024,.127s-.2651,.2061-.3501,.3623c-.085,.1572-.1274,.335-.1274,.5352s.0425,.3789,.1274,.5352c.085,.1572,.2017,.2773,.3501,.3623s.3159,.1279,.5024,.1279c.187,0,.3545-.043,.5024-.1279Z"/><path d="M210.3979,187.7159h-.6001v1.1699h-.355v-2.6299h.355v1.1543h.605l.9253-1.1543h.3848l-1.0347,1.2744,1.1099,1.3555h-.4199l-.9702-1.1699Z"/><path d="M214.1479,186.5704h-.9951v2.3154h-.355v-2.3154h-.9951v-.3145h2.3452v.3145Z"/></g><g><path d="M227.7387,186.2559h.355v1.165h1.6553v-1.165h.355v2.6299h-.355v-1.1602h-1.6553v1.1602h-.355v-2.6299Z"/><path d="M231.4687,188.7383c-.2031-.1152-.3633-.2744-.48-.4775s-.1748-.4336-.1748-.6904,.0581-.4863,.1748-.6895c.1167-.2041,.2769-.3623,.48-.4756,.2036-.1133,.4316-.1699,.6851-.1699s.4819,.0566,.6851,.1699c.2036,.1133,.3628,.2715,.4775,.4756,.1152,.2031,.1724,.4326,.1724,.6895s-.0571,.4873-.1724,.6904c-.1147,.2031-.2739,.3623-.4775,.4775-.2031,.1143-.4316,.1719-.6851,.1719s-.4814-.0576-.6851-.1719Zm1.1875-.2705c.1484-.085,.2642-.2051,.3477-.3623,.0835-.1562,.125-.335,.125-.5352s-.0415-.3779-.125-.5352c-.0835-.1562-.1992-.2773-.3477-.3623-.1479-.085-.3154-.127-.5024-.127-.1865,0-.354,.042-.5024,.127s-.2651,.2061-.3501,.3623c-.085,.1572-.1274,.335-.1274,.5352s.0425,.3789,.1274,.5352c.085,.1572,.2017,.2773,.3501,.3623s.3159,.1279,.5024,.1279c.187,0,.3545-.043,.5024-.1279Z"/><path d="M236.2235,186.2559v2.6299h-.3247v-.8701h-.9253l-.6099,.8701h-.3853l.6553-.9199c-.2036-.0566-.3599-.1533-.4702-.29-.1099-.1367-.165-.3105-.165-.5205,0-.293,.1001-.5166,.3003-.6699,.1997-.1533,.4731-.2295,.8198-.2295h1.105Zm-1.1201,1.4951h.7954v-1.1807h-.77c-.5137,0-.77,.1982-.77,.5947,0,.3906,.248,.5859,.7446,.5859Z"/></g><g><path d="M252.4521,188.5753v.9453h-.335v-.6348h-2.355v.6348h-.335v-.9453h.1499c.1768-.0098,.2969-.1396,.3604-.3896,.063-.25,.1064-.5996,.1299-1.0498l.0352-.8799h1.9399v2.3193h.4097Zm-2.1548-.4971c-.0469,.2412-.1299,.4072-.25,.4971h1.6401v-2.0049h-1.2651l-.0303,.585c-.0166,.374-.0483,.6807-.0947,.9229Z"/><path d="M255.3974,187.6807h-2.2002c.02,.2734,.125,.4941,.3149,.6621,.1899,.1689,.4302,.2529,.7202,.2529,.1631,0,.313-.0293,.4497-.0879,.1367-.0576,.2554-.1436,.355-.2568l.2002,.2295c-.1167,.1396-.2627,.2471-.4375,.3203s-.3677,.1094-.5776,.1094c-.27,0-.5093-.0576-.7173-.1719-.2085-.1152-.3711-.2744-.4878-.4775s-.1748-.4336-.1748-.6904,.0557-.4863,.1675-.6895c.1118-.2041,.2651-.3623,.46-.4756s.4141-.1699,.6577-.1699c.2432,0,.4614,.0566,.6548,.1699s.3452,.2715,.4551,.4727c.1099,.2021,.165,.4326,.165,.6924l-.0049,.1104Zm-1.9077-.8975c-.1719,.1611-.269,.3721-.2925,.6318h1.8652c-.0234-.2598-.1211-.4707-.2925-.6318-.1719-.1621-.3862-.2432-.6426-.2432-.2534,0-.4658,.0811-.6377,.2432Z"/><path d="M257.0971,187.7159h-.6001v1.1699h-.355v-2.6299h.355v1.1543h.605l.9253-1.1543h.3848l-1.0347,1.2744,1.1099,1.3555h-.4199l-.9702-1.1699Z"/></g><g><path d="M273.7978,186.2559v2.6299h-.3247v-.8701h-.9253l-.6099,.8701h-.3853l.6553-.9199c-.2036-.0566-.3599-.1533-.4702-.29-.1099-.1367-.165-.3105-.165-.5205,0-.293,.1001-.5166,.3003-.6699,.1997-.1533,.4731-.2295,.8198-.2295h1.105Zm-1.1201,1.4951h.7954v-1.1807h-.77c-.5137,0-.77,.1982-.77,.5947,0,.3906,.248,.5859,.7446,.5859Z"/><path d="M274.7577,186.2559h.355v1.165h1.6553v-1.165h.355v2.6299h-.355v-1.1602h-1.6553v1.1602h-.355v-2.6299Z"/><path d="M280.2924,188.171c0,.2295-.085,.4062-.2549,.5293-.1699,.124-.4233,.1855-.7598,.1855h-1.1953v-2.6299h1.1602c.2998,0,.5352,.0576,.7051,.1748,.1699,.1162,.2549,.2832,.2549,.5,0,.1436-.0391,.2656-.1177,.3672-.0781,.1016-.1875,.1777-.3271,.2275,.3564,.083,.5347,.2988,.5347,.6455Zm-1.8647-.7451h.79c.2031,0,.3589-.0381,.4673-.1152s.1626-.1885,.1626-.335-.0542-.2568-.1626-.3301-.2642-.1104-.4673-.1104h-.79v.8906Zm1.3447,1.0693c.1133-.0732,.1704-.1875,.1704-.3447,0-.1562-.0518-.2725-.1553-.3477s-.2666-.1123-.4897-.1123h-.8701v.915h.835c.2266,0,.3965-.0361,.5098-.1104Z"/></g><line class="cls-3" x1="2.6692" y1="128.9658" x2="275.725" y2="128.9658"/><path class="cls-5" d="M11.3353,129.0496c5.6704,2.4512,6.6178-.794,11.54-.9578,6.1693,.9566,4.6065-2.3202,8.9165-3.8697,4.1153-.7731,8.0758,2.2463,12.0576,1.0259,3.7272-1.7283,8.1224,1.3552,11.2724-2.2895,3.1472-2.8676,5.3837,3.4246,8.722,1.7167,3.4034-2.0808,8.3242,1.9931,8.6748-.0575,1.8226-14.9785,2.0086-30.1874,3.1245-45.2591,.4815-2.2141,.2229-15.6008,2.2364-14.6676,1.3855,1.0067,2.2821,2.6994,3.387,4.0753,3.2462,1.8725,7.4858,.0462,10.9353-.5887,2.7244,.8848,3.2916,14.7975,4.9734,18.2632,.9358,1.5845,3.2692-.4011,4.6503-.4306,2.4748-.7779,3.168,3.1234,4.2667,4.9853,1.3068,3.0484,3.1172,5.629,5.1194,8.0381,1.639,2.211,3.6756,.0743,5.4119-.7749,1.6924-.8237,1.9636-.5081,2.4157,1.2489,.7467,2.9017,1.302,5.8728,1.9544,8.8095,1.4753,5.0483,.2876,8.7647,5.8847,5.5129,1.1279-.4815,2.2309-.2665,3.2498,.4331,2.3997,2.2399,5.329,1.5886,8.1395,1.7623,2.4339,.2349,3.3279,12.4099,5.7298,10.5903,5.7573-13.2611,4.2706-16.224,18.3642-16.3598,3.873-.5355,3.4635-7.0836,5.4175-10.2041l.5604-.5793c2.7803-1.8126,7.5641,8.8805,10.7249,9.5826,5.1138,.8347,5.7988,1.815,7.9358-4.4003,.7616-1.3273,1.0433-3.8324,2.7351-3.7328,2.5456,.2418,5.2802-.2081,7.4409,1.7562,3.0017,2.5692,6.9503,2.6438,9.8312,5.4931,1.3545,1.2989,3.0478,1.5114,4.6191,.7539,5.1777-2.6628,10.9117,1.9768,16.0808-.5326,.8939-.2957,2.4418-1.3364,2.8789,.1926,1.7018,4.3276,1.9539,9.3139,3.8521,13.5475,1.8772,2.6423,3.9966-9.8755,4.9061-11.3493,4.6809-6.5449,13.952,1.2696,19.0899-4.6058,.751-.678,1.6341-1.1597,2.6108-.9834,7.739,.667,8.0726,13.304,14.68,.9397"/></svg>