<?xml version="1.0" encoding="UTF-8"?><svg id="Layer_1" xmlns="http://www.w3.org/2000/svg" viewBox="0 0 339.9832 205.3148"><defs><style>.cls-1{stroke-dasharray:0 0 0 2;}.cls-1,.cls-2,.cls-3,.cls-4{stroke-linecap:round;}.cls-1,.cls-2,.cls-3,.cls-4,.cls-5{fill:none;}.cls-1,.cls-3{opacity:.5;stroke:#858585;stroke-linejoin:round;}.cls-1,.cls-4,.cls-5{stroke-width:.5px;}.cls-6{fill:#f4f4f4;}.cls-7{fill:#858585;}.cls-8{fill:#e30510;}.cls-9{fill:#222;}.cls-10{fill:#585857;}.cls-2{stroke-width:.3px;}.cls-2,.cls-4{stroke:#000;stroke-linejoin:bevel;}.cls-3{stroke-width:.25px;}.cls-5{stroke:#e30510;stroke-miterlimit:10;}</style></defs><rect class="cls-6" x=".2057" width="339.7775" height="205.257"/><g><path class="cls-9" d="M.4965,2.1503h.6396v2.4844l1.8804-2.4844h.605v3.5h-.6401V3.1699l-1.8799,2.4805H.4965V2.1503Z"/><path class="cls-9" d="M7.7313,2.1503v3.5h-.6499v-1.5h-1.8101v1.5h-.6499V2.1503h.6499v1.4453h1.8101v-1.4453h.6499Z"/><path class="cls-9" d="M12.2011,5.1005v1.2949h-.6001v-.7451h-2.6851v.7451h-.605l.0054-1.2949h.1499c.2197-.0107,.374-.1729,.4624-.4873,.0884-.3154,.1426-.7656,.1626-1.3535l.04-1.1094h2.5649v2.9502h.5049Zm-2.6499-.6475c-.0566,.3008-.147,.5176-.27,.6475h1.7749V2.7001h-1.3701l-.0249,.6201c-.0166,.4531-.0532,.8311-.1099,1.1328Z"/><path class="cls-9" d="M15.4564,5.1054v.5449h-2.625V2.1503h2.5547v.5449h-1.9048v.9102h1.6899v.5352h-1.6899v.9648h1.9751Z"/><path class="cls-9" d="M17.4911,4.1757h-.6499v1.4746h-.6396V2.1503h.6396v1.4648h.6699l1.0054-1.4648h.6899l-1.1953,1.6953,1.2402,1.8047h-.7349l-1.0254-1.4746Z"/><path class="cls-9" d="M20.4838,5.4677c-.2852-.1553-.5083-.3691-.6699-.6426-.1621-.2725-.2427-.5811-.2427-.9248s.0815-.6523,.2451-.9248c.1631-.2734,.3872-.4873,.6724-.6426s.604-.2324,.9575-.2324c.2866,0,.5483,.0498,.7852,.1494,.2363,.1006,.4365,.2461,.6001,.4355l-.4204,.3945c-.2534-.2734-.5649-.4102-.9351-.4102-.2397,0-.4546,.0527-.6445,.1582-.1904,.1055-.3384,.25-.4453,.4375-.1064,.1865-.1602,.3984-.1602,.6348s.0537,.4482,.1602,.6348c.1069,.1875,.2549,.332,.4453,.4375,.1899,.1055,.4048,.1582,.6445,.1582,.3701,0,.6816-.1387,.9351-.416l.4204,.4004c-.1636,.1895-.3643,.335-.6025,.4355-.2388,.0996-.501,.1494-.7876,.1494-.3535,0-.6724-.0771-.9575-.2324Z"/><path class="cls-9" d="M27.956,2.1503v3.5h-.6396V2.7001h-1.8154v2.9502h-.6396V2.1503h3.0947Z"/><path class="cls-9" d="M29.6161,5.4677c-.2866-.1553-.5117-.3701-.6748-.6455-.1636-.2744-.2451-.582-.2451-.9219s.0815-.6475,.2451-.9219c.1631-.2754,.3882-.4902,.6748-.6455s.6084-.2324,.9648-.2324c.3569,0,.6782,.0771,.9653,.2324,.2866,.1553,.5112,.3691,.6748,.6426,.1631,.2725,.2451,.5811,.2451,.9248s-.082,.6523-.2451,.9248c-.1636,.2734-.3882,.4873-.6748,.6426-.2871,.1553-.6084,.2324-.9653,.2324-.3564,0-.6782-.0771-.9648-.2324Zm1.5952-.4951c.1865-.1055,.333-.252,.4399-.4395,.1064-.1885,.1597-.3994,.1597-.6328s-.0532-.4443-.1597-.6328c-.1069-.1875-.2534-.334-.4399-.4395-.187-.1055-.397-.1582-.6304-.1582s-.4434,.0527-.6299,.1582-.3335,.252-.4399,.4395c-.1069,.1885-.1602,.3994-.1602,.6328s.0532,.4443,.1602,.6328c.1064,.1875,.2534,.334,.4399,.4395s.3965,.1582,.6299,.1582,.4434-.0527,.6304-.1582Z"/><path class="cls-9" d="M35.7455,2.7001h-1.1597v2.9502h-.645V2.7001h-1.1553v-.5498h2.96v.5498Z"/><path class="cls-9" d="M38.5585,2.3007c.2246,.0996,.3975,.2432,.5176,.4297,.1196,.1865,.1797,.4082,.1797,.665,0,.2529-.0601,.4736-.1797,.6631-.1201,.1875-.293,.332-.5176,.4316-.2251,.0996-.4893,.1504-.7925,.1504h-.79v1.0098h-.6499V2.1503h1.4399c.3032,0,.5674,.0498,.7925,.1504Zm-.1777,1.6094c.1465-.1191,.2202-.291,.2202-.5146s-.0737-.3955-.2202-.5146c-.1465-.1211-.3618-.1807-.645-.1807h-.7598v1.3896h.7598c.2832,0,.4985-.0596,.645-.1797Z"/><path class="cls-9" d="M42.5663,5.1054v.5449h-2.625V2.1503h2.5547v.5449h-1.9048v.9102h1.6899v.5352h-1.6899v.9648h1.9751Z"/><path class="cls-9" d="M43.3158,2.1503h2.7251v.5352h-2.0854v.8594h1.0352c.4199,0,.7393,.0879,.9575,.2637,.2183,.1738,.3276,.4268,.3276,.7568,0,.3467-.1201,.6143-.3599,.8018-.2402,.1895-.582,.2832-1.0254,.2832h-1.5747V2.1503Zm1.54,3c.25,0,.4399-.0488,.5698-.1445,.1299-.0977,.1948-.2373,.1948-.4199,0-.3604-.2549-.541-.7646-.541h-.9004v1.1055h.9004Z"/><path class="cls-9" d="M47.0111,2.1503h.6396v2.4844l1.8804-2.4844h.605v3.5h-.6401V3.1699l-1.8799,2.4805h-.605V2.1503Z"/><path class="cls-9" d="M53.6757,2.7001h-1.1597v2.9502h-.645V2.7001h-1.1553v-.5498h2.96v.5498Z"/><path class="cls-9" d="M56.8808,5.1054v.5449h-2.625V2.1503h2.5547v.5449h-1.9048v.9102h1.6899v.5352h-1.6899v.9648h1.9751Z"/><path class="cls-9" d="M60.6156,2.1503v3.5h-.6401V2.7001h-1.3799l-.0298,.875c-.0171,.4902-.0571,.8877-.1201,1.1924-.0635,.3047-.165,.5371-.3052,.6953-.1396,.1582-.333,.2373-.5801,.2373-.0864,0-.2046-.0166-.355-.0498l.0454-.5645c.043,.0127,.0933,.0195,.1499,.0195,.2031,0,.3472-.1211,.4321-.3633,.0854-.2402,.1377-.6211,.1577-1.1416l.0498-1.4502h2.5752Z"/><path class="cls-9" d="M64.203,3.6171c.2251,.1895,.3379,.4688,.3379,.8379,0,.3867-.1235,.6826-.3701,.8877s-.5933,.3076-1.04,.3076h-1.5049V2.1503h.6396v1.1855h.9702c.4199,0,.7427,.0938,.9673,.2812Zm-.5171,1.3584c.1362-.1162,.2046-.2861,.2046-.5107,0-.4229-.2632-.6348-.7896-.6348h-.8354v1.3203h.8354c.2529,0,.4482-.0586,.585-.1748Z"/><path class="cls-9" d="M65.8783,5.4677c-.2852-.1553-.5083-.3691-.6699-.6426-.1621-.2725-.2427-.5811-.2427-.9248s.0815-.6523,.2451-.9248c.1631-.2734,.3872-.4873,.6724-.6426s.604-.2324,.9575-.2324c.2866,0,.5483,.0498,.7852,.1494,.2363,.1006,.4365,.2461,.6001,.4355l-.4204,.3945c-.2534-.2734-.5649-.4102-.9351-.4102-.2397,0-.4546,.0527-.6445,.1582-.1904,.1055-.3384,.25-.4453,.4375-.1064,.1865-.1602,.3984-.1602,.6348s.0537,.4482,.1602,.6348c.1069,.1875,.2549,.332,.4453,.4375,.1899,.1055,.4048,.1582,.6445,.1582,.3701,0,.6816-.1387,.9351-.416l.4204,.4004c-.1636,.1895-.3643,.335-.6025,.4355-.2388,.0996-.501,.1494-.7876,.1494-.3535,0-.6724-.0771-.9575-.2324Z"/><path class="cls-9" d="M70.1405,4.1757h-.6499v1.4746h-.6396V2.1503h.6396v1.4648h.6699l1.0054-1.4648h.6899l-1.1953,1.6953,1.2402,1.8047h-.7349l-1.0254-1.4746Z"/><path class="cls-9" d="M72.4857,2.1503h.6396v2.4844l1.8804-2.4844h.605v3.5h-.6401V3.1699l-1.8799,2.4805h-.605V2.1503Z"/><path class="cls-9" d="M77.0155,2.1503l.8252,1.1699,.8247-1.1699h.7603l-1.1753,1.6797,1.27,1.8203h-.77l-.9097-1.2754-.9053,1.2754h-.75l1.2651-1.7949-1.1851-1.7051h.75Z"/><path class="cls-9" d="M85.0653,5.1005v1.3193h-.6001v-.7695h-2.9697V2.1503h.6396v2.9502h1.7651V2.1503h.645v2.9502h.52Z"/><path class="cls-9" d="M88.3056,5.1054v.5449h-2.625V2.1503h2.5547v.5449h-1.9048v.9102h1.6899v.5352h-1.6899v.9648h1.9751Z"/><path class="cls-9" d="M92.1605,2.1503v3.5h-.6499v-1.5h-1.8101v1.5h-.6499V2.1503h.6499v1.4453h1.8101v-1.4453h.6499Z"/></g><line class="cls-1" x1="2.8105" y1="169.4554" x2="2.8105" y2="19.6054"/><line class="cls-1" x1="11.6259" y1="169.4554" x2="11.6259" y2="19.6054"/><line class="cls-1" x1="20.4405" y1="169.4554" x2="20.4405" y2="19.6054"/><line class="cls-1" x1="29.2559" y1="178.9137" x2="29.2559" y2="26.6057"/><line class="cls-1" x1="38.0712" y1="169.4554" x2="38.0712" y2="19.6054"/><line class="cls-1" x1="46.8861" y1="169.4554" x2="46.8861" y2="19.6054"/><line class="cls-1" x1="55.7014" y1="169.4554" x2="55.7014" y2="19.6054"/><line class="cls-1" x1="64.5168" y1="178.9137" x2="64.5168" y2="26.6057"/><line class="cls-1" x1="73.3317" y1="169.4554" x2="73.3317" y2="19.6054"/><line class="cls-1" x1="82.147" y1="169.4554" x2="82.147" y2="19.6054"/><line class="cls-1" x1="90.9621" y1="169.4554" x2="90.9621" y2="19.6054"/><line class="cls-1" x1="99.777" y1="178.9137" x2="99.777" y2="26.6057"/><line class="cls-1" x1="108.5924" y1="169.4554" x2="108.5924" y2="19.6054"/><line class="cls-1" x1="117.4077" y1="169.4554" x2="117.4077" y2="19.6054"/><line class="cls-1" x1="126.2226" y1="169.4554" x2="126.2226" y2="19.6054"/><line class="cls-1" x1="135.0379" y1="178.9137" x2="135.0379" y2="26.6057"/><line class="cls-1" x1="143.8533" y1="169.4554" x2="143.8533" y2="19.6054"/><line class="cls-1" x1="152.6682" y1="169.4554" x2="152.6682" y2="19.6054"/><line class="cls-1" x1="161.4833" y1="169.4554" x2="161.4833" y2="19.6054"/><line class="cls-1" x1="170.2986" y1="178.9137" x2="170.2986" y2="26.6057"/><line class="cls-1" x1="179.1135" y1="169.4554" x2="179.1135" y2="50.6054"/><line class="cls-1" x1="187.9289" y1="169.4554" x2="187.9289" y2="50.6054"/><line class="cls-1" x1="196.7442" y1="169.4554" x2="196.7442" y2="49.6054"/><line class="cls-1" x1="205.559" y1="178.9137" x2="205.559" y2="56.6057"/><line class="cls-1" x1="214.3744" y1="169.4554" x2="214.3744" y2="49.6054"/><line class="cls-1" x1="223.1898" y1="169.4554" x2="223.1898" y2="49.6054"/><line class="cls-1" x1="232.0045" y1="169.4554" x2="232.0045" y2="49.6054"/><line class="cls-1" x1="240.8198" y1="178.9137" x2="240.8198" y2="56.6057"/><line class="cls-1" x1="249.6351" y1="169.4554" x2="249.6351" y2="49.6054"/><line class="cls-1" x1="258.4499" y1="169.4554" x2="258.4499" y2="49.6054"/><line class="cls-1" x1="267.2654" y1="169.4554" x2="267.2654" y2="49.6054"/><line class="cls-1" x1="276.0807" y1="178.9137" x2="276.0807" y2="56.6057"/><polyline class="cls-4" points="2.998 115.4123 11.7868 109.1053 20.5766 108.3963 29.3655 97.9793 38.1552 61.5543 46.9441 63.6093 55.7338 64.2473 64.5227 70.6963 73.3116 104.8533 81.9707 110.1683 90.7595 113.1443 99.6799 118.9553 108.4688 125.0813 117.2586 127.6723 126.0474 132.1373 134.8363 136.6013 143.6261 138.7273 152.2842 137.8063 161.2047 134.6883 169.9936 129.7983 178.7833 122.5703 187.5722 123.2783 196.2304 127.0343 205.1508 131.5703 213.9396 137.4523 222.7294 134.1213 231.5183 131.5703 240.308 126.7513 249.0969 120.5153 257.8866 117.8223 266.6755 113.2863 275.4644 105.4203"/><polyline class="cls-5" points="2.998 110.7356 11.7868 98.6886 20.5766 92.8776 29.3655 77.8536 38.1552 27.8926 46.8134 38.7356 55.6032 51.2786 64.5227 63.4676 73.3116 112.2946 82.232 119.2396 90.8902 116.2626 99.6799 122.4996 108.4688 130.0106 117.2586 128.3106 126.0474 135.0426 134.8363 143.9716 143.6261 145.6726 152.2842 148.6486 161.074 142.1296 169.9936 131.2866 178.7833 119.1686 187.5722 117.8216 196.3611 122.8396 205.1508 131.0036 213.9396 139.6766 222.7294 131.3426 231.5183 127.3746 240.308 119.6646 249.0969 110.0266 257.8866 110.7636 266.6755 106.3416 275.4644 91.6406"/><line class="cls-2" x1="3.1118" y1="151.2473" x2="276.2238" y2="151.2473"/><line class="cls-3" x1="29.2559" y1="198.7155" x2="29.2559" y2="19.6057"/><line class="cls-3" x1="64.5168" y1="198.7155" x2="64.5168" y2="19.6057"/><line class="cls-3" x1="99.777" y1="198.7155" x2="99.777" y2="19.6057"/><line class="cls-3" x1="135.0379" y1="198.7155" x2="135.0379" y2="19.6057"/><line class="cls-3" x1="170.2986" y1="198.7155" x2="170.2986" y2="19.6057"/><line class="cls-3" x1="205.559" y1="198.7155" x2="205.559" y2="49.6057"/><line class="cls-3" x1="240.8198" y1="198.7155" x2="240.8198" y2="49.6057"/><line class="cls-3" x1="276.0807" y1="198.7155" x2="276.0807" y2="49.6057"/><path class="cls-8" d="M178.2028,21.6218c0-1.1094,.899-2.0084,2.0084-2.0084h6.8271c1.1094,0,2.0084,.899,2.0084,2.0084s-.899,2.0084-2.0084,2.0084h-6.8271c-1.1094,0-2.0084-.899-2.0084-2.0084"/><g><path d="M193.2943,19.4052h.3604v2.8662l2.2148-2.8662h.3311v3.46h-.3608v-2.8623l-2.2144,2.8623h-.3311v-3.46Z"/><path d="M197.2826,20.2646h.3511v1.1523h1.6362v-1.1523h.3511v2.6006h-.3511v-1.1475h-1.6362v1.1475h-.3511v-2.6006Z"/><path d="M203.3578,22.5136c-.2671,.2314-.6445,.3564-1.1323,.376v.9346h-.3408v-.9297c-.4844-.0195-.8594-.1455-1.1245-.3779s-.3979-.5508-.3979-.9561c0-.4023,.1328-.7168,.3979-.9443s.6401-.3516,1.1245-.3711v-1.0479h.3408v1.0479c.4878,.0234,.8652,.1484,1.1323,.376,.2666,.2275,.4004,.54,.4004,.9395,0,.4053-.1338,.7227-.4004,.9531Zm-2.3506-.2266c.1992,.1738,.4917,.2734,.8774,.2959v-2.0264c-.3823,.0195-.6738,.1162-.875,.2891s-.3013,.4111-.3013,.7148c0,.3096,.0996,.5518,.2988,.7266Zm2.1006,.0049c.2026-.1748,.3042-.4189,.3042-.7314,0-.3066-.1016-.5459-.3042-.7168-.2026-.1719-.4966-.2676-.8823-.2871v2.0264c.3857-.0195,.6797-.1162,.8823-.291Z"/><path d="M206.6244,20.2646v2.6006h-.3506v-2.2891h-1.2456l-.0347,.6426c-.0264,.541-.0889,.9561-.188,1.2461-.0986,.29-.2754,.4346-.5288,.4346-.0693,0-.1533-.0127-.252-.0391l.0244-.3018c.0596,.0127,.1006,.0195,.1235,.0195,.1353,0,.2373-.0625,.3066-.1875s.1152-.2803,.1382-.4648c.0234-.1846,.043-.4287,.0596-.7314l.0444-.9297h1.9028Z"/><path d="M209.62,20.2646v2.6006h-.3213v-.8604h-.9146l-.603,.8604h-.3804l.6475-.9102c-.2012-.0557-.356-.1514-.4648-.2861-.1084-.1348-.1631-.3066-.1631-.5146,0-.2891,.0991-.5107,.2969-.6621s.4678-.2275,.8105-.2275h1.0923Zm-1.1069,1.4785h.7856v-1.167h-.7612c-.5073,0-.7612,.1963-.7612,.5889,0,.3848,.2456,.5781,.7368,.5781Z"/><path d="M213.3271,22.5585v.959h-.3311v-.6523h-2.3779v-2.6006h.3511v2.2939h1.5869v-2.2939h.3506v2.2939h.4204Z"/><path d="M213.9989,20.2646h.3511v2.0664l1.7349-2.0664h.3115v2.6006h-.3511v-2.0664l-1.73,2.0664h-.3164v-2.6006Z"/><path d="M219.3969,20.2646v2.6006h-.3213v-.8604h-.9146l-.603,.8604h-.3804l.6475-.9102c-.2012-.0557-.356-.1514-.4648-.2861-.1084-.1348-.1631-.3066-.1631-.5146,0-.2891,.0991-.5107,.2969-.6621s.4678-.2275,.8105-.2275h1.0923Zm-1.1069,1.4785h.7856v-1.167h-.7612c-.5073,0-.7612,.1963-.7612,.5889,0,.3848,.2456,.5781,.7368,.5781Z"/><path d="M221.6898,20.2646h.3511v1.1523h1.6362v-1.1523h.3511v2.6006h-.3511v-1.1475h-1.6362v1.1475h-.3511v-2.6006Z"/><path d="M226.7021,20.4999c.1812,.1699,.272,.4209,.272,.7539v1.6113h-.3359v-.4053c-.0791,.1348-.1953,.2402-.3486,.3164-.1533,.0752-.3354,.1133-.5464,.1133-.29,0-.5205-.0693-.6919-.208-.1714-.1377-.2568-.3213-.2568-.5479,0-.2207,.0796-.3994,.2397-.5342,.1597-.1348,.4141-.2031,.7637-.2031h.8252v-.1572c0-.2246-.0625-.3955-.188-.5117-.125-.1172-.3081-.1758-.5483-.1758-.165,0-.3232,.0273-.4746,.0811-.1514,.0547-.2817,.1299-.3906,.2256l-.1582-.2617c.1318-.1123,.29-.1992,.4746-.2598,.1846-.0615,.3789-.0918,.5835-.0918,.3394,0,.5996,.085,.7808,.2549Zm-.3955,1.9766c.1416-.0898,.2471-.2207,.3164-.3926v-.4248h-.8154c-.4448,0-.6675,.1543-.6675,.4648,0,.1514,.0576,.2705,.1733,.3574,.1152,.0879,.2764,.1318,.4844,.1318,.1978,0,.3672-.0459,.5088-.1367Z"/><path d="M231.536,20.2646v2.6006h-.3506v-2.2891h-1.6313v2.2891h-.3511v-2.6006h2.333Z"/><path d="M234.5365,20.4111c.1978,.1104,.3525,.2656,.4648,.4668,.1118,.2012,.168,.4297,.168,.6875,0,.2598-.0562,.4902-.168,.6914-.1123,.2012-.2661,.3564-.4624,.4668-.1958,.1113-.4175,.166-.6646,.166-.2109,0-.4014-.0439-.5708-.1309-.1699-.0869-.3091-.2148-.418-.3828v1.4482h-.3511v-3.5596h.3364v.5146c.1055-.1719,.2446-.3037,.4175-.3955,.1729-.0928,.3682-.1387,.5859-.1387,.2437,0,.4644,.0557,.6621,.166Zm-.1929,2.041c.1484-.084,.2646-.2031,.3486-.3584,.084-.1543,.126-.3311,.126-.5283,0-.1982-.042-.374-.126-.5264-.084-.1533-.2002-.2734-.3486-.3584-.1479-.0859-.313-.1289-.4941-.1289-.1846,0-.3501,.043-.4966,.1289-.147,.085-.2622,.2051-.3462,.3584-.084,.1523-.126,.3281-.126,.5264,0,.1973,.042,.374,.126,.5283,.084,.1553,.1992,.2744,.3462,.3584,.1465,.084,.312,.126,.4966,.126,.1812,0,.3462-.042,.4941-.126Z"/><path d="M236.3207,22.7187c-.2007-.1133-.3589-.2705-.4746-.4717-.1152-.2012-.1729-.4287-.1729-.6816,0-.2539,.0576-.4814,.1729-.6826,.1157-.2012,.2739-.3574,.4746-.4697,.2012-.1113,.4268-.168,.6772-.168s.4761,.0566,.6772,.168c.2012,.1123,.3584,.2686,.4722,.4697s.1704,.4287,.1704,.6826c0,.2529-.0566,.4805-.1704,.6816s-.271,.3584-.4722,.4717c-.2012,.1143-.4268,.1709-.6772,.1709s-.4761-.0566-.6772-.1709Zm1.1738-.2666c.147-.084,.2612-.2031,.3438-.3584,.0825-.1543,.1235-.3311,.1235-.5283,0-.1982-.041-.374-.1235-.5293s-.1968-.2744-.3438-.3584c-.1465-.084-.312-.126-.4966-.126s-.3501,.042-.4966,.126c-.147,.084-.2622,.2031-.3462,.3584s-.126,.3311-.126,.5293c0,.1973,.042,.374,.126,.5283,.084,.1553,.1992,.2744,.3462,.3584,.1465,.084,.312,.126,.4966,.126s.3501-.042,.4966-.126Z"/><path d="M241.6049,22.5585v.9346h-.3315v-.6279h-2.3281v.6279h-.3311v-.9346h.1484c.1743-.0098,.293-.1387,.356-.3857,.0625-.2471,.1055-.5928,.1284-1.0381l.0347-.8701h1.9175v2.2939h.4058Zm-2.1304-.4922c-.0464,.2393-.1289,.4033-.2476,.4922h1.6216v-1.9824h-1.2505l-.0298,.5781c-.0166,.3691-.0479,.6738-.0938,.9121Z"/><path d="M244.496,20.2646l-1.2998,2.9121c-.1055,.2432-.2275,.416-.3657,.5186s-.3047,.1533-.499,.1533c-.1255,0-.2422-.0195-.3511-.0596-.1089-.0391-.2026-.0986-.2817-.1777l.1631-.2617c.1318,.1318,.29,.1973,.4746,.1973,.1187,0,.2197-.0332,.3037-.0986,.084-.0664,.1626-.1777,.2349-.3359l.1138-.252-1.1616-2.5957h.3657l.9785,2.21,.979-2.21h.3457Z"/><path d="M245.9892,21.708h-.5933v1.1572h-.3511v-2.6006h.3511v1.1426h.5981l.9146-1.1426h.3804l-1.0229,1.2607,1.0972,1.3398h-.415l-.959-1.1572Z"/><path d="M249.7455,20.5761h-.9839v2.2891h-.3506v-2.2891h-.9839v-.3115h2.3184v.3115Z"/><path d="M252.0932,21.4023c.1714,.1416,.2573,.3457,.2573,.6123,0,.2773-.0923,.4893-.2769,.6377s-.4482,.2207-.791,.2178l-1.0283-.0049v-2.6006h.3511v.9102l.7417,.0098c.3262,.0029,.5747,.0752,.7461,.2178Zm-.2842,1.0547c.1235-.1006,.1855-.248,.1855-.4424,0-.1904-.061-.333-.1831-.4248-.1221-.0928-.3047-.1406-.5483-.1436l-.6577-.0098v1.1562l.6577,.0098c.2402,.0039,.4224-.0449,.5459-.1455Zm.9761-2.1924h.3511v2.6006h-.3511v-2.6006Z"/><path d="M195.5429,26.1962v2.6006h-.3506v-2.2891h-1.6313v2.2891h-.3511v-2.6006h2.333Z"/><path d="M196.5414,26.1962h.3511v2.0664l1.7349-2.0664h.3115v2.6006h-.3511v-2.0664l-1.73,2.0664h-.3164v-2.6006Z"/><path d="M201.7709,26.5078h-.9839v2.2891h-.3506v-2.2891h-.9839v-.3115h2.3184v.3115Z"/><path d="M203.9555,26.4316c.1812,.1699,.272,.4209,.272,.7539v1.6113h-.3359v-.4053c-.0791,.1348-.1953,.2402-.3486,.3164-.1533,.0752-.3354,.1133-.5464,.1133-.29,0-.5205-.0693-.6919-.208-.1714-.1377-.2568-.3213-.2568-.5479,0-.2207,.0796-.3994,.2397-.5342,.1597-.1348,.4141-.2031,.7637-.2031h.8252v-.1572c0-.2246-.0625-.3955-.188-.5117-.125-.1172-.3081-.1758-.5483-.1758-.165,0-.3232,.0273-.4746,.0811-.1514,.0547-.2817,.1299-.3906,.2256l-.1582-.2617c.1318-.1123,.29-.1992,.4746-.2598,.1846-.0615,.3789-.0918,.5835-.0918,.3394,0,.5996,.085,.7808,.2549Zm-.3955,1.9766c.1416-.0898,.2471-.2207,.3164-.3926v-.4248h-.8154c-.4448,0-.6675,.1543-.6675,.4648,0,.1514,.0576,.2705,.1733,.3574,.1152,.0879,.2764,.1318,.4844,.1318,.1978,0,.3672-.0459,.5088-.1367Z"/><path d="M205.1615,26.1962h.3511v1.1523h1.6362v-1.1523h.3511v2.6006h-.3511v-1.1475h-1.6362v1.1475h-.3511v-2.6006Z"/><path d="M208.498,26.1962h.3511v2.0664l1.7349-2.0664h.3115v2.6006h-.3511v-2.0664l-1.73,2.0664h-.3164v-2.6006Z"/><path d="M213.8959,26.1962v2.6006h-.3213v-.8604h-.9146l-.603,.8604h-.3804l.6475-.9102c-.2012-.0557-.356-.1514-.4648-.2861-.1084-.1348-.1631-.3066-.1631-.5146,0-.2891,.0991-.5107,.2969-.6621s.4678-.2275,.8105-.2275h1.0923Zm-1.1069,1.4785h.7856v-1.167h-.7612c-.5073,0-.7612,.1963-.7612,.5889,0,.3848,.2456,.5781,.7368,.5781Z"/><path d="M215.1117,28.3593c.0493,.0508,.0742,.1143,.0742,.1904,0,.0391-.0059,.082-.0176,.1279-.0112,.0469-.0288,.0996-.0518,.1582l-.2075,.6826h-.2373l.168-.7168c-.0527-.0166-.0957-.0469-.1284-.0918-.0332-.0439-.0493-.0977-.0493-.1602,0-.0762,.0244-.1396,.0737-.1904,.0498-.0508,.1123-.0771,.188-.0771s.1387,.0264,.188,.0771Z"/><path d="M219.0756,26.5078h-1.4878v2.2891h-.3511v-2.6006h1.8389v.3115Z"/><path d="M219.9799,28.6503c-.2007-.1133-.3589-.2705-.4746-.4717-.1152-.2012-.1729-.4287-.1729-.6816,0-.2539,.0576-.4814,.1729-.6826,.1157-.2012,.2739-.3574,.4746-.4697,.2012-.1113,.4268-.168,.6772-.168s.4761,.0566,.6772,.168c.2012,.1123,.3584,.2686,.4722,.4697s.1704,.4287,.1704,.6826c0,.2529-.0566,.4805-.1704,.6816s-.271,.3584-.4722,.4717c-.2012,.1143-.4268,.1709-.6772,.1709s-.4761-.0566-.6772-.1709Zm1.1738-.2666c.147-.084,.2612-.2031,.3438-.3584,.0825-.1543,.1235-.3311,.1235-.5283,0-.1982-.041-.374-.1235-.5293s-.1968-.2744-.3438-.3584c-.1465-.084-.312-.126-.4966-.126s-.3501,.042-.4966,.126c-.147,.084-.2622,.2031-.3462,.3584s-.126,.3311-.126,.5293c0,.1973,.042,.374,.126,.5283,.084,.1553,.1992,.2744,.3462,.3584,.1465,.084,.312,.126,.4966,.126s.3501-.042,.4966-.126Z"/><path d="M225.2641,28.4902v.9346h-.3315v-.6279h-2.3281v.6279h-.3311v-.9346h.1484c.1743-.0098,.293-.1387,.356-.3857,.0625-.2471,.1055-.5928,.1284-1.0381l.0347-.8701h1.9175v2.2939h.4058Zm-2.1304-.4922c-.0464,.2393-.1289,.4033-.2476,.4922h1.6216v-1.9824h-1.2505l-.0298,.5781c-.0166,.3691-.0479,.6738-.0938,.9121Z"/><path d="M228.185,27.6396h-.5933v1.1572h-.3511v-2.6006h.3511v1.1426h.5981l.9146-1.1426h.3804l-1.0229,1.2607,1.0972,1.3398h-.415l-.959-1.1572Z"/><path d="M233.246,26.5078h-1.4878v2.2891h-.3511v-2.6006h1.8389v.3115Z"/><path d="M234.1503,28.6503c-.2007-.1133-.3589-.2705-.4746-.4717-.1152-.2012-.1729-.4287-.1729-.6816,0-.2539,.0576-.4814,.1729-.6826,.1157-.2012,.2739-.3574,.4746-.4697,.2012-.1113,.4268-.168,.6772-.168s.4761,.0566,.6772,.168c.2012,.1123,.3584,.2686,.4722,.4697s.1704,.4287,.1704,.6826c0,.2529-.0566,.4805-.1704,.6816s-.271,.3584-.4722,.4717c-.2012,.1143-.4268,.1709-.6772,.1709s-.4761-.0566-.6772-.1709Zm1.1738-.2666c.147-.084,.2612-.2031,.3438-.3584,.0825-.1543,.1235-.3311,.1235-.5283,0-.1982-.041-.374-.1235-.5293s-.1968-.2744-.3438-.3584c-.1465-.084-.312-.126-.4966-.126s-.3501,.042-.4966,.126c-.147,.084-.2622,.2031-.3462,.3584s-.126,.3311-.126,.5293c0,.1973,.042,.374,.126,.5283,.084,.1553,.1992,.2744,.3462,.3584,.1465,.084,.312,.126,.4966,.126s.3501-.042,.4966-.126Z"/><path d="M239.4345,28.4902v.9346h-.3315v-.6279h-2.3281v.6279h-.3311v-.9346h.1484c.1743-.0098,.293-.1387,.356-.3857,.0625-.2471,.1055-.5928,.1284-1.0381l.0347-.8701h1.9175v2.2939h.4058Zm-2.1304-.4922c-.0464,.2393-.1289,.4033-.2476,.4922h1.6216v-1.9824h-1.2505l-.0298,.5781c-.0166,.3691-.0479,.6738-.0938,.9121Z"/><path d="M242.3256,26.1962l-1.2998,2.9121c-.1055,.2432-.2275,.416-.3657,.5186s-.3047,.1533-.499,.1533c-.1255,0-.2422-.0195-.3511-.0596-.1089-.0391-.2026-.0986-.2817-.1777l.1631-.2617c.1318,.1318,.29,.1973,.4746,.1973,.1187,0,.2197-.0332,.3037-.0986,.084-.0664,.1626-.1777,.2349-.3359l.1138-.252-1.1616-2.5957h.3657l.9785,2.21,.979-2.21h.3457Z"/><path d="M243.0922,28.3593c.0493,.0508,.0742,.1143,.0742,.1904,0,.0391-.0059,.082-.0176,.1279-.0112,.0469-.0288,.0996-.0518,.1582l-.2075,.6826h-.2373l.168-.7168c-.0527-.0166-.0957-.0469-.1284-.0918-.0332-.0439-.0493-.0977-.0493-.1602,0-.0762,.0244-.1396,.0737-.1904,.0498-.0508,.1123-.0771,.188-.0771s.1387,.0264,.188,.0771Z"/><path d="M245.141,26.9306c-.1436-.1729-.2153-.3994-.2153-.6797s.0718-.5068,.2153-.6797c.1431-.1729,.3315-.2598,.5659-.2598,.2305,0,.4185,.0859,.5635,.2578,.145,.1709,.2173,.3984,.2173,.6816s-.0723,.5107-.2173,.6826c-.145,.1709-.333,.2568-.5635,.2568-.2344,0-.4229-.0869-.5659-.2598Zm.9536-.1533c.0972-.127,.146-.3018,.146-.5264,0-.2236-.0488-.3994-.146-.5264s-.2266-.1904-.3877-.1904c-.165,0-.2949,.0645-.3906,.1934-.0957,.1279-.1436,.3027-.1436,.5234s.0479,.3955,.1436,.5244c.0957,.1279,.2256,.1924,.3906,.1924,.1611,0,.2905-.0635,.3877-.1904Zm1.708-1.4404h.2915l-2.3628,3.46h-.2915l2.3628-3.46Zm-.5391,3.2246c-.145-.1729-.2173-.3994-.2173-.6797,0-.2793,.0723-.5059,.2173-.6797,.145-.1729,.333-.2588,.5635-.2588,.2339,0,.4229,.0859,.5659,.2588,.1436,.1738,.2153,.4004,.2153,.6797,0,.2803-.0718,.5068-.2153,.6797-.1431,.1729-.332,.2598-.5659,.2598-.2305,0-.4185-.0869-.5635-.2598Zm.9541-.1553c.0957-.1289,.1436-.3037,.1436-.5244s-.0479-.3955-.1436-.5234c-.0957-.1289-.2256-.1934-.3906-.1934-.1611,0-.2905,.0635-.3877,.1904s-.146,.3027-.146,.5264c0,.2246,.0488,.4004,.146,.5264,.0972,.127,.2266,.1904,.3877,.1904,.165,0,.2949-.0645,.3906-.1924Z"/></g><path class="cls-10" d="M178.2028,36.1239c0-1.1094,.899-2.0084,2.0084-2.0084h6.8271c1.1094,0,2.0084,.899,2.0084,2.0084s-.899,2.0084-2.0084,2.0084h-6.8271c-1.1094,0-2.0084-.899-2.0084-2.0084"/><g><path d="M193.2943,33.9072h.3604v2.8662l2.2148-2.8662h.3311v3.46h-.3608v-2.8623l-2.2144,2.8623h-.3311v-3.46Z"/><path d="M197.2826,34.7665h.3511v1.1523h1.6362v-1.1523h.3511v2.6006h-.3511v-1.1475h-1.6362v1.1475h-.3511v-2.6006Z"/><path d="M203.3578,37.0156c-.2671,.2314-.6445,.3564-1.1323,.376v.9346h-.3408v-.9297c-.4844-.0195-.8594-.1455-1.1245-.3779s-.3979-.5508-.3979-.9561c0-.4023,.1328-.7168,.3979-.9443s.6401-.3516,1.1245-.3711v-1.0479h.3408v1.0479c.4878,.0234,.8652,.1484,1.1323,.376,.2666,.2275,.4004,.54,.4004,.9395,0,.4053-.1338,.7227-.4004,.9531Zm-2.3506-.2266c.1992,.1738,.4917,.2734,.8774,.2959v-2.0264c-.3823,.0195-.6738,.1162-.875,.2891s-.3013,.4111-.3013,.7148c0,.3096,.0996,.5518,.2988,.7266Zm2.1006,.0049c.2026-.1748,.3042-.4189,.3042-.7314,0-.3066-.1016-.5459-.3042-.7168-.2026-.1719-.4966-.2676-.8823-.2871v2.0264c.3857-.0195,.6797-.1162,.8823-.291Z"/><path d="M206.6249,34.7665v2.6006h-.3506v-2.2891h-1.2456l-.0347,.6426c-.0264,.541-.0889,.9561-.188,1.2461-.0986,.29-.2754,.4346-.5288,.4346-.0693,0-.1533-.0127-.252-.0391l.0244-.3018c.0596,.0127,.1006,.0195,.1235,.0195,.1353,0,.2373-.0625,.3066-.1875s.1152-.2803,.1382-.4648c.0234-.1846,.043-.4287,.0596-.7314l.0444-.9297h1.9028Z"/><path d="M209.62,34.7665v2.6006h-.3213v-.8604h-.9146l-.603,.8604h-.3804l.6475-.9102c-.2012-.0557-.356-.1514-.4648-.2861-.1084-.1348-.1631-.3066-.1631-.5146,0-.2891,.0991-.5107,.2969-.6621s.4678-.2275,.8105-.2275h1.0923Zm-1.1069,1.4785h.7856v-1.167h-.7612c-.5073,0-.7612,.1963-.7612,.5889,0,.3848,.2456,.5781,.7368,.5781Z"/><path d="M213.3275,37.0605v.959h-.3311v-.6523h-2.3779v-2.6006h.3511v2.2939h1.5869v-2.2939h.3506v2.2939h.4204Z"/><path d="M213.9994,34.7665h.3511v2.0664l1.7349-2.0664h.3115v2.6006h-.3511v-2.0664l-1.73,2.0664h-.3164v-2.6006Z"/><path d="M219.3969,34.7665v2.6006h-.3213v-.8604h-.9146l-.603,.8604h-.3804l.6475-.9102c-.2012-.0557-.356-.1514-.4648-.2861-.1084-.1348-.1631-.3066-.1631-.5146,0-.2891,.0991-.5107,.2969-.6621s.4678-.2275,.8105-.2275h1.0923Zm-1.1069,1.4785h.7856v-1.167h-.7612c-.5073,0-.7612,.1963-.7612,.5889,0,.3848,.2456,.5781,.7368,.5781Z"/><path d="M220.6132,36.9296c.0493,.0508,.0742,.1143,.0742,.1904,0,.0391-.0059,.082-.0176,.1279-.0112,.0469-.0288,.0996-.0518,.1582l-.2075,.6826h-.2373l.168-.7168c-.0527-.0166-.0957-.0469-.1284-.0918-.0332-.0439-.0493-.0977-.0493-.1602,0-.0762,.0244-.1396,.0737-.1904,.0498-.0508,.1123-.0771,.188-.0771s.1387,.0264,.188,.0771Z"/><path d="M224.5771,35.0781h-1.4878v2.2891h-.3511v-2.6006h1.8389v.3115Z"/><path d="M225.4813,37.2207c-.2007-.1133-.3589-.2705-.4746-.4717-.1152-.2012-.1729-.4287-.1729-.6816,0-.2539,.0576-.4814,.1729-.6826,.1157-.2012,.2739-.3574,.4746-.4697,.2012-.1113,.4268-.168,.6772-.168s.4761,.0566,.6772,.168c.2012,.1123,.3584,.2686,.4722,.4697s.1704,.4287,.1704,.6826c0,.2529-.0566,.4805-.1704,.6816s-.271,.3584-.4722,.4717c-.2012,.1143-.4268,.1709-.6772,.1709s-.4761-.0566-.6772-.1709Zm1.1738-.2666c.147-.084,.2612-.2031,.3438-.3584,.0825-.1543,.1235-.3311,.1235-.5283,0-.1982-.041-.374-.1235-.5293s-.1968-.2744-.3438-.3584c-.1465-.084-.312-.126-.4966-.126s-.3501,.042-.4966,.126c-.147,.084-.2622,.2031-.3462,.3584s-.126,.3311-.126,.5293c0,.1973,.042,.374,.126,.5283,.084,.1553,.1992,.2744,.3462,.3584,.1465,.084,.312,.126,.4966,.126s.3501-.042,.4966-.126Z"/><path d="M230.7655,37.0605v.9346h-.3315v-.6279h-2.3281v.6279h-.3311v-.9346h.1484c.1743-.0098,.293-.1387,.356-.3857,.0625-.2471,.1055-.5928,.1284-1.0381l.0347-.8701h1.9175v2.2939h.4058Zm-2.1304-.4922c-.0464,.2393-.1289,.4033-.2476,.4922h1.6216v-1.9824h-1.2505l-.0298,.5781c-.0166,.3691-.0479,.6738-.0938,.9121Z"/><path d="M233.6864,36.2099h-.5933v1.1572h-.3511v-2.6006h.3511v1.1426h.5981l.9146-1.1426h.3804l-1.0229,1.2607,1.0972,1.3398h-.415l-.959-1.1572Z"/><path d="M238.748,35.0781h-1.4878v2.2891h-.3511v-2.6006h1.8389v.3115Z"/><path d="M239.6522,37.2207c-.2007-.1133-.3589-.2705-.4746-.4717-.1152-.2012-.1729-.4287-.1729-.6816,0-.2539,.0576-.4814,.1729-.6826,.1157-.2012,.2739-.3574,.4746-.4697,.2012-.1113,.4268-.168,.6772-.168s.4761,.0566,.6772,.168c.2012,.1123,.3584,.2686,.4722,.4697s.1704,.4287,.1704,.6826c0,.2529-.0566,.4805-.1704,.6816s-.271,.3584-.4722,.4717c-.2012,.1143-.4268,.1709-.6772,.1709s-.4761-.0566-.6772-.1709Zm1.1738-.2666c.147-.084,.2612-.2031,.3438-.3584,.0825-.1543,.1235-.3311,.1235-.5283,0-.1982-.041-.374-.1235-.5293s-.1968-.2744-.3438-.3584c-.1465-.084-.312-.126-.4966-.126s-.3501,.042-.4966,.126c-.147,.084-.2622,.2031-.3462,.3584s-.126,.3311-.126,.5293c0,.1973,.042,.374,.126,.5283,.084,.1553,.1992,.2744,.3462,.3584,.1465,.084,.312,.126,.4966,.126s.3501-.042,.4966-.126Z"/><path d="M244.9364,37.0605v.9346h-.3315v-.6279h-2.3281v.6279h-.3311v-.9346h.1484c.1743-.0098,.293-.1387,.356-.3857,.0625-.2471,.1055-.5928,.1284-1.0381l.0347-.8701h1.9175v2.2939h.4058Zm-2.1304-.4922c-.0464,.2393-.1289,.4033-.2476,.4922h1.6216v-1.9824h-1.2505l-.0298,.5781c-.0166,.3691-.0479,.6738-.0938,.9121Z"/><path d="M247.8275,34.7665l-1.2998,2.9121c-.1055,.2432-.2275,.416-.3657,.5186s-.3047,.1533-.499,.1533c-.1255,0-.2422-.0195-.3511-.0596-.1089-.0391-.2026-.0986-.2817-.1777l.1631-.2617c.1318,.1318,.29,.1973,.4746,.1973,.1187,0,.2197-.0332,.3037-.0986,.084-.0664,.1626-.1777,.2349-.3359l.1138-.252-1.1616-2.5957h.3657l.9785,2.21,.979-2.21h.3457Z"/><path d="M248.5941,36.9296c.0493,.0508,.0742,.1143,.0742,.1904,0,.0391-.0059,.082-.0176,.1279-.0112,.0469-.0288,.0996-.0518,.1582l-.2075,.6826h-.2373l.168-.7168c-.0527-.0166-.0957-.0469-.1284-.0918-.0332-.0439-.0493-.0977-.0493-.1602,0-.0762,.0244-.1396,.0737-.1904,.0498-.0508,.1123-.0771,.188-.0771s.1387,.0264,.188,.0771Z"/><path d="M250.643,35.5009c-.1436-.1729-.2153-.3994-.2153-.6797s.0718-.5068,.2153-.6797c.1431-.1729,.3315-.2598,.5659-.2598,.2305,0,.4185,.0859,.5635,.2578,.145,.1709,.2173,.3984,.2173,.6816s-.0723,.5107-.2173,.6826c-.145,.1709-.333,.2568-.5635,.2568-.2344,0-.4229-.0869-.5659-.2598Zm.9536-.1533c.0972-.127,.146-.3018,.146-.5264,0-.2236-.0488-.3994-.146-.5264s-.2266-.1904-.3877-.1904c-.165,0-.2949,.0645-.3906,.1934-.0957,.1279-.1436,.3027-.1436,.5234s.0479,.3955,.1436,.5244c.0957,.1279,.2256,.1924,.3906,.1924,.1611,0,.2905-.0635,.3877-.1904Zm1.708-1.4404h.2915l-2.3628,3.46h-.2915l2.3628-3.46Zm-.5391,3.2246c-.145-.1729-.2173-.3994-.2173-.6797,0-.2793,.0723-.5059,.2173-.6797,.145-.1729,.333-.2588,.5635-.2588,.2339,0,.4229,.0859,.5659,.2588,.1436,.1738,.2153,.4004,.2153,.6797,0,.2803-.0718,.5068-.2153,.6797-.1431,.1729-.332,.2598-.5659,.2598-.2305,0-.4185-.0869-.5635-.2598Zm.9541-.1553c.0957-.1289,.1436-.3037,.1436-.5244s-.0479-.3955-.1436-.5234c-.0957-.1289-.2256-.1934-.3906-.1934-.1611,0-.2905,.0635-.3877,.1904s-.146,.3027-.146,.5264c0,.2246,.0488,.4004,.146,.5264,.0972,.127,.2266,.1904,.3877,.1904,.165,0,.2949-.0645,.3906-.1924Z"/></g><rect class="cls-6" x="1.1191" y="172.004" width="278.7094" height="17.0824"/><g><path class="cls-7" d="M1.3803,183.8876h3.6665v.377H1.7157v.8643h-.3354v-1.2412Z"/><path class="cls-7" d="M3.8212,181.7558v.6289h1.2256v.3711H2.2919v-.3711h1.21v-.6338l-1.21-.9697v-.4033l1.3354,1.085,1.4194-1.1631v.4395l-1.2256,1.0166Z"/><path class="cls-7" d="M4.2978,177.3984c.2412,0,.4263,.0889,.5552,.2666,.1294,.1787,.1938,.4434,.1938,.7959v1.252H2.2919v-1.2148c0-.3145,.061-.5605,.1831-.7383,.1226-.1787,.2969-.2676,.5239-.2676,.1499,0,.2783,.041,.3848,.123,.1069,.082,.186,.1963,.2383,.3438,.0874-.374,.3125-.5605,.6758-.5605Zm-.7803,1.9531v-.8271c0-.2129-.04-.376-.1206-.4902-.0801-.1133-.1973-.1699-.3511-.1699-.1533,0-.2686,.0566-.3457,.1699-.0767,.1143-.1152,.2773-.1152,.4902v.8271h.9326Zm1.1206-1.4082c-.0767-.1191-.1973-.1787-.3613-.1787s-.2852,.0547-.3638,.1621c-.0786,.1084-.1182,.2803-.1182,.5137v.9111h.9585v-.874c0-.2383-.0381-.416-.1152-.5342Z"/><path class="cls-7" d="M4.9892,176.6992c-.0557,.0537-.124,.0811-.2041,.0811-.0806,0-.1475-.0273-.2017-.0811-.0542-.0547-.0815-.1201-.0815-.1973,0-.0762,.0273-.1426,.0815-.1982s.1211-.084,.2017-.084c.0801,0,.1484,.0283,.2041,.084s.084,.1221,.084,.1982c0,.0771-.0283,.1426-.084,.1973Z"/></g><g><path class="cls-7" d="M13.4843,183.3525h.3354v2.5723h-.2671l-1.4927-1.5244c-.1885-.1914-.3516-.3223-.4897-.3896-.1377-.0684-.2769-.1025-.4165-.1025-.2163,0-.3848,.0742-.5054,.2227s-.1807,.3604-.1807,.6367c0,.4287,.1362,.7627,.4087,1l-.2305,.2666c-.168-.1426-.2969-.3252-.3877-.5469s-.1362-.4727-.1362-.752c0-.373,.0884-.6689,.2646-.8877,.1763-.2178,.418-.3271,.7251-.3271,.189,0,.3701,.042,.5449,.126s.3755,.2422,.6021,.4766l1.2256,1.2461v-2.0166Z"/><path class="cls-7" d="M12.5941,181.6249v.6289h1.2256v.3711h-2.7549v-.3711h1.21v-.6338l-1.21-.9697v-.4033l1.3354,1.085,1.4194-1.1631v.4395l-1.2256,1.0166Z"/><path class="cls-7" d="M13.0707,177.2675c.2412,0,.4263,.0889,.5552,.2666,.1294,.1787,.1938,.4434,.1938,.7959v1.252h-2.7549v-1.2148c0-.3145,.061-.5605,.1831-.7383,.1226-.1787,.2969-.2676,.5239-.2676,.1499,0,.2783,.041,.3848,.123,.1069,.082,.186,.1963,.2383,.3438,.0874-.374,.3125-.5605,.6758-.5605Zm-.7803,1.9531v-.8271c0-.2129-.04-.376-.1206-.4902-.0801-.1133-.1973-.1699-.3511-.1699-.1533,0-.2686,.0566-.3457,.1699-.0767,.1143-.1152,.2773-.1152,.4902v.8271h.9326Zm1.1206-1.4082c-.0767-.1191-.1973-.1787-.3613-.1787s-.2852,.0547-.3638,.1621c-.0786,.1084-.1182,.2803-.1182,.5137v.9111h.9585v-.874c0-.2383-.0381-.416-.1152-.5342Z"/><path class="cls-7" d="M13.7621,176.5683c-.0557,.0537-.124,.0811-.2041,.0811-.0806,0-.1475-.0273-.2017-.0811-.0542-.0547-.0815-.1201-.0815-.1973,0-.0762,.0273-.1426,.0815-.1982s.1211-.084,.2017-.084c.0801,0,.1484,.0283,.2041,.084s.084,.1221,.084,.1982c0,.0771-.0283,.1426-.084,.1973Z"/></g><g><path class="cls-7" d="M20.8095,183.9472c.1865-.2002,.4302-.3008,.7305-.3008,.2095,0,.3955,.0508,.5576,.1514,.1626,.1016,.291,.252,.3853,.4512,.0942,.1982,.1411,.4414,.1411,.7275,0,.2656-.0425,.5156-.1279,.752-.0859,.2354-.2002,.4248-.3433,.5684l-.2983-.1836c.1255-.1221,.2275-.2842,.3062-.4873,.0786-.2021,.1177-.4189,.1177-.6494,0-.2998-.0654-.5322-.1963-.6963s-.3115-.2461-.542-.2461c-.2271,0-.4053,.082-.5342,.2461-.1294,.1641-.1938,.4121-.1938,.7432v.2627h-.2778l-1.2725-1.0166v1.875h-.3354v-2.3564h.2671l1.3042,1.0371c.021-.3848,.125-.6768,.312-.8779Z"/><path class="cls-7" d="M21.3671,181.8603v.6289h1.2256v.3711h-2.7549v-.3711h1.21v-.6338l-1.21-.9697v-.4033l1.3354,1.085,1.4194-1.1631v.4395l-1.2256,1.0166Z"/><path class="cls-7" d="M21.8437,177.5029c.2412,0,.4263,.0889,.5552,.2666,.1294,.1787,.1938,.4434,.1938,.7959v1.252h-2.7549v-1.2148c0-.3145,.061-.5605,.1831-.7383,.1226-.1787,.2969-.2676,.5239-.2676,.1499,0,.2783,.041,.3848,.123,.1069,.082,.186,.1963,.2383,.3438,.0874-.374,.3125-.5605,.6758-.5605Zm-.7803,1.9531v-.8271c0-.2129-.04-.376-.1206-.4902-.0801-.1133-.1973-.1699-.3511-.1699-.1533,0-.2686,.0566-.3457,.1699-.0767,.1143-.1152,.2773-.1152,.4902v.8271h.9326Zm1.1206-1.4082c-.0767-.1191-.1973-.1787-.3613-.1787s-.2852,.0547-.3638,.1621c-.0786,.1084-.1182,.2803-.1182,.5137v.9111h.9585v-.874c0-.2383-.0381-.416-.1152-.5342Z"/><path class="cls-7" d="M22.5351,176.8037c-.0557,.0537-.124,.0811-.2041,.0811-.0806,0-.1475-.0273-.2017-.0811-.0542-.0547-.0815-.1201-.0815-.1973,0-.0762,.0273-.1426,.0815-.1982s.1211-.084,.2017-.084c.0801,0,.1484,.0283,.2041,.084s.084,.1221,.084,.1982c0,.0771-.0283,.1426-.084,.1973Z"/></g><g><path class="cls-7" d="M30.4022,183.0546v.7334h.9639v.377h-.9639v2.0684h-.272l-2.4307-1.9424v-.4189l2.3677,1.875v-1.5928h-.8486v-.3662h.8486v-.7334h.335Z"/><path class="cls-7" d="M30.1405,181.4521v.6289h1.2256v.3711h-2.7549v-.3711h1.21v-.6338l-1.21-.9697v-.4033l1.3354,1.085,1.4194-1.1631v.4395l-1.2256,1.0166Z"/><path class="cls-7" d="M30.6171,177.0947c.2412,0,.4263,.0889,.5552,.2666,.1294,.1787,.1938,.4434,.1938,.7959v1.252h-2.7549v-1.2148c0-.3145,.061-.5605,.1831-.7383,.1226-.1787,.2969-.2676,.5239-.2676,.1499,0,.2783,.041,.3848,.123,.1069,.082,.186,.1963,.2383,.3438,.0874-.374,.3125-.5605,.6758-.5605Zm-.7803,1.9531v-.8271c0-.2129-.04-.376-.1206-.4902-.0801-.1133-.1973-.1699-.3511-.1699-.1533,0-.2686,.0566-.3457,.1699-.0767,.1143-.1152,.2773-.1152,.4902v.8271h.9326Zm1.1206-1.4082c-.0767-.1191-.1973-.1787-.3613-.1787s-.2852,.0547-.3638,.1621c-.0786,.1084-.1182,.2803-.1182,.5137v.9111h.9585v-.874c0-.2383-.0381-.416-.1152-.5342Z"/><path class="cls-7" d="M31.3085,176.3955c-.0557,.0537-.124,.0811-.2041,.0811-.0806,0-.1475-.0273-.2017-.0811-.0542-.0547-.0815-.1201-.0815-.1973,0-.0762,.0273-.1426,.0815-.1982s.1211-.084,.2017-.084c.0801,0,.1484,.0283,.2041,.084s.084,.1221,.084,.1982c0,.0771-.0283,.1426-.084,.1973Z"/></g><g><path class="cls-7" d="M36.4721,183.8876h3.6665v.377h-3.3311v.8643h-.3354v-1.2412Z"/><path class="cls-7" d="M38.913,181.7558v.6289h1.2256v.3711h-2.7549v-.3711h1.21v-.6338l-1.21-.9697v-.4033l1.3354,1.085,1.4194-1.1631v.4395l-1.2256,1.0166Z"/><path class="cls-7" d="M39.3896,177.3984c.2412,0,.4263,.0889,.5552,.2666,.1294,.1787,.1938,.4434,.1938,.7959v1.252h-2.7549v-1.2148c0-.3145,.061-.5605,.1831-.7383,.1226-.1787,.2969-.2676,.5239-.2676,.1499,0,.2783,.041,.3848,.123,.1069,.082,.186,.1963,.2383,.3438,.0874-.374,.3125-.5605,.6758-.5605Zm-.7803,1.9531v-.8271c0-.2129-.04-.376-.1206-.4902-.0801-.1133-.1973-.1699-.3511-.1699-.1533,0-.2686,.0566-.3457,.1699-.0767,.1143-.1152,.2773-.1152,.4902v.8271h.9326Zm1.1206-1.4082c-.0767-.1191-.1973-.1787-.3613-.1787s-.2852,.0547-.3638,.1621c-.0786,.1084-.1182,.2803-.1182,.5137v.9111h.9585v-.874c0-.2383-.0381-.416-.1152-.5342Z"/><path class="cls-7" d="M40.081,176.6992c-.0557,.0537-.124,.0811-.2041,.0811-.0806,0-.1475-.0273-.2017-.0811-.0542-.0547-.0815-.1201-.0815-.1973,0-.0762,.0273-.1426,.0815-.1982s.1211-.084,.2017-.084c.0801,0,.1484,.0283,.2041,.084s.084,.1221,.084,.1982c0,.0771-.0283,.1426-.084,.1973Z"/></g><g><path class="cls-7" d="M48.5766,183.3525h.3354v2.5723h-.2671l-1.4927-1.5244c-.1885-.1914-.3516-.3223-.4897-.3896-.1377-.0684-.2769-.1025-.4165-.1025-.2163,0-.3848,.0742-.5054,.2227s-.1807,.3604-.1807,.6367c0,.4287,.1362,.7627,.4087,1l-.2305,.2666c-.168-.1426-.2969-.3252-.3877-.5469s-.1362-.4727-.1362-.752c0-.373,.0884-.6689,.2646-.8877,.1763-.2178,.418-.3271,.7251-.3271,.189,0,.3701,.042,.5449,.126s.3755,.2422,.6021,.4766l1.2256,1.2461v-2.0166Z"/><path class="cls-7" d="M47.6864,181.6249v.6289h1.2256v.3711h-2.7549v-.3711h1.21v-.6338l-1.21-.9697v-.4033l1.3354,1.085,1.4194-1.1631v.4395l-1.2256,1.0166Z"/><path class="cls-7" d="M48.163,177.2675c.2412,0,.4263,.0889,.5552,.2666,.1294,.1787,.1938,.4434,.1938,.7959v1.252h-2.7549v-1.2148c0-.3145,.061-.5605,.1831-.7383,.1226-.1787,.2969-.2676,.5239-.2676,.1499,0,.2783,.041,.3848,.123,.1069,.082,.186,.1963,.2383,.3438,.0874-.374,.3125-.5605,.6758-.5605Zm-.7803,1.9531v-.8271c0-.2129-.04-.376-.1206-.4902-.0801-.1133-.1973-.1699-.3511-.1699-.1533,0-.2686,.0566-.3457,.1699-.0767,.1143-.1152,.2773-.1152,.4902v.8271h.9326Zm1.1206-1.4082c-.0767-.1191-.1973-.1787-.3613-.1787s-.2852,.0547-.3638,.1621c-.0786,.1084-.1182,.2803-.1182,.5137v.9111h.9585v-.874c0-.2383-.0381-.416-.1152-.5342Z"/><path class="cls-7" d="M48.8544,176.5683c-.0557,.0537-.124,.0811-.2041,.0811-.0806,0-.1475-.0273-.2017-.0811-.0542-.0547-.0815-.1201-.0815-.1973,0-.0762,.0273-.1426,.0815-.1982s.1211-.084,.2017-.084c.0801,0,.1484,.0283,.2041,.084s.084,.1221,.084,.1982c0,.0771-.0283,.1426-.084,.1973Z"/></g><g><path class="cls-7" d="M55.9013,183.9472c.1865-.2002,.4302-.3008,.7305-.3008,.2095,0,.3955,.0508,.5576,.1514,.1626,.1016,.291,.252,.3853,.4512,.0942,.1982,.1411,.4414,.1411,.7275,0,.2656-.0425,.5156-.1279,.752-.0859,.2354-.2002,.4248-.3433,.5684l-.2983-.1836c.1255-.1221,.2275-.2842,.3062-.4873,.0786-.2021,.1177-.4189,.1177-.6494,0-.2998-.0654-.5322-.1963-.6963s-.3115-.2461-.542-.2461c-.2271,0-.4053,.082-.5342,.2461-.1294,.1641-.1938,.4121-.1938,.7432v.2627h-.2778l-1.2725-1.0166v1.875h-.3354v-2.3564h.2671l1.3042,1.0371c.021-.3848,.125-.6768,.312-.8779Z"/><path class="cls-7" d="M56.4589,181.8603v.6289h1.2256v.3711h-2.7549v-.3711h1.21v-.6338l-1.21-.9697v-.4033l1.3354,1.085,1.4194-1.1631v.4395l-1.2256,1.0166Z"/><path class="cls-7" d="M56.9355,177.5029c.2412,0,.4263,.0889,.5552,.2666,.1294,.1787,.1938,.4434,.1938,.7959v1.252h-2.7549v-1.2148c0-.3145,.061-.5605,.1831-.7383,.1226-.1787,.2969-.2676,.5239-.2676,.1499,0,.2783,.041,.3848,.123,.1069,.082,.186,.1963,.2383,.3438,.0874-.374,.3125-.5605,.6758-.5605Zm-.7803,1.9531v-.8271c0-.2129-.04-.376-.1206-.4902-.0801-.1133-.1973-.1699-.3511-.1699-.1533,0-.2686,.0566-.3457,.1699-.0767,.1143-.1152,.2773-.1152,.4902v.8271h.9326Zm1.1206-1.4082c-.0767-.1191-.1973-.1787-.3613-.1787s-.2852,.0547-.3638,.1621c-.0786,.1084-.1182,.2803-.1182,.5137v.9111h.9585v-.874c0-.2383-.0381-.416-.1152-.5342Z"/><path class="cls-7" d="M57.6269,176.8037c-.0557,.0537-.124,.0811-.2041,.0811-.0806,0-.1475-.0273-.2017-.0811-.0542-.0547-.0815-.1201-.0815-.1973,0-.0762,.0273-.1426,.0815-.1982s.1211-.084,.2017-.084c.0801,0,.1484,.0283,.2041,.084s.084,.1221,.084,.1982c0,.0771-.0283,.1426-.084,.1973Z"/></g><g><path class="cls-7" d="M65.494,183.0546v.7334h.9639v.377h-.9639v2.0684h-.272l-2.4307-1.9424v-.4189l2.3677,1.875v-1.5928h-.8486v-.3662h.8486v-.7334h.335Z"/><path class="cls-7" d="M65.2323,181.4521v.6289h1.2256v.3711h-2.7549v-.3711h1.21v-.6338l-1.21-.9697v-.4033l1.3354,1.085,1.4194-1.1631v.4395l-1.2256,1.0166Z"/><path class="cls-7" d="M65.7089,177.0947c.2412,0,.4263,.0889,.5552,.2666,.1294,.1787,.1938,.4434,.1938,.7959v1.252h-2.7549v-1.2148c0-.3145,.061-.5605,.1831-.7383,.1226-.1787,.2969-.2676,.5239-.2676,.1499,0,.2783,.041,.3848,.123,.1069,.082,.186,.1963,.2383,.3438,.0874-.374,.3125-.5605,.6758-.5605Zm-.7803,1.9531v-.8271c0-.2129-.04-.376-.1206-.4902-.0801-.1133-.1973-.1699-.3511-.1699-.1533,0-.2686,.0566-.3457,.1699-.0767,.1143-.1152,.2773-.1152,.4902v.8271h.9326Zm1.1206-1.4082c-.0767-.1191-.1973-.1787-.3613-.1787s-.2852,.0547-.3638,.1621c-.0786,.1084-.1182,.2803-.1182,.5137v.9111h.9585v-.874c0-.2383-.0381-.416-.1152-.5342Z"/><path class="cls-7" d="M66.4003,176.3955c-.0557,.0537-.124,.0811-.2041,.0811-.0806,0-.1475-.0273-.2017-.0811-.0542-.0547-.0815-.1201-.0815-.1973,0-.0762,.0273-.1426,.0815-.1982s.1211-.084,.2017-.084c.0801,0,.1484,.0283,.2041,.084s.084,.1221,.084,.1982c0,.0771-.0283,.1426-.084,.1973Z"/></g><g><path class="cls-7" d="M71.5644,183.8876h3.6665v.377h-3.3311v.8643h-.3354v-1.2412Z"/><path class="cls-7" d="M74.0053,181.7558v.6289h1.2256v.3711h-2.7549v-.3711h1.21v-.6338l-1.21-.9697v-.4033l1.3354,1.085,1.4194-1.1631v.4395l-1.2256,1.0166Z"/><path class="cls-7" d="M74.4818,177.3984c.2412,0,.4263,.0889,.5552,.2666,.1294,.1787,.1938,.4434,.1938,.7959v1.252h-2.7549v-1.2148c0-.3145,.061-.5605,.1831-.7383,.1226-.1787,.2969-.2676,.5239-.2676,.1499,0,.2783,.041,.3848,.123,.1069,.082,.186,.1963,.2383,.3438,.0874-.374,.3125-.5605,.6758-.5605Zm-.7803,1.9531v-.8271c0-.2129-.04-.376-.1206-.4902-.0801-.1133-.1973-.1699-.3511-.1699-.1533,0-.2686,.0566-.3457,.1699-.0767,.1143-.1152,.2773-.1152,.4902v.8271h.9326Zm1.1206-1.4082c-.0767-.1191-.1973-.1787-.3613-.1787s-.2852,.0547-.3638,.1621c-.0786,.1084-.1182,.2803-.1182,.5137v.9111h.9585v-.874c0-.2383-.0381-.416-.1152-.5342Z"/><path class="cls-7" d="M75.1732,176.6992c-.0557,.0537-.124,.0811-.2041,.0811-.0806,0-.1475-.0273-.2017-.0811-.0542-.0547-.0815-.1201-.0815-.1973,0-.0762,.0273-.1426,.0815-.1982s.1211-.084,.2017-.084c.0801,0,.1484,.0283,.2041,.084s.084,.1221,.084,.1982c0,.0771-.0283,.1426-.084,.1973Z"/></g><g><path class="cls-7" d="M83.6684,183.3525h.3354v2.5723h-.2671l-1.4927-1.5244c-.1885-.1914-.3516-.3223-.4897-.3896-.1377-.0684-.2769-.1025-.4165-.1025-.2163,0-.3848,.0742-.5054,.2227s-.1807,.3604-.1807,.6367c0,.4287,.1362,.7627,.4087,1l-.2305,.2666c-.168-.1426-.2969-.3252-.3877-.5469s-.1362-.4727-.1362-.752c0-.373,.0884-.6689,.2646-.8877,.1763-.2178,.418-.3271,.7251-.3271,.189,0,.3701,.042,.5449,.126s.3755,.2422,.6021,.4766l1.2256,1.2461v-2.0166Z"/><path class="cls-7" d="M82.7782,181.6249v.6289h1.2256v.3711h-2.7549v-.3711h1.21v-.6338l-1.21-.9697v-.4033l1.3354,1.085,1.4194-1.1631v.4395l-1.2256,1.0166Z"/><path class="cls-7" d="M83.2548,177.2675c.2412,0,.4263,.0889,.5552,.2666,.1294,.1787,.1938,.4434,.1938,.7959v1.252h-2.7549v-1.2148c0-.3145,.061-.5605,.1831-.7383,.1226-.1787,.2969-.2676,.5239-.2676,.1499,0,.2783,.041,.3848,.123,.1069,.082,.186,.1963,.2383,.3438,.0874-.374,.3125-.5605,.6758-.5605Zm-.7803,1.9531v-.8271c0-.2129-.04-.376-.1206-.4902-.0801-.1133-.1973-.1699-.3511-.1699-.1533,0-.2686,.0566-.3457,.1699-.0767,.1143-.1152,.2773-.1152,.4902v.8271h.9326Zm1.1206-1.4082c-.0767-.1191-.1973-.1787-.3613-.1787s-.2852,.0547-.3638,.1621c-.0786,.1084-.1182,.2803-.1182,.5137v.9111h.9585v-.874c0-.2383-.0381-.416-.1152-.5342Z"/><path class="cls-7" d="M83.9462,176.5683c-.0557,.0537-.124,.0811-.2041,.0811-.0806,0-.1475-.0273-.2017-.0811-.0542-.0547-.0815-.1201-.0815-.1973,0-.0762,.0273-.1426,.0815-.1982s.1211-.084,.2017-.084c.0801,0,.1484,.0283,.2041,.084s.084,.1221,.084,.1982c0,.0771-.0283,.1426-.084,.1973Z"/></g><g><path class="cls-7" d="M90.9936,183.9462c.1865-.2002,.4302-.3008,.7305-.3008,.2095,0,.3955,.0508,.5576,.1514,.1626,.1016,.291,.252,.3853,.4512,.0942,.1982,.1411,.4414,.1411,.7275,0,.2656-.0425,.5156-.1279,.752-.0859,.2354-.2002,.4248-.3433,.5684l-.2983-.1836c.1255-.1221,.2275-.2842,.3062-.4873,.0786-.2021,.1177-.4189,.1177-.6494,0-.2998-.0654-.5322-.1963-.6963s-.3115-.2461-.542-.2461c-.2271,0-.4053,.082-.5342,.2461-.1294,.1641-.1938,.4121-.1938,.7432v.2627h-.2778l-1.2725-1.0166v1.875h-.3354v-2.3564h.2671l1.3042,1.0371c.021-.3848,.125-.6768,.312-.8779Z"/><path class="cls-7" d="M91.5512,181.8593v.6289h1.2256v.3711h-2.7549v-.3711h1.21v-.6338l-1.21-.9697v-.4033l1.3354,1.085,1.4194-1.1631v.4395l-1.2256,1.0166Z"/><path class="cls-7" d="M92.0277,177.5019c.2412,0,.4263,.0889,.5552,.2666,.1294,.1787,.1938,.4434,.1938,.7959v1.252h-2.7549v-1.2148c0-.3145,.061-.5605,.1831-.7383,.1226-.1787,.2969-.2676,.5239-.2676,.1499,0,.2783,.041,.3848,.123,.1069,.082,.186,.1963,.2383,.3438,.0874-.374,.3125-.5605,.6758-.5605Zm-.7803,1.9531v-.8271c0-.2129-.04-.376-.1206-.4902-.0801-.1133-.1973-.1699-.3511-.1699-.1533,0-.2686,.0566-.3457,.1699-.0767,.1143-.1152,.2773-.1152,.4902v.8271h.9326Zm1.1206-1.4082c-.0767-.1191-.1973-.1787-.3613-.1787s-.2852,.0547-.3638,.1621c-.0786,.1084-.1182,.2803-.1182,.5137v.9111h.9585v-.874c0-.2383-.0381-.416-.1152-.5342Z"/><path class="cls-7" d="M92.7191,176.8027c-.0557,.0537-.124,.0811-.2041,.0811-.0806,0-.1475-.0273-.2017-.0811-.0542-.0547-.0815-.1201-.0815-.1973,0-.0762,.0273-.1426,.0815-.1982s.1211-.084,.2017-.084c.0801,0,.1484,.0283,.2041,.084s.084,.1221,.084,.1982c0,.0771-.0283,.1426-.084,.1973Z"/></g><g><path class="cls-7" d="M100.5858,183.0546v.7334h.9639v.377h-.9639v2.0684h-.272l-2.4307-1.9424v-.4189l2.3677,1.875v-1.5928h-.8486v-.3662h.8486v-.7334h.335Z"/><path class="cls-7" d="M100.3241,181.4521v.6289h1.2256v.3711h-2.7549v-.3711h1.21v-.6338l-1.21-.9697v-.4033l1.3354,1.085,1.4194-1.1631v.4395l-1.2256,1.0166Z"/><path class="cls-7" d="M100.8007,177.0947c.2412,0,.4263,.0889,.5552,.2666,.1294,.1787,.1938,.4434,.1938,.7959v1.252h-2.7549v-1.2148c0-.3145,.061-.5605,.1831-.7383,.1226-.1787,.2969-.2676,.5239-.2676,.1499,0,.2783,.041,.3848,.123,.1069,.082,.186,.1963,.2383,.3438,.0874-.374,.3125-.5605,.6758-.5605Zm-.7803,1.9531v-.8271c0-.2129-.04-.376-.1206-.4902-.0801-.1133-.1973-.1699-.3511-.1699-.1533,0-.2686,.0566-.3457,.1699-.0767,.1143-.1152,.2773-.1152,.4902v.8271h.9326Zm1.1206-1.4082c-.0767-.1191-.1973-.1787-.3613-.1787s-.2852,.0547-.3638,.1621c-.0786,.1084-.1182,.2803-.1182,.5137v.9111h.9585v-.874c0-.2383-.0381-.416-.1152-.5342Z"/><path class="cls-7" d="M101.4921,176.3955c-.0557,.0537-.124,.0811-.2041,.0811-.0806,0-.1475-.0273-.2017-.0811-.0542-.0547-.0815-.1201-.0815-.1973,0-.0762,.0273-.1426,.0815-.1982s.1211-.084,.2017-.084c.0801,0,.1484,.0283,.2041,.084s.084,.1221,.084,.1982c0,.0771-.0283,.1426-.084,.1973Z"/></g><g><path class="cls-7" d="M106.6562,183.8876h3.6665v.377h-3.3311v.8643h-.3354v-1.2412Z"/><path class="cls-7" d="M109.0971,181.7558v.6289h1.2256v.3711h-2.7549v-.3711h1.21v-.6338l-1.21-.9697v-.4033l1.3354,1.085,1.4194-1.1631v.4395l-1.2256,1.0166Z"/><path class="cls-7" d="M109.5736,177.3984c.2412,0,.4263,.0889,.5552,.2666,.1294,.1787,.1938,.4434,.1938,.7959v1.252h-2.7549v-1.2148c0-.3145,.061-.5605,.1831-.7383,.1226-.1787,.2969-.2676,.5239-.2676,.1499,0,.2783,.041,.3848,.123,.1069,.082,.186,.1963,.2383,.3438,.0874-.374,.3125-.5605,.6758-.5605Zm-.7803,1.9531v-.8271c0-.2129-.04-.376-.1206-.4902-.0801-.1133-.1973-.1699-.3511-.1699-.1533,0-.2686,.0566-.3457,.1699-.0767,.1143-.1152,.2773-.1152,.4902v.8271h.9326Zm1.1206-1.4082c-.0767-.1191-.1973-.1787-.3613-.1787s-.2852,.0547-.3638,.1621c-.0786,.1084-.1182,.2803-.1182,.5137v.9111h.9585v-.874c0-.2383-.0381-.416-.1152-.5342Z"/><path class="cls-7" d="M110.265,176.6992c-.0557,.0537-.124,.0811-.2041,.0811-.0806,0-.1475-.0273-.2017-.0811-.0542-.0547-.0815-.1201-.0815-.1973,0-.0762,.0273-.1426,.0815-.1982s.1211-.084,.2017-.084c.0801,0,.1484,.0283,.2041,.084s.084,.1221,.084,.1982c0,.0771-.0283,.1426-.084,.1973Z"/></g><g><path class="cls-7" d="M118.7602,183.3525h.3354v2.5723h-.2671l-1.4927-1.5244c-.1885-.1914-.3516-.3223-.4897-.3896-.1377-.0684-.2769-.1025-.4165-.1025-.2163,0-.3848,.0742-.5054,.2227s-.1807,.3604-.1807,.6367c0,.4287,.1362,.7627,.4087,1l-.2305,.2666c-.168-.1426-.2969-.3252-.3877-.5469s-.1362-.4727-.1362-.752c0-.373,.0884-.6689,.2646-.8877,.1763-.2178,.418-.3271,.7251-.3271,.189,0,.3701,.042,.5449,.126s.3755,.2422,.6021,.4766l1.2256,1.2461v-2.0166Z"/><path class="cls-7" d="M117.87,181.6249v.6289h1.2256v.3711h-2.7549v-.3711h1.21v-.6338l-1.21-.9697v-.4033l1.3354,1.085,1.4194-1.1631v.4395l-1.2256,1.0166Z"/><path class="cls-7" d="M118.3466,177.2675c.2412,0,.4263,.0889,.5552,.2666,.1294,.1787,.1938,.4434,.1938,.7959v1.252h-2.7549v-1.2148c0-.3145,.061-.5605,.1831-.7383,.1226-.1787,.2969-.2676,.5239-.2676,.1499,0,.2783,.041,.3848,.123,.1069,.082,.186,.1963,.2383,.3438,.0874-.374,.3125-.5605,.6758-.5605Zm-.7803,1.9531v-.8271c0-.2129-.04-.376-.1206-.4902-.0801-.1133-.1973-.1699-.3511-.1699-.1533,0-.2686,.0566-.3457,.1699-.0767,.1143-.1152,.2773-.1152,.4902v.8271h.9326Zm1.1206-1.4082c-.0767-.1191-.1973-.1787-.3613-.1787s-.2852,.0547-.3638,.1621c-.0786,.1084-.1182,.2803-.1182,.5137v.9111h.9585v-.874c0-.2383-.0381-.416-.1152-.5342Z"/><path class="cls-7" d="M119.038,176.5683c-.0557,.0537-.124,.0811-.2041,.0811-.0806,0-.1475-.0273-.2017-.0811-.0542-.0547-.0815-.1201-.0815-.1973,0-.0762,.0273-.1426,.0815-.1982s.1211-.084,.2017-.084c.0801,0,.1484,.0283,.2041,.084s.084,.1221,.084,.1982c0,.0771-.0283,.1426-.084,.1973Z"/></g><g><path class="cls-7" d="M126.0854,183.9472c.1865-.2002,.4302-.3008,.7305-.3008,.2095,0,.3955,.0508,.5576,.1514,.1626,.1016,.291,.252,.3853,.4512,.0942,.1982,.1411,.4414,.1411,.7275,0,.2656-.0425,.5156-.1279,.752-.0859,.2354-.2002,.4248-.3433,.5684l-.2983-.1836c.1255-.1221,.2275-.2842,.3062-.4873,.0786-.2021,.1177-.4189,.1177-.6494,0-.2998-.0654-.5322-.1963-.6963s-.3115-.2461-.542-.2461c-.2271,0-.4053,.082-.5342,.2461-.1294,.1641-.1938,.4121-.1938,.7432v.2627h-.2778l-1.2725-1.0166v1.875h-.3354v-2.3564h.2671l1.3042,1.0371c.021-.3848,.125-.6768,.312-.8779Z"/><path class="cls-7" d="M126.643,181.8603v.6289h1.2256v.3711h-2.7549v-.3711h1.21v-.6338l-1.21-.9697v-.4033l1.3354,1.085,1.4194-1.1631v.4395l-1.2256,1.0166Z"/><path class="cls-7" d="M127.1195,177.5029c.2412,0,.4263,.0889,.5552,.2666,.1294,.1787,.1938,.4434,.1938,.7959v1.252h-2.7549v-1.2148c0-.3145,.061-.5605,.1831-.7383,.1226-.1787,.2969-.2676,.5239-.2676,.1499,0,.2783,.041,.3848,.123,.1069,.082,.186,.1963,.2383,.3438,.0874-.374,.3125-.5605,.6758-.5605Zm-.7803,1.9531v-.8271c0-.2129-.04-.376-.1206-.4902-.0801-.1133-.1973-.1699-.3511-.1699-.1533,0-.2686,.0566-.3457,.1699-.0767,.1143-.1152,.2773-.1152,.4902v.8271h.9326Zm1.1206-1.4082c-.0767-.1191-.1973-.1787-.3613-.1787s-.2852,.0547-.3638,.1621c-.0786,.1084-.1182,.2803-.1182,.5137v.9111h.9585v-.874c0-.2383-.0381-.416-.1152-.5342Z"/><path class="cls-7" d="M127.8109,176.8037c-.0557,.0537-.124,.0811-.2041,.0811-.0806,0-.1475-.0273-.2017-.0811-.0542-.0547-.0815-.1201-.0815-.1973,0-.0762,.0273-.1426,.0815-.1982s.1211-.084,.2017-.084c.0801,0,.1484,.0283,.2041,.084s.084,.1221,.084,.1982c0,.0771-.0283,.1426-.084,.1973Z"/></g><g><path class="cls-7" d="M135.6776,183.0546v.7334h.9639v.377h-.9639v2.0684h-.272l-2.4307-1.9424v-.4189l2.3677,1.875v-1.5928h-.8486v-.3662h.8486v-.7334h.335Z"/><path class="cls-7" d="M135.4159,181.4521v.6289h1.2256v.3711h-2.7549v-.3711h1.21v-.6338l-1.21-.9697v-.4033l1.3354,1.085,1.4194-1.1631v.4395l-1.2256,1.0166Z"/><path class="cls-7" d="M135.8925,177.0947c.2412,0,.4263,.0889,.5552,.2666,.1294,.1787,.1938,.4434,.1938,.7959v1.252h-2.7549v-1.2148c0-.3145,.061-.5605,.1831-.7383,.1226-.1787,.2969-.2676,.5239-.2676,.1499,0,.2783,.041,.3848,.123,.1069,.082,.186,.1963,.2383,.3438,.0874-.374,.3125-.5605,.6758-.5605Zm-.7803,1.9531v-.8271c0-.2129-.04-.376-.1206-.4902-.0801-.1133-.1973-.1699-.3511-.1699-.1533,0-.2686,.0566-.3457,.1699-.0767,.1143-.1152,.2773-.1152,.4902v.8271h.9326Zm1.1206-1.4082c-.0767-.1191-.1973-.1787-.3613-.1787s-.2852,.0547-.3638,.1621c-.0786,.1084-.1182,.2803-.1182,.5137v.9111h.9585v-.874c0-.2383-.0381-.416-.1152-.5342Z"/><path class="cls-7" d="M136.5839,176.3955c-.0557,.0537-.124,.0811-.2041,.0811-.0806,0-.1475-.0273-.2017-.0811-.0542-.0547-.0815-.1201-.0815-.1973,0-.0762,.0273-.1426,.0815-.1982s.1211-.084,.2017-.084c.0801,0,.1484,.0283,.2041,.084s.084,.1221,.084,.1982c0,.0771-.0283,.1426-.084,.1973Z"/></g><g><path class="cls-7" d="M141.748,183.8876h3.6665v.377h-3.3311v.8643h-.3354v-1.2412Z"/><path class="cls-7" d="M144.1889,181.7558v.6289h1.2256v.3711h-2.7549v-.3711h1.21v-.6338l-1.21-.9697v-.4033l1.3354,1.085,1.4194-1.1631v.4395l-1.2256,1.0166Z"/><path class="cls-7" d="M144.6654,177.3984c.2412,0,.4263,.0889,.5552,.2666,.1294,.1787,.1938,.4434,.1938,.7959v1.252h-2.7549v-1.2148c0-.3145,.061-.5605,.1831-.7383,.1226-.1787,.2969-.2676,.5239-.2676,.1499,0,.2783,.041,.3848,.123,.1069,.082,.186,.1963,.2383,.3438,.0874-.374,.3125-.5605,.6758-.5605Zm-.7803,1.9531v-.8271c0-.2129-.04-.376-.1206-.4902-.0801-.1133-.1973-.1699-.3511-.1699-.1533,0-.2686,.0566-.3457,.1699-.0767,.1143-.1152,.2773-.1152,.4902v.8271h.9326Zm1.1206-1.4082c-.0767-.1191-.1973-.1787-.3613-.1787s-.2852,.0547-.3638,.1621c-.0786,.1084-.1182,.2803-.1182,.5137v.9111h.9585v-.874c0-.2383-.0381-.416-.1152-.5342Z"/><path class="cls-7" d="M145.3568,176.6992c-.0557,.0537-.124,.0811-.2041,.0811-.0806,0-.1475-.0273-.2017-.0811-.0542-.0547-.0815-.1201-.0815-.1973,0-.0762,.0273-.1426,.0815-.1982s.1211-.084,.2017-.084c.0801,0,.1484,.0283,.2041,.084s.084,.1221,.084,.1982c0,.0771-.0283,.1426-.084,.1973Z"/></g><g><path class="cls-7" d="M153.852,183.3525h.3354v2.5723h-.2671l-1.4927-1.5244c-.1885-.1914-.3516-.3223-.4897-.3896-.1377-.0684-.2769-.1025-.4165-.1025-.2163,0-.3848,.0742-.5054,.2227s-.1807,.3604-.1807,.6367c0,.4287,.1362,.7627,.4087,1l-.2305,.2666c-.168-.1426-.2969-.3252-.3877-.5469s-.1362-.4727-.1362-.752c0-.373,.0884-.6689,.2646-.8877,.1763-.2178,.418-.3271,.7251-.3271,.189,0,.3701,.042,.5449,.126s.3755,.2422,.6021,.4766l1.2256,1.2461v-2.0166Z"/><path class="cls-7" d="M152.9618,181.6249v.6289h1.2256v.3711h-2.7549v-.3711h1.21v-.6338l-1.21-.9697v-.4033l1.3354,1.085,1.4194-1.1631v.4395l-1.2256,1.0166Z"/><path class="cls-7" d="M153.4384,177.2675c.2412,0,.4263,.0889,.5552,.2666,.1294,.1787,.1938,.4434,.1938,.7959v1.252h-2.7549v-1.2148c0-.3145,.061-.5605,.1831-.7383,.1226-.1787,.2969-.2676,.5239-.2676,.1499,0,.2783,.041,.3848,.123,.1069,.082,.186,.1963,.2383,.3438,.0874-.374,.3125-.5605,.6758-.5605Zm-.7803,1.9531v-.8271c0-.2129-.04-.376-.1206-.4902-.0801-.1133-.1973-.1699-.3511-.1699-.1533,0-.2686,.0566-.3457,.1699-.0767,.1143-.1152,.2773-.1152,.4902v.8271h.9326Zm1.1206-1.4082c-.0767-.1191-.1973-.1787-.3613-.1787s-.2852,.0547-.3638,.1621c-.0786,.1084-.1182,.2803-.1182,.5137v.9111h.9585v-.874c0-.2383-.0381-.416-.1152-.5342Z"/><path class="cls-7" d="M154.1298,176.5683c-.0557,.0537-.124,.0811-.2041,.0811-.0806,0-.1475-.0273-.2017-.0811-.0542-.0547-.0815-.1201-.0815-.1973,0-.0762,.0273-.1426,.0815-.1982s.1211-.084,.2017-.084c.0801,0,.1484,.0283,.2041,.084s.084,.1221,.084,.1982c0,.0771-.0283,.1426-.084,.1973Z"/></g><g><path class="cls-7" d="M161.1772,183.9472c.1865-.2002,.4302-.3008,.7305-.3008,.2095,0,.3955,.0508,.5576,.1514,.1626,.1016,.291,.252,.3853,.4512,.0942,.1982,.1411,.4414,.1411,.7275,0,.2656-.0425,.5156-.1279,.752-.0859,.2354-.2002,.4248-.3433,.5684l-.2983-.1836c.1255-.1221,.2275-.2842,.3062-.4873,.0786-.2021,.1177-.4189,.1177-.6494,0-.2998-.0654-.5322-.1963-.6963s-.3115-.2461-.542-.2461c-.2271,0-.4053,.082-.5342,.2461-.1294,.1641-.1938,.4121-.1938,.7432v.2627h-.2778l-1.2725-1.0166v1.875h-.3354v-2.3564h.2671l1.3042,1.0371c.021-.3848,.125-.6768,.312-.8779Z"/><path class="cls-7" d="M161.7348,181.8603v.6289h1.2256v.3711h-2.7549v-.3711h1.21v-.6338l-1.21-.9697v-.4033l1.3354,1.085,1.4194-1.1631v.4395l-1.2256,1.0166Z"/><path class="cls-7" d="M162.2113,177.5029c.2412,0,.4263,.0889,.5552,.2666,.1294,.1787,.1938,.4434,.1938,.7959v1.252h-2.7549v-1.2148c0-.3145,.061-.5605,.1831-.7383,.1226-.1787,.2969-.2676,.5239-.2676,.1499,0,.2783,.041,.3848,.123,.1069,.082,.186,.1963,.2383,.3438,.0874-.374,.3125-.5605,.6758-.5605Zm-.7803,1.9531v-.8271c0-.2129-.04-.376-.1206-.4902-.0801-.1133-.1973-.1699-.3511-.1699-.1533,0-.2686,.0566-.3457,.1699-.0767,.1143-.1152,.2773-.1152,.4902v.8271h.9326Zm1.1206-1.4082c-.0767-.1191-.1973-.1787-.3613-.1787s-.2852,.0547-.3638,.1621c-.0786,.1084-.1182,.2803-.1182,.5137v.9111h.9585v-.874c0-.2383-.0381-.416-.1152-.5342Z"/><path class="cls-7" d="M162.9027,176.8037c-.0557,.0537-.124,.0811-.2041,.0811-.0806,0-.1475-.0273-.2017-.0811-.0542-.0547-.0815-.1201-.0815-.1973,0-.0762,.0273-.1426,.0815-.1982s.1211-.084,.2017-.084c.0801,0,.1484,.0283,.2041,.084s.084,.1221,.084,.1982c0,.0771-.0283,.1426-.084,.1973Z"/></g><g><path class="cls-7" d="M170.7694,183.0546v.7334h.9639v.377h-.9639v2.0684h-.272l-2.4307-1.9424v-.4189l2.3677,1.875v-1.5928h-.8486v-.3662h.8486v-.7334h.335Z"/><path class="cls-7" d="M170.5077,181.4521v.6289h1.2256v.3711h-2.7549v-.3711h1.21v-.6338l-1.21-.9697v-.4033l1.3354,1.085,1.4194-1.1631v.4395l-1.2256,1.0166Z"/><path class="cls-7" d="M170.9843,177.0947c.2412,0,.4263,.0889,.5552,.2666,.1294,.1787,.1938,.4434,.1938,.7959v1.252h-2.7549v-1.2148c0-.3145,.061-.5605,.1831-.7383,.1226-.1787,.2969-.2676,.5239-.2676,.1499,0,.2783,.041,.3848,.123,.1069,.082,.186,.1963,.2383,.3438,.0874-.374,.3125-.5605,.6758-.5605Zm-.7803,1.9531v-.8271c0-.2129-.04-.376-.1206-.4902-.0801-.1133-.1973-.1699-.3511-.1699-.1533,0-.2686,.0566-.3457,.1699-.0767,.1143-.1152,.2773-.1152,.4902v.8271h.9326Zm1.1206-1.4082c-.0767-.1191-.1973-.1787-.3613-.1787s-.2852,.0547-.3638,.1621c-.0786,.1084-.1182,.2803-.1182,.5137v.9111h.9585v-.874c0-.2383-.0381-.416-.1152-.5342Z"/><path class="cls-7" d="M171.6757,176.3955c-.0557,.0537-.124,.0811-.2041,.0811-.0806,0-.1475-.0273-.2017-.0811-.0542-.0547-.0815-.1201-.0815-.1973,0-.0762,.0273-.1426,.0815-.1982s.1211-.084,.2017-.084c.0801,0,.1484,.0283,.2041,.084s.084,.1221,.084,.1982c0,.0771-.0283,.1426-.084,.1973Z"/></g><g><path class="cls-7" d="M176.8397,183.8876h3.6665v.377h-3.3311v.8643h-.3354v-1.2412Z"/><path class="cls-7" d="M179.2807,181.7558v.6289h1.2256v.3711h-2.7549v-.3711h1.21v-.6338l-1.21-.9697v-.4033l1.3354,1.085,1.4194-1.1631v.4395l-1.2256,1.0166Z"/><path class="cls-7" d="M179.7572,177.3984c.2412,0,.4263,.0889,.5552,.2666,.1294,.1787,.1938,.4434,.1938,.7959v1.252h-2.7549v-1.2148c0-.3145,.061-.5605,.1831-.7383,.1226-.1787,.2969-.2676,.5239-.2676,.1499,0,.2783,.041,.3848,.123,.1069,.082,.186,.1963,.2383,.3438,.0874-.374,.3125-.5605,.6758-.5605Zm-.7803,1.9531v-.8271c0-.2129-.04-.376-.1206-.4902-.0801-.1133-.1973-.1699-.3511-.1699-.1533,0-.2686,.0566-.3457,.1699-.0767,.1143-.1152,.2773-.1152,.4902v.8271h.9326Zm1.1206-1.4082c-.0767-.1191-.1973-.1787-.3613-.1787s-.2852,.0547-.3638,.1621c-.0786,.1084-.1182,.2803-.1182,.5137v.9111h.9585v-.874c0-.2383-.0381-.416-.1152-.5342Z"/><path class="cls-7" d="M180.4486,176.6992c-.0557,.0537-.124,.0811-.2041,.0811-.0806,0-.1475-.0273-.2017-.0811-.0542-.0547-.0815-.1201-.0815-.1973,0-.0762,.0273-.1426,.0815-.1982s.1211-.084,.2017-.084c.0801,0,.1484,.0283,.2041,.084s.084,.1221,.084,.1982c0,.0771-.0283,.1426-.084,.1973Z"/></g><g><path class="cls-7" d="M188.9438,183.3525h.3354v2.5723h-.2671l-1.4927-1.5244c-.1885-.1914-.3516-.3223-.4897-.3896-.1377-.0684-.2769-.1025-.4165-.1025-.2163,0-.3848,.0742-.5054,.2227s-.1807,.3604-.1807,.6367c0,.4287,.1362,.7627,.4087,1l-.2305,.2666c-.168-.1426-.2969-.3252-.3877-.5469s-.1362-.4727-.1362-.752c0-.373,.0884-.6689,.2646-.8877,.1763-.2178,.418-.3271,.7251-.3271,.189,0,.3701,.042,.5449,.126s.3755,.2422,.6021,.4766l1.2256,1.2461v-2.0166Z"/><path class="cls-7" d="M188.0536,181.6249v.6289h1.2256v.3711h-2.7549v-.3711h1.21v-.6338l-1.21-.9697v-.4033l1.3354,1.085,1.4194-1.1631v.4395l-1.2256,1.0166Z"/><path class="cls-7" d="M188.5302,177.2675c.2412,0,.4263,.0889,.5552,.2666,.1294,.1787,.1938,.4434,.1938,.7959v1.252h-2.7549v-1.2148c0-.3145,.061-.5605,.1831-.7383,.1226-.1787,.2969-.2676,.5239-.2676,.1499,0,.2783,.041,.3848,.123,.1069,.082,.186,.1963,.2383,.3438,.0874-.374,.3125-.5605,.6758-.5605Zm-.7803,1.9531v-.8271c0-.2129-.04-.376-.1206-.4902-.0801-.1133-.1973-.1699-.3511-.1699-.1533,0-.2686,.0566-.3457,.1699-.0767,.1143-.1152,.2773-.1152,.4902v.8271h.9326Zm1.1206-1.4082c-.0767-.1191-.1973-.1787-.3613-.1787s-.2852,.0547-.3638,.1621c-.0786,.1084-.1182,.2803-.1182,.5137v.9111h.9585v-.874c0-.2383-.0381-.416-.1152-.5342Z"/><path class="cls-7" d="M189.2216,176.5683c-.0557,.0537-.124,.0811-.2041,.0811-.0806,0-.1475-.0273-.2017-.0811-.0542-.0547-.0815-.1201-.0815-.1973,0-.0762,.0273-.1426,.0815-.1982s.1211-.084,.2017-.084c.0801,0,.1484,.0283,.2041,.084s.084,.1221,.084,.1982c0,.0771-.0283,.1426-.084,.1973Z"/></g><g><path class="cls-7" d="M196.2689,183.9472c.1865-.2002,.4302-.3008,.7305-.3008,.2095,0,.3955,.0508,.5576,.1514,.1626,.1016,.291,.252,.3853,.4512,.0942,.1982,.1411,.4414,.1411,.7275,0,.2656-.0425,.5156-.1279,.752-.0859,.2354-.2002,.4248-.3433,.5684l-.2983-.1836c.1255-.1221,.2275-.2842,.3062-.4873,.0786-.2021,.1177-.4189,.1177-.6494,0-.2998-.0654-.5322-.1963-.6963s-.3115-.2461-.542-.2461c-.2271,0-.4053,.082-.5342,.2461-.1294,.1641-.1938,.4121-.1938,.7432v.2627h-.2778l-1.2725-1.0166v1.875h-.3354v-2.3564h.2671l1.3042,1.0371c.021-.3848,.125-.6768,.312-.8779Z"/><path class="cls-7" d="M196.8266,181.8603v.6289h1.2256v.3711h-2.7549v-.3711h1.21v-.6338l-1.21-.9697v-.4033l1.3354,1.085,1.4194-1.1631v.4395l-1.2256,1.0166Z"/><path class="cls-7" d="M197.3031,177.5029c.2412,0,.4263,.0889,.5552,.2666,.1294,.1787,.1938,.4434,.1938,.7959v1.252h-2.7549v-1.2148c0-.3145,.061-.5605,.1831-.7383,.1226-.1787,.2969-.2676,.5239-.2676,.1499,0,.2783,.041,.3848,.123,.1069,.082,.186,.1963,.2383,.3438,.0874-.374,.3125-.5605,.6758-.5605Zm-.7803,1.9531v-.8271c0-.2129-.04-.376-.1206-.4902-.0801-.1133-.1973-.1699-.3511-.1699-.1533,0-.2686,.0566-.3457,.1699-.0767,.1143-.1152,.2773-.1152,.4902v.8271h.9326Zm1.1206-1.4082c-.0767-.1191-.1973-.1787-.3613-.1787s-.2852,.0547-.3638,.1621c-.0786,.1084-.1182,.2803-.1182,.5137v.9111h.9585v-.874c0-.2383-.0381-.416-.1152-.5342Z"/><path class="cls-7" d="M197.9945,176.8037c-.0557,.0537-.124,.0811-.2041,.0811-.0806,0-.1475-.0273-.2017-.0811-.0542-.0547-.0815-.1201-.0815-.1973,0-.0762,.0273-.1426,.0815-.1982s.1211-.084,.2017-.084c.0801,0,.1484,.0283,.2041,.084s.084,.1221,.084,.1982c0,.0771-.0283,.1426-.084,.1973Z"/></g><g><path class="cls-7" d="M205.8617,183.0556v.7334h.9639v.377h-.9639v2.0684h-.272l-2.4307-1.9424v-.4189l2.3677,1.875v-1.5928h-.8486v-.3662h.8486v-.7334h.335Z"/><path class="cls-7" d="M205.6,181.4531v.6289h1.2256v.3711h-2.7549v-.3711h1.21v-.6338l-1.21-.9697v-.4033l1.3354,1.085,1.4194-1.1631v.4395l-1.2256,1.0166Z"/><path class="cls-7" d="M206.0766,177.0957c.2412,0,.4263,.0889,.5552,.2666,.1294,.1787,.1938,.4434,.1938,.7959v1.252h-2.7549v-1.2148c0-.3145,.061-.5605,.1831-.7383,.1226-.1787,.2969-.2676,.5239-.2676,.1499,0,.2783,.041,.3848,.123,.1069,.082,.186,.1963,.2383,.3438,.0874-.374,.3125-.5605,.6758-.5605Zm-.7803,1.9531v-.8271c0-.2129-.04-.376-.1206-.4902-.0801-.1133-.1973-.1699-.3511-.1699-.1533,0-.2686,.0566-.3457,.1699-.0767,.1143-.1152,.2773-.1152,.4902v.8271h.9326Zm1.1206-1.4082c-.0767-.1191-.1973-.1787-.3613-.1787s-.2852,.0547-.3638,.1621c-.0786,.1084-.1182,.2803-.1182,.5137v.9111h.9585v-.874c0-.2383-.0381-.416-.1152-.5342Z"/><path class="cls-7" d="M206.768,176.3964c-.0557,.0537-.124,.0811-.2041,.0811-.0806,0-.1475-.0273-.2017-.0811-.0542-.0547-.0815-.1201-.0815-.1973,0-.0762,.0273-.1426,.0815-.1982s.1211-.084,.2017-.084c.0801,0,.1484,.0283,.2041,.084s.084,.1221,.084,.1982c0,.0771-.0283,.1426-.084,.1973Z"/></g><g><path class="cls-7" d="M211.932,183.8876h3.6665v.377h-3.3311v.8643h-.3354v-1.2412Z"/><path class="cls-7" d="M214.373,181.7558v.6289h1.2256v.3711h-2.7549v-.3711h1.21v-.6338l-1.21-.9697v-.4033l1.3354,1.085,1.4194-1.1631v.4395l-1.2256,1.0166Z"/><path class="cls-7" d="M214.8495,177.3984c.2412,0,.4263,.0889,.5552,.2666,.1294,.1787,.1938,.4434,.1938,.7959v1.252h-2.7549v-1.2148c0-.3145,.061-.5605,.1831-.7383,.1226-.1787,.2969-.2676,.5239-.2676,.1499,0,.2783,.041,.3848,.123,.1069,.082,.186,.1963,.2383,.3438,.0874-.374,.3125-.5605,.6758-.5605Zm-.7803,1.9531v-.8271c0-.2129-.04-.376-.1206-.4902-.0801-.1133-.1973-.1699-.3511-.1699-.1533,0-.2686,.0566-.3457,.1699-.0767,.1143-.1152,.2773-.1152,.4902v.8271h.9326Zm1.1206-1.4082c-.0767-.1191-.1973-.1787-.3613-.1787s-.2852,.0547-.3638,.1621c-.0786,.1084-.1182,.2803-.1182,.5137v.9111h.9585v-.874c0-.2383-.0381-.416-.1152-.5342Z"/><path class="cls-7" d="M215.5409,176.6992c-.0557,.0537-.124,.0811-.2041,.0811-.0806,0-.1475-.0273-.2017-.0811-.0542-.0547-.0815-.1201-.0815-.1973,0-.0762,.0273-.1426,.0815-.1982s.1211-.084,.2017-.084c.0801,0,.1484,.0283,.2041,.084s.084,.1221,.084,.1982c0,.0771-.0283,.1426-.084,.1973Z"/></g><g><path class="cls-7" d="M224.0355,183.3515h.3354v2.5723h-.2671l-1.4927-1.5244c-.1885-.1914-.3516-.3223-.4897-.3896-.1377-.0684-.2769-.1025-.4165-.1025-.2163,0-.3848,.0742-.5054,.2227s-.1807,.3604-.1807,.6367c0,.4287,.1362,.7627,.4087,1l-.2305,.2666c-.168-.1426-.2969-.3252-.3877-.5469s-.1362-.4727-.1362-.752c0-.373,.0884-.6689,.2646-.8877,.1763-.2178,.418-.3271,.7251-.3271,.189,0,.3701,.042,.5449,.126s.3755,.2422,.6021,.4766l1.2256,1.2461v-2.0166Z"/><path class="cls-7" d="M223.1454,181.624v.6289h1.2256v.3711h-2.7549v-.3711h1.21v-.6338l-1.21-.9697v-.4033l1.3354,1.085,1.4194-1.1631v.4395l-1.2256,1.0166Z"/><path class="cls-7" d="M223.622,177.2665c.2412,0,.4263,.0889,.5552,.2666,.1294,.1787,.1938,.4434,.1938,.7959v1.252h-2.7549v-1.2148c0-.3145,.061-.5605,.1831-.7383,.1226-.1787,.2969-.2676,.5239-.2676,.1499,0,.2783,.041,.3848,.123,.1069,.082,.186,.1963,.2383,.3438,.0874-.374,.3125-.5605,.6758-.5605Zm-.7803,1.9531v-.8271c0-.2129-.04-.376-.1206-.4902-.0801-.1133-.1973-.1699-.3511-.1699-.1533,0-.2686,.0566-.3457,.1699-.0767,.1143-.1152,.2773-.1152,.4902v.8271h.9326Zm1.1206-1.4082c-.0767-.1191-.1973-.1787-.3613-.1787s-.2852,.0547-.3638,.1621c-.0786,.1084-.1182,.2803-.1182,.5137v.9111h.9585v-.874c0-.2383-.0381-.416-.1152-.5342Z"/><path class="cls-7" d="M224.3134,176.5673c-.0557,.0537-.124,.0811-.2041,.0811-.0806,0-.1475-.0273-.2017-.0811-.0542-.0547-.0815-.1201-.0815-.1973,0-.0762,.0273-.1426,.0815-.1982s.1211-.084,.2017-.084c.0801,0,.1484,.0283,.2041,.084s.084,.1221,.084,.1982c0,.0771-.0283,.1426-.084,.1973Z"/></g><g><path class="cls-7" d="M231.3612,183.9472c.1865-.2002,.4302-.3008,.7305-.3008,.2095,0,.3955,.0508,.5576,.1514,.1626,.1016,.291,.252,.3853,.4512,.0942,.1982,.1411,.4414,.1411,.7275,0,.2656-.0425,.5156-.1279,.752-.0859,.2354-.2002,.4248-.3433,.5684l-.2983-.1836c.1255-.1221,.2275-.2842,.3062-.4873,.0786-.2021,.1177-.4189,.1177-.6494,0-.2998-.0654-.5322-.1963-.6963s-.3115-.2461-.542-.2461c-.2271,0-.4053,.082-.5342,.2461-.1294,.1641-.1938,.4121-.1938,.7432v.2627h-.2778l-1.2725-1.0166v1.875h-.3354v-2.3564h.2671l1.3042,1.0371c.021-.3848,.125-.6768,.312-.8779Z"/><path class="cls-7" d="M231.9188,181.8603v.6289h1.2256v.3711h-2.7549v-.3711h1.21v-.6338l-1.21-.9697v-.4033l1.3354,1.085,1.4194-1.1631v.4395l-1.2256,1.0166Z"/><path class="cls-7" d="M232.3954,177.5029c.2412,0,.4263,.0889,.5552,.2666,.1294,.1787,.1938,.4434,.1938,.7959v1.252h-2.7549v-1.2148c0-.3145,.061-.5605,.1831-.7383,.1226-.1787,.2969-.2676,.5239-.2676,.1499,0,.2783,.041,.3848,.123,.1069,.082,.186,.1963,.2383,.3438,.0874-.374,.3125-.5605,.6758-.5605Zm-.7803,1.9531v-.8271c0-.2129-.04-.376-.1206-.4902-.0801-.1133-.1973-.1699-.3511-.1699-.1533,0-.2686,.0566-.3457,.1699-.0767,.1143-.1152,.2773-.1152,.4902v.8271h.9326Zm1.1206-1.4082c-.0767-.1191-.1973-.1787-.3613-.1787s-.2852,.0547-.3638,.1621c-.0786,.1084-.1182,.2803-.1182,.5137v.9111h.9585v-.874c0-.2383-.0381-.416-.1152-.5342Z"/><path class="cls-7" d="M233.0868,176.8037c-.0557,.0537-.124,.0811-.2041,.0811-.0806,0-.1475-.0273-.2017-.0811-.0542-.0547-.0815-.1201-.0815-.1973,0-.0762,.0273-.1426,.0815-.1982s.1211-.084,.2017-.084c.0801,0,.1484,.0283,.2041,.084s.084,.1221,.084,.1982c0,.0771-.0283,.1426-.084,.1973Z"/></g><g><path class="cls-7" d="M240.9535,183.0546v.7334h.9639v.377h-.9639v2.0684h-.272l-2.4307-1.9424v-.4189l2.3677,1.875v-1.5928h-.8486v-.3662h.8486v-.7334h.335Z"/><path class="cls-7" d="M240.6918,181.4521v.6289h1.2256v.3711h-2.7549v-.3711h1.21v-.6338l-1.21-.9697v-.4033l1.3354,1.085,1.4194-1.1631v.4395l-1.2256,1.0166Z"/><path class="cls-7" d="M241.1684,177.0947c.2412,0,.4263,.0889,.5552,.2666,.1294,.1787,.1938,.4434,.1938,.7959v1.252h-2.7549v-1.2148c0-.3145,.061-.5605,.1831-.7383,.1226-.1787,.2969-.2676,.5239-.2676,.1499,0,.2783,.041,.3848,.123,.1069,.082,.186,.1963,.2383,.3438,.0874-.374,.3125-.5605,.6758-.5605Zm-.7803,1.9531v-.8271c0-.2129-.04-.376-.1206-.4902-.0801-.1133-.1973-.1699-.3511-.1699-.1533,0-.2686,.0566-.3457,.1699-.0767,.1143-.1152,.2773-.1152,.4902v.8271h.9326Zm1.1206-1.4082c-.0767-.1191-.1973-.1787-.3613-.1787s-.2852,.0547-.3638,.1621c-.0786,.1084-.1182,.2803-.1182,.5137v.9111h.9585v-.874c0-.2383-.0381-.416-.1152-.5342Z"/><path class="cls-7" d="M241.8598,176.3955c-.0557,.0537-.124,.0811-.2041,.0811-.0806,0-.1475-.0273-.2017-.0811-.0542-.0547-.0815-.1201-.0815-.1973,0-.0762,.0273-.1426,.0815-.1982s.1211-.084,.2017-.084c.0801,0,.1484,.0283,.2041,.084s.084,.1221,.084,.1982c0,.0771-.0283,.1426-.084,.1973Z"/></g><g><path class="cls-7" d="M247.0238,183.8876h3.6665v.377h-3.3311v.8643h-.3354v-1.2412Z"/><path class="cls-7" d="M249.4647,181.7558v.6289h1.2256v.3711h-2.7549v-.3711h1.21v-.6338l-1.21-.9697v-.4033l1.3354,1.085,1.4194-1.1631v.4395l-1.2256,1.0166Z"/><path class="cls-7" d="M249.9413,177.3984c.2412,0,.4263,.0889,.5552,.2666,.1294,.1787,.1938,.4434,.1938,.7959v1.252h-2.7549v-1.2148c0-.3145,.061-.5605,.1831-.7383,.1226-.1787,.2969-.2676,.5239-.2676,.1499,0,.2783,.041,.3848,.123,.1069,.082,.186,.1963,.2383,.3438,.0874-.374,.3125-.5605,.6758-.5605Zm-.7803,1.9531v-.8271c0-.2129-.04-.376-.1206-.4902-.0801-.1133-.1973-.1699-.3511-.1699-.1533,0-.2686,.0566-.3457,.1699-.0767,.1143-.1152,.2773-.1152,.4902v.8271h.9326Zm1.1206-1.4082c-.0767-.1191-.1973-.1787-.3613-.1787s-.2852,.0547-.3638,.1621c-.0786,.1084-.1182,.2803-.1182,.5137v.9111h.9585v-.874c0-.2383-.0381-.416-.1152-.5342Z"/><path class="cls-7" d="M250.6327,176.6992c-.0557,.0537-.124,.0811-.2041,.0811-.0806,0-.1475-.0273-.2017-.0811-.0542-.0547-.0815-.1201-.0815-.1973,0-.0762,.0273-.1426,.0815-.1982s.1211-.084,.2017-.084c.0801,0,.1484,.0283,.2041,.084s.084,.1221,.084,.1982c0,.0771-.0283,.1426-.084,.1973Z"/></g><g><path class="cls-7" d="M259.1278,183.3525h.3354v2.5723h-.2671l-1.4927-1.5244c-.1885-.1914-.3516-.3223-.4897-.3896-.1377-.0684-.2769-.1025-.4165-.1025-.2163,0-.3848,.0742-.5054,.2227s-.1807,.3604-.1807,.6367c0,.4287,.1362,.7627,.4087,1l-.2305,.2666c-.168-.1426-.2969-.3252-.3877-.5469s-.1362-.4727-.1362-.752c0-.373,.0884-.6689,.2646-.8877,.1763-.2178,.418-.3271,.7251-.3271,.189,0,.3701,.042,.5449,.126s.3755,.2422,.6021,.4766l1.2256,1.2461v-2.0166Z"/><path class="cls-7" d="M258.2377,181.6249v.6289h1.2256v.3711h-2.7549v-.3711h1.21v-.6338l-1.21-.9697v-.4033l1.3354,1.085,1.4194-1.1631v.4395l-1.2256,1.0166Z"/><path class="cls-7" d="M258.7143,177.2675c.2412,0,.4263,.0889,.5552,.2666,.1294,.1787,.1938,.4434,.1938,.7959v1.252h-2.7549v-1.2148c0-.3145,.061-.5605,.1831-.7383,.1226-.1787,.2969-.2676,.5239-.2676,.1499,0,.2783,.041,.3848,.123,.1069,.082,.186,.1963,.2383,.3438,.0874-.374,.3125-.5605,.6758-.5605Zm-.7803,1.9531v-.8271c0-.2129-.04-.376-.1206-.4902-.0801-.1133-.1973-.1699-.3511-.1699-.1533,0-.2686,.0566-.3457,.1699-.0767,.1143-.1152,.2773-.1152,.4902v.8271h.9326Zm1.1206-1.4082c-.0767-.1191-.1973-.1787-.3613-.1787s-.2852,.0547-.3638,.1621c-.0786,.1084-.1182,.2803-.1182,.5137v.9111h.9585v-.874c0-.2383-.0381-.416-.1152-.5342Z"/><path class="cls-7" d="M259.4057,176.5683c-.0557,.0537-.124,.0811-.2041,.0811-.0806,0-.1475-.0273-.2017-.0811-.0542-.0547-.0815-.1201-.0815-.1973,0-.0762,.0273-.1426,.0815-.1982s.1211-.084,.2017-.084c.0801,0,.1484,.0283,.2041,.084s.084,.1221,.084,.1982c0,.0771-.0283,.1426-.084,.1973Z"/></g><g><path class="cls-7" d="M266.453,183.9453c.1865-.2002,.4302-.3008,.7305-.3008,.2095,0,.3955,.0508,.5576,.1514,.1626,.1016,.291,.252,.3853,.4512,.0942,.1982,.1411,.4414,.1411,.7275,0,.2656-.0425,.5156-.1279,.752-.0859,.2354-.2002,.4248-.3433,.5684l-.2983-.1836c.1255-.1221,.2275-.2842,.3062-.4873,.0786-.2021,.1177-.4189,.1177-.6494,0-.2998-.0654-.5322-.1963-.6963s-.3115-.2461-.542-.2461c-.2271,0-.4053,.082-.5342,.2461-.1294,.1641-.1938,.4121-.1938,.7432v.2627h-.2778l-1.2725-1.0166v1.875h-.3354v-2.3564h.2671l1.3042,1.0371c.021-.3848,.125-.6768,.312-.8779Z"/><path class="cls-7" d="M267.0106,181.8583v.6289h1.2256v.3711h-2.7549v-.3711h1.21v-.6338l-1.21-.9697v-.4033l1.3354,1.085,1.4194-1.1631v.4395l-1.2256,1.0166Z"/><path class="cls-7" d="M267.4872,177.5009c.2412,0,.4263,.0889,.5552,.2666,.1294,.1787,.1938,.4434,.1938,.7959v1.252h-2.7549v-1.2148c0-.3145,.061-.5605,.1831-.7383,.1226-.1787,.2969-.2676,.5239-.2676,.1499,0,.2783,.041,.3848,.123,.1069,.082,.186,.1963,.2383,.3438,.0874-.374,.3125-.5605,.6758-.5605Zm-.7803,1.9531v-.8271c0-.2129-.04-.376-.1206-.4902-.0801-.1133-.1973-.1699-.3511-.1699-.1533,0-.2686,.0566-.3457,.1699-.0767,.1143-.1152,.2773-.1152,.4902v.8271h.9326Zm1.1206-1.4082c-.0767-.1191-.1973-.1787-.3613-.1787s-.2852,.0547-.3638,.1621c-.0786,.1084-.1182,.2803-.1182,.5137v.9111h.9585v-.874c0-.2383-.0381-.416-.1152-.5342Z"/><path class="cls-7" d="M268.1786,176.8017c-.0557,.0537-.124,.0811-.2041,.0811-.0806,0-.1475-.0273-.2017-.0811-.0542-.0547-.0815-.1201-.0815-.1973,0-.0762,.0273-.1426,.0815-.1982s.1211-.084,.2017-.084c.0801,0,.1484,.0283,.2041,.084s.084,.1221,.084,.1982c0,.0771-.0283,.1426-.084,.1973Z"/></g><g><path class="cls-7" d="M276.0453,183.0527v.7334h.9639v.377h-.9639v2.0684h-.272l-2.4307-1.9424v-.4189l2.3677,1.875v-1.5928h-.8486v-.3662h.8486v-.7334h.335Z"/><path class="cls-7" d="M275.7836,181.4501v.6289h1.2256v.3711h-2.7549v-.3711h1.21v-.6338l-1.21-.9697v-.4033l1.3354,1.085,1.4194-1.1631v.4395l-1.2256,1.0166Z"/><path class="cls-7" d="M276.2602,177.0927c.2412,0,.4263,.0889,.5552,.2666,.1294,.1787,.1938,.4434,.1938,.7959v1.252h-2.7549v-1.2148c0-.3145,.061-.5605,.1831-.7383,.1226-.1787,.2969-.2676,.5239-.2676,.1499,0,.2783,.041,.3848,.123,.1069,.082,.186,.1963,.2383,.3438,.0874-.374,.3125-.5605,.6758-.5605Zm-.7803,1.9531v-.8271c0-.2129-.04-.376-.1206-.4902-.0801-.1133-.1973-.1699-.3511-.1699-.1533,0-.2686,.0566-.3457,.1699-.0767,.1143-.1152,.2773-.1152,.4902v.8271h.9326Zm1.1206-1.4082c-.0767-.1191-.1973-.1787-.3613-.1787s-.2852,.0547-.3638,.1621c-.0786,.1084-.1182,.2803-.1182,.5137v.9111h.9585v-.874c0-.2383-.0381-.416-.1152-.5342Z"/><path class="cls-7" d="M276.9516,176.3935c-.0557,.0537-.124,.0811-.2041,.0811-.0806,0-.1475-.0273-.2017-.0811-.0542-.0547-.0815-.1201-.0815-.1973,0-.0762,.0273-.1426,.0815-.1982s.1211-.084,.2017-.084c.0801,0,.1484,.0283,.2041,.084s.084,.1221,.084,.1982c0,.0771-.0283,.1426-.084,.1973Z"/></g><g><path d="M8.6806,198.288v.3906h-3.0005v-.3115l1.7783-1.7412c.2236-.2207,.3755-.4111,.4551-.5713,.0796-.1611,.1191-.3232,.1191-.4863,0-.2529-.0864-.4492-.2598-.5898-.1729-.1406-.4204-.2109-.7422-.2109-.501,0-.8901,.1592-1.1675,.4766l-.3115-.2686c.167-.1953,.3799-.3457,.6387-.4521,.2588-.1055,.5508-.1592,.877-.1592,.4355,0,.7812,.1035,1.0356,.3086,.2544,.2061,.3818,.4883,.3818,.8467,0,.2197-.0488,.4316-.1465,.6357-.0977,.2031-.2832,.4375-.5562,.7021l-1.4541,1.4307h2.3525Z"/><path d="M9.9911,198.4521c-.2588-.1748-.4604-.4258-.605-.7539s-.2168-.7139-.2168-1.1582,.0723-.8301,.2168-1.1582c.1445-.3271,.3462-.5791,.605-.7549,.2588-.1748,.5527-.2627,.8828-.2627s.6245,.0879,.8833,.2627c.2583,.1758,.4609,.4277,.6079,.7549,.1465,.3281,.2197,.7139,.2197,1.1582s-.0732,.8301-.2197,1.1582c-.147,.3281-.3496,.5791-.6079,.7539-.2588,.1758-.5532,.2637-.8833,.2637s-.624-.0879-.8828-.2637Zm1.54-.3477c.1895-.1387,.3369-.3398,.4429-.6055,.106-.2646,.1587-.584,.1587-.959s-.0527-.6943-.1587-.959c-.106-.2656-.2534-.4668-.4429-.6055s-.4087-.208-.6572-.208-.4673,.0693-.6567,.208-.3369,.3398-.4429,.6055c-.106,.2646-.1592,.584-.1592,.959s.0532,.6943,.1592,.959c.106,.2656,.2534,.4668,.4429,.6055s.4082,.208,.6567,.208,.4678-.0693,.6572-.208Z"/><path d="M14.3451,194.4013v4.2773h-.4399v-3.8867h-1.0083v-.3906h1.4482Z"/><path d="M18.9462,197.5546h-.8555v1.124h-.4399v-1.124h-2.4136v-.3184l2.2666-2.835h.4893l-2.188,2.7617h1.8579v-.9893h.4277v.9893h.8555v.3916Z"/></g><g><path d="M43.9936,198.288v.3906h-3.0005v-.3115l1.7783-1.7412c.2236-.2207,.3755-.4111,.4551-.5713,.0796-.1611,.1191-.3232,.1191-.4863,0-.2529-.0864-.4492-.2598-.5898-.1729-.1406-.4204-.2109-.7422-.2109-.501,0-.8901,.1592-1.1675,.4766l-.3115-.2686c.167-.1953,.3799-.3457,.6387-.4521,.2588-.1055,.5508-.1592,.877-.1592,.4355,0,.7812,.1035,1.0356,.3086,.2544,.2061,.3818,.4883,.3818,.8467,0,.2197-.0488,.4316-.1465,.6357-.0977,.2031-.2832,.4375-.5562,.7021l-1.4541,1.4307h2.3525Z"/><path d="M45.31,198.4521c-.2588-.1748-.4604-.4258-.605-.7539s-.2168-.7139-.2168-1.1582,.0723-.8301,.2168-1.1582c.1445-.3271,.3462-.5791,.605-.7549,.2588-.1748,.5527-.2627,.8828-.2627s.6245,.0879,.8833,.2627c.2583,.1758,.4609,.4277,.6079,.7549,.1465,.3281,.2197,.7139,.2197,1.1582s-.0732,.8301-.2197,1.1582c-.147,.3281-.3496,.5791-.6079,.7539-.2588,.1758-.5532,.2637-.8833,.2637s-.624-.0879-.8828-.2637Zm1.54-.3477c.1895-.1387,.3369-.3398,.4429-.6055,.106-.2646,.1587-.584,.1587-.959s-.0527-.6943-.1587-.959c-.106-.2656-.2534-.4668-.4429-.6055s-.4087-.208-.6572-.208-.4673,.0693-.6567,.208-.3369,.3398-.4429,.6055c-.106,.2646-.1592,.584-.1592,.959s.0532,.6943,.1592,.959c.106,.2656,.2534,.4668,.4429,.6055s.4082,.208,.6567,.208,.4678-.0693,.6572-.208Z"/><path d="M49.664,194.4013v4.2773h-.4399v-3.8867h-1.0083v-.3906h1.4482Z"/><path d="M53.1068,196.4882c.2832,.2217,.4248,.5322,.4248,.9316,0,.249-.0581,.4707-.1743,.666-.1157,.1953-.29,.3496-.5225,.4609-.2319,.1123-.5171,.1689-.8555,.1689-.3052,0-.5957-.0498-.8706-.1504-.2749-.0996-.4961-.2334-.6631-.4004l.2139-.3477c.1426,.1465,.3301,.2656,.5625,.3574,.2319,.0918,.4824,.1377,.7515,.1377,.3545,0,.6284-.0801,.8218-.2383,.1934-.1592,.2905-.3711,.2905-.6357,0-.2939-.1094-.5156-.3271-.666-.2178-.1514-.5854-.2266-1.103-.2266h-.9102l.2197-2.1445h2.3403v.3906h-1.9556l-.1465,1.3633h.5498c.6191,0,1.0703,.1104,1.3535,.333Z"/></g><g><path d="M79.098,198.288v.3906h-3.0005v-.3115l1.7783-1.7412c.2236-.2207,.3755-.4111,.4551-.5713,.0796-.1611,.1191-.3232,.1191-.4863,0-.2529-.0864-.4492-.2598-.5898-.1729-.1406-.4204-.2109-.7422-.2109-.501,0-.8901,.1592-1.1675,.4766l-.3115-.2686c.167-.1953,.3799-.3457,.6387-.4521,.2588-.1055,.5508-.1592,.877-.1592,.4355,0,.7812,.1035,1.0356,.3086,.2544,.2061,.3818,.4883,.3818,.8467,0,.2197-.0488,.4316-.1465,.6357-.0977,.2031-.2832,.4375-.5562,.7021l-1.4541,1.4307h2.3525Z"/><path d="M80.4145,198.4521c-.2588-.1748-.4604-.4258-.605-.7539s-.2168-.7139-.2168-1.1582,.0723-.8301,.2168-1.1582c.1445-.3271,.3462-.5791,.605-.7549,.2588-.1748,.5527-.2627,.8828-.2627s.6245,.0879,.8833,.2627c.2583,.1758,.4609,.4277,.6079,.7549,.1465,.3281,.2197,.7139,.2197,1.1582s-.0732,.8301-.2197,1.1582c-.147,.3281-.3496,.5791-.6079,.7539-.2588,.1758-.5532,.2637-.8833,.2637s-.624-.0879-.8828-.2637Zm1.54-.3477c.1895-.1387,.3369-.3398,.4429-.6055,.106-.2646,.1587-.584,.1587-.959s-.0527-.6943-.1587-.959c-.106-.2656-.2534-.4668-.4429-.6055s-.4087-.208-.6572-.208-.4673,.0693-.6567,.208-.3369,.3398-.4429,.6055c-.106,.2646-.1592,.584-.1592,.959s.0532,.6943,.1592,.959c.106,.2656,.2534,.4668,.4429,.6055s.4082,.208,.6567,.208,.4678-.0693,.6572-.208Z"/><path d="M84.7685,194.4013v4.2773h-.4399v-3.8867h-1.0083v-.3906h1.4482Z"/><path d="M88.2543,196.2773c.2178,.1055,.3882,.2559,.5103,.4492s.1831,.418,.1831,.6748c0,.2607-.063,.4912-.1895,.6904-.126,.2002-.3003,.3535-.5225,.4619-.2217,.1074-.4712,.1621-.7485,.1621-.5659,0-1-.1865-1.3013-.5596-.3018-.373-.4521-.8994-.4521-1.5791,0-.4775,.0815-.8809,.2441-1.21,.1631-.3301,.3911-.5801,.6846-.749s.6353-.2539,1.0264-.2539c.4238,0,.7617,.0781,1.0146,.2324l-.1772,.3545c-.2036-.1348-.481-.2012-.8311-.2012-.4727,0-.8433,.1494-1.1123,.4492-.2686,.2988-.4033,.7334-.4033,1.3037,0,.1025,.0063,.2188,.0186,.3486,.106-.2324,.2749-.4121,.5073-.541,.2319-.1279,.4985-.1924,.8003-.1924,.2812,0,.5308,.0527,.7485,.1592Zm-.0308,1.8115c.1938-.1689,.2905-.3936,.2905-.6748s-.0967-.5049-.2905-.6729c-.1934-.167-.4551-.25-.7852-.25-.2158,0-.4062,.041-.5713,.1221-.165,.082-.2944,.1934-.3877,.3359-.0942,.1426-.1406,.3018-.1406,.4766,0,.1631,.0435,.3145,.1313,.4521,.0874,.1387,.2168,.251,.3877,.3359,.1714,.0859,.375,.1289,.6113,.1289,.3096,0,.561-.085,.7544-.2539Z"/></g><g><path d="M114.5937,198.288v.3906h-3.0005v-.3115l1.7783-1.7412c.2236-.2207,.3755-.4111,.4551-.5713,.0796-.1611,.1191-.3232,.1191-.4863,0-.2529-.0864-.4492-.2598-.5898-.1729-.1406-.4204-.2109-.7422-.2109-.501,0-.8901,.1592-1.1675,.4766l-.3115-.2686c.167-.1953,.3799-.3457,.6387-.4521,.2588-.1055,.5508-.1592,.877-.1592,.4355,0,.7812,.1035,1.0356,.3086,.2544,.2061,.3818,.4883,.3818,.8467,0,.2197-.0488,.4316-.1465,.6357-.0977,.2031-.2832,.4375-.5562,.7021l-1.4541,1.4307h2.3525Z"/><path d="M115.9101,198.4521c-.2588-.1748-.4604-.4258-.605-.7539s-.2168-.7139-.2168-1.1582,.0723-.8301,.2168-1.1582c.1445-.3271,.3462-.5791,.605-.7549,.2588-.1748,.5527-.2627,.8828-.2627s.6245,.0879,.8833,.2627c.2583,.1758,.4609,.4277,.6079,.7549,.1465,.3281,.2197,.7139,.2197,1.1582s-.0732,.8301-.2197,1.1582c-.147,.3281-.3496,.5791-.6079,.7539-.2588,.1758-.5532,.2637-.8833,.2637s-.624-.0879-.8828-.2637Zm1.54-.3477c.1895-.1387,.3369-.3398,.4429-.6055,.106-.2646,.1587-.584,.1587-.959s-.0527-.6943-.1587-.959c-.106-.2656-.2534-.4668-.4429-.6055s-.4087-.208-.6572-.208-.4673,.0693-.6567,.208-.3369,.3398-.4429,.6055c-.106,.2646-.1592,.584-.1592,.959s.0532,.6943,.1592,.959c.106,.2656,.2534,.4668,.4429,.6055s.4082,.208,.6567,.208,.4678-.0693,.6572-.208Z"/><path d="M120.2641,194.4013v4.2773h-.4399v-3.8867h-1.0083v-.3906h1.4482Z"/><path d="M124.248,194.4013v.3115l-1.7905,3.9658h-.4766l1.7598-3.8867h-2.1997v.8008h-.4341v-1.1914h3.1411Z"/></g><g><path d="M149.4179,198.288v.3906h-3.0005v-.3115l1.7783-1.7412c.2236-.2207,.3755-.4111,.4551-.5713,.0796-.1611,.1191-.3232,.1191-.4863,0-.2529-.0864-.4492-.2598-.5898-.1729-.1406-.4204-.2109-.7422-.2109-.501,0-.8901,.1592-1.1675,.4766l-.3115-.2686c.167-.1953,.3799-.3457,.6387-.4521,.2588-.1055,.5508-.1592,.877-.1592,.4355,0,.7812,.1035,1.0356,.3086,.2544,.2061,.3818,.4883,.3818,.8467,0,.2197-.0488,.4316-.1465,.6357-.0977,.2031-.2832,.4375-.5562,.7021l-1.4541,1.4307h2.3525Z"/><path d="M150.7343,198.4521c-.2588-.1748-.4604-.4258-.605-.7539s-.2168-.7139-.2168-1.1582,.0723-.8301,.2168-1.1582c.1445-.3271,.3462-.5791,.605-.7549,.2588-.1748,.5527-.2627,.8828-.2627s.6245,.0879,.8833,.2627c.2583,.1758,.4609,.4277,.6079,.7549,.1465,.3281,.2197,.7139,.2197,1.1582s-.0732,.8301-.2197,1.1582c-.147,.3281-.3496,.5791-.6079,.7539-.2588,.1758-.5532,.2637-.8833,.2637s-.624-.0879-.8828-.2637Zm1.54-.3477c.1895-.1387,.3369-.3398,.4429-.6055,.106-.2646,.1587-.584,.1587-.959s-.0527-.6943-.1587-.959c-.106-.2656-.2534-.4668-.4429-.6055s-.4087-.208-.6572-.208-.4673,.0693-.6567,.208-.3369,.3398-.4429,.6055c-.106,.2646-.1592,.584-.1592,.959s.0532,.6943,.1592,.959c.106,.2656,.2534,.4668,.4429,.6055s.4082,.208,.6567,.208,.4678-.0693,.6572-.208Z"/><path d="M155.0883,194.4013v4.2773h-.4399v-3.8867h-1.0083v-.3906h1.4482Z"/><path d="M159.1239,196.8398c.1445,.1787,.2168,.3945,.2168,.6475,0,.248-.0669,.4648-.2012,.6504-.1348,.1855-.3271,.3281-.5776,.4277-.2505,.1006-.5449,.1504-.8828,.1504-.5137,0-.917-.1104-1.21-.3301-.2935-.2207-.4399-.5195-.4399-.8984,0-.2568,.0703-.4736,.2104-.6514,.1406-.1768,.3452-.3105,.6143-.3994-.2197-.0859-.3872-.209-.501-.3701-.1143-.1611-.1709-.3516-.1709-.5713,0-.3467,.1353-.6211,.4062-.8252,.2705-.2031,.6343-.3057,1.0908-.3057,.3013,0,.5649,.0459,.791,.1377s.4023,.2236,.5288,.3945c.126,.1709,.1895,.3701,.1895,.5986,0,.2197-.0591,.4102-.1772,.5713s-.2871,.2842-.5073,.3701c.269,.0889,.4756,.2236,.6201,.4033Zm-.5562,1.2705c.2139-.1543,.3208-.3643,.3208-.6289,0-.2656-.1069-.4736-.3208-.627-.2139-.1523-.5103-.2285-.8887-.2285-.375,0-.6694,.0762-.8833,.2285-.2139,.1533-.3208,.3613-.3208,.627,0,.2686,.106,.4795,.3179,.6318,.2119,.1533,.5073,.2295,.8862,.2295,.3784,0,.6748-.0771,.8887-.2324Zm-1.665-2.041c.1875,.1387,.4463,.208,.7764,.208,.3296,0,.5894-.0693,.7788-.208s.2842-.3232,.2842-.5557c0-.2402-.0967-.4297-.29-.5684-.1938-.1387-.4512-.208-.7729-.208-.3262,0-.584,.0693-.7729,.208-.1895,.1387-.2842,.3262-.2842,.5625,0,.2354,.0933,.4229,.2808,.5615Z"/></g><g><path d="M184.62,198.288v.3906h-3.0005v-.3115l1.7783-1.7412c.2236-.2207,.3755-.4111,.4551-.5713,.0796-.1611,.1191-.3232,.1191-.4863,0-.2529-.0864-.4492-.2598-.5898-.1729-.1406-.4204-.2109-.7422-.2109-.501,0-.8901,.1592-1.1675,.4766l-.3115-.2686c.167-.1953,.3799-.3457,.6387-.4521,.2588-.1055,.5508-.1592,.877-.1592,.4355,0,.7812,.1035,1.0356,.3086,.2544,.2061,.3818,.4883,.3818,.8467,0,.2197-.0488,.4316-.1465,.6357-.0977,.2031-.2832,.4375-.5562,.7021l-1.4541,1.4307h2.3525Z"/><path d="M185.9364,198.4521c-.2588-.1748-.4604-.4258-.605-.7539s-.2168-.7139-.2168-1.1582,.0723-.8301,.2168-1.1582c.1445-.3271,.3462-.5791,.605-.7549,.2588-.1748,.5527-.2627,.8828-.2627s.6245,.0879,.8833,.2627c.2583,.1758,.4609,.4277,.6079,.7549,.1465,.3281,.2197,.7139,.2197,1.1582s-.0732,.8301-.2197,1.1582c-.147,.3281-.3496,.5791-.6079,.7539-.2588,.1758-.5532,.2637-.8833,.2637s-.624-.0879-.8828-.2637Zm1.54-.3477c.1895-.1387,.3369-.3398,.4429-.6055,.106-.2646,.1587-.584,.1587-.959s-.0527-.6943-.1587-.959c-.106-.2656-.2534-.4668-.4429-.6055s-.4087-.208-.6572-.208-.4673,.0693-.6567,.208-.3369,.3398-.4429,.6055c-.106,.2646-.1592,.584-.1592,.959s.0532,.6943,.1592,.959c.106,.2656,.2534,.4668,.4429,.6055s.4082,.208,.6567,.208,.4678-.0693,.6572-.208Z"/><path d="M190.2904,194.4013v4.2773h-.4399v-3.8867h-1.0083v-.3906h1.4482Z"/><path d="M193.8891,194.9238c.3018,.373,.4526,.8994,.4526,1.5791,0,.4775-.0815,.8799-.2446,1.21s-.3911,.5801-.6846,.749c-.293,.1689-.6353,.2539-1.0264,.2539-.4238,0-.7617-.0781-1.0142-.2324l.1768-.3545c.2041,.1348,.481,.2012,.8311,.2012,.4727,0,.8433-.1494,1.1123-.4492,.269-.2988,.4033-.7334,.4033-1.3037,0-.1064-.0063-.2227-.0186-.3486-.106,.2324-.2749,.4121-.5068,.541-.2324,.1279-.499,.1924-.8008,.1924-.2808,0-.5303-.0527-.7485-.1592-.2178-.1055-.3877-.2559-.5103-.4492-.1221-.1934-.1831-.418-.1831-.6748,0-.2607,.063-.4912,.1895-.6904,.126-.2002,.3003-.3535,.5225-.4619,.2217-.1074,.4712-.1621,.7485-.1621,.5659,0,1,.1865,1.3013,.5596Zm-.6812,1.543c.165-.082,.2944-.1934,.3882-.3359s.1406-.3018,.1406-.4766c0-.1631-.0439-.3135-.1313-.4521-.0879-.1387-.2173-.251-.3882-.3359-.1714-.0859-.375-.1289-.6113-.1289-.3096,0-.561,.085-.7544,.2539s-.2905,.3936-.2905,.6748,.0972,.5049,.2905,.6719c.1934,.168,.4551,.251,.7852,.251,.2158,0,.4062-.041,.5713-.1221Z"/></g><g><path d="M219.1352,198.288v.3906h-3.0005v-.3115l1.7783-1.7412c.2236-.2207,.3755-.4111,.4551-.5713,.0796-.1611,.1191-.3232,.1191-.4863,0-.2529-.0864-.4492-.2598-.5898-.1729-.1406-.4204-.2109-.7422-.2109-.501,0-.8901,.1592-1.1675,.4766l-.3115-.2686c.167-.1953,.3799-.3457,.6387-.4521,.2588-.1055,.5508-.1592,.877-.1592,.4355,0,.7812,.1035,1.0356,.3086,.2544,.2061,.3818,.4883,.3818,.8467,0,.2197-.0488,.4316-.1465,.6357-.0977,.2031-.2832,.4375-.5562,.7021l-1.4541,1.4307h2.3525Z"/><path d="M220.4516,198.4521c-.2588-.1748-.4604-.4258-.605-.7539s-.2168-.7139-.2168-1.1582,.0723-.8301,.2168-1.1582c.1445-.3271,.3462-.5791,.605-.7549,.2588-.1748,.5527-.2627,.8828-.2627s.6245,.0879,.8833,.2627c.2583,.1758,.4609,.4277,.6079,.7549,.1465,.3281,.2197,.7139,.2197,1.1582s-.0732,.8301-.2197,1.1582c-.147,.3281-.3496,.5791-.6079,.7539-.2588,.1758-.5532,.2637-.8833,.2637s-.624-.0879-.8828-.2637Zm1.54-.3477c.1895-.1387,.3369-.3398,.4429-.6055,.106-.2646,.1587-.584,.1587-.959s-.0527-.6943-.1587-.959c-.106-.2656-.2534-.4668-.4429-.6055s-.4087-.208-.6572-.208-.4673,.0693-.6567,.208-.3369,.3398-.4429,.6055c-.106,.2646-.1592,.584-.1592,.959s.0532,.6943,.1592,.959c.106,.2656,.2534,.4668,.4429,.6055s.4082,.208,.6567,.208,.4678-.0693,.6572-.208Z"/><path d="M226.5409,198.288v.3906h-3.0005v-.3115l1.7783-1.7412c.2236-.2207,.3755-.4111,.4551-.5713,.0796-.1611,.1191-.3232,.1191-.4863,0-.2529-.0864-.4492-.2598-.5898-.1729-.1406-.4204-.2109-.7422-.2109-.501,0-.8901,.1592-1.1675,.4766l-.3115-.2686c.167-.1953,.3799-.3457,.6387-.4521,.2588-.1055,.5508-.1592,.877-.1592,.4355,0,.7812,.1035,1.0356,.3086,.2544,.2061,.3818,.4883,.3818,.8467,0,.2197-.0488,.4316-.1465,.6357-.0977,.2031-.2832,.4375-.5562,.7021l-1.4541,1.4307h2.3525Z"/><path d="M227.8578,198.4521c-.2588-.1748-.4604-.4258-.605-.7539s-.2168-.7139-.2168-1.1582,.0723-.8301,.2168-1.1582c.1445-.3271,.3462-.5791,.605-.7549,.2588-.1748,.5527-.2627,.8828-.2627s.6245,.0879,.8833,.2627c.2583,.1758,.4609,.4277,.6079,.7549,.1465,.3281,.2197,.7139,.2197,1.1582s-.0732,.8301-.2197,1.1582c-.147,.3281-.3496,.5791-.6079,.7539-.2588,.1758-.5532,.2637-.8833,.2637s-.624-.0879-.8828-.2637Zm1.54-.3477c.1895-.1387,.3369-.3398,.4429-.6055,.106-.2646,.1587-.584,.1587-.959s-.0527-.6943-.1587-.959c-.106-.2656-.2534-.4668-.4429-.6055s-.4087-.208-.6572-.208-.4673,.0693-.6567,.208-.3369,.3398-.4429,.6055c-.106,.2646-.1592,.584-.1592,.959s.0532,.6943,.1592,.959c.106,.2656,.2534,.4668,.4429,.6055s.4082,.208,.6567,.208,.4678-.0693,.6572-.208Z"/></g><g><path d="M255.0922,198.288v.3906h-3.0005v-.3115l1.7783-1.7412c.2236-.2207,.3755-.4111,.4551-.5713,.0796-.1611,.1191-.3232,.1191-.4863,0-.2529-.0864-.4492-.2598-.5898-.1729-.1406-.4204-.2109-.7422-.2109-.501,0-.8901,.1592-1.1675,.4766l-.3115-.2686c.167-.1953,.3799-.3457,.6387-.4521,.2588-.1055,.5508-.1592,.877-.1592,.4355,0,.7812,.1035,1.0356,.3086,.2544,.2061,.3818,.4883,.3818,.8467,0,.2197-.0488,.4316-.1465,.6357-.0977,.2031-.2832,.4375-.5562,.7021l-1.4541,1.4307h2.3525Z"/><path d="M256.4086,198.4521c-.2588-.1748-.4604-.4258-.605-.7539s-.2168-.7139-.2168-1.1582,.0723-.8301,.2168-1.1582c.1445-.3271,.3462-.5791,.605-.7549,.2588-.1748,.5527-.2627,.8828-.2627s.6245,.0879,.8833,.2627c.2583,.1758,.4609,.4277,.6079,.7549,.1465,.3281,.2197,.7139,.2197,1.1582s-.0732,.8301-.2197,1.1582c-.147,.3281-.3496,.5791-.6079,.7539-.2588,.1758-.5532,.2637-.8833,.2637s-.624-.0879-.8828-.2637Zm1.54-.3477c.1895-.1387,.3369-.3398,.4429-.6055,.106-.2646,.1587-.584,.1587-.959s-.0527-.6943-.1587-.959c-.106-.2656-.2534-.4668-.4429-.6055s-.4087-.208-.6572-.208-.4673,.0693-.6567,.208-.3369,.3398-.4429,.6055c-.106,.2646-.1592,.584-.1592,.959s.0532,.6943,.1592,.959c.106,.2656,.2534,.4668,.4429,.6055s.4082,.208,.6567,.208,.4678-.0693,.6572-.208Z"/><path d="M262.498,198.288v.3906h-3.0005v-.3115l1.7783-1.7412c.2236-.2207,.3755-.4111,.4551-.5713,.0796-.1611,.1191-.3232,.1191-.4863,0-.2529-.0864-.4492-.2598-.5898-.1729-.1406-.4204-.2109-.7422-.2109-.501,0-.8901,.1592-1.1675,.4766l-.3115-.2686c.167-.1953,.3799-.3457,.6387-.4521,.2588-.1055,.5508-.1592,.877-.1592,.4355,0,.7812,.1035,1.0356,.3086,.2544,.2061,.3818,.4883,.3818,.8467,0,.2197-.0488,.4316-.1465,.6357-.0977,.2031-.2832,.4375-.5562,.7021l-1.4541,1.4307h2.3525Z"/><path d="M264.1723,194.4013v4.2773h-.4399v-3.8867h-1.0083v-.3906h1.4482Z"/></g></svg>