<?xml version="1.0" encoding="UTF-8"?><svg id="Layer_1" xmlns="http://www.w3.org/2000/svg" viewBox="0 0 284.1833 191.3903"><defs><style>.cls-1{stroke-dasharray:0 0 0 2;}.cls-1,.cls-2,.cls-3,.cls-4{stroke-linecap:round;}.cls-1,.cls-2,.cls-3,.cls-4,.cls-5{fill:none;}.cls-1,.cls-3{opacity:.5;stroke:#858585;stroke-linejoin:round;}.cls-1,.cls-4,.cls-5{stroke-width:.5px;}.cls-6{fill:#fff;}.cls-7{fill:#858585;}.cls-8{fill:#e30510;}.cls-9{fill:#585857;}.cls-2{stroke-width:.3px;}.cls-2,.cls-4{stroke:#000;stroke-linejoin:bevel;}.cls-3{stroke-width:.25px;}.cls-5{stroke:#e30510;stroke-miterlimit:10;}</style></defs><g><line class="cls-1" x1="2.8105" y1="155.5309" x2="2.8105" y2="5.6809"/><line class="cls-1" x1="11.6259" y1="155.5309" x2="11.6259" y2="5.6809"/><line class="cls-1" x1="20.4405" y1="155.5309" x2="20.4405" y2="5.6809"/><line class="cls-1" x1="29.2559" y1="164.9892" x2="29.2559" y2="12.6812"/><line class="cls-1" x1="38.0712" y1="155.5309" x2="38.0712" y2="5.6809"/><line class="cls-1" x1="46.8861" y1="155.5309" x2="46.8861" y2="5.6809"/><line class="cls-1" x1="55.7014" y1="155.5309" x2="55.7014" y2="5.6809"/><line class="cls-1" x1="64.5168" y1="164.9892" x2="64.5168" y2="12.6812"/><line class="cls-1" x1="73.3317" y1="155.5309" x2="73.3317" y2="5.6809"/><line class="cls-1" x1="82.147" y1="155.5309" x2="82.147" y2="5.6809"/><line class="cls-1" x1="90.9621" y1="155.5309" x2="90.9621" y2="5.6809"/><line class="cls-1" x1="99.777" y1="164.9892" x2="99.777" y2="12.6812"/><line class="cls-1" x1="108.5924" y1="155.5309" x2="108.5924" y2="5.6809"/><line class="cls-1" x1="117.4077" y1="155.5309" x2="117.4077" y2="5.6809"/><line class="cls-1" x1="126.2226" y1="155.5309" x2="126.2226" y2="5.6809"/><line class="cls-1" x1="135.0379" y1="164.9892" x2="135.0379" y2="12.6812"/><line class="cls-1" x1="143.8533" y1="155.5309" x2="143.8533" y2="5.6809"/><line class="cls-1" x1="152.6682" y1="155.5309" x2="152.6682" y2="5.6809"/><line class="cls-1" x1="161.4833" y1="155.5309" x2="161.4833" y2="5.6809"/><line class="cls-1" x1="170.2986" y1="164.9892" x2="170.2986" y2="12.6812"/><line class="cls-1" x1="179.1135" y1="155.5309" x2="179.1135" y2="5.6809"/><line class="cls-1" x1="187.9289" y1="155.5309" x2="187.9289" y2="5.6809"/><line class="cls-1" x1="196.7442" y1="155.5309" x2="196.7442" y2="5.6809"/><line class="cls-1" x1="205.559" y1="164.9892" x2="205.559" y2="12.6812"/><line class="cls-1" x1="214.3744" y1="155.5309" x2="214.3744" y2="5.6809"/><line class="cls-1" x1="223.1898" y1="155.5309" x2="223.1898" y2="5.6809"/><line class="cls-1" x1="232.0045" y1="155.5309" x2="232.0045" y2="5.6809"/><line class="cls-1" x1="240.8198" y1="164.9892" x2="240.8198" y2="12.6812"/><line class="cls-1" x1="249.6351" y1="155.5309" x2="249.6351" y2="5.6809"/><line class="cls-1" x1="258.4499" y1="155.5309" x2="258.4499" y2="5.6809"/><line class="cls-1" x1="267.2654" y1="155.5309" x2="267.2654" y2="5.6809"/><line class="cls-1" x1="276.0807" y1="164.9892" x2="276.0807" y2="12.6812"/><polyline class="cls-4" points="2.998 101.4878 11.7868 95.1808 20.5766 94.4718 29.3655 84.0548 38.1552 47.6298 46.9441 49.6848 55.7338 50.3228 64.5227 56.7718 73.3116 90.9288 81.9707 96.2438 90.7595 99.2198 99.6799 105.0308 108.4688 111.1568 117.2586 113.7478 126.0474 118.2128 134.8363 122.6768 143.6261 124.8028 152.2842 123.8818 161.2047 120.7638 169.9936 115.8738 178.7833 108.6458 187.5722 109.3538 196.2304 113.1098 205.1508 117.6458 213.9396 123.5278 222.7294 120.1968 231.5183 117.6458 240.308 112.8268 249.0969 106.5908 257.8866 103.8978 266.6755 99.3618 275.4644 91.4958"/><polyline class="cls-5" points="2.998 96.8111 11.7868 84.7641 20.5766 78.9531 29.3655 63.9291 38.1552 13.9681 46.8134 24.8111 55.6032 37.3541 64.5227 49.5431 73.3116 98.3701 82.232 105.3151 90.8902 102.3381 99.6799 108.5751 108.4688 116.0861 117.2586 114.3861 126.0474 121.1181 134.8363 130.0471 143.6261 131.7481 152.2842 134.7241 161.074 128.2051 169.9936 117.3621 178.7833 105.2441 187.5722 103.8971 196.3611 108.9151 205.1508 117.0791 213.9396 125.7521 222.7294 117.4181 231.5183 113.4501 240.308 105.7401 249.0969 96.1021 257.8866 96.8391 266.6755 92.4171 275.4644 77.7161"/><line class="cls-2" x1="3.1118" y1="137.3228" x2="276.2238" y2="137.3228"/><line class="cls-3" x1="29.2559" y1="184.791" x2="29.2559" y2="5.6812"/><line class="cls-3" x1="64.5168" y1="184.791" x2="64.5168" y2="5.6812"/><line class="cls-3" x1="99.777" y1="184.791" x2="99.777" y2="5.6812"/><line class="cls-3" x1="135.0379" y1="184.791" x2="135.0379" y2="5.6812"/><line class="cls-3" x1="170.2986" y1="184.791" x2="170.2986" y2="5.6812"/><line class="cls-3" x1="205.559" y1="184.791" x2="205.559" y2="5.6812"/><line class="cls-3" x1="240.8198" y1="184.791" x2="240.8198" y2="5.6812"/><line class="cls-3" x1="276.0807" y1="184.791" x2="276.0807" y2="5.6812"/><rect class="cls-6" x="1.1191" y="158.0795" width="278.7094" height="17.0824"/><g><path class="cls-7" d="M1.38,169.9631h3.667v.377H1.7159v.8643h-.3359v-1.2412Z"/><path class="cls-7" d="M3.8214,167.8313v.6289h1.2256v.3711H2.2921v-.3711h1.21v-.6338l-1.21-.9697v-.4033l1.335,1.085,1.4199-1.1631v.4395l-1.2256,1.0166Z"/><path class="cls-7" d="M4.298,163.4739c.2412,0,.4258,.0889,.5547,.2666,.1299,.1787,.1943,.4434,.1943,.7959v1.252H2.2921v-1.2148c0-.3145,.0605-.5605,.1826-.7383,.123-.1787,.2969-.2676,.5244-.2676,.1494,0,.2783,.041,.3848,.123s.1855,.1963,.2383,.3438c.0869-.374,.3125-.5605,.6758-.5605Zm-.7803,1.9531v-.8271c0-.2129-.04-.376-.1211-.4902-.0801-.1133-.1973-.1699-.3506-.1699s-.2686,.0566-.3457,.1699c-.0771,.1143-.1152,.2773-.1152,.4902v.8271h.9326Zm1.1201-1.4082c-.0762-.1191-.1973-.1787-.3613-.1787s-.2852,.0547-.3633,.1621c-.0791,.1084-.1182,.2803-.1182,.5137v.9111h.958v-.874c0-.2383-.0381-.416-.1152-.5342Z"/><path class="cls-7" d="M4.9894,162.7747c-.0557,.0537-.124,.0811-.2041,.0811-.0811,0-.1475-.0273-.2021-.0811-.0537-.0547-.0811-.1201-.0811-.1973,0-.0762,.0273-.1426,.0811-.1982,.0547-.0557,.1211-.084,.2021-.084,.0801,0,.1484,.0283,.2041,.084s.084,.1221,.084,.1982c0,.0771-.0283,.1426-.084,.1973Z"/></g><g><path class="cls-7" d="M13.4845,169.428h.335v2.5723h-.2666l-1.4932-1.5244c-.1885-.1914-.3516-.3223-.4893-.3896-.1377-.0684-.2773-.1025-.417-.1025-.2158,0-.3848,.0742-.5049,.2227-.1211,.1484-.1807,.3604-.1807,.6367,0,.4287,.1357,.7627,.4082,1l-.2305,.2666c-.168-.1426-.2969-.3252-.3877-.5469s-.1357-.4727-.1357-.752c0-.373,.0879-.6689,.2646-.8877,.1758-.2178,.418-.3271,.7246-.3271,.1885,0,.3701,.042,.5449,.126s.376,.2422,.6025,.4766l1.2256,1.2461v-2.0166Z"/><path class="cls-7" d="M12.5939,167.7004v.6289h1.2256v.3711h-2.7549v-.3711h1.21v-.6338l-1.21-.9697v-.4033l1.3359,1.085,1.4189-1.1631v.4395l-1.2256,1.0166Z"/><path class="cls-7" d="M13.0704,163.343c.2412,0,.4268,.0889,.5557,.2666,.1289,.1787,.1934,.4434,.1934,.7959v1.252h-2.7549v-1.2148c0-.3145,.0615-.5605,.1836-.7383,.1221-.1787,.2969-.2676,.5234-.2676,.1504,0,.2783,.041,.3848,.123,.1074,.082,.1865,.1963,.2383,.3438,.0879-.374,.3125-.5605,.6758-.5605Zm-.7803,1.9531v-.8271c0-.2129-.04-.376-.1201-.4902-.0801-.1133-.1973-.1699-.3516-.1699-.1533,0-.2686,.0566-.3457,.1699-.0762,.1143-.1152,.2773-.1152,.4902v.8271h.9326Zm1.1211-1.4082c-.0771-.1191-.1973-.1787-.3613-.1787s-.2852,.0547-.3643,.1621c-.0781,.1084-.1182,.2803-.1182,.5137v.9111h.959v-.874c0-.2383-.0381-.416-.1152-.5342Z"/><path class="cls-7" d="M13.7618,162.6438c-.0557,.0537-.124,.0811-.2041,.0811s-.1475-.0273-.2012-.0811c-.0547-.0547-.082-.1201-.082-.1973,0-.0762,.0273-.1426,.082-.1982,.0537-.0557,.1211-.084,.2012-.084s.1484,.0283,.2041,.084,.084,.1221,.084,.1982c0,.0771-.0283,.1426-.084,.1973Z"/></g><g><path class="cls-7" d="M20.8097,170.0227c.1865-.2002,.4297-.3008,.7305-.3008,.209,0,.3955,.0508,.5576,.1514,.1621,.1016,.291,.252,.3848,.4512,.0947,.1982,.1416,.4414,.1416,.7275,0,.2656-.043,.5156-.1279,.752-.0859,.2354-.2002,.4248-.3438,.5684l-.2979-.1836c.125-.1221,.2275-.2842,.3057-.4873,.0791-.2021,.1182-.4189,.1182-.6494,0-.2998-.0654-.5322-.1963-.6963s-.3115-.2461-.542-.2461c-.2275,0-.4053,.082-.5342,.2461-.1299,.1641-.1943,.4121-.1943,.7432v.2627h-.2773l-1.2725-1.0166v1.875h-.3359v-2.3564h.2676l1.3037,1.0371c.0215-.3848,.125-.6768,.3125-.8779Z"/><path class="cls-7" d="M21.3673,167.9358v.6289h1.2256v.3711h-2.7549v-.3711h1.21v-.6338l-1.21-.9697v-.4033l1.335,1.085,1.4199-1.1631v.4395l-1.2256,1.0166Z"/><path class="cls-7" d="M21.8439,163.5784c.2412,0,.4258,.0889,.5547,.2666,.1299,.1787,.1943,.4434,.1943,.7959v1.252h-2.7549v-1.2148c0-.3145,.0605-.5605,.1826-.7383,.123-.1787,.2969-.2676,.5244-.2676,.1494,0,.2783,.041,.3848,.123s.1855,.1963,.2383,.3438c.0869-.374,.3125-.5605,.6758-.5605Zm-.7803,1.9531v-.8271c0-.2129-.04-.376-.1211-.4902-.0801-.1133-.1973-.1699-.3506-.1699s-.2686,.0566-.3457,.1699c-.0771,.1143-.1152,.2773-.1152,.4902v.8271h.9326Zm1.1201-1.4082c-.0762-.1191-.1973-.1787-.3613-.1787s-.2852,.0547-.3633,.1621c-.0791,.1084-.1182,.2803-.1182,.5137v.9111h.958v-.874c0-.2383-.0381-.416-.1152-.5342Z"/><path class="cls-7" d="M22.5353,162.8791c-.0557,.0537-.124,.0811-.2041,.0811-.0811,0-.1475-.0273-.2021-.0811-.0537-.0547-.0811-.1201-.0811-.1973,0-.0762,.0273-.1426,.0811-.1982,.0547-.0557,.1211-.084,.2021-.084,.0801,0,.1484,.0283,.2041,.084s.084,.1221,.084,.1982c0,.0771-.0283,.1426-.084,.1973Z"/></g><g><path class="cls-7" d="M30.4025,169.1301v.7334h.9639v.377h-.9639v2.0684h-.2725l-2.4307-1.9424v-.4189l2.3682,1.875v-1.5928h-.8486v-.3662h.8486v-.7334h.335Z"/><path class="cls-7" d="M30.1407,167.5276v.6289h1.2256v.3711h-2.7549v-.3711h1.21v-.6338l-1.21-.9697v-.4033l1.335,1.085,1.4199-1.1631v.4395l-1.2256,1.0166Z"/><path class="cls-7" d="M30.6173,163.1702c.2412,0,.4258,.0889,.5547,.2666,.1299,.1787,.1943,.4434,.1943,.7959v1.252h-2.7549v-1.2148c0-.3145,.0605-.5605,.1826-.7383,.123-.1787,.2969-.2676,.5244-.2676,.1494,0,.2783,.041,.3848,.123s.1855,.1963,.2383,.3438c.0869-.374,.3125-.5605,.6758-.5605Zm-.7803,1.9531v-.8271c0-.2129-.04-.376-.1211-.4902-.0801-.1133-.1973-.1699-.3506-.1699s-.2686,.0566-.3457,.1699c-.0771,.1143-.1152,.2773-.1152,.4902v.8271h.9326Zm1.1201-1.4082c-.0762-.1191-.1973-.1787-.3613-.1787s-.2852,.0547-.3633,.1621c-.0791,.1084-.1182,.2803-.1182,.5137v.9111h.958v-.874c0-.2383-.0381-.416-.1152-.5342Z"/><path class="cls-7" d="M31.3087,162.4709c-.0557,.0537-.124,.0811-.2041,.0811-.0811,0-.1475-.0273-.2021-.0811-.0537-.0547-.0811-.1201-.0811-.1973,0-.0762,.0273-.1426,.0811-.1982,.0547-.0557,.1211-.084,.2021-.084,.0801,0,.1484,.0283,.2041,.084s.084,.1221,.084,.1982c0,.0771-.0283,.1426-.084,.1973Z"/></g><g><path class="cls-7" d="M36.4718,169.9631h3.667v.377h-3.3311v.8643h-.3359v-1.2412Z"/><path class="cls-7" d="M38.9132,167.8313v.6289h1.2256v.3711h-2.7549v-.3711h1.21v-.6338l-1.21-.9697v-.4033l1.335,1.085,1.4199-1.1631v.4395l-1.2256,1.0166Z"/><path class="cls-7" d="M39.3898,163.4739c.2412,0,.4258,.0889,.5547,.2666,.1299,.1787,.1943,.4434,.1943,.7959v1.252h-2.7549v-1.2148c0-.3145,.0605-.5605,.1826-.7383,.123-.1787,.2969-.2676,.5244-.2676,.1494,0,.2783,.041,.3848,.123s.1855,.1963,.2383,.3438c.0869-.374,.3125-.5605,.6758-.5605Zm-.7803,1.9531v-.8271c0-.2129-.04-.376-.1211-.4902-.0801-.1133-.1973-.1699-.3506-.1699s-.2686,.0566-.3457,.1699c-.0771,.1143-.1152,.2773-.1152,.4902v.8271h.9326Zm1.1201-1.4082c-.0762-.1191-.1973-.1787-.3613-.1787s-.2852,.0547-.3633,.1621c-.0791,.1084-.1182,.2803-.1182,.5137v.9111h.958v-.874c0-.2383-.0381-.416-.1152-.5342Z"/><path class="cls-7" d="M40.0812,162.7747c-.0557,.0537-.124,.0811-.2041,.0811-.0811,0-.1475-.0273-.2021-.0811-.0537-.0547-.0811-.1201-.0811-.1973,0-.0762,.0273-.1426,.0811-.1982,.0547-.0557,.1211-.084,.2021-.084,.0801,0,.1484,.0283,.2041,.084s.084,.1221,.084,.1982c0,.0771-.0283,.1426-.084,.1973Z"/></g><g><path class="cls-7" d="M48.5763,169.428h.3359v2.5723h-.2676l-1.4922-1.5244c-.1885-.1914-.3525-.3223-.4902-.3896-.1377-.0684-.2764-.1025-.416-.1025-.2168,0-.3848,.0742-.5059,.2227-.1201,.1484-.1807,.3604-.1807,.6367,0,.4287,.1367,.7627,.4092,1l-.2305,.2666c-.168-.1426-.2969-.3252-.3877-.5469s-.1367-.4727-.1367-.752c0-.373,.0889-.6689,.2646-.8877,.1768-.2178,.418-.3271,.7256-.3271,.1885,0,.3701,.042,.5449,.126s.375,.2422,.6016,.4766l1.2256,1.2461v-2.0166Z"/><path class="cls-7" d="M47.6866,167.7004v.6289h1.2256v.3711h-2.7549v-.3711h1.21v-.6338l-1.21-.9697v-.4033l1.335,1.085,1.4199-1.1631v.4395l-1.2256,1.0166Z"/><path class="cls-7" d="M48.1632,163.343c.2412,0,.4258,.0889,.5547,.2666,.1299,.1787,.1943,.4434,.1943,.7959v1.252h-2.7549v-1.2148c0-.3145,.0605-.5605,.1826-.7383,.123-.1787,.2969-.2676,.5244-.2676,.1494,0,.2783,.041,.3848,.123s.1855,.1963,.2383,.3438c.0869-.374,.3125-.5605,.6758-.5605Zm-.7803,1.9531v-.8271c0-.2129-.04-.376-.1211-.4902-.0801-.1133-.1973-.1699-.3506-.1699s-.2686,.0566-.3457,.1699c-.0771,.1143-.1152,.2773-.1152,.4902v.8271h.9326Zm1.1201-1.4082c-.0762-.1191-.1973-.1787-.3613-.1787s-.2852,.0547-.3633,.1621c-.0791,.1084-.1182,.2803-.1182,.5137v.9111h.958v-.874c0-.2383-.0381-.416-.1152-.5342Z"/><path class="cls-7" d="M48.8546,162.6438c-.0557,.0537-.124,.0811-.2041,.0811-.0811,0-.1475-.0273-.2021-.0811-.0537-.0547-.0811-.1201-.0811-.1973,0-.0762,.0273-.1426,.0811-.1982,.0547-.0557,.1211-.084,.2021-.084,.0801,0,.1484,.0283,.2041,.084s.084,.1221,.084,.1982c0,.0771-.0283,.1426-.084,.1973Z"/></g><g><path class="cls-7" d="M55.9015,170.0227c.1865-.2002,.4297-.3008,.7305-.3008,.209,0,.3955,.0508,.5576,.1514,.1621,.1016,.291,.252,.3848,.4512,.0947,.1982,.1416,.4414,.1416,.7275,0,.2656-.043,.5156-.1279,.752-.0859,.2354-.2002,.4248-.3438,.5684l-.2979-.1836c.125-.1221,.2275-.2842,.3057-.4873,.0791-.2021,.1182-.4189,.1182-.6494,0-.2998-.0654-.5322-.1963-.6963s-.3115-.2461-.542-.2461c-.2275,0-.4053,.082-.5342,.2461-.1299,.1641-.1943,.4121-.1943,.7432v.2627h-.2773l-1.2725-1.0166v1.875h-.3359v-2.3564h.2676l1.3037,1.0371c.0215-.3848,.125-.6768,.3125-.8779Z"/><path class="cls-7" d="M56.4591,167.9358v.6289h1.2256v.3711h-2.7549v-.3711h1.21v-.6338l-1.21-.9697v-.4033l1.335,1.085,1.4199-1.1631v.4395l-1.2256,1.0166Z"/><path class="cls-7" d="M56.9357,163.5784c.2412,0,.4258,.0889,.5547,.2666,.1299,.1787,.1943,.4434,.1943,.7959v1.252h-2.7549v-1.2148c0-.3145,.0605-.5605,.1826-.7383,.123-.1787,.2969-.2676,.5244-.2676,.1494,0,.2783,.041,.3848,.123s.1855,.1963,.2383,.3438c.0869-.374,.3125-.5605,.6758-.5605Zm-.7803,1.9531v-.8271c0-.2129-.04-.376-.1211-.4902-.0801-.1133-.1973-.1699-.3506-.1699s-.2686,.0566-.3457,.1699c-.0771,.1143-.1152,.2773-.1152,.4902v.8271h.9326Zm1.1201-1.4082c-.0762-.1191-.1973-.1787-.3613-.1787s-.2852,.0547-.3633,.1621c-.0791,.1084-.1182,.2803-.1182,.5137v.9111h.958v-.874c0-.2383-.0381-.416-.1152-.5342Z"/><path class="cls-7" d="M57.6271,162.8791c-.0557,.0537-.124,.0811-.2041,.0811-.0811,0-.1475-.0273-.2021-.0811-.0537-.0547-.0811-.1201-.0811-.1973,0-.0762,.0273-.1426,.0811-.1982,.0547-.0557,.1211-.084,.2021-.084,.0801,0,.1484,.0283,.2041,.084s.084,.1221,.084,.1982c0,.0771-.0283,.1426-.084,.1973Z"/></g><g><path class="cls-7" d="M65.4943,169.1301v.7334h.9639v.377h-.9639v2.0684h-.2725l-2.4307-1.9424v-.4189l2.3682,1.875v-1.5928h-.8486v-.3662h.8486v-.7334h.335Z"/><path class="cls-7" d="M65.2325,167.5276v.6289h1.2256v.3711h-2.7549v-.3711h1.21v-.6338l-1.21-.9697v-.4033l1.335,1.085,1.4199-1.1631v.4395l-1.2256,1.0166Z"/><path class="cls-7" d="M65.7091,163.1702c.2412,0,.4258,.0889,.5547,.2666,.1299,.1787,.1943,.4434,.1943,.7959v1.252h-2.7549v-1.2148c0-.3145,.0605-.5605,.1826-.7383,.123-.1787,.2969-.2676,.5244-.2676,.1494,0,.2783,.041,.3848,.123s.1855,.1963,.2383,.3438c.0869-.374,.3125-.5605,.6758-.5605Zm-.7803,1.9531v-.8271c0-.2129-.04-.376-.1211-.4902-.0801-.1133-.1973-.1699-.3506-.1699s-.2686,.0566-.3457,.1699c-.0771,.1143-.1152,.2773-.1152,.4902v.8271h.9326Zm1.1201-1.4082c-.0762-.1191-.1973-.1787-.3613-.1787s-.2852,.0547-.3633,.1621c-.0791,.1084-.1182,.2803-.1182,.5137v.9111h.958v-.874c0-.2383-.0381-.416-.1152-.5342Z"/><path class="cls-7" d="M66.4005,162.4709c-.0557,.0537-.124,.0811-.2041,.0811-.0811,0-.1475-.0273-.2021-.0811-.0537-.0547-.0811-.1201-.0811-.1973,0-.0762,.0273-.1426,.0811-.1982,.0547-.0557,.1211-.084,.2021-.084,.0801,0,.1484,.0283,.2041,.084s.084,.1221,.084,.1982c0,.0771-.0283,.1426-.084,.1973Z"/></g><g><path class="cls-7" d="M71.5646,169.9631h3.666v.377h-3.3311v.8643h-.335v-1.2412Z"/><path class="cls-7" d="M74.005,167.8313v.6289h1.2256v.3711h-2.7549v-.3711h1.21v-.6338l-1.21-.9697v-.4033l1.3359,1.085,1.4189-1.1631v.4395l-1.2256,1.0166Z"/><path class="cls-7" d="M74.4816,163.4739c.2412,0,.4268,.0889,.5557,.2666,.1289,.1787,.1934,.4434,.1934,.7959v1.252h-2.7549v-1.2148c0-.3145,.0615-.5605,.1836-.7383,.1221-.1787,.2969-.2676,.5234-.2676,.1504,0,.2783,.041,.3848,.123,.1074,.082,.1865,.1963,.2383,.3438,.0879-.374,.3125-.5605,.6758-.5605Zm-.7803,1.9531v-.8271c0-.2129-.04-.376-.1201-.4902-.0801-.1133-.1973-.1699-.3516-.1699-.1533,0-.2686,.0566-.3457,.1699-.0762,.1143-.1152,.2773-.1152,.4902v.8271h.9326Zm1.1211-1.4082c-.0771-.1191-.1973-.1787-.3613-.1787s-.2852,.0547-.3643,.1621c-.0781,.1084-.1182,.2803-.1182,.5137v.9111h.959v-.874c0-.2383-.0381-.416-.1152-.5342Z"/><path class="cls-7" d="M75.173,162.7747c-.0557,.0537-.124,.0811-.2041,.0811s-.1475-.0273-.2012-.0811c-.0547-.0547-.082-.1201-.082-.1973,0-.0762,.0273-.1426,.082-.1982,.0537-.0557,.1211-.084,.2012-.084s.1484,.0283,.2041,.084,.084,.1221,.084,.1982c0,.0771-.0283,.1426-.084,.1973Z"/></g><g><path class="cls-7" d="M83.6681,169.428h.3359v2.5723h-.2676l-1.4922-1.5244c-.1885-.1914-.3525-.3223-.4902-.3896-.1377-.0684-.2764-.1025-.416-.1025-.2168,0-.3848,.0742-.5059,.2227-.1201,.1484-.1807,.3604-.1807,.6367,0,.4287,.1367,.7627,.4092,1l-.2305,.2666c-.168-.1426-.2969-.3252-.3877-.5469s-.1367-.4727-.1367-.752c0-.373,.0889-.6689,.2646-.8877,.1768-.2178,.418-.3271,.7256-.3271,.1885,0,.3701,.042,.5449,.126s.375,.2422,.6016,.4766l1.2256,1.2461v-2.0166Z"/><path class="cls-7" d="M82.7784,167.7004v.6289h1.2256v.3711h-2.7549v-.3711h1.21v-.6338l-1.21-.9697v-.4033l1.335,1.085,1.4199-1.1631v.4395l-1.2256,1.0166Z"/><path class="cls-7" d="M83.255,163.343c.2412,0,.4258,.0889,.5547,.2666,.1299,.1787,.1943,.4434,.1943,.7959v1.252h-2.7549v-1.2148c0-.3145,.0605-.5605,.1826-.7383,.123-.1787,.2969-.2676,.5244-.2676,.1494,0,.2783,.041,.3848,.123s.1855,.1963,.2383,.3438c.0869-.374,.3125-.5605,.6758-.5605Zm-.7803,1.9531v-.8271c0-.2129-.04-.376-.1211-.4902-.0801-.1133-.1973-.1699-.3506-.1699s-.2686,.0566-.3457,.1699c-.0771,.1143-.1152,.2773-.1152,.4902v.8271h.9326Zm1.1201-1.4082c-.0762-.1191-.1973-.1787-.3613-.1787s-.2852,.0547-.3633,.1621c-.0791,.1084-.1182,.2803-.1182,.5137v.9111h.958v-.874c0-.2383-.0381-.416-.1152-.5342Z"/><path class="cls-7" d="M83.9464,162.6438c-.0557,.0537-.124,.0811-.2041,.0811-.0811,0-.1475-.0273-.2021-.0811-.0537-.0547-.0811-.1201-.0811-.1973,0-.0762,.0273-.1426,.0811-.1982,.0547-.0557,.1211-.084,.2021-.084,.0801,0,.1484,.0283,.2041,.084s.084,.1221,.084,.1982c0,.0771-.0283,.1426-.084,.1973Z"/></g><g><path class="cls-7" d="M90.9933,170.0217c.1865-.2002,.4307-.3008,.7305-.3008,.21,0,.3955,.0508,.5576,.1514,.1631,.1016,.291,.252,.3857,.4512,.0938,.1982,.1406,.4414,.1406,.7275,0,.2656-.042,.5156-.1279,.752-.0859,.2354-.2002,.4248-.3428,.5684l-.2988-.1836c.126-.1221,.2275-.2842,.3066-.4873,.0781-.2021,.1172-.4189,.1172-.6494,0-.2998-.0654-.5322-.1963-.6963s-.3115-.2461-.542-.2461c-.2266,0-.4053,.082-.5342,.2461s-.1934,.4121-.1934,.7432v.2627h-.2783l-1.2725-1.0166v1.875h-.335v-2.3564h.2666l1.3047,1.0371c.0205-.3848,.125-.6768,.3115-.8779Z"/><path class="cls-7" d="M91.5509,167.9348v.6289h1.2256v.3711h-2.7549v-.3711h1.21v-.6338l-1.21-.9697v-.4033l1.3359,1.085,1.4189-1.1631v.4395l-1.2256,1.0166Z"/><path class="cls-7" d="M92.0275,163.5774c.2412,0,.4268,.0889,.5557,.2666,.1289,.1787,.1934,.4434,.1934,.7959v1.252h-2.7549v-1.2148c0-.3145,.0615-.5605,.1836-.7383,.1221-.1787,.2969-.2676,.5234-.2676,.1504,0,.2783,.041,.3848,.123,.1074,.082,.1865,.1963,.2383,.3438,.0879-.374,.3125-.5605,.6758-.5605Zm-.7803,1.9531v-.8271c0-.2129-.04-.376-.1201-.4902-.0801-.1133-.1973-.1699-.3516-.1699-.1533,0-.2686,.0566-.3457,.1699-.0762,.1143-.1152,.2773-.1152,.4902v.8271h.9326Zm1.1211-1.4082c-.0771-.1191-.1973-.1787-.3613-.1787s-.2852,.0547-.3643,.1621c-.0781,.1084-.1182,.2803-.1182,.5137v.9111h.959v-.874c0-.2383-.0381-.416-.1152-.5342Z"/><path class="cls-7" d="M92.7189,162.8782c-.0557,.0537-.124,.0811-.2041,.0811s-.1475-.0273-.2012-.0811c-.0547-.0547-.082-.1201-.082-.1973,0-.0762,.0273-.1426,.082-.1982,.0537-.0557,.1211-.084,.2012-.084s.1484,.0283,.2041,.084,.084,.1221,.084,.1982c0,.0771-.0283,.1426-.084,.1973Z"/></g><g><path class="cls-7" d="M100.5861,169.1301v.7334h.9639v.377h-.9639v2.0684h-.2725l-2.4307-1.9424v-.4189l2.3682,1.875v-1.5928h-.8486v-.3662h.8486v-.7334h.335Z"/><path class="cls-7" d="M100.3243,167.5276v.6289h1.2256v.3711h-2.7549v-.3711h1.21v-.6338l-1.21-.9697v-.4033l1.335,1.085,1.4199-1.1631v.4395l-1.2256,1.0166Z"/><path class="cls-7" d="M100.8009,163.1702c.2412,0,.4258,.0889,.5547,.2666,.1299,.1787,.1943,.4434,.1943,.7959v1.252h-2.7549v-1.2148c0-.3145,.0605-.5605,.1826-.7383,.123-.1787,.2969-.2676,.5244-.2676,.1494,0,.2783,.041,.3848,.123s.1855,.1963,.2383,.3438c.0869-.374,.3125-.5605,.6758-.5605Zm-.7803,1.9531v-.8271c0-.2129-.04-.376-.1211-.4902-.0801-.1133-.1973-.1699-.3506-.1699s-.2686,.0566-.3457,.1699c-.0771,.1143-.1152,.2773-.1152,.4902v.8271h.9326Zm1.1201-1.4082c-.0762-.1191-.1973-.1787-.3613-.1787s-.2852,.0547-.3633,.1621c-.0791,.1084-.1182,.2803-.1182,.5137v.9111h.958v-.874c0-.2383-.0381-.416-.1152-.5342Z"/><path class="cls-7" d="M101.4923,162.4709c-.0557,.0537-.124,.0811-.2041,.0811-.0811,0-.1475-.0273-.2021-.0811-.0537-.0547-.0811-.1201-.0811-.1973,0-.0762,.0273-.1426,.0811-.1982,.0547-.0557,.1211-.084,.2021-.084,.0801,0,.1484,.0283,.2041,.084s.084,.1221,.084,.1982c0,.0771-.0283,.1426-.084,.1973Z"/></g><g><path class="cls-7" d="M106.6564,169.9631h3.666v.377h-3.3311v.8643h-.335v-1.2412Z"/><path class="cls-7" d="M109.0968,167.8313v.6289h1.2256v.3711h-2.7549v-.3711h1.21v-.6338l-1.21-.9697v-.4033l1.3359,1.085,1.4189-1.1631v.4395l-1.2256,1.0166Z"/><path class="cls-7" d="M109.5734,163.4739c.2412,0,.4268,.0889,.5557,.2666,.1289,.1787,.1934,.4434,.1934,.7959v1.252h-2.7549v-1.2148c0-.3145,.0615-.5605,.1836-.7383,.1221-.1787,.2969-.2676,.5234-.2676,.1504,0,.2783,.041,.3848,.123,.1074,.082,.1865,.1963,.2383,.3438,.0879-.374,.3125-.5605,.6758-.5605Zm-.7803,1.9531v-.8271c0-.2129-.04-.376-.1201-.4902-.0801-.1133-.1973-.1699-.3516-.1699-.1533,0-.2686,.0566-.3457,.1699-.0762,.1143-.1152,.2773-.1152,.4902v.8271h.9326Zm1.1211-1.4082c-.0771-.1191-.1973-.1787-.3613-.1787s-.2852,.0547-.3643,.1621c-.0781,.1084-.1182,.2803-.1182,.5137v.9111h.959v-.874c0-.2383-.0381-.416-.1152-.5342Z"/><path class="cls-7" d="M110.2648,162.7747c-.0557,.0537-.124,.0811-.2041,.0811s-.1475-.0273-.2012-.0811c-.0547-.0547-.082-.1201-.082-.1973,0-.0762,.0273-.1426,.082-.1982,.0537-.0557,.1211-.084,.2012-.084s.1484,.0283,.2041,.084,.084,.1221,.084,.1982c0,.0771-.0283,.1426-.084,.1973Z"/></g><g><path class="cls-7" d="M118.7599,169.428h.3359v2.5723h-.2676l-1.4922-1.5244c-.1885-.1914-.3525-.3223-.4902-.3896-.1377-.0684-.2764-.1025-.416-.1025-.2168,0-.3848,.0742-.5059,.2227-.1201,.1484-.1807,.3604-.1807,.6367,0,.4287,.1367,.7627,.4092,1l-.2305,.2666c-.168-.1426-.2969-.3252-.3877-.5469s-.1367-.4727-.1367-.752c0-.373,.0889-.6689,.2646-.8877,.1768-.2178,.418-.3271,.7256-.3271,.1885,0,.3701,.042,.5449,.126s.375,.2422,.6016,.4766l1.2256,1.2461v-2.0166Z"/><path class="cls-7" d="M117.8702,167.7004v.6289h1.2256v.3711h-2.7549v-.3711h1.21v-.6338l-1.21-.9697v-.4033l1.335,1.085,1.4199-1.1631v.4395l-1.2256,1.0166Z"/><path class="cls-7" d="M118.3468,163.343c.2412,0,.4258,.0889,.5547,.2666,.1299,.1787,.1943,.4434,.1943,.7959v1.252h-2.7549v-1.2148c0-.3145,.0605-.5605,.1826-.7383,.123-.1787,.2969-.2676,.5244-.2676,.1494,0,.2783,.041,.3848,.123s.1855,.1963,.2383,.3438c.0869-.374,.3125-.5605,.6758-.5605Zm-.7803,1.9531v-.8271c0-.2129-.04-.376-.1211-.4902-.0801-.1133-.1973-.1699-.3506-.1699s-.2686,.0566-.3457,.1699c-.0771,.1143-.1152,.2773-.1152,.4902v.8271h.9326Zm1.1201-1.4082c-.0762-.1191-.1973-.1787-.3613-.1787s-.2852,.0547-.3633,.1621c-.0791,.1084-.1182,.2803-.1182,.5137v.9111h.958v-.874c0-.2383-.0381-.416-.1152-.5342Z"/><path class="cls-7" d="M119.0382,162.6438c-.0557,.0537-.124,.0811-.2041,.0811-.0811,0-.1475-.0273-.2021-.0811-.0537-.0547-.0811-.1201-.0811-.1973,0-.0762,.0273-.1426,.0811-.1982,.0547-.0557,.1211-.084,.2021-.084,.0801,0,.1484,.0283,.2041,.084s.084,.1221,.084,.1982c0,.0771-.0283,.1426-.084,.1973Z"/></g><g><path class="cls-7" d="M126.0851,170.0227c.1865-.2002,.4307-.3008,.7305-.3008,.21,0,.3955,.0508,.5576,.1514,.1631,.1016,.291,.252,.3857,.4512,.0938,.1982,.1406,.4414,.1406,.7275,0,.2656-.042,.5156-.1279,.752-.0859,.2354-.2002,.4248-.3428,.5684l-.2988-.1836c.126-.1221,.2275-.2842,.3066-.4873,.0781-.2021,.1172-.4189,.1172-.6494,0-.2998-.0654-.5322-.1963-.6963s-.3115-.2461-.542-.2461c-.2266,0-.4053,.082-.5342,.2461s-.1934,.4121-.1934,.7432v.2627h-.2783l-1.2725-1.0166v1.875h-.335v-2.3564h.2666l1.3047,1.0371c.0205-.3848,.125-.6768,.3115-.8779Z"/><path class="cls-7" d="M126.6427,167.9358v.6289h1.2256v.3711h-2.7549v-.3711h1.21v-.6338l-1.21-.9697v-.4033l1.3359,1.085,1.4189-1.1631v.4395l-1.2256,1.0166Z"/><path class="cls-7" d="M127.1193,163.5784c.2412,0,.4268,.0889,.5557,.2666,.1289,.1787,.1934,.4434,.1934,.7959v1.252h-2.7549v-1.2148c0-.3145,.0615-.5605,.1836-.7383,.1221-.1787,.2969-.2676,.5234-.2676,.1504,0,.2783,.041,.3848,.123,.1074,.082,.1865,.1963,.2383,.3438,.0879-.374,.3125-.5605,.6758-.5605Zm-.7803,1.9531v-.8271c0-.2129-.04-.376-.1201-.4902-.0801-.1133-.1973-.1699-.3516-.1699-.1533,0-.2686,.0566-.3457,.1699-.0762,.1143-.1152,.2773-.1152,.4902v.8271h.9326Zm1.1211-1.4082c-.0771-.1191-.1973-.1787-.3613-.1787s-.2852,.0547-.3643,.1621c-.0781,.1084-.1182,.2803-.1182,.5137v.9111h.959v-.874c0-.2383-.0381-.416-.1152-.5342Z"/><path class="cls-7" d="M127.8107,162.8791c-.0557,.0537-.124,.0811-.2041,.0811s-.1475-.0273-.2012-.0811c-.0547-.0547-.082-.1201-.082-.1973,0-.0762,.0273-.1426,.082-.1982,.0537-.0557,.1211-.084,.2012-.084s.1484,.0283,.2041,.084,.084,.1221,.084,.1982c0,.0771-.0283,.1426-.084,.1973Z"/></g><g><path class="cls-7" d="M135.6779,169.1301v.7334h.9639v.377h-.9639v2.0684h-.2725l-2.4307-1.9424v-.4189l2.3682,1.875v-1.5928h-.8486v-.3662h.8486v-.7334h.335Z"/><path class="cls-7" d="M135.4161,167.5276v.6289h1.2256v.3711h-2.7549v-.3711h1.21v-.6338l-1.21-.9697v-.4033l1.335,1.085,1.4199-1.1631v.4395l-1.2256,1.0166Z"/><path class="cls-7" d="M135.8927,163.1702c.2412,0,.4258,.0889,.5547,.2666,.1299,.1787,.1943,.4434,.1943,.7959v1.252h-2.7549v-1.2148c0-.3145,.0605-.5605,.1826-.7383,.123-.1787,.2969-.2676,.5244-.2676,.1494,0,.2783,.041,.3848,.123s.1855,.1963,.2383,.3438c.0869-.374,.3125-.5605,.6758-.5605Zm-.7803,1.9531v-.8271c0-.2129-.04-.376-.1211-.4902-.0801-.1133-.1973-.1699-.3506-.1699s-.2686,.0566-.3457,.1699c-.0771,.1143-.1152,.2773-.1152,.4902v.8271h.9326Zm1.1201-1.4082c-.0762-.1191-.1973-.1787-.3613-.1787s-.2852,.0547-.3633,.1621c-.0791,.1084-.1182,.2803-.1182,.5137v.9111h.958v-.874c0-.2383-.0381-.416-.1152-.5342Z"/><path class="cls-7" d="M136.5841,162.4709c-.0557,.0537-.124,.0811-.2041,.0811-.0811,0-.1475-.0273-.2021-.0811-.0537-.0547-.0811-.1201-.0811-.1973,0-.0762,.0273-.1426,.0811-.1982,.0547-.0557,.1211-.084,.2021-.084,.0801,0,.1484,.0283,.2041,.084s.084,.1221,.084,.1982c0,.0771-.0283,.1426-.084,.1973Z"/></g><g><path class="cls-7" d="M141.7482,169.9631h3.666v.377h-3.3311v.8643h-.335v-1.2412Z"/><path class="cls-7" d="M144.1886,167.8313v.6289h1.2256v.3711h-2.7549v-.3711h1.21v-.6338l-1.21-.9697v-.4033l1.3359,1.085,1.4189-1.1631v.4395l-1.2256,1.0166Z"/><path class="cls-7" d="M144.6652,163.4739c.2412,0,.4268,.0889,.5557,.2666,.1289,.1787,.1934,.4434,.1934,.7959v1.252h-2.7549v-1.2148c0-.3145,.0615-.5605,.1836-.7383,.1221-.1787,.2969-.2676,.5234-.2676,.1504,0,.2783,.041,.3848,.123,.1074,.082,.1865,.1963,.2383,.3438,.0879-.374,.3125-.5605,.6758-.5605Zm-.7803,1.9531v-.8271c0-.2129-.04-.376-.1201-.4902-.0801-.1133-.1973-.1699-.3516-.1699-.1533,0-.2686,.0566-.3457,.1699-.0762,.1143-.1152,.2773-.1152,.4902v.8271h.9326Zm1.1211-1.4082c-.0771-.1191-.1973-.1787-.3613-.1787s-.2852,.0547-.3643,.1621c-.0781,.1084-.1182,.2803-.1182,.5137v.9111h.959v-.874c0-.2383-.0381-.416-.1152-.5342Z"/><path class="cls-7" d="M145.3566,162.7747c-.0557,.0537-.124,.0811-.2041,.0811s-.1475-.0273-.2012-.0811c-.0547-.0547-.082-.1201-.082-.1973,0-.0762,.0273-.1426,.082-.1982,.0537-.0557,.1211-.084,.2012-.084s.1484,.0283,.2041,.084,.084,.1221,.084,.1982c0,.0771-.0283,.1426-.084,.1973Z"/></g><g><path class="cls-7" d="M153.8517,169.428h.3359v2.5723h-.2676l-1.4922-1.5244c-.1885-.1914-.3525-.3223-.4902-.3896-.1377-.0684-.2764-.1025-.416-.1025-.2168,0-.3848,.0742-.5059,.2227-.1201,.1484-.1807,.3604-.1807,.6367,0,.4287,.1367,.7627,.4092,1l-.2305,.2666c-.168-.1426-.2969-.3252-.3877-.5469s-.1367-.4727-.1367-.752c0-.373,.0889-.6689,.2646-.8877,.1768-.2178,.418-.3271,.7256-.3271,.1885,0,.3701,.042,.5449,.126s.375,.2422,.6016,.4766l1.2256,1.2461v-2.0166Z"/><path class="cls-7" d="M152.962,167.7004v.6289h1.2256v.3711h-2.7549v-.3711h1.21v-.6338l-1.21-.9697v-.4033l1.335,1.085,1.4199-1.1631v.4395l-1.2256,1.0166Z"/><path class="cls-7" d="M153.4386,163.343c.2412,0,.4258,.0889,.5547,.2666,.1299,.1787,.1943,.4434,.1943,.7959v1.252h-2.7549v-1.2148c0-.3145,.0605-.5605,.1826-.7383,.123-.1787,.2969-.2676,.5244-.2676,.1494,0,.2783,.041,.3848,.123s.1855,.1963,.2383,.3438c.0869-.374,.3125-.5605,.6758-.5605Zm-.7803,1.9531v-.8271c0-.2129-.04-.376-.1211-.4902-.0801-.1133-.1973-.1699-.3506-.1699s-.2686,.0566-.3457,.1699c-.0771,.1143-.1152,.2773-.1152,.4902v.8271h.9326Zm1.1201-1.4082c-.0762-.1191-.1973-.1787-.3613-.1787s-.2852,.0547-.3633,.1621c-.0791,.1084-.1182,.2803-.1182,.5137v.9111h.958v-.874c0-.2383-.0381-.416-.1152-.5342Z"/><path class="cls-7" d="M154.13,162.6438c-.0557,.0537-.124,.0811-.2041,.0811-.0811,0-.1475-.0273-.2021-.0811-.0537-.0547-.0811-.1201-.0811-.1973,0-.0762,.0273-.1426,.0811-.1982,.0547-.0557,.1211-.084,.2021-.084,.0801,0,.1484,.0283,.2041,.084s.084,.1221,.084,.1982c0,.0771-.0283,.1426-.084,.1973Z"/></g><g><path class="cls-7" d="M161.1769,170.0227c.1865-.2002,.4307-.3008,.7305-.3008,.21,0,.3955,.0508,.5576,.1514,.1631,.1016,.291,.252,.3857,.4512,.0938,.1982,.1406,.4414,.1406,.7275,0,.2656-.042,.5156-.1279,.752-.0859,.2354-.2002,.4248-.3428,.5684l-.2988-.1836c.126-.1221,.2275-.2842,.3066-.4873,.0781-.2021,.1172-.4189,.1172-.6494,0-.2998-.0654-.5322-.1963-.6963s-.3115-.2461-.542-.2461c-.2266,0-.4053,.082-.5342,.2461s-.1934,.4121-.1934,.7432v.2627h-.2783l-1.2725-1.0166v1.875h-.335v-2.3564h.2666l1.3047,1.0371c.0205-.3848,.125-.6768,.3115-.8779Z"/><path class="cls-7" d="M161.7345,167.9358v.6289h1.2256v.3711h-2.7549v-.3711h1.21v-.6338l-1.21-.9697v-.4033l1.3359,1.085,1.4189-1.1631v.4395l-1.2256,1.0166Z"/><path class="cls-7" d="M162.2111,163.5784c.2412,0,.4268,.0889,.5557,.2666,.1289,.1787,.1934,.4434,.1934,.7959v1.252h-2.7549v-1.2148c0-.3145,.0615-.5605,.1836-.7383,.1221-.1787,.2969-.2676,.5234-.2676,.1504,0,.2783,.041,.3848,.123,.1074,.082,.1865,.1963,.2383,.3438,.0879-.374,.3125-.5605,.6758-.5605Zm-.7803,1.9531v-.8271c0-.2129-.04-.376-.1201-.4902-.0801-.1133-.1973-.1699-.3516-.1699-.1533,0-.2686,.0566-.3457,.1699-.0762,.1143-.1152,.2773-.1152,.4902v.8271h.9326Zm1.1211-1.4082c-.0771-.1191-.1973-.1787-.3613-.1787s-.2852,.0547-.3643,.1621c-.0781,.1084-.1182,.2803-.1182,.5137v.9111h.959v-.874c0-.2383-.0381-.416-.1152-.5342Z"/><path class="cls-7" d="M162.9025,162.8791c-.0557,.0537-.124,.0811-.2041,.0811s-.1475-.0273-.2012-.0811c-.0547-.0547-.082-.1201-.082-.1973,0-.0762,.0273-.1426,.082-.1982,.0537-.0557,.1211-.084,.2012-.084s.1484,.0283,.2041,.084,.084,.1221,.084,.1982c0,.0771-.0283,.1426-.084,.1973Z"/></g><g><path class="cls-7" d="M170.7697,169.1301v.7334h.9639v.377h-.9639v2.0684h-.2725l-2.4307-1.9424v-.4189l2.3682,1.875v-1.5928h-.8486v-.3662h.8486v-.7334h.335Z"/><path class="cls-7" d="M170.5079,167.5276v.6289h1.2256v.3711h-2.7549v-.3711h1.21v-.6338l-1.21-.9697v-.4033l1.335,1.085,1.4199-1.1631v.4395l-1.2256,1.0166Z"/><path class="cls-7" d="M170.9845,163.1702c.2412,0,.4258,.0889,.5547,.2666,.1299,.1787,.1943,.4434,.1943,.7959v1.252h-2.7549v-1.2148c0-.3145,.0605-.5605,.1826-.7383,.123-.1787,.2969-.2676,.5244-.2676,.1494,0,.2783,.041,.3848,.123s.1855,.1963,.2383,.3438c.0869-.374,.3125-.5605,.6758-.5605Zm-.7803,1.9531v-.8271c0-.2129-.04-.376-.1211-.4902-.0801-.1133-.1973-.1699-.3506-.1699s-.2686,.0566-.3457,.1699c-.0771,.1143-.1152,.2773-.1152,.4902v.8271h.9326Zm1.1201-1.4082c-.0762-.1191-.1973-.1787-.3613-.1787s-.2852,.0547-.3633,.1621c-.0791,.1084-.1182,.2803-.1182,.5137v.9111h.958v-.874c0-.2383-.0381-.416-.1152-.5342Z"/><path class="cls-7" d="M171.6759,162.4709c-.0557,.0537-.124,.0811-.2041,.0811-.0811,0-.1475-.0273-.2021-.0811-.0537-.0547-.0811-.1201-.0811-.1973,0-.0762,.0273-.1426,.0811-.1982,.0547-.0557,.1211-.084,.2021-.084,.0801,0,.1484,.0283,.2041,.084s.084,.1221,.084,.1982c0,.0771-.0283,.1426-.084,.1973Z"/></g><g><path class="cls-7" d="M176.84,169.9631h3.666v.377h-3.3311v.8643h-.335v-1.2412Z"/><path class="cls-7" d="M179.2804,167.8313v.6289h1.2256v.3711h-2.7549v-.3711h1.21v-.6338l-1.21-.9697v-.4033l1.3359,1.085,1.4189-1.1631v.4395l-1.2256,1.0166Z"/><path class="cls-7" d="M179.757,163.4739c.2412,0,.4268,.0889,.5557,.2666,.1289,.1787,.1934,.4434,.1934,.7959v1.252h-2.7549v-1.2148c0-.3145,.0615-.5605,.1836-.7383,.1221-.1787,.2969-.2676,.5234-.2676,.1504,0,.2783,.041,.3848,.123,.1074,.082,.1865,.1963,.2383,.3438,.0879-.374,.3125-.5605,.6758-.5605Zm-.7803,1.9531v-.8271c0-.2129-.04-.376-.1201-.4902-.0801-.1133-.1973-.1699-.3516-.1699-.1533,0-.2686,.0566-.3457,.1699-.0762,.1143-.1152,.2773-.1152,.4902v.8271h.9326Zm1.1211-1.4082c-.0771-.1191-.1973-.1787-.3613-.1787s-.2852,.0547-.3643,.1621c-.0781,.1084-.1182,.2803-.1182,.5137v.9111h.959v-.874c0-.2383-.0381-.416-.1152-.5342Z"/><path class="cls-7" d="M180.4484,162.7747c-.0557,.0537-.124,.0811-.2041,.0811s-.1475-.0273-.2012-.0811c-.0547-.0547-.082-.1201-.082-.1973,0-.0762,.0273-.1426,.082-.1982,.0537-.0557,.1211-.084,.2012-.084s.1484,.0283,.2041,.084,.084,.1221,.084,.1982c0,.0771-.0283,.1426-.084,.1973Z"/></g><g><path class="cls-7" d="M188.9435,169.428h.3359v2.5723h-.2676l-1.4922-1.5244c-.1885-.1914-.3525-.3223-.4902-.3896-.1377-.0684-.2764-.1025-.416-.1025-.2168,0-.3848,.0742-.5059,.2227-.1201,.1484-.1807,.3604-.1807,.6367,0,.4287,.1367,.7627,.4092,1l-.2305,.2666c-.168-.1426-.2969-.3252-.3877-.5469s-.1367-.4727-.1367-.752c0-.373,.0889-.6689,.2646-.8877,.1768-.2178,.418-.3271,.7256-.3271,.1885,0,.3701,.042,.5449,.126s.375,.2422,.6016,.4766l1.2256,1.2461v-2.0166Z"/><path class="cls-7" d="M188.0538,167.7004v.6289h1.2256v.3711h-2.7549v-.3711h1.21v-.6338l-1.21-.9697v-.4033l1.335,1.085,1.4199-1.1631v.4395l-1.2256,1.0166Z"/><path class="cls-7" d="M188.5304,163.343c.2412,0,.4258,.0889,.5547,.2666,.1299,.1787,.1943,.4434,.1943,.7959v1.252h-2.7549v-1.2148c0-.3145,.0605-.5605,.1826-.7383,.123-.1787,.2969-.2676,.5244-.2676,.1494,0,.2783,.041,.3848,.123s.1855,.1963,.2383,.3438c.0869-.374,.3125-.5605,.6758-.5605Zm-.7803,1.9531v-.8271c0-.2129-.04-.376-.1211-.4902-.0801-.1133-.1973-.1699-.3506-.1699s-.2686,.0566-.3457,.1699c-.0771,.1143-.1152,.2773-.1152,.4902v.8271h.9326Zm1.1201-1.4082c-.0762-.1191-.1973-.1787-.3613-.1787s-.2852,.0547-.3633,.1621c-.0791,.1084-.1182,.2803-.1182,.5137v.9111h.958v-.874c0-.2383-.0381-.416-.1152-.5342Z"/><path class="cls-7" d="M189.2218,162.6438c-.0557,.0537-.124,.0811-.2041,.0811-.0811,0-.1475-.0273-.2021-.0811-.0537-.0547-.0811-.1201-.0811-.1973,0-.0762,.0273-.1426,.0811-.1982,.0547-.0557,.1211-.084,.2021-.084,.0801,0,.1484,.0283,.2041,.084s.084,.1221,.084,.1982c0,.0771-.0283,.1426-.084,.1973Z"/></g><g><path class="cls-7" d="M196.2687,170.0227c.1865-.2002,.4307-.3008,.7305-.3008,.21,0,.3955,.0508,.5576,.1514,.1631,.1016,.291,.252,.3857,.4512,.0938,.1982,.1406,.4414,.1406,.7275,0,.2656-.042,.5156-.1279,.752-.0859,.2354-.2002,.4248-.3428,.5684l-.2988-.1836c.126-.1221,.2275-.2842,.3066-.4873,.0781-.2021,.1172-.4189,.1172-.6494,0-.2998-.0654-.5322-.1963-.6963s-.3115-.2461-.542-.2461c-.2266,0-.4053,.082-.5342,.2461s-.1934,.4121-.1934,.7432v.2627h-.2783l-1.2725-1.0166v1.875h-.335v-2.3564h.2666l1.3047,1.0371c.0205-.3848,.125-.6768,.3115-.8779Z"/><path class="cls-7" d="M196.8263,167.9358v.6289h1.2256v.3711h-2.7549v-.3711h1.21v-.6338l-1.21-.9697v-.4033l1.3359,1.085,1.4189-1.1631v.4395l-1.2256,1.0166Z"/><path class="cls-7" d="M197.3029,163.5784c.2412,0,.4268,.0889,.5557,.2666,.1289,.1787,.1934,.4434,.1934,.7959v1.252h-2.7549v-1.2148c0-.3145,.0615-.5605,.1836-.7383,.1221-.1787,.2969-.2676,.5234-.2676,.1504,0,.2783,.041,.3848,.123,.1074,.082,.1865,.1963,.2383,.3438,.0879-.374,.3125-.5605,.6758-.5605Zm-.7803,1.9531v-.8271c0-.2129-.04-.376-.1201-.4902-.0801-.1133-.1973-.1699-.3516-.1699-.1533,0-.2686,.0566-.3457,.1699-.0762,.1143-.1152,.2773-.1152,.4902v.8271h.9326Zm1.1211-1.4082c-.0771-.1191-.1973-.1787-.3613-.1787s-.2852,.0547-.3643,.1621c-.0781,.1084-.1182,.2803-.1182,.5137v.9111h.959v-.874c0-.2383-.0381-.416-.1152-.5342Z"/><path class="cls-7" d="M197.9943,162.8791c-.0557,.0537-.124,.0811-.2041,.0811s-.1475-.0273-.2012-.0811c-.0547-.0547-.082-.1201-.082-.1973,0-.0762,.0273-.1426,.082-.1982,.0537-.0557,.1211-.084,.2012-.084s.1484,.0283,.2041,.084,.084,.1221,.084,.1982c0,.0771-.0283,.1426-.084,.1973Z"/></g><g><path class="cls-7" d="M205.8614,169.1311v.7334h.9639v.377h-.9639v2.0684h-.2715l-2.4307-1.9424v-.4189l2.3672,1.875v-1.5928h-.8486v-.3662h.8486v-.7334h.335Z"/><path class="cls-7" d="M205.5997,167.5286v.6289h1.2256v.3711h-2.7549v-.3711h1.21v-.6338l-1.21-.9697v-.4033l1.3359,1.085,1.4189-1.1631v.4395l-1.2256,1.0166Z"/><path class="cls-7" d="M206.0763,163.1711c.2412,0,.4268,.0889,.5557,.2666,.1289,.1787,.1934,.4434,.1934,.7959v1.252h-2.7549v-1.2148c0-.3145,.0615-.5605,.1836-.7383,.1221-.1787,.2969-.2676,.5234-.2676,.1504,0,.2783,.041,.3848,.123,.1074,.082,.1865,.1963,.2383,.3438,.0879-.374,.3125-.5605,.6758-.5605Zm-.7803,1.9531v-.8271c0-.2129-.04-.376-.1201-.4902-.0801-.1133-.1973-.1699-.3516-.1699-.1533,0-.2686,.0566-.3457,.1699-.0762,.1143-.1152,.2773-.1152,.4902v.8271h.9326Zm1.1211-1.4082c-.0771-.1191-.1973-.1787-.3613-.1787s-.2852,.0547-.3643,.1621c-.0781,.1084-.1182,.2803-.1182,.5137v.9111h.959v-.874c0-.2383-.0381-.416-.1152-.5342Z"/><path class="cls-7" d="M206.7677,162.4719c-.0557,.0537-.124,.0811-.2041,.0811s-.1475-.0273-.2012-.0811c-.0547-.0547-.082-.1201-.082-.1973,0-.0762,.0273-.1426,.082-.1982,.0537-.0557,.1211-.084,.2012-.084s.1484,.0283,.2041,.084,.084,.1221,.084,.1982c0,.0771-.0283,.1426-.084,.1973Z"/></g><g><path class="cls-7" d="M211.9318,169.9631h3.667v.377h-3.3311v.8643h-.3359v-1.2412Z"/><path class="cls-7" d="M214.3732,167.8313v.6289h1.2256v.3711h-2.7549v-.3711h1.21v-.6338l-1.21-.9697v-.4033l1.335,1.085,1.4199-1.1631v.4395l-1.2256,1.0166Z"/><path class="cls-7" d="M214.8497,163.4739c.2412,0,.4258,.0889,.5547,.2666,.1299,.1787,.1943,.4434,.1943,.7959v1.252h-2.7549v-1.2148c0-.3145,.0605-.5605,.1826-.7383,.123-.1787,.2969-.2676,.5244-.2676,.1494,0,.2783,.041,.3848,.123s.1855,.1963,.2383,.3438c.0869-.374,.3125-.5605,.6758-.5605Zm-.7803,1.9531v-.8271c0-.2129-.04-.376-.1211-.4902-.0801-.1133-.1973-.1699-.3506-.1699s-.2686,.0566-.3457,.1699c-.0771,.1143-.1152,.2773-.1152,.4902v.8271h.9326Zm1.1201-1.4082c-.0762-.1191-.1973-.1787-.3613-.1787s-.2852,.0547-.3633,.1621c-.0791,.1084-.1182,.2803-.1182,.5137v.9111h.958v-.874c0-.2383-.0381-.416-.1152-.5342Z"/><path class="cls-7" d="M215.5411,162.7747c-.0557,.0537-.124,.0811-.2041,.0811-.0811,0-.1475-.0273-.2021-.0811-.0537-.0547-.0811-.1201-.0811-.1973,0-.0762,.0273-.1426,.0811-.1982,.0547-.0557,.1211-.084,.2021-.084,.0801,0,.1484,.0283,.2041,.084s.084,.1221,.084,.1982c0,.0771-.0283,.1426-.084,.1973Z"/></g><g><path class="cls-7" d="M224.0353,169.427h.3359v2.5723h-.2676l-1.4922-1.5244c-.1885-.1914-.3525-.3223-.4902-.3896-.1377-.0684-.2764-.1025-.416-.1025-.2168,0-.3848,.0742-.5059,.2227-.1201,.1484-.1807,.3604-.1807,.6367,0,.4287,.1367,.7627,.4092,1l-.2305,.2666c-.168-.1426-.2969-.3252-.3877-.5469s-.1367-.4727-.1367-.752c0-.373,.0889-.6689,.2646-.8877,.1768-.2178,.418-.3271,.7256-.3271,.1885,0,.3701,.042,.5449,.126s.375,.2422,.6016,.4766l1.2256,1.2461v-2.0166Z"/><path class="cls-7" d="M223.1456,167.6995v.6289h1.2256v.3711h-2.7549v-.3711h1.21v-.6338l-1.21-.9697v-.4033l1.335,1.085,1.4199-1.1631v.4395l-1.2256,1.0166Z"/><path class="cls-7" d="M223.6222,163.342c.2412,0,.4258,.0889,.5547,.2666,.1299,.1787,.1943,.4434,.1943,.7959v1.252h-2.7549v-1.2148c0-.3145,.0605-.5605,.1826-.7383,.123-.1787,.2969-.2676,.5244-.2676,.1494,0,.2783,.041,.3848,.123s.1855,.1963,.2383,.3438c.0869-.374,.3125-.5605,.6758-.5605Zm-.7803,1.9531v-.8271c0-.2129-.04-.376-.1211-.4902-.0801-.1133-.1973-.1699-.3506-.1699s-.2686,.0566-.3457,.1699c-.0771,.1143-.1152,.2773-.1152,.4902v.8271h.9326Zm1.1201-1.4082c-.0762-.1191-.1973-.1787-.3613-.1787s-.2852,.0547-.3633,.1621c-.0791,.1084-.1182,.2803-.1182,.5137v.9111h.958v-.874c0-.2383-.0381-.416-.1152-.5342Z"/><path class="cls-7" d="M224.3136,162.6428c-.0557,.0537-.124,.0811-.2041,.0811-.0811,0-.1475-.0273-.2021-.0811-.0537-.0547-.0811-.1201-.0811-.1973,0-.0762,.0273-.1426,.0811-.1982,.0547-.0557,.1211-.084,.2021-.084,.0801,0,.1484,.0283,.2041,.084s.084,.1221,.084,.1982c0,.0771-.0283,.1426-.084,.1973Z"/></g><g><path class="cls-7" d="M231.3614,170.0227c.1865-.2002,.4297-.3008,.7305-.3008,.209,0,.3955,.0508,.5576,.1514,.1621,.1016,.291,.252,.3848,.4512,.0947,.1982,.1416,.4414,.1416,.7275,0,.2656-.043,.5156-.1279,.752-.0859,.2354-.2002,.4248-.3438,.5684l-.2979-.1836c.125-.1221,.2275-.2842,.3057-.4873,.0791-.2021,.1182-.4189,.1182-.6494,0-.2998-.0654-.5322-.1963-.6963s-.3115-.2461-.542-.2461c-.2275,0-.4053,.082-.5342,.2461-.1299,.1641-.1943,.4121-.1943,.7432v.2627h-.2773l-1.2725-1.0166v1.875h-.3359v-2.3564h.2676l1.3037,1.0371c.0215-.3848,.125-.6768,.3125-.8779Z"/><path class="cls-7" d="M231.9191,167.9358v.6289h1.2256v.3711h-2.7549v-.3711h1.21v-.6338l-1.21-.9697v-.4033l1.335,1.085,1.4199-1.1631v.4395l-1.2256,1.0166Z"/><path class="cls-7" d="M232.3956,163.5784c.2412,0,.4258,.0889,.5547,.2666,.1299,.1787,.1943,.4434,.1943,.7959v1.252h-2.7549v-1.2148c0-.3145,.0605-.5605,.1826-.7383,.123-.1787,.2969-.2676,.5244-.2676,.1494,0,.2783,.041,.3848,.123s.1855,.1963,.2383,.3438c.0869-.374,.3125-.5605,.6758-.5605Zm-.7803,1.9531v-.8271c0-.2129-.04-.376-.1211-.4902-.0801-.1133-.1973-.1699-.3506-.1699s-.2686,.0566-.3457,.1699c-.0771,.1143-.1152,.2773-.1152,.4902v.8271h.9326Zm1.1201-1.4082c-.0762-.1191-.1973-.1787-.3613-.1787s-.2852,.0547-.3633,.1621c-.0791,.1084-.1182,.2803-.1182,.5137v.9111h.958v-.874c0-.2383-.0381-.416-.1152-.5342Z"/><path class="cls-7" d="M233.087,162.8791c-.0557,.0537-.124,.0811-.2041,.0811-.0811,0-.1475-.0273-.2021-.0811-.0537-.0547-.0811-.1201-.0811-.1973,0-.0762,.0273-.1426,.0811-.1982,.0547-.0557,.1211-.084,.2021-.084,.0801,0,.1484,.0283,.2041,.084s.084,.1221,.084,.1982c0,.0771-.0283,.1426-.084,.1973Z"/></g><g><path class="cls-7" d="M240.9532,169.1301v.7334h.9639v.377h-.9639v2.0684h-.2715l-2.4307-1.9424v-.4189l2.3672,1.875v-1.5928h-.8486v-.3662h.8486v-.7334h.335Z"/><path class="cls-7" d="M240.6915,167.5276v.6289h1.2256v.3711h-2.7549v-.3711h1.21v-.6338l-1.21-.9697v-.4033l1.3359,1.085,1.4189-1.1631v.4395l-1.2256,1.0166Z"/><path class="cls-7" d="M241.1681,163.1702c.2412,0,.4268,.0889,.5557,.2666,.1289,.1787,.1934,.4434,.1934,.7959v1.252h-2.7549v-1.2148c0-.3145,.0615-.5605,.1836-.7383,.1221-.1787,.2969-.2676,.5234-.2676,.1504,0,.2783,.041,.3848,.123,.1074,.082,.1865,.1963,.2383,.3438,.0879-.374,.3125-.5605,.6758-.5605Zm-.7803,1.9531v-.8271c0-.2129-.04-.376-.1201-.4902-.0801-.1133-.1973-.1699-.3516-.1699-.1533,0-.2686,.0566-.3457,.1699-.0762,.1143-.1152,.2773-.1152,.4902v.8271h.9326Zm1.1211-1.4082c-.0771-.1191-.1973-.1787-.3613-.1787s-.2852,.0547-.3643,.1621c-.0781,.1084-.1182,.2803-.1182,.5137v.9111h.959v-.874c0-.2383-.0381-.416-.1152-.5342Z"/><path class="cls-7" d="M241.8595,162.4709c-.0557,.0537-.124,.0811-.2041,.0811s-.1475-.0273-.2012-.0811c-.0547-.0547-.082-.1201-.082-.1973,0-.0762,.0273-.1426,.082-.1982,.0537-.0557,.1211-.084,.2012-.084s.1484,.0283,.2041,.084,.084,.1221,.084,.1982c0,.0771-.0283,.1426-.084,.1973Z"/></g><g><path class="cls-7" d="M247.0236,169.9631h3.667v.377h-3.3311v.8643h-.3359v-1.2412Z"/><path class="cls-7" d="M249.465,167.8313v.6289h1.2256v.3711h-2.7549v-.3711h1.21v-.6338l-1.21-.9697v-.4033l1.335,1.085,1.4199-1.1631v.4395l-1.2256,1.0166Z"/><path class="cls-7" d="M249.9415,163.4739c.2412,0,.4258,.0889,.5547,.2666,.1299,.1787,.1943,.4434,.1943,.7959v1.252h-2.7549v-1.2148c0-.3145,.0605-.5605,.1826-.7383,.123-.1787,.2969-.2676,.5244-.2676,.1494,0,.2783,.041,.3848,.123s.1855,.1963,.2383,.3438c.0869-.374,.3125-.5605,.6758-.5605Zm-.7803,1.9531v-.8271c0-.2129-.04-.376-.1211-.4902-.0801-.1133-.1973-.1699-.3506-.1699s-.2686,.0566-.3457,.1699c-.0771,.1143-.1152,.2773-.1152,.4902v.8271h.9326Zm1.1201-1.4082c-.0762-.1191-.1973-.1787-.3613-.1787s-.2852,.0547-.3633,.1621c-.0791,.1084-.1182,.2803-.1182,.5137v.9111h.958v-.874c0-.2383-.0381-.416-.1152-.5342Z"/><path class="cls-7" d="M250.6329,162.7747c-.0557,.0537-.124,.0811-.2041,.0811-.0811,0-.1475-.0273-.2021-.0811-.0537-.0547-.0811-.1201-.0811-.1973,0-.0762,.0273-.1426,.0811-.1982,.0547-.0557,.1211-.084,.2021-.084,.0801,0,.1484,.0283,.2041,.084s.084,.1221,.084,.1982c0,.0771-.0283,.1426-.084,.1973Z"/></g><g><path class="cls-7" d="M259.128,169.428h.335v2.5723h-.2666l-1.4932-1.5244c-.1885-.1914-.3516-.3223-.4893-.3896-.1377-.0684-.2773-.1025-.417-.1025-.2158,0-.3848,.0742-.5049,.2227-.1211,.1484-.1807,.3604-.1807,.6367,0,.4287,.1357,.7627,.4082,1l-.2305,.2666c-.168-.1426-.2969-.3252-.3877-.5469s-.1357-.4727-.1357-.752c0-.373,.0879-.6689,.2646-.8877,.1758-.2178,.418-.3271,.7246-.3271,.1885,0,.3701,.042,.5449,.126s.376,.2422,.6025,.4766l1.2256,1.2461v-2.0166Z"/><path class="cls-7" d="M258.2374,167.7004v.6289h1.2256v.3711h-2.7549v-.3711h1.21v-.6338l-1.21-.9697v-.4033l1.3359,1.085,1.4189-1.1631v.4395l-1.2256,1.0166Z"/><path class="cls-7" d="M258.714,163.343c.2412,0,.4268,.0889,.5557,.2666,.1289,.1787,.1934,.4434,.1934,.7959v1.252h-2.7549v-1.2148c0-.3145,.0615-.5605,.1836-.7383,.1221-.1787,.2969-.2676,.5234-.2676,.1504,0,.2783,.041,.3848,.123,.1074,.082,.1865,.1963,.2383,.3438,.0879-.374,.3125-.5605,.6758-.5605Zm-.7803,1.9531v-.8271c0-.2129-.04-.376-.1201-.4902-.0801-.1133-.1973-.1699-.3516-.1699-.1533,0-.2686,.0566-.3457,.1699-.0762,.1143-.1152,.2773-.1152,.4902v.8271h.9326Zm1.1211-1.4082c-.0771-.1191-.1973-.1787-.3613-.1787s-.2852,.0547-.3643,.1621c-.0781,.1084-.1182,.2803-.1182,.5137v.9111h.959v-.874c0-.2383-.0381-.416-.1152-.5342Z"/><path class="cls-7" d="M259.4054,162.6438c-.0557,.0537-.124,.0811-.2041,.0811s-.1475-.0273-.2012-.0811c-.0547-.0547-.082-.1201-.082-.1973,0-.0762,.0273-.1426,.082-.1982,.0537-.0557,.1211-.084,.2012-.084s.1484,.0283,.2041,.084,.084,.1221,.084,.1982c0,.0771-.0283,.1426-.084,.1973Z"/></g><g><path class="cls-7" d="M266.4532,170.0208c.1865-.2002,.4297-.3008,.7305-.3008,.209,0,.3955,.0508,.5576,.1514,.1621,.1016,.291,.252,.3848,.4512,.0947,.1982,.1416,.4414,.1416,.7275,0,.2656-.043,.5156-.1279,.752-.0859,.2354-.2002,.4248-.3438,.5684l-.2979-.1836c.125-.1221,.2275-.2842,.3057-.4873,.0791-.2021,.1182-.4189,.1182-.6494,0-.2998-.0654-.5322-.1963-.6963s-.3115-.2461-.542-.2461c-.2275,0-.4053,.082-.5342,.2461-.1299,.1641-.1943,.4121-.1943,.7432v.2627h-.2773l-1.2725-1.0166v1.875h-.3359v-2.3564h.2676l1.3037,1.0371c.0215-.3848,.125-.6768,.3125-.8779Z"/><path class="cls-7" d="M267.0109,167.9338v.6289h1.2256v.3711h-2.7549v-.3711h1.21v-.6338l-1.21-.9697v-.4033l1.335,1.085,1.4199-1.1631v.4395l-1.2256,1.0166Z"/><path class="cls-7" d="M267.4874,163.5764c.2412,0,.4258,.0889,.5547,.2666,.1299,.1787,.1943,.4434,.1943,.7959v1.252h-2.7549v-1.2148c0-.3145,.0605-.5605,.1826-.7383,.123-.1787,.2969-.2676,.5244-.2676,.1494,0,.2783,.041,.3848,.123s.1855,.1963,.2383,.3438c.0869-.374,.3125-.5605,.6758-.5605Zm-.7803,1.9531v-.8271c0-.2129-.04-.376-.1211-.4902-.0801-.1133-.1973-.1699-.3506-.1699s-.2686,.0566-.3457,.1699c-.0771,.1143-.1152,.2773-.1152,.4902v.8271h.9326Zm1.1201-1.4082c-.0762-.1191-.1973-.1787-.3613-.1787s-.2852,.0547-.3633,.1621c-.0791,.1084-.1182,.2803-.1182,.5137v.9111h.958v-.874c0-.2383-.0381-.416-.1152-.5342Z"/><path class="cls-7" d="M268.1788,162.8772c-.0557,.0537-.124,.0811-.2041,.0811-.0811,0-.1475-.0273-.2021-.0811-.0537-.0547-.0811-.1201-.0811-.1973,0-.0762,.0273-.1426,.0811-.1982,.0547-.0557,.1211-.084,.2021-.084,.0801,0,.1484,.0283,.2041,.084s.084,.1221,.084,.1982c0,.0771-.0283,.1426-.084,.1973Z"/></g><g><path class="cls-7" d="M276.045,169.1282v.7334h.9639v.377h-.9639v2.0684h-.2715l-2.4307-1.9424v-.4189l2.3672,1.875v-1.5928h-.8486v-.3662h.8486v-.7334h.335Z"/><path class="cls-7" d="M275.7833,167.5256v.6289h1.2256v.3711h-2.7549v-.3711h1.21v-.6338l-1.21-.9697v-.4033l1.3359,1.085,1.4189-1.1631v.4395l-1.2256,1.0166Z"/><path class="cls-7" d="M276.2599,163.1682c.2412,0,.4268,.0889,.5557,.2666,.1289,.1787,.1934,.4434,.1934,.7959v1.252h-2.7549v-1.2148c0-.3145,.0615-.5605,.1836-.7383,.1221-.1787,.2969-.2676,.5234-.2676,.1504,0,.2783,.041,.3848,.123,.1074,.082,.1865,.1963,.2383,.3438,.0879-.374,.3125-.5605,.6758-.5605Zm-.7803,1.9531v-.8271c0-.2129-.04-.376-.1201-.4902-.0801-.1133-.1973-.1699-.3516-.1699-.1533,0-.2686,.0566-.3457,.1699-.0762,.1143-.1152,.2773-.1152,.4902v.8271h.9326Zm1.1211-1.4082c-.0771-.1191-.1973-.1787-.3613-.1787s-.2852,.0547-.3643,.1621c-.0781,.1084-.1182,.2803-.1182,.5137v.9111h.959v-.874c0-.2383-.0381-.416-.1152-.5342Z"/><path class="cls-7" d="M276.9513,162.469c-.0557,.0537-.124,.0811-.2041,.0811s-.1475-.0273-.2012-.0811c-.0547-.0547-.082-.1201-.082-.1973,0-.0762,.0273-.1426,.082-.1982,.0537-.0557,.1211-.084,.2012-.084s.1484,.0283,.2041,.084,.084,.1221,.084,.1982c0,.0771-.0283,.1426-.084,.1973Z"/></g><g><path d="M8.6808,184.3635v.3906h-3.001v-.3115l1.7783-1.7412c.2236-.2207,.376-.4111,.4551-.5713,.0801-.1611,.1191-.3232,.1191-.4863,0-.2529-.0859-.4492-.2598-.5898-.1729-.1406-.4199-.2109-.7422-.2109-.501,0-.8896,.1592-1.167,.4766l-.3115-.2686c.167-.1953,.3799-.3457,.6387-.4521,.2588-.1055,.5508-.1592,.877-.1592,.4355,0,.7812,.1035,1.0352,.3086,.2549,.2061,.3818,.4883,.3818,.8467,0,.2197-.0488,.4316-.1465,.6357-.0977,.2031-.2832,.4375-.5557,.7021l-1.4541,1.4307h2.3525Z"/><path d="M9.9913,184.5276c-.2588-.1748-.4609-.4258-.6055-.7539s-.2168-.7139-.2168-1.1582,.0723-.8301,.2168-1.1582c.1445-.3271,.3467-.5791,.6055-.7549,.2588-.1748,.5527-.2627,.8828-.2627s.624,.0879,.8828,.2627c.2588,.1758,.4609,.4277,.6084,.7549,.1465,.3281,.2197,.7139,.2197,1.1582s-.0732,.8301-.2197,1.1582c-.1475,.3281-.3496,.5791-.6084,.7539-.2588,.1758-.5527,.2637-.8828,.2637s-.624-.0879-.8828-.2637Zm1.54-.3477c.1895-.1387,.3369-.3398,.4424-.6055,.1064-.2646,.1592-.584,.1592-.959s-.0527-.6943-.1592-.959c-.1055-.2656-.2529-.4668-.4424-.6055s-.4092-.208-.6572-.208c-.249,0-.4678,.0693-.6572,.208s-.3369,.3398-.4424,.6055c-.1064,.2646-.1592,.584-.1592,.959s.0527,.6943,.1592,.959c.1055,.2656,.2529,.4668,.4424,.6055s.4082,.208,.6572,.208c.248,0,.4678-.0693,.6572-.208Z"/><path d="M14.3448,180.4768v4.2773h-.4395v-3.8867h-1.0088v-.3906h1.4482Z"/><path d="M18.9464,183.6301h-.8555v1.124h-.4404v-1.124h-2.4131v-.3184l2.2666-2.835h.4893l-2.1885,2.7617h1.8584v-.9893h.4277v.9893h.8555v.3916Z"/></g><g><path d="M43.9933,184.3635v.3906h-3v-.3115l1.7783-1.7412c.2236-.2207,.375-.4111,.4551-.5713,.0791-.1611,.1191-.3232,.1191-.4863,0-.2529-.0869-.4492-.2598-.5898s-.4209-.2109-.7422-.2109c-.501,0-.8906,.1592-1.168,.4766l-.3115-.2686c.167-.1953,.3799-.3457,.6387-.4521,.2588-.1055,.5508-.1592,.877-.1592,.4355,0,.7812,.1035,1.0361,.3086,.2539,.2061,.3818,.4883,.3818,.8467,0,.2197-.0488,.4316-.1465,.6357-.0977,.2031-.2832,.4375-.5566,.7021l-1.4541,1.4307h2.3525Z"/><path d="M45.3097,184.5276c-.2588-.1748-.46-.4258-.6045-.7539s-.2168-.7139-.2168-1.1582,.0723-.8301,.2168-1.1582c.1445-.3271,.3457-.5791,.6045-.7549,.2588-.1748,.5527-.2627,.8828-.2627s.625,.0879,.8838,.2627c.2578,.1758,.4609,.4277,.6074,.7549,.1465,.3281,.2197,.7139,.2197,1.1582s-.0732,.8301-.2197,1.1582-.3496,.5791-.6074,.7539c-.2588,.1758-.5537,.2637-.8838,.2637s-.624-.0879-.8828-.2637Zm1.54-.3477c.1895-.1387,.3369-.3398,.4434-.6055,.1055-.2646,.1582-.584,.1582-.959s-.0527-.6943-.1582-.959c-.1064-.2656-.2539-.4668-.4434-.6055s-.4082-.208-.6572-.208c-.248,0-.4668,.0693-.6562,.208s-.3369,.3398-.4434,.6055c-.1055,.2646-.1592,.584-.1592,.959s.0537,.6943,.1592,.959c.1064,.2656,.2539,.4668,.4434,.6055s.4082,.208,.6562,.208c.249,0,.4678-.0693,.6572-.208Z"/><path d="M49.6642,180.4768v4.2773h-.4404v-3.8867h-1.0078v-.3906h1.4482Z"/><path d="M53.1066,182.5637c.2832,.2217,.4248,.5322,.4248,.9316,0,.249-.0576,.4707-.1738,.666s-.29,.3496-.5225,.4609c-.2324,.1123-.5176,.1689-.8555,.1689-.3057,0-.5957-.0498-.8711-.1504-.2744-.0996-.4961-.2334-.6631-.4004l.2139-.3477c.1426,.1465,.3301,.2656,.5625,.3574s.4824,.1377,.752,.1377c.3545,0,.6279-.0801,.8213-.2383,.1934-.1592,.291-.3711,.291-.6357,0-.2939-.1094-.5156-.3271-.666-.2178-.1514-.5859-.2266-1.1035-.2266h-.9102l.2197-2.1445h2.3408v.3906h-1.9561l-.1465,1.3633h.5498c.6191,0,1.0703,.1104,1.3535,.333Z"/></g><g><path d="M79.0978,184.3635v.3906h-3v-.3115l1.7783-1.7412c.2236-.2207,.375-.4111,.4551-.5713,.0791-.1611,.1191-.3232,.1191-.4863,0-.2529-.0869-.4492-.2598-.5898s-.4209-.2109-.7422-.2109c-.501,0-.8906,.1592-1.168,.4766l-.3115-.2686c.167-.1953,.3799-.3457,.6387-.4521,.2588-.1055,.5508-.1592,.877-.1592,.4355,0,.7812,.1035,1.0361,.3086,.2539,.2061,.3818,.4883,.3818,.8467,0,.2197-.0488,.4316-.1465,.6357-.0977,.2031-.2832,.4375-.5566,.7021l-1.4541,1.4307h2.3525Z"/><path d="M80.4142,184.5276c-.2588-.1748-.46-.4258-.6045-.7539s-.2168-.7139-.2168-1.1582,.0723-.8301,.2168-1.1582c.1445-.3271,.3457-.5791,.6045-.7549,.2588-.1748,.5527-.2627,.8828-.2627s.625,.0879,.8838,.2627c.2578,.1758,.4609,.4277,.6074,.7549,.1465,.3281,.2197,.7139,.2197,1.1582s-.0732,.8301-.2197,1.1582-.3496,.5791-.6074,.7539c-.2588,.1758-.5537,.2637-.8838,.2637s-.624-.0879-.8828-.2637Zm1.54-.3477c.1895-.1387,.3369-.3398,.4434-.6055,.1055-.2646,.1582-.584,.1582-.959s-.0527-.6943-.1582-.959c-.1064-.2656-.2539-.4668-.4434-.6055s-.4082-.208-.6572-.208c-.248,0-.4668,.0693-.6562,.208s-.3369,.3398-.4434,.6055c-.1055,.2646-.1592,.584-.1592,.959s.0537,.6943,.1592,.959c.1064,.2656,.2539,.4668,.4434,.6055s.4082,.208,.6562,.208c.249,0,.4678-.0693,.6572-.208Z"/><path d="M84.7687,180.4768v4.2773h-.4404v-3.8867h-1.0078v-.3906h1.4482Z"/><path d="M88.254,182.3528c.2178,.1055,.3887,.2559,.5107,.4492s.1826,.418,.1826,.6748c0,.2607-.0625,.4912-.1895,.6904-.126,.2002-.2998,.3535-.5225,.4619-.2217,.1074-.4707,.1621-.748,.1621-.5664,0-1-.1865-1.3018-.5596s-.4521-.8994-.4521-1.5791c0-.4775,.082-.8809,.2441-1.21,.1631-.3301,.3916-.5801,.6846-.749,.2939-.1689,.6357-.2539,1.0264-.2539,.4238,0,.7617,.0781,1.0146,.2324l-.1768,.3545c-.2041-.1348-.4814-.2012-.8311-.2012-.4727,0-.8438,.1494-1.1123,.4492-.2686,.2988-.4033,.7334-.4033,1.3037,0,.1025,.0059,.2188,.0186,.3486,.1055-.2324,.2744-.4121,.5068-.541,.2324-.1279,.499-.1924,.8008-.1924,.2812,0,.5303,.0527,.748,.1592Zm-.0303,1.8115c.1934-.1689,.29-.3936,.29-.6748s-.0967-.5049-.29-.6729c-.1934-.167-.4551-.25-.7852-.25-.2158,0-.4062,.041-.5713,.1221-.165,.082-.2949,.1934-.3877,.3359-.0947,.1426-.1406,.3018-.1406,.4766,0,.1631,.043,.3145,.1309,.4521,.0879,.1387,.2168,.251,.3877,.3359,.1719,.0859,.375,.1289,.6113,.1289,.3096,0,.5615-.085,.7549-.2539Z"/></g><g><path d="M114.5939,184.3635v.3906h-3.001v-.3115l1.7783-1.7412c.2236-.2207,.376-.4111,.4551-.5713,.0801-.1611,.1191-.3232,.1191-.4863,0-.2529-.0859-.4492-.2598-.5898-.1729-.1406-.4199-.2109-.7422-.2109-.501,0-.8896,.1592-1.167,.4766l-.3115-.2686c.167-.1953,.3799-.3457,.6387-.4521,.2588-.1055,.5508-.1592,.877-.1592,.4355,0,.7812,.1035,1.0352,.3086,.2549,.2061,.3818,.4883,.3818,.8467,0,.2197-.0488,.4316-.1465,.6357-.0977,.2031-.2832,.4375-.5557,.7021l-1.4541,1.4307h2.3525Z"/><path d="M115.9103,184.5276c-.2588-.1748-.4609-.4258-.6055-.7539s-.2168-.7139-.2168-1.1582,.0723-.8301,.2168-1.1582c.1445-.3271,.3467-.5791,.6055-.7549,.2588-.1748,.5527-.2627,.8828-.2627s.624,.0879,.8828,.2627c.2588,.1758,.4609,.4277,.6084,.7549,.1465,.3281,.2197,.7139,.2197,1.1582s-.0732,.8301-.2197,1.1582c-.1475,.3281-.3496,.5791-.6084,.7539-.2588,.1758-.5527,.2637-.8828,.2637s-.624-.0879-.8828-.2637Zm1.54-.3477c.1895-.1387,.3369-.3398,.4424-.6055,.1064-.2646,.1592-.584,.1592-.959s-.0527-.6943-.1592-.959c-.1055-.2656-.2529-.4668-.4424-.6055s-.4092-.208-.6572-.208c-.249,0-.4678,.0693-.6572,.208s-.3369,.3398-.4424,.6055c-.1064,.2646-.1592,.584-.1592,.959s.0527,.6943,.1592,.959c.1055,.2656,.2529,.4668,.4424,.6055s.4082,.208,.6572,.208c.248,0,.4678-.0693,.6572-.208Z"/><path d="M120.2638,180.4768v4.2773h-.4395v-3.8867h-1.0088v-.3906h1.4482Z"/><path d="M124.2482,180.4768v.3115l-1.791,3.9658h-.4766l1.7598-3.8867h-2.1992v.8008h-.4346v-1.1914h3.1416Z"/></g><g><path d="M149.4181,184.3635v.3906h-3.001v-.3115l1.7783-1.7412c.2236-.2207,.376-.4111,.4551-.5713,.0801-.1611,.1191-.3232,.1191-.4863,0-.2529-.0859-.4492-.2598-.5898-.1729-.1406-.4199-.2109-.7422-.2109-.501,0-.8896,.1592-1.167,.4766l-.3115-.2686c.167-.1953,.3799-.3457,.6387-.4521,.2588-.1055,.5508-.1592,.877-.1592,.4355,0,.7812,.1035,1.0352,.3086,.2549,.2061,.3818,.4883,.3818,.8467,0,.2197-.0488,.4316-.1465,.6357-.0977,.2031-.2832,.4375-.5557,.7021l-1.4541,1.4307h2.3525Z"/><path d="M150.7345,184.5276c-.2588-.1748-.4609-.4258-.6055-.7539s-.2168-.7139-.2168-1.1582,.0723-.8301,.2168-1.1582c.1445-.3271,.3467-.5791,.6055-.7549,.2588-.1748,.5527-.2627,.8828-.2627s.624,.0879,.8828,.2627c.2588,.1758,.4609,.4277,.6084,.7549,.1465,.3281,.2197,.7139,.2197,1.1582s-.0732,.8301-.2197,1.1582c-.1475,.3281-.3496,.5791-.6084,.7539-.2588,.1758-.5527,.2637-.8828,.2637s-.624-.0879-.8828-.2637Zm1.54-.3477c.1895-.1387,.3369-.3398,.4424-.6055,.1064-.2646,.1592-.584,.1592-.959s-.0527-.6943-.1592-.959c-.1055-.2656-.2529-.4668-.4424-.6055s-.4092-.208-.6572-.208c-.249,0-.4678,.0693-.6572,.208s-.3369,.3398-.4424,.6055c-.1064,.2646-.1592,.584-.1592,.959s.0527,.6943,.1592,.959c.1055,.2656,.2529,.4668,.4424,.6055s.4082,.208,.6572,.208c.248,0,.4678-.0693,.6572-.208Z"/><path d="M155.088,180.4768v4.2773h-.4395v-3.8867h-1.0088v-.3906h1.4482Z"/><path d="M159.1241,182.9153c.1445,.1787,.2168,.3945,.2168,.6475,0,.248-.0674,.4648-.2012,.6504-.1348,.1855-.3271,.3281-.5781,.4277-.25,.1006-.5449,.1504-.8828,.1504-.5137,0-.917-.1104-1.21-.3301-.293-.2207-.4395-.5195-.4395-.8984,0-.2568,.0703-.4736,.21-.6514,.1406-.1768,.3457-.3105,.6143-.3994-.2197-.0859-.3867-.209-.501-.3701s-.1709-.3516-.1709-.5713c0-.3467,.1357-.6211,.4062-.8252,.2705-.2031,.6348-.3057,1.0908-.3057,.3018,0,.5654,.0459,.791,.1377,.2266,.0918,.4023,.2236,.5293,.3945,.126,.1709,.1895,.3701,.1895,.5986,0,.2197-.0596,.4102-.1777,.5713s-.2871,.2842-.5068,.3701c.2686,.0889,.4756,.2236,.6201,.4033Zm-.5566,1.2705c.2139-.1543,.3213-.3643,.3213-.6289,0-.2656-.1074-.4736-.3213-.627-.2139-.1523-.5098-.2285-.8887-.2285-.375,0-.6689,.0762-.8828,.2285-.2139,.1533-.3213,.3613-.3213,.627,0,.2686,.1064,.4795,.3184,.6318,.2119,.1533,.5068,.2295,.8857,.2295s.6748-.0771,.8887-.2324Zm-1.665-2.041c.1875,.1387,.4463,.208,.7764,.208s.5898-.0693,.7793-.208,.2842-.3232,.2842-.5557c0-.2402-.0967-.4297-.29-.5684-.1943-.1387-.4512-.208-.7734-.208-.3262,0-.584,.0693-.7725,.208-.1895,.1387-.2842,.3262-.2842,.5625,0,.2354,.0928,.4229,.2803,.5615Z"/></g><g><path d="M184.6202,184.3635v.3906h-3.001v-.3115l1.7783-1.7412c.2236-.2207,.376-.4111,.4551-.5713,.0801-.1611,.1191-.3232,.1191-.4863,0-.2529-.0859-.4492-.2598-.5898-.1729-.1406-.4199-.2109-.7422-.2109-.501,0-.8896,.1592-1.167,.4766l-.3115-.2686c.167-.1953,.3799-.3457,.6387-.4521,.2588-.1055,.5508-.1592,.877-.1592,.4355,0,.7812,.1035,1.0352,.3086,.2549,.2061,.3818,.4883,.3818,.8467,0,.2197-.0488,.4316-.1465,.6357-.0977,.2031-.2832,.4375-.5557,.7021l-1.4541,1.4307h2.3525Z"/><path d="M185.9366,184.5276c-.2588-.1748-.4609-.4258-.6055-.7539s-.2168-.7139-.2168-1.1582,.0723-.8301,.2168-1.1582c.1445-.3271,.3467-.5791,.6055-.7549,.2588-.1748,.5527-.2627,.8828-.2627s.624,.0879,.8828,.2627c.2588,.1758,.4609,.4277,.6084,.7549,.1465,.3281,.2197,.7139,.2197,1.1582s-.0732,.8301-.2197,1.1582c-.1475,.3281-.3496,.5791-.6084,.7539-.2588,.1758-.5527,.2637-.8828,.2637s-.624-.0879-.8828-.2637Zm1.54-.3477c.1895-.1387,.3369-.3398,.4424-.6055,.1064-.2646,.1592-.584,.1592-.959s-.0527-.6943-.1592-.959c-.1055-.2656-.2529-.4668-.4424-.6055s-.4092-.208-.6572-.208c-.249,0-.4678,.0693-.6572,.208s-.3369,.3398-.4424,.6055c-.1064,.2646-.1592,.584-.1592,.959s.0527,.6943,.1592,.959c.1055,.2656,.2529,.4668,.4424,.6055s.4082,.208,.6572,.208c.248,0,.4678-.0693,.6572-.208Z"/><path d="M190.2902,180.4768v4.2773h-.4395v-3.8867h-1.0088v-.3906h1.4482Z"/><path d="M193.8888,180.9993c.3018,.373,.4531,.8994,.4531,1.5791,0,.4775-.082,.8799-.2451,1.21s-.3906,.5801-.6846,.749c-.293,.1689-.6348,.2539-1.0264,.2539-.4238,0-.7617-.0781-1.0137-.2324l.1768-.3545c.2041,.1348,.4805,.2012,.8311,.2012,.4727,0,.8428-.1494,1.1123-.4492,.2686-.2988,.4033-.7334,.4033-1.3037,0-.1064-.0068-.2227-.0186-.3486-.1064,.2324-.2754,.4121-.5068,.541-.2324,.1279-.499,.1924-.8008,.1924-.2812,0-.5303-.0527-.749-.1592-.2178-.1055-.3877-.2559-.5098-.4492s-.1836-.418-.1836-.6748c0-.2607,.0635-.4912,.1895-.6904,.126-.2002,.3008-.3535,.5225-.4619,.2217-.1074,.4717-.1621,.749-.1621,.5654,0,1,.1865,1.3008,.5596Zm-.6807,1.543c.165-.0811,.2939-.1934,.3877-.3359s.1406-.3018,.1406-.4766c0-.1631-.0439-.3135-.1309-.4521-.0879-.1387-.2178-.251-.3887-.3359-.1709-.0859-.375-.1289-.6113-.1289-.3096,0-.5605,.085-.7539,.2539s-.291,.3936-.291,.6748,.0977,.5049,.291,.6719c.1934,.168,.4551,.251,.7852,.251,.2158,0,.4062-.041,.5713-.1221Z"/></g><g><path d="M219.1349,184.3635v.3906h-3v-.3115l1.7783-1.7412c.2236-.2207,.375-.4111,.4551-.5713,.0791-.1611,.1191-.3232,.1191-.4863,0-.2529-.0869-.4492-.2598-.5898s-.4209-.2109-.7422-.2109c-.501,0-.8906,.1592-1.168,.4766l-.3115-.2686c.167-.1953,.3799-.3457,.6387-.4521,.2588-.1055,.5508-.1592,.877-.1592,.4355,0,.7812,.1035,1.0361,.3086,.2539,.2061,.3818,.4883,.3818,.8467,0,.2197-.0488,.4316-.1465,.6357-.0977,.2031-.2832,.4375-.5566,.7021l-1.4541,1.4307h2.3525Z"/><path d="M220.4513,184.5276c-.2588-.1748-.46-.4258-.6045-.7539s-.2168-.7139-.2168-1.1582,.0723-.8301,.2168-1.1582c.1445-.3271,.3457-.5791,.6045-.7549,.2588-.1748,.5527-.2627,.8828-.2627s.625,.0879,.8838,.2627c.2578,.1758,.4609,.4277,.6074,.7549,.1465,.3281,.2197,.7139,.2197,1.1582s-.0732,.8301-.2197,1.1582-.3496,.5791-.6074,.7539c-.2588,.1758-.5537,.2637-.8838,.2637s-.624-.0879-.8828-.2637Zm1.54-.3477c.1895-.1387,.3369-.3398,.4434-.6055,.1055-.2646,.1582-.584,.1582-.959s-.0527-.6943-.1582-.959c-.1064-.2656-.2539-.4668-.4434-.6055s-.4082-.208-.6572-.208c-.248,0-.4668,.0693-.6562,.208s-.3369,.3398-.4434,.6055c-.1055,.2646-.1592,.584-.1592,.959s.0537,.6943,.1592,.959c.1064,.2656,.2539,.4668,.4434,.6055s.4082,.208,.6562,.208c.249,0,.4678-.0693,.6572-.208Z"/><path d="M226.5411,184.3635v.3906h-3.001v-.3115l1.7783-1.7412c.2236-.2207,.376-.4111,.4551-.5713,.0801-.1611,.1191-.3232,.1191-.4863,0-.2529-.0859-.4492-.2598-.5898-.1729-.1406-.4199-.2109-.7422-.2109-.501,0-.8896,.1592-1.167,.4766l-.3115-.2686c.167-.1953,.3799-.3457,.6387-.4521,.2588-.1055,.5508-.1592,.877-.1592,.4355,0,.7812,.1035,1.0352,.3086,.2549,.2061,.3818,.4883,.3818,.8467,0,.2197-.0488,.4316-.1465,.6357-.0977,.2031-.2832,.4375-.5557,.7021l-1.4541,1.4307h2.3525Z"/><path d="M227.8575,184.5276c-.2588-.1748-.46-.4258-.6045-.7539s-.2168-.7139-.2168-1.1582,.0723-.8301,.2168-1.1582c.1445-.3271,.3457-.5791,.6045-.7549,.2588-.1748,.5527-.2627,.8828-.2627s.625,.0879,.8838,.2627c.2578,.1758,.4609,.4277,.6074,.7549,.1465,.3281,.2197,.7139,.2197,1.1582s-.0732,.8301-.2197,1.1582-.3496,.5791-.6074,.7539c-.2588,.1758-.5537,.2637-.8838,.2637s-.624-.0879-.8828-.2637Zm1.54-.3477c.1895-.1387,.3369-.3398,.4434-.6055,.1055-.2646,.1582-.584,.1582-.959s-.0527-.6943-.1582-.959c-.1064-.2656-.2539-.4668-.4434-.6055s-.4082-.208-.6572-.208c-.248,0-.4668,.0693-.6562,.208s-.3369,.3398-.4434,.6055c-.1055,.2646-.1592,.584-.1592,.959s.0537,.6943,.1592,.959c.1064,.2656,.2539,.4668,.4434,.6055s.4082,.208,.6562,.208c.249,0,.4678-.0693,.6572-.208Z"/></g><g><path d="M255.0919,184.3635v.3906h-3v-.3115l1.7783-1.7412c.2236-.2207,.375-.4111,.4551-.5713,.0791-.1611,.1191-.3232,.1191-.4863,0-.2529-.0869-.4492-.2598-.5898s-.4209-.2109-.7422-.2109c-.501,0-.8906,.1592-1.168,.4766l-.3115-.2686c.167-.1953,.3799-.3457,.6387-.4521,.2588-.1055,.5508-.1592,.877-.1592,.4355,0,.7812,.1035,1.0361,.3086,.2539,.2061,.3818,.4883,.3818,.8467,0,.2197-.0488,.4316-.1465,.6357-.0977,.2031-.2832,.4375-.5566,.7021l-1.4541,1.4307h2.3525Z"/><path d="M256.4083,184.5276c-.2588-.1748-.46-.4258-.6045-.7539s-.2168-.7139-.2168-1.1582,.0723-.8301,.2168-1.1582c.1445-.3271,.3457-.5791,.6045-.7549,.2588-.1748,.5527-.2627,.8828-.2627s.625,.0879,.8838,.2627c.2578,.1758,.4609,.4277,.6074,.7549,.1465,.3281,.2197,.7139,.2197,1.1582s-.0732,.8301-.2197,1.1582-.3496,.5791-.6074,.7539c-.2588,.1758-.5537,.2637-.8838,.2637s-.624-.0879-.8828-.2637Zm1.54-.3477c.1895-.1387,.3369-.3398,.4434-.6055,.1055-.2646,.1582-.584,.1582-.959s-.0527-.6943-.1582-.959c-.1064-.2656-.2539-.4668-.4434-.6055s-.4082-.208-.6572-.208c-.248,0-.4668,.0693-.6562,.208s-.3369,.3398-.4434,.6055c-.1055,.2646-.1592,.584-.1592,.959s.0537,.6943,.1592,.959c.1064,.2656,.2539,.4668,.4434,.6055s.4082,.208,.6562,.208c.249,0,.4678-.0693,.6572-.208Z"/><path d="M262.4982,184.3635v.3906h-3.001v-.3115l1.7783-1.7412c.2236-.2207,.376-.4111,.4551-.5713,.0801-.1611,.1191-.3232,.1191-.4863,0-.2529-.0859-.4492-.2598-.5898-.1729-.1406-.4199-.2109-.7422-.2109-.501,0-.8896,.1592-1.167,.4766l-.3115-.2686c.167-.1953,.3799-.3457,.6387-.4521,.2588-.1055,.5508-.1592,.877-.1592,.4355,0,.7812,.1035,1.0352,.3086,.2549,.2061,.3818,.4883,.3818,.8467,0,.2197-.0488,.4316-.1465,.6357-.0977,.2031-.2832,.4375-.5557,.7021l-1.4541,1.4307h2.3525Z"/><path d="M264.172,180.4768v4.2773h-.4395v-3.8867h-1.0088v-.3906h1.4482Z"/></g></g><rect class="cls-6" x="156.0013" y="5.6809" width="122.3051" height="39.6753"/><path class="cls-8" d="M160.4413,15.1893c0-1.3596,1.1018-2.4614,2.4614-2.4614h8.3669c1.3597,0,2.4614,1.1018,2.4614,2.4614s-1.1018,2.4614-2.4614,2.4614h-8.3669c-1.3597,0-2.4614-1.1018-2.4614-2.4614"/><g><path d="M178.9375,12.4739h.4424v3.5137l2.7139-3.5137h.4053v4.2402h-.4414v-3.5078l-2.7139,3.5078h-.4062v-4.2402Z"/><path d="M183.8261,13.5276h.4297v1.4111h2.0049v-1.4111h.4307v3.1865h-.4307v-1.4053h-2.0049v1.4053h-.4297v-3.1865Z"/><path d="M191.2705,16.2844c-.3271,.2822-.7891,.4355-1.3867,.46v1.1445h-.418v-1.1387c-.5938-.0244-1.0537-.1787-1.3789-.4629-.3252-.2852-.4873-.6758-.4873-1.1729,0-.4922,.1621-.8779,.4873-1.1562,.3252-.2793,.7852-.4307,1.3789-.4551v-1.2842h.418v1.2842c.5977,.0283,1.0596,.1816,1.3867,.4609,.3271,.2783,.4912,.6621,.4912,1.1504,0,.4971-.1641,.8867-.4912,1.1699Zm-2.8809-.2793c.2451,.2139,.6035,.3359,1.0762,.3633v-2.4834c-.4688,.0244-.8262,.1426-1.0723,.3545-.2471,.2119-.3701,.5039-.3701,.875,0,.3799,.1221,.6768,.3662,.8906Zm2.5752,.0059c.248-.2139,.3721-.5127,.3721-.8965,0-.375-.124-.668-.3721-.8779-.249-.21-.6094-.3271-1.0811-.3516v2.4834c.4717-.0234,.832-.1426,1.0811-.3574Z"/><path d="M195.2744,13.5276v3.1865h-.4307v-2.8047h-1.5264l-.042,.7871c-.0322,.6631-.1094,1.1719-.2305,1.5273-.1211,.3545-.3369,.5322-.6484,.5322-.084,0-.1875-.0156-.3086-.0479l.0303-.3701c.0723,.0166,.123,.0244,.1514,.0244,.166,0,.291-.0762,.376-.2305,.085-.1533,.1406-.3428,.1689-.5693,.0283-.2256,.0527-.5244,.0732-.8965l.0547-1.1387h2.332Z"/><path d="M198.9453,13.5276v3.1865h-.3945v-1.0537h-1.1201l-.7393,1.0537h-.4668l.7939-1.1143c-.2461-.0693-.4365-.1865-.5693-.3516-.1338-.166-.2002-.376-.2002-.6299,0-.3555,.1211-.626,.3633-.8125,.2432-.1855,.5742-.2783,.9941-.2783h1.3389Zm-1.3574,1.8115h.9629v-1.4297h-.9326c-.6221,0-.9326,.2402-.9326,.7207,0,.4727,.3008,.709,.9023,.709Z"/><path d="M203.4883,16.3381v1.1758h-.4062v-.7998h-2.9131v-3.1865h.4297v2.8105h1.9443v-2.8105h.4307v2.8105h.5146Z"/><path d="M204.3125,13.5276h.4297v2.5322l2.126-2.5322h.3818v3.1865h-.4297v-2.5322l-2.1201,2.5322h-.3877v-3.1865Z"/><path d="M210.9277,13.5276v3.1865h-.3945v-1.0537h-1.1201l-.7393,1.0537h-.4668l.7939-1.1143c-.2461-.0693-.4365-.1865-.5693-.3516-.1338-.166-.2002-.376-.2002-.6299,0-.3555,.1211-.626,.3633-.8125,.2432-.1855,.5742-.2783,.9941-.2783h1.3389Zm-1.3574,1.8115h.9629v-1.4297h-.9326c-.6221,0-.9326,.2402-.9326,.7207,0,.4727,.3008,.709,.9023,.709Z"/><path d="M213.7383,13.5276h.4297v1.4111h2.0049v-1.4111h.4307v3.1865h-.4307v-1.4053h-2.0049v1.4053h-.4297v-3.1865Z"/><path d="M219.8799,13.8157c.2227,.208,.334,.5156,.334,.9238v1.9746h-.4121v-.4971c-.0977,.166-.2393,.2949-.4277,.3877-.1875,.0938-.4102,.1396-.6689,.1396-.3555,0-.6377-.085-.8477-.2549-.2109-.1689-.3154-.3936-.3154-.6719,0-.2705,.0977-.4883,.2939-.6543,.1953-.166,.5078-.248,.9355-.248h1.0117v-.1943c0-.2744-.0762-.4834-.2305-.627-.1533-.1436-.377-.2148-.6719-.2148-.2021,0-.3955,.0332-.582,.0996-.1855,.0674-.3447,.1592-.4785,.2764l-.1934-.3213c.1611-.1377,.3555-.2432,.5811-.3184,.2266-.0742,.4648-.1123,.7148-.1123,.416,0,.7354,.1045,.957,.3125Zm-.4844,2.4229c.1738-.1113,.3027-.2715,.3877-.4814v-.5215h-.999c-.5459,0-.8184,.1904-.8184,.5703,0,.1855,.0703,.332,.2119,.4385,.1416,.1074,.3398,.1611,.5938,.1611,.2422,0,.4502-.0557,.624-.167Z"/><path d="M225.8037,13.5276v3.1865h-.4297v-2.8047h-1.999v2.8047h-.4297v-3.1865h2.8584Z"/><path d="M229.4814,13.7063c.2422,.1357,.4316,.3262,.5693,.5723,.1367,.2471,.2061,.5273,.2061,.8428,0,.3184-.0693,.6016-.2061,.8477-.1377,.2461-.3262,.4375-.5664,.5723-.2402,.1357-.5117,.2031-.8145,.2031-.2588,0-.4922-.0537-.7002-.1602-.208-.1074-.3789-.2637-.5117-.4697v1.7744h-.4297v-4.3613h.4111v.6299c.1299-.21,.2998-.3711,.5117-.4844,.2129-.1133,.4521-.1699,.7188-.1699,.2988,0,.5693,.0684,.8115,.2031Zm-.2363,2.502c.1816-.1025,.3242-.249,.4268-.4395,.1035-.1895,.1543-.4053,.1543-.6475,0-.2432-.0508-.458-.1543-.6455-.1025-.1875-.2451-.334-.4268-.4395-.1816-.1045-.3838-.1572-.6055-.1572-.2266,0-.4297,.0527-.6094,.1572-.1797,.1055-.3213,.252-.4238,.4395-.1035,.1875-.1543,.4023-.1543,.6455,0,.2422,.0508,.458,.1543,.6475,.1025,.1904,.2441,.3369,.4238,.4395s.3828,.1543,.6094,.1543c.2217,0,.4238-.0518,.6055-.1543Z"/><path d="M231.6679,16.5354c-.2471-.1396-.4404-.332-.582-.5781-.1416-.2471-.2119-.5254-.2119-.8359,0-.3115,.0703-.5898,.2119-.8359,.1416-.2471,.335-.4385,.582-.5762,.2461-.1367,.5225-.2061,.8301-.2061,.3066,0,.583,.0693,.8291,.2061,.2471,.1377,.4395,.3291,.5791,.5762,.1396,.2461,.209,.5244,.209,.8359,0,.3105-.0693,.5889-.209,.8359-.1396,.2461-.332,.4385-.5791,.5781-.2461,.1396-.5225,.209-.8291,.209-.3076,0-.584-.0693-.8301-.209Zm1.4385-.3271c.1797-.1025,.3203-.249,.4209-.4395,.1006-.1895,.1514-.4053,.1514-.6475,0-.2432-.0508-.459-.1514-.6484s-.2412-.3359-.4209-.4395c-.1797-.1025-.3828-.1543-.6084-.1543-.2266,0-.4297,.0518-.6094,.1543-.1797,.1035-.3213,.25-.4238,.4395s-.1543,.4053-.1543,.6484c0,.2422,.0518,.458,.1543,.6475,.1025,.1904,.2441,.3369,.4238,.4395s.3828,.1543,.6094,.1543c.2256,0,.4287-.0518,.6084-.1543Z"/><path d="M238.1435,16.3381v1.1455h-.4062v-.7695h-2.8535v.7695h-.4053v-1.1455h.1816c.2139-.0117,.3594-.1689,.4365-.4717,.0762-.3037,.1289-.7275,.1572-1.2725l.042-1.0664h2.3506v2.8105h.4971Zm-2.6113-.6025c-.0566,.293-.1572,.4941-.3027,.6025h1.9873v-2.4287h-1.5332l-.0361,.709c-.0205,.4521-.0586,.8242-.1152,1.1172Z"/><path d="M241.6865,13.5276l-1.5928,3.5684c-.1299,.2988-.2783,.5107-.4482,.6357s-.374,.1875-.6123,.1875c-.1533,0-.2969-.0234-.4297-.0723-.1338-.0488-.248-.1211-.3457-.2178l.2002-.3213c.1611,.1611,.3555,.2422,.582,.2422,.1445,0,.2695-.04,.3721-.1211s.1992-.2178,.2881-.4121l.1387-.3086-1.4229-3.1807h.4482l1.1992,2.708,1.1992-2.708h.4238Z"/><path d="M243.5156,15.2961h-.7266v1.418h-.4297v-3.1865h.4297v1.3994h.7334l1.1201-1.3994h.4668l-1.2539,1.5449,1.3447,1.6416h-.5088l-1.1758-1.418Z"/><path d="M248.1201,13.9094h-1.2061v2.8047h-.4297v-2.8047h-1.2061v-.3818h2.8418v.3818Z"/><path d="M250.997,14.9211c.21,.1738,.3154,.4238,.3154,.751,0,.3389-.1133,.5996-.3398,.7812-.2256,.1816-.5488,.2705-.9688,.2666l-1.2598-.0059v-3.1865h.4297v1.1152l.9082,.0117c.4004,.0039,.7051,.0928,.915,.2666Zm-.3486,1.293c.1514-.123,.2275-.3037,.2275-.542,0-.2344-.0752-.4082-.2236-.5205-.1504-.1133-.374-.1719-.6729-.1758l-.8057-.0127v1.418l.8057,.0117c.2949,.0039,.5176-.0557,.6689-.1787Zm1.1973-2.6865h.4297v3.1865h-.4297v-3.1865Z"/><path d="M181.6933,20.7961v3.1865h-.4297v-2.8047h-1.999v2.8047h-.4297v-3.1865h2.8584Z"/><path d="M182.9179,20.7961h.4297v2.5322l2.126-2.5322h.3818v3.1865h-.4297v-2.5322l-2.1201,2.5322h-.3877v-3.1865Z"/><path d="M189.3271,21.178h-1.2061v2.8047h-.4297v-2.8047h-1.2061v-.3818h2.8418v.3818Z"/><path d="M192.0039,21.0842c.2227,.208,.334,.5156,.334,.9238v1.9746h-.4121v-.4971c-.0977,.166-.2393,.2949-.4277,.3877-.1875,.0938-.4102,.1396-.6689,.1396-.3555,0-.6377-.085-.8477-.2549-.2109-.1689-.3154-.3936-.3154-.6719,0-.2705,.0977-.4883,.2939-.6543,.1953-.166,.5078-.248,.9355-.248h1.0117v-.1943c0-.2744-.0762-.4834-.2305-.627-.1533-.1436-.377-.2148-.6719-.2148-.2021,0-.3955,.0332-.582,.0996-.1855,.0674-.3447,.1592-.4785,.2764l-.1934-.3213c.1611-.1377,.3555-.2432,.5811-.3184,.2266-.0742,.4648-.1123,.7148-.1123,.416,0,.7354,.1045,.957,.3125Zm-.4844,2.4229c.1738-.1113,.3027-.2715,.3877-.4814v-.5215h-.999c-.5459,0-.8184,.1904-.8184,.5703,0,.1855,.0703,.332,.2119,.4385,.1416,.1074,.3398,.1611,.5938,.1611,.2422,0,.4502-.0557,.624-.167Z"/><path d="M193.4824,20.7961h.4297v1.4111h2.0049v-1.4111h.4307v3.1865h-.4307v-1.4053h-2.0049v1.4053h-.4297v-3.1865Z"/><path d="M197.5713,20.7961h.4297v2.5322l2.126-2.5322h.3818v3.1865h-.4297v-2.5322l-2.1201,2.5322h-.3877v-3.1865Z"/><path d="M204.1865,20.7961v3.1865h-.3945v-1.0537h-1.1201l-.7393,1.0537h-.4668l.7939-1.1143c-.2461-.0693-.4365-.1865-.5693-.3516-.1338-.166-.2002-.376-.2002-.6299,0-.3555,.1211-.626,.3633-.8125,.2432-.1855,.5742-.2783,.9941-.2783h1.3389Zm-1.3574,1.8115h.9629v-1.4297h-.9326c-.6221,0-.9326,.2402-.9326,.7207,0,.4727,.3008,.709,.9023,.709Z"/><path d="M205.6758,23.4465c.0605,.0625,.0918,.1406,.0918,.2334,0,.0479-.0078,.1006-.0215,.1572-.0146,.0566-.0352,.1211-.0635,.1943l-.2549,.8359h-.291l.2061-.8789c-.0645-.0195-.1172-.0576-.1572-.1123-.04-.0537-.0605-.1201-.0605-.1963,0-.0928,.0303-.1709,.0908-.2334s.1377-.0938,.2305-.0938,.1689,.0312,.2295,.0938Z"/><path d="M210.5342,21.178h-1.8232v2.8047h-.4297v-3.1865h2.2529v.3818Z"/><path d="M211.6426,23.804c-.2471-.1396-.4404-.332-.582-.5781-.1416-.2471-.2119-.5254-.2119-.8359,0-.3115,.0703-.5898,.2119-.8359,.1416-.2471,.335-.4385,.582-.5762,.2461-.1367,.5225-.2061,.8301-.2061,.3066,0,.583,.0693,.8291,.2061,.2471,.1377,.4395,.3291,.5791,.5762,.1396,.2461,.209,.5244,.209,.8359,0,.3105-.0693,.5889-.209,.8359-.1396,.2461-.332,.4385-.5791,.5781-.2461,.1396-.5225,.209-.8291,.209-.3076,0-.584-.0693-.8301-.209Zm1.4385-.3271c.1797-.1025,.3203-.249,.4209-.4395,.1006-.1895,.1514-.4053,.1514-.6475,0-.2432-.0508-.459-.1514-.6484s-.2412-.3359-.4209-.4395c-.1797-.1025-.3828-.1543-.6084-.1543-.2266,0-.4297,.0518-.6094,.1543-.1797,.1035-.3213,.25-.4238,.4395s-.1543,.4053-.1543,.6484c0,.2422,.0518,.458,.1543,.6475,.1025,.1904,.2441,.3369,.4238,.4395s.3828,.1543,.6094,.1543c.2256,0,.4287-.0518,.6084-.1543Z"/><path d="M218.1181,23.6067v1.1455h-.4062v-.7695h-2.8535v.7695h-.4053v-1.1455h.1816c.2139-.0117,.3594-.1689,.4365-.4717,.0762-.3037,.1289-.7275,.1572-1.2725l.042-1.0664h2.3506v2.8105h.4971Zm-2.6113-.6025c-.0566,.293-.1572,.4941-.3027,.6025h1.9873v-2.4287h-1.5332l-.0361,.709c-.0205,.4521-.0586,.8242-.1152,1.1172Z"/><path d="M221.6972,22.5647h-.7266v1.418h-.4297v-3.1865h.4297v1.3994h.7334l1.1201-1.3994h.4668l-1.2539,1.5449,1.3447,1.6416h-.5088l-1.1758-1.418Z"/><path d="M227.9004,21.178h-1.8232v2.8047h-.4297v-3.1865h2.2529v.3818Z"/><path d="M229.0088,23.804c-.2471-.1396-.4404-.332-.582-.5781-.1416-.2471-.2119-.5254-.2119-.8359,0-.3115,.0703-.5898,.2119-.8359,.1416-.2471,.335-.4385,.582-.5762,.2461-.1367,.5225-.2061,.8301-.2061,.3066,0,.583,.0693,.8291,.2061,.2471,.1377,.4395,.3291,.5791,.5762,.1396,.2461,.209,.5244,.209,.8359,0,.3105-.0693,.5889-.209,.8359-.1396,.2461-.332,.4385-.5791,.5781-.2461,.1396-.5225,.209-.8291,.209-.3076,0-.584-.0693-.8301-.209Zm1.4385-.3271c.1797-.1025,.3203-.249,.4209-.4395,.1006-.1895,.1514-.4053,.1514-.6475,0-.2432-.0508-.459-.1514-.6484s-.2412-.3359-.4209-.4395c-.1797-.1025-.3828-.1543-.6084-.1543-.2266,0-.4297,.0518-.6094,.1543-.1797,.1035-.3213,.25-.4238,.4395s-.1543,.4053-.1543,.6484c0,.2422,.0518,.458,.1543,.6475,.1025,.1904,.2441,.3369,.4238,.4395s.3828,.1543,.6094,.1543c.2256,0,.4287-.0518,.6084-.1543Z"/><path d="M235.4843,23.6067v1.1455h-.4062v-.7695h-2.8535v.7695h-.4053v-1.1455h.1816c.2139-.0117,.3594-.1689,.4365-.4717,.0762-.3037,.1289-.7275,.1572-1.2725l.042-1.0664h2.3506v2.8105h.4971Zm-2.6113-.6025c-.0566,.293-.1572,.4941-.3027,.6025h1.9873v-2.4287h-1.5332l-.0361,.709c-.0205,.4521-.0586,.8242-.1152,1.1172Z"/><path d="M239.0273,20.7961l-1.5928,3.5684c-.1299,.2988-.2783,.5107-.4482,.6357s-.374,.1875-.6123,.1875c-.1533,0-.2969-.0234-.4297-.0723-.1338-.0488-.248-.1211-.3457-.2178l.2002-.3213c.1611,.1611,.3555,.2422,.582,.2422,.1445,0,.2695-.04,.3721-.1211s.1992-.2178,.2881-.4121l.1387-.3086-1.4229-3.1807h.4482l1.1992,2.708,1.1992-2.708h.4238Z"/><path d="M239.9658,23.4465c.0605,.0625,.0918,.1406,.0918,.2334,0,.0479-.0078,.1006-.0215,.1572-.0146,.0566-.0352,.1211-.0635,.1943l-.2549,.8359h-.291l.2061-.8789c-.0645-.0195-.1172-.0576-.1572-.1123-.04-.0537-.0605-.1201-.0605-.1963,0-.0928,.0303-.1709,.0908-.2334s.1377-.0938,.2305-.0938,.1689,.0312,.2295,.0938Z"/><path d="M242.4765,21.6956c-.1758-.2119-.2627-.4893-.2627-.833,0-.3428,.0869-.6201,.2627-.833,.1758-.2119,.4072-.3174,.6943-.3174,.2822,0,.5127,.1045,.6904,.3145s.2666,.4893,.2666,.8359c0,.3477-.0889,.626-.2666,.8359s-.4082,.3154-.6904,.3154c-.2871,0-.5186-.1064-.6943-.3184Zm1.1699-.1875c.1191-.1553,.1787-.3701,.1787-.6455,0-.2744-.0596-.4893-.1787-.6445s-.2783-.2334-.4756-.2334c-.2021,0-.3623,.0791-.4785,.2363-.1172,.1572-.1758,.3711-.1758,.6416s.0586,.4854,.1758,.6426c.1162,.1572,.2764,.2363,.4785,.2363,.1973,0,.3564-.0781,.4756-.2334Zm2.0928-1.7656h.3574l-2.8955,4.2402h-.3574l2.8955-4.2402Zm-.6602,3.9521c-.1777-.2119-.2666-.4893-.2666-.833,0-.3428,.0889-.6201,.2666-.833,.1777-.2119,.4072-.3174,.6904-.3174,.2861,0,.5176,.1055,.6934,.3174,.1758,.2129,.2637,.4902,.2637,.833,0,.3438-.0879,.6211-.2637,.833s-.4072,.3184-.6934,.3184c-.2832,0-.5127-.1064-.6904-.3184Zm1.1689-.1904c.1172-.1572,.1758-.3711,.1758-.6426,0-.2705-.0586-.4844-.1758-.6416s-.2764-.2363-.4785-.2363c-.1982,0-.3564,.0781-.4756,.2334s-.1787,.3701-.1787,.6445c0,.2754,.0596,.4902,.1787,.6455s.2773,.2334,.4756,.2334c.2021,0,.3613-.0791,.4785-.2363Z"/></g><path class="cls-9" d="M160.4413,32.9624c0-1.3596,1.1018-2.4614,2.4614-2.4614h8.3669c1.3597,0,2.4614,1.1018,2.4614,2.4614s-1.1018,2.4614-2.4614,2.4614h-8.3669c-1.3597,0-2.4614-1.1018-2.4614-2.4614"/><g><path d="M178.9375,30.2454h.4424v3.5137l2.7139-3.5137h.4053v4.2402h-.4414v-3.5078l-2.7139,3.5078h-.4062v-4.2402Z"/><path d="M183.8261,31.2991h.4297v1.4111h2.0049v-1.4111h.4307v3.1865h-.4307v-1.4053h-2.0049v1.4053h-.4297v-3.1865Z"/><path d="M191.2705,34.0559c-.3271,.2822-.7891,.4355-1.3867,.46v1.1445h-.418v-1.1387c-.5938-.0244-1.0537-.1787-1.3789-.4629-.3252-.2852-.4873-.6758-.4873-1.1729,0-.4922,.1621-.8779,.4873-1.1562,.3252-.2793,.7852-.4307,1.3789-.4551v-1.2842h.418v1.2842c.5977,.0283,1.0596,.1816,1.3867,.4609,.3271,.2783,.4912,.6621,.4912,1.1504,0,.4971-.1641,.8867-.4912,1.1699Zm-2.8809-.2793c.2451,.2139,.6035,.3359,1.0762,.3633v-2.4834c-.4688,.0244-.8262,.1426-1.0723,.3545-.2471,.2119-.3701,.5039-.3701,.875,0,.3799,.1221,.6768,.3662,.8906Zm2.5752,.0059c.248-.2139,.3721-.5127,.3721-.8965,0-.375-.124-.668-.3721-.8779-.249-.21-.6094-.3271-1.0811-.3516v2.4834c.4717-.0234,.832-.1426,1.0811-.3574Z"/><path d="M195.2754,31.2991v3.1865h-.4307v-2.8047h-1.5264l-.042,.7871c-.0322,.6631-.1094,1.1719-.2305,1.5273-.1211,.3545-.3369,.5322-.6484,.5322-.084,0-.1875-.0156-.3086-.0479l.0303-.3701c.0723,.0166,.123,.0244,.1514,.0244,.166,0,.291-.0762,.376-.2305,.085-.1533,.1406-.3428,.1689-.5693,.0283-.2256,.0527-.5244,.0732-.8965l.0547-1.1387h2.332Z"/><path d="M198.9463,31.2991v3.1865h-.3945v-1.0537h-1.1201l-.7393,1.0537h-.4668l.7939-1.1143c-.2461-.0693-.4365-.1865-.5693-.3516-.1338-.166-.2002-.376-.2002-.6299,0-.3555,.1211-.626,.3633-.8125,.2432-.1855,.5742-.2783,.9941-.2783h1.3389Zm-1.3574,1.8115h.9629v-1.4297h-.9326c-.6221,0-.9326,.2402-.9326,.7207,0,.4727,.3008,.709,.9023,.709Z"/><path d="M203.4892,34.1096v1.1758h-.4062v-.7998h-2.9131v-3.1865h.4297v2.8105h1.9443v-2.8105h.4307v2.8105h.5146Z"/><path d="M204.3134,31.2991h.4297v2.5322l2.126-2.5322h.3818v3.1865h-.4297v-2.5322l-2.1201,2.5322h-.3877v-3.1865Z"/><path d="M210.9287,31.2991v3.1865h-.3945v-1.0537h-1.1201l-.7393,1.0537h-.4668l.7939-1.1143c-.2461-.0693-.4365-.1865-.5693-.3516-.1338-.166-.2002-.376-.2002-.6299,0-.3555,.1211-.626,.3633-.8125,.2432-.1855,.5742-.2783,.9941-.2783h1.3389Zm-1.3574,1.8115h.9629v-1.4297h-.9326c-.6221,0-.9326,.2402-.9326,.7207,0,.4727,.3008,.709,.9023,.709Z"/><path d="M212.4179,33.9495c.0605,.0625,.0918,.1406,.0918,.2334,0,.0479-.0078,.1006-.0215,.1572-.0146,.0566-.0352,.1211-.0635,.1943l-.2549,.8359h-.291l.2061-.8789c-.0645-.0195-.1172-.0576-.1572-.1123-.04-.0537-.0605-.1201-.0605-.1963,0-.0928,.0303-.1709,.0908-.2334s.1377-.0938,.2305-.0938,.1689,.0312,.2295,.0938Z"/><path d="M217.2763,31.6809h-1.8232v2.8047h-.4297v-3.1865h2.2529v.3818Z"/><path d="M218.3847,34.3069c-.2471-.1396-.4404-.332-.582-.5781-.1416-.2471-.2119-.5254-.2119-.8359,0-.3115,.0703-.5898,.2119-.8359,.1416-.2471,.335-.4385,.582-.5762,.2461-.1367,.5225-.2061,.8301-.2061,.3066,0,.583,.0693,.8291,.2061,.2471,.1377,.4395,.3291,.5791,.5762,.1396,.2461,.209,.5244,.209,.8359,0,.3105-.0693,.5889-.209,.8359-.1396,.2461-.332,.4385-.5791,.5781-.2461,.1396-.5225,.209-.8291,.209-.3076,0-.584-.0693-.8301-.209Zm1.4385-.3271c.1797-.1025,.3203-.249,.4209-.4395,.1006-.1895,.1514-.4053,.1514-.6475,0-.2432-.0508-.459-.1514-.6484s-.2412-.3359-.4209-.4395c-.1797-.1025-.3828-.1543-.6084-.1543-.2266,0-.4297,.0518-.6094,.1543-.1797,.1035-.3213,.25-.4238,.4395s-.1543,.4053-.1543,.6484c0,.2422,.0518,.458,.1543,.6475,.1025,.1904,.2441,.3369,.4238,.4395s.3828,.1543,.6094,.1543c.2256,0,.4287-.0518,.6084-.1543Z"/><path d="M224.8603,34.1096v1.1455h-.4062v-.7695h-2.8535v.7695h-.4053v-1.1455h.1816c.2139-.0117,.3594-.1689,.4365-.4717,.0762-.3037,.1289-.7275,.1572-1.2725l.042-1.0664h2.3506v2.8105h.4971Zm-2.6113-.6025c-.0566,.293-.1572,.4941-.3027,.6025h1.9873v-2.4287h-1.5332l-.0361,.709c-.0205,.4521-.0586,.8242-.1152,1.1172Z"/><path d="M228.4404,33.0676h-.7266v1.418h-.4297v-3.1865h.4297v1.3994h.7334l1.1201-1.3994h.4668l-1.2539,1.5449,1.3447,1.6416h-.5088l-1.1758-1.418Z"/><path d="M234.6435,31.6809h-1.8232v2.8047h-.4297v-3.1865h2.2529v.3818Z"/><path d="M235.7519,34.3069c-.2471-.1396-.4404-.332-.582-.5781-.1416-.2471-.2119-.5254-.2119-.8359,0-.3115,.0703-.5898,.2119-.8359,.1416-.2471,.335-.4385,.582-.5762,.2461-.1367,.5225-.2061,.8301-.2061,.3066,0,.583,.0693,.8291,.2061,.2471,.1377,.4395,.3291,.5791,.5762,.1396,.2461,.209,.5244,.209,.8359,0,.3105-.0693,.5889-.209,.8359-.1396,.2461-.332,.4385-.5791,.5781-.2461,.1396-.5225,.209-.8291,.209-.3076,0-.584-.0693-.8301-.209Zm1.4385-.3271c.1797-.1025,.3203-.249,.4209-.4395,.1006-.1895,.1514-.4053,.1514-.6475,0-.2432-.0508-.459-.1514-.6484s-.2412-.3359-.4209-.4395c-.1797-.1025-.3828-.1543-.6084-.1543-.2266,0-.4297,.0518-.6094,.1543-.1797,.1035-.3213,.25-.4238,.4395s-.1543,.4053-.1543,.6484c0,.2422,.0518,.458,.1543,.6475,.1025,.1904,.2441,.3369,.4238,.4395s.3828,.1543,.6094,.1543c.2256,0,.4287-.0518,.6084-.1543Z"/><path d="M242.2275,34.1096v1.1455h-.4062v-.7695h-2.8535v.7695h-.4053v-1.1455h.1816c.2139-.0117,.3594-.1689,.4365-.4717,.0762-.3037,.1289-.7275,.1572-1.2725l.042-1.0664h2.3506v2.8105h.4971Zm-2.6113-.6025c-.0566,.293-.1572,.4941-.3027,.6025h1.9873v-2.4287h-1.5332l-.0361,.709c-.0205,.4521-.0586,.8242-.1152,1.1172Z"/><path d="M245.7705,31.2991l-1.5928,3.5684c-.1299,.2988-.2783,.5107-.4482,.6357s-.374,.1875-.6123,.1875c-.1533,0-.2969-.0234-.4297-.0723-.1338-.0488-.248-.1211-.3457-.2178l.2002-.3213c.1611,.1611,.3555,.2422,.582,.2422,.1445,0,.2695-.04,.3721-.1211s.1992-.2178,.2881-.4121l.1387-.3086-1.4229-3.1807h.4482l1.1992,2.708,1.1992-2.708h.4238Z"/><path d="M246.7099,33.9495c.0605,.0625,.0918,.1406,.0918,.2334,0,.0479-.0078,.1006-.0215,.1572-.0146,.0566-.0352,.1211-.0635,.1943l-.2549,.8359h-.291l.2061-.8789c-.0645-.0195-.1172-.0576-.1572-.1123-.04-.0537-.0605-.1201-.0605-.1963,0-.0928,.0303-.1709,.0908-.2334s.1377-.0938,.2305-.0938,.1689,.0312,.2295,.0938Z"/><path d="M249.2207,32.1985c-.1758-.2119-.2627-.4893-.2627-.833,0-.3428,.0869-.6201,.2627-.833,.1758-.2119,.4072-.3174,.6943-.3174,.2822,0,.5127,.1045,.6904,.3145s.2666,.4893,.2666,.8359c0,.3477-.0889,.626-.2666,.8359s-.4082,.3154-.6904,.3154c-.2871,0-.5186-.1064-.6943-.3184Zm1.1699-.1875c.1191-.1553,.1787-.3701,.1787-.6455,0-.2744-.0596-.4893-.1787-.6445s-.2783-.2334-.4756-.2334c-.2021,0-.3623,.0791-.4785,.2363-.1172,.1572-.1758,.3711-.1758,.6416s.0586,.4854,.1758,.6426c.1162,.1572,.2764,.2363,.4785,.2363,.1973,0,.3564-.0781,.4756-.2334Zm2.0928-1.7656h.3574l-2.8955,4.2402h-.3574l2.8955-4.2402Zm-.6602,3.9521c-.1777-.2119-.2666-.4893-.2666-.833,0-.3428,.0889-.6201,.2666-.833,.1777-.2119,.4072-.3174,.6904-.3174,.2861,0,.5176,.1055,.6934,.3174,.1758,.2129,.2637,.4902,.2637,.833,0,.3438-.0879,.6211-.2637,.833s-.4072,.3184-.6934,.3184c-.2832,0-.5127-.1064-.6904-.3184Zm1.1689-.1904c.1172-.1572,.1758-.3711,.1758-.6426,0-.2705-.0586-.4844-.1758-.6416s-.2764-.2363-.4785-.2363c-.1982,0-.3564,.0781-.4756,.2334s-.1787,.3701-.1787,.6445c0,.2754,.0596,.4902,.1787,.6455s.2773,.2334,.4756,.2334c.2021,0,.3613-.0791,.4785-.2363Z"/></g></svg>