<?xml version="1.0" encoding="UTF-8"?><svg id="Layer_1" xmlns="http://www.w3.org/2000/svg" viewBox="0 0 339.9832 205.3148"><defs><style>.cls-1{letter-spacing:-.01em;}.cls-1,.cls-2,.cls-3,.cls-4,.cls-5{font-size:5px;}.cls-1,.cls-2,.cls-3,.cls-5{font-family:Montserrat-Regular, Montserrat;}.cls-6{stroke-dasharray:0 0 0 2.0077;}.cls-6,.cls-7,.cls-8{stroke-linecap:round;}.cls-6,.cls-7,.cls-8,.cls-9{fill:none;}.cls-6,.cls-8{stroke:#858585;stroke-linejoin:round;}.cls-6,.cls-8,.cls-9{stroke-width:.5px;}.cls-2{letter-spacing:-.0091em;}.cls-7{stroke:#000;stroke-linejoin:bevel;stroke-width:.3px;}.cls-3{letter-spacing:-.009em;}.cls-10{opacity:.5;}.cls-4{fill:#222;font-family:Montserrat-SemiBold, Montserrat;letter-spacing:.004em;}.cls-5{letter-spacing:-.0101em;}.cls-9{stroke:#e30510;stroke-miterlimit:10;}</style></defs><g class="cls-10"><g><line class="cls-8" x1="12.3824" y1="182.4045" x2="12.3824" y2="182.4045"/><line class="cls-6" x1="12.3824" y1="180.3968" x2="12.3824" y2="18.7733"/><line class="cls-8" x1="12.3824" y1="17.7694" x2="12.3824" y2="17.7694"/></g><g><line class="cls-8" x1="34.3275" y1="182.4045" x2="34.3275" y2="182.4045"/><line class="cls-6" x1="34.3275" y1="180.3968" x2="34.3275" y2="18.7733"/><line class="cls-8" x1="34.3275" y1="17.7694" x2="34.3275" y2="17.7694"/></g><g><line class="cls-8" x1="56.2728" y1="182.4045" x2="56.2728" y2="182.4045"/><line class="cls-6" x1="56.2728" y1="180.3968" x2="56.2728" y2="18.7733"/><line class="cls-8" x1="56.2728" y1="17.7694" x2="56.2728" y2="17.7694"/></g><g><line class="cls-8" x1="78.218" y1="182.4045" x2="78.218" y2="182.4045"/><line class="cls-6" x1="78.218" y1="180.3968" x2="78.218" y2="18.7733"/><line class="cls-8" x1="78.218" y1="17.7694" x2="78.218" y2="17.7694"/></g><g><line class="cls-8" x1="100.1632" y1="182.4045" x2="100.1632" y2="182.4045"/><line class="cls-6" x1="100.1632" y1="180.3968" x2="100.1632" y2="18.7733"/><line class="cls-8" x1="100.1632" y1="17.7694" x2="100.1632" y2="17.7694"/></g><g><line class="cls-8" x1="122.1085" y1="182.4045" x2="122.1085" y2="182.4045"/><line class="cls-6" x1="122.1085" y1="180.3968" x2="122.1085" y2="18.7733"/><line class="cls-8" x1="122.1085" y1="17.7694" x2="122.1085" y2="17.7694"/></g><g><line class="cls-8" x1="144.0537" y1="182.4045" x2="144.0537" y2="182.4045"/><line class="cls-6" x1="144.0537" y1="180.3968" x2="144.0537" y2="18.7733"/><line class="cls-8" x1="144.0537" y1="17.7694" x2="144.0537" y2="17.7694"/></g><g><line class="cls-8" x1="165.9989" y1="182.4045" x2="165.9989" y2="182.4045"/><line class="cls-6" x1="165.9989" y1="180.3968" x2="165.9989" y2="18.7733"/><line class="cls-8" x1="165.9989" y1="17.7694" x2="165.9989" y2="17.7694"/></g></g><g class="cls-10"><g><line class="cls-8" x1="187.9441" y1="182.4045" x2="187.9441" y2="182.4045"/><line class="cls-6" x1="187.9441" y1="180.3968" x2="187.9441" y2="18.7733"/><line class="cls-8" x1="187.9441" y1="17.7694" x2="187.9441" y2="17.7694"/></g><g><line class="cls-8" x1="209.8894" y1="182.4045" x2="209.8894" y2="182.4045"/><line class="cls-6" x1="209.8894" y1="180.3968" x2="209.8894" y2="18.7733"/><line class="cls-8" x1="209.8894" y1="17.7694" x2="209.8894" y2="17.7694"/></g><g><line class="cls-8" x1="231.8346" y1="182.4045" x2="231.8346" y2="182.4045"/><line class="cls-6" x1="231.8346" y1="180.3968" x2="231.8346" y2="18.7733"/><line class="cls-8" x1="231.8346" y1="17.7694" x2="231.8346" y2="17.7694"/></g><g><line class="cls-8" x1="253.7798" y1="182.4045" x2="253.7798" y2="182.4045"/><line class="cls-6" x1="253.7798" y1="180.3968" x2="253.7798" y2="18.7733"/><line class="cls-8" x1="253.7798" y1="17.7694" x2="253.7798" y2="17.7694"/></g><g><line class="cls-8" x1="275.725" y1="182.4045" x2="275.725" y2="182.4045"/><line class="cls-6" x1="275.725" y1="180.3968" x2="275.725" y2="18.7733"/><line class="cls-8" x1="275.725" y1="17.7694" x2="275.725" y2="17.7694"/></g></g><text class="cls-4" transform="translate(.0013 5.6503)"><tspan x="0" y="0">ПОТРЕБИТЕЛЬСКИЕ РАСХОДЫ</tspan></text><text class="cls-1" transform="translate(7.5034 188.8857)"><tspan x="0" y="0">янв</tspan></text><text class="cls-3" transform="translate(29.1714 188.8857)"><tspan x="0" y="0">фев</tspan></text><text class="cls-2" transform="translate(51.0324 188.8857)"><tspan x="0" y="0">мар</tspan></text><text class="cls-3" transform="translate(73.303 188.8857)"><tspan x="0" y="0">апр</tspan></text><text class="cls-2" transform="translate(94.9892 188.8857)"><tspan x="0" y="0">май</tspan></text><text class="cls-3" transform="translate(116.5523 188.8857)"><tspan x="0" y="0">июн</tspan></text><text class="cls-3" transform="translate(138.6403 188.8857)"><tspan x="0" y="0">июл</tspan></text><text class="cls-3" transform="translate(161.9017 188.8857)"><tspan x="0" y="0">авг</tspan></text><text class="cls-3" transform="translate(183.4247 188.8857)"><tspan x="0" y="0">сен</tspan></text><text class="cls-5" transform="translate(205.8082 188.8857)"><tspan x="0" y="0">окт</tspan></text><text class="cls-3" transform="translate(227.234 188.8857)"><tspan x="0" y="0">ноя</tspan></text><text class="cls-3" transform="translate(249.3821 188.8857)"><tspan x="0" y="0">дек</tspan></text><text class="cls-1" transform="translate(271.2727 188.8857)"><tspan x="0" y="0">янв</tspan></text><line class="cls-7" x1="2.6692" y1="128.9658" x2="275.725" y2="128.9658"/><path class="cls-9" d="M11.3353,129.0496c5.6704,2.4512,6.6178-.794,11.54-.9578,6.1693,.9566,4.6065-2.3202,8.9165-3.8697,4.1153-.7731,8.0758,2.2463,12.0576,1.0259,3.7272-1.7283,8.1224,1.3552,11.2724-2.2895,3.1472-2.8676,5.3837,3.4246,8.722,1.7167,3.4034-2.0808,8.3242,1.9931,8.6748-.0575,1.8226-14.9785,2.0086-30.1874,3.1245-45.2591,.4815-2.2141,.2229-15.6008,2.2364-14.6676,1.3855,1.0067,2.2821,2.6994,3.387,4.0753,3.2462,1.8725,7.4858,.0462,10.9353-.5887,2.7244,.8848,3.2916,14.7975,4.9734,18.2632,.9358,1.5845,3.2692-.4011,4.6503-.4306,2.4748-.7779,3.168,3.1234,4.2667,4.9853,1.3068,3.0484,3.1172,5.629,5.1194,8.0381,1.639,2.211,3.6756,.0743,5.4119-.7749,1.6924-.8237,1.9636-.5081,2.4157,1.2489,.7467,2.9017,1.302,5.8728,1.9544,8.8095,1.4753,5.0483,.2876,8.7647,5.8847,5.5129,1.1279-.4815,2.2309-.2665,3.2498,.4331,2.3997,2.2399,5.329,1.5886,8.1395,1.7623,2.4339,.2349,3.3279,12.4099,5.7298,10.5903,5.7573-13.2611,4.2706-16.224,18.3642-16.3598,3.873-.5355,3.4635-7.0836,5.4175-10.2041l.5604-.5793c2.7803-1.8126,7.5641,8.8805,10.7249,9.5826,5.1138,.8347,5.7988,1.815,7.9358-4.4003,.7616-1.3273,1.0433-3.8324,2.7351-3.7328,2.5456,.2418,5.2802-.2081,7.4409,1.7562,3.0017,2.5692,6.9503,2.6438,9.8312,5.4931,1.3545,1.2989,3.0478,1.5114,4.6191,.7539,5.1777-2.6628,10.9117,1.9768,16.0808-.5326,.8939-.2957,2.4418-1.3364,2.8789,.1926,1.7018,4.3276,1.9539,9.3139,3.8521,13.5475,1.8772,2.6423,3.9966-9.8755,4.9061-11.3493,4.6809-6.5449,13.952,1.2696,19.0899-4.6058,.751-.678,1.6341-1.1597,2.6108-.9834,7.739,.667,8.0726,13.304,14.68,.9397"/></svg>