<?xml version="1.0" encoding="UTF-8"?><svg id="Layer_1" xmlns="http://www.w3.org/2000/svg" viewBox="0 0 339.9832 205.3148"><defs><style>.cls-1{fill:#c4c4c4;}.cls-2{fill:#e30510;}.cls-3{fill:#222;}.cls-4{fill:none;stroke:#000;stroke-linecap:round;stroke-linejoin:bevel;stroke-width:.3px;}</style></defs><g><path class="cls-3" d="M3.7064,5.6504l-.0049-2.3203-1.1504,1.9199h-.29l-1.1499-1.8896v2.29H.4965V2.1504h.5347l1.3853,2.3145,1.3701-2.3145h.5298l.0103,3.5h-.6201Z"/><path class="cls-3" d="M5.3314,2.1504h.6396v2.4844l1.8804-2.4844h.605v3.5h-.6401V3.17l-1.8799,2.4805h-.605V2.1504Z"/><path class="cls-3" d="M12.5663,2.1504v3.5h-.6499v-1.5h-1.8101v1.5h-.6499V2.1504h.6499v1.4443h1.8101v-1.4443h.6499Z"/><path class="cls-3" d="M13.5712,2.1504h.6396v2.4844l1.8804-2.4844h.605v3.5h-.6401V3.17l-1.8799,2.4805h-.605V2.1504Z"/><path class="cls-3" d="M20.9115,5.6504l-.0049-2.3203-1.1504,1.9199h-.29l-1.1499-1.8896v2.29h-.6147V2.1504h.5347l1.3853,2.3145,1.3701-2.3145h.5298l.0103,3.5h-.6201Z"/><path class="cls-3" d="M24.8515,4.8399h-1.75l-.3452,.8105h-.6699l1.5752-3.5h.6396l1.5801,3.5h-.6797l-.3501-.8105Zm-.2148-.5098l-.6602-1.5303-.6553,1.5303h1.3154Z"/><path class="cls-3" d="M29.4262,2.1504v3.5h-.6401V2.7002h-1.3799l-.0298,.875c-.0171,.4902-.0571,.8877-.1201,1.1924-.0635,.3047-.165,.5371-.3052,.6953-.1396,.1582-.333,.2373-.5801,.2373-.0864,0-.2046-.0166-.355-.0498l.0454-.5654c.043,.0137,.0933,.0205,.1499,.0205,.2031,0,.3472-.1211,.4321-.3633,.0854-.2412,.1377-.6221,.1577-1.1416l.0498-1.4502h2.5752Z"/><path class="cls-3" d="M33.0136,3.6172c.2251,.1885,.3379,.4678,.3379,.8379,0,.3867-.1235,.6826-.3701,.8877s-.5933,.3076-1.04,.3076h-1.5049V2.1504h.6396v1.1846h.9702c.4199,0,.7427,.0947,.9673,.2822Zm-.5171,1.3584c.1362-.1172,.2046-.2871,.2046-.5107,0-.4229-.2632-.6348-.7896-.6348h-.8354v1.3203h.8354c.2529,0,.4482-.0586,.585-.1748Z"/><path class="cls-3" d="M37.1464,2.1504v3.5h-.6499v-1.5h-1.8101v1.5h-.6499V2.1504h.6499v1.4443h1.8101v-1.4443h.6499Z"/><path class="cls-3" d="M40.4662,4.8399h-1.75l-.3452,.8105h-.6699l1.5752-3.5h.6396l1.5801,3.5h-.6797l-.3501-.8105Zm-.2148-.5098l-.6602-1.5303-.6553,1.5303h1.3154Z"/><path class="cls-3" d="M44.726,2.1504v3.5h-.6401v-.9756h-.9351l-.6499,.9756h-.6851l.75-1.0801c-.2432-.0898-.4307-.2324-.5625-.4277s-.1973-.4307-.1973-.707c0-.2666,.0601-.4971,.1797-.6904,.1201-.1934,.29-.3408,.5103-.4424,.2197-.1016,.478-.1523,.7749-.1523h1.4551Zm-2.0474,.7344c-.1421,.124-.2129,.3037-.2129,.54,0,.2305,.0684,.4082,.2051,.5332s.335,.1875,.5952,.1875h.8198v-1.4453h-.7949c-.2666,0-.4707,.0615-.6123,.1846Z"/><path class="cls-3" d="M50.3461,5.6504l-.0049-2.3203-1.1504,1.9199h-.29l-1.1499-1.8896v2.29h-.6147V2.1504h.5347l1.3853,2.3145,1.3701-2.3145h.5298l.0103,3.5h-.6201Z"/><path class="cls-3" d="M54.5912,5.1055v.5449h-2.625V2.1504h2.5547v.5449h-1.9048v.9102h1.6899v.5352h-1.6899v.9648h1.9751Z"/><path class="cls-3" d="M55.9887,5.4678c-.2852-.1553-.5083-.3691-.6699-.6426-.1621-.2734-.2427-.582-.2427-.9248,0-.3438,.0815-.6523,.2451-.9248,.1631-.2734,.3872-.4883,.6724-.6426,.2852-.1553,.604-.2324,.9575-.2324,.2866,0,.5483,.0498,.7852,.1494,.2363,.1006,.4365,.2451,.6001,.4355l-.4204,.3945c-.2534-.2734-.5649-.4102-.9351-.4102-.2397,0-.4546,.0527-.6445,.1582-.1904,.1045-.3384,.25-.4453,.4375-.1064,.1865-.1602,.3975-.1602,.6348,0,.2363,.0537,.4482,.1602,.6348,.1069,.1865,.2549,.332,.4453,.4375,.1899,.1055,.4048,.1572,.6445,.1572,.3701,0,.6816-.1377,.9351-.415l.4204,.4004c-.1636,.1895-.3643,.335-.6025,.4346-.2388,.1006-.501,.1504-.7876,.1504-.3535,0-.6724-.0771-.9575-.2324Z"/><path class="cls-3" d="M61.6361,2.1504v3.5h-.6401v-.9756h-.9351l-.6499,.9756h-.6851l.75-1.0801c-.2432-.0898-.4307-.2324-.5625-.4277s-.1973-.4307-.1973-.707c0-.2666,.0601-.4971,.1797-.6904,.1201-.1934,.29-.3408,.5103-.4424,.2197-.1016,.478-.1523,.7749-.1523h1.4551Zm-2.0474,.7344c-.1421,.124-.2129,.3037-.2129,.54,0,.2305,.0684,.4082,.2051,.5332s.335,.1875,.5952,.1875h.8198v-1.4453h-.7949c-.2666,0-.4707,.0615-.6123,.1846Z"/><path class="cls-3" d="M65.371,2.1504v3.5h-.645v-1.3203c-.3301,.123-.6436,.1855-.9404,.1855-.4463,0-.7905-.1084-1.0322-.3232s-.3623-.5234-.3623-.9268v-1.1152h.6445v1.0449c0,.2461,.0718,.4346,.2153,.5645,.1431,.1309,.3481,.1953,.6147,.1953,.3032,0,.5903-.0615,.8604-.1846v-1.6201h.645Z"/><path class="cls-3" d="M69.4809,2.1504v3.5h-.6499v-1.5h-1.8101v1.5h-.6499V2.1504h.6499v1.4443h1.8101v-1.4443h.6499Z"/><path class="cls-3" d="M72.8007,4.8399h-1.75l-.3452,.8105h-.6699l1.5752-3.5h.6396l1.5801,3.5h-.6797l-.3501-.8105Zm-.2148-.5098l-.6602-1.5303-.6553,1.5303h1.3154Z"/><path class="cls-3" d="M77.0609,2.1504v3.5h-.6401v-.9756h-.9351l-.6499,.9756h-.6851l.75-1.0801c-.2432-.0898-.4307-.2324-.5625-.4277s-.1973-.4307-.1973-.707c0-.2666,.0601-.4971,.1797-.6904,.1201-.1934,.29-.3408,.5103-.4424,.2197-.1016,.478-.1523,.7749-.1523h1.4551Zm-2.0474,.7344c-.1421,.124-.2129,.3037-.2129,.54,0,.2305,.0684,.4082,.2051,.5332s.335,.1875,.5952,.1875h.8198v-1.4453h-.7949c-.2666,0-.4707,.0615-.6123,.1846Z"/><path class="cls-3" d="M81.7978,4.1475c.1187,.1484,.1777,.3223,.1777,.5225,0,.21-.0684,.3926-.2051,.5479s-.3193,.2744-.5474,.3574c-.2285,.083-.4775,.125-.7476,.125-.2334,0-.4673-.0322-.7026-.0977-.2349-.0645-.4521-.1621-.6523-.292l.21-.4756c.1533,.1035,.3232,.1826,.5103,.2373,.1865,.0557,.3716,.083,.5547,.083,.2632,0,.4824-.0518,.6577-.1553,.1748-.1035,.2622-.2451,.2622-.4248,0-.1533-.063-.2705-.1899-.3496-.1265-.0801-.3018-.1201-.5249-.1201h-.8149v-.5107h.7651c.1929,0,.3447-.04,.4546-.1191,.1104-.0801,.165-.1885,.165-.3252,0-.1631-.0742-.29-.2222-.3799-.1484-.0908-.3379-.1357-.5679-.1357-.1567,0-.3184,.0225-.4849,.0684-.1665,.0449-.3232,.1104-.4697,.1973l-.2051-.5254c.1797-.0967,.3706-.1689,.5723-.2178,.2017-.0479,.4028-.0723,.6025-.0723,.2603,0,.499,.04,.7178,.1201,.2183,.0801,.3921,.1943,.5225,.3428,.1299,.1484,.1948,.3223,.1948,.5225,0,.1729-.0469,.3252-.1401,.4551s-.2217,.2295-.3848,.2998c.21,.0664,.374,.1738,.4922,.3223Z"/><path class="cls-3" d="M85.0507,4.8399h-1.75l-.3452,.8105h-.6699l1.5752-3.5h.6396l1.5801,3.5h-.6797l-.3501-.8105Zm-.2148-.5098l-.6602-1.5303-.6553,1.5303h1.3154Z"/><path class="cls-3" d="M88.8681,2.2999c.2246,.1006,.3975,.2441,.5176,.4307,.1196,.1865,.1797,.4082,.1797,.665,0,.2529-.0601,.4736-.1797,.6621-.1201,.1885-.293,.333-.5176,.4326-.2251,.0996-.4893,.1504-.7925,.1504h-.79v1.0098h-.6499V2.1504h1.4399c.3032,0,.5674,.0498,.7925,.1494Zm-.1777,1.6104c.1465-.1201,.2202-.292,.2202-.5146,0-.2236-.0737-.3955-.2202-.5156s-.3618-.1797-.645-.1797h-.7598v1.3896h.7598c.2832,0,.4985-.0596,.645-.1797Z"/><path class="cls-3" d="M92.5707,4.8399h-1.75l-.3452,.8105h-.6699l1.5752-3.5h.6396l1.5801,3.5h-.6797l-.3501-.8105Zm-.2148-.5098l-.6602-1.5303-.6553,1.5303h1.3154Z"/><path class="cls-3" d="M94.1605,2.1504h2.7251v.5352h-2.0854v.8594h1.0352c.4199,0,.7393,.0879,.9575,.2627s.3276,.4277,.3276,.7578c0,.3467-.1201,.6143-.3599,.8018-.2402,.1885-.582,.2832-1.0254,.2832h-1.5747V2.1504Zm1.54,3c.25,0,.4399-.0488,.5698-.1455s.1948-.2363,.1948-.4199c0-.3594-.2549-.54-.7646-.54h-.9004v1.1055h.9004Z"/><path class="cls-3" d="M98.5053,5.4678c-.2866-.1553-.5117-.3701-.6748-.6455-.1636-.2744-.2451-.582-.2451-.9219s.0815-.6475,.2451-.9229c.1631-.2744,.3882-.4902,.6748-.6445,.2866-.1553,.6084-.2324,.9648-.2324,.3569,0,.6782,.0771,.9653,.2324,.2866,.1543,.5112,.3691,.6748,.6426,.1631,.2725,.2451,.5811,.2451,.9248,0,.3428-.082,.6514-.2451,.9248-.1636,.2734-.3882,.4873-.6748,.6426-.2871,.1553-.6084,.2324-.9653,.2324-.3564,0-.6782-.0771-.9648-.2324Zm1.5952-.4951c.1865-.1055,.333-.252,.4399-.4404,.1064-.1875,.1597-.3984,.1597-.6318s-.0532-.4443-.1597-.6328c-.1069-.1885-.2534-.335-.4399-.4395-.187-.1055-.397-.1582-.6304-.1582s-.4434,.0527-.6299,.1582c-.1865,.1045-.3335,.251-.4399,.4395-.1069,.1885-.1602,.3994-.1602,.6328s.0532,.4443,.1602,.6318c.1064,.1885,.2534,.335,.4399,.4404s.3965,.1572,.6299,.1572,.4434-.0518,.6304-.1572Z"/><path class="cls-3" d="M104.6352,2.7002h-1.1597v2.9502h-.645V2.7002h-1.1553v-.5498h2.96v.5498Z"/><path class="cls-3" d="M108.3256,2.1504v3.5h-.6499v-1.5h-1.8101v1.5h-.6499V2.1504h.6499v1.4443h1.8101v-1.4443h.6499Z"/><path class="cls-3" d="M111.6454,4.8399h-1.75l-.3452,.8105h-.6699l1.5752-3.5h.6396l1.5801,3.5h-.6797l-.3501-.8105Zm-.2148-.5098l-.6602-1.5303-.6553,1.5303h1.3154Z"/><path class="cls-3" d="M115.9052,2.1504v3.5h-.6401v-.9756h-.9351l-.6499,.9756h-.6851l.75-1.0801c-.2432-.0898-.4307-.2324-.5625-.4277s-.1973-.4307-.1973-.707c0-.2666,.0601-.4971,.1797-.6904,.1201-.1934,.29-.3408,.5103-.4424,.2197-.1016,.478-.1523,.7749-.1523h1.4551Zm-2.0474,.7344c-.1421,.124-.2129,.3037-.2129,.54,0,.2305,.0684,.4082,.2051,.5332s.335,.1875,.5952,.1875h.8198v-1.4453h-.7949c-.2666,0-.4707,.0615-.6123,.1846Z"/><path class="cls-3" d="M121.4101,2.1504v3.5h-.6396V2.7002h-1.8154v2.9502h-.6396V2.1504h3.0947Z"/><path class="cls-3" d="M125.4052,2.1504v3.5h-.6401V2.7002h-1.3799l-.0298,.875c-.0171,.4902-.0571,.8877-.1201,1.1924-.0635,.3047-.165,.5371-.3052,.6953-.1396,.1582-.333,.2373-.5801,.2373-.0864,0-.2046-.0166-.355-.0498l.0454-.5654c.043,.0137,.0933,.0205,.1499,.0205,.2031,0,.3472-.1211,.4321-.3633,.0854-.2412,.1377-.6221,.1577-1.1416l.0498-1.4502h2.5752Z"/><path class="cls-3" d="M128.7304,4.8399h-1.75l-.3452,.8105h-.6699l1.5752-3.5h.6396l1.5801,3.5h-.6797l-.3501-.8105Zm-.2148-.5098l-.6602-1.5303-.6553,1.5303h1.3154Z"/><path class="cls-3" d="M132.8549,2.7002h-1.1597v2.9502h-.645V2.7002h-1.1553v-.5498h2.96v.5498Z"/><path class="cls-3" d="M135.7553,4.8399h-1.75l-.3452,.8105h-.6699l1.5752-3.5h.6396l1.5801,3.5h-.6797l-.3501-.8105Zm-.2148-.5098l-.6602-1.5303-.6553,1.5303h1.3154Z"/><path class="cls-3" d="M141.5551,4.1377c.1167,.1445,.1748,.3262,.1748,.542,0,.3076-.1133,.5459-.3398,.7158-.2271,.1699-.5552,.2549-.9854,.2549h-1.6597V2.1504h1.5649c.3931,0,.6997,.0781,.9199,.2344,.2202,.1572,.3301,.3789,.3301,.665,0,.1836-.0444,.3418-.1323,.4756-.0884,.1328-.2163,.2344-.3828,.3047,.2231,.0605,.3936,.1621,.5103,.3076Zm-2.1704-.4922h.8701c.21,0,.3701-.042,.48-.125,.1104-.084,.165-.207,.165-.3701s-.0547-.2881-.165-.373c-.1099-.085-.27-.127-.48-.127h-.8701v.9951Zm1.6904,.9844c0-.3398-.23-.5098-.6904-.5098h-1v1.0303h1c.4604,0,.6904-.1738,.6904-.5205Z"/><path class="cls-3" d="M146.1225,2.2999c.2246,.1006,.3975,.2441,.5176,.4307,.1196,.1865,.1797,.4082,.1797,.665,0,.2529-.0601,.4736-.1797,.6621-.1201,.1885-.293,.333-.5176,.4326-.2251,.0996-.4893,.1504-.7925,.1504h-.79v1.0098h-.6499V2.1504h1.4399c.3032,0,.5674,.0498,.7925,.1494Zm-.1777,1.6104c.1465-.1201,.2202-.292,.2202-.5146,0-.2236-.0737-.3955-.2202-.5156s-.3618-.1797-.645-.1797h-.7598v1.3896h.7598c.2832,0,.4985-.0596,.645-.1797Z"/><path class="cls-3" d="M148.1596,5.4678c-.2866-.1553-.5117-.3701-.6748-.6455-.1636-.2744-.2451-.582-.2451-.9219s.0815-.6475,.2451-.9229c.1631-.2744,.3882-.4902,.6748-.6445,.2866-.1553,.6084-.2324,.9648-.2324,.3569,0,.6782,.0771,.9653,.2324,.2866,.1543,.5112,.3691,.6748,.6426,.1631,.2725,.2451,.5811,.2451,.9248,0,.3428-.082,.6514-.2451,.9248-.1636,.2734-.3882,.4873-.6748,.6426-.2871,.1553-.6084,.2324-.9653,.2324-.3564,0-.6782-.0771-.9648-.2324Zm1.5952-.4951c.1865-.1055,.333-.252,.4399-.4404,.1064-.1875,.1597-.3984,.1597-.6318s-.0532-.4443-.1597-.6328c-.1069-.1885-.2534-.335-.4399-.4395-.187-.1055-.397-.1582-.6304-.1582s-.4434,.0527-.6299,.1582c-.1865,.1045-.3335,.251-.4399,.4395-.1069,.1885-.1602,.3994-.1602,.6328s.0532,.4443,.1602,.6318c.1064,.1885,.2534,.335,.4399,.4404s.3965,.1572,.6299,.1572,.4434-.0518,.6304-.1572Z"/><path class="cls-3" d="M152.4022,5.4678c-.2852-.1553-.5083-.3691-.6699-.6426-.1621-.2734-.2427-.582-.2427-.9248,0-.3438,.0815-.6523,.2451-.9248,.1631-.2734,.3872-.4883,.6724-.6426,.2852-.1553,.604-.2324,.9575-.2324,.2866,0,.5483,.0498,.7852,.1494,.2363,.1006,.4365,.2451,.6001,.4355l-.4204,.3945c-.2534-.2734-.5649-.4102-.9351-.4102-.2397,0-.4546,.0527-.6445,.1582-.1904,.1045-.3384,.25-.4453,.4375-.1064,.1865-.1602,.3975-.1602,.6348,0,.2363,.0537,.4482,.1602,.6348,.1069,.1865,.2549,.332,.4453,.4375,.1899,.1055,.4048,.1572,.6445,.1572,.3701,0,.6816-.1377,.9351-.415l.4204,.4004c-.1636,.1895-.3643,.335-.6025,.4346-.2388,.1006-.501,.1504-.7876,.1504-.3535,0-.6724-.0771-.9575-.2324Z"/><path class="cls-3" d="M156.0272,5.4678c-.2852-.1553-.5083-.3691-.6699-.6426-.1621-.2734-.2427-.582-.2427-.9248,0-.3438,.0815-.6523,.2451-.9248,.1631-.2734,.3872-.4883,.6724-.6426,.2852-.1553,.604-.2324,.9575-.2324,.2866,0,.5483,.0498,.7852,.1494,.2363,.1006,.4365,.2451,.6001,.4355l-.4204,.3945c-.2534-.2734-.5649-.4102-.9351-.4102-.2397,0-.4546,.0527-.6445,.1582-.1904,.1045-.3384,.25-.4453,.4375-.1064,.1865-.1602,.3975-.1602,.6348,0,.2363,.0537,.4482,.1602,.6348,.1069,.1865,.2549,.332,.4453,.4375,.1899,.1055,.4048,.1572,.6445,.1572,.3701,0,.6816-.1377,.9351-.415l.4204,.4004c-.1636,.1895-.3643,.335-.6025,.4346-.2388,.1006-.501,.1504-.7876,.1504-.3535,0-.6724-.0771-.9575-.2324Z"/><path class="cls-3" d="M159.0048,2.1504h.6396v2.4844l1.8804-2.4844h.605v3.5h-.6401V3.17l-1.8799,2.4805h-.605V2.1504Z"/><path class="cls-3" d="M163.1347,2.1504h.6396v2.4844l1.8804-2.4844h.605v3.5h-.6401V3.17l-1.8799,2.4805h-.605V2.1504Z"/><path class="cls-3" d="M167.6742,4.9698c.0767,.0771,.1152,.1768,.1152,.3008,0,.0527-.0073,.1084-.0225,.167s-.0459,.1465-.0928,.2627l-.2549,.7051h-.4048l.1997-.7646c-.0732-.0303-.1309-.0781-.1724-.1426-.0415-.0654-.0625-.1416-.0625-.2275,0-.124,.0381-.2236,.1152-.3008,.0767-.0762,.1729-.1143,.29-.1143,.1162,0,.2129,.0381,.2896,.1143Z"/><path class="cls-3" d="M172.4394,2.7002h-1.1597v2.9502h-.645V2.7002h-1.1553v-.5498h2.96v.5498Z"/><path class="cls-3" d="M175.6015,3.6172c.2251,.1885,.3379,.4678,.3379,.8379,0,.3867-.1235,.6826-.3701,.8877s-.5933,.3076-1.04,.3076h-1.5049V2.1504h.6396v1.1846h.9702c.4199,0,.7427,.0947,.9673,.2822Zm-.5171,1.3584c.1362-.1172,.2046-.2871,.2046-.5107,0-.4229-.2632-.6348-.7896-.6348h-.8354v1.3203h.8354c.2529,0,.4482-.0586,.585-.1748Zm1.3599-2.8252h.6401v3.5h-.6401V2.1504Z"/><path class="cls-3" d="M178.7421,5.4678c-.2852-.1553-.5083-.3691-.6699-.6426-.1621-.2734-.2427-.582-.2427-.9248,0-.3438,.0815-.6523,.2451-.9248,.1631-.2734,.3872-.4883,.6724-.6426,.2852-.1553,.604-.2324,.9575-.2324,.2866,0,.5483,.0498,.7852,.1494,.2363,.1006,.4365,.2451,.6001,.4355l-.4204,.3945c-.2534-.2734-.5649-.4102-.9351-.4102-.2397,0-.4546,.0527-.6445,.1582-.1904,.1045-.3384,.25-.4453,.4375-.1064,.1865-.1602,.3975-.1602,.6348,0,.2363,.0537,.4482,.1602,.6348,.1069,.1865,.2549,.332,.4453,.4375,.1899,.1055,.4048,.1572,.6445,.1572,.3701,0,.6816-.1377,.9351-.415l.4204,.4004c-.1636,.1895-.3643,.335-.6025,.4346-.2388,.1006-.501,.1504-.7876,.1504-.3535,0-.6724-.0771-.9575-.2324Z"/><path class="cls-3" d="M181.5443,5.5674c-.0796-.0781-.1196-.1768-.1196-.2969,0-.124,.0391-.2236,.1172-.3008,.0786-.0762,.1758-.1143,.2925-.1143s.2144,.0381,.2925,.1143c.0786,.0771,.1177,.1768,.1177,.3008,0,.1201-.04,.2188-.1201,.2969-.0801,.0791-.1768,.1182-.29,.1182s-.21-.0391-.29-.1182Z"/><path class="cls-3" d="M186.5868,2.2999c.2246,.1006,.3975,.2441,.5176,.4307,.1196,.1865,.1797,.4082,.1797,.665,0,.2529-.0601,.4736-.1797,.6621-.1201,.1885-.293,.333-.5176,.4326-.2251,.0996-.4893,.1504-.7925,.1504h-.79v1.0098h-.6499V2.1504h1.4399c.3032,0,.5674,.0498,.7925,.1494Zm-.1777,1.6104c.1465-.1201,.2202-.292,.2202-.5146,0-.2236-.0737-.3955-.2202-.5156s-.3618-.1797-.645-.1797h-.7598v1.3896h.7598c.2832,0,.4985-.0596,.645-.1797Z"/><path class="cls-3" d="M190.974,2.1504l-1.52,2.8252c-.1333,.25-.2925,.4375-.4775,.5625s-.3857,.1875-.6025,.1875c-.1733,0-.3452-.0371-.5151-.1104l.1602-.5098c.1367,.043,.25,.0645,.3398,.0645,.21,0,.3833-.1084,.52-.3252l.0552-.085-1.395-2.6094h.6948l1.0352,2.0547,1.0649-2.0547h.6401Z"/><path class="cls-3" d="M191.5243,2.1504h2.7251v.5352h-2.0854v.8594h1.0352c.4199,0,.7393,.0879,.9575,.2627s.3276,.4277,.3276,.7578c0,.3467-.1201,.6143-.3599,.8018-.2402,.1885-.582,.2832-1.0254,.2832h-1.5747V2.1504Zm1.54,3c.25,0,.4399-.0488,.5698-.1455s.1948-.2363,.1948-.4199c0-.3594-.2549-.54-.7646-.54h-.9004v1.1055h.9004Z"/></g><path class="cls-1" d="M19.0446,162.6664c0,4.6757-3.8035,8.4792-8.4792,8.4792s-8.4792-3.8035-8.4792-8.4792v-58.5841c0-4.6757,3.8035-8.4792,8.4792-8.4792s8.4792,3.8035,8.4792,8.4792v58.5841Z"/><path class="cls-1" d="M45.7589,162.6664c0,4.6757-3.8035,8.4792-8.4792,8.4792s-8.4792-3.8035-8.4792-8.4792v-62.06c0-4.6757,3.8035-8.4793,8.4792-8.4793s8.4792,3.8035,8.4792,8.4793v62.06Z"/><path class="cls-1" d="M72.2524,162.6664c0,4.6757-3.8035,8.4792-8.4792,8.4792s-8.4792-3.8035-8.4792-8.4792V98.6064c0-4.6757,3.8035-8.4793,8.4792-8.4793s8.4792,3.8035,8.4792,8.4793v64.06Z"/><path class="cls-1" d="M152.6164,162.6664c0,4.6757-3.8035,8.4792-8.4792,8.4792s-8.4792-3.8035-8.4792-8.4792V88.3748c0-4.6757,3.8035-8.4793,8.4792-8.4793s8.4792,3.8035,8.4792,8.4793v74.2916Z"/><path class="cls-1" d="M179.3308,162.6664c0,4.6757-3.8035,8.4792-8.4792,8.4792s-8.4792-3.8035-8.4792-8.4792V76.6088c0-4.6757,3.8035-8.4792,8.4792-8.4792s8.4792,3.8035,8.4792,8.4792v86.0576Z"/><path class="cls-1" d="M99.1877,162.6664c0,4.6757-3.8035,8.4792-8.4792,8.4792s-8.4792-3.8035-8.4792-8.4792V96.3668c0-4.6757,3.8035-8.4792,8.4792-8.4792s8.4792,3.8035,8.4792,8.4792v66.2996Z"/><path class="cls-1" d="M125.902,162.6664c0,4.6757-3.8035,8.4792-8.4792,8.4792s-8.4792-3.8035-8.4792-8.4792V95.1993c0-4.6757,3.8035-8.4792,8.4792-8.4792s8.4792,3.8035,8.4792,8.4792v67.4671Z"/><path class="cls-1" d="M206.0448,162.6669c0,4.6749-3.8035,8.4792-8.4792,8.4792s-8.4784-3.8043-8.4784-8.4792V67.1325c0-4.6749,3.8035-8.4784,8.4784-8.4784s8.4792,3.8035,8.4792,8.4784v95.5345Z"/><path class="cls-1" d="M232.7596,162.6664c0,4.6757-3.8035,8.4792-8.4792,8.4792s-8.4792-3.8035-8.4792-8.4792V62.6088c0-4.6757,3.8035-8.4792,8.4792-8.4792s8.4792,3.8035,8.4792,8.4792v100.0576Z"/><path class="cls-2" d="M259.8777,163.2506c0,4.2609-3.9772,7.7152-8.883,7.7152s-8.883-3.4543-8.883-7.7152V57.5362c0-4.2616,3.9771-7.7152,8.883-7.7152s8.883,3.4536,8.883,7.7152v105.7143Z"/><line class="cls-4" x1="10.5654" y1="166.806" x2="10.5654" y2="37.5795"/><path d="M9.8387,37.5794c0-.4013,.3254-.7268,.7268-.7268s.7268,.3255,.7268,.7268-.3254,.7268-.7268,.7268-.7268-.3255-.7268-.7268"/><line class="cls-4" x1="117.4226" y1="166.806" x2="117.4226" y2="37.5795"/><path d="M116.6959,37.5794c0-.4013,.3254-.7268,.7268-.7268s.7268,.3255,.7268,.7268-.3255,.7268-.7268,.7268-.7268-.3255-.7268-.7268"/><line class="cls-4" x1="37.2794" y1="166.806" x2="37.2794" y2="37.5795"/><path d="M36.5527,37.5794c0-.4013,.3254-.7268,.7268-.7268s.7268,.3255,.7268,.7268-.3255,.7268-.7268,.7268-.7268-.3255-.7268-.7268"/><line class="cls-4" x1="144.137" y1="166.806" x2="144.137" y2="37.5795"/><path d="M143.4103,37.5794c0-.4013,.3254-.7268,.7268-.7268s.7268,.3255,.7268,.7268-.3255,.7268-.7268,.7268-.7268-.3255-.7268-.7268"/><line class="cls-4" x1="63.9938" y1="166.806" x2="63.9938" y2="37.5795"/><path d="M63.2671,37.5794c0-.4013,.3254-.7268,.7268-.7268s.7268,.3255,.7268,.7268-.3255,.7268-.7268,.7268-.7268-.3255-.7268-.7268"/><line class="cls-4" x1="170.8514" y1="166.806" x2="170.8514" y2="37.5795"/><path d="M170.1247,37.5794c0-.4013,.3254-.7268,.7268-.7268s.7268,.3255,.7268,.7268-.3255,.7268-.7268,.7268-.7268-.3255-.7268-.7268"/><line class="cls-4" x1="90.7082" y1="166.806" x2="90.7082" y2="37.5793"/><path d="M89.9815,37.5794c0-.4013,.3254-.7268,.7268-.7268s.7268,.3255,.7268,.7268-.3255,.7268-.7268,.7268-.7268-.3255-.7268-.7268"/><line class="cls-4" x1="197.5658" y1="166.806" x2="197.5658" y2="37.5795"/><path d="M196.8391,37.5794c0-.4013,.3254-.7268,.7268-.7268s.7268,.3255,.7268,.7268-.3255,.7268-.7268,.7268-.7268-.3255-.7268-.7268"/><line class="cls-4" x1="224.2802" y1="166.806" x2="224.2802" y2="37.5796"/><path d="M223.5535,37.5794c0-.4013,.3254-.7268,.7268-.7268s.7268,.3255,.7268,.7268-.3255,.7268-.7268,.7268-.7268-.3255-.7268-.7268"/><line class="cls-4" x1="250.9946" y1="166.806" x2="250.9946" y2="37.5795"/><path d="M250.2679,37.5794c0-.4013,.3254-.7268,.7268-.7268s.7268,.3255,.7268,.7268-.3255,.7268-.7268,.7268-.7268-.3255-.7268-.7268"/><g><path d="M8.1728,31.4717h-.6997v.9199h-.3604v-.9199h-1.9746v-.2607l1.855-2.3193h.3999l-1.79,2.2598h1.52v-.8096h.3501v.8096h.6997v.3203Z"/><path d="M8.9682,31.9493c.0498,.0518,.0747,.1152,.0747,.1924,0,.04-.0059,.083-.0171,.1299-.0117,.0469-.0293,.0996-.0527,.1602l-.21,.6895h-.2402l.1704-.7246c-.0537-.0166-.0967-.0479-.1304-.0928-.0332-.0449-.0498-.0986-.0498-.1621,0-.0771,.0249-.1406,.0752-.1924,.0498-.0518,.1133-.0781,.1899-.0781s.1396,.0264,.1899,.0781Z"/><path d="M11.6249,30.4268c.1787,.0859,.3179,.209,.418,.3672,.0996,.1582,.1499,.3428,.1499,.5527,0,.2129-.0518,.4014-.1553,.5645-.103,.1641-.2456,.2891-.4272,.3779-.1816,.0879-.3857,.1318-.6128,.1318-.4634,0-.8184-.1523-1.0649-.457s-.3701-.7354-.3701-1.293c0-.3896,.0669-.7197,.2002-.9893,.1333-.2705,.3198-.4746,.5601-.6123,.2397-.1387,.52-.208,.8398-.208,.3467,0,.6235,.0635,.8301,.1904l-.145,.29c-.1665-.1104-.3931-.165-.6797-.165-.3867,0-.6904,.1221-.9102,.3672-.2202,.2451-.3301,.6006-.3301,1.0674,0,.083,.0049,.1787,.0151,.2852,.0864-.1904,.2251-.3379,.415-.4424,.1899-.1055,.4082-.1582,.6548-.1582,.23,0,.4341,.0439,.6123,.1309Zm-.0249,1.4824c.1582-.1387,.2378-.3232,.2378-.5527,0-.2305-.0796-.4131-.2378-.5498s-.3726-.2051-.6426-.2051c-.1763,0-.3325,.0332-.4673,.0996-.1348,.0674-.2407,.1582-.3174,.2754-.0767,.1162-.1152,.2461-.1152,.3896,0,.1338,.0361,.2568,.1074,.3701,.0718,.1133,.1777,.2051,.3179,.2754,.1396,.0693,.3066,.1045,.5,.1045,.2529,0,.459-.0693,.6172-.207Z"/></g><g><path d="M34.7636,30.5987c.2314,.1816,.3472,.4365,.3472,.7627,0,.2031-.0474,.3848-.1421,.5449-.0952,.1602-.2378,.2861-.4277,.3779s-.4233,.1367-.6997,.1367c-.25,0-.4878-.04-.7129-.1221-.2246-.082-.4058-.1904-.5425-.3271l.1753-.2852c.1167,.1201,.27,.2178,.46,.292,.1899,.0752,.395,.1133,.6147,.1133,.29,0,.5142-.0654,.6729-.1953,.1582-.1299,.2373-.3037,.2373-.5205,0-.2393-.0894-.4209-.2676-.5449-.1782-.123-.479-.1846-.9023-.1846h-.7451l.1802-1.7549h1.915v.3193h-1.6001l-.1201,1.1152h.4502c.5063,0,.8755,.0908,1.1074,.2725Z"/><path d="M36.0312,31.9493c.0498,.0518,.0747,.1152,.0747,.1924,0,.04-.0059,.083-.0171,.1299-.0117,.0469-.0293,.0996-.0527,.1602l-.21,.6895h-.2402l.1704-.7246c-.0537-.0166-.0967-.0479-.1304-.0928-.0332-.0449-.0498-.0986-.0498-.1621,0-.0771,.0249-.1406,.0752-.1924,.0498-.0518,.1133-.0781,.1899-.0781s.1396,.0264,.1899,.0781Z"/><path d="M39.016,32.0713v.3203h-2.4551v-.2549l1.4551-1.4258c.1836-.1797,.3076-.335,.3726-.4668s.0977-.2646,.0977-.3975c0-.207-.0708-.3682-.2124-.4824-.1421-.1152-.3442-.1729-.6079-.1729-.4097,0-.728,.1299-.9546,.3896l-.2554-.2197c.1367-.1602,.311-.2832,.5225-.3701,.2119-.0869,.4512-.1299,.7178-.1299,.3564,0,.6392,.084,.8477,.2529,.208,.168,.3125,.3984,.3125,.6924,0,.1797-.04,.3535-.1201,.5195-.0801,.167-.2319,.3584-.4551,.5752l-1.1899,1.1699h1.9248Z"/></g><g><path d="M61.2382,30.5987c.2314,.1816,.3472,.4365,.3472,.7627,0,.2031-.0474,.3848-.1421,.5449-.0952,.1602-.2378,.2861-.4277,.3779s-.4233,.1367-.6997,.1367c-.25,0-.4878-.04-.7129-.1221-.2246-.082-.4058-.1904-.5425-.3271l.1753-.2852c.1167,.1201,.27,.2178,.46,.292,.1899,.0752,.395,.1133,.6147,.1133,.29,0,.5142-.0654,.6729-.1953,.1582-.1299,.2373-.3037,.2373-.5205,0-.2393-.0894-.4209-.2676-.5449-.1782-.123-.479-.1846-.9023-.1846h-.7451l.1802-1.7549h1.915v.3193h-1.6001l-.1201,1.1152h.4502c.5063,0,.8755,.0908,1.1074,.2725Z"/><path d="M62.5058,31.9493c.0498,.0518,.0747,.1152,.0747,.1924,0,.04-.0059,.083-.0171,.1299-.0117,.0469-.0293,.0996-.0527,.1602l-.21,.6895h-.2402l.1704-.7246c-.0537-.0166-.0967-.0479-.1304-.0928-.0332-.0449-.0498-.0986-.0498-.1621,0-.0771,.0249-.1406,.0752-.1924,.0498-.0518,.1133-.0781,.1899-.0781s.1396,.0264,.1899,.0781Z"/><path d="M65.1283,30.5987c.2314,.1816,.3472,.4365,.3472,.7627,0,.2031-.0474,.3848-.1421,.5449-.0952,.1602-.2378,.2861-.4277,.3779s-.4233,.1367-.6997,.1367c-.25,0-.4878-.04-.7129-.1221-.2246-.082-.4058-.1904-.5425-.3271l.1753-.2852c.1167,.1201,.27,.2178,.46,.292,.1899,.0752,.395,.1133,.6147,.1133,.29,0,.5142-.0654,.6729-.1953,.1582-.1299,.2373-.3037,.2373-.5205,0-.2393-.0894-.4209-.2676-.5449-.1782-.123-.479-.1846-.9023-.1846h-.7451l.1802-1.7549h1.915v.3193h-1.6001l-.1201,1.1152h.4502c.5063,0,.8755,.0908,1.1074,.2725Z"/></g><g><path d="M86.4086,30.5987c.2314,.1816,.3472,.4365,.3472,.7627,0,.2031-.0474,.3848-.1421,.5449-.0952,.1602-.2378,.2861-.4277,.3779s-.4233,.1367-.6997,.1367c-.25,0-.4878-.04-.7129-.1221-.2246-.082-.4058-.1904-.5425-.3271l.1753-.2852c.1167,.1201,.27,.2178,.46,.292,.1899,.0752,.395,.1133,.6147,.1133,.29,0,.5142-.0654,.6729-.1953,.1582-.1299,.2373-.3037,.2373-.5205,0-.2393-.0894-.4209-.2676-.5449-.1782-.123-.479-.1846-.9023-.1846h-.7451l.1802-1.7549h1.915v.3193h-1.6001l-.1201,1.1152h.4502c.5063,0,.8755,.0908,1.1074,.2725Z"/><path d="M87.6762,31.9493c.0498,.0518,.0747,.1152,.0747,.1924,0,.04-.0059,.083-.0171,.1299-.0117,.0469-.0293,.0996-.0527,.1602l-.21,.6895h-.2402l.1704-.7246c-.0537-.0166-.0967-.0479-.1304-.0928-.0332-.0449-.0498-.0986-.0498-.1621,0-.0771,.0249-.1406,.0752-.1924,.0498-.0518,.1133-.0781,.1899-.0781s.1396,.0264,.1899,.0781Z"/><path d="M90.4262,29.3194c.2466,.3047,.3701,.7354,.3701,1.292,0,.3896-.0669,.7197-.2002,.9902-.1333,.2695-.3198,.4736-.5601,.6123-.2397,.1387-.52,.207-.8398,.207-.3467,0-.6235-.0625-.8301-.1895l.145-.29c.1665,.1104,.3931,.165,.6802,.165,.3862,0,.6899-.123,.9097-.3672,.2202-.2451,.3301-.6016,.3301-1.0684,0-.0859-.0049-.1816-.0151-.2842-.0864,.1895-.2246,.3369-.4146,.4424-.1904,.1045-.4087,.1572-.6553,.1572-.23,0-.4341-.043-.6123-.1299-.1787-.0869-.3179-.209-.4175-.3672-.1001-.1582-.1504-.3428-.1504-.5527,0-.2139,.0518-.4014,.1553-.5654,.103-.1631,.2456-.2891,.4272-.377,.1816-.0889,.3857-.1328,.6128-.1328,.4634,0,.8184,.1523,1.0649,.458Zm-.5576,1.2617c.1353-.0664,.2407-.1582,.3174-.2744,.0767-.1172,.1152-.2471,.1152-.3906,0-.1328-.0361-.2559-.1074-.3701-.0718-.1133-.1777-.2041-.3174-.2744-.1401-.0703-.3071-.1055-.5-.1055-.2534,0-.4595,.0693-.6177,.208s-.2378,.3223-.2378,.5527c0,.2295,.0796,.4131,.2378,.5498s.3726,.2051,.6426,.2051c.1763,0,.3325-.0332,.4673-.1006Z"/></g><g><path d="M114.414,30.4268c.1787,.0859,.3179,.209,.418,.3672,.0996,.1582,.1499,.3428,.1499,.5527,0,.2129-.0518,.4014-.1553,.5645-.103,.1641-.2456,.2891-.4272,.3779-.1816,.0879-.3857,.1318-.6128,.1318-.4634,0-.8184-.1523-1.0649-.457s-.3701-.7354-.3701-1.293c0-.3896,.0669-.7197,.2002-.9893,.1333-.2705,.3198-.4746,.5601-.6123,.2397-.1387,.52-.208,.8398-.208,.3467,0,.6235,.0635,.8301,.1904l-.145,.29c-.1665-.1104-.3931-.165-.6797-.165-.3867,0-.6904,.1221-.9102,.3672-.2202,.2451-.3301,.6006-.3301,1.0674,0,.083,.0049,.1787,.0151,.2852,.0864-.1904,.2251-.3379,.415-.4424,.1899-.1055,.4082-.1582,.6548-.1582,.23,0,.4341,.0439,.6123,.1309Zm-.0249,1.4824c.1582-.1387,.2378-.3232,.2378-.5527,0-.2305-.0796-.4131-.2378-.5498s-.3726-.2051-.6426-.2051c-.1763,0-.3325,.0332-.4673,.0996-.1348,.0674-.2407,.1582-.3174,.2754-.0767,.1162-.1152,.2461-.1152,.3896,0,.1338,.0361,.2568,.1074,.3701,.0718,.1133,.1777,.2051,.3179,.2754,.1396,.0693,.3066,.1045,.5,.1045,.2529,0,.459-.0693,.6172-.207Z"/><path d="M115.8617,31.9493c.0498,.0518,.0747,.1152,.0747,.1924,0,.04-.0059,.083-.0171,.1299-.0117,.0469-.0293,.0996-.0527,.1602l-.21,.6895h-.2402l.1704-.7246c-.0537-.0166-.0967-.0479-.1304-.0928-.0332-.0449-.0498-.0986-.0498-.1621,0-.0771,.0249-.1406,.0752-.1924,.0498-.0518,.1133-.0781,.1899-.0781s.1396,.0264,.1899,.0781Z"/><path d="M118.8466,32.0713v.3203h-2.4551v-.2549l1.4551-1.4258c.1836-.1797,.3076-.335,.3726-.4668s.0977-.2646,.0977-.3975c0-.207-.0708-.3682-.2124-.4824-.1421-.1152-.3442-.1729-.6079-.1729-.4097,0-.728,.1299-.9546,.3896l-.2554-.2197c.1367-.1602,.311-.2832,.5225-.3701,.2119-.0869,.4512-.1299,.7178-.1299,.3564,0,.6392,.084,.8477,.2529,.208,.168,.3125,.3984,.3125,.6924,0,.1797-.04,.3535-.1201,.5195-.0801,.167-.2319,.3584-.4551,.5752l-1.1899,1.1699h1.9248Z"/></g><g><path d="M142.2494,28.8916v.2549l-1.4648,3.2451h-.3901l1.4399-3.1807h-1.7998v.6553h-.355v-.9746h2.5698Z"/><path d="M143.1894,31.9493c.0498,.0518,.0747,.1152,.0747,.1924,0,.04-.0059,.083-.0171,.1299-.0117,.0469-.0293,.0996-.0527,.1602l-.21,.6895h-.2402l.1704-.7246c-.0537-.0166-.0967-.0479-.1304-.0928-.0332-.0449-.0498-.0986-.0498-.1621,0-.0771,.0249-.1406,.0752-.1924,.0498-.0518,.1133-.0781,.1899-.0781s.1396,.0264,.1899,.0781Z"/><path d="M145.8119,30.5987c.2314,.1816,.3472,.4365,.3472,.7627,0,.2031-.0474,.3848-.1421,.5449-.0952,.1602-.2378,.2861-.4277,.3779s-.4233,.1367-.6997,.1367c-.25,0-.4878-.04-.7129-.1221-.2246-.082-.4058-.1904-.5425-.3271l.1753-.2852c.1167,.1201,.27,.2178,.46,.292,.1899,.0752,.395,.1133,.6147,.1133,.29,0,.5142-.0654,.6729-.1953,.1582-.1299,.2373-.3037,.2373-.5205,0-.2393-.0894-.4209-.2676-.5449-.1782-.123-.479-.1846-.9023-.1846h-.7451l.1802-1.7549h1.915v.3193h-1.6001l-.1201,1.1152h.4502c.5063,0,.8755,.0908,1.1074,.2725Z"/></g><g><path d="M168.0507,29.3194c.2466,.3047,.3701,.7354,.3701,1.292,0,.3896-.0669,.7197-.2002,.9902-.1333,.2695-.3198,.4736-.5601,.6123-.2397,.1387-.52,.207-.8398,.207-.3467,0-.6235-.0625-.8301-.1895l.145-.29c.1665,.1104,.3931,.165,.6802,.165,.3862,0,.6899-.123,.9097-.3672,.2202-.2451,.3301-.6016,.3301-1.0684,0-.0859-.0049-.1816-.0151-.2842-.0864,.1895-.2246,.3369-.4146,.4424-.1904,.1045-.4087,.1572-.6553,.1572-.23,0-.4341-.043-.6123-.1299-.1787-.0869-.3179-.209-.4175-.3672-.1001-.1582-.1504-.3428-.1504-.5527,0-.2139,.0518-.4014,.1553-.5654,.103-.1631,.2456-.2891,.4272-.377,.1816-.0889,.3857-.1328,.6128-.1328,.4634,0,.8184,.1523,1.0649,.458Zm-.5576,1.2617c.1353-.0664,.2407-.1582,.3174-.2744,.0767-.1172,.1152-.2471,.1152-.3906,0-.1328-.0361-.2559-.1074-.3701-.0718-.1133-.1777-.2041-.3174-.2744-.1401-.0703-.3071-.1055-.5-.1055-.2534,0-.4595,.0693-.6177,.208s-.2378,.3223-.2378,.5527c0,.2295,.0796,.4131,.2378,.5498s.3726,.2051,.6426,.2051c.1763,0,.3325-.0332,.4673-.1006Z"/><path d="M169.4057,31.9493c.0498,.0518,.0747,.1152,.0747,.1924,0,.04-.0059,.083-.0171,.1299-.0117,.0469-.0293,.0996-.0527,.1602l-.21,.6895h-.2402l.1704-.7246c-.0537-.0166-.0967-.0479-.1304-.0928-.0332-.0449-.0498-.0986-.0498-.1621,0-.0771,.0249-.1406,.0752-.1924,.0498-.0518,.1133-.0781,.1899-.0781s.1396,.0264,.1899,.0781Z"/><path d="M172.9755,31.4717h-.6997v.9199h-.3604v-.9199h-1.9746v-.2607l1.855-2.3193h.3999l-1.79,2.2598h1.52v-.8096h.3501v.8096h.6997v.3203Z"/></g><g><path d="M193.7836,28.8916v3.5h-.3599v-3.1807h-.8252v-.3193h1.1851Z"/><path d="M195.5888,28.8916v3.5h-.3599v-3.1807h-.8252v-.3193h1.1851Z"/><path d="M196.8886,31.9493c.0498,.0518,.0747,.1152,.0747,.1924,0,.04-.0059,.083-.0171,.1299-.0117,.0469-.0293,.0996-.0527,.1602l-.21,.6895h-.2402l.1704-.7246c-.0537-.0166-.0967-.0479-.1304-.0928-.0332-.0449-.0498-.0986-.0498-.1621,0-.0771,.0249-.1406,.0752-.1924,.0498-.0518,.1133-.0781,.1899-.0781s.1396,.0264,.1899,.0781Z"/><path d="M199.5111,30.6885c.1914,.1787,.2876,.4111,.2876,.6982,0,.1992-.0483,.377-.145,.5322s-.2402,.2773-.4302,.3672-.4219,.1348-.6948,.1348c-.2534,0-.4927-.04-.7178-.1221s-.4058-.1904-.5425-.3271l.1753-.2852c.1162,.1201,.2715,.2178,.4648,.292,.1934,.0752,.3999,.1133,.6201,.1133,.2866,0,.5083-.0625,.665-.1875,.1562-.125,.2349-.2979,.2349-.5176,0-.2168-.0786-.3867-.2349-.5107-.1567-.123-.3936-.1846-.7104-.1846h-.25v-.2646l.9702-1.2158h-1.79v-.3193h2.25v.2549l-.9897,1.2451c.3662,.0195,.6455,.1191,.8374,.2969Z"/></g><g><path d="M219.6186,28.8916v3.5h-.3599v-3.1807h-.8252v-.3193h1.1851Z"/><path d="M222.8437,32.0713v.3203h-2.4551v-.2549l1.4551-1.4258c.1836-.1797,.3076-.335,.3726-.4668s.0977-.2646,.0977-.3975c0-.207-.0708-.3682-.2124-.4824-.1421-.1152-.3442-.1729-.6079-.1729-.4097,0-.728,.1299-.9546,.3896l-.2554-.2197c.1367-.1602,.311-.2832,.5225-.3701,.2119-.0869,.4512-.1299,.7178-.1299,.3564,0,.6392,.084,.8477,.2529,.208,.168,.3125,.3984,.3125,.6924,0,.1797-.04,.3535-.1201,.5195-.0801,.167-.2319,.3584-.4551,.5752l-1.1899,1.1699h1.9248Z"/><path d="M223.7587,31.9493c.0498,.0518,.0747,.1152,.0747,.1924,0,.04-.0059,.083-.0171,.1299-.0117,.0469-.0293,.0996-.0527,.1602l-.21,.6895h-.2402l.1704-.7246c-.0537-.0166-.0967-.0479-.1304-.0928-.0332-.0449-.0498-.0986-.0498-.1621,0-.0771,.0249-.1406,.0752-.1924,.0498-.0518,.1133-.0781,.1899-.0781s.1396,.0264,.1899,.0781Z"/><path d="M225.3236,28.8916v3.5h-.3599v-3.1807h-.8252v-.3193h1.1851Z"/></g><g><path d="M247.3827,28.8916v3.5h-.3599v-3.1807h-.8252v-.3193h1.1851Z"/><path d="M250.6078,32.0713v.3203h-2.4551v-.2549l1.4551-1.4258c.1836-.1797,.3076-.335,.3726-.4668s.0977-.2646,.0977-.3975c0-.207-.0708-.3682-.2124-.4824-.1421-.1152-.3442-.1729-.6079-.1729-.4097,0-.728,.1299-.9546,.3896l-.2554-.2197c.1367-.1602,.311-.2832,.5225-.3701,.2119-.0869,.4512-.1299,.7178-.1299,.3564,0,.6392,.084,.8477,.2529,.208,.168,.3125,.3984,.3125,.6924,0,.1797-.04,.3535-.1201,.5195-.0801,.167-.2319,.3584-.4551,.5752l-1.1899,1.1699h1.9248Z"/><path d="M251.5229,31.9493c.0498,.0518,.0747,.1152,.0747,.1924,0,.04-.0059,.083-.0171,.1299-.0117,.0469-.0293,.0996-.0527,.1602l-.21,.6895h-.2402l.1704-.7246c-.0537-.0166-.0967-.0479-.1304-.0928-.0332-.0449-.0498-.0986-.0498-.1621,0-.0771,.0249-.1406,.0752-.1924,.0498-.0518,.1133-.0781,.1899-.0781s.1396,.0264,.1899,.0781Z"/><path d="M254.6303,30.8868c.1182,.1465,.1777,.3232,.1777,.5293,0,.2041-.0552,.3809-.165,.5332-.1104,.1514-.2676,.2676-.4727,.3496s-.4458,.1221-.7227,.1221c-.4199,0-.75-.0898-.9897-.2695-.2402-.1797-.3599-.4248-.3599-.7354,0-.21,.0571-.3867,.1724-.5322,.1147-.1445,.2822-.2539,.5024-.3271-.1802-.0703-.3169-.1709-.4102-.3027s-.1396-.2871-.1396-.4678c0-.2832,.1104-.5078,.332-.6748s.5195-.25,.8926-.25c.2466,0,.4629,.0371,.6475,.1123,.1851,.0752,.3291,.1826,.4326,.3223,.1035,.1406,.1553,.3037,.1553,.4902,0,.1807-.0483,.3359-.145,.4678s-.2354,.2324-.415,.3027c.2197,.0732,.3892,.1826,.5073,.3301Zm-.4551,1.04c.1753-.127,.2627-.2988,.2627-.5156s-.0874-.3877-.2627-.5127c-.1748-.125-.4175-.1875-.7275-.1875-.3066,0-.5474,.0625-.7222,.1875-.1753,.125-.2627,.2959-.2627,.5127,0,.2207,.0864,.3926,.2603,.5176,.1729,.125,.4146,.1875,.7246,.1875s.5527-.0635,.7275-.1895Zm-1.3623-1.6699c.1533,.1133,.3647,.1699,.6348,.1699s.4824-.0566,.6377-.1699c.1548-.1133,.2324-.2656,.2324-.4551,0-.1973-.0791-.3516-.2373-.4658-.1587-.1133-.3691-.1699-.6328-.1699-.2666,0-.4775,.0566-.6323,.1699-.1548,.1143-.2324,.2676-.2324,.46,0,.1934,.0767,.3477,.23,.4609Z"/></g><line class="cls-4" x1="10.3809" y1="170.9658" x2="250.2682" y2="170.9658"/><g><path d="M6.3383,188.5655v.3203H3.8832v-.2549l1.4551-1.4258c.1836-.1797,.3076-.335,.3726-.4668s.0977-.2646,.0977-.3975c0-.207-.0708-.3682-.2124-.4824-.1421-.1152-.3442-.1729-.6079-.1729-.4097,0-.728,.1299-.9546,.3896l-.2554-.2197c.1367-.1602,.311-.2832,.5225-.3701,.2119-.0869,.4512-.1299,.7178-.1299,.3564,0,.6392,.084,.8477,.2529,.208,.168,.3125,.3984,.3125,.6924,0,.1797-.04,.3535-.1201,.5195-.0801,.167-.2319,.3584-.4551,.5752l-1.1899,1.1699h1.9248Z"/><path d="M7.411,188.7002c-.2119-.1426-.377-.3486-.4951-.6172s-.1777-.584-.1777-.9473,.0596-.6797,.1777-.9473c.1182-.2686,.2832-.4746,.4951-.6182,.2114-.1436,.4521-.2148,.7222-.2148s.5112,.0713,.7227,.2148c.2119,.1436,.3774,.3496,.4976,.6182,.1201,.2676,.1802,.584,.1802,.9473s-.0601,.6787-.1802,.9473-.2856,.4746-.4976,.6172c-.2114,.1436-.4526,.2148-.7227,.2148s-.5107-.0713-.7222-.2148Zm1.2598-.2852c.1553-.1133,.2759-.2773,.3628-.4941,.0864-.2168,.1299-.4785,.1299-.7852s-.0435-.5684-.1299-.7852c-.0869-.2168-.2075-.3818-.3628-.4951-.1548-.1133-.334-.1699-.5376-.1699-.2031,0-.3823,.0566-.5371,.1699-.1553,.1133-.2759,.2783-.3628,.4951-.0864,.2168-.1299,.4785-.1299,.7852s.0435,.5684,.1299,.7852c.0869,.2168,.2075,.3809,.3628,.4941,.1548,.1143,.334,.1709,.5371,.1709,.2036,0,.3828-.0566,.5376-.1709Z"/><path d="M10.9682,185.3858v3.5h-.3599v-3.1807h-.8252v-.3193h1.1851Z"/><path d="M14.143,188.5655v.3203h-2.4551v-.2549l1.4551-1.4258c.1836-.1797,.3076-.335,.3726-.4668s.0977-.2646,.0977-.3975c0-.207-.0708-.3682-.2124-.4824-.1421-.1152-.3442-.1729-.6079-.1729-.4097,0-.728,.1299-.9546,.3896l-.2554-.2197c.1367-.1602,.311-.2832,.5225-.3701,.2119-.0869,.4512-.1299,.7178-.1299,.3564,0,.6392,.084,.8477,.2529,.208,.168,.3125,.3984,.3125,.6924,0,.1797-.04,.3535-.1201,.5195-.0801,.167-.2319,.3584-.4551,.5752l-1.1899,1.1699h1.9248Z"/></g><g><path d="M33.1239,188.5655v.3203h-2.4551v-.2549l1.4551-1.4258c.1836-.1797,.3076-.335,.3726-.4668s.0977-.2646,.0977-.3975c0-.207-.0708-.3682-.2124-.4824-.1421-.1152-.3442-.1729-.6079-.1729-.4097,0-.728,.1299-.9546,.3896l-.2554-.2197c.1367-.1602,.311-.2832,.5225-.3701,.2119-.0869,.4512-.1299,.7178-.1299,.3564,0,.6392,.084,.8477,.2529,.208,.168,.3125,.3984,.3125,.6924,0,.1797-.04,.3535-.1201,.5195-.0801,.167-.2319,.3584-.4551,.5752l-1.1899,1.1699h1.9248Z"/><path d="M34.2016,188.7002c-.2119-.1426-.377-.3486-.4951-.6172s-.1777-.584-.1777-.9473,.0596-.6797,.1777-.9473c.1182-.2686,.2832-.4746,.4951-.6182,.2114-.1436,.4521-.2148,.7222-.2148s.5112,.0713,.7227,.2148c.2119,.1436,.3774,.3496,.4976,.6182,.1201,.2676,.1802,.584,.1802,.9473s-.0601,.6787-.1802,.9473-.2856,.4746-.4976,.6172c-.2114,.1436-.4526,.2148-.7227,.2148s-.5107-.0713-.7222-.2148Zm1.2598-.2852c.1553-.1133,.2759-.2773,.3628-.4941,.0864-.2168,.1299-.4785,.1299-.7852s-.0435-.5684-.1299-.7852c-.0869-.2168-.2075-.3818-.3628-.4951-.1548-.1133-.334-.1699-.5376-.1699-.2031,0-.3823,.0566-.5371,.1699-.1553,.1133-.2759,.2783-.3628,.4951-.0864,.2168-.1299,.4785-.1299,.7852s.0435,.5684,.1299,.7852c.0869,.2168,.2075,.3809,.3628,.4941,.1548,.1143,.334,.1709,.5371,.1709,.2036,0,.3828-.0566,.5376-.1709Z"/><path d="M37.7641,185.3858v3.5h-.3599v-3.1807h-.8252v-.3193h1.1851Z"/><path d="M40.5814,187.1827c.1914,.1787,.2876,.4111,.2876,.6982,0,.1992-.0483,.377-.145,.5322s-.2402,.2773-.4302,.3672-.4219,.1348-.6948,.1348c-.2534,0-.4927-.04-.7178-.1221s-.4058-.1904-.5425-.3271l.1753-.2852c.1162,.1201,.2715,.2178,.4648,.292,.1934,.0752,.3999,.1133,.6201,.1133,.2866,0,.5083-.0625,.665-.1875,.1562-.125,.2349-.2979,.2349-.5176,0-.2168-.0786-.3867-.2349-.5107-.1567-.123-.3936-.1846-.7104-.1846h-.25v-.2646l.9702-1.2158h-1.79v-.3193h2.25v.2549l-.9897,1.2451c.3662,.0195,.6455,.1191,.8374,.2969Z"/></g><g><path d="M59.9389,188.5655v.3203h-2.4551v-.2549l1.4551-1.4258c.1836-.1797,.3076-.335,.3726-.4668s.0977-.2646,.0977-.3975c0-.207-.0708-.3682-.2124-.4824-.1421-.1152-.3442-.1729-.6079-.1729-.4097,0-.728,.1299-.9546,.3896l-.2554-.2197c.1367-.1602,.311-.2832,.5225-.3701,.2119-.0869,.4512-.1299,.7178-.1299,.3564,0,.6392,.084,.8477,.2529,.208,.168,.3125,.3984,.3125,.6924,0,.1797-.04,.3535-.1201,.5195-.0801,.167-.2319,.3584-.4551,.5752l-1.1899,1.1699h1.9248Z"/><path d="M61.0165,188.7002c-.2119-.1426-.377-.3486-.4951-.6172s-.1777-.584-.1777-.9473,.0596-.6797,.1777-.9473c.1182-.2686,.2832-.4746,.4951-.6182,.2114-.1436,.4521-.2148,.7222-.2148s.5112,.0713,.7227,.2148c.2119,.1436,.3774,.3496,.4976,.6182,.1201,.2676,.1802,.584,.1802,.9473s-.0601,.6787-.1802,.9473-.2856,.4746-.4976,.6172c-.2114,.1436-.4526,.2148-.7227,.2148s-.5107-.0713-.7222-.2148Zm1.2598-.2852c.1553-.1133,.2759-.2773,.3628-.4941,.0864-.2168,.1299-.4785,.1299-.7852s-.0435-.5684-.1299-.7852c-.0869-.2168-.2075-.3818-.3628-.4951-.1548-.1133-.334-.1699-.5376-.1699-.2031,0-.3823,.0566-.5371,.1699-.1553,.1133-.2759,.2783-.3628,.4951-.0864,.2168-.1299,.4785-.1299,.7852s.0435,.5684,.1299,.7852c.0869,.2168,.2075,.3809,.3628,.4941,.1548,.1143,.334,.1709,.5371,.1709,.2036,0,.3828-.0566,.5376-.1709Z"/><path d="M64.579,185.3858v3.5h-.3599v-3.1807h-.8252v-.3193h1.1851Z"/><path d="M68.3437,187.9659h-.6997v.9199h-.3604v-.9199h-1.9746v-.2607l1.855-2.3193h.3999l-1.79,2.2598h1.52v-.8096h.3501v.8096h.6997v.3203Z"/></g><g><path d="M86.9828,188.5655v.3203h-2.4551v-.2549l1.4551-1.4258c.1836-.1797,.3076-.335,.3726-.4668s.0977-.2646,.0977-.3975c0-.207-.0708-.3682-.2124-.4824-.1421-.1152-.3442-.1729-.6079-.1729-.4097,0-.728,.1299-.9546,.3896l-.2554-.2197c.1367-.1602,.311-.2832,.5225-.3701,.2119-.0869,.4512-.1299,.7178-.1299,.3564,0,.6392,.084,.8477,.2529,.208,.168,.3125,.3984,.3125,.6924,0,.1797-.04,.3535-.1201,.5195-.0801,.167-.2319,.3584-.4551,.5752l-1.1899,1.1699h1.9248Z"/><path d="M88.0605,188.7002c-.2119-.1426-.377-.3486-.4951-.6172s-.1777-.584-.1777-.9473,.0596-.6797,.1777-.9473c.1182-.2686,.2832-.4746,.4951-.6182,.2114-.1436,.4521-.2148,.7222-.2148s.5112,.0713,.7227,.2148c.2119,.1436,.3774,.3496,.4976,.6182,.1201,.2676,.1802,.584,.1802,.9473s-.0601,.6787-.1802,.9473-.2856,.4746-.4976,.6172c-.2114,.1436-.4526,.2148-.7227,.2148s-.5107-.0713-.7222-.2148Zm1.2598-.2852c.1553-.1133,.2759-.2773,.3628-.4941,.0864-.2168,.1299-.4785,.1299-.7852s-.0435-.5684-.1299-.7852c-.0869-.2168-.2075-.3818-.3628-.4951-.1548-.1133-.334-.1699-.5376-.1699-.2031,0-.3823,.0566-.5371,.1699-.1553,.1133-.2759,.2783-.3628,.4951-.0864,.2168-.1299,.4785-.1299,.7852s.0435,.5684,.1299,.7852c.0869,.2168,.2075,.3809,.3628,.4941,.1548,.1143,.334,.1709,.5371,.1709,.2036,0,.3828-.0566,.5376-.1709Z"/><path d="M91.623,185.3858v3.5h-.3599v-3.1807h-.8252v-.3193h1.1851Z"/><path d="M94.4403,187.0928c.2314,.1816,.3472,.4365,.3472,.7627,0,.2031-.0474,.3848-.1421,.5449-.0952,.1602-.2378,.2861-.4277,.3779s-.4233,.1367-.6997,.1367c-.25,0-.4878-.04-.7129-.1221-.2246-.082-.4058-.1904-.5425-.3271l.1753-.2852c.1167,.1201,.27,.2178,.46,.292,.1899,.0752,.395,.1133,.6147,.1133,.29,0,.5142-.0654,.6729-.1953,.1582-.1299,.2373-.3037,.2373-.5205,0-.2393-.0894-.4209-.2676-.5449-.1782-.123-.479-.1846-.9023-.1846h-.7451l.1802-1.7549h1.915v.3193h-1.6001l-.1201,1.1152h.4502c.5063,0,.8755,.0908,1.1074,.2725Z"/></g><g><path d="M113.807,188.5655v.3203h-2.4551v-.2549l1.4551-1.4258c.1836-.1797,.3076-.335,.3726-.4668s.0977-.2646,.0977-.3975c0-.207-.0708-.3682-.2124-.4824-.1421-.1152-.3442-.1729-.6079-.1729-.4097,0-.728,.1299-.9546,.3896l-.2554-.2197c.1367-.1602,.311-.2832,.5225-.3701,.2119-.0869,.4512-.1299,.7178-.1299,.3564,0,.6392,.084,.8477,.2529,.208,.168,.3125,.3984,.3125,.6924,0,.1797-.04,.3535-.1201,.5195-.0801,.167-.2319,.3584-.4551,.5752l-1.1899,1.1699h1.9248Z"/><path d="M114.8847,188.7002c-.2119-.1426-.377-.3486-.4951-.6172s-.1777-.584-.1777-.9473,.0596-.6797,.1777-.9473c.1182-.2686,.2832-.4746,.4951-.6182,.2114-.1436,.4521-.2148,.7222-.2148s.5112,.0713,.7227,.2148c.2119,.1436,.3774,.3496,.4976,.6182,.1201,.2676,.1802,.584,.1802,.9473s-.0601,.6787-.1802,.9473-.2856,.4746-.4976,.6172c-.2114,.1436-.4526,.2148-.7227,.2148s-.5107-.0713-.7222-.2148Zm1.2598-.2852c.1553-.1133,.2759-.2773,.3628-.4941,.0864-.2168,.1299-.4785,.1299-.7852s-.0435-.5684-.1299-.7852c-.0869-.2168-.2075-.3818-.3628-.4951-.1548-.1133-.334-.1699-.5376-.1699-.2031,0-.3823,.0566-.5371,.1699-.1553,.1133-.2759,.2783-.3628,.4951-.0864,.2168-.1299,.4785-.1299,.7852s.0435,.5684,.1299,.7852c.0869,.2168,.2075,.3809,.3628,.4941,.1548,.1143,.334,.1709,.5371,.1709,.2036,0,.3828-.0566,.5376-.1709Z"/><path d="M118.4472,185.3858v3.5h-.3599v-3.1807h-.8252v-.3193h1.1851Z"/><path d="M121.2992,186.9209c.1787,.0859,.3179,.209,.418,.3672,.0996,.1582,.1499,.3428,.1499,.5527,0,.2129-.0518,.4014-.1553,.5645-.103,.1641-.2456,.2891-.4272,.3779-.1816,.0879-.3857,.1318-.6128,.1318-.4634,0-.8184-.1523-1.0649-.457s-.3701-.7354-.3701-1.293c0-.3896,.0669-.7197,.2002-.9893,.1333-.2705,.3198-.4746,.5601-.6123,.2397-.1387,.52-.208,.8398-.208,.3467,0,.6235,.0635,.8301,.1904l-.145,.29c-.1665-.1104-.3931-.165-.6797-.165-.3867,0-.6904,.1221-.9102,.3672-.2202,.2451-.3301,.6006-.3301,1.0674,0,.083,.0049,.1787,.0151,.2852,.0864-.1904,.2251-.3379,.415-.4424,.1899-.1055,.4082-.1582,.6548-.1582,.23,0,.4341,.0439,.6123,.1309Zm-.0249,1.4824c.1582-.1387,.2378-.3232,.2378-.5527,0-.2305-.0796-.4131-.2378-.5498s-.3726-.2051-.6426-.2051c-.1763,0-.3325,.0332-.4673,.0996-.1348,.0674-.2407,.1582-.3174,.2754-.0767,.1162-.1152,.2461-.1152,.3896,0,.1338,.0361,.2568,.1074,.3701,.0718,.1133,.1777,.2051,.3179,.2754,.1396,.0693,.3066,.1045,.5,.1045,.2529,0,.459-.0693,.6172-.207Z"/></g><g><path d="M141.0458,188.5655v.3203h-2.4551v-.2549l1.4551-1.4258c.1836-.1797,.3076-.335,.3726-.4668s.0977-.2646,.0977-.3975c0-.207-.0708-.3682-.2124-.4824-.1421-.1152-.3442-.1729-.6079-.1729-.4097,0-.728,.1299-.9546,.3896l-.2554-.2197c.1367-.1602,.311-.2832,.5225-.3701,.2119-.0869,.4512-.1299,.7178-.1299,.3564,0,.6392,.084,.8477,.2529,.208,.168,.3125,.3984,.3125,.6924,0,.1797-.04,.3535-.1201,.5195-.0801,.167-.2319,.3584-.4551,.5752l-1.1899,1.1699h1.9248Z"/><path d="M142.1234,188.7002c-.2119-.1426-.377-.3486-.4951-.6172s-.1777-.584-.1777-.9473,.0596-.6797,.1777-.9473c.1182-.2686,.2832-.4746,.4951-.6182,.2114-.1436,.4521-.2148,.7222-.2148s.5112,.0713,.7227,.2148c.2119,.1436,.3774,.3496,.4976,.6182,.1201,.2676,.1802,.584,.1802,.9473s-.0601,.6787-.1802,.9473-.2856,.4746-.4976,.6172c-.2114,.1436-.4526,.2148-.7227,.2148s-.5107-.0713-.7222-.2148Zm1.2598-.2852c.1553-.1133,.2759-.2773,.3628-.4941,.0864-.2168,.1299-.4785,.1299-.7852s-.0435-.5684-.1299-.7852c-.0869-.2168-.2075-.3818-.3628-.4951-.1548-.1133-.334-.1699-.5376-.1699-.2031,0-.3823,.0566-.5371,.1699-.1553,.1133-.2759,.2783-.3628,.4951-.0864,.2168-.1299,.4785-.1299,.7852s.0435,.5684,.1299,.7852c.0869,.2168,.2075,.3809,.3628,.4941,.1548,.1143,.334,.1709,.5371,.1709,.2036,0,.3828-.0566,.5376-.1709Z"/><path d="M145.6859,185.3858v3.5h-.3599v-3.1807h-.8252v-.3193h1.1851Z"/><path d="M148.9457,185.3858v.2549l-1.4648,3.2451h-.3901l1.4399-3.1807h-1.7998v.6553h-.355v-.9746h2.5698Z"/></g><g><path d="M167.5727,188.5655v.3203h-2.4551v-.2549l1.4551-1.4258c.1836-.1797,.3076-.335,.3726-.4668s.0977-.2646,.0977-.3975c0-.207-.0708-.3682-.2124-.4824-.1421-.1152-.3442-.1729-.6079-.1729-.4097,0-.728,.1299-.9546,.3896l-.2554-.2197c.1367-.1602,.311-.2832,.5225-.3701,.2119-.0869,.4512-.1299,.7178-.1299,.3564,0,.6392,.084,.8477,.2529,.208,.168,.3125,.3984,.3125,.6924,0,.1797-.04,.3535-.1201,.5195-.0801,.167-.2319,.3584-.4551,.5752l-1.1899,1.1699h1.9248Z"/><path d="M168.6503,188.7002c-.2119-.1426-.377-.3486-.4951-.6172s-.1777-.584-.1777-.9473,.0596-.6797,.1777-.9473c.1182-.2686,.2832-.4746,.4951-.6182,.2114-.1436,.4521-.2148,.7222-.2148s.5112,.0713,.7227,.2148c.2119,.1436,.3774,.3496,.4976,.6182,.1201,.2676,.1802,.584,.1802,.9473s-.0601,.6787-.1802,.9473-.2856,.4746-.4976,.6172c-.2114,.1436-.4526,.2148-.7227,.2148s-.5107-.0713-.7222-.2148Zm1.2598-.2852c.1553-.1133,.2759-.2773,.3628-.4941,.0864-.2168,.1299-.4785,.1299-.7852s-.0435-.5684-.1299-.7852c-.0869-.2168-.2075-.3818-.3628-.4951-.1548-.1133-.334-.1699-.5376-.1699-.2031,0-.3823,.0566-.5371,.1699-.1553,.1133-.2759,.2783-.3628,.4951-.0864,.2168-.1299,.4785-.1299,.7852s.0435,.5684,.1299,.7852c.0869,.2168,.2075,.3809,.3628,.4941,.1548,.1143,.334,.1709,.5371,.1709,.2036,0,.3828-.0566,.5376-.1709Z"/><path d="M172.2128,185.3858v3.5h-.3599v-3.1807h-.8252v-.3193h1.1851Z"/><path d="M175.515,187.3809c.1182,.1465,.1777,.3232,.1777,.5293,0,.2041-.0552,.3809-.165,.5332-.1104,.1514-.2676,.2676-.4727,.3496s-.4458,.1221-.7227,.1221c-.4199,0-.75-.0898-.9897-.2695-.2402-.1797-.3599-.4248-.3599-.7354,0-.21,.0571-.3867,.1724-.5322,.1147-.1445,.2822-.2539,.5024-.3271-.1802-.0703-.3169-.1709-.4102-.3027s-.1396-.2871-.1396-.4678c0-.2832,.1104-.5078,.332-.6748s.5195-.25,.8926-.25c.2466,0,.4629,.0371,.6475,.1123,.1851,.0752,.3291,.1826,.4326,.3223,.1035,.1406,.1553,.3037,.1553,.4902,0,.1807-.0483,.3359-.145,.4678s-.2354,.2324-.415,.3027c.2197,.0732,.3892,.1826,.5073,.3301Zm-.4551,1.04c.1753-.127,.2627-.2988,.2627-.5156s-.0874-.3877-.2627-.5127c-.1748-.125-.4175-.1875-.7275-.1875-.3066,0-.5474,.0625-.7222,.1875-.1753,.125-.2627,.2959-.2627,.5127,0,.2207,.0864,.3926,.2603,.5176,.1729,.125,.4146,.1875,.7246,.1875s.5527-.0635,.7275-.1895Zm-1.3623-1.6699c.1533,.1133,.3647,.1699,.6348,.1699s.4824-.0566,.6377-.1699c.1548-.1133,.2324-.2656,.2324-.4551,0-.1973-.0791-.3516-.2373-.4658-.1587-.1133-.3691-.1699-.6328-.1699-.2666,0-.4775,.0566-.6323,.1699-.1548,.1143-.2324,.2676-.2324,.46,0,.1934,.0767,.3477,.23,.4609Z"/></g><g><path d="M194.5009,188.5655v.3203h-2.4551v-.2549l1.4551-1.4258c.1836-.1797,.3076-.335,.3726-.4668s.0977-.2646,.0977-.3975c0-.207-.0708-.3682-.2124-.4824-.1421-.1152-.3442-.1729-.6079-.1729-.4097,0-.728,.1299-.9546,.3896l-.2554-.2197c.1367-.1602,.311-.2832,.5225-.3701,.2119-.0869,.4512-.1299,.7178-.1299,.3564,0,.6392,.084,.8477,.2529,.208,.168,.3125,.3984,.3125,.6924,0,.1797-.04,.3535-.1201,.5195-.0801,.167-.2319,.3584-.4551,.5752l-1.1899,1.1699h1.9248Z"/><path d="M195.5785,188.7002c-.2119-.1426-.377-.3486-.4951-.6172s-.1777-.584-.1777-.9473,.0596-.6797,.1777-.9473c.1182-.2686,.2832-.4746,.4951-.6182,.2114-.1436,.4521-.2148,.7222-.2148s.5112,.0713,.7227,.2148c.2119,.1436,.3774,.3496,.4976,.6182,.1201,.2676,.1802,.584,.1802,.9473s-.0601,.6787-.1802,.9473-.2856,.4746-.4976,.6172c-.2114,.1436-.4526,.2148-.7227,.2148s-.5107-.0713-.7222-.2148Zm1.2598-.2852c.1553-.1133,.2759-.2773,.3628-.4941,.0864-.2168,.1299-.4785,.1299-.7852s-.0435-.5684-.1299-.7852c-.0869-.2168-.2075-.3818-.3628-.4951-.1548-.1133-.334-.1699-.5376-.1699-.2031,0-.3823,.0566-.5371,.1699-.1553,.1133-.2759,.2783-.3628,.4951-.0864,.2168-.1299,.4785-.1299,.7852s.0435,.5684,.1299,.7852c.0869,.2168,.2075,.3809,.3628,.4941,.1548,.1143,.334,.1709,.5371,.1709,.2036,0,.3828-.0566,.5376-.1709Z"/><path d="M199.141,185.3858v3.5h-.3599v-3.1807h-.8252v-.3193h1.1851Z"/><path d="M202.0858,185.8135c.2466,.3047,.3701,.7354,.3701,1.292,0,.3896-.0669,.7197-.2002,.9902-.1333,.2695-.3198,.4736-.5601,.6123-.2397,.1387-.52,.207-.8398,.207-.3467,0-.6235-.0625-.8301-.1895l.145-.29c.1665,.1104,.3931,.165,.6802,.165,.3862,0,.6899-.123,.9097-.3672,.2202-.2451,.3301-.6016,.3301-1.0684,0-.0859-.0049-.1816-.0151-.2842-.0864,.1895-.2246,.3369-.4146,.4424-.1904,.1045-.4087,.1572-.6553,.1572-.23,0-.4341-.043-.6123-.1299-.1787-.0869-.3179-.209-.4175-.3672-.1001-.1582-.1504-.3428-.1504-.5527,0-.2139,.0518-.4014,.1553-.5654,.103-.1631,.2456-.2891,.4272-.377,.1816-.0889,.3857-.1328,.6128-.1328,.4634,0,.8184,.1523,1.0649,.458Zm-.5576,1.2617c.1353-.0664,.2407-.1582,.3174-.2744,.0767-.1172,.1152-.2471,.1152-.3906,0-.1328-.0361-.2559-.1074-.3701-.0718-.1133-.1777-.2041-.3174-.2744-.1401-.0703-.3071-.1055-.5-.1055-.2534,0-.4595,.0693-.6177,.208s-.2378,.3223-.2378,.5527c0,.2295,.0796,.4131,.2378,.5498s.3726,.2051,.6426,.2051c.1763,0,.3325-.0332,.4673-.1006Z"/></g><g><path d="M220.7021,188.5655v.3203h-2.4551v-.2549l1.4551-1.4258c.1836-.1797,.3076-.335,.3726-.4668s.0977-.2646,.0977-.3975c0-.207-.0708-.3682-.2124-.4824-.1421-.1152-.3442-.1729-.6079-.1729-.4097,0-.728,.1299-.9546,.3896l-.2554-.2197c.1367-.1602,.311-.2832,.5225-.3701,.2119-.0869,.4512-.1299,.7178-.1299,.3564,0,.6392,.084,.8477,.2529,.208,.168,.3125,.3984,.3125,.6924,0,.1797-.04,.3535-.1201,.5195-.0801,.167-.2319,.3584-.4551,.5752l-1.1899,1.1699h1.9248Z"/><path d="M221.7797,188.7002c-.2119-.1426-.377-.3486-.4951-.6172s-.1777-.584-.1777-.9473,.0596-.6797,.1777-.9473c.1182-.2686,.2832-.4746,.4951-.6182,.2114-.1436,.4521-.2148,.7222-.2148s.5112,.0713,.7227,.2148c.2119,.1436,.3774,.3496,.4976,.6182,.1201,.2676,.1802,.584,.1802,.9473s-.0601,.6787-.1802,.9473-.2856,.4746-.4976,.6172c-.2114,.1436-.4526,.2148-.7227,.2148s-.5107-.0713-.7222-.2148Zm1.2598-.2852c.1553-.1133,.2759-.2773,.3628-.4941,.0864-.2168,.1299-.4785,.1299-.7852s-.0435-.5684-.1299-.7852c-.0869-.2168-.2075-.3818-.3628-.4951-.1548-.1133-.334-.1699-.5376-.1699-.2031,0-.3823,.0566-.5371,.1699-.1553,.1133-.2759,.2783-.3628,.4951-.0864,.2168-.1299,.4785-.1299,.7852s.0435,.5684,.1299,.7852c.0869,.2168,.2075,.3809,.3628,.4941,.1548,.1143,.334,.1709,.5371,.1709,.2036,0,.3828-.0566,.5376-.1709Z"/><path d="M226.7621,188.5655v.3203h-2.4551v-.2549l1.4551-1.4258c.1836-.1797,.3076-.335,.3726-.4668s.0977-.2646,.0977-.3975c0-.207-.0708-.3682-.2124-.4824-.1421-.1152-.3442-.1729-.6079-.1729-.4097,0-.728,.1299-.9546,.3896l-.2554-.2197c.1367-.1602,.311-.2832,.5225-.3701,.2119-.0869,.4512-.1299,.7178-.1299,.3564,0,.6392,.084,.8477,.2529,.208,.168,.3125,.3984,.3125,.6924,0,.1797-.04,.3535-.1201,.5195-.0801,.167-.2319,.3584-.4551,.5752l-1.1899,1.1699h1.9248Z"/><path d="M227.8397,188.7002c-.2119-.1426-.377-.3486-.4951-.6172s-.1777-.584-.1777-.9473,.0596-.6797,.1777-.9473c.1182-.2686,.2832-.4746,.4951-.6182,.2114-.1436,.4521-.2148,.7222-.2148s.5112,.0713,.7227,.2148c.2119,.1436,.3774,.3496,.4976,.6182,.1201,.2676,.1802,.584,.1802,.9473s-.0601,.6787-.1802,.9473-.2856,.4746-.4976,.6172c-.2114,.1436-.4526,.2148-.7227,.2148s-.5107-.0713-.7222-.2148Zm1.2598-.2852c.1553-.1133,.2759-.2773,.3628-.4941,.0864-.2168,.1299-.4785,.1299-.7852s-.0435-.5684-.1299-.7852c-.0869-.2168-.2075-.3818-.3628-.4951-.1548-.1133-.334-.1699-.5376-.1699-.2031,0-.3823,.0566-.5371,.1699-.1553,.1133-.2759,.2783-.3628,.4951-.0864,.2168-.1299,.4785-.1299,.7852s.0435,.5684,.1299,.7852c.0869,.2168,.2075,.3809,.3628,.4941,.1548,.1143,.334,.1709,.5371,.1709,.2036,0,.3828-.0566,.5376-.1709Z"/></g><g><path d="M248.4276,188.5655v.3203h-2.4551v-.2549l1.4551-1.4258c.1836-.1797,.3076-.335,.3726-.4668s.0977-.2646,.0977-.3975c0-.207-.0708-.3682-.2124-.4824-.1421-.1152-.3442-.1729-.6079-.1729-.4097,0-.728,.1299-.9546,.3896l-.2554-.2197c.1367-.1602,.311-.2832,.5225-.3701,.2119-.0869,.4512-.1299,.7178-.1299,.3564,0,.6392,.084,.8477,.2529,.208,.168,.3125,.3984,.3125,.6924,0,.1797-.04,.3535-.1201,.5195-.0801,.167-.2319,.3584-.4551,.5752l-1.1899,1.1699h1.9248Z"/><path d="M249.5004,188.7002c-.2119-.1426-.377-.3486-.4951-.6172s-.1777-.584-.1777-.9473,.0596-.6797,.1777-.9473c.1182-.2686,.2832-.4746,.4951-.6182,.2114-.1436,.4521-.2148,.7222-.2148s.5112,.0713,.7227,.2148c.2119,.1436,.3774,.3496,.4976,.6182,.1201,.2676,.1802,.584,.1802,.9473s-.0601,.6787-.1802,.9473-.2856,.4746-.4976,.6172c-.2114,.1436-.4526,.2148-.7227,.2148s-.5107-.0713-.7222-.2148Zm1.2598-.2852c.1553-.1133,.2759-.2773,.3628-.4941,.0864-.2168,.1299-.4785,.1299-.7852s-.0435-.5684-.1299-.7852c-.0869-.2168-.2075-.3818-.3628-.4951-.1548-.1133-.334-.1699-.5376-.1699-.2031,0-.3823,.0566-.5371,.1699-.1553,.1133-.2759,.2783-.3628,.4951-.0864,.2168-.1299,.4785-.1299,.7852s.0435,.5684,.1299,.7852c.0869,.2168,.2075,.3809,.3628,.4941,.1548,.1143,.334,.1709,.5371,.1709,.2036,0,.3828-.0566,.5376-.1709Z"/><path d="M254.4774,188.5655v.3203h-2.4551v-.2549l1.4551-1.4258c.1836-.1797,.3076-.335,.3726-.4668s.0977-.2646,.0977-.3975c0-.207-.0708-.3682-.2124-.4824-.1421-.1152-.3442-.1729-.6079-.1729-.4097,0-.728,.1299-.9546,.3896l-.2554-.2197c.1367-.1602,.311-.2832,.5225-.3701,.2119-.0869,.4512-.1299,.7178-.1299,.3564,0,.6392,.084,.8477,.2529,.208,.168,.3125,.3984,.3125,.6924,0,.1797-.04,.3535-.1201,.5195-.0801,.167-.2319,.3584-.4551,.5752l-1.1899,1.1699h1.9248Z"/><path d="M255.8476,185.3858v3.5h-.3599v-3.1807h-.8252v-.3193h1.1851Z"/></g></svg>