<?xml version="1.0" encoding="UTF-8"?><svg id="Layer_1" xmlns="http://www.w3.org/2000/svg" viewBox="0 0 281.5395 190.691"><defs><style>.cls-1{stroke-dasharray:0 0 0 2;}.cls-1,.cls-2,.cls-3{stroke-linecap:round;}.cls-1,.cls-2,.cls-3,.cls-4,.cls-5{fill:none;}.cls-1,.cls-3{opacity:.5;stroke:#858585;stroke-linejoin:round;}.cls-1,.cls-4,.cls-5{stroke-width:.5px;}.cls-6{fill:#fff;}.cls-7{fill:#858585;}.cls-8{fill:#e30510;}.cls-9{fill:#585857;}.cls-2{stroke:#000;stroke-linejoin:bevel;stroke-width:.3px;}.cls-3{stroke-width:.25px;}.cls-4{stroke:#222221;}.cls-10{font-family:Montserrat-Regular, Montserrat;font-size:5.5557px;}.cls-5{stroke:#e30510;stroke-miterlimit:10;}</style></defs><g><polyline class="cls-4" points="2.8105 71.752 20.4245 92.7853 29.2315 105.4787 38.0386 146.0605 46.8456 143.3378 55.6526 148.8809 64.4597 150.5639 73.2667 99.2581 82.0729 94.2946 90.8799 89.4656 99.6869 86.1187 108.494 85.9799 117.301 77.1214 126.108 78.8044 134.915 63.1658 143.7221 39.3618 152.5291 53.7634 161.3361 61.1118 170.1432 73.1627 178.9502 88.8013 187.7572 81.576 196.5642 79.3491 205.3713 70.4409 214.1783 61.4828 222.9845 96.5032 231.7915 86.0297 240.5985 83.8028 249.4055 87.1191 258.2126 65.4424 267.0196 84.805 275.8266 80.5363"/><line class="cls-3" x1="29.2559" y1="184.0916" x2="29.2559" y2="4.9818"/><line class="cls-3" x1="64.5168" y1="184.0916" x2="64.5168" y2="4.9818"/><line class="cls-3" x1="99.777" y1="184.0916" x2="99.777" y2="4.9818"/><line class="cls-3" x1="135.0379" y1="184.0916" x2="135.0379" y2="4.9818"/><line class="cls-3" x1="170.2986" y1="184.0916" x2="170.2986" y2="4.9818"/><line class="cls-3" x1="205.559" y1="184.0916" x2="205.559" y2="4.9818"/><line class="cls-3" x1="240.8198" y1="184.0916" x2="240.8198" y2="4.9818"/><line class="cls-3" x1="276.0807" y1="184.0916" x2="276.0807" y2="4.9818"/><rect class="cls-6" x="1.1191" y="157.3802" width="278.7094" height="17.0824"/><g><path class="cls-7" d="M1.38,169.2635h3.667v.377H1.7159v.8643h-.3359v-1.2412Z"/><path class="cls-7" d="M3.8214,167.1316v.6289h1.2256v.3711H2.2921v-.3711h1.21v-.6338l-1.21-.9697v-.4033l1.335,1.085,1.4199-1.1631v.4395l-1.2256,1.0166Z"/><path class="cls-7" d="M4.298,162.7742c.2412,0,.4258,.0889,.5547,.2666,.1299,.1787,.1943,.4434,.1943,.7959v1.252H2.2921v-1.2148c0-.3145,.0605-.5605,.1826-.7383,.123-.1787,.2969-.2676,.5244-.2676,.1494,0,.2783,.041,.3848,.123s.1855,.1963,.2383,.3438c.0869-.374,.3125-.5605,.6758-.5605Zm-.7803,1.9531v-.8271c0-.2129-.04-.376-.1211-.4902-.0801-.1133-.1973-.1699-.3506-.1699s-.2686,.0566-.3457,.1699c-.0771,.1143-.1152,.2773-.1152,.4902v.8271h.9326Zm1.1201-1.4082c-.0762-.1191-.1973-.1787-.3613-.1787s-.2852,.0547-.3633,.1621c-.0791,.1084-.1182,.2803-.1182,.5137v.9111h.958v-.874c0-.2383-.0381-.416-.1152-.5342Z"/><path class="cls-7" d="M4.9894,162.075c-.0557,.0537-.124,.0811-.2041,.0811-.0811,0-.1475-.0273-.2021-.0811-.0537-.0547-.0811-.1201-.0811-.1973,0-.0762,.0273-.1426,.0811-.1982,.0547-.0557,.1211-.084,.2021-.084,.0801,0,.1484,.0283,.2041,.084s.084,.1221,.084,.1982c0,.0771-.0283,.1426-.084,.1973Z"/></g><g><path class="cls-7" d="M13.4845,168.7283h.335v2.5723h-.2666l-1.4932-1.5244c-.1885-.1914-.3516-.3223-.4893-.3896-.1377-.0684-.2773-.1025-.417-.1025-.2158,0-.3848,.0742-.5049,.2227-.1211,.1484-.1807,.3604-.1807,.6367,0,.4287,.1357,.7627,.4082,1l-.2305,.2666c-.168-.1426-.2969-.3252-.3877-.5469s-.1357-.4727-.1357-.752c0-.373,.0879-.6689,.2646-.8877,.1758-.2178,.418-.3271,.7246-.3271,.1885,0,.3701,.042,.5449,.126s.376,.2422,.6025,.4766l1.2256,1.2461v-2.0166Z"/><path class="cls-7" d="M12.5939,167.0008v.6289h1.2256v.3711h-2.7549v-.3711h1.21v-.6338l-1.21-.9697v-.4033l1.3359,1.085,1.4189-1.1631v.4395l-1.2256,1.0166Z"/><path class="cls-7" d="M13.0704,162.6434c.2412,0,.4268,.0889,.5557,.2666,.1289,.1787,.1934,.4434,.1934,.7959v1.252h-2.7549v-1.2148c0-.3145,.0615-.5605,.1836-.7383,.1221-.1787,.2969-.2676,.5234-.2676,.1504,0,.2783,.041,.3848,.123,.1074,.082,.1865,.1963,.2383,.3438,.0879-.374,.3125-.5605,.6758-.5605Zm-.7803,1.9531v-.8271c0-.2129-.04-.376-.1201-.4902-.0801-.1133-.1973-.1699-.3516-.1699-.1533,0-.2686,.0566-.3457,.1699-.0762,.1143-.1152,.2773-.1152,.4902v.8271h.9326Zm1.1211-1.4082c-.0771-.1191-.1973-.1787-.3613-.1787s-.2852,.0547-.3643,.1621c-.0781,.1084-.1182,.2803-.1182,.5137v.9111h.959v-.874c0-.2383-.0381-.416-.1152-.5342Z"/><path class="cls-7" d="M13.7618,161.9441c-.0557,.0537-.124,.0811-.2041,.0811s-.1475-.0273-.2012-.0811c-.0547-.0547-.082-.1201-.082-.1973,0-.0762,.0273-.1426,.082-.1982,.0537-.0557,.1211-.084,.2012-.084s.1484,.0283,.2041,.084,.084,.1221,.084,.1982c0,.0771-.0283,.1426-.084,.1973Z"/></g><g><path class="cls-7" d="M20.8097,169.3231c.1865-.2002,.4297-.3008,.7305-.3008,.209,0,.3955,.0508,.5576,.1514,.1621,.1016,.291,.252,.3848,.4512,.0947,.1982,.1416,.4414,.1416,.7275,0,.2656-.043,.5156-.1279,.752-.0859,.2354-.2002,.4248-.3438,.5684l-.2979-.1836c.125-.1221,.2275-.2842,.3057-.4873,.0791-.2021,.1182-.4189,.1182-.6494,0-.2998-.0654-.5322-.1963-.6963s-.3115-.2461-.542-.2461c-.2275,0-.4053,.082-.5342,.2461-.1299,.1641-.1943,.4121-.1943,.7432v.2627h-.2773l-1.2725-1.0166v1.875h-.3359v-2.3564h.2676l1.3037,1.0371c.0215-.3848,.125-.6768,.3125-.8779Z"/><path class="cls-7" d="M21.3673,167.2361v.6289h1.2256v.3711h-2.7549v-.3711h1.21v-.6338l-1.21-.9697v-.4033l1.335,1.085,1.4199-1.1631v.4395l-1.2256,1.0166Z"/><path class="cls-7" d="M21.8439,162.8787c.2412,0,.4258,.0889,.5547,.2666,.1299,.1787,.1943,.4434,.1943,.7959v1.252h-2.7549v-1.2148c0-.3145,.0605-.5605,.1826-.7383,.123-.1787,.2969-.2676,.5244-.2676,.1494,0,.2783,.041,.3848,.123s.1855,.1963,.2383,.3438c.0869-.374,.3125-.5605,.6758-.5605Zm-.7803,1.9531v-.8271c0-.2129-.04-.376-.1211-.4902-.0801-.1133-.1973-.1699-.3506-.1699s-.2686,.0566-.3457,.1699c-.0771,.1143-.1152,.2773-.1152,.4902v.8271h.9326Zm1.1201-1.4082c-.0762-.1191-.1973-.1787-.3613-.1787s-.2852,.0547-.3633,.1621c-.0791,.1084-.1182,.2803-.1182,.5137v.9111h.958v-.874c0-.2383-.0381-.416-.1152-.5342Z"/><path class="cls-7" d="M22.5353,162.1795c-.0557,.0537-.124,.0811-.2041,.0811-.0811,0-.1475-.0273-.2021-.0811-.0537-.0547-.0811-.1201-.0811-.1973,0-.0762,.0273-.1426,.0811-.1982,.0547-.0557,.1211-.084,.2021-.084,.0801,0,.1484,.0283,.2041,.084s.084,.1221,.084,.1982c0,.0771-.0283,.1426-.084,.1973Z"/></g><g><path class="cls-7" d="M30.4025,168.4305v.7334h.9639v.377h-.9639v2.0684h-.2725l-2.4307-1.9424v-.4189l2.3682,1.875v-1.5928h-.8486v-.3662h.8486v-.7334h.335Z"/><path class="cls-7" d="M30.1407,166.8279v.6289h1.2256v.3711h-2.7549v-.3711h1.21v-.6338l-1.21-.9697v-.4033l1.335,1.085,1.4199-1.1631v.4395l-1.2256,1.0166Z"/><path class="cls-7" d="M30.6173,162.4705c.2412,0,.4258,.0889,.5547,.2666,.1299,.1787,.1943,.4434,.1943,.7959v1.252h-2.7549v-1.2148c0-.3145,.0605-.5605,.1826-.7383,.123-.1787,.2969-.2676,.5244-.2676,.1494,0,.2783,.041,.3848,.123s.1855,.1963,.2383,.3438c.0869-.374,.3125-.5605,.6758-.5605Zm-.7803,1.9531v-.8271c0-.2129-.04-.376-.1211-.4902-.0801-.1133-.1973-.1699-.3506-.1699s-.2686,.0566-.3457,.1699c-.0771,.1143-.1152,.2773-.1152,.4902v.8271h.9326Zm1.1201-1.4082c-.0762-.1191-.1973-.1787-.3613-.1787s-.2852,.0547-.3633,.1621c-.0791,.1084-.1182,.2803-.1182,.5137v.9111h.958v-.874c0-.2383-.0381-.416-.1152-.5342Z"/><path class="cls-7" d="M31.3087,161.7713c-.0557,.0537-.124,.0811-.2041,.0811-.0811,0-.1475-.0273-.2021-.0811-.0537-.0547-.0811-.1201-.0811-.1973,0-.0762,.0273-.1426,.0811-.1982,.0547-.0557,.1211-.084,.2021-.084,.0801,0,.1484,.0283,.2041,.084s.084,.1221,.084,.1982c0,.0771-.0283,.1426-.084,.1973Z"/></g><g><path class="cls-7" d="M36.4718,169.2635h3.667v.377h-3.3311v.8643h-.3359v-1.2412Z"/><path class="cls-7" d="M38.9132,167.1316v.6289h1.2256v.3711h-2.7549v-.3711h1.21v-.6338l-1.21-.9697v-.4033l1.335,1.085,1.4199-1.1631v.4395l-1.2256,1.0166Z"/><path class="cls-7" d="M39.3898,162.7742c.2412,0,.4258,.0889,.5547,.2666,.1299,.1787,.1943,.4434,.1943,.7959v1.252h-2.7549v-1.2148c0-.3145,.0605-.5605,.1826-.7383,.123-.1787,.2969-.2676,.5244-.2676,.1494,0,.2783,.041,.3848,.123s.1855,.1963,.2383,.3438c.0869-.374,.3125-.5605,.6758-.5605Zm-.7803,1.9531v-.8271c0-.2129-.04-.376-.1211-.4902-.0801-.1133-.1973-.1699-.3506-.1699s-.2686,.0566-.3457,.1699c-.0771,.1143-.1152,.2773-.1152,.4902v.8271h.9326Zm1.1201-1.4082c-.0762-.1191-.1973-.1787-.3613-.1787s-.2852,.0547-.3633,.1621c-.0791,.1084-.1182,.2803-.1182,.5137v.9111h.958v-.874c0-.2383-.0381-.416-.1152-.5342Z"/><path class="cls-7" d="M40.0812,162.075c-.0557,.0537-.124,.0811-.2041,.0811-.0811,0-.1475-.0273-.2021-.0811-.0537-.0547-.0811-.1201-.0811-.1973,0-.0762,.0273-.1426,.0811-.1982,.0547-.0557,.1211-.084,.2021-.084,.0801,0,.1484,.0283,.2041,.084s.084,.1221,.084,.1982c0,.0771-.0283,.1426-.084,.1973Z"/></g><g><path class="cls-7" d="M48.5763,168.7283h.3359v2.5723h-.2676l-1.4922-1.5244c-.1885-.1914-.3525-.3223-.4902-.3896-.1377-.0684-.2764-.1025-.416-.1025-.2168,0-.3848,.0742-.5059,.2227-.1201,.1484-.1807,.3604-.1807,.6367,0,.4287,.1367,.7627,.4092,1l-.2305,.2666c-.168-.1426-.2969-.3252-.3877-.5469s-.1367-.4727-.1367-.752c0-.373,.0889-.6689,.2646-.8877,.1768-.2178,.418-.3271,.7256-.3271,.1885,0,.3701,.042,.5449,.126s.375,.2422,.6016,.4766l1.2256,1.2461v-2.0166Z"/><path class="cls-7" d="M47.6866,167.0008v.6289h1.2256v.3711h-2.7549v-.3711h1.21v-.6338l-1.21-.9697v-.4033l1.335,1.085,1.4199-1.1631v.4395l-1.2256,1.0166Z"/><path class="cls-7" d="M48.1632,162.6434c.2412,0,.4258,.0889,.5547,.2666,.1299,.1787,.1943,.4434,.1943,.7959v1.252h-2.7549v-1.2148c0-.3145,.0605-.5605,.1826-.7383,.123-.1787,.2969-.2676,.5244-.2676,.1494,0,.2783,.041,.3848,.123s.1855,.1963,.2383,.3438c.0869-.374,.3125-.5605,.6758-.5605Zm-.7803,1.9531v-.8271c0-.2129-.04-.376-.1211-.4902-.0801-.1133-.1973-.1699-.3506-.1699s-.2686,.0566-.3457,.1699c-.0771,.1143-.1152,.2773-.1152,.4902v.8271h.9326Zm1.1201-1.4082c-.0762-.1191-.1973-.1787-.3613-.1787s-.2852,.0547-.3633,.1621c-.0791,.1084-.1182,.2803-.1182,.5137v.9111h.958v-.874c0-.2383-.0381-.416-.1152-.5342Z"/><path class="cls-7" d="M48.8546,161.9441c-.0557,.0537-.124,.0811-.2041,.0811-.0811,0-.1475-.0273-.2021-.0811-.0537-.0547-.0811-.1201-.0811-.1973,0-.0762,.0273-.1426,.0811-.1982,.0547-.0557,.1211-.084,.2021-.084,.0801,0,.1484,.0283,.2041,.084s.084,.1221,.084,.1982c0,.0771-.0283,.1426-.084,.1973Z"/></g><g><path class="cls-7" d="M55.9015,169.3231c.1865-.2002,.4297-.3008,.7305-.3008,.209,0,.3955,.0508,.5576,.1514,.1621,.1016,.291,.252,.3848,.4512,.0947,.1982,.1416,.4414,.1416,.7275,0,.2656-.043,.5156-.1279,.752-.0859,.2354-.2002,.4248-.3438,.5684l-.2979-.1836c.125-.1221,.2275-.2842,.3057-.4873,.0791-.2021,.1182-.4189,.1182-.6494,0-.2998-.0654-.5322-.1963-.6963s-.3115-.2461-.542-.2461c-.2275,0-.4053,.082-.5342,.2461-.1299,.1641-.1943,.4121-.1943,.7432v.2627h-.2773l-1.2725-1.0166v1.875h-.3359v-2.3564h.2676l1.3037,1.0371c.0215-.3848,.125-.6768,.3125-.8779Z"/><path class="cls-7" d="M56.4591,167.2361v.6289h1.2256v.3711h-2.7549v-.3711h1.21v-.6338l-1.21-.9697v-.4033l1.335,1.085,1.4199-1.1631v.4395l-1.2256,1.0166Z"/><path class="cls-7" d="M56.9357,162.8787c.2412,0,.4258,.0889,.5547,.2666,.1299,.1787,.1943,.4434,.1943,.7959v1.252h-2.7549v-1.2148c0-.3145,.0605-.5605,.1826-.7383,.123-.1787,.2969-.2676,.5244-.2676,.1494,0,.2783,.041,.3848,.123s.1855,.1963,.2383,.3438c.0869-.374,.3125-.5605,.6758-.5605Zm-.7803,1.9531v-.8271c0-.2129-.04-.376-.1211-.4902-.0801-.1133-.1973-.1699-.3506-.1699s-.2686,.0566-.3457,.1699c-.0771,.1143-.1152,.2773-.1152,.4902v.8271h.9326Zm1.1201-1.4082c-.0762-.1191-.1973-.1787-.3613-.1787s-.2852,.0547-.3633,.1621c-.0791,.1084-.1182,.2803-.1182,.5137v.9111h.958v-.874c0-.2383-.0381-.416-.1152-.5342Z"/><path class="cls-7" d="M57.6271,162.1795c-.0557,.0537-.124,.0811-.2041,.0811-.0811,0-.1475-.0273-.2021-.0811-.0537-.0547-.0811-.1201-.0811-.1973,0-.0762,.0273-.1426,.0811-.1982,.0547-.0557,.1211-.084,.2021-.084,.0801,0,.1484,.0283,.2041,.084s.084,.1221,.084,.1982c0,.0771-.0283,.1426-.084,.1973Z"/></g><g><path class="cls-7" d="M65.4943,168.4305v.7334h.9639v.377h-.9639v2.0684h-.2725l-2.4307-1.9424v-.4189l2.3682,1.875v-1.5928h-.8486v-.3662h.8486v-.7334h.335Z"/><path class="cls-7" d="M65.2325,166.8279v.6289h1.2256v.3711h-2.7549v-.3711h1.21v-.6338l-1.21-.9697v-.4033l1.335,1.085,1.4199-1.1631v.4395l-1.2256,1.0166Z"/><path class="cls-7" d="M65.7091,162.4705c.2412,0,.4258,.0889,.5547,.2666,.1299,.1787,.1943,.4434,.1943,.7959v1.252h-2.7549v-1.2148c0-.3145,.0605-.5605,.1826-.7383,.123-.1787,.2969-.2676,.5244-.2676,.1494,0,.2783,.041,.3848,.123s.1855,.1963,.2383,.3438c.0869-.374,.3125-.5605,.6758-.5605Zm-.7803,1.9531v-.8271c0-.2129-.04-.376-.1211-.4902-.0801-.1133-.1973-.1699-.3506-.1699s-.2686,.0566-.3457,.1699c-.0771,.1143-.1152,.2773-.1152,.4902v.8271h.9326Zm1.1201-1.4082c-.0762-.1191-.1973-.1787-.3613-.1787s-.2852,.0547-.3633,.1621c-.0791,.1084-.1182,.2803-.1182,.5137v.9111h.958v-.874c0-.2383-.0381-.416-.1152-.5342Z"/><path class="cls-7" d="M66.4005,161.7713c-.0557,.0537-.124,.0811-.2041,.0811-.0811,0-.1475-.0273-.2021-.0811-.0537-.0547-.0811-.1201-.0811-.1973,0-.0762,.0273-.1426,.0811-.1982,.0547-.0557,.1211-.084,.2021-.084,.0801,0,.1484,.0283,.2041,.084s.084,.1221,.084,.1982c0,.0771-.0283,.1426-.084,.1973Z"/></g><g><path class="cls-7" d="M71.5646,169.2635h3.666v.377h-3.3311v.8643h-.335v-1.2412Z"/><path class="cls-7" d="M74.005,167.1316v.6289h1.2256v.3711h-2.7549v-.3711h1.21v-.6338l-1.21-.9697v-.4033l1.3359,1.085,1.4189-1.1631v.4395l-1.2256,1.0166Z"/><path class="cls-7" d="M74.4816,162.7742c.2412,0,.4268,.0889,.5557,.2666,.1289,.1787,.1934,.4434,.1934,.7959v1.252h-2.7549v-1.2148c0-.3145,.0615-.5605,.1836-.7383,.1221-.1787,.2969-.2676,.5234-.2676,.1504,0,.2783,.041,.3848,.123,.1074,.082,.1865,.1963,.2383,.3438,.0879-.374,.3125-.5605,.6758-.5605Zm-.7803,1.9531v-.8271c0-.2129-.04-.376-.1201-.4902-.0801-.1133-.1973-.1699-.3516-.1699-.1533,0-.2686,.0566-.3457,.1699-.0762,.1143-.1152,.2773-.1152,.4902v.8271h.9326Zm1.1211-1.4082c-.0771-.1191-.1973-.1787-.3613-.1787s-.2852,.0547-.3643,.1621c-.0781,.1084-.1182,.2803-.1182,.5137v.9111h.959v-.874c0-.2383-.0381-.416-.1152-.5342Z"/><path class="cls-7" d="M75.173,162.075c-.0557,.0537-.124,.0811-.2041,.0811s-.1475-.0273-.2012-.0811c-.0547-.0547-.082-.1201-.082-.1973,0-.0762,.0273-.1426,.082-.1982,.0537-.0557,.1211-.084,.2012-.084s.1484,.0283,.2041,.084,.084,.1221,.084,.1982c0,.0771-.0283,.1426-.084,.1973Z"/></g><g><path class="cls-7" d="M83.6681,168.7283h.3359v2.5723h-.2676l-1.4922-1.5244c-.1885-.1914-.3525-.3223-.4902-.3896-.1377-.0684-.2764-.1025-.416-.1025-.2168,0-.3848,.0742-.5059,.2227-.1201,.1484-.1807,.3604-.1807,.6367,0,.4287,.1367,.7627,.4092,1l-.2305,.2666c-.168-.1426-.2969-.3252-.3877-.5469s-.1367-.4727-.1367-.752c0-.373,.0889-.6689,.2646-.8877,.1768-.2178,.418-.3271,.7256-.3271,.1885,0,.3701,.042,.5449,.126s.375,.2422,.6016,.4766l1.2256,1.2461v-2.0166Z"/><path class="cls-7" d="M82.7784,167.0008v.6289h1.2256v.3711h-2.7549v-.3711h1.21v-.6338l-1.21-.9697v-.4033l1.335,1.085,1.4199-1.1631v.4395l-1.2256,1.0166Z"/><path class="cls-7" d="M83.255,162.6434c.2412,0,.4258,.0889,.5547,.2666,.1299,.1787,.1943,.4434,.1943,.7959v1.252h-2.7549v-1.2148c0-.3145,.0605-.5605,.1826-.7383,.123-.1787,.2969-.2676,.5244-.2676,.1494,0,.2783,.041,.3848,.123s.1855,.1963,.2383,.3438c.0869-.374,.3125-.5605,.6758-.5605Zm-.7803,1.9531v-.8271c0-.2129-.04-.376-.1211-.4902-.0801-.1133-.1973-.1699-.3506-.1699s-.2686,.0566-.3457,.1699c-.0771,.1143-.1152,.2773-.1152,.4902v.8271h.9326Zm1.1201-1.4082c-.0762-.1191-.1973-.1787-.3613-.1787s-.2852,.0547-.3633,.1621c-.0791,.1084-.1182,.2803-.1182,.5137v.9111h.958v-.874c0-.2383-.0381-.416-.1152-.5342Z"/><path class="cls-7" d="M83.9464,161.9441c-.0557,.0537-.124,.0811-.2041,.0811-.0811,0-.1475-.0273-.2021-.0811-.0537-.0547-.0811-.1201-.0811-.1973,0-.0762,.0273-.1426,.0811-.1982,.0547-.0557,.1211-.084,.2021-.084,.0801,0,.1484,.0283,.2041,.084s.084,.1221,.084,.1982c0,.0771-.0283,.1426-.084,.1973Z"/></g><g><path class="cls-7" d="M90.9933,169.3221c.1865-.2002,.4307-.3008,.7305-.3008,.21,0,.3955,.0508,.5576,.1514,.1631,.1016,.291,.252,.3857,.4512,.0938,.1982,.1406,.4414,.1406,.7275,0,.2656-.042,.5156-.1279,.752-.0859,.2354-.2002,.4248-.3428,.5684l-.2988-.1836c.126-.1221,.2275-.2842,.3066-.4873,.0781-.2021,.1172-.4189,.1172-.6494,0-.2998-.0654-.5322-.1963-.6963s-.3115-.2461-.542-.2461c-.2266,0-.4053,.082-.5342,.2461s-.1934,.4121-.1934,.7432v.2627h-.2783l-1.2725-1.0166v1.875h-.335v-2.3564h.2666l1.3047,1.0371c.0205-.3848,.125-.6768,.3115-.8779Z"/><path class="cls-7" d="M91.5509,167.2352v.6289h1.2256v.3711h-2.7549v-.3711h1.21v-.6338l-1.21-.9697v-.4033l1.3359,1.085,1.4189-1.1631v.4395l-1.2256,1.0166Z"/><path class="cls-7" d="M92.0275,162.8777c.2412,0,.4268,.0889,.5557,.2666,.1289,.1787,.1934,.4434,.1934,.7959v1.252h-2.7549v-1.2148c0-.3145,.0615-.5605,.1836-.7383,.1221-.1787,.2969-.2676,.5234-.2676,.1504,0,.2783,.041,.3848,.123,.1074,.082,.1865,.1963,.2383,.3438,.0879-.374,.3125-.5605,.6758-.5605Zm-.7803,1.9531v-.8271c0-.2129-.04-.376-.1201-.4902-.0801-.1133-.1973-.1699-.3516-.1699-.1533,0-.2686,.0566-.3457,.1699-.0762,.1143-.1152,.2773-.1152,.4902v.8271h.9326Zm1.1211-1.4082c-.0771-.1191-.1973-.1787-.3613-.1787s-.2852,.0547-.3643,.1621c-.0781,.1084-.1182,.2803-.1182,.5137v.9111h.959v-.874c0-.2383-.0381-.416-.1152-.5342Z"/><path class="cls-7" d="M92.7189,162.1785c-.0557,.0537-.124,.0811-.2041,.0811s-.1475-.0273-.2012-.0811c-.0547-.0547-.082-.1201-.082-.1973,0-.0762,.0273-.1426,.082-.1982,.0537-.0557,.1211-.084,.2012-.084s.1484,.0283,.2041,.084,.084,.1221,.084,.1982c0,.0771-.0283,.1426-.084,.1973Z"/></g><g><path class="cls-7" d="M100.5861,168.4305v.7334h.9639v.377h-.9639v2.0684h-.2725l-2.4307-1.9424v-.4189l2.3682,1.875v-1.5928h-.8486v-.3662h.8486v-.7334h.335Z"/><path class="cls-7" d="M100.3243,166.8279v.6289h1.2256v.3711h-2.7549v-.3711h1.21v-.6338l-1.21-.9697v-.4033l1.335,1.085,1.4199-1.1631v.4395l-1.2256,1.0166Z"/><path class="cls-7" d="M100.8009,162.4705c.2412,0,.4258,.0889,.5547,.2666,.1299,.1787,.1943,.4434,.1943,.7959v1.252h-2.7549v-1.2148c0-.3145,.0605-.5605,.1826-.7383,.123-.1787,.2969-.2676,.5244-.2676,.1494,0,.2783,.041,.3848,.123s.1855,.1963,.2383,.3438c.0869-.374,.3125-.5605,.6758-.5605Zm-.7803,1.9531v-.8271c0-.2129-.04-.376-.1211-.4902-.0801-.1133-.1973-.1699-.3506-.1699s-.2686,.0566-.3457,.1699c-.0771,.1143-.1152,.2773-.1152,.4902v.8271h.9326Zm1.1201-1.4082c-.0762-.1191-.1973-.1787-.3613-.1787s-.2852,.0547-.3633,.1621c-.0791,.1084-.1182,.2803-.1182,.5137v.9111h.958v-.874c0-.2383-.0381-.416-.1152-.5342Z"/><path class="cls-7" d="M101.4923,161.7713c-.0557,.0537-.124,.0811-.2041,.0811-.0811,0-.1475-.0273-.2021-.0811-.0537-.0547-.0811-.1201-.0811-.1973,0-.0762,.0273-.1426,.0811-.1982,.0547-.0557,.1211-.084,.2021-.084,.0801,0,.1484,.0283,.2041,.084s.084,.1221,.084,.1982c0,.0771-.0283,.1426-.084,.1973Z"/></g><g><path class="cls-7" d="M106.6564,169.2635h3.666v.377h-3.3311v.8643h-.335v-1.2412Z"/><path class="cls-7" d="M109.0968,167.1316v.6289h1.2256v.3711h-2.7549v-.3711h1.21v-.6338l-1.21-.9697v-.4033l1.3359,1.085,1.4189-1.1631v.4395l-1.2256,1.0166Z"/><path class="cls-7" d="M109.5734,162.7742c.2412,0,.4268,.0889,.5557,.2666,.1289,.1787,.1934,.4434,.1934,.7959v1.252h-2.7549v-1.2148c0-.3145,.0615-.5605,.1836-.7383,.1221-.1787,.2969-.2676,.5234-.2676,.1504,0,.2783,.041,.3848,.123,.1074,.082,.1865,.1963,.2383,.3438,.0879-.374,.3125-.5605,.6758-.5605Zm-.7803,1.9531v-.8271c0-.2129-.04-.376-.1201-.4902-.0801-.1133-.1973-.1699-.3516-.1699-.1533,0-.2686,.0566-.3457,.1699-.0762,.1143-.1152,.2773-.1152,.4902v.8271h.9326Zm1.1211-1.4082c-.0771-.1191-.1973-.1787-.3613-.1787s-.2852,.0547-.3643,.1621c-.0781,.1084-.1182,.2803-.1182,.5137v.9111h.959v-.874c0-.2383-.0381-.416-.1152-.5342Z"/><path class="cls-7" d="M110.2648,162.075c-.0557,.0537-.124,.0811-.2041,.0811s-.1475-.0273-.2012-.0811c-.0547-.0547-.082-.1201-.082-.1973,0-.0762,.0273-.1426,.082-.1982,.0537-.0557,.1211-.084,.2012-.084s.1484,.0283,.2041,.084,.084,.1221,.084,.1982c0,.0771-.0283,.1426-.084,.1973Z"/></g><g><path class="cls-7" d="M118.7599,168.7283h.3359v2.5723h-.2676l-1.4922-1.5244c-.1885-.1914-.3525-.3223-.4902-.3896-.1377-.0684-.2764-.1025-.416-.1025-.2168,0-.3848,.0742-.5059,.2227-.1201,.1484-.1807,.3604-.1807,.6367,0,.4287,.1367,.7627,.4092,1l-.2305,.2666c-.168-.1426-.2969-.3252-.3877-.5469s-.1367-.4727-.1367-.752c0-.373,.0889-.6689,.2646-.8877,.1768-.2178,.418-.3271,.7256-.3271,.1885,0,.3701,.042,.5449,.126s.375,.2422,.6016,.4766l1.2256,1.2461v-2.0166Z"/><path class="cls-7" d="M117.8702,167.0008v.6289h1.2256v.3711h-2.7549v-.3711h1.21v-.6338l-1.21-.9697v-.4033l1.335,1.085,1.4199-1.1631v.4395l-1.2256,1.0166Z"/><path class="cls-7" d="M118.3468,162.6434c.2412,0,.4258,.0889,.5547,.2666,.1299,.1787,.1943,.4434,.1943,.7959v1.252h-2.7549v-1.2148c0-.3145,.0605-.5605,.1826-.7383,.123-.1787,.2969-.2676,.5244-.2676,.1494,0,.2783,.041,.3848,.123s.1855,.1963,.2383,.3438c.0869-.374,.3125-.5605,.6758-.5605Zm-.7803,1.9531v-.8271c0-.2129-.04-.376-.1211-.4902-.0801-.1133-.1973-.1699-.3506-.1699s-.2686,.0566-.3457,.1699c-.0771,.1143-.1152,.2773-.1152,.4902v.8271h.9326Zm1.1201-1.4082c-.0762-.1191-.1973-.1787-.3613-.1787s-.2852,.0547-.3633,.1621c-.0791,.1084-.1182,.2803-.1182,.5137v.9111h.958v-.874c0-.2383-.0381-.416-.1152-.5342Z"/><path class="cls-7" d="M119.0382,161.9441c-.0557,.0537-.124,.0811-.2041,.0811-.0811,0-.1475-.0273-.2021-.0811-.0537-.0547-.0811-.1201-.0811-.1973,0-.0762,.0273-.1426,.0811-.1982,.0547-.0557,.1211-.084,.2021-.084,.0801,0,.1484,.0283,.2041,.084s.084,.1221,.084,.1982c0,.0771-.0283,.1426-.084,.1973Z"/></g><g><path class="cls-7" d="M126.0851,169.3231c.1865-.2002,.4307-.3008,.7305-.3008,.21,0,.3955,.0508,.5576,.1514,.1631,.1016,.291,.252,.3857,.4512,.0938,.1982,.1406,.4414,.1406,.7275,0,.2656-.042,.5156-.1279,.752-.0859,.2354-.2002,.4248-.3428,.5684l-.2988-.1836c.126-.1221,.2275-.2842,.3066-.4873,.0781-.2021,.1172-.4189,.1172-.6494,0-.2998-.0654-.5322-.1963-.6963s-.3115-.2461-.542-.2461c-.2266,0-.4053,.082-.5342,.2461s-.1934,.4121-.1934,.7432v.2627h-.2783l-1.2725-1.0166v1.875h-.335v-2.3564h.2666l1.3047,1.0371c.0205-.3848,.125-.6768,.3115-.8779Z"/><path class="cls-7" d="M126.6427,167.2361v.6289h1.2256v.3711h-2.7549v-.3711h1.21v-.6338l-1.21-.9697v-.4033l1.3359,1.085,1.4189-1.1631v.4395l-1.2256,1.0166Z"/><path class="cls-7" d="M127.1193,162.8787c.2412,0,.4268,.0889,.5557,.2666,.1289,.1787,.1934,.4434,.1934,.7959v1.252h-2.7549v-1.2148c0-.3145,.0615-.5605,.1836-.7383,.1221-.1787,.2969-.2676,.5234-.2676,.1504,0,.2783,.041,.3848,.123,.1074,.082,.1865,.1963,.2383,.3438,.0879-.374,.3125-.5605,.6758-.5605Zm-.7803,1.9531v-.8271c0-.2129-.04-.376-.1201-.4902-.0801-.1133-.1973-.1699-.3516-.1699-.1533,0-.2686,.0566-.3457,.1699-.0762,.1143-.1152,.2773-.1152,.4902v.8271h.9326Zm1.1211-1.4082c-.0771-.1191-.1973-.1787-.3613-.1787s-.2852,.0547-.3643,.1621c-.0781,.1084-.1182,.2803-.1182,.5137v.9111h.959v-.874c0-.2383-.0381-.416-.1152-.5342Z"/><path class="cls-7" d="M127.8107,162.1795c-.0557,.0537-.124,.0811-.2041,.0811s-.1475-.0273-.2012-.0811c-.0547-.0547-.082-.1201-.082-.1973,0-.0762,.0273-.1426,.082-.1982,.0537-.0557,.1211-.084,.2012-.084s.1484,.0283,.2041,.084,.084,.1221,.084,.1982c0,.0771-.0283,.1426-.084,.1973Z"/></g><g><path class="cls-7" d="M135.6779,168.4305v.7334h.9639v.377h-.9639v2.0684h-.2725l-2.4307-1.9424v-.4189l2.3682,1.875v-1.5928h-.8486v-.3662h.8486v-.7334h.335Z"/><path class="cls-7" d="M135.4161,166.8279v.6289h1.2256v.3711h-2.7549v-.3711h1.21v-.6338l-1.21-.9697v-.4033l1.335,1.085,1.4199-1.1631v.4395l-1.2256,1.0166Z"/><path class="cls-7" d="M135.8927,162.4705c.2412,0,.4258,.0889,.5547,.2666,.1299,.1787,.1943,.4434,.1943,.7959v1.252h-2.7549v-1.2148c0-.3145,.0605-.5605,.1826-.7383,.123-.1787,.2969-.2676,.5244-.2676,.1494,0,.2783,.041,.3848,.123s.1855,.1963,.2383,.3438c.0869-.374,.3125-.5605,.6758-.5605Zm-.7803,1.9531v-.8271c0-.2129-.04-.376-.1211-.4902-.0801-.1133-.1973-.1699-.3506-.1699s-.2686,.0566-.3457,.1699c-.0771,.1143-.1152,.2773-.1152,.4902v.8271h.9326Zm1.1201-1.4082c-.0762-.1191-.1973-.1787-.3613-.1787s-.2852,.0547-.3633,.1621c-.0791,.1084-.1182,.2803-.1182,.5137v.9111h.958v-.874c0-.2383-.0381-.416-.1152-.5342Z"/><path class="cls-7" d="M136.5841,161.7713c-.0557,.0537-.124,.0811-.2041,.0811-.0811,0-.1475-.0273-.2021-.0811-.0537-.0547-.0811-.1201-.0811-.1973,0-.0762,.0273-.1426,.0811-.1982,.0547-.0557,.1211-.084,.2021-.084,.0801,0,.1484,.0283,.2041,.084s.084,.1221,.084,.1982c0,.0771-.0283,.1426-.084,.1973Z"/></g><g><path class="cls-7" d="M141.7482,169.2635h3.666v.377h-3.3311v.8643h-.335v-1.2412Z"/><path class="cls-7" d="M144.1886,167.1316v.6289h1.2256v.3711h-2.7549v-.3711h1.21v-.6338l-1.21-.9697v-.4033l1.3359,1.085,1.4189-1.1631v.4395l-1.2256,1.0166Z"/><path class="cls-7" d="M144.6652,162.7742c.2412,0,.4268,.0889,.5557,.2666,.1289,.1787,.1934,.4434,.1934,.7959v1.252h-2.7549v-1.2148c0-.3145,.0615-.5605,.1836-.7383,.1221-.1787,.2969-.2676,.5234-.2676,.1504,0,.2783,.041,.3848,.123,.1074,.082,.1865,.1963,.2383,.3438,.0879-.374,.3125-.5605,.6758-.5605Zm-.7803,1.9531v-.8271c0-.2129-.04-.376-.1201-.4902-.0801-.1133-.1973-.1699-.3516-.1699-.1533,0-.2686,.0566-.3457,.1699-.0762,.1143-.1152,.2773-.1152,.4902v.8271h.9326Zm1.1211-1.4082c-.0771-.1191-.1973-.1787-.3613-.1787s-.2852,.0547-.3643,.1621c-.0781,.1084-.1182,.2803-.1182,.5137v.9111h.959v-.874c0-.2383-.0381-.416-.1152-.5342Z"/><path class="cls-7" d="M145.3566,162.075c-.0557,.0537-.124,.0811-.2041,.0811s-.1475-.0273-.2012-.0811c-.0547-.0547-.082-.1201-.082-.1973,0-.0762,.0273-.1426,.082-.1982,.0537-.0557,.1211-.084,.2012-.084s.1484,.0283,.2041,.084,.084,.1221,.084,.1982c0,.0771-.0283,.1426-.084,.1973Z"/></g><g><path class="cls-7" d="M153.8517,168.7283h.3359v2.5723h-.2676l-1.4922-1.5244c-.1885-.1914-.3525-.3223-.4902-.3896-.1377-.0684-.2764-.1025-.416-.1025-.2168,0-.3848,.0742-.5059,.2227-.1201,.1484-.1807,.3604-.1807,.6367,0,.4287,.1367,.7627,.4092,1l-.2305,.2666c-.168-.1426-.2969-.3252-.3877-.5469s-.1367-.4727-.1367-.752c0-.373,.0889-.6689,.2646-.8877,.1768-.2178,.418-.3271,.7256-.3271,.1885,0,.3701,.042,.5449,.126s.375,.2422,.6016,.4766l1.2256,1.2461v-2.0166Z"/><path class="cls-7" d="M152.962,167.0008v.6289h1.2256v.3711h-2.7549v-.3711h1.21v-.6338l-1.21-.9697v-.4033l1.335,1.085,1.4199-1.1631v.4395l-1.2256,1.0166Z"/><path class="cls-7" d="M153.4386,162.6434c.2412,0,.4258,.0889,.5547,.2666,.1299,.1787,.1943,.4434,.1943,.7959v1.252h-2.7549v-1.2148c0-.3145,.0605-.5605,.1826-.7383,.123-.1787,.2969-.2676,.5244-.2676,.1494,0,.2783,.041,.3848,.123s.1855,.1963,.2383,.3438c.0869-.374,.3125-.5605,.6758-.5605Zm-.7803,1.9531v-.8271c0-.2129-.04-.376-.1211-.4902-.0801-.1133-.1973-.1699-.3506-.1699s-.2686,.0566-.3457,.1699c-.0771,.1143-.1152,.2773-.1152,.4902v.8271h.9326Zm1.1201-1.4082c-.0762-.1191-.1973-.1787-.3613-.1787s-.2852,.0547-.3633,.1621c-.0791,.1084-.1182,.2803-.1182,.5137v.9111h.958v-.874c0-.2383-.0381-.416-.1152-.5342Z"/><path class="cls-7" d="M154.13,161.9441c-.0557,.0537-.124,.0811-.2041,.0811-.0811,0-.1475-.0273-.2021-.0811-.0537-.0547-.0811-.1201-.0811-.1973,0-.0762,.0273-.1426,.0811-.1982,.0547-.0557,.1211-.084,.2021-.084,.0801,0,.1484,.0283,.2041,.084s.084,.1221,.084,.1982c0,.0771-.0283,.1426-.084,.1973Z"/></g><g><path class="cls-7" d="M161.1769,169.3231c.1865-.2002,.4307-.3008,.7305-.3008,.21,0,.3955,.0508,.5576,.1514,.1631,.1016,.291,.252,.3857,.4512,.0938,.1982,.1406,.4414,.1406,.7275,0,.2656-.042,.5156-.1279,.752-.0859,.2354-.2002,.4248-.3428,.5684l-.2988-.1836c.126-.1221,.2275-.2842,.3066-.4873,.0781-.2021,.1172-.4189,.1172-.6494,0-.2998-.0654-.5322-.1963-.6963s-.3115-.2461-.542-.2461c-.2266,0-.4053,.082-.5342,.2461s-.1934,.4121-.1934,.7432v.2627h-.2783l-1.2725-1.0166v1.875h-.335v-2.3564h.2666l1.3047,1.0371c.0205-.3848,.125-.6768,.3115-.8779Z"/><path class="cls-7" d="M161.7345,167.2361v.6289h1.2256v.3711h-2.7549v-.3711h1.21v-.6338l-1.21-.9697v-.4033l1.3359,1.085,1.4189-1.1631v.4395l-1.2256,1.0166Z"/><path class="cls-7" d="M162.2111,162.8787c.2412,0,.4268,.0889,.5557,.2666,.1289,.1787,.1934,.4434,.1934,.7959v1.252h-2.7549v-1.2148c0-.3145,.0615-.5605,.1836-.7383,.1221-.1787,.2969-.2676,.5234-.2676,.1504,0,.2783,.041,.3848,.123,.1074,.082,.1865,.1963,.2383,.3438,.0879-.374,.3125-.5605,.6758-.5605Zm-.7803,1.9531v-.8271c0-.2129-.04-.376-.1201-.4902-.0801-.1133-.1973-.1699-.3516-.1699-.1533,0-.2686,.0566-.3457,.1699-.0762,.1143-.1152,.2773-.1152,.4902v.8271h.9326Zm1.1211-1.4082c-.0771-.1191-.1973-.1787-.3613-.1787s-.2852,.0547-.3643,.1621c-.0781,.1084-.1182,.2803-.1182,.5137v.9111h.959v-.874c0-.2383-.0381-.416-.1152-.5342Z"/><path class="cls-7" d="M162.9025,162.1795c-.0557,.0537-.124,.0811-.2041,.0811s-.1475-.0273-.2012-.0811c-.0547-.0547-.082-.1201-.082-.1973,0-.0762,.0273-.1426,.082-.1982,.0537-.0557,.1211-.084,.2012-.084s.1484,.0283,.2041,.084,.084,.1221,.084,.1982c0,.0771-.0283,.1426-.084,.1973Z"/></g><g><path class="cls-7" d="M170.7697,168.4305v.7334h.9639v.377h-.9639v2.0684h-.2725l-2.4307-1.9424v-.4189l2.3682,1.875v-1.5928h-.8486v-.3662h.8486v-.7334h.335Z"/><path class="cls-7" d="M170.5079,166.8279v.6289h1.2256v.3711h-2.7549v-.3711h1.21v-.6338l-1.21-.9697v-.4033l1.335,1.085,1.4199-1.1631v.4395l-1.2256,1.0166Z"/><path class="cls-7" d="M170.9845,162.4705c.2412,0,.4258,.0889,.5547,.2666,.1299,.1787,.1943,.4434,.1943,.7959v1.252h-2.7549v-1.2148c0-.3145,.0605-.5605,.1826-.7383,.123-.1787,.2969-.2676,.5244-.2676,.1494,0,.2783,.041,.3848,.123s.1855,.1963,.2383,.3438c.0869-.374,.3125-.5605,.6758-.5605Zm-.7803,1.9531v-.8271c0-.2129-.04-.376-.1211-.4902-.0801-.1133-.1973-.1699-.3506-.1699s-.2686,.0566-.3457,.1699c-.0771,.1143-.1152,.2773-.1152,.4902v.8271h.9326Zm1.1201-1.4082c-.0762-.1191-.1973-.1787-.3613-.1787s-.2852,.0547-.3633,.1621c-.0791,.1084-.1182,.2803-.1182,.5137v.9111h.958v-.874c0-.2383-.0381-.416-.1152-.5342Z"/><path class="cls-7" d="M171.6759,161.7713c-.0557,.0537-.124,.0811-.2041,.0811-.0811,0-.1475-.0273-.2021-.0811-.0537-.0547-.0811-.1201-.0811-.1973,0-.0762,.0273-.1426,.0811-.1982,.0547-.0557,.1211-.084,.2021-.084,.0801,0,.1484,.0283,.2041,.084s.084,.1221,.084,.1982c0,.0771-.0283,.1426-.084,.1973Z"/></g><g><path class="cls-7" d="M176.84,169.2635h3.666v.377h-3.3311v.8643h-.335v-1.2412Z"/><path class="cls-7" d="M179.2804,167.1316v.6289h1.2256v.3711h-2.7549v-.3711h1.21v-.6338l-1.21-.9697v-.4033l1.3359,1.085,1.4189-1.1631v.4395l-1.2256,1.0166Z"/><path class="cls-7" d="M179.757,162.7742c.2412,0,.4268,.0889,.5557,.2666,.1289,.1787,.1934,.4434,.1934,.7959v1.252h-2.7549v-1.2148c0-.3145,.0615-.5605,.1836-.7383,.1221-.1787,.2969-.2676,.5234-.2676,.1504,0,.2783,.041,.3848,.123,.1074,.082,.1865,.1963,.2383,.3438,.0879-.374,.3125-.5605,.6758-.5605Zm-.7803,1.9531v-.8271c0-.2129-.04-.376-.1201-.4902-.0801-.1133-.1973-.1699-.3516-.1699-.1533,0-.2686,.0566-.3457,.1699-.0762,.1143-.1152,.2773-.1152,.4902v.8271h.9326Zm1.1211-1.4082c-.0771-.1191-.1973-.1787-.3613-.1787s-.2852,.0547-.3643,.1621c-.0781,.1084-.1182,.2803-.1182,.5137v.9111h.959v-.874c0-.2383-.0381-.416-.1152-.5342Z"/><path class="cls-7" d="M180.4484,162.075c-.0557,.0537-.124,.0811-.2041,.0811s-.1475-.0273-.2012-.0811c-.0547-.0547-.082-.1201-.082-.1973,0-.0762,.0273-.1426,.082-.1982,.0537-.0557,.1211-.084,.2012-.084s.1484,.0283,.2041,.084,.084,.1221,.084,.1982c0,.0771-.0283,.1426-.084,.1973Z"/></g><g><path class="cls-7" d="M188.9435,168.7283h.3359v2.5723h-.2676l-1.4922-1.5244c-.1885-.1914-.3525-.3223-.4902-.3896-.1377-.0684-.2764-.1025-.416-.1025-.2168,0-.3848,.0742-.5059,.2227-.1201,.1484-.1807,.3604-.1807,.6367,0,.4287,.1367,.7627,.4092,1l-.2305,.2666c-.168-.1426-.2969-.3252-.3877-.5469s-.1367-.4727-.1367-.752c0-.373,.0889-.6689,.2646-.8877,.1768-.2178,.418-.3271,.7256-.3271,.1885,0,.3701,.042,.5449,.126s.375,.2422,.6016,.4766l1.2256,1.2461v-2.0166Z"/><path class="cls-7" d="M188.0538,167.0008v.6289h1.2256v.3711h-2.7549v-.3711h1.21v-.6338l-1.21-.9697v-.4033l1.335,1.085,1.4199-1.1631v.4395l-1.2256,1.0166Z"/><path class="cls-7" d="M188.5304,162.6434c.2412,0,.4258,.0889,.5547,.2666,.1299,.1787,.1943,.4434,.1943,.7959v1.252h-2.7549v-1.2148c0-.3145,.0605-.5605,.1826-.7383,.123-.1787,.2969-.2676,.5244-.2676,.1494,0,.2783,.041,.3848,.123s.1855,.1963,.2383,.3438c.0869-.374,.3125-.5605,.6758-.5605Zm-.7803,1.9531v-.8271c0-.2129-.04-.376-.1211-.4902-.0801-.1133-.1973-.1699-.3506-.1699s-.2686,.0566-.3457,.1699c-.0771,.1143-.1152,.2773-.1152,.4902v.8271h.9326Zm1.1201-1.4082c-.0762-.1191-.1973-.1787-.3613-.1787s-.2852,.0547-.3633,.1621c-.0791,.1084-.1182,.2803-.1182,.5137v.9111h.958v-.874c0-.2383-.0381-.416-.1152-.5342Z"/><path class="cls-7" d="M189.2218,161.9441c-.0557,.0537-.124,.0811-.2041,.0811-.0811,0-.1475-.0273-.2021-.0811-.0537-.0547-.0811-.1201-.0811-.1973,0-.0762,.0273-.1426,.0811-.1982,.0547-.0557,.1211-.084,.2021-.084,.0801,0,.1484,.0283,.2041,.084s.084,.1221,.084,.1982c0,.0771-.0283,.1426-.084,.1973Z"/></g><g><path class="cls-7" d="M196.2687,169.3231c.1865-.2002,.4307-.3008,.7305-.3008,.21,0,.3955,.0508,.5576,.1514,.1631,.1016,.291,.252,.3857,.4512,.0938,.1982,.1406,.4414,.1406,.7275,0,.2656-.042,.5156-.1279,.752-.0859,.2354-.2002,.4248-.3428,.5684l-.2988-.1836c.126-.1221,.2275-.2842,.3066-.4873,.0781-.2021,.1172-.4189,.1172-.6494,0-.2998-.0654-.5322-.1963-.6963s-.3115-.2461-.542-.2461c-.2266,0-.4053,.082-.5342,.2461s-.1934,.4121-.1934,.7432v.2627h-.2783l-1.2725-1.0166v1.875h-.335v-2.3564h.2666l1.3047,1.0371c.0205-.3848,.125-.6768,.3115-.8779Z"/><path class="cls-7" d="M196.8263,167.2361v.6289h1.2256v.3711h-2.7549v-.3711h1.21v-.6338l-1.21-.9697v-.4033l1.3359,1.085,1.4189-1.1631v.4395l-1.2256,1.0166Z"/><path class="cls-7" d="M197.3029,162.8787c.2412,0,.4268,.0889,.5557,.2666,.1289,.1787,.1934,.4434,.1934,.7959v1.252h-2.7549v-1.2148c0-.3145,.0615-.5605,.1836-.7383,.1221-.1787,.2969-.2676,.5234-.2676,.1504,0,.2783,.041,.3848,.123,.1074,.082,.1865,.1963,.2383,.3438,.0879-.374,.3125-.5605,.6758-.5605Zm-.7803,1.9531v-.8271c0-.2129-.04-.376-.1201-.4902-.0801-.1133-.1973-.1699-.3516-.1699-.1533,0-.2686,.0566-.3457,.1699-.0762,.1143-.1152,.2773-.1152,.4902v.8271h.9326Zm1.1211-1.4082c-.0771-.1191-.1973-.1787-.3613-.1787s-.2852,.0547-.3643,.1621c-.0781,.1084-.1182,.2803-.1182,.5137v.9111h.959v-.874c0-.2383-.0381-.416-.1152-.5342Z"/><path class="cls-7" d="M197.9943,162.1795c-.0557,.0537-.124,.0811-.2041,.0811s-.1475-.0273-.2012-.0811c-.0547-.0547-.082-.1201-.082-.1973,0-.0762,.0273-.1426,.082-.1982,.0537-.0557,.1211-.084,.2012-.084s.1484,.0283,.2041,.084,.084,.1221,.084,.1982c0,.0771-.0283,.1426-.084,.1973Z"/></g><g><path class="cls-7" d="M205.8614,168.4314v.7334h.9639v.377h-.9639v2.0684h-.2715l-2.4307-1.9424v-.4189l2.3672,1.875v-1.5928h-.8486v-.3662h.8486v-.7334h.335Z"/><path class="cls-7" d="M205.5997,166.8289v.6289h1.2256v.3711h-2.7549v-.3711h1.21v-.6338l-1.21-.9697v-.4033l1.3359,1.085,1.4189-1.1631v.4395l-1.2256,1.0166Z"/><path class="cls-7" d="M206.0763,162.4715c.2412,0,.4268,.0889,.5557,.2666,.1289,.1787,.1934,.4434,.1934,.7959v1.252h-2.7549v-1.2148c0-.3145,.0615-.5605,.1836-.7383,.1221-.1787,.2969-.2676,.5234-.2676,.1504,0,.2783,.041,.3848,.123,.1074,.082,.1865,.1963,.2383,.3438,.0879-.374,.3125-.5605,.6758-.5605Zm-.7803,1.9531v-.8271c0-.2129-.04-.376-.1201-.4902-.0801-.1133-.1973-.1699-.3516-.1699-.1533,0-.2686,.0566-.3457,.1699-.0762,.1143-.1152,.2773-.1152,.4902v.8271h.9326Zm1.1211-1.4082c-.0771-.1191-.1973-.1787-.3613-.1787s-.2852,.0547-.3643,.1621c-.0781,.1084-.1182,.2803-.1182,.5137v.9111h.959v-.874c0-.2383-.0381-.416-.1152-.5342Z"/><path class="cls-7" d="M206.7677,161.7723c-.0557,.0537-.124,.0811-.2041,.0811s-.1475-.0273-.2012-.0811c-.0547-.0547-.082-.1201-.082-.1973,0-.0762,.0273-.1426,.082-.1982,.0537-.0557,.1211-.084,.2012-.084s.1484,.0283,.2041,.084,.084,.1221,.084,.1982c0,.0771-.0283,.1426-.084,.1973Z"/></g><g><path class="cls-7" d="M211.9318,169.2635h3.667v.377h-3.3311v.8643h-.3359v-1.2412Z"/><path class="cls-7" d="M214.3732,167.1316v.6289h1.2256v.3711h-2.7549v-.3711h1.21v-.6338l-1.21-.9697v-.4033l1.335,1.085,1.4199-1.1631v.4395l-1.2256,1.0166Z"/><path class="cls-7" d="M214.8497,162.7742c.2412,0,.4258,.0889,.5547,.2666,.1299,.1787,.1943,.4434,.1943,.7959v1.252h-2.7549v-1.2148c0-.3145,.0605-.5605,.1826-.7383,.123-.1787,.2969-.2676,.5244-.2676,.1494,0,.2783,.041,.3848,.123s.1855,.1963,.2383,.3438c.0869-.374,.3125-.5605,.6758-.5605Zm-.7803,1.9531v-.8271c0-.2129-.04-.376-.1211-.4902-.0801-.1133-.1973-.1699-.3506-.1699s-.2686,.0566-.3457,.1699c-.0771,.1143-.1152,.2773-.1152,.4902v.8271h.9326Zm1.1201-1.4082c-.0762-.1191-.1973-.1787-.3613-.1787s-.2852,.0547-.3633,.1621c-.0791,.1084-.1182,.2803-.1182,.5137v.9111h.958v-.874c0-.2383-.0381-.416-.1152-.5342Z"/><path class="cls-7" d="M215.5411,162.075c-.0557,.0537-.124,.0811-.2041,.0811-.0811,0-.1475-.0273-.2021-.0811-.0537-.0547-.0811-.1201-.0811-.1973,0-.0762,.0273-.1426,.0811-.1982,.0547-.0557,.1211-.084,.2021-.084,.0801,0,.1484,.0283,.2041,.084s.084,.1221,.084,.1982c0,.0771-.0283,.1426-.084,.1973Z"/></g><g><path class="cls-7" d="M224.0353,168.7273h.3359v2.5723h-.2676l-1.4922-1.5244c-.1885-.1914-.3525-.3223-.4902-.3896-.1377-.0684-.2764-.1025-.416-.1025-.2168,0-.3848,.0742-.5059,.2227-.1201,.1484-.1807,.3604-.1807,.6367,0,.4287,.1367,.7627,.4092,1l-.2305,.2666c-.168-.1426-.2969-.3252-.3877-.5469s-.1367-.4727-.1367-.752c0-.373,.0889-.6689,.2646-.8877,.1768-.2178,.418-.3271,.7256-.3271,.1885,0,.3701,.042,.5449,.126s.375,.2422,.6016,.4766l1.2256,1.2461v-2.0166Z"/><path class="cls-7" d="M223.1456,166.9998v.6289h1.2256v.3711h-2.7549v-.3711h1.21v-.6338l-1.21-.9697v-.4033l1.335,1.085,1.4199-1.1631v.4395l-1.2256,1.0166Z"/><path class="cls-7" d="M223.6222,162.6424c.2412,0,.4258,.0889,.5547,.2666,.1299,.1787,.1943,.4434,.1943,.7959v1.252h-2.7549v-1.2148c0-.3145,.0605-.5605,.1826-.7383,.123-.1787,.2969-.2676,.5244-.2676,.1494,0,.2783,.041,.3848,.123s.1855,.1963,.2383,.3438c.0869-.374,.3125-.5605,.6758-.5605Zm-.7803,1.9531v-.8271c0-.2129-.04-.376-.1211-.4902-.0801-.1133-.1973-.1699-.3506-.1699s-.2686,.0566-.3457,.1699c-.0771,.1143-.1152,.2773-.1152,.4902v.8271h.9326Zm1.1201-1.4082c-.0762-.1191-.1973-.1787-.3613-.1787s-.2852,.0547-.3633,.1621c-.0791,.1084-.1182,.2803-.1182,.5137v.9111h.958v-.874c0-.2383-.0381-.416-.1152-.5342Z"/><path class="cls-7" d="M224.3136,161.9432c-.0557,.0537-.124,.0811-.2041,.0811-.0811,0-.1475-.0273-.2021-.0811-.0537-.0547-.0811-.1201-.0811-.1973,0-.0762,.0273-.1426,.0811-.1982,.0547-.0557,.1211-.084,.2021-.084,.0801,0,.1484,.0283,.2041,.084s.084,.1221,.084,.1982c0,.0771-.0283,.1426-.084,.1973Z"/></g><g><path class="cls-7" d="M231.3614,169.3231c.1865-.2002,.4297-.3008,.7305-.3008,.209,0,.3955,.0508,.5576,.1514,.1621,.1016,.291,.252,.3848,.4512,.0947,.1982,.1416,.4414,.1416,.7275,0,.2656-.043,.5156-.1279,.752-.0859,.2354-.2002,.4248-.3438,.5684l-.2979-.1836c.125-.1221,.2275-.2842,.3057-.4873,.0791-.2021,.1182-.4189,.1182-.6494,0-.2998-.0654-.5322-.1963-.6963s-.3115-.2461-.542-.2461c-.2275,0-.4053,.082-.5342,.2461-.1299,.1641-.1943,.4121-.1943,.7432v.2627h-.2773l-1.2725-1.0166v1.875h-.3359v-2.3564h.2676l1.3037,1.0371c.0215-.3848,.125-.6768,.3125-.8779Z"/><path class="cls-7" d="M231.9191,167.2361v.6289h1.2256v.3711h-2.7549v-.3711h1.21v-.6338l-1.21-.9697v-.4033l1.335,1.085,1.4199-1.1631v.4395l-1.2256,1.0166Z"/><path class="cls-7" d="M232.3956,162.8787c.2412,0,.4258,.0889,.5547,.2666,.1299,.1787,.1943,.4434,.1943,.7959v1.252h-2.7549v-1.2148c0-.3145,.0605-.5605,.1826-.7383,.123-.1787,.2969-.2676,.5244-.2676,.1494,0,.2783,.041,.3848,.123s.1855,.1963,.2383,.3438c.0869-.374,.3125-.5605,.6758-.5605Zm-.7803,1.9531v-.8271c0-.2129-.04-.376-.1211-.4902-.0801-.1133-.1973-.1699-.3506-.1699s-.2686,.0566-.3457,.1699c-.0771,.1143-.1152,.2773-.1152,.4902v.8271h.9326Zm1.1201-1.4082c-.0762-.1191-.1973-.1787-.3613-.1787s-.2852,.0547-.3633,.1621c-.0791,.1084-.1182,.2803-.1182,.5137v.9111h.958v-.874c0-.2383-.0381-.416-.1152-.5342Z"/><path class="cls-7" d="M233.087,162.1795c-.0557,.0537-.124,.0811-.2041,.0811-.0811,0-.1475-.0273-.2021-.0811-.0537-.0547-.0811-.1201-.0811-.1973,0-.0762,.0273-.1426,.0811-.1982,.0547-.0557,.1211-.084,.2021-.084,.0801,0,.1484,.0283,.2041,.084s.084,.1221,.084,.1982c0,.0771-.0283,.1426-.084,.1973Z"/></g><g><path class="cls-7" d="M240.9532,168.4305v.7334h.9639v.377h-.9639v2.0684h-.2715l-2.4307-1.9424v-.4189l2.3672,1.875v-1.5928h-.8486v-.3662h.8486v-.7334h.335Z"/><path class="cls-7" d="M240.6915,166.8279v.6289h1.2256v.3711h-2.7549v-.3711h1.21v-.6338l-1.21-.9697v-.4033l1.3359,1.085,1.4189-1.1631v.4395l-1.2256,1.0166Z"/><path class="cls-7" d="M241.1681,162.4705c.2412,0,.4268,.0889,.5557,.2666,.1289,.1787,.1934,.4434,.1934,.7959v1.252h-2.7549v-1.2148c0-.3145,.0615-.5605,.1836-.7383,.1221-.1787,.2969-.2676,.5234-.2676,.1504,0,.2783,.041,.3848,.123,.1074,.082,.1865,.1963,.2383,.3438,.0879-.374,.3125-.5605,.6758-.5605Zm-.7803,1.9531v-.8271c0-.2129-.04-.376-.1201-.4902-.0801-.1133-.1973-.1699-.3516-.1699-.1533,0-.2686,.0566-.3457,.1699-.0762,.1143-.1152,.2773-.1152,.4902v.8271h.9326Zm1.1211-1.4082c-.0771-.1191-.1973-.1787-.3613-.1787s-.2852,.0547-.3643,.1621c-.0781,.1084-.1182,.2803-.1182,.5137v.9111h.959v-.874c0-.2383-.0381-.416-.1152-.5342Z"/><path class="cls-7" d="M241.8595,161.7713c-.0557,.0537-.124,.0811-.2041,.0811s-.1475-.0273-.2012-.0811c-.0547-.0547-.082-.1201-.082-.1973,0-.0762,.0273-.1426,.082-.1982,.0537-.0557,.1211-.084,.2012-.084s.1484,.0283,.2041,.084,.084,.1221,.084,.1982c0,.0771-.0283,.1426-.084,.1973Z"/></g><g><path class="cls-7" d="M247.0236,169.2635h3.667v.377h-3.3311v.8643h-.3359v-1.2412Z"/><path class="cls-7" d="M249.465,167.1316v.6289h1.2256v.3711h-2.7549v-.3711h1.21v-.6338l-1.21-.9697v-.4033l1.335,1.085,1.4199-1.1631v.4395l-1.2256,1.0166Z"/><path class="cls-7" d="M249.9415,162.7742c.2412,0,.4258,.0889,.5547,.2666,.1299,.1787,.1943,.4434,.1943,.7959v1.252h-2.7549v-1.2148c0-.3145,.0605-.5605,.1826-.7383,.123-.1787,.2969-.2676,.5244-.2676,.1494,0,.2783,.041,.3848,.123s.1855,.1963,.2383,.3438c.0869-.374,.3125-.5605,.6758-.5605Zm-.7803,1.9531v-.8271c0-.2129-.04-.376-.1211-.4902-.0801-.1133-.1973-.1699-.3506-.1699s-.2686,.0566-.3457,.1699c-.0771,.1143-.1152,.2773-.1152,.4902v.8271h.9326Zm1.1201-1.4082c-.0762-.1191-.1973-.1787-.3613-.1787s-.2852,.0547-.3633,.1621c-.0791,.1084-.1182,.2803-.1182,.5137v.9111h.958v-.874c0-.2383-.0381-.416-.1152-.5342Z"/><path class="cls-7" d="M250.6329,162.075c-.0557,.0537-.124,.0811-.2041,.0811-.0811,0-.1475-.0273-.2021-.0811-.0537-.0547-.0811-.1201-.0811-.1973,0-.0762,.0273-.1426,.0811-.1982,.0547-.0557,.1211-.084,.2021-.084,.0801,0,.1484,.0283,.2041,.084s.084,.1221,.084,.1982c0,.0771-.0283,.1426-.084,.1973Z"/></g><g><path class="cls-7" d="M259.128,168.7283h.335v2.5723h-.2666l-1.4932-1.5244c-.1885-.1914-.3516-.3223-.4893-.3896-.1377-.0684-.2773-.1025-.417-.1025-.2158,0-.3848,.0742-.5049,.2227-.1211,.1484-.1807,.3604-.1807,.6367,0,.4287,.1357,.7627,.4082,1l-.2305,.2666c-.168-.1426-.2969-.3252-.3877-.5469s-.1357-.4727-.1357-.752c0-.373,.0879-.6689,.2646-.8877,.1758-.2178,.418-.3271,.7246-.3271,.1885,0,.3701,.042,.5449,.126s.376,.2422,.6025,.4766l1.2256,1.2461v-2.0166Z"/><path class="cls-7" d="M258.2374,167.0008v.6289h1.2256v.3711h-2.7549v-.3711h1.21v-.6338l-1.21-.9697v-.4033l1.3359,1.085,1.4189-1.1631v.4395l-1.2256,1.0166Z"/><path class="cls-7" d="M258.714,162.6434c.2412,0,.4268,.0889,.5557,.2666,.1289,.1787,.1934,.4434,.1934,.7959v1.252h-2.7549v-1.2148c0-.3145,.0615-.5605,.1836-.7383,.1221-.1787,.2969-.2676,.5234-.2676,.1504,0,.2783,.041,.3848,.123,.1074,.082,.1865,.1963,.2383,.3438,.0879-.374,.3125-.5605,.6758-.5605Zm-.7803,1.9531v-.8271c0-.2129-.04-.376-.1201-.4902-.0801-.1133-.1973-.1699-.3516-.1699-.1533,0-.2686,.0566-.3457,.1699-.0762,.1143-.1152,.2773-.1152,.4902v.8271h.9326Zm1.1211-1.4082c-.0771-.1191-.1973-.1787-.3613-.1787s-.2852,.0547-.3643,.1621c-.0781,.1084-.1182,.2803-.1182,.5137v.9111h.959v-.874c0-.2383-.0381-.416-.1152-.5342Z"/><path class="cls-7" d="M259.4054,161.9441c-.0557,.0537-.124,.0811-.2041,.0811s-.1475-.0273-.2012-.0811c-.0547-.0547-.082-.1201-.082-.1973,0-.0762,.0273-.1426,.082-.1982,.0537-.0557,.1211-.084,.2012-.084s.1484,.0283,.2041,.084,.084,.1221,.084,.1982c0,.0771-.0283,.1426-.084,.1973Z"/></g><g><path class="cls-7" d="M266.4532,169.3211c.1865-.2002,.4297-.3008,.7305-.3008,.209,0,.3955,.0508,.5576,.1514,.1621,.1016,.291,.252,.3848,.4512,.0947,.1982,.1416,.4414,.1416,.7275,0,.2656-.043,.5156-.1279,.752-.0859,.2354-.2002,.4248-.3438,.5684l-.2979-.1836c.125-.1221,.2275-.2842,.3057-.4873,.0791-.2021,.1182-.4189,.1182-.6494,0-.2998-.0654-.5322-.1963-.6963s-.3115-.2461-.542-.2461c-.2275,0-.4053,.082-.5342,.2461-.1299,.1641-.1943,.4121-.1943,.7432v.2627h-.2773l-1.2725-1.0166v1.875h-.3359v-2.3564h.2676l1.3037,1.0371c.0215-.3848,.125-.6768,.3125-.8779Z"/><path class="cls-7" d="M267.0109,167.2342v.6289h1.2256v.3711h-2.7549v-.3711h1.21v-.6338l-1.21-.9697v-.4033l1.335,1.085,1.4199-1.1631v.4395l-1.2256,1.0166Z"/><path class="cls-7" d="M267.4874,162.8768c.2412,0,.4258,.0889,.5547,.2666,.1299,.1787,.1943,.4434,.1943,.7959v1.252h-2.7549v-1.2148c0-.3145,.0605-.5605,.1826-.7383,.123-.1787,.2969-.2676,.5244-.2676,.1494,0,.2783,.041,.3848,.123s.1855,.1963,.2383,.3438c.0869-.374,.3125-.5605,.6758-.5605Zm-.7803,1.9531v-.8271c0-.2129-.04-.376-.1211-.4902-.0801-.1133-.1973-.1699-.3506-.1699s-.2686,.0566-.3457,.1699c-.0771,.1143-.1152,.2773-.1152,.4902v.8271h.9326Zm1.1201-1.4082c-.0762-.1191-.1973-.1787-.3613-.1787s-.2852,.0547-.3633,.1621c-.0791,.1084-.1182,.2803-.1182,.5137v.9111h.958v-.874c0-.2383-.0381-.416-.1152-.5342Z"/><path class="cls-7" d="M268.1788,162.1775c-.0557,.0537-.124,.0811-.2041,.0811-.0811,0-.1475-.0273-.2021-.0811-.0537-.0547-.0811-.1201-.0811-.1973,0-.0762,.0273-.1426,.0811-.1982,.0547-.0557,.1211-.084,.2021-.084,.0801,0,.1484,.0283,.2041,.084s.084,.1221,.084,.1982c0,.0771-.0283,.1426-.084,.1973Z"/></g><g><path class="cls-7" d="M276.045,168.4285v.7334h.9639v.377h-.9639v2.0684h-.2715l-2.4307-1.9424v-.4189l2.3672,1.875v-1.5928h-.8486v-.3662h.8486v-.7334h.335Z"/><path class="cls-7" d="M275.7833,166.826v.6289h1.2256v.3711h-2.7549v-.3711h1.21v-.6338l-1.21-.9697v-.4033l1.3359,1.085,1.4189-1.1631v.4395l-1.2256,1.0166Z"/><path class="cls-7" d="M276.2599,162.4686c.2412,0,.4268,.0889,.5557,.2666,.1289,.1787,.1934,.4434,.1934,.7959v1.252h-2.7549v-1.2148c0-.3145,.0615-.5605,.1836-.7383,.1221-.1787,.2969-.2676,.5234-.2676,.1504,0,.2783,.041,.3848,.123,.1074,.082,.1865,.1963,.2383,.3438,.0879-.374,.3125-.5605,.6758-.5605Zm-.7803,1.9531v-.8271c0-.2129-.04-.376-.1201-.4902-.0801-.1133-.1973-.1699-.3516-.1699-.1533,0-.2686,.0566-.3457,.1699-.0762,.1143-.1152,.2773-.1152,.4902v.8271h.9326Zm1.1211-1.4082c-.0771-.1191-.1973-.1787-.3613-.1787s-.2852,.0547-.3643,.1621c-.0781,.1084-.1182,.2803-.1182,.5137v.9111h.959v-.874c0-.2383-.0381-.416-.1152-.5342Z"/><path class="cls-7" d="M276.9513,161.7693c-.0557,.0537-.124,.0811-.2041,.0811s-.1475-.0273-.2012-.0811c-.0547-.0547-.082-.1201-.082-.1973,0-.0762,.0273-.1426,.082-.1982,.0537-.0557,.1211-.084,.2012-.084s.1484,.0283,.2041,.084,.084,.1221,.084,.1982c0,.0771-.0283,.1426-.084,.1973Z"/></g><g><path d="M8.6808,183.6639v.3906h-3.001v-.3115l1.7783-1.7412c.2236-.2207,.376-.4111,.4551-.5713,.0801-.1611,.1191-.3232,.1191-.4863,0-.2529-.0859-.4492-.2598-.5898-.1729-.1406-.4199-.2109-.7422-.2109-.501,0-.8896,.1592-1.167,.4766l-.3115-.2686c.167-.1953,.3799-.3457,.6387-.4521,.2588-.1055,.5508-.1592,.877-.1592,.4355,0,.7812,.1035,1.0352,.3086,.2549,.2061,.3818,.4883,.3818,.8467,0,.2197-.0488,.4316-.1465,.6357-.0977,.2031-.2832,.4375-.5557,.7021l-1.4541,1.4307h2.3525Z"/><path d="M9.9913,183.8279c-.2588-.1748-.4609-.4258-.6055-.7539s-.2168-.7139-.2168-1.1582,.0723-.8301,.2168-1.1582c.1445-.3271,.3467-.5791,.6055-.7549,.2588-.1748,.5527-.2627,.8828-.2627s.624,.0879,.8828,.2627c.2588,.1758,.4609,.4277,.6084,.7549,.1465,.3281,.2197,.7139,.2197,1.1582s-.0732,.8301-.2197,1.1582c-.1475,.3281-.3496,.5791-.6084,.7539-.2588,.1758-.5527,.2637-.8828,.2637s-.624-.0879-.8828-.2637Zm1.54-.3477c.1895-.1387,.3369-.3398,.4424-.6055,.1064-.2646,.1592-.584,.1592-.959s-.0527-.6943-.1592-.959c-.1055-.2656-.2529-.4668-.4424-.6055s-.4092-.208-.6572-.208c-.249,0-.4678,.0693-.6572,.208s-.3369,.3398-.4424,.6055c-.1064,.2646-.1592,.584-.1592,.959s.0527,.6943,.1592,.959c.1055,.2656,.2529,.4668,.4424,.6055s.4082,.208,.6572,.208c.248,0,.4678-.0693,.6572-.208Z"/><path d="M14.3448,179.7772v4.2773h-.4395v-3.8867h-1.0088v-.3906h1.4482Z"/><path d="M18.9464,182.9305h-.8555v1.124h-.4404v-1.124h-2.4131v-.3184l2.2666-2.835h.4893l-2.1885,2.7617h1.8584v-.9893h.4277v.9893h.8555v.3916Z"/></g><g><path d="M43.9933,183.6639v.3906h-3v-.3115l1.7783-1.7412c.2236-.2207,.375-.4111,.4551-.5713,.0791-.1611,.1191-.3232,.1191-.4863,0-.2529-.0869-.4492-.2598-.5898s-.4209-.2109-.7422-.2109c-.501,0-.8906,.1592-1.168,.4766l-.3115-.2686c.167-.1953,.3799-.3457,.6387-.4521,.2588-.1055,.5508-.1592,.877-.1592,.4355,0,.7812,.1035,1.0361,.3086,.2539,.2061,.3818,.4883,.3818,.8467,0,.2197-.0488,.4316-.1465,.6357-.0977,.2031-.2832,.4375-.5566,.7021l-1.4541,1.4307h2.3525Z"/><path d="M45.3097,183.8279c-.2588-.1748-.46-.4258-.6045-.7539s-.2168-.7139-.2168-1.1582,.0723-.8301,.2168-1.1582c.1445-.3271,.3457-.5791,.6045-.7549,.2588-.1748,.5527-.2627,.8828-.2627s.625,.0879,.8838,.2627c.2578,.1758,.4609,.4277,.6074,.7549,.1465,.3281,.2197,.7139,.2197,1.1582s-.0732,.8301-.2197,1.1582-.3496,.5791-.6074,.7539c-.2588,.1758-.5537,.2637-.8838,.2637s-.624-.0879-.8828-.2637Zm1.54-.3477c.1895-.1387,.3369-.3398,.4434-.6055,.1055-.2646,.1582-.584,.1582-.959s-.0527-.6943-.1582-.959c-.1064-.2656-.2539-.4668-.4434-.6055s-.4082-.208-.6572-.208c-.248,0-.4668,.0693-.6562,.208s-.3369,.3398-.4434,.6055c-.1055,.2646-.1592,.584-.1592,.959s.0537,.6943,.1592,.959c.1064,.2656,.2539,.4668,.4434,.6055s.4082,.208,.6562,.208c.249,0,.4678-.0693,.6572-.208Z"/><path d="M49.6642,179.7772v4.2773h-.4404v-3.8867h-1.0078v-.3906h1.4482Z"/><path d="M53.1066,181.8641c.2832,.2217,.4248,.5322,.4248,.9316,0,.249-.0576,.4707-.1738,.666s-.29,.3496-.5225,.4609c-.2324,.1123-.5176,.1689-.8555,.1689-.3057,0-.5957-.0498-.8711-.1504-.2744-.0996-.4961-.2334-.6631-.4004l.2139-.3477c.1426,.1465,.3301,.2656,.5625,.3574s.4824,.1377,.752,.1377c.3545,0,.6279-.0801,.8213-.2383,.1934-.1592,.291-.3711,.291-.6357,0-.2939-.1094-.5156-.3271-.666-.2178-.1514-.5859-.2266-1.1035-.2266h-.9102l.2197-2.1445h2.3408v.3906h-1.9561l-.1465,1.3633h.5498c.6191,0,1.0703,.1104,1.3535,.333Z"/></g><g><path d="M79.0978,183.6639v.3906h-3v-.3115l1.7783-1.7412c.2236-.2207,.375-.4111,.4551-.5713,.0791-.1611,.1191-.3232,.1191-.4863,0-.2529-.0869-.4492-.2598-.5898s-.4209-.2109-.7422-.2109c-.501,0-.8906,.1592-1.168,.4766l-.3115-.2686c.167-.1953,.3799-.3457,.6387-.4521,.2588-.1055,.5508-.1592,.877-.1592,.4355,0,.7812,.1035,1.0361,.3086,.2539,.2061,.3818,.4883,.3818,.8467,0,.2197-.0488,.4316-.1465,.6357-.0977,.2031-.2832,.4375-.5566,.7021l-1.4541,1.4307h2.3525Z"/><path d="M80.4142,183.8279c-.2588-.1748-.46-.4258-.6045-.7539s-.2168-.7139-.2168-1.1582,.0723-.8301,.2168-1.1582c.1445-.3271,.3457-.5791,.6045-.7549,.2588-.1748,.5527-.2627,.8828-.2627s.625,.0879,.8838,.2627c.2578,.1758,.4609,.4277,.6074,.7549,.1465,.3281,.2197,.7139,.2197,1.1582s-.0732,.8301-.2197,1.1582-.3496,.5791-.6074,.7539c-.2588,.1758-.5537,.2637-.8838,.2637s-.624-.0879-.8828-.2637Zm1.54-.3477c.1895-.1387,.3369-.3398,.4434-.6055,.1055-.2646,.1582-.584,.1582-.959s-.0527-.6943-.1582-.959c-.1064-.2656-.2539-.4668-.4434-.6055s-.4082-.208-.6572-.208c-.248,0-.4668,.0693-.6562,.208s-.3369,.3398-.4434,.6055c-.1055,.2646-.1592,.584-.1592,.959s.0537,.6943,.1592,.959c.1064,.2656,.2539,.4668,.4434,.6055s.4082,.208,.6562,.208c.249,0,.4678-.0693,.6572-.208Z"/><path d="M84.7687,179.7772v4.2773h-.4404v-3.8867h-1.0078v-.3906h1.4482Z"/><path d="M88.254,181.6531c.2178,.1055,.3887,.2559,.5107,.4492s.1826,.418,.1826,.6748c0,.2607-.0625,.4912-.1895,.6904-.126,.2002-.2998,.3535-.5225,.4619-.2217,.1074-.4707,.1621-.748,.1621-.5664,0-1-.1865-1.3018-.5596s-.4521-.8994-.4521-1.5791c0-.4775,.082-.8809,.2441-1.21,.1631-.3301,.3916-.5801,.6846-.749,.2939-.1689,.6357-.2539,1.0264-.2539,.4238,0,.7617,.0781,1.0146,.2324l-.1768,.3545c-.2041-.1348-.4814-.2012-.8311-.2012-.4727,0-.8438,.1494-1.1123,.4492-.2686,.2988-.4033,.7334-.4033,1.3037,0,.1025,.0059,.2188,.0186,.3486,.1055-.2324,.2744-.4121,.5068-.541,.2324-.1279,.499-.1924,.8008-.1924,.2812,0,.5303,.0527,.748,.1592Zm-.0303,1.8115c.1934-.1689,.29-.3936,.29-.6748s-.0967-.5049-.29-.6729c-.1934-.167-.4551-.25-.7852-.25-.2158,0-.4062,.041-.5713,.1221-.165,.082-.2949,.1934-.3877,.3359-.0947,.1426-.1406,.3018-.1406,.4766,0,.1631,.043,.3145,.1309,.4521,.0879,.1387,.2168,.251,.3877,.3359,.1719,.0859,.375,.1289,.6113,.1289,.3096,0,.5615-.085,.7549-.2539Z"/></g><g><path d="M114.5939,183.6639v.3906h-3.001v-.3115l1.7783-1.7412c.2236-.2207,.376-.4111,.4551-.5713,.0801-.1611,.1191-.3232,.1191-.4863,0-.2529-.0859-.4492-.2598-.5898-.1729-.1406-.4199-.2109-.7422-.2109-.501,0-.8896,.1592-1.167,.4766l-.3115-.2686c.167-.1953,.3799-.3457,.6387-.4521,.2588-.1055,.5508-.1592,.877-.1592,.4355,0,.7812,.1035,1.0352,.3086,.2549,.2061,.3818,.4883,.3818,.8467,0,.2197-.0488,.4316-.1465,.6357-.0977,.2031-.2832,.4375-.5557,.7021l-1.4541,1.4307h2.3525Z"/><path d="M115.9103,183.8279c-.2588-.1748-.4609-.4258-.6055-.7539s-.2168-.7139-.2168-1.1582,.0723-.8301,.2168-1.1582c.1445-.3271,.3467-.5791,.6055-.7549,.2588-.1748,.5527-.2627,.8828-.2627s.624,.0879,.8828,.2627c.2588,.1758,.4609,.4277,.6084,.7549,.1465,.3281,.2197,.7139,.2197,1.1582s-.0732,.8301-.2197,1.1582c-.1475,.3281-.3496,.5791-.6084,.7539-.2588,.1758-.5527,.2637-.8828,.2637s-.624-.0879-.8828-.2637Zm1.54-.3477c.1895-.1387,.3369-.3398,.4424-.6055,.1064-.2646,.1592-.584,.1592-.959s-.0527-.6943-.1592-.959c-.1055-.2656-.2529-.4668-.4424-.6055s-.4092-.208-.6572-.208c-.249,0-.4678,.0693-.6572,.208s-.3369,.3398-.4424,.6055c-.1064,.2646-.1592,.584-.1592,.959s.0527,.6943,.1592,.959c.1055,.2656,.2529,.4668,.4424,.6055s.4082,.208,.6572,.208c.248,0,.4678-.0693,.6572-.208Z"/><path d="M120.2638,179.7772v4.2773h-.4395v-3.8867h-1.0088v-.3906h1.4482Z"/><path d="M124.2482,179.7772v.3115l-1.791,3.9658h-.4766l1.7598-3.8867h-2.1992v.8008h-.4346v-1.1914h3.1416Z"/></g><g><path d="M149.4181,183.6639v.3906h-3.001v-.3115l1.7783-1.7412c.2236-.2207,.376-.4111,.4551-.5713,.0801-.1611,.1191-.3232,.1191-.4863,0-.2529-.0859-.4492-.2598-.5898-.1729-.1406-.4199-.2109-.7422-.2109-.501,0-.8896,.1592-1.167,.4766l-.3115-.2686c.167-.1953,.3799-.3457,.6387-.4521,.2588-.1055,.5508-.1592,.877-.1592,.4355,0,.7812,.1035,1.0352,.3086,.2549,.2061,.3818,.4883,.3818,.8467,0,.2197-.0488,.4316-.1465,.6357-.0977,.2031-.2832,.4375-.5557,.7021l-1.4541,1.4307h2.3525Z"/><path d="M150.7345,183.8279c-.2588-.1748-.4609-.4258-.6055-.7539s-.2168-.7139-.2168-1.1582,.0723-.8301,.2168-1.1582c.1445-.3271,.3467-.5791,.6055-.7549,.2588-.1748,.5527-.2627,.8828-.2627s.624,.0879,.8828,.2627c.2588,.1758,.4609,.4277,.6084,.7549,.1465,.3281,.2197,.7139,.2197,1.1582s-.0732,.8301-.2197,1.1582c-.1475,.3281-.3496,.5791-.6084,.7539-.2588,.1758-.5527,.2637-.8828,.2637s-.624-.0879-.8828-.2637Zm1.54-.3477c.1895-.1387,.3369-.3398,.4424-.6055,.1064-.2646,.1592-.584,.1592-.959s-.0527-.6943-.1592-.959c-.1055-.2656-.2529-.4668-.4424-.6055s-.4092-.208-.6572-.208c-.249,0-.4678,.0693-.6572,.208s-.3369,.3398-.4424,.6055c-.1064,.2646-.1592,.584-.1592,.959s.0527,.6943,.1592,.959c.1055,.2656,.2529,.4668,.4424,.6055s.4082,.208,.6572,.208c.248,0,.4678-.0693,.6572-.208Z"/><path d="M155.088,179.7772v4.2773h-.4395v-3.8867h-1.0088v-.3906h1.4482Z"/><path d="M159.1241,182.2156c.1445,.1787,.2168,.3945,.2168,.6475,0,.248-.0674,.4648-.2012,.6504-.1348,.1855-.3271,.3281-.5781,.4277-.25,.1006-.5449,.1504-.8828,.1504-.5137,0-.917-.1104-1.21-.3301-.293-.2207-.4395-.5195-.4395-.8984,0-.2568,.0703-.4736,.21-.6514,.1406-.1768,.3457-.3105,.6143-.3994-.2197-.0859-.3867-.209-.501-.3701s-.1709-.3516-.1709-.5713c0-.3467,.1357-.6211,.4062-.8252,.2705-.2031,.6348-.3057,1.0908-.3057,.3018,0,.5654,.0459,.791,.1377,.2266,.0918,.4023,.2236,.5293,.3945,.126,.1709,.1895,.3701,.1895,.5986,0,.2197-.0596,.4102-.1777,.5713s-.2871,.2842-.5068,.3701c.2686,.0889,.4756,.2236,.6201,.4033Zm-.5566,1.2705c.2139-.1543,.3213-.3643,.3213-.6289,0-.2656-.1074-.4736-.3213-.627-.2139-.1523-.5098-.2285-.8887-.2285-.375,0-.6689,.0762-.8828,.2285-.2139,.1533-.3213,.3613-.3213,.627,0,.2686,.1064,.4795,.3184,.6318,.2119,.1533,.5068,.2295,.8857,.2295s.6748-.0771,.8887-.2324Zm-1.665-2.041c.1875,.1387,.4463,.208,.7764,.208s.5898-.0693,.7793-.208,.2842-.3232,.2842-.5557c0-.2402-.0967-.4297-.29-.5684-.1943-.1387-.4512-.208-.7734-.208-.3262,0-.584,.0693-.7725,.208-.1895,.1387-.2842,.3262-.2842,.5625,0,.2354,.0928,.4229,.2803,.5615Z"/></g><g><path d="M184.6202,183.6639v.3906h-3.001v-.3115l1.7783-1.7412c.2236-.2207,.376-.4111,.4551-.5713,.0801-.1611,.1191-.3232,.1191-.4863,0-.2529-.0859-.4492-.2598-.5898-.1729-.1406-.4199-.2109-.7422-.2109-.501,0-.8896,.1592-1.167,.4766l-.3115-.2686c.167-.1953,.3799-.3457,.6387-.4521,.2588-.1055,.5508-.1592,.877-.1592,.4355,0,.7812,.1035,1.0352,.3086,.2549,.2061,.3818,.4883,.3818,.8467,0,.2197-.0488,.4316-.1465,.6357-.0977,.2031-.2832,.4375-.5557,.7021l-1.4541,1.4307h2.3525Z"/><path d="M185.9366,183.8279c-.2588-.1748-.4609-.4258-.6055-.7539s-.2168-.7139-.2168-1.1582,.0723-.8301,.2168-1.1582c.1445-.3271,.3467-.5791,.6055-.7549,.2588-.1748,.5527-.2627,.8828-.2627s.624,.0879,.8828,.2627c.2588,.1758,.4609,.4277,.6084,.7549,.1465,.3281,.2197,.7139,.2197,1.1582s-.0732,.8301-.2197,1.1582c-.1475,.3281-.3496,.5791-.6084,.7539-.2588,.1758-.5527,.2637-.8828,.2637s-.624-.0879-.8828-.2637Zm1.54-.3477c.1895-.1387,.3369-.3398,.4424-.6055,.1064-.2646,.1592-.584,.1592-.959s-.0527-.6943-.1592-.959c-.1055-.2656-.2529-.4668-.4424-.6055s-.4092-.208-.6572-.208c-.249,0-.4678,.0693-.6572,.208s-.3369,.3398-.4424,.6055c-.1064,.2646-.1592,.584-.1592,.959s.0527,.6943,.1592,.959c.1055,.2656,.2529,.4668,.4424,.6055s.4082,.208,.6572,.208c.248,0,.4678-.0693,.6572-.208Z"/><path d="M190.2902,179.7772v4.2773h-.4395v-3.8867h-1.0088v-.3906h1.4482Z"/><path d="M193.8888,180.2996c.3018,.373,.4531,.8994,.4531,1.5791,0,.4775-.082,.8799-.2451,1.21s-.3906,.5801-.6846,.749c-.293,.1689-.6348,.2539-1.0264,.2539-.4238,0-.7617-.0781-1.0137-.2324l.1768-.3545c.2041,.1348,.4805,.2012,.8311,.2012,.4727,0,.8428-.1494,1.1123-.4492,.2686-.2988,.4033-.7334,.4033-1.3037,0-.1064-.0068-.2227-.0186-.3486-.1064,.2324-.2754,.4121-.5068,.541-.2324,.1279-.499,.1924-.8008,.1924-.2812,0-.5303-.0527-.749-.1592-.2178-.1055-.3877-.2559-.5098-.4492s-.1836-.418-.1836-.6748c0-.2607,.0635-.4912,.1895-.6904,.126-.2002,.3008-.3535,.5225-.4619,.2217-.1074,.4717-.1621,.749-.1621,.5654,0,1,.1865,1.3008,.5596Zm-.6807,1.543c.165-.0811,.2939-.1934,.3877-.3359s.1406-.3018,.1406-.4766c0-.1631-.0439-.3135-.1309-.4521-.0879-.1387-.2178-.251-.3887-.3359-.1709-.0859-.375-.1289-.6113-.1289-.3096,0-.5605,.085-.7539,.2539s-.291,.3936-.291,.6748,.0977,.5049,.291,.6719c.1934,.168,.4551,.251,.7852,.251,.2158,0,.4062-.041,.5713-.1221Z"/></g><g><path d="M219.1349,183.6639v.3906h-3v-.3115l1.7783-1.7412c.2236-.2207,.375-.4111,.4551-.5713,.0791-.1611,.1191-.3232,.1191-.4863,0-.2529-.0869-.4492-.2598-.5898s-.4209-.2109-.7422-.2109c-.501,0-.8906,.1592-1.168,.4766l-.3115-.2686c.167-.1953,.3799-.3457,.6387-.4521,.2588-.1055,.5508-.1592,.877-.1592,.4355,0,.7812,.1035,1.0361,.3086,.2539,.2061,.3818,.4883,.3818,.8467,0,.2197-.0488,.4316-.1465,.6357-.0977,.2031-.2832,.4375-.5566,.7021l-1.4541,1.4307h2.3525Z"/><path d="M220.4513,183.8279c-.2588-.1748-.46-.4258-.6045-.7539s-.2168-.7139-.2168-1.1582,.0723-.8301,.2168-1.1582c.1445-.3271,.3457-.5791,.6045-.7549,.2588-.1748,.5527-.2627,.8828-.2627s.625,.0879,.8838,.2627c.2578,.1758,.4609,.4277,.6074,.7549,.1465,.3281,.2197,.7139,.2197,1.1582s-.0732,.8301-.2197,1.1582-.3496,.5791-.6074,.7539c-.2588,.1758-.5537,.2637-.8838,.2637s-.624-.0879-.8828-.2637Zm1.54-.3477c.1895-.1387,.3369-.3398,.4434-.6055,.1055-.2646,.1582-.584,.1582-.959s-.0527-.6943-.1582-.959c-.1064-.2656-.2539-.4668-.4434-.6055s-.4082-.208-.6572-.208c-.248,0-.4668,.0693-.6562,.208s-.3369,.3398-.4434,.6055c-.1055,.2646-.1592,.584-.1592,.959s.0537,.6943,.1592,.959c.1064,.2656,.2539,.4668,.4434,.6055s.4082,.208,.6562,.208c.249,0,.4678-.0693,.6572-.208Z"/><path d="M226.5411,183.6639v.3906h-3.001v-.3115l1.7783-1.7412c.2236-.2207,.376-.4111,.4551-.5713,.0801-.1611,.1191-.3232,.1191-.4863,0-.2529-.0859-.4492-.2598-.5898-.1729-.1406-.4199-.2109-.7422-.2109-.501,0-.8896,.1592-1.167,.4766l-.3115-.2686c.167-.1953,.3799-.3457,.6387-.4521,.2588-.1055,.5508-.1592,.877-.1592,.4355,0,.7812,.1035,1.0352,.3086,.2549,.2061,.3818,.4883,.3818,.8467,0,.2197-.0488,.4316-.1465,.6357-.0977,.2031-.2832,.4375-.5557,.7021l-1.4541,1.4307h2.3525Z"/><path d="M227.8575,183.8279c-.2588-.1748-.46-.4258-.6045-.7539s-.2168-.7139-.2168-1.1582,.0723-.8301,.2168-1.1582c.1445-.3271,.3457-.5791,.6045-.7549,.2588-.1748,.5527-.2627,.8828-.2627s.625,.0879,.8838,.2627c.2578,.1758,.4609,.4277,.6074,.7549,.1465,.3281,.2197,.7139,.2197,1.1582s-.0732,.8301-.2197,1.1582-.3496,.5791-.6074,.7539c-.2588,.1758-.5537,.2637-.8838,.2637s-.624-.0879-.8828-.2637Zm1.54-.3477c.1895-.1387,.3369-.3398,.4434-.6055,.1055-.2646,.1582-.584,.1582-.959s-.0527-.6943-.1582-.959c-.1064-.2656-.2539-.4668-.4434-.6055s-.4082-.208-.6572-.208c-.248,0-.4668,.0693-.6562,.208s-.3369,.3398-.4434,.6055c-.1055,.2646-.1592,.584-.1592,.959s.0537,.6943,.1592,.959c.1064,.2656,.2539,.4668,.4434,.6055s.4082,.208,.6562,.208c.249,0,.4678-.0693,.6572-.208Z"/></g><g><path d="M255.0919,183.6639v.3906h-3v-.3115l1.7783-1.7412c.2236-.2207,.375-.4111,.4551-.5713,.0791-.1611,.1191-.3232,.1191-.4863,0-.2529-.0869-.4492-.2598-.5898s-.4209-.2109-.7422-.2109c-.501,0-.8906,.1592-1.168,.4766l-.3115-.2686c.167-.1953,.3799-.3457,.6387-.4521,.2588-.1055,.5508-.1592,.877-.1592,.4355,0,.7812,.1035,1.0361,.3086,.2539,.2061,.3818,.4883,.3818,.8467,0,.2197-.0488,.4316-.1465,.6357-.0977,.2031-.2832,.4375-.5566,.7021l-1.4541,1.4307h2.3525Z"/><path d="M256.4083,183.8279c-.2588-.1748-.46-.4258-.6045-.7539s-.2168-.7139-.2168-1.1582,.0723-.8301,.2168-1.1582c.1445-.3271,.3457-.5791,.6045-.7549,.2588-.1748,.5527-.2627,.8828-.2627s.625,.0879,.8838,.2627c.2578,.1758,.4609,.4277,.6074,.7549,.1465,.3281,.2197,.7139,.2197,1.1582s-.0732,.8301-.2197,1.1582-.3496,.5791-.6074,.7539c-.2588,.1758-.5537,.2637-.8838,.2637s-.624-.0879-.8828-.2637Zm1.54-.3477c.1895-.1387,.3369-.3398,.4434-.6055,.1055-.2646,.1582-.584,.1582-.959s-.0527-.6943-.1582-.959c-.1064-.2656-.2539-.4668-.4434-.6055s-.4082-.208-.6572-.208c-.248,0-.4668,.0693-.6562,.208s-.3369,.3398-.4434,.6055c-.1055,.2646-.1592,.584-.1592,.959s.0537,.6943,.1592,.959c.1064,.2656,.2539,.4668,.4434,.6055s.4082,.208,.6562,.208c.249,0,.4678-.0693,.6572-.208Z"/><path d="M262.4982,183.6639v.3906h-3.001v-.3115l1.7783-1.7412c.2236-.2207,.376-.4111,.4551-.5713,.0801-.1611,.1191-.3232,.1191-.4863,0-.2529-.0859-.4492-.2598-.5898-.1729-.1406-.4199-.2109-.7422-.2109-.501,0-.8896,.1592-1.167,.4766l-.3115-.2686c.167-.1953,.3799-.3457,.6387-.4521,.2588-.1055,.5508-.1592,.877-.1592,.4355,0,.7812,.1035,1.0352,.3086,.2549,.2061,.3818,.4883,.3818,.8467,0,.2197-.0488,.4316-.1465,.6357-.0977,.2031-.2832,.4375-.5557,.7021l-1.4541,1.4307h2.3525Z"/><path d="M264.172,179.7772v4.2773h-.4395v-3.8867h-1.0088v-.3906h1.4482Z"/></g><polyline class="cls-5" points="2.6692 119.1381 11.6177 91.4582 20.4247 86.2276 29.2317 115.4883 38.0388 95.4737 46.8449 110.6008 55.6519 127.3035 64.6004 101.0744 73.266 110.6008 82.073 125.0766 90.8801 117.2202 99.6871 127.2049 108.4941 95.4737 117.3011 99.9606 126.1082 101.5345 134.9152 97.1646 143.7223 88.8507 152.5293 93.2556 161.3363 94.2944 170.1433 99.3426 178.9504 107.6075 187.7565 92.167 196.705 82.0707 205.3706 82.1449 214.1776 83.8026 222.9846 129.9022 231.7917 117.8016 240.5987 96.7316 249.4057 117.455 258.2127 58.2169 267.0198 47.0818 275.8268 92.3146"/><line class="cls-1" x1="2.8105" y1="147.8315" x2="2.8105" y2="4.9815"/><line class="cls-1" x1="11.6259" y1="147.8315" x2="11.6259" y2="4.9815"/><line class="cls-1" x1="20.4405" y1="147.8315" x2="20.4405" y2="4.9815"/><line class="cls-1" x1="38.0712" y1="147.8315" x2="38.0712" y2="4.9815"/><line class="cls-1" x1="46.8861" y1="147.8315" x2="46.8861" y2="4.9815"/><line class="cls-1" x1="55.7014" y1="147.8315" x2="55.7014" y2="4.9815"/><line class="cls-2" x1="2.6692" y1="96.3419" x2="277.0092" y2="96.3419"/><line class="cls-1" x1="73.3317" y1="147.8315" x2="73.3317" y2="4.9815"/><line class="cls-1" x1="82.147" y1="147.8315" x2="82.147" y2="4.9815"/><line class="cls-1" x1="90.9621" y1="147.8315" x2="90.9621" y2="4.9815"/><line class="cls-1" x1="108.5924" y1="147.8315" x2="108.5924" y2="4.9815"/><line class="cls-1" x1="117.4077" y1="147.8315" x2="117.4077" y2="4.9815"/><line class="cls-1" x1="126.2226" y1="147.8315" x2="126.2226" y2="4.9815"/><line class="cls-1" x1="143.8533" y1="147.8315" x2="143.8533" y2="4.9815"/><line class="cls-1" x1="152.6682" y1="147.8315" x2="152.6682" y2="4.9815"/><line class="cls-1" x1="161.4833" y1="147.8315" x2="161.4833" y2="4.9815"/><line class="cls-1" x1="179.1135" y1="147.8315" x2="179.1135" y2="4.9815"/><line class="cls-1" x1="187.9289" y1="147.8315" x2="187.9289" y2="4.9815"/><line class="cls-1" x1="196.7442" y1="147.8315" x2="196.7442" y2="4.9815"/><line class="cls-1" x1="214.3744" y1="147.8315" x2="214.3744" y2="4.9815"/><line class="cls-1" x1="223.1898" y1="147.8315" x2="223.1898" y2="4.9815"/><line class="cls-1" x1="232.0045" y1="147.8315" x2="232.0045" y2="4.9815"/><line class="cls-1" x1="249.6351" y1="147.8315" x2="249.6351" y2="4.9815"/><line class="cls-1" x1="258.4499" y1="147.8315" x2="258.4499" y2="4.9815"/><line class="cls-1" x1="267.2654" y1="147.8315" x2="267.2654" y2="4.9815"/></g><rect class="cls-6" y=".3483" width="108.5924" height="36.3871"/><path class="cls-8" d="M3.66,6.6251c0-1.2469,1.0105-2.2574,2.2574-2.2574h7.6735c1.247,0,2.2574,1.0105,2.2574,2.2574s-1.0105,2.2574-2.2574,2.2574H5.9174c-1.247,0-2.2574-1.0105-2.2574-2.2574"/><text class="cls-10" transform="translate(19.9677 8.0232)"><tspan x="0" y="0">  -</tspan><tspan x="0" y="6.667"> ,   , %</tspan></text><path class="cls-9" d="M3.66,24.0492c0-1.2469,1.0105-2.2574,2.2574-2.2574h7.6735c1.247,0,2.2574,1.0105,2.2574,2.2574s-1.0105,2.2574-2.2574,2.2574H5.9174c-1.247,0-2.2574-1.0105-2.2574-2.2574"/><text class="cls-10" transform="translate(19.9677 25.4461)"><tspan x="0" y="0">  </tspan><tspan x="0" y="6.667">,   , %</tspan></text></svg>