<?xml version="1.0" encoding="UTF-8"?><svg id="Layer_1" xmlns="http://www.w3.org/2000/svg" viewBox="0 0 339.9832 205.3148"><defs><style>.cls-1{stroke-dasharray:0 0 0 2;}.cls-1,.cls-2,.cls-3{stroke-linecap:round;}.cls-1,.cls-2,.cls-3,.cls-4,.cls-5{fill:none;}.cls-1,.cls-3{opacity:.5;stroke:#858585;stroke-linejoin:round;}.cls-1,.cls-4,.cls-5{stroke-width:.5px;}.cls-6{fill:#f4f4f4;}.cls-7{fill:#858585;}.cls-8{fill:#222;}.cls-2{stroke:#000;stroke-linejoin:bevel;stroke-width:.3px;}.cls-3{stroke-width:.25px;}.cls-4{stroke:#222221;}.cls-5{stroke:#e30510;stroke-miterlimit:10;}</style></defs><rect class="cls-6" x=".2057" width="339.7775" height="205.257"/><g><path class="cls-8" d="M2.7238,2.3004c.2246,.1001,.3975,.2437,.5176,.4302s.1797,.4082,.1797,.665c0,.2534-.0596,.4741-.1797,.6626-.1201,.188-.293,.3325-.5176,.4321-.2246,.1001-.4893,.1504-.792,.1504h-.79v1.0098H.4913V2.1505H1.9318c.3027,0,.5674,.0498,.792,.1499Zm-.1777,1.6099c.1465-.1196,.2207-.2915,.2207-.5146,0-.2236-.0742-.395-.2207-.5151s-.3613-.1802-.6445-.1802h-.7598v1.3901h.7598c.2832,0,.498-.0601,.6445-.1802Z"/><path class="cls-8" d="M6.7316,5.1056v.5449h-2.625V2.1505h2.5547v.5449h-1.9053v.9102h1.6904v.5352h-1.6904v.9648h1.9756Z"/><path class="cls-8" d="M9.796,4.8405h-1.75l-.3447,.8101h-.6699l1.5752-3.5h.6396l1.5801,3.5h-.6797l-.3506-.8101Zm-.2148-.5098l-.6602-1.5303-.6553,1.5303h1.3154Z"/><path class="cls-8" d="M14.3712,2.1505v3.5h-.6396V2.7003h-1.3799l-.0303,.875c-.0166,.4902-.0566,.8877-.1201,1.1929-.0635,.3047-.165,.5366-.3047,.6948s-.333,.2373-.5801,.2373c-.0869,0-.2051-.0166-.3555-.0498l.0459-.5649c.043,.0132,.0928,.02,.1494,.02,.2031,0,.3477-.1211,.4326-.3628,.085-.2412,.1377-.6221,.1572-1.1421l.0498-1.4502h2.5752Z"/><path class="cls-8" d="M17.9581,3.6178c.2256,.1885,.3379,.4678,.3379,.8379,0,.3867-.123,.6821-.3701,.8872-.2461,.2051-.5928,.3076-1.04,.3076h-1.5049V2.1505h.6396v1.1851h.9707c.4199,0,.7422,.0942,.9668,.2822Zm-.5166,1.3579c.1357-.1167,.2041-.2866,.2041-.5103,0-.4233-.2627-.6348-.7891-.6348h-.8359v1.3198h.8359c.2529,0,.4482-.0581,.585-.1748Z"/><path class="cls-8" d="M22.0909,2.1505v3.5h-.6494v-1.5h-1.8105v1.5h-.6494V2.1505h.6494v1.4448h1.8105v-1.4448h.6494Z"/><path class="cls-8" d="M25.4113,4.8405h-1.75l-.3447,.8101h-.6699l1.5752-3.5h.6396l1.5801,3.5h-.6797l-.3506-.8101Zm-.2148-.5098l-.6602-1.5303-.6553,1.5303h1.3154Z"/><path class="cls-8" d="M29.671,2.1505v3.5h-.6396v-.9751h-.9355l-.6494,.9751h-.6855l.75-1.0801c-.2432-.0898-.4307-.2324-.5625-.4272-.1318-.1953-.1973-.4312-.1973-.7075,0-.2666,.0605-.4966,.1797-.6899,.1201-.1934,.29-.3408,.5107-.4429,.2197-.1016,.4775-.1523,.7744-.1523h1.4551Zm-2.0469,.7349c-.1426,.1235-.2129,.3037-.2129,.54,0,.23,.0684,.4077,.2051,.5327s.335,.1875,.5947,.1875h.8203v-1.4453h-.7949c-.2666,0-.4707,.062-.6123,.1851Z"/><path class="cls-8" d="M34.4083,4.1481c.1191,.1484,.1777,.3223,.1777,.5225,0,.21-.0684,.3926-.2051,.5474-.1367,.1553-.3193,.2744-.5469,.3574-.2285,.0835-.4775,.125-.748,.125-.2334,0-.4668-.0322-.7021-.0972s-.4521-.1626-.6523-.2925l.21-.4751c.1533,.1035,.3232,.1826,.5098,.2373,.1865,.0552,.3721,.0825,.5547,.0825,.2637,0,.4824-.0518,.6582-.1548,.1748-.1035,.2617-.2451,.2617-.4253,0-.1533-.0625-.27-.1895-.3496-.127-.0801-.3018-.1201-.5254-.1201h-.8145v-.5103h.7646c.1934,0,.3447-.04,.4551-.1196,.1104-.0801,.165-.1885,.165-.3252,0-.1631-.0742-.29-.2227-.3799-.1484-.0903-.3379-.1353-.5674-.1353-.1572,0-.3184,.0225-.4854,.0679-.166,.0449-.3232,.1108-.4697,.1973l-.2051-.5249c.1797-.0967,.3711-.1694,.5723-.2178,.2021-.0483,.4033-.0723,.6025-.0723,.2607,0,.499,.04,.7178,.1201,.2188,.0796,.3926,.1938,.5225,.3423s.1953,.3228,.1953,.5225c0,.1733-.0469,.3252-.1406,.4551-.0928,.1299-.2217,.23-.3848,.2998,.21,.0669,.374,.1743,.4922,.3228Z"/><path class="cls-8" d="M37.6613,4.8405h-1.75l-.3457,.8101h-.6699l1.5752-3.5h.6396l1.5801,3.5h-.6797l-.3496-.8101Zm-.2148-.5098l-.6602-1.5303-.6553,1.5303h1.3154Z"/><path class="cls-8" d="M41.4786,2.3004c.2246,.1001,.3975,.2437,.5176,.4302,.1191,.1865,.1797,.4082,.1797,.665,0,.2534-.0605,.4741-.1797,.6626-.1201,.188-.293,.3325-.5176,.4321-.2256,.1001-.4893,.1504-.793,.1504h-.79v1.0098h-.6494V2.1505h1.4395c.3037,0,.5674,.0498,.793,.1499Zm-.1777,1.6099c.1465-.1196,.2197-.2915,.2197-.5146,0-.2236-.0732-.395-.2197-.5151s-.3623-.1802-.6455-.1802h-.7598v1.3901h.7598c.2832,0,.499-.0601,.6455-.1802Z"/><path class="cls-8" d="M45.1808,4.8405h-1.75l-.3447,.8101h-.6699l1.5752-3.5h.6396l1.5801,3.5h-.6797l-.3506-.8101Zm-.2148-.5098l-.6602-1.5303-.6553,1.5303h1.3154Z"/><path class="cls-8" d="M46.7706,2.1505h2.7256v.5352h-2.0859v.8599h1.0352c.4199,0,.7393,.0874,.958,.2627,.2178,.1748,.3271,.4272,.3271,.7573,0,.3467-.1201,.6143-.3594,.8022-.2402,.1885-.582,.2827-1.0254,.2827h-1.5752V2.1505Zm1.54,3c.25,0,.4404-.0483,.5703-.145s.1943-.2368,.1943-.4199c0-.3599-.2549-.54-.7646-.54h-.9004v1.105h.9004Z"/><path class="cls-8" d="M51.1163,5.4679c-.2871-.1548-.5117-.3701-.6748-.645-.1641-.2749-.2451-.5825-.2451-.9224s.0811-.6475,.2451-.9224c.1631-.2749,.3877-.4902,.6748-.645,.2861-.1553,.6084-.2324,.9648-.2324s.6777,.0771,.9648,.2324c.2871,.1548,.5117,.3691,.6748,.6426,.1631,.2729,.2451,.5815,.2451,.9248s-.082,.6519-.2451,.9248c-.1631,.2734-.3877,.4878-.6748,.6426-.2871,.1553-.6084,.2324-.9648,.2324s-.6787-.0771-.9648-.2324Zm1.5947-.4951c.1865-.105,.333-.2515,.4404-.4399,.1064-.188,.1592-.3989,.1592-.6323s-.0527-.4443-.1592-.6323c-.1074-.1885-.2539-.335-.4404-.4399-.1865-.1055-.3965-.1577-.6299-.1577s-.4434,.0522-.6299,.1577c-.1865,.105-.334,.2515-.4404,.4399-.1064,.188-.1602,.3989-.1602,.6323s.0537,.4443,.1602,.6323c.1064,.1885,.2539,.335,.4404,.4399,.1865,.1055,.3965,.1577,.6299,.1577s.4434-.0522,.6299-.1577Z"/><path class="cls-8" d="M57.2452,2.7003h-1.1592v2.9502h-.6455V2.7003h-1.1553v-.5498h2.96v.5498Z"/><path class="cls-8" d="M60.9357,2.1505v3.5h-.6494v-1.5h-1.8105v1.5h-.6494V2.1505h.6494v1.4448h1.8105v-1.4448h.6494Z"/><path class="cls-8" d="M64.256,4.8405h-1.75l-.3457,.8101h-.6699l1.5752-3.5h.6396l1.5801,3.5h-.6797l-.3496-.8101Zm-.2148-.5098l-.6602-1.5303-.6553,1.5303h1.3154Z"/><path class="cls-8" d="M68.5157,2.1505v3.5h-.6406v-.9751h-.9346l-.6504,.9751h-.6846l.75-1.0801c-.2432-.0898-.4307-.2324-.5625-.4272-.1318-.1953-.1973-.4312-.1973-.7075,0-.2666,.0596-.4966,.1797-.6899s.29-.3408,.5098-.4429c.2197-.1016,.4785-.1523,.7754-.1523h1.4551Zm-2.0479,.7349c-.1416,.1235-.2129,.3037-.2129,.54,0,.23,.0684,.4077,.2051,.5327s.335,.1875,.5957,.1875h.8193v-1.4453h-.7949c-.2666,0-.4707,.062-.6123,.1851Z"/><path class="cls-8" d="M74.0206,2.1505v3.5h-.6396V2.7003h-1.8154v2.9502h-.6396V2.1505h3.0947Z"/><path class="cls-8" d="M78.0157,2.1505v3.5h-.6406V2.7003h-1.3799l-.0293,.875c-.0176,.4902-.0576,.8877-.1201,1.1929-.0635,.3047-.165,.5366-.3057,.6948-.1396,.1582-.333,.2373-.5801,.2373-.0859,0-.2041-.0166-.3545-.0498l.0449-.5649c.043,.0132,.0938,.02,.1504,.02,.2031,0,.3467-.1211,.4316-.3628,.0859-.2412,.1377-.6221,.1582-1.1421l.0498-1.4502h2.5752Z"/><path class="cls-8" d="M81.3409,4.8405h-1.75l-.3457,.8101h-.6699l1.5752-3.5h.6396l1.5801,3.5h-.6797l-.3496-.8101Zm-.2148-.5098l-.6602-1.5303-.6553,1.5303h1.3154Z"/><path class="cls-8" d="M85.465,2.7003h-1.1592v2.9502h-.6455V2.7003h-1.1553v-.5498h2.96v.5498Z"/><path class="cls-8" d="M88.3654,4.8405h-1.75l-.3447,.8101h-.6699l1.5752-3.5h.6396l1.5801,3.5h-.6797l-.3506-.8101Zm-.2148-.5098l-.6602-1.5303-.6553,1.5303h1.3154Z"/><path class="cls-8" d="M.4962,8.4005h.6396v2.4849l1.8809-2.4849h.6045v3.5h-.6396v-2.48l-1.8799,2.48H.4962v-3.5Z"/><path class="cls-8" d="M8.254,8.5504c.2246,.1001,.3975,.2437,.5176,.4302,.1191,.1865,.1797,.4082,.1797,.665,0,.2534-.0605,.4741-.1797,.6626-.1201,.188-.293,.3325-.5176,.4321-.2256,.1001-.4893,.1504-.793,.1504h-.79v1.0098h-.6494v-3.5h1.4395c.3037,0,.5674,.0498,.793,.1499Zm-.1777,1.6099c.1465-.1196,.2197-.2915,.2197-.5146,0-.2236-.0732-.395-.2197-.5151s-.3623-.1802-.6455-.1802h-.7598v1.3901h.7598c.2832,0,.499-.0601,.6455-.1802Z"/><path class="cls-8" d="M11.9562,11.0905h-1.75l-.3447,.8101h-.6699l1.5752-3.5h.6396l1.5801,3.5h-.6797l-.3506-.8101Zm-.2148-.5098l-.6602-1.5303-.6553,1.5303h1.3154Z"/><path class="cls-8" d="M14.1935,11.7179c-.2852-.1548-.5078-.3691-.6699-.6426-.1621-.2729-.2422-.5815-.2422-.9248s.0811-.6519,.2451-.9248c.1631-.2734,.3867-.4878,.6719-.6426,.2852-.1553,.6045-.2324,.958-.2324,.2861,0,.5479,.0498,.7852,.1499,.2363,.1001,.4365,.2451,.5996,.4351l-.4199,.395c-.2539-.2734-.5654-.4102-.9355-.4102-.2393,0-.4541,.0522-.6445,.1577-.1904,.105-.3379,.2505-.4453,.4375-.1064,.1865-.1602,.3979-.1602,.6348s.0537,.4482,.1602,.6348c.1074,.187,.2549,.3325,.4453,.4375,.1904,.1055,.4053,.1577,.6445,.1577,.3701,0,.6816-.1382,.9355-.415l.4199,.3999c-.1631,.1899-.3643,.335-.6025,.4351s-.501,.1499-.7871,.1499c-.3535,0-.6729-.0771-.958-.2324Z"/><path class="cls-8" d="M20.2657,8.4005v3.5h-.6396v-2.9502h-1.8154v2.9502h-.6396v-3.5h3.0947Z"/><path class="cls-8" d="M21.9259,11.7179c-.2861-.1548-.5117-.3701-.6748-.645s-.2451-.5825-.2451-.9224,.082-.6475,.2451-.9224,.3887-.4902,.6748-.645c.2871-.1553,.6084-.2324,.9648-.2324,.3574,0,.6787,.0771,.9658,.2324,.2861,.1548,.5107,.3691,.6748,.6426,.1631,.2729,.2451,.5815,.2451,.9248s-.082,.6519-.2451,.9248c-.1641,.2734-.3887,.4878-.6748,.6426-.2871,.1553-.6084,.2324-.9658,.2324-.3564,0-.6777-.0771-.9648-.2324Zm1.5957-.4951c.1865-.105,.333-.2515,.4395-.4399,.1064-.188,.1602-.3989,.1602-.6323s-.0537-.4443-.1602-.6323c-.1064-.1885-.2529-.335-.4395-.4399-.1875-.1055-.3975-.1577-.6309-.1577s-.4434,.0522-.6299,.1577c-.1865,.105-.333,.2515-.4395,.4399-.1074,.188-.1602,.3989-.1602,.6323s.0527,.4443,.1602,.6323c.1064,.1885,.2529,.335,.4395,.4399,.1865,.1055,.3965,.1577,.6299,.1577s.4434-.0522,.6309-.1577Z"/><path class="cls-8" d="M28.506,8.4005v3.5h-.6406v-2.9502h-1.3799l-.0293,.875c-.0176,.4902-.0576,.8877-.1201,1.1929-.0635,.3047-.165,.5366-.3057,.6948-.1396,.1582-.333,.2373-.5801,.2373-.0859,0-.2041-.0166-.3545-.0498l.0449-.5649c.043,.0132,.0938,.02,.1504,.02,.2031,0,.3467-.1211,.4316-.3628,.0859-.2412,.1377-.6221,.1582-1.1421l.0498-1.4502h2.5752Z"/><path class="cls-8" d="M31.8312,11.0905h-1.75l-.3457,.8101h-.6699l1.5752-3.5h.6396l1.5801,3.5h-.6797l-.3496-.8101Zm-.2148-.5098l-.6602-1.5303-.6553,1.5303h1.3154Z"/><path class="cls-8" d="M35.7911,8.9503h-1.7354l.0049,2.9502h-.6396v-3.5h2.375l-.0049,.5498Z"/><path class="cls-8" d="M38.6808,11.0905h-1.75l-.3447,.8101h-.6699l1.5752-3.5h.6396l1.5801,3.5h-.6797l-.3506-.8101Zm-.2148-.5098l-.6602-1.5303-.6553,1.5303h1.3154Z"/><path class="cls-8" d="M42.8907,11.3556v.5449h-2.625v-3.5h2.5547v.5449h-1.9043v.9102h1.6895v.5352h-1.6895v.9648h1.9746Z"/><path class="cls-8" d="M46.8507,11.9005l-.0049-2.3198-1.1504,1.9199h-.29l-1.1494-1.8901v2.29h-.6152v-3.5h.5352l1.3848,2.3149,1.3701-2.3149h.5303l.0098,3.5h-.6201Z"/><path class="cls-8" d="M51.0529,9.8678c.2256,.1885,.3379,.4678,.3379,.8379,0,.3867-.123,.6821-.3701,.8872-.2461,.2051-.5928,.3076-1.04,.3076h-1.5049v-3.5h.6396v1.1851h.9707c.4199,0,.7422,.0942,.9668,.2822Zm-.5166,1.3579c.1357-.1167,.2041-.2866,.2041-.5103,0-.4233-.2627-.6348-.7891-.6348h-.8359v1.3198h.8359c.2529,0,.4482-.0581,.585-.1748Zm1.3594-2.8252h.6406v3.5h-.6406v-3.5Z"/><path class="cls-8" d="M56.1661,11.3556v.5449h-2.625v-3.5h2.5547v.5449h-1.9053v.9102h1.6904v.5352h-1.6904v.9648h1.9756Z"/><path class="cls-8" d="M61.7804,11.3507v1.2949h-.5996v-.7451h-2.6855v.7451h-.6045l.0049-1.2949h.1504c.2197-.0103,.374-.1729,.4619-.4878,.0889-.3149,.1426-.7656,.1631-1.3525l.04-1.1099h2.5645v2.9502h.5049Zm-2.6494-.6475c-.0566,.3013-.1475,.5171-.2705,.6475h1.7754v-2.4004h-1.3701l-.0254,.6201c-.0166,.4536-.0527,.8311-.1094,1.1328Z"/><path class="cls-8" d="M63.0655,11.7179c-.2861-.1548-.5117-.3701-.6748-.645s-.2451-.5825-.2451-.9224,.082-.6475,.2451-.9224,.3887-.4902,.6748-.645c.2871-.1553,.6084-.2324,.9648-.2324,.3574,0,.6787,.0771,.9658,.2324,.2861,.1548,.5107,.3691,.6748,.6426,.1631,.2729,.2451,.5815,.2451,.9248s-.082,.6519-.2451,.9248c-.1641,.2734-.3887,.4878-.6748,.6426-.2871,.1553-.6084,.2324-.9658,.2324-.3564,0-.6777-.0771-.9648-.2324Zm1.5957-.4951c.1865-.105,.333-.2515,.4395-.4399,.1064-.188,.1602-.3989,.1602-.6323s-.0537-.4443-.1602-.6323c-.1064-.1885-.2529-.335-.4395-.4399-.1875-.1055-.3975-.1577-.6309-.1577s-.4434,.0522-.6299,.1577c-.1865,.105-.333,.2515-.4395,.4399-.1074,.188-.1602,.3989-.1602,.6323s.0527,.4443,.1602,.6323c.1064,.1885,.2529,.335,.4395,.4399,.1865,.1055,.3965,.1577,.6299,.1577s.4434-.0522,.6309-.1577Z"/><path class="cls-8" d="M67.0607,8.4005l.8252,1.1699,.8242-1.1699h.7607l-1.1758,1.6802,1.2705,1.8198h-.7705l-.9092-1.2749-.9053,1.2749h-.75l1.2646-1.7949-1.1846-1.7051h.75Z"/><path class="cls-8" d="M70.7902,11.7179c-.2861-.1548-.5117-.3701-.6748-.645s-.2451-.5825-.2451-.9224,.082-.6475,.2451-.9224,.3887-.4902,.6748-.645c.2871-.1553,.6084-.2324,.9648-.2324,.3574,0,.6787,.0771,.9658,.2324,.2861,.1548,.5107,.3691,.6748,.6426,.1631,.2729,.2451,.5815,.2451,.9248s-.082,.6519-.2451,.9248c-.1641,.2734-.3887,.4878-.6748,.6426-.2871,.1553-.6084,.2324-.9658,.2324-.3564,0-.6777-.0771-.9648-.2324Zm1.5957-.4951c.1865-.105,.333-.2515,.4395-.4399,.1064-.188,.1602-.3989,.1602-.6323s-.0537-.4443-.1602-.6323c-.1064-.1885-.2529-.335-.4395-.4399-.1875-.1055-.3975-.1577-.6309-.1577s-.4434,.0522-.6299,.1577c-.1865,.105-.333,.2515-.4395,.4399-.1074,.188-.1602,.3989-.1602,.6323s.0527,.4443,.1602,.6323c.1064,.1885,.2529,.335,.4395,.4399,.1865,.1055,.3965,.1577,.6299,.1577s.4434-.0522,.6309-.1577Z"/><path class="cls-8" d="M77.8507,11.3507v1.2949h-.6006v-.7451h-2.6846v.7451h-.6055l.0059-1.2949h.1494c.2197-.0103,.374-.1729,.4629-.4878,.0879-.3149,.1426-.7656,.1621-1.3525l.04-1.1099h2.5654v2.9502h.5049Zm-2.6504-.6475c-.0566,.3013-.1465,.5171-.2695,.6475h1.7744v-2.4004h-1.3701l-.0244,.6201c-.0166,.4536-.0537,.8311-.1104,1.1328Z"/><path class="cls-8" d="M81.0626,9.8678c.2256,.1885,.3379,.4678,.3379,.8379,0,.3867-.123,.6821-.3701,.8872-.2461,.2051-.5928,.3076-1.04,.3076h-1.5049v-3.5h.6396v1.1851h.9707c.4199,0,.7422,.0942,.9668,.2822Zm-.5166,1.3579c.1357-.1167,.2041-.2866,.2041-.5103,0-.4233-.2627-.6348-.7891-.6348h-.8359v1.3198h.8359c.2529,0,.4482-.0581,.585-.1748Zm1.3594-2.8252h.6406v3.5h-.6406v-3.5Z"/><path class="cls-8" d="M88.0607,8.4005v3.5h-.6504v-1.5h-1.8096v1.5h-.6504v-3.5h.6504v1.4448h1.8096v-1.4448h.6504Z"/><path class="cls-8" d="M91.38,11.0905h-1.75l-.3447,.8101h-.6699l1.5752-3.5h.6396l1.5801,3.5h-.6797l-.3506-.8101Zm-.2148-.5098l-.6602-1.5303-.6553,1.5303h1.3154Z"/><path class="cls-8" d="M93.6183,11.7179c-.2852-.1548-.5088-.3691-.6699-.6426-.1621-.2729-.2432-.5815-.2432-.9248s.082-.6519,.2451-.9248c.1631-.2734,.3877-.4878,.6729-.6426,.2852-.1553,.6035-.2324,.957-.2324,.2871,0,.5488,.0498,.7852,.1499s.4365,.2451,.6006,.4351l-.4209,.395c-.2529-.2734-.5645-.4102-.9346-.4102-.2402,0-.4551,.0522-.6445,.1577-.1904,.105-.3389,.2505-.4453,.4375-.1064,.1865-.1602,.3979-.1602,.6348s.0537,.4482,.1602,.6348c.1064,.187,.2549,.3325,.4453,.4375,.1895,.1055,.4043,.1577,.6445,.1577,.3701,0,.6816-.1382,.9346-.415l.4209,.3999c-.1641,.1899-.3643,.335-.6025,.4351-.2393,.1001-.501,.1499-.7881,.1499-.3535,0-.6719-.0771-.957-.2324Z"/><path class="cls-8" d="M99.2159,11.3556v.5449h-2.625v-3.5h2.5547v.5449h-1.9053v.9102h1.6904v.5352h-1.6904v.9648h1.9756Z"/><path class="cls-8" d="M102.9503,8.4005v3.5h-.6406v-2.9502h-1.3799l-.0293,.875c-.0176,.4902-.0576,.8877-.1201,1.1929-.0635,.3047-.165,.5366-.3057,.6948-.1396,.1582-.333,.2373-.5801,.2373-.0859,0-.2041-.0166-.3545-.0498l.0449-.5649c.043,.0132,.0938,.02,.1504,.02,.2031,0,.3467-.1211,.4316-.3628,.0859-.2412,.1377-.6221,.1582-1.1421l.0498-1.4502h2.5752Z"/><path class="cls-8" d="M106.5802,11.3556v.5449h-2.625v-3.5h2.5547v.5449h-1.9043v.9102h1.6895v.5352h-1.6895v.9648h1.9746Z"/><path class="cls-8" d="M110.4357,8.4005v3.5h-.6504v-1.5h-1.8096v1.5h-.6504v-3.5h.6504v1.4448h1.8096v-1.4448h.6504Z"/><path class="cls-8" d="M111.4405,8.4005h.6396v2.4849l1.8799-2.4849h.6055v3.5h-.6406v-2.48l-1.8799,2.48h-.6045v-3.5Z"/><path class="cls-8" d="M118.2404,8.4005v3.5h-.6406v-.9751h-.9346l-.6504,.9751h-.6846l.75-1.0801c-.2432-.0898-.4307-.2324-.5625-.4272-.1318-.1953-.1973-.4312-.1973-.7075,0-.2666,.0596-.4966,.1797-.6899s.29-.3408,.5098-.4429c.2197-.1016,.4785-.1523,.7754-.1523h1.4551Zm-2.0479,.7349c-.1416,.1235-.2129,.3037-.2129,.54,0,.23,.0684,.4077,.2051,.5327s.335,.1875,.5957,.1875h.8193v-1.4453h-.7949c-.2666,0-.4707,.062-.6123,.1851Z"/></g><polyline class="cls-4" points="2.8105 86.3758 20.4245 107.4092 29.2315 120.1025 38.0386 160.6843 46.8456 157.9617 55.6526 163.5048 64.4597 165.1878 73.2667 113.882 82.0729 108.9185 90.8799 104.0894 99.6869 100.7426 108.494 100.6038 117.301 91.7453 126.108 93.4283 134.915 77.7897 143.7221 53.9857 152.5291 68.3873 161.3361 75.7357 170.1432 87.7865 178.9502 103.4251 187.7572 96.1999 196.5642 93.973 205.3713 85.0647 214.1783 76.1067 222.9845 111.127 231.7915 100.6536 240.5985 98.4267 249.4055 101.743 258.2126 80.0663 267.0196 99.4288 275.8266 95.1602"/><line class="cls-3" x1="29.2559" y1="198.7155" x2="29.2559" y2="19.6057"/><line class="cls-3" x1="64.5168" y1="198.7155" x2="64.5168" y2="19.6057"/><line class="cls-3" x1="99.777" y1="198.7155" x2="99.777" y2="19.6057"/><line class="cls-3" x1="135.0379" y1="198.7155" x2="135.0379" y2="19.6057"/><line class="cls-3" x1="170.2986" y1="198.7155" x2="170.2986" y2="19.6057"/><line class="cls-3" x1="205.559" y1="198.7155" x2="205.559" y2="19.6057"/><line class="cls-3" x1="240.8198" y1="198.7155" x2="240.8198" y2="19.6057"/><line class="cls-3" x1="276.0807" y1="198.7155" x2="276.0807" y2="19.6057"/><rect class="cls-6" x="1.1191" y="172.004" width="278.7094" height="17.0824"/><g><path class="cls-7" d="M1.38,183.8873h3.667v.377H1.7159v.8643h-.3359v-1.2412Z"/><path class="cls-7" d="M3.8214,181.7555v.6289h1.2256v.3711H2.2921v-.3711h1.21v-.6338l-1.21-.9697v-.4033l1.335,1.085,1.4199-1.1631v.4395l-1.2256,1.0166Z"/><path class="cls-7" d="M4.298,177.3981c.2412,0,.4258,.0889,.5547,.2666,.1299,.1787,.1943,.4434,.1943,.7959v1.252H2.2921v-1.2148c0-.3145,.0605-.5605,.1826-.7383,.123-.1787,.2969-.2676,.5244-.2676,.1494,0,.2783,.041,.3848,.123s.1855,.1963,.2383,.3438c.0869-.374,.3125-.5605,.6758-.5605Zm-.7803,1.9531v-.8271c0-.2129-.04-.376-.1211-.4902-.0801-.1133-.1973-.1699-.3506-.1699s-.2686,.0566-.3457,.1699c-.0771,.1143-.1152,.2773-.1152,.4902v.8271h.9326Zm1.1201-1.4082c-.0762-.1191-.1973-.1787-.3613-.1787s-.2852,.0547-.3633,.1621c-.0791,.1084-.1182,.2803-.1182,.5137v.9111h.958v-.874c0-.2383-.0381-.416-.1152-.5342Z"/><path class="cls-7" d="M4.9894,176.6989c-.0557,.0537-.124,.0811-.2041,.0811-.0811,0-.1475-.0273-.2021-.0811-.0537-.0547-.0811-.1201-.0811-.1973,0-.0762,.0273-.1426,.0811-.1982,.0547-.0557,.1211-.084,.2021-.084,.0801,0,.1484,.0283,.2041,.084s.084,.1221,.084,.1982c0,.0771-.0283,.1426-.084,.1973Z"/></g><g><path class="cls-7" d="M13.4845,183.3522h.335v2.5723h-.2666l-1.4932-1.5244c-.1885-.1914-.3516-.3223-.4893-.3896-.1377-.0684-.2773-.1025-.417-.1025-.2158,0-.3848,.0742-.5049,.2227-.1211,.1484-.1807,.3604-.1807,.6367,0,.4287,.1357,.7627,.4082,1l-.2305,.2666c-.168-.1426-.2969-.3252-.3877-.5469s-.1357-.4727-.1357-.752c0-.373,.0879-.6689,.2646-.8877,.1758-.2178,.418-.3271,.7246-.3271,.1885,0,.3701,.042,.5449,.126s.376,.2422,.6025,.4766l1.2256,1.2461v-2.0166Z"/><path class="cls-7" d="M12.5939,181.6246v.6289h1.2256v.3711h-2.7549v-.3711h1.21v-.6338l-1.21-.9697v-.4033l1.3359,1.085,1.4189-1.1631v.4395l-1.2256,1.0166Z"/><path class="cls-7" d="M13.0704,177.2672c.2412,0,.4268,.0889,.5557,.2666,.1289,.1787,.1934,.4434,.1934,.7959v1.252h-2.7549v-1.2148c0-.3145,.0615-.5605,.1836-.7383,.1221-.1787,.2969-.2676,.5234-.2676,.1504,0,.2783,.041,.3848,.123,.1074,.082,.1865,.1963,.2383,.3438,.0879-.374,.3125-.5605,.6758-.5605Zm-.7803,1.9531v-.8271c0-.2129-.04-.376-.1201-.4902-.0801-.1133-.1973-.1699-.3516-.1699-.1533,0-.2686,.0566-.3457,.1699-.0762,.1143-.1152,.2773-.1152,.4902v.8271h.9326Zm1.1211-1.4082c-.0771-.1191-.1973-.1787-.3613-.1787s-.2852,.0547-.3643,.1621c-.0781,.1084-.1182,.2803-.1182,.5137v.9111h.959v-.874c0-.2383-.0381-.416-.1152-.5342Z"/><path class="cls-7" d="M13.7618,176.568c-.0557,.0537-.124,.0811-.2041,.0811s-.1475-.0273-.2012-.0811c-.0547-.0547-.082-.1201-.082-.1973,0-.0762,.0273-.1426,.082-.1982,.0537-.0557,.1211-.084,.2012-.084s.1484,.0283,.2041,.084,.084,.1221,.084,.1982c0,.0771-.0283,.1426-.084,.1973Z"/></g><g><path class="cls-7" d="M20.8097,183.9469c.1865-.2002,.4297-.3008,.7305-.3008,.209,0,.3955,.0508,.5576,.1514,.1621,.1016,.291,.252,.3848,.4512,.0947,.1982,.1416,.4414,.1416,.7275,0,.2656-.043,.5156-.1279,.752-.0859,.2354-.2002,.4248-.3438,.5684l-.2979-.1836c.125-.1221,.2275-.2842,.3057-.4873,.0791-.2021,.1182-.4189,.1182-.6494,0-.2998-.0654-.5322-.1963-.6963s-.3115-.2461-.542-.2461c-.2275,0-.4053,.082-.5342,.2461-.1299,.1641-.1943,.4121-.1943,.7432v.2627h-.2773l-1.2725-1.0166v1.875h-.3359v-2.3564h.2676l1.3037,1.0371c.0215-.3848,.125-.6768,.3125-.8779Z"/><path class="cls-7" d="M21.3673,181.86v.6289h1.2256v.3711h-2.7549v-.3711h1.21v-.6338l-1.21-.9697v-.4033l1.335,1.085,1.4199-1.1631v.4395l-1.2256,1.0166Z"/><path class="cls-7" d="M21.8439,177.5026c.2412,0,.4258,.0889,.5547,.2666,.1299,.1787,.1943,.4434,.1943,.7959v1.252h-2.7549v-1.2148c0-.3145,.0605-.5605,.1826-.7383,.123-.1787,.2969-.2676,.5244-.2676,.1494,0,.2783,.041,.3848,.123s.1855,.1963,.2383,.3438c.0869-.374,.3125-.5605,.6758-.5605Zm-.7803,1.9531v-.8271c0-.2129-.04-.376-.1211-.4902-.0801-.1133-.1973-.1699-.3506-.1699s-.2686,.0566-.3457,.1699c-.0771,.1143-.1152,.2773-.1152,.4902v.8271h.9326Zm1.1201-1.4082c-.0762-.1191-.1973-.1787-.3613-.1787s-.2852,.0547-.3633,.1621c-.0791,.1084-.1182,.2803-.1182,.5137v.9111h.958v-.874c0-.2383-.0381-.416-.1152-.5342Z"/><path class="cls-7" d="M22.5353,176.8034c-.0557,.0537-.124,.0811-.2041,.0811-.0811,0-.1475-.0273-.2021-.0811-.0537-.0547-.0811-.1201-.0811-.1973,0-.0762,.0273-.1426,.0811-.1982,.0547-.0557,.1211-.084,.2021-.084,.0801,0,.1484,.0283,.2041,.084s.084,.1221,.084,.1982c0,.0771-.0283,.1426-.084,.1973Z"/></g><g><path class="cls-7" d="M30.4025,183.0543v.7334h.9639v.377h-.9639v2.0684h-.2725l-2.4307-1.9424v-.4189l2.3682,1.875v-1.5928h-.8486v-.3662h.8486v-.7334h.335Z"/><path class="cls-7" d="M30.1407,181.4518v.6289h1.2256v.3711h-2.7549v-.3711h1.21v-.6338l-1.21-.9697v-.4033l1.335,1.085,1.4199-1.1631v.4395l-1.2256,1.0166Z"/><path class="cls-7" d="M30.6173,177.0944c.2412,0,.4258,.0889,.5547,.2666,.1299,.1787,.1943,.4434,.1943,.7959v1.252h-2.7549v-1.2148c0-.3145,.0605-.5605,.1826-.7383,.123-.1787,.2969-.2676,.5244-.2676,.1494,0,.2783,.041,.3848,.123s.1855,.1963,.2383,.3438c.0869-.374,.3125-.5605,.6758-.5605Zm-.7803,1.9531v-.8271c0-.2129-.04-.376-.1211-.4902-.0801-.1133-.1973-.1699-.3506-.1699s-.2686,.0566-.3457,.1699c-.0771,.1143-.1152,.2773-.1152,.4902v.8271h.9326Zm1.1201-1.4082c-.0762-.1191-.1973-.1787-.3613-.1787s-.2852,.0547-.3633,.1621c-.0791,.1084-.1182,.2803-.1182,.5137v.9111h.958v-.874c0-.2383-.0381-.416-.1152-.5342Z"/><path class="cls-7" d="M31.3087,176.3951c-.0557,.0537-.124,.0811-.2041,.0811-.0811,0-.1475-.0273-.2021-.0811-.0537-.0547-.0811-.1201-.0811-.1973,0-.0762,.0273-.1426,.0811-.1982,.0547-.0557,.1211-.084,.2021-.084,.0801,0,.1484,.0283,.2041,.084s.084,.1221,.084,.1982c0,.0771-.0283,.1426-.084,.1973Z"/></g><g><path class="cls-7" d="M36.4718,183.8873h3.667v.377h-3.3311v.8643h-.3359v-1.2412Z"/><path class="cls-7" d="M38.9132,181.7555v.6289h1.2256v.3711h-2.7549v-.3711h1.21v-.6338l-1.21-.9697v-.4033l1.335,1.085,1.4199-1.1631v.4395l-1.2256,1.0166Z"/><path class="cls-7" d="M39.3898,177.3981c.2412,0,.4258,.0889,.5547,.2666,.1299,.1787,.1943,.4434,.1943,.7959v1.252h-2.7549v-1.2148c0-.3145,.0605-.5605,.1826-.7383,.123-.1787,.2969-.2676,.5244-.2676,.1494,0,.2783,.041,.3848,.123s.1855,.1963,.2383,.3438c.0869-.374,.3125-.5605,.6758-.5605Zm-.7803,1.9531v-.8271c0-.2129-.04-.376-.1211-.4902-.0801-.1133-.1973-.1699-.3506-.1699s-.2686,.0566-.3457,.1699c-.0771,.1143-.1152,.2773-.1152,.4902v.8271h.9326Zm1.1201-1.4082c-.0762-.1191-.1973-.1787-.3613-.1787s-.2852,.0547-.3633,.1621c-.0791,.1084-.1182,.2803-.1182,.5137v.9111h.958v-.874c0-.2383-.0381-.416-.1152-.5342Z"/><path class="cls-7" d="M40.0812,176.6989c-.0557,.0537-.124,.0811-.2041,.0811-.0811,0-.1475-.0273-.2021-.0811-.0537-.0547-.0811-.1201-.0811-.1973,0-.0762,.0273-.1426,.0811-.1982,.0547-.0557,.1211-.084,.2021-.084,.0801,0,.1484,.0283,.2041,.084s.084,.1221,.084,.1982c0,.0771-.0283,.1426-.084,.1973Z"/></g><g><path class="cls-7" d="M48.5763,183.3522h.3359v2.5723h-.2676l-1.4922-1.5244c-.1885-.1914-.3525-.3223-.4902-.3896-.1377-.0684-.2764-.1025-.416-.1025-.2168,0-.3848,.0742-.5059,.2227-.1201,.1484-.1807,.3604-.1807,.6367,0,.4287,.1367,.7627,.4092,1l-.2305,.2666c-.168-.1426-.2969-.3252-.3877-.5469s-.1367-.4727-.1367-.752c0-.373,.0889-.6689,.2646-.8877,.1768-.2178,.418-.3271,.7256-.3271,.1885,0,.3701,.042,.5449,.126s.375,.2422,.6016,.4766l1.2256,1.2461v-2.0166Z"/><path class="cls-7" d="M47.6866,181.6246v.6289h1.2256v.3711h-2.7549v-.3711h1.21v-.6338l-1.21-.9697v-.4033l1.335,1.085,1.4199-1.1631v.4395l-1.2256,1.0166Z"/><path class="cls-7" d="M48.1632,177.2672c.2412,0,.4258,.0889,.5547,.2666,.1299,.1787,.1943,.4434,.1943,.7959v1.252h-2.7549v-1.2148c0-.3145,.0605-.5605,.1826-.7383,.123-.1787,.2969-.2676,.5244-.2676,.1494,0,.2783,.041,.3848,.123s.1855,.1963,.2383,.3438c.0869-.374,.3125-.5605,.6758-.5605Zm-.7803,1.9531v-.8271c0-.2129-.04-.376-.1211-.4902-.0801-.1133-.1973-.1699-.3506-.1699s-.2686,.0566-.3457,.1699c-.0771,.1143-.1152,.2773-.1152,.4902v.8271h.9326Zm1.1201-1.4082c-.0762-.1191-.1973-.1787-.3613-.1787s-.2852,.0547-.3633,.1621c-.0791,.1084-.1182,.2803-.1182,.5137v.9111h.958v-.874c0-.2383-.0381-.416-.1152-.5342Z"/><path class="cls-7" d="M48.8546,176.568c-.0557,.0537-.124,.0811-.2041,.0811-.0811,0-.1475-.0273-.2021-.0811-.0537-.0547-.0811-.1201-.0811-.1973,0-.0762,.0273-.1426,.0811-.1982,.0547-.0557,.1211-.084,.2021-.084,.0801,0,.1484,.0283,.2041,.084s.084,.1221,.084,.1982c0,.0771-.0283,.1426-.084,.1973Z"/></g><g><path class="cls-7" d="M55.9015,183.9469c.1865-.2002,.4297-.3008,.7305-.3008,.209,0,.3955,.0508,.5576,.1514,.1621,.1016,.291,.252,.3848,.4512,.0947,.1982,.1416,.4414,.1416,.7275,0,.2656-.043,.5156-.1279,.752-.0859,.2354-.2002,.4248-.3438,.5684l-.2979-.1836c.125-.1221,.2275-.2842,.3057-.4873,.0791-.2021,.1182-.4189,.1182-.6494,0-.2998-.0654-.5322-.1963-.6963s-.3115-.2461-.542-.2461c-.2275,0-.4053,.082-.5342,.2461-.1299,.1641-.1943,.4121-.1943,.7432v.2627h-.2773l-1.2725-1.0166v1.875h-.3359v-2.3564h.2676l1.3037,1.0371c.0215-.3848,.125-.6768,.3125-.8779Z"/><path class="cls-7" d="M56.4591,181.86v.6289h1.2256v.3711h-2.7549v-.3711h1.21v-.6338l-1.21-.9697v-.4033l1.335,1.085,1.4199-1.1631v.4395l-1.2256,1.0166Z"/><path class="cls-7" d="M56.9357,177.5026c.2412,0,.4258,.0889,.5547,.2666,.1299,.1787,.1943,.4434,.1943,.7959v1.252h-2.7549v-1.2148c0-.3145,.0605-.5605,.1826-.7383,.123-.1787,.2969-.2676,.5244-.2676,.1494,0,.2783,.041,.3848,.123s.1855,.1963,.2383,.3438c.0869-.374,.3125-.5605,.6758-.5605Zm-.7803,1.9531v-.8271c0-.2129-.04-.376-.1211-.4902-.0801-.1133-.1973-.1699-.3506-.1699s-.2686,.0566-.3457,.1699c-.0771,.1143-.1152,.2773-.1152,.4902v.8271h.9326Zm1.1201-1.4082c-.0762-.1191-.1973-.1787-.3613-.1787s-.2852,.0547-.3633,.1621c-.0791,.1084-.1182,.2803-.1182,.5137v.9111h.958v-.874c0-.2383-.0381-.416-.1152-.5342Z"/><path class="cls-7" d="M57.6271,176.8034c-.0557,.0537-.124,.0811-.2041,.0811-.0811,0-.1475-.0273-.2021-.0811-.0537-.0547-.0811-.1201-.0811-.1973,0-.0762,.0273-.1426,.0811-.1982,.0547-.0557,.1211-.084,.2021-.084,.0801,0,.1484,.0283,.2041,.084s.084,.1221,.084,.1982c0,.0771-.0283,.1426-.084,.1973Z"/></g><g><path class="cls-7" d="M65.4943,183.0543v.7334h.9639v.377h-.9639v2.0684h-.2725l-2.4307-1.9424v-.4189l2.3682,1.875v-1.5928h-.8486v-.3662h.8486v-.7334h.335Z"/><path class="cls-7" d="M65.2325,181.4518v.6289h1.2256v.3711h-2.7549v-.3711h1.21v-.6338l-1.21-.9697v-.4033l1.335,1.085,1.4199-1.1631v.4395l-1.2256,1.0166Z"/><path class="cls-7" d="M65.7091,177.0944c.2412,0,.4258,.0889,.5547,.2666,.1299,.1787,.1943,.4434,.1943,.7959v1.252h-2.7549v-1.2148c0-.3145,.0605-.5605,.1826-.7383,.123-.1787,.2969-.2676,.5244-.2676,.1494,0,.2783,.041,.3848,.123s.1855,.1963,.2383,.3438c.0869-.374,.3125-.5605,.6758-.5605Zm-.7803,1.9531v-.8271c0-.2129-.04-.376-.1211-.4902-.0801-.1133-.1973-.1699-.3506-.1699s-.2686,.0566-.3457,.1699c-.0771,.1143-.1152,.2773-.1152,.4902v.8271h.9326Zm1.1201-1.4082c-.0762-.1191-.1973-.1787-.3613-.1787s-.2852,.0547-.3633,.1621c-.0791,.1084-.1182,.2803-.1182,.5137v.9111h.958v-.874c0-.2383-.0381-.416-.1152-.5342Z"/><path class="cls-7" d="M66.4005,176.3951c-.0557,.0537-.124,.0811-.2041,.0811-.0811,0-.1475-.0273-.2021-.0811-.0537-.0547-.0811-.1201-.0811-.1973,0-.0762,.0273-.1426,.0811-.1982,.0547-.0557,.1211-.084,.2021-.084,.0801,0,.1484,.0283,.2041,.084s.084,.1221,.084,.1982c0,.0771-.0283,.1426-.084,.1973Z"/></g><g><path class="cls-7" d="M71.5646,183.8873h3.666v.377h-3.3311v.8643h-.335v-1.2412Z"/><path class="cls-7" d="M74.005,181.7555v.6289h1.2256v.3711h-2.7549v-.3711h1.21v-.6338l-1.21-.9697v-.4033l1.3359,1.085,1.4189-1.1631v.4395l-1.2256,1.0166Z"/><path class="cls-7" d="M74.4816,177.3981c.2412,0,.4268,.0889,.5557,.2666,.1289,.1787,.1934,.4434,.1934,.7959v1.252h-2.7549v-1.2148c0-.3145,.0615-.5605,.1836-.7383,.1221-.1787,.2969-.2676,.5234-.2676,.1504,0,.2783,.041,.3848,.123,.1074,.082,.1865,.1963,.2383,.3438,.0879-.374,.3125-.5605,.6758-.5605Zm-.7803,1.9531v-.8271c0-.2129-.04-.376-.1201-.4902-.0801-.1133-.1973-.1699-.3516-.1699-.1533,0-.2686,.0566-.3457,.1699-.0762,.1143-.1152,.2773-.1152,.4902v.8271h.9326Zm1.1211-1.4082c-.0771-.1191-.1973-.1787-.3613-.1787s-.2852,.0547-.3643,.1621c-.0781,.1084-.1182,.2803-.1182,.5137v.9111h.959v-.874c0-.2383-.0381-.416-.1152-.5342Z"/><path class="cls-7" d="M75.173,176.6989c-.0557,.0537-.124,.0811-.2041,.0811s-.1475-.0273-.2012-.0811c-.0547-.0547-.082-.1201-.082-.1973,0-.0762,.0273-.1426,.082-.1982,.0537-.0557,.1211-.084,.2012-.084s.1484,.0283,.2041,.084,.084,.1221,.084,.1982c0,.0771-.0283,.1426-.084,.1973Z"/></g><g><path class="cls-7" d="M83.6681,183.3522h.3359v2.5723h-.2676l-1.4922-1.5244c-.1885-.1914-.3525-.3223-.4902-.3896-.1377-.0684-.2764-.1025-.416-.1025-.2168,0-.3848,.0742-.5059,.2227-.1201,.1484-.1807,.3604-.1807,.6367,0,.4287,.1367,.7627,.4092,1l-.2305,.2666c-.168-.1426-.2969-.3252-.3877-.5469s-.1367-.4727-.1367-.752c0-.373,.0889-.6689,.2646-.8877,.1768-.2178,.418-.3271,.7256-.3271,.1885,0,.3701,.042,.5449,.126s.375,.2422,.6016,.4766l1.2256,1.2461v-2.0166Z"/><path class="cls-7" d="M82.7784,181.6246v.6289h1.2256v.3711h-2.7549v-.3711h1.21v-.6338l-1.21-.9697v-.4033l1.335,1.085,1.4199-1.1631v.4395l-1.2256,1.0166Z"/><path class="cls-7" d="M83.255,177.2672c.2412,0,.4258,.0889,.5547,.2666,.1299,.1787,.1943,.4434,.1943,.7959v1.252h-2.7549v-1.2148c0-.3145,.0605-.5605,.1826-.7383,.123-.1787,.2969-.2676,.5244-.2676,.1494,0,.2783,.041,.3848,.123s.1855,.1963,.2383,.3438c.0869-.374,.3125-.5605,.6758-.5605Zm-.7803,1.9531v-.8271c0-.2129-.04-.376-.1211-.4902-.0801-.1133-.1973-.1699-.3506-.1699s-.2686,.0566-.3457,.1699c-.0771,.1143-.1152,.2773-.1152,.4902v.8271h.9326Zm1.1201-1.4082c-.0762-.1191-.1973-.1787-.3613-.1787s-.2852,.0547-.3633,.1621c-.0791,.1084-.1182,.2803-.1182,.5137v.9111h.958v-.874c0-.2383-.0381-.416-.1152-.5342Z"/><path class="cls-7" d="M83.9464,176.568c-.0557,.0537-.124,.0811-.2041,.0811-.0811,0-.1475-.0273-.2021-.0811-.0537-.0547-.0811-.1201-.0811-.1973,0-.0762,.0273-.1426,.0811-.1982,.0547-.0557,.1211-.084,.2021-.084,.0801,0,.1484,.0283,.2041,.084s.084,.1221,.084,.1982c0,.0771-.0283,.1426-.084,.1973Z"/></g><g><path class="cls-7" d="M90.9933,183.9459c.1865-.2002,.4307-.3008,.7305-.3008,.21,0,.3955,.0508,.5576,.1514,.1631,.1016,.291,.252,.3857,.4512,.0938,.1982,.1406,.4414,.1406,.7275,0,.2656-.042,.5156-.1279,.752-.0859,.2354-.2002,.4248-.3428,.5684l-.2988-.1836c.126-.1221,.2275-.2842,.3066-.4873,.0781-.2021,.1172-.4189,.1172-.6494,0-.2998-.0654-.5322-.1963-.6963s-.3115-.2461-.542-.2461c-.2266,0-.4053,.082-.5342,.2461s-.1934,.4121-.1934,.7432v.2627h-.2783l-1.2725-1.0166v1.875h-.335v-2.3564h.2666l1.3047,1.0371c.0205-.3848,.125-.6768,.3115-.8779Z"/><path class="cls-7" d="M91.5509,181.859v.6289h1.2256v.3711h-2.7549v-.3711h1.21v-.6338l-1.21-.9697v-.4033l1.3359,1.085,1.4189-1.1631v.4395l-1.2256,1.0166Z"/><path class="cls-7" d="M92.0275,177.5016c.2412,0,.4268,.0889,.5557,.2666,.1289,.1787,.1934,.4434,.1934,.7959v1.252h-2.7549v-1.2148c0-.3145,.0615-.5605,.1836-.7383,.1221-.1787,.2969-.2676,.5234-.2676,.1504,0,.2783,.041,.3848,.123,.1074,.082,.1865,.1963,.2383,.3438,.0879-.374,.3125-.5605,.6758-.5605Zm-.7803,1.9531v-.8271c0-.2129-.04-.376-.1201-.4902-.0801-.1133-.1973-.1699-.3516-.1699-.1533,0-.2686,.0566-.3457,.1699-.0762,.1143-.1152,.2773-.1152,.4902v.8271h.9326Zm1.1211-1.4082c-.0771-.1191-.1973-.1787-.3613-.1787s-.2852,.0547-.3643,.1621c-.0781,.1084-.1182,.2803-.1182,.5137v.9111h.959v-.874c0-.2383-.0381-.416-.1152-.5342Z"/><path class="cls-7" d="M92.7189,176.8024c-.0557,.0537-.124,.0811-.2041,.0811s-.1475-.0273-.2012-.0811c-.0547-.0547-.082-.1201-.082-.1973,0-.0762,.0273-.1426,.082-.1982,.0537-.0557,.1211-.084,.2012-.084s.1484,.0283,.2041,.084,.084,.1221,.084,.1982c0,.0771-.0283,.1426-.084,.1973Z"/></g><g><path class="cls-7" d="M100.5861,183.0543v.7334h.9639v.377h-.9639v2.0684h-.2725l-2.4307-1.9424v-.4189l2.3682,1.875v-1.5928h-.8486v-.3662h.8486v-.7334h.335Z"/><path class="cls-7" d="M100.3243,181.4518v.6289h1.2256v.3711h-2.7549v-.3711h1.21v-.6338l-1.21-.9697v-.4033l1.335,1.085,1.4199-1.1631v.4395l-1.2256,1.0166Z"/><path class="cls-7" d="M100.8009,177.0944c.2412,0,.4258,.0889,.5547,.2666,.1299,.1787,.1943,.4434,.1943,.7959v1.252h-2.7549v-1.2148c0-.3145,.0605-.5605,.1826-.7383,.123-.1787,.2969-.2676,.5244-.2676,.1494,0,.2783,.041,.3848,.123s.1855,.1963,.2383,.3438c.0869-.374,.3125-.5605,.6758-.5605Zm-.7803,1.9531v-.8271c0-.2129-.04-.376-.1211-.4902-.0801-.1133-.1973-.1699-.3506-.1699s-.2686,.0566-.3457,.1699c-.0771,.1143-.1152,.2773-.1152,.4902v.8271h.9326Zm1.1201-1.4082c-.0762-.1191-.1973-.1787-.3613-.1787s-.2852,.0547-.3633,.1621c-.0791,.1084-.1182,.2803-.1182,.5137v.9111h.958v-.874c0-.2383-.0381-.416-.1152-.5342Z"/><path class="cls-7" d="M101.4923,176.3951c-.0557,.0537-.124,.0811-.2041,.0811-.0811,0-.1475-.0273-.2021-.0811-.0537-.0547-.0811-.1201-.0811-.1973,0-.0762,.0273-.1426,.0811-.1982,.0547-.0557,.1211-.084,.2021-.084,.0801,0,.1484,.0283,.2041,.084s.084,.1221,.084,.1982c0,.0771-.0283,.1426-.084,.1973Z"/></g><g><path class="cls-7" d="M106.6564,183.8873h3.666v.377h-3.3311v.8643h-.335v-1.2412Z"/><path class="cls-7" d="M109.0968,181.7555v.6289h1.2256v.3711h-2.7549v-.3711h1.21v-.6338l-1.21-.9697v-.4033l1.3359,1.085,1.4189-1.1631v.4395l-1.2256,1.0166Z"/><path class="cls-7" d="M109.5734,177.3981c.2412,0,.4268,.0889,.5557,.2666,.1289,.1787,.1934,.4434,.1934,.7959v1.252h-2.7549v-1.2148c0-.3145,.0615-.5605,.1836-.7383,.1221-.1787,.2969-.2676,.5234-.2676,.1504,0,.2783,.041,.3848,.123,.1074,.082,.1865,.1963,.2383,.3438,.0879-.374,.3125-.5605,.6758-.5605Zm-.7803,1.9531v-.8271c0-.2129-.04-.376-.1201-.4902-.0801-.1133-.1973-.1699-.3516-.1699-.1533,0-.2686,.0566-.3457,.1699-.0762,.1143-.1152,.2773-.1152,.4902v.8271h.9326Zm1.1211-1.4082c-.0771-.1191-.1973-.1787-.3613-.1787s-.2852,.0547-.3643,.1621c-.0781,.1084-.1182,.2803-.1182,.5137v.9111h.959v-.874c0-.2383-.0381-.416-.1152-.5342Z"/><path class="cls-7" d="M110.2648,176.6989c-.0557,.0537-.124,.0811-.2041,.0811s-.1475-.0273-.2012-.0811c-.0547-.0547-.082-.1201-.082-.1973,0-.0762,.0273-.1426,.082-.1982,.0537-.0557,.1211-.084,.2012-.084s.1484,.0283,.2041,.084,.084,.1221,.084,.1982c0,.0771-.0283,.1426-.084,.1973Z"/></g><g><path class="cls-7" d="M118.7599,183.3522h.3359v2.5723h-.2676l-1.4922-1.5244c-.1885-.1914-.3525-.3223-.4902-.3896-.1377-.0684-.2764-.1025-.416-.1025-.2168,0-.3848,.0742-.5059,.2227-.1201,.1484-.1807,.3604-.1807,.6367,0,.4287,.1367,.7627,.4092,1l-.2305,.2666c-.168-.1426-.2969-.3252-.3877-.5469s-.1367-.4727-.1367-.752c0-.373,.0889-.6689,.2646-.8877,.1768-.2178,.418-.3271,.7256-.3271,.1885,0,.3701,.042,.5449,.126s.375,.2422,.6016,.4766l1.2256,1.2461v-2.0166Z"/><path class="cls-7" d="M117.8702,181.6246v.6289h1.2256v.3711h-2.7549v-.3711h1.21v-.6338l-1.21-.9697v-.4033l1.335,1.085,1.4199-1.1631v.4395l-1.2256,1.0166Z"/><path class="cls-7" d="M118.3468,177.2672c.2412,0,.4258,.0889,.5547,.2666,.1299,.1787,.1943,.4434,.1943,.7959v1.252h-2.7549v-1.2148c0-.3145,.0605-.5605,.1826-.7383,.123-.1787,.2969-.2676,.5244-.2676,.1494,0,.2783,.041,.3848,.123s.1855,.1963,.2383,.3438c.0869-.374,.3125-.5605,.6758-.5605Zm-.7803,1.9531v-.8271c0-.2129-.04-.376-.1211-.4902-.0801-.1133-.1973-.1699-.3506-.1699s-.2686,.0566-.3457,.1699c-.0771,.1143-.1152,.2773-.1152,.4902v.8271h.9326Zm1.1201-1.4082c-.0762-.1191-.1973-.1787-.3613-.1787s-.2852,.0547-.3633,.1621c-.0791,.1084-.1182,.2803-.1182,.5137v.9111h.958v-.874c0-.2383-.0381-.416-.1152-.5342Z"/><path class="cls-7" d="M119.0382,176.568c-.0557,.0537-.124,.0811-.2041,.0811-.0811,0-.1475-.0273-.2021-.0811-.0537-.0547-.0811-.1201-.0811-.1973,0-.0762,.0273-.1426,.0811-.1982,.0547-.0557,.1211-.084,.2021-.084,.0801,0,.1484,.0283,.2041,.084s.084,.1221,.084,.1982c0,.0771-.0283,.1426-.084,.1973Z"/></g><g><path class="cls-7" d="M126.0851,183.9469c.1865-.2002,.4307-.3008,.7305-.3008,.21,0,.3955,.0508,.5576,.1514,.1631,.1016,.291,.252,.3857,.4512,.0938,.1982,.1406,.4414,.1406,.7275,0,.2656-.042,.5156-.1279,.752-.0859,.2354-.2002,.4248-.3428,.5684l-.2988-.1836c.126-.1221,.2275-.2842,.3066-.4873,.0781-.2021,.1172-.4189,.1172-.6494,0-.2998-.0654-.5322-.1963-.6963s-.3115-.2461-.542-.2461c-.2266,0-.4053,.082-.5342,.2461s-.1934,.4121-.1934,.7432v.2627h-.2783l-1.2725-1.0166v1.875h-.335v-2.3564h.2666l1.3047,1.0371c.0205-.3848,.125-.6768,.3115-.8779Z"/><path class="cls-7" d="M126.6427,181.86v.6289h1.2256v.3711h-2.7549v-.3711h1.21v-.6338l-1.21-.9697v-.4033l1.3359,1.085,1.4189-1.1631v.4395l-1.2256,1.0166Z"/><path class="cls-7" d="M127.1193,177.5026c.2412,0,.4268,.0889,.5557,.2666,.1289,.1787,.1934,.4434,.1934,.7959v1.252h-2.7549v-1.2148c0-.3145,.0615-.5605,.1836-.7383,.1221-.1787,.2969-.2676,.5234-.2676,.1504,0,.2783,.041,.3848,.123,.1074,.082,.1865,.1963,.2383,.3438,.0879-.374,.3125-.5605,.6758-.5605Zm-.7803,1.9531v-.8271c0-.2129-.04-.376-.1201-.4902-.0801-.1133-.1973-.1699-.3516-.1699-.1533,0-.2686,.0566-.3457,.1699-.0762,.1143-.1152,.2773-.1152,.4902v.8271h.9326Zm1.1211-1.4082c-.0771-.1191-.1973-.1787-.3613-.1787s-.2852,.0547-.3643,.1621c-.0781,.1084-.1182,.2803-.1182,.5137v.9111h.959v-.874c0-.2383-.0381-.416-.1152-.5342Z"/><path class="cls-7" d="M127.8107,176.8034c-.0557,.0537-.124,.0811-.2041,.0811s-.1475-.0273-.2012-.0811c-.0547-.0547-.082-.1201-.082-.1973,0-.0762,.0273-.1426,.082-.1982,.0537-.0557,.1211-.084,.2012-.084s.1484,.0283,.2041,.084,.084,.1221,.084,.1982c0,.0771-.0283,.1426-.084,.1973Z"/></g><g><path class="cls-7" d="M135.6779,183.0543v.7334h.9639v.377h-.9639v2.0684h-.2725l-2.4307-1.9424v-.4189l2.3682,1.875v-1.5928h-.8486v-.3662h.8486v-.7334h.335Z"/><path class="cls-7" d="M135.4161,181.4518v.6289h1.2256v.3711h-2.7549v-.3711h1.21v-.6338l-1.21-.9697v-.4033l1.335,1.085,1.4199-1.1631v.4395l-1.2256,1.0166Z"/><path class="cls-7" d="M135.8927,177.0944c.2412,0,.4258,.0889,.5547,.2666,.1299,.1787,.1943,.4434,.1943,.7959v1.252h-2.7549v-1.2148c0-.3145,.0605-.5605,.1826-.7383,.123-.1787,.2969-.2676,.5244-.2676,.1494,0,.2783,.041,.3848,.123s.1855,.1963,.2383,.3438c.0869-.374,.3125-.5605,.6758-.5605Zm-.7803,1.9531v-.8271c0-.2129-.04-.376-.1211-.4902-.0801-.1133-.1973-.1699-.3506-.1699s-.2686,.0566-.3457,.1699c-.0771,.1143-.1152,.2773-.1152,.4902v.8271h.9326Zm1.1201-1.4082c-.0762-.1191-.1973-.1787-.3613-.1787s-.2852,.0547-.3633,.1621c-.0791,.1084-.1182,.2803-.1182,.5137v.9111h.958v-.874c0-.2383-.0381-.416-.1152-.5342Z"/><path class="cls-7" d="M136.5841,176.3951c-.0557,.0537-.124,.0811-.2041,.0811-.0811,0-.1475-.0273-.2021-.0811-.0537-.0547-.0811-.1201-.0811-.1973,0-.0762,.0273-.1426,.0811-.1982,.0547-.0557,.1211-.084,.2021-.084,.0801,0,.1484,.0283,.2041,.084s.084,.1221,.084,.1982c0,.0771-.0283,.1426-.084,.1973Z"/></g><g><path class="cls-7" d="M141.7482,183.8873h3.666v.377h-3.3311v.8643h-.335v-1.2412Z"/><path class="cls-7" d="M144.1886,181.7555v.6289h1.2256v.3711h-2.7549v-.3711h1.21v-.6338l-1.21-.9697v-.4033l1.3359,1.085,1.4189-1.1631v.4395l-1.2256,1.0166Z"/><path class="cls-7" d="M144.6652,177.3981c.2412,0,.4268,.0889,.5557,.2666,.1289,.1787,.1934,.4434,.1934,.7959v1.252h-2.7549v-1.2148c0-.3145,.0615-.5605,.1836-.7383,.1221-.1787,.2969-.2676,.5234-.2676,.1504,0,.2783,.041,.3848,.123,.1074,.082,.1865,.1963,.2383,.3438,.0879-.374,.3125-.5605,.6758-.5605Zm-.7803,1.9531v-.8271c0-.2129-.04-.376-.1201-.4902-.0801-.1133-.1973-.1699-.3516-.1699-.1533,0-.2686,.0566-.3457,.1699-.0762,.1143-.1152,.2773-.1152,.4902v.8271h.9326Zm1.1211-1.4082c-.0771-.1191-.1973-.1787-.3613-.1787s-.2852,.0547-.3643,.1621c-.0781,.1084-.1182,.2803-.1182,.5137v.9111h.959v-.874c0-.2383-.0381-.416-.1152-.5342Z"/><path class="cls-7" d="M145.3566,176.6989c-.0557,.0537-.124,.0811-.2041,.0811s-.1475-.0273-.2012-.0811c-.0547-.0547-.082-.1201-.082-.1973,0-.0762,.0273-.1426,.082-.1982,.0537-.0557,.1211-.084,.2012-.084s.1484,.0283,.2041,.084,.084,.1221,.084,.1982c0,.0771-.0283,.1426-.084,.1973Z"/></g><g><path class="cls-7" d="M153.8517,183.3522h.3359v2.5723h-.2676l-1.4922-1.5244c-.1885-.1914-.3525-.3223-.4902-.3896-.1377-.0684-.2764-.1025-.416-.1025-.2168,0-.3848,.0742-.5059,.2227-.1201,.1484-.1807,.3604-.1807,.6367,0,.4287,.1367,.7627,.4092,1l-.2305,.2666c-.168-.1426-.2969-.3252-.3877-.5469s-.1367-.4727-.1367-.752c0-.373,.0889-.6689,.2646-.8877,.1768-.2178,.418-.3271,.7256-.3271,.1885,0,.3701,.042,.5449,.126s.375,.2422,.6016,.4766l1.2256,1.2461v-2.0166Z"/><path class="cls-7" d="M152.962,181.6246v.6289h1.2256v.3711h-2.7549v-.3711h1.21v-.6338l-1.21-.9697v-.4033l1.335,1.085,1.4199-1.1631v.4395l-1.2256,1.0166Z"/><path class="cls-7" d="M153.4386,177.2672c.2412,0,.4258,.0889,.5547,.2666,.1299,.1787,.1943,.4434,.1943,.7959v1.252h-2.7549v-1.2148c0-.3145,.0605-.5605,.1826-.7383,.123-.1787,.2969-.2676,.5244-.2676,.1494,0,.2783,.041,.3848,.123s.1855,.1963,.2383,.3438c.0869-.374,.3125-.5605,.6758-.5605Zm-.7803,1.9531v-.8271c0-.2129-.04-.376-.1211-.4902-.0801-.1133-.1973-.1699-.3506-.1699s-.2686,.0566-.3457,.1699c-.0771,.1143-.1152,.2773-.1152,.4902v.8271h.9326Zm1.1201-1.4082c-.0762-.1191-.1973-.1787-.3613-.1787s-.2852,.0547-.3633,.1621c-.0791,.1084-.1182,.2803-.1182,.5137v.9111h.958v-.874c0-.2383-.0381-.416-.1152-.5342Z"/><path class="cls-7" d="M154.13,176.568c-.0557,.0537-.124,.0811-.2041,.0811-.0811,0-.1475-.0273-.2021-.0811-.0537-.0547-.0811-.1201-.0811-.1973,0-.0762,.0273-.1426,.0811-.1982,.0547-.0557,.1211-.084,.2021-.084,.0801,0,.1484,.0283,.2041,.084s.084,.1221,.084,.1982c0,.0771-.0283,.1426-.084,.1973Z"/></g><g><path class="cls-7" d="M161.1769,183.9469c.1865-.2002,.4307-.3008,.7305-.3008,.21,0,.3955,.0508,.5576,.1514,.1631,.1016,.291,.252,.3857,.4512,.0938,.1982,.1406,.4414,.1406,.7275,0,.2656-.042,.5156-.1279,.752-.0859,.2354-.2002,.4248-.3428,.5684l-.2988-.1836c.126-.1221,.2275-.2842,.3066-.4873,.0781-.2021,.1172-.4189,.1172-.6494,0-.2998-.0654-.5322-.1963-.6963s-.3115-.2461-.542-.2461c-.2266,0-.4053,.082-.5342,.2461s-.1934,.4121-.1934,.7432v.2627h-.2783l-1.2725-1.0166v1.875h-.335v-2.3564h.2666l1.3047,1.0371c.0205-.3848,.125-.6768,.3115-.8779Z"/><path class="cls-7" d="M161.7345,181.86v.6289h1.2256v.3711h-2.7549v-.3711h1.21v-.6338l-1.21-.9697v-.4033l1.3359,1.085,1.4189-1.1631v.4395l-1.2256,1.0166Z"/><path class="cls-7" d="M162.2111,177.5026c.2412,0,.4268,.0889,.5557,.2666,.1289,.1787,.1934,.4434,.1934,.7959v1.252h-2.7549v-1.2148c0-.3145,.0615-.5605,.1836-.7383,.1221-.1787,.2969-.2676,.5234-.2676,.1504,0,.2783,.041,.3848,.123,.1074,.082,.1865,.1963,.2383,.3438,.0879-.374,.3125-.5605,.6758-.5605Zm-.7803,1.9531v-.8271c0-.2129-.04-.376-.1201-.4902-.0801-.1133-.1973-.1699-.3516-.1699-.1533,0-.2686,.0566-.3457,.1699-.0762,.1143-.1152,.2773-.1152,.4902v.8271h.9326Zm1.1211-1.4082c-.0771-.1191-.1973-.1787-.3613-.1787s-.2852,.0547-.3643,.1621c-.0781,.1084-.1182,.2803-.1182,.5137v.9111h.959v-.874c0-.2383-.0381-.416-.1152-.5342Z"/><path class="cls-7" d="M162.9025,176.8034c-.0557,.0537-.124,.0811-.2041,.0811s-.1475-.0273-.2012-.0811c-.0547-.0547-.082-.1201-.082-.1973,0-.0762,.0273-.1426,.082-.1982,.0537-.0557,.1211-.084,.2012-.084s.1484,.0283,.2041,.084,.084,.1221,.084,.1982c0,.0771-.0283,.1426-.084,.1973Z"/></g><g><path class="cls-7" d="M170.7697,183.0543v.7334h.9639v.377h-.9639v2.0684h-.2725l-2.4307-1.9424v-.4189l2.3682,1.875v-1.5928h-.8486v-.3662h.8486v-.7334h.335Z"/><path class="cls-7" d="M170.5079,181.4518v.6289h1.2256v.3711h-2.7549v-.3711h1.21v-.6338l-1.21-.9697v-.4033l1.335,1.085,1.4199-1.1631v.4395l-1.2256,1.0166Z"/><path class="cls-7" d="M170.9845,177.0944c.2412,0,.4258,.0889,.5547,.2666,.1299,.1787,.1943,.4434,.1943,.7959v1.252h-2.7549v-1.2148c0-.3145,.0605-.5605,.1826-.7383,.123-.1787,.2969-.2676,.5244-.2676,.1494,0,.2783,.041,.3848,.123s.1855,.1963,.2383,.3438c.0869-.374,.3125-.5605,.6758-.5605Zm-.7803,1.9531v-.8271c0-.2129-.04-.376-.1211-.4902-.0801-.1133-.1973-.1699-.3506-.1699s-.2686,.0566-.3457,.1699c-.0771,.1143-.1152,.2773-.1152,.4902v.8271h.9326Zm1.1201-1.4082c-.0762-.1191-.1973-.1787-.3613-.1787s-.2852,.0547-.3633,.1621c-.0791,.1084-.1182,.2803-.1182,.5137v.9111h.958v-.874c0-.2383-.0381-.416-.1152-.5342Z"/><path class="cls-7" d="M171.6759,176.3951c-.0557,.0537-.124,.0811-.2041,.0811-.0811,0-.1475-.0273-.2021-.0811-.0537-.0547-.0811-.1201-.0811-.1973,0-.0762,.0273-.1426,.0811-.1982,.0547-.0557,.1211-.084,.2021-.084,.0801,0,.1484,.0283,.2041,.084s.084,.1221,.084,.1982c0,.0771-.0283,.1426-.084,.1973Z"/></g><g><path class="cls-7" d="M176.84,183.8873h3.666v.377h-3.3311v.8643h-.335v-1.2412Z"/><path class="cls-7" d="M179.2804,181.7555v.6289h1.2256v.3711h-2.7549v-.3711h1.21v-.6338l-1.21-.9697v-.4033l1.3359,1.085,1.4189-1.1631v.4395l-1.2256,1.0166Z"/><path class="cls-7" d="M179.757,177.3981c.2412,0,.4268,.0889,.5557,.2666,.1289,.1787,.1934,.4434,.1934,.7959v1.252h-2.7549v-1.2148c0-.3145,.0615-.5605,.1836-.7383,.1221-.1787,.2969-.2676,.5234-.2676,.1504,0,.2783,.041,.3848,.123,.1074,.082,.1865,.1963,.2383,.3438,.0879-.374,.3125-.5605,.6758-.5605Zm-.7803,1.9531v-.8271c0-.2129-.04-.376-.1201-.4902-.0801-.1133-.1973-.1699-.3516-.1699-.1533,0-.2686,.0566-.3457,.1699-.0762,.1143-.1152,.2773-.1152,.4902v.8271h.9326Zm1.1211-1.4082c-.0771-.1191-.1973-.1787-.3613-.1787s-.2852,.0547-.3643,.1621c-.0781,.1084-.1182,.2803-.1182,.5137v.9111h.959v-.874c0-.2383-.0381-.416-.1152-.5342Z"/><path class="cls-7" d="M180.4484,176.6989c-.0557,.0537-.124,.0811-.2041,.0811s-.1475-.0273-.2012-.0811c-.0547-.0547-.082-.1201-.082-.1973,0-.0762,.0273-.1426,.082-.1982,.0537-.0557,.1211-.084,.2012-.084s.1484,.0283,.2041,.084,.084,.1221,.084,.1982c0,.0771-.0283,.1426-.084,.1973Z"/></g><g><path class="cls-7" d="M188.9435,183.3522h.3359v2.5723h-.2676l-1.4922-1.5244c-.1885-.1914-.3525-.3223-.4902-.3896-.1377-.0684-.2764-.1025-.416-.1025-.2168,0-.3848,.0742-.5059,.2227-.1201,.1484-.1807,.3604-.1807,.6367,0,.4287,.1367,.7627,.4092,1l-.2305,.2666c-.168-.1426-.2969-.3252-.3877-.5469s-.1367-.4727-.1367-.752c0-.373,.0889-.6689,.2646-.8877,.1768-.2178,.418-.3271,.7256-.3271,.1885,0,.3701,.042,.5449,.126s.375,.2422,.6016,.4766l1.2256,1.2461v-2.0166Z"/><path class="cls-7" d="M188.0538,181.6246v.6289h1.2256v.3711h-2.7549v-.3711h1.21v-.6338l-1.21-.9697v-.4033l1.335,1.085,1.4199-1.1631v.4395l-1.2256,1.0166Z"/><path class="cls-7" d="M188.5304,177.2672c.2412,0,.4258,.0889,.5547,.2666,.1299,.1787,.1943,.4434,.1943,.7959v1.252h-2.7549v-1.2148c0-.3145,.0605-.5605,.1826-.7383,.123-.1787,.2969-.2676,.5244-.2676,.1494,0,.2783,.041,.3848,.123s.1855,.1963,.2383,.3438c.0869-.374,.3125-.5605,.6758-.5605Zm-.7803,1.9531v-.8271c0-.2129-.04-.376-.1211-.4902-.0801-.1133-.1973-.1699-.3506-.1699s-.2686,.0566-.3457,.1699c-.0771,.1143-.1152,.2773-.1152,.4902v.8271h.9326Zm1.1201-1.4082c-.0762-.1191-.1973-.1787-.3613-.1787s-.2852,.0547-.3633,.1621c-.0791,.1084-.1182,.2803-.1182,.5137v.9111h.958v-.874c0-.2383-.0381-.416-.1152-.5342Z"/><path class="cls-7" d="M189.2218,176.568c-.0557,.0537-.124,.0811-.2041,.0811-.0811,0-.1475-.0273-.2021-.0811-.0537-.0547-.0811-.1201-.0811-.1973,0-.0762,.0273-.1426,.0811-.1982,.0547-.0557,.1211-.084,.2021-.084,.0801,0,.1484,.0283,.2041,.084s.084,.1221,.084,.1982c0,.0771-.0283,.1426-.084,.1973Z"/></g><g><path class="cls-7" d="M196.2687,183.9469c.1865-.2002,.4307-.3008,.7305-.3008,.21,0,.3955,.0508,.5576,.1514,.1631,.1016,.291,.252,.3857,.4512,.0938,.1982,.1406,.4414,.1406,.7275,0,.2656-.042,.5156-.1279,.752-.0859,.2354-.2002,.4248-.3428,.5684l-.2988-.1836c.126-.1221,.2275-.2842,.3066-.4873,.0781-.2021,.1172-.4189,.1172-.6494,0-.2998-.0654-.5322-.1963-.6963s-.3115-.2461-.542-.2461c-.2266,0-.4053,.082-.5342,.2461s-.1934,.4121-.1934,.7432v.2627h-.2783l-1.2725-1.0166v1.875h-.335v-2.3564h.2666l1.3047,1.0371c.0205-.3848,.125-.6768,.3115-.8779Z"/><path class="cls-7" d="M196.8263,181.86v.6289h1.2256v.3711h-2.7549v-.3711h1.21v-.6338l-1.21-.9697v-.4033l1.3359,1.085,1.4189-1.1631v.4395l-1.2256,1.0166Z"/><path class="cls-7" d="M197.3029,177.5026c.2412,0,.4268,.0889,.5557,.2666,.1289,.1787,.1934,.4434,.1934,.7959v1.252h-2.7549v-1.2148c0-.3145,.0615-.5605,.1836-.7383,.1221-.1787,.2969-.2676,.5234-.2676,.1504,0,.2783,.041,.3848,.123,.1074,.082,.1865,.1963,.2383,.3438,.0879-.374,.3125-.5605,.6758-.5605Zm-.7803,1.9531v-.8271c0-.2129-.04-.376-.1201-.4902-.0801-.1133-.1973-.1699-.3516-.1699-.1533,0-.2686,.0566-.3457,.1699-.0762,.1143-.1152,.2773-.1152,.4902v.8271h.9326Zm1.1211-1.4082c-.0771-.1191-.1973-.1787-.3613-.1787s-.2852,.0547-.3643,.1621c-.0781,.1084-.1182,.2803-.1182,.5137v.9111h.959v-.874c0-.2383-.0381-.416-.1152-.5342Z"/><path class="cls-7" d="M197.9943,176.8034c-.0557,.0537-.124,.0811-.2041,.0811s-.1475-.0273-.2012-.0811c-.0547-.0547-.082-.1201-.082-.1973,0-.0762,.0273-.1426,.082-.1982,.0537-.0557,.1211-.084,.2012-.084s.1484,.0283,.2041,.084,.084,.1221,.084,.1982c0,.0771-.0283,.1426-.084,.1973Z"/></g><g><path class="cls-7" d="M205.8614,183.0553v.7334h.9639v.377h-.9639v2.0684h-.2715l-2.4307-1.9424v-.4189l2.3672,1.875v-1.5928h-.8486v-.3662h.8486v-.7334h.335Z"/><path class="cls-7" d="M205.5997,181.4528v.6289h1.2256v.3711h-2.7549v-.3711h1.21v-.6338l-1.21-.9697v-.4033l1.3359,1.085,1.4189-1.1631v.4395l-1.2256,1.0166Z"/><path class="cls-7" d="M206.0763,177.0953c.2412,0,.4268,.0889,.5557,.2666,.1289,.1787,.1934,.4434,.1934,.7959v1.252h-2.7549v-1.2148c0-.3145,.0615-.5605,.1836-.7383,.1221-.1787,.2969-.2676,.5234-.2676,.1504,0,.2783,.041,.3848,.123,.1074,.082,.1865,.1963,.2383,.3438,.0879-.374,.3125-.5605,.6758-.5605Zm-.7803,1.9531v-.8271c0-.2129-.04-.376-.1201-.4902-.0801-.1133-.1973-.1699-.3516-.1699-.1533,0-.2686,.0566-.3457,.1699-.0762,.1143-.1152,.2773-.1152,.4902v.8271h.9326Zm1.1211-1.4082c-.0771-.1191-.1973-.1787-.3613-.1787s-.2852,.0547-.3643,.1621c-.0781,.1084-.1182,.2803-.1182,.5137v.9111h.959v-.874c0-.2383-.0381-.416-.1152-.5342Z"/><path class="cls-7" d="M206.7677,176.3961c-.0557,.0537-.124,.0811-.2041,.0811s-.1475-.0273-.2012-.0811c-.0547-.0547-.082-.1201-.082-.1973,0-.0762,.0273-.1426,.082-.1982,.0537-.0557,.1211-.084,.2012-.084s.1484,.0283,.2041,.084,.084,.1221,.084,.1982c0,.0771-.0283,.1426-.084,.1973Z"/></g><g><path class="cls-7" d="M211.9318,183.8873h3.667v.377h-3.3311v.8643h-.3359v-1.2412Z"/><path class="cls-7" d="M214.3732,181.7555v.6289h1.2256v.3711h-2.7549v-.3711h1.21v-.6338l-1.21-.9697v-.4033l1.335,1.085,1.4199-1.1631v.4395l-1.2256,1.0166Z"/><path class="cls-7" d="M214.8497,177.3981c.2412,0,.4258,.0889,.5547,.2666,.1299,.1787,.1943,.4434,.1943,.7959v1.252h-2.7549v-1.2148c0-.3145,.0605-.5605,.1826-.7383,.123-.1787,.2969-.2676,.5244-.2676,.1494,0,.2783,.041,.3848,.123s.1855,.1963,.2383,.3438c.0869-.374,.3125-.5605,.6758-.5605Zm-.7803,1.9531v-.8271c0-.2129-.04-.376-.1211-.4902-.0801-.1133-.1973-.1699-.3506-.1699s-.2686,.0566-.3457,.1699c-.0771,.1143-.1152,.2773-.1152,.4902v.8271h.9326Zm1.1201-1.4082c-.0762-.1191-.1973-.1787-.3613-.1787s-.2852,.0547-.3633,.1621c-.0791,.1084-.1182,.2803-.1182,.5137v.9111h.958v-.874c0-.2383-.0381-.416-.1152-.5342Z"/><path class="cls-7" d="M215.5411,176.6989c-.0557,.0537-.124,.0811-.2041,.0811-.0811,0-.1475-.0273-.2021-.0811-.0537-.0547-.0811-.1201-.0811-.1973,0-.0762,.0273-.1426,.0811-.1982,.0547-.0557,.1211-.084,.2021-.084,.0801,0,.1484,.0283,.2041,.084s.084,.1221,.084,.1982c0,.0771-.0283,.1426-.084,.1973Z"/></g><g><path class="cls-7" d="M224.0353,183.3512h.3359v2.5723h-.2676l-1.4922-1.5244c-.1885-.1914-.3525-.3223-.4902-.3896-.1377-.0684-.2764-.1025-.416-.1025-.2168,0-.3848,.0742-.5059,.2227-.1201,.1484-.1807,.3604-.1807,.6367,0,.4287,.1367,.7627,.4092,1l-.2305,.2666c-.168-.1426-.2969-.3252-.3877-.5469s-.1367-.4727-.1367-.752c0-.373,.0889-.6689,.2646-.8877,.1768-.2178,.418-.3271,.7256-.3271,.1885,0,.3701,.042,.5449,.126s.375,.2422,.6016,.4766l1.2256,1.2461v-2.0166Z"/><path class="cls-7" d="M223.1456,181.6237v.6289h1.2256v.3711h-2.7549v-.3711h1.21v-.6338l-1.21-.9697v-.4033l1.335,1.085,1.4199-1.1631v.4395l-1.2256,1.0166Z"/><path class="cls-7" d="M223.6222,177.2662c.2412,0,.4258,.0889,.5547,.2666,.1299,.1787,.1943,.4434,.1943,.7959v1.252h-2.7549v-1.2148c0-.3145,.0605-.5605,.1826-.7383,.123-.1787,.2969-.2676,.5244-.2676,.1494,0,.2783,.041,.3848,.123s.1855,.1963,.2383,.3438c.0869-.374,.3125-.5605,.6758-.5605Zm-.7803,1.9531v-.8271c0-.2129-.04-.376-.1211-.4902-.0801-.1133-.1973-.1699-.3506-.1699s-.2686,.0566-.3457,.1699c-.0771,.1143-.1152,.2773-.1152,.4902v.8271h.9326Zm1.1201-1.4082c-.0762-.1191-.1973-.1787-.3613-.1787s-.2852,.0547-.3633,.1621c-.0791,.1084-.1182,.2803-.1182,.5137v.9111h.958v-.874c0-.2383-.0381-.416-.1152-.5342Z"/><path class="cls-7" d="M224.3136,176.567c-.0557,.0537-.124,.0811-.2041,.0811-.0811,0-.1475-.0273-.2021-.0811-.0537-.0547-.0811-.1201-.0811-.1973,0-.0762,.0273-.1426,.0811-.1982,.0547-.0557,.1211-.084,.2021-.084,.0801,0,.1484,.0283,.2041,.084s.084,.1221,.084,.1982c0,.0771-.0283,.1426-.084,.1973Z"/></g><g><path class="cls-7" d="M231.3614,183.9469c.1865-.2002,.4297-.3008,.7305-.3008,.209,0,.3955,.0508,.5576,.1514,.1621,.1016,.291,.252,.3848,.4512,.0947,.1982,.1416,.4414,.1416,.7275,0,.2656-.043,.5156-.1279,.752-.0859,.2354-.2002,.4248-.3438,.5684l-.2979-.1836c.125-.1221,.2275-.2842,.3057-.4873,.0791-.2021,.1182-.4189,.1182-.6494,0-.2998-.0654-.5322-.1963-.6963s-.3115-.2461-.542-.2461c-.2275,0-.4053,.082-.5342,.2461-.1299,.1641-.1943,.4121-.1943,.7432v.2627h-.2773l-1.2725-1.0166v1.875h-.3359v-2.3564h.2676l1.3037,1.0371c.0215-.3848,.125-.6768,.3125-.8779Z"/><path class="cls-7" d="M231.9191,181.86v.6289h1.2256v.3711h-2.7549v-.3711h1.21v-.6338l-1.21-.9697v-.4033l1.335,1.085,1.4199-1.1631v.4395l-1.2256,1.0166Z"/><path class="cls-7" d="M232.3956,177.5026c.2412,0,.4258,.0889,.5547,.2666,.1299,.1787,.1943,.4434,.1943,.7959v1.252h-2.7549v-1.2148c0-.3145,.0605-.5605,.1826-.7383,.123-.1787,.2969-.2676,.5244-.2676,.1494,0,.2783,.041,.3848,.123s.1855,.1963,.2383,.3438c.0869-.374,.3125-.5605,.6758-.5605Zm-.7803,1.9531v-.8271c0-.2129-.04-.376-.1211-.4902-.0801-.1133-.1973-.1699-.3506-.1699s-.2686,.0566-.3457,.1699c-.0771,.1143-.1152,.2773-.1152,.4902v.8271h.9326Zm1.1201-1.4082c-.0762-.1191-.1973-.1787-.3613-.1787s-.2852,.0547-.3633,.1621c-.0791,.1084-.1182,.2803-.1182,.5137v.9111h.958v-.874c0-.2383-.0381-.416-.1152-.5342Z"/><path class="cls-7" d="M233.087,176.8034c-.0557,.0537-.124,.0811-.2041,.0811-.0811,0-.1475-.0273-.2021-.0811-.0537-.0547-.0811-.1201-.0811-.1973,0-.0762,.0273-.1426,.0811-.1982,.0547-.0557,.1211-.084,.2021-.084,.0801,0,.1484,.0283,.2041,.084s.084,.1221,.084,.1982c0,.0771-.0283,.1426-.084,.1973Z"/></g><g><path class="cls-7" d="M240.9532,183.0543v.7334h.9639v.377h-.9639v2.0684h-.2715l-2.4307-1.9424v-.4189l2.3672,1.875v-1.5928h-.8486v-.3662h.8486v-.7334h.335Z"/><path class="cls-7" d="M240.6915,181.4518v.6289h1.2256v.3711h-2.7549v-.3711h1.21v-.6338l-1.21-.9697v-.4033l1.3359,1.085,1.4189-1.1631v.4395l-1.2256,1.0166Z"/><path class="cls-7" d="M241.1681,177.0944c.2412,0,.4268,.0889,.5557,.2666,.1289,.1787,.1934,.4434,.1934,.7959v1.252h-2.7549v-1.2148c0-.3145,.0615-.5605,.1836-.7383,.1221-.1787,.2969-.2676,.5234-.2676,.1504,0,.2783,.041,.3848,.123,.1074,.082,.1865,.1963,.2383,.3438,.0879-.374,.3125-.5605,.6758-.5605Zm-.7803,1.9531v-.8271c0-.2129-.04-.376-.1201-.4902-.0801-.1133-.1973-.1699-.3516-.1699-.1533,0-.2686,.0566-.3457,.1699-.0762,.1143-.1152,.2773-.1152,.4902v.8271h.9326Zm1.1211-1.4082c-.0771-.1191-.1973-.1787-.3613-.1787s-.2852,.0547-.3643,.1621c-.0781,.1084-.1182,.2803-.1182,.5137v.9111h.959v-.874c0-.2383-.0381-.416-.1152-.5342Z"/><path class="cls-7" d="M241.8595,176.3951c-.0557,.0537-.124,.0811-.2041,.0811s-.1475-.0273-.2012-.0811c-.0547-.0547-.082-.1201-.082-.1973,0-.0762,.0273-.1426,.082-.1982,.0537-.0557,.1211-.084,.2012-.084s.1484,.0283,.2041,.084,.084,.1221,.084,.1982c0,.0771-.0283,.1426-.084,.1973Z"/></g><g><path class="cls-7" d="M247.0236,183.8873h3.667v.377h-3.3311v.8643h-.3359v-1.2412Z"/><path class="cls-7" d="M249.465,181.7555v.6289h1.2256v.3711h-2.7549v-.3711h1.21v-.6338l-1.21-.9697v-.4033l1.335,1.085,1.4199-1.1631v.4395l-1.2256,1.0166Z"/><path class="cls-7" d="M249.9415,177.3981c.2412,0,.4258,.0889,.5547,.2666,.1299,.1787,.1943,.4434,.1943,.7959v1.252h-2.7549v-1.2148c0-.3145,.0605-.5605,.1826-.7383,.123-.1787,.2969-.2676,.5244-.2676,.1494,0,.2783,.041,.3848,.123s.1855,.1963,.2383,.3438c.0869-.374,.3125-.5605,.6758-.5605Zm-.7803,1.9531v-.8271c0-.2129-.04-.376-.1211-.4902-.0801-.1133-.1973-.1699-.3506-.1699s-.2686,.0566-.3457,.1699c-.0771,.1143-.1152,.2773-.1152,.4902v.8271h.9326Zm1.1201-1.4082c-.0762-.1191-.1973-.1787-.3613-.1787s-.2852,.0547-.3633,.1621c-.0791,.1084-.1182,.2803-.1182,.5137v.9111h.958v-.874c0-.2383-.0381-.416-.1152-.5342Z"/><path class="cls-7" d="M250.6329,176.6989c-.0557,.0537-.124,.0811-.2041,.0811-.0811,0-.1475-.0273-.2021-.0811-.0537-.0547-.0811-.1201-.0811-.1973,0-.0762,.0273-.1426,.0811-.1982,.0547-.0557,.1211-.084,.2021-.084,.0801,0,.1484,.0283,.2041,.084s.084,.1221,.084,.1982c0,.0771-.0283,.1426-.084,.1973Z"/></g><g><path class="cls-7" d="M259.128,183.3522h.335v2.5723h-.2666l-1.4932-1.5244c-.1885-.1914-.3516-.3223-.4893-.3896-.1377-.0684-.2773-.1025-.417-.1025-.2158,0-.3848,.0742-.5049,.2227-.1211,.1484-.1807,.3604-.1807,.6367,0,.4287,.1357,.7627,.4082,1l-.2305,.2666c-.168-.1426-.2969-.3252-.3877-.5469s-.1357-.4727-.1357-.752c0-.373,.0879-.6689,.2646-.8877,.1758-.2178,.418-.3271,.7246-.3271,.1885,0,.3701,.042,.5449,.126s.376,.2422,.6025,.4766l1.2256,1.2461v-2.0166Z"/><path class="cls-7" d="M258.2374,181.6246v.6289h1.2256v.3711h-2.7549v-.3711h1.21v-.6338l-1.21-.9697v-.4033l1.3359,1.085,1.4189-1.1631v.4395l-1.2256,1.0166Z"/><path class="cls-7" d="M258.714,177.2672c.2412,0,.4268,.0889,.5557,.2666,.1289,.1787,.1934,.4434,.1934,.7959v1.252h-2.7549v-1.2148c0-.3145,.0615-.5605,.1836-.7383,.1221-.1787,.2969-.2676,.5234-.2676,.1504,0,.2783,.041,.3848,.123,.1074,.082,.1865,.1963,.2383,.3438,.0879-.374,.3125-.5605,.6758-.5605Zm-.7803,1.9531v-.8271c0-.2129-.04-.376-.1201-.4902-.0801-.1133-.1973-.1699-.3516-.1699-.1533,0-.2686,.0566-.3457,.1699-.0762,.1143-.1152,.2773-.1152,.4902v.8271h.9326Zm1.1211-1.4082c-.0771-.1191-.1973-.1787-.3613-.1787s-.2852,.0547-.3643,.1621c-.0781,.1084-.1182,.2803-.1182,.5137v.9111h.959v-.874c0-.2383-.0381-.416-.1152-.5342Z"/><path class="cls-7" d="M259.4054,176.568c-.0557,.0537-.124,.0811-.2041,.0811s-.1475-.0273-.2012-.0811c-.0547-.0547-.082-.1201-.082-.1973,0-.0762,.0273-.1426,.082-.1982,.0537-.0557,.1211-.084,.2012-.084s.1484,.0283,.2041,.084,.084,.1221,.084,.1982c0,.0771-.0283,.1426-.084,.1973Z"/></g><g><path class="cls-7" d="M266.4532,183.945c.1865-.2002,.4297-.3008,.7305-.3008,.209,0,.3955,.0508,.5576,.1514,.1621,.1016,.291,.252,.3848,.4512,.0947,.1982,.1416,.4414,.1416,.7275,0,.2656-.043,.5156-.1279,.752-.0859,.2354-.2002,.4248-.3438,.5684l-.2979-.1836c.125-.1221,.2275-.2842,.3057-.4873,.0791-.2021,.1182-.4189,.1182-.6494,0-.2998-.0654-.5322-.1963-.6963s-.3115-.2461-.542-.2461c-.2275,0-.4053,.082-.5342,.2461-.1299,.1641-.1943,.4121-.1943,.7432v.2627h-.2773l-1.2725-1.0166v1.875h-.3359v-2.3564h.2676l1.3037,1.0371c.0215-.3848,.125-.6768,.3125-.8779Z"/><path class="cls-7" d="M267.0109,181.858v.6289h1.2256v.3711h-2.7549v-.3711h1.21v-.6338l-1.21-.9697v-.4033l1.335,1.085,1.4199-1.1631v.4395l-1.2256,1.0166Z"/><path class="cls-7" d="M267.4874,177.5006c.2412,0,.4258,.0889,.5547,.2666,.1299,.1787,.1943,.4434,.1943,.7959v1.252h-2.7549v-1.2148c0-.3145,.0605-.5605,.1826-.7383,.123-.1787,.2969-.2676,.5244-.2676,.1494,0,.2783,.041,.3848,.123s.1855,.1963,.2383,.3438c.0869-.374,.3125-.5605,.6758-.5605Zm-.7803,1.9531v-.8271c0-.2129-.04-.376-.1211-.4902-.0801-.1133-.1973-.1699-.3506-.1699s-.2686,.0566-.3457,.1699c-.0771,.1143-.1152,.2773-.1152,.4902v.8271h.9326Zm1.1201-1.4082c-.0762-.1191-.1973-.1787-.3613-.1787s-.2852,.0547-.3633,.1621c-.0791,.1084-.1182,.2803-.1182,.5137v.9111h.958v-.874c0-.2383-.0381-.416-.1152-.5342Z"/><path class="cls-7" d="M268.1788,176.8014c-.0557,.0537-.124,.0811-.2041,.0811-.0811,0-.1475-.0273-.2021-.0811-.0537-.0547-.0811-.1201-.0811-.1973,0-.0762,.0273-.1426,.0811-.1982,.0547-.0557,.1211-.084,.2021-.084,.0801,0,.1484,.0283,.2041,.084s.084,.1221,.084,.1982c0,.0771-.0283,.1426-.084,.1973Z"/></g><g><path class="cls-7" d="M276.045,183.0524v.7334h.9639v.377h-.9639v2.0684h-.2715l-2.4307-1.9424v-.4189l2.3672,1.875v-1.5928h-.8486v-.3662h.8486v-.7334h.335Z"/><path class="cls-7" d="M275.7833,181.4498v.6289h1.2256v.3711h-2.7549v-.3711h1.21v-.6338l-1.21-.9697v-.4033l1.3359,1.085,1.4189-1.1631v.4395l-1.2256,1.0166Z"/><path class="cls-7" d="M276.2599,177.0924c.2412,0,.4268,.0889,.5557,.2666,.1289,.1787,.1934,.4434,.1934,.7959v1.252h-2.7549v-1.2148c0-.3145,.0615-.5605,.1836-.7383,.1221-.1787,.2969-.2676,.5234-.2676,.1504,0,.2783,.041,.3848,.123,.1074,.082,.1865,.1963,.2383,.3438,.0879-.374,.3125-.5605,.6758-.5605Zm-.7803,1.9531v-.8271c0-.2129-.04-.376-.1201-.4902-.0801-.1133-.1973-.1699-.3516-.1699-.1533,0-.2686,.0566-.3457,.1699-.0762,.1143-.1152,.2773-.1152,.4902v.8271h.9326Zm1.1211-1.4082c-.0771-.1191-.1973-.1787-.3613-.1787s-.2852,.0547-.3643,.1621c-.0781,.1084-.1182,.2803-.1182,.5137v.9111h.959v-.874c0-.2383-.0381-.416-.1152-.5342Z"/><path class="cls-7" d="M276.9513,176.3932c-.0557,.0537-.124,.0811-.2041,.0811s-.1475-.0273-.2012-.0811c-.0547-.0547-.082-.1201-.082-.1973,0-.0762,.0273-.1426,.082-.1982,.0537-.0557,.1211-.084,.2012-.084s.1484,.0283,.2041,.084,.084,.1221,.084,.1982c0,.0771-.0283,.1426-.084,.1973Z"/></g><g><path d="M8.6808,198.2877v.3906h-3.001v-.3115l1.7783-1.7412c.2236-.2207,.376-.4111,.4551-.5713,.0801-.1611,.1191-.3232,.1191-.4863,0-.2529-.0859-.4492-.2598-.5898-.1729-.1406-.4199-.2109-.7422-.2109-.501,0-.8896,.1592-1.167,.4766l-.3115-.2686c.167-.1953,.3799-.3457,.6387-.4521,.2588-.1055,.5508-.1592,.877-.1592,.4355,0,.7812,.1035,1.0352,.3086,.2549,.2061,.3818,.4883,.3818,.8467,0,.2197-.0488,.4316-.1465,.6357-.0977,.2031-.2832,.4375-.5557,.7021l-1.4541,1.4307h2.3525Z"/><path d="M9.9913,198.4518c-.2588-.1748-.4609-.4258-.6055-.7539s-.2168-.7139-.2168-1.1582,.0723-.8301,.2168-1.1582c.1445-.3271,.3467-.5791,.6055-.7549,.2588-.1748,.5527-.2627,.8828-.2627s.624,.0879,.8828,.2627c.2588,.1758,.4609,.4277,.6084,.7549,.1465,.3281,.2197,.7139,.2197,1.1582s-.0732,.8301-.2197,1.1582c-.1475,.3281-.3496,.5791-.6084,.7539-.2588,.1758-.5527,.2637-.8828,.2637s-.624-.0879-.8828-.2637Zm1.54-.3477c.1895-.1387,.3369-.3398,.4424-.6055,.1064-.2646,.1592-.584,.1592-.959s-.0527-.6943-.1592-.959c-.1055-.2656-.2529-.4668-.4424-.6055s-.4092-.208-.6572-.208c-.249,0-.4678,.0693-.6572,.208s-.3369,.3398-.4424,.6055c-.1064,.2646-.1592,.584-.1592,.959s.0527,.6943,.1592,.959c.1055,.2656,.2529,.4668,.4424,.6055s.4082,.208,.6572,.208c.248,0,.4678-.0693,.6572-.208Z"/><path d="M14.3448,194.401v4.2773h-.4395v-3.8867h-1.0088v-.3906h1.4482Z"/><path d="M18.9464,197.5543h-.8555v1.124h-.4404v-1.124h-2.4131v-.3184l2.2666-2.835h.4893l-2.1885,2.7617h1.8584v-.9893h.4277v.9893h.8555v.3916Z"/></g><g><path d="M43.9933,198.2877v.3906h-3v-.3115l1.7783-1.7412c.2236-.2207,.375-.4111,.4551-.5713,.0791-.1611,.1191-.3232,.1191-.4863,0-.2529-.0869-.4492-.2598-.5898s-.4209-.2109-.7422-.2109c-.501,0-.8906,.1592-1.168,.4766l-.3115-.2686c.167-.1953,.3799-.3457,.6387-.4521,.2588-.1055,.5508-.1592,.877-.1592,.4355,0,.7812,.1035,1.0361,.3086,.2539,.2061,.3818,.4883,.3818,.8467,0,.2197-.0488,.4316-.1465,.6357-.0977,.2031-.2832,.4375-.5566,.7021l-1.4541,1.4307h2.3525Z"/><path d="M45.3097,198.4518c-.2588-.1748-.46-.4258-.6045-.7539s-.2168-.7139-.2168-1.1582,.0723-.8301,.2168-1.1582c.1445-.3271,.3457-.5791,.6045-.7549,.2588-.1748,.5527-.2627,.8828-.2627s.625,.0879,.8838,.2627c.2578,.1758,.4609,.4277,.6074,.7549,.1465,.3281,.2197,.7139,.2197,1.1582s-.0732,.8301-.2197,1.1582-.3496,.5791-.6074,.7539c-.2588,.1758-.5537,.2637-.8838,.2637s-.624-.0879-.8828-.2637Zm1.54-.3477c.1895-.1387,.3369-.3398,.4434-.6055,.1055-.2646,.1582-.584,.1582-.959s-.0527-.6943-.1582-.959c-.1064-.2656-.2539-.4668-.4434-.6055s-.4082-.208-.6572-.208c-.248,0-.4668,.0693-.6562,.208s-.3369,.3398-.4434,.6055c-.1055,.2646-.1592,.584-.1592,.959s.0537,.6943,.1592,.959c.1064,.2656,.2539,.4668,.4434,.6055s.4082,.208,.6562,.208c.249,0,.4678-.0693,.6572-.208Z"/><path d="M49.6642,194.401v4.2773h-.4404v-3.8867h-1.0078v-.3906h1.4482Z"/><path d="M53.1066,196.4879c.2832,.2217,.4248,.5322,.4248,.9316,0,.249-.0576,.4707-.1738,.666s-.29,.3496-.5225,.4609c-.2324,.1123-.5176,.1689-.8555,.1689-.3057,0-.5957-.0498-.8711-.1504-.2744-.0996-.4961-.2334-.6631-.4004l.2139-.3477c.1426,.1465,.3301,.2656,.5625,.3574s.4824,.1377,.752,.1377c.3545,0,.6279-.0801,.8213-.2383,.1934-.1592,.291-.3711,.291-.6357,0-.2939-.1094-.5156-.3271-.666-.2178-.1514-.5859-.2266-1.1035-.2266h-.9102l.2197-2.1445h2.3408v.3906h-1.9561l-.1465,1.3633h.5498c.6191,0,1.0703,.1104,1.3535,.333Z"/></g><g><path d="M79.0978,198.2877v.3906h-3v-.3115l1.7783-1.7412c.2236-.2207,.375-.4111,.4551-.5713,.0791-.1611,.1191-.3232,.1191-.4863,0-.2529-.0869-.4492-.2598-.5898s-.4209-.2109-.7422-.2109c-.501,0-.8906,.1592-1.168,.4766l-.3115-.2686c.167-.1953,.3799-.3457,.6387-.4521,.2588-.1055,.5508-.1592,.877-.1592,.4355,0,.7812,.1035,1.0361,.3086,.2539,.2061,.3818,.4883,.3818,.8467,0,.2197-.0488,.4316-.1465,.6357-.0977,.2031-.2832,.4375-.5566,.7021l-1.4541,1.4307h2.3525Z"/><path d="M80.4142,198.4518c-.2588-.1748-.46-.4258-.6045-.7539s-.2168-.7139-.2168-1.1582,.0723-.8301,.2168-1.1582c.1445-.3271,.3457-.5791,.6045-.7549,.2588-.1748,.5527-.2627,.8828-.2627s.625,.0879,.8838,.2627c.2578,.1758,.4609,.4277,.6074,.7549,.1465,.3281,.2197,.7139,.2197,1.1582s-.0732,.8301-.2197,1.1582-.3496,.5791-.6074,.7539c-.2588,.1758-.5537,.2637-.8838,.2637s-.624-.0879-.8828-.2637Zm1.54-.3477c.1895-.1387,.3369-.3398,.4434-.6055,.1055-.2646,.1582-.584,.1582-.959s-.0527-.6943-.1582-.959c-.1064-.2656-.2539-.4668-.4434-.6055s-.4082-.208-.6572-.208c-.248,0-.4668,.0693-.6562,.208s-.3369,.3398-.4434,.6055c-.1055,.2646-.1592,.584-.1592,.959s.0537,.6943,.1592,.959c.1064,.2656,.2539,.4668,.4434,.6055s.4082,.208,.6562,.208c.249,0,.4678-.0693,.6572-.208Z"/><path d="M84.7687,194.401v4.2773h-.4404v-3.8867h-1.0078v-.3906h1.4482Z"/><path d="M88.254,196.277c.2178,.1055,.3887,.2559,.5107,.4492s.1826,.418,.1826,.6748c0,.2607-.0625,.4912-.1895,.6904-.126,.2002-.2998,.3535-.5225,.4619-.2217,.1074-.4707,.1621-.748,.1621-.5664,0-1-.1865-1.3018-.5596s-.4521-.8994-.4521-1.5791c0-.4775,.082-.8809,.2441-1.21,.1631-.3301,.3916-.5801,.6846-.749,.2939-.1689,.6357-.2539,1.0264-.2539,.4238,0,.7617,.0781,1.0146,.2324l-.1768,.3545c-.2041-.1348-.4814-.2012-.8311-.2012-.4727,0-.8438,.1494-1.1123,.4492-.2686,.2988-.4033,.7334-.4033,1.3037,0,.1025,.0059,.2188,.0186,.3486,.1055-.2324,.2744-.4121,.5068-.541,.2324-.1279,.499-.1924,.8008-.1924,.2812,0,.5303,.0527,.748,.1592Zm-.0303,1.8115c.1934-.1689,.29-.3936,.29-.6748s-.0967-.5049-.29-.6729c-.1934-.167-.4551-.25-.7852-.25-.2158,0-.4062,.041-.5713,.1221-.165,.082-.2949,.1934-.3877,.3359-.0947,.1426-.1406,.3018-.1406,.4766,0,.1631,.043,.3145,.1309,.4521,.0879,.1387,.2168,.251,.3877,.3359,.1719,.0859,.375,.1289,.6113,.1289,.3096,0,.5615-.085,.7549-.2539Z"/></g><g><path d="M114.5939,198.2877v.3906h-3.001v-.3115l1.7783-1.7412c.2236-.2207,.376-.4111,.4551-.5713,.0801-.1611,.1191-.3232,.1191-.4863,0-.2529-.0859-.4492-.2598-.5898-.1729-.1406-.4199-.2109-.7422-.2109-.501,0-.8896,.1592-1.167,.4766l-.3115-.2686c.167-.1953,.3799-.3457,.6387-.4521,.2588-.1055,.5508-.1592,.877-.1592,.4355,0,.7812,.1035,1.0352,.3086,.2549,.2061,.3818,.4883,.3818,.8467,0,.2197-.0488,.4316-.1465,.6357-.0977,.2031-.2832,.4375-.5557,.7021l-1.4541,1.4307h2.3525Z"/><path d="M115.9103,198.4518c-.2588-.1748-.4609-.4258-.6055-.7539s-.2168-.7139-.2168-1.1582,.0723-.8301,.2168-1.1582c.1445-.3271,.3467-.5791,.6055-.7549,.2588-.1748,.5527-.2627,.8828-.2627s.624,.0879,.8828,.2627c.2588,.1758,.4609,.4277,.6084,.7549,.1465,.3281,.2197,.7139,.2197,1.1582s-.0732,.8301-.2197,1.1582c-.1475,.3281-.3496,.5791-.6084,.7539-.2588,.1758-.5527,.2637-.8828,.2637s-.624-.0879-.8828-.2637Zm1.54-.3477c.1895-.1387,.3369-.3398,.4424-.6055,.1064-.2646,.1592-.584,.1592-.959s-.0527-.6943-.1592-.959c-.1055-.2656-.2529-.4668-.4424-.6055s-.4092-.208-.6572-.208c-.249,0-.4678,.0693-.6572,.208s-.3369,.3398-.4424,.6055c-.1064,.2646-.1592,.584-.1592,.959s.0527,.6943,.1592,.959c.1055,.2656,.2529,.4668,.4424,.6055s.4082,.208,.6572,.208c.248,0,.4678-.0693,.6572-.208Z"/><path d="M120.2638,194.401v4.2773h-.4395v-3.8867h-1.0088v-.3906h1.4482Z"/><path d="M124.2482,194.401v.3115l-1.791,3.9658h-.4766l1.7598-3.8867h-2.1992v.8008h-.4346v-1.1914h3.1416Z"/></g><g><path d="M149.4181,198.2877v.3906h-3.001v-.3115l1.7783-1.7412c.2236-.2207,.376-.4111,.4551-.5713,.0801-.1611,.1191-.3232,.1191-.4863,0-.2529-.0859-.4492-.2598-.5898-.1729-.1406-.4199-.2109-.7422-.2109-.501,0-.8896,.1592-1.167,.4766l-.3115-.2686c.167-.1953,.3799-.3457,.6387-.4521,.2588-.1055,.5508-.1592,.877-.1592,.4355,0,.7812,.1035,1.0352,.3086,.2549,.2061,.3818,.4883,.3818,.8467,0,.2197-.0488,.4316-.1465,.6357-.0977,.2031-.2832,.4375-.5557,.7021l-1.4541,1.4307h2.3525Z"/><path d="M150.7345,198.4518c-.2588-.1748-.4609-.4258-.6055-.7539s-.2168-.7139-.2168-1.1582,.0723-.8301,.2168-1.1582c.1445-.3271,.3467-.5791,.6055-.7549,.2588-.1748,.5527-.2627,.8828-.2627s.624,.0879,.8828,.2627c.2588,.1758,.4609,.4277,.6084,.7549,.1465,.3281,.2197,.7139,.2197,1.1582s-.0732,.8301-.2197,1.1582c-.1475,.3281-.3496,.5791-.6084,.7539-.2588,.1758-.5527,.2637-.8828,.2637s-.624-.0879-.8828-.2637Zm1.54-.3477c.1895-.1387,.3369-.3398,.4424-.6055,.1064-.2646,.1592-.584,.1592-.959s-.0527-.6943-.1592-.959c-.1055-.2656-.2529-.4668-.4424-.6055s-.4092-.208-.6572-.208c-.249,0-.4678,.0693-.6572,.208s-.3369,.3398-.4424,.6055c-.1064,.2646-.1592,.584-.1592,.959s.0527,.6943,.1592,.959c.1055,.2656,.2529,.4668,.4424,.6055s.4082,.208,.6572,.208c.248,0,.4678-.0693,.6572-.208Z"/><path d="M155.088,194.401v4.2773h-.4395v-3.8867h-1.0088v-.3906h1.4482Z"/><path d="M159.1241,196.8395c.1445,.1787,.2168,.3945,.2168,.6475,0,.248-.0674,.4648-.2012,.6504-.1348,.1855-.3271,.3281-.5781,.4277-.25,.1006-.5449,.1504-.8828,.1504-.5137,0-.917-.1104-1.21-.3301-.293-.2207-.4395-.5195-.4395-.8984,0-.2568,.0703-.4736,.21-.6514,.1406-.1768,.3457-.3105,.6143-.3994-.2197-.0859-.3867-.209-.501-.3701s-.1709-.3516-.1709-.5713c0-.3467,.1357-.6211,.4062-.8252,.2705-.2031,.6348-.3057,1.0908-.3057,.3018,0,.5654,.0459,.791,.1377,.2266,.0918,.4023,.2236,.5293,.3945,.126,.1709,.1895,.3701,.1895,.5986,0,.2197-.0596,.4102-.1777,.5713s-.2871,.2842-.5068,.3701c.2686,.0889,.4756,.2236,.6201,.4033Zm-.5566,1.2705c.2139-.1543,.3213-.3643,.3213-.6289,0-.2656-.1074-.4736-.3213-.627-.2139-.1523-.5098-.2285-.8887-.2285-.375,0-.6689,.0762-.8828,.2285-.2139,.1533-.3213,.3613-.3213,.627,0,.2686,.1064,.4795,.3184,.6318,.2119,.1533,.5068,.2295,.8857,.2295s.6748-.0771,.8887-.2324Zm-1.665-2.041c.1875,.1387,.4463,.208,.7764,.208s.5898-.0693,.7793-.208,.2842-.3232,.2842-.5557c0-.2402-.0967-.4297-.29-.5684-.1943-.1387-.4512-.208-.7734-.208-.3262,0-.584,.0693-.7725,.208-.1895,.1387-.2842,.3262-.2842,.5625,0,.2354,.0928,.4229,.2803,.5615Z"/></g><g><path d="M184.6202,198.2877v.3906h-3.001v-.3115l1.7783-1.7412c.2236-.2207,.376-.4111,.4551-.5713,.0801-.1611,.1191-.3232,.1191-.4863,0-.2529-.0859-.4492-.2598-.5898-.1729-.1406-.4199-.2109-.7422-.2109-.501,0-.8896,.1592-1.167,.4766l-.3115-.2686c.167-.1953,.3799-.3457,.6387-.4521,.2588-.1055,.5508-.1592,.877-.1592,.4355,0,.7812,.1035,1.0352,.3086,.2549,.2061,.3818,.4883,.3818,.8467,0,.2197-.0488,.4316-.1465,.6357-.0977,.2031-.2832,.4375-.5557,.7021l-1.4541,1.4307h2.3525Z"/><path d="M185.9366,198.4518c-.2588-.1748-.4609-.4258-.6055-.7539s-.2168-.7139-.2168-1.1582,.0723-.8301,.2168-1.1582c.1445-.3271,.3467-.5791,.6055-.7549,.2588-.1748,.5527-.2627,.8828-.2627s.624,.0879,.8828,.2627c.2588,.1758,.4609,.4277,.6084,.7549,.1465,.3281,.2197,.7139,.2197,1.1582s-.0732,.8301-.2197,1.1582c-.1475,.3281-.3496,.5791-.6084,.7539-.2588,.1758-.5527,.2637-.8828,.2637s-.624-.0879-.8828-.2637Zm1.54-.3477c.1895-.1387,.3369-.3398,.4424-.6055,.1064-.2646,.1592-.584,.1592-.959s-.0527-.6943-.1592-.959c-.1055-.2656-.2529-.4668-.4424-.6055s-.4092-.208-.6572-.208c-.249,0-.4678,.0693-.6572,.208s-.3369,.3398-.4424,.6055c-.1064,.2646-.1592,.584-.1592,.959s.0527,.6943,.1592,.959c.1055,.2656,.2529,.4668,.4424,.6055s.4082,.208,.6572,.208c.248,0,.4678-.0693,.6572-.208Z"/><path d="M190.2902,194.401v4.2773h-.4395v-3.8867h-1.0088v-.3906h1.4482Z"/><path d="M193.8888,194.9235c.3018,.373,.4531,.8994,.4531,1.5791,0,.4775-.082,.8799-.2451,1.21s-.3906,.5801-.6846,.749c-.293,.1689-.6348,.2539-1.0264,.2539-.4238,0-.7617-.0781-1.0137-.2324l.1768-.3545c.2041,.1348,.4805,.2012,.8311,.2012,.4727,0,.8428-.1494,1.1123-.4492,.2686-.2988,.4033-.7334,.4033-1.3037,0-.1064-.0068-.2227-.0186-.3486-.1064,.2324-.2754,.4121-.5068,.541-.2324,.1279-.499,.1924-.8008,.1924-.2812,0-.5303-.0527-.749-.1592-.2178-.1055-.3877-.2559-.5098-.4492s-.1836-.418-.1836-.6748c0-.2607,.0635-.4912,.1895-.6904,.126-.2002,.3008-.3535,.5225-.4619,.2217-.1074,.4717-.1621,.749-.1621,.5654,0,1,.1865,1.3008,.5596Zm-.6807,1.543c.165-.0811,.2939-.1934,.3877-.3359s.1406-.3018,.1406-.4766c0-.1631-.0439-.3135-.1309-.4521-.0879-.1387-.2178-.251-.3887-.3359-.1709-.0859-.375-.1289-.6113-.1289-.3096,0-.5605,.085-.7539,.2539s-.291,.3936-.291,.6748,.0977,.5049,.291,.6719c.1934,.168,.4551,.251,.7852,.251,.2158,0,.4062-.041,.5713-.1221Z"/></g><g><path d="M219.1349,198.2877v.3906h-3v-.3115l1.7783-1.7412c.2236-.2207,.375-.4111,.4551-.5713,.0791-.1611,.1191-.3232,.1191-.4863,0-.2529-.0869-.4492-.2598-.5898s-.4209-.2109-.7422-.2109c-.501,0-.8906,.1592-1.168,.4766l-.3115-.2686c.167-.1953,.3799-.3457,.6387-.4521,.2588-.1055,.5508-.1592,.877-.1592,.4355,0,.7812,.1035,1.0361,.3086,.2539,.2061,.3818,.4883,.3818,.8467,0,.2197-.0488,.4316-.1465,.6357-.0977,.2031-.2832,.4375-.5566,.7021l-1.4541,1.4307h2.3525Z"/><path d="M220.4513,198.4518c-.2588-.1748-.46-.4258-.6045-.7539s-.2168-.7139-.2168-1.1582,.0723-.8301,.2168-1.1582c.1445-.3271,.3457-.5791,.6045-.7549,.2588-.1748,.5527-.2627,.8828-.2627s.625,.0879,.8838,.2627c.2578,.1758,.4609,.4277,.6074,.7549,.1465,.3281,.2197,.7139,.2197,1.1582s-.0732,.8301-.2197,1.1582-.3496,.5791-.6074,.7539c-.2588,.1758-.5537,.2637-.8838,.2637s-.624-.0879-.8828-.2637Zm1.54-.3477c.1895-.1387,.3369-.3398,.4434-.6055,.1055-.2646,.1582-.584,.1582-.959s-.0527-.6943-.1582-.959c-.1064-.2656-.2539-.4668-.4434-.6055s-.4082-.208-.6572-.208c-.248,0-.4668,.0693-.6562,.208s-.3369,.3398-.4434,.6055c-.1055,.2646-.1592,.584-.1592,.959s.0537,.6943,.1592,.959c.1064,.2656,.2539,.4668,.4434,.6055s.4082,.208,.6562,.208c.249,0,.4678-.0693,.6572-.208Z"/><path d="M226.5411,198.2877v.3906h-3.001v-.3115l1.7783-1.7412c.2236-.2207,.376-.4111,.4551-.5713,.0801-.1611,.1191-.3232,.1191-.4863,0-.2529-.0859-.4492-.2598-.5898-.1729-.1406-.4199-.2109-.7422-.2109-.501,0-.8896,.1592-1.167,.4766l-.3115-.2686c.167-.1953,.3799-.3457,.6387-.4521,.2588-.1055,.5508-.1592,.877-.1592,.4355,0,.7812,.1035,1.0352,.3086,.2549,.2061,.3818,.4883,.3818,.8467,0,.2197-.0488,.4316-.1465,.6357-.0977,.2031-.2832,.4375-.5557,.7021l-1.4541,1.4307h2.3525Z"/><path d="M227.8575,198.4518c-.2588-.1748-.46-.4258-.6045-.7539s-.2168-.7139-.2168-1.1582,.0723-.8301,.2168-1.1582c.1445-.3271,.3457-.5791,.6045-.7549,.2588-.1748,.5527-.2627,.8828-.2627s.625,.0879,.8838,.2627c.2578,.1758,.4609,.4277,.6074,.7549,.1465,.3281,.2197,.7139,.2197,1.1582s-.0732,.8301-.2197,1.1582-.3496,.5791-.6074,.7539c-.2588,.1758-.5537,.2637-.8838,.2637s-.624-.0879-.8828-.2637Zm1.54-.3477c.1895-.1387,.3369-.3398,.4434-.6055,.1055-.2646,.1582-.584,.1582-.959s-.0527-.6943-.1582-.959c-.1064-.2656-.2539-.4668-.4434-.6055s-.4082-.208-.6572-.208c-.248,0-.4668,.0693-.6562,.208s-.3369,.3398-.4434,.6055c-.1055,.2646-.1592,.584-.1592,.959s.0537,.6943,.1592,.959c.1064,.2656,.2539,.4668,.4434,.6055s.4082,.208,.6562,.208c.249,0,.4678-.0693,.6572-.208Z"/></g><g><path d="M255.0919,198.2877v.3906h-3v-.3115l1.7783-1.7412c.2236-.2207,.375-.4111,.4551-.5713,.0791-.1611,.1191-.3232,.1191-.4863,0-.2529-.0869-.4492-.2598-.5898s-.4209-.2109-.7422-.2109c-.501,0-.8906,.1592-1.168,.4766l-.3115-.2686c.167-.1953,.3799-.3457,.6387-.4521,.2588-.1055,.5508-.1592,.877-.1592,.4355,0,.7812,.1035,1.0361,.3086,.2539,.2061,.3818,.4883,.3818,.8467,0,.2197-.0488,.4316-.1465,.6357-.0977,.2031-.2832,.4375-.5566,.7021l-1.4541,1.4307h2.3525Z"/><path d="M256.4083,198.4518c-.2588-.1748-.46-.4258-.6045-.7539s-.2168-.7139-.2168-1.1582,.0723-.8301,.2168-1.1582c.1445-.3271,.3457-.5791,.6045-.7549,.2588-.1748,.5527-.2627,.8828-.2627s.625,.0879,.8838,.2627c.2578,.1758,.4609,.4277,.6074,.7549,.1465,.3281,.2197,.7139,.2197,1.1582s-.0732,.8301-.2197,1.1582-.3496,.5791-.6074,.7539c-.2588,.1758-.5537,.2637-.8838,.2637s-.624-.0879-.8828-.2637Zm1.54-.3477c.1895-.1387,.3369-.3398,.4434-.6055,.1055-.2646,.1582-.584,.1582-.959s-.0527-.6943-.1582-.959c-.1064-.2656-.2539-.4668-.4434-.6055s-.4082-.208-.6572-.208c-.248,0-.4668,.0693-.6562,.208s-.3369,.3398-.4434,.6055c-.1055,.2646-.1592,.584-.1592,.959s.0537,.6943,.1592,.959c.1064,.2656,.2539,.4668,.4434,.6055s.4082,.208,.6562,.208c.249,0,.4678-.0693,.6572-.208Z"/><path d="M262.4982,198.2877v.3906h-3.001v-.3115l1.7783-1.7412c.2236-.2207,.376-.4111,.4551-.5713,.0801-.1611,.1191-.3232,.1191-.4863,0-.2529-.0859-.4492-.2598-.5898-.1729-.1406-.4199-.2109-.7422-.2109-.501,0-.8896,.1592-1.167,.4766l-.3115-.2686c.167-.1953,.3799-.3457,.6387-.4521,.2588-.1055,.5508-.1592,.877-.1592,.4355,0,.7812,.1035,1.0352,.3086,.2549,.2061,.3818,.4883,.3818,.8467,0,.2197-.0488,.4316-.1465,.6357-.0977,.2031-.2832,.4375-.5557,.7021l-1.4541,1.4307h2.3525Z"/><path d="M264.172,194.401v4.2773h-.4395v-3.8867h-1.0088v-.3906h1.4482Z"/></g><polyline class="cls-5" points="2.6692 133.7619 11.6177 106.0821 20.4247 100.8514 29.2317 130.1122 38.0388 110.0976 46.8449 125.2246 55.6519 141.9273 64.6004 115.6983 73.266 125.2246 82.073 139.7005 90.8801 131.8441 99.6871 141.8287 108.4941 110.0976 117.3011 114.5844 126.1082 116.1583 134.9152 111.7884 143.7223 103.4746 152.5293 107.8794 161.3363 108.9182 170.1433 113.9664 178.9504 122.2313 187.7565 106.7909 196.705 96.6945 205.3706 96.7687 214.1776 98.4264 222.9846 144.5261 231.7917 132.4255 240.5987 111.3555 249.4057 132.0789 258.2127 72.8407 267.0198 61.7056 275.8268 106.9384"/><line class="cls-1" x1="2.8105" y1="162.4554" x2="2.8105" y2="19.6054"/><line class="cls-1" x1="11.6259" y1="162.4554" x2="11.6259" y2="19.6054"/><line class="cls-1" x1="20.4405" y1="162.4554" x2="20.4405" y2="19.6054"/><line class="cls-1" x1="38.0712" y1="162.4554" x2="38.0712" y2="19.6054"/><line class="cls-1" x1="46.8861" y1="162.4554" x2="46.8861" y2="19.6054"/><line class="cls-1" x1="55.7014" y1="162.4554" x2="55.7014" y2="19.6054"/><line class="cls-2" x1="2.6692" y1="110.9658" x2="277.0092" y2="110.9658"/><line class="cls-1" x1="73.3317" y1="162.4554" x2="73.3317" y2="19.6054"/><line class="cls-1" x1="82.147" y1="162.4554" x2="82.147" y2="19.6054"/><line class="cls-1" x1="90.9621" y1="162.4554" x2="90.9621" y2="19.6054"/><line class="cls-1" x1="108.5924" y1="162.4554" x2="108.5924" y2="19.6054"/><line class="cls-1" x1="117.4077" y1="162.4554" x2="117.4077" y2="19.6054"/><line class="cls-1" x1="126.2226" y1="162.4554" x2="126.2226" y2="19.6054"/><line class="cls-1" x1="143.8533" y1="162.4554" x2="143.8533" y2="19.6054"/><line class="cls-1" x1="152.6682" y1="162.4554" x2="152.6682" y2="19.6054"/><line class="cls-1" x1="161.4833" y1="162.4554" x2="161.4833" y2="19.6054"/><line class="cls-1" x1="179.1135" y1="162.4554" x2="179.1135" y2="19.6054"/><line class="cls-1" x1="187.9289" y1="162.4554" x2="187.9289" y2="19.6054"/><line class="cls-1" x1="196.7442" y1="162.4554" x2="196.7442" y2="19.6054"/><line class="cls-1" x1="214.3744" y1="162.4554" x2="214.3744" y2="19.6054"/><line class="cls-1" x1="223.1898" y1="162.4554" x2="223.1898" y2="19.6054"/><line class="cls-1" x1="232.0045" y1="162.4554" x2="232.0045" y2="19.6054"/><line class="cls-1" x1="249.6351" y1="162.4554" x2="249.6351" y2="19.6054"/><line class="cls-1" x1="258.4499" y1="162.4554" x2="258.4499" y2="19.6054"/><line class="cls-1" x1="267.2654" y1="162.4554" x2="267.2654" y2="19.6054"/></svg>