<?xml version="1.0" encoding="UTF-8"?><svg id="Layer_1" xmlns="http://www.w3.org/2000/svg" viewBox="0 0 339.9832 205.3148"><defs><style>.cls-1{fill:#c4c4c4;}.cls-2{fill:#e30510;}.cls-3{fill:#222;}.cls-4{fill:none;stroke:#000;stroke-linecap:round;stroke-linejoin:bevel;stroke-width:.3px;}</style></defs><g><path class="cls-3" d="M3.9611,5.1006v1.2949h-.5996v-.7451H.6759v.7451H.0714l.0049-1.2949H.2267c.2197-.0103,.374-.1729,.4619-.4878,.0889-.3149,.1426-.7656,.1631-1.3525l.04-1.1099H3.4562v2.9502h.5049Zm-2.6494-.6475c-.0566,.3013-.1475,.5171-.2705,.6475h1.7754V2.7002H1.4464l-.0254,.6201c-.0166,.4536-.0527,.8311-.1094,1.1328Z"/><path class="cls-3" d="M4.5968,2.1504h.6396v2.4849l1.8799-2.4849h.6055v3.5h-.6406V3.1704l-1.8799,2.48h-.6045V2.1504Z"/><path class="cls-3" d="M11.8312,2.1504v3.5h-.6494v-1.5h-1.8105v1.5h-.6494V2.1504h.6494v1.4448h1.8105v-1.4448h.6494Z"/><path class="cls-3" d="M15.1515,4.8403h-1.75l-.3457,.8101h-.6699l1.5752-3.5h.6396l1.5801,3.5h-.6797l-.3496-.8101Zm-.2148-.5098l-.6602-1.5303-.6553,1.5303h1.3154Z"/><path class="cls-3" d="M19.9513,5.6504l-.0049-2.3198-1.1504,1.9199h-.29l-1.1504-1.8901v2.29h-.6143V2.1504h.5342l1.3857,2.3149,1.3701-2.3149h.5293l.0107,3.5h-.6201Z"/><path class="cls-3" d="M21.5763,2.1504h.6396v2.4849l1.8809-2.4849h.6045v3.5h-.6396V3.1704l-1.8799,2.48h-.6055V2.1504Z"/><path class="cls-3" d="M26.9913,4.1753h-.6504v1.4751h-.6396V2.1504h.6396v1.4648h.6699l1.0059-1.4648h.6895l-1.1953,1.6948,1.2402,1.8052h-.7344l-1.0254-1.4751Z"/><path class="cls-3" d="M31.6515,4.8403h-1.75l-.3457,.8101h-.6699l1.5752-3.5h.6396l1.5801,3.5h-.6797l-.3496-.8101Zm-.2148-.5098l-.6602-1.5303-.6553,1.5303h1.3154Z"/><path class="cls-3" d="M36.8683,2.3003c.2246,.1001,.3975,.2437,.5176,.4302s.1797,.4082,.1797,.665c0,.2534-.0596,.4741-.1797,.6626-.1201,.188-.293,.3325-.5176,.4321-.2246,.1001-.4893,.1504-.792,.1504h-.79v1.0098h-.6504V2.1504h1.4404c.3027,0,.5674,.0498,.792,.1499Zm-.1777,1.6099c.1465-.1196,.2207-.2915,.2207-.5146,0-.2236-.0742-.395-.2207-.5151s-.3613-.1802-.6445-.1802h-.7598v1.3901h.7598c.2832,0,.498-.0601,.6445-.1802Z"/><path class="cls-3" d="M40.8761,5.1055v.5449h-2.625V2.1504h2.5547v.5449h-1.9043v.9102h1.6895v.5352h-1.6895v.9648h1.9746Z"/><path class="cls-3" d="M43.9405,4.8403h-1.75l-.3447,.8101h-.6699l1.5752-3.5h.6396l1.5801,3.5h-.6797l-.3506-.8101Zm-.2148-.5098l-.6602-1.5303-.6553,1.5303h1.3154Z"/><path class="cls-3" d="M48.5157,2.1504v3.5h-.6396V2.7002h-1.3799l-.0303,.875c-.0166,.4902-.0566,.8877-.1201,1.1929-.0635,.3047-.165,.5366-.3047,.6948s-.333,.2373-.5801,.2373c-.0869,0-.2051-.0166-.3555-.0498l.0459-.5649c.043,.0132,.0928,.02,.1494,.02,.2031,0,.3477-.1211,.4326-.3628,.085-.2412,.1377-.6221,.1572-1.1421l.0498-1.4502h2.5752Z"/><path class="cls-3" d="M52.1027,3.6177c.2256,.1885,.3379,.4678,.3379,.8379,0,.3867-.123,.6821-.3701,.8872-.2461,.2051-.5928,.3076-1.04,.3076h-1.5049V2.1504h.6396v1.1851h.9707c.4199,0,.7422,.0942,.9668,.2822Zm-.5166,1.3579c.1357-.1167,.2041-.2866,.2041-.5103,0-.4233-.2627-.6348-.7891-.6348h-.8359v1.3198h.8359c.2529,0,.4482-.0581,.585-.1748Z"/><path class="cls-3" d="M56.2355,2.1504v3.5h-.6494v-1.5h-1.8105v1.5h-.6494V2.1504h.6494v1.4448h1.8105v-1.4448h.6494Z"/><path class="cls-3" d="M57.8907,5.4678c-.2861-.1548-.5117-.3701-.6748-.645s-.2451-.5825-.2451-.9224,.082-.6475,.2451-.9224,.3887-.4902,.6748-.645c.2871-.1553,.6084-.2324,.9648-.2324,.3574,0,.6787,.0771,.9658,.2324,.2861,.1548,.5107,.3691,.6748,.6426,.1631,.2729,.2451,.5815,.2451,.9248s-.082,.6519-.2451,.9248c-.1641,.2734-.3887,.4878-.6748,.6426-.2871,.1553-.6084,.2324-.9658,.2324-.3564,0-.6777-.0771-.9648-.2324Zm1.5957-.4951c.1865-.105,.333-.2515,.4395-.4399,.1064-.188,.1602-.3989,.1602-.6323s-.0537-.4443-.1602-.6323c-.1064-.1885-.2529-.335-.4395-.4399-.1875-.1055-.3975-.1577-.6309-.1577s-.4434,.0522-.6299,.1577c-.1865,.105-.333,.2515-.4395,.4399-.1074,.188-.1602,.3989-.1602,.6323s.0527,.4443,.1602,.6323c.1064,.1885,.2529,.335,.4395,.4399,.1865,.1055,.3965,.1577,.6299,.1577s.4434-.0522,.6309-.1577Z"/><path class="cls-3" d="M63.8556,2.7002h-1.7354l.0049,2.9502h-.6396V2.1504h2.375l-.0049,.5498Z"/><path class="cls-3" d="M65.0812,5.4678c-.2871-.1548-.5117-.3701-.6748-.645-.1641-.2749-.2451-.5825-.2451-.9224s.0811-.6475,.2451-.9224c.1631-.2749,.3877-.4902,.6748-.645,.2861-.1553,.6084-.2324,.9648-.2324s.6777,.0771,.9648,.2324c.2871,.1548,.5117,.3691,.6748,.6426,.1631,.2729,.2451,.5815,.2451,.9248s-.082,.6519-.2451,.9248c-.1631,.2734-.3877,.4878-.6748,.6426-.2871,.1553-.6084,.2324-.9648,.2324s-.6787-.0771-.9648-.2324Zm1.5947-.4951c.1865-.105,.333-.2515,.4404-.4399,.1064-.188,.1592-.3989,.1592-.6323s-.0527-.4443-.1592-.6323c-.1074-.1885-.2539-.335-.4404-.4399-.1865-.1055-.3965-.1577-.6299-.1577s-.4434,.0522-.6299,.1577c-.1865,.105-.334,.2515-.4404,.4399-.1064,.188-.1602,.3989-.1602,.6323s.0537,.4443,.1602,.6323c.1064,.1885,.2539,.335,.4404,.4399,.1865,.1055,.3965,.1577,.6299,.1577s.4434-.0522,.6299-.1577Z"/><path class="cls-3" d="M72.8859,4.1377c.1162,.145,.1748,.3262,.1748,.5425,0,.3071-.1133,.5454-.3398,.7153-.2275,.1699-.5557,.2549-.9854,.2549h-1.6602V2.1504h1.5654c.3926,0,.6992,.0781,.9199,.2349,.2197,.1567,.3301,.3784,.3301,.665,0,.1836-.0449,.3418-.1328,.4751s-.2158,.2349-.3828,.3052c.2236,.0601,.3936,.1621,.5107,.3071Zm-2.1709-.4922h.8701c.21,0,.3701-.042,.4805-.125,.1104-.0835,.165-.2065,.165-.3701,0-.1631-.0547-.2876-.165-.3726s-.2705-.1274-.4805-.1274h-.8701v.9951Zm1.6904,.9849c0-.3398-.2295-.5098-.6904-.5098h-1v1.0298h1c.4609,0,.6904-.1733,.6904-.52Z"/><path class="cls-3" d="M76.6359,4.1377c.1162,.145,.1748,.3262,.1748,.5425,0,.3071-.1133,.5454-.3398,.7153-.2275,.1699-.5557,.2549-.9854,.2549h-1.6602V2.1504h1.5654c.3926,0,.6992,.0781,.9199,.2349,.2197,.1567,.3301,.3784,.3301,.665,0,.1836-.0449,.3418-.1328,.4751s-.2158,.2349-.3828,.3052c.2236,.0601,.3936,.1621,.5107,.3071Zm-2.1709-.4922h.8701c.21,0,.3701-.042,.4805-.125,.1104-.0835,.165-.2065,.165-.3701,0-.1631-.0547-.2876-.165-.3726s-.2705-.1274-.4805-.1274h-.8701v.9951Zm1.6904,.9849c0-.3398-.2295-.5098-.6904-.5098h-1v1.0298h1c.4609,0,.6904-.1733,.6904-.52Z"/><path class="cls-3" d="M80.67,2.1504v3.5h-.6396V2.7002h-1.8154v2.9502h-.6396V2.1504h3.0947Z"/><path class="cls-3" d="M85.3077,2.3003c.2246,.1001,.3975,.2437,.5176,.4302s.1797,.4082,.1797,.665c0,.2534-.0596,.4741-.1797,.6626-.1201,.188-.293,.3325-.5176,.4321-.2246,.1001-.4893,.1504-.792,.1504h-.79v1.0098h-.6504V2.1504h1.4404c.3027,0,.5674,.0498,.792,.1499Zm-.1777,1.6099c.1465-.1196,.2207-.2915,.2207-.5146,0-.2236-.0742-.395-.2207-.5151s-.3613-.1802-.6445-.1802h-.7598v1.3901h.7598c.2832,0,.498-.0601,.6445-.1802Z"/><path class="cls-3" d="M87.3448,5.4678c-.2861-.1548-.5117-.3701-.6748-.645s-.2451-.5825-.2451-.9224,.082-.6475,.2451-.9224,.3887-.4902,.6748-.645c.2871-.1553,.6084-.2324,.9648-.2324,.3574,0,.6787,.0771,.9658,.2324,.2861,.1548,.5107,.3691,.6748,.6426,.1631,.2729,.2451,.5815,.2451,.9248s-.082,.6519-.2451,.9248c-.1641,.2734-.3887,.4878-.6748,.6426-.2871,.1553-.6084,.2324-.9658,.2324-.3564,0-.6777-.0771-.9648-.2324Zm1.5957-.4951c.1865-.105,.333-.2515,.4395-.4399,.1064-.188,.1602-.3989,.1602-.6323s-.0537-.4443-.1602-.6323c-.1064-.1885-.2529-.335-.4395-.4399-.1875-.1055-.3975-.1577-.6309-.1577s-.4434,.0522-.6299,.1577c-.1865,.105-.333,.2515-.4395,.4399-.1074,.188-.1602,.3989-.1602,.6323s.0527,.4443,.1602,.6323c.1064,.1885,.2529,.335,.4395,.4399,.1865,.1055,.3965,.1577,.6299,.1577s.4434-.0522,.6309-.1577Z"/><path class="cls-3" d="M91.588,5.4678c-.2852-.1548-.5088-.3691-.6699-.6426-.1621-.2729-.2432-.5815-.2432-.9248s.082-.6519,.2451-.9248c.1631-.2734,.3877-.4878,.6729-.6426,.2852-.1553,.6035-.2324,.957-.2324,.2871,0,.5488,.0498,.7852,.1499s.4365,.2451,.6006,.4351l-.4209,.395c-.2529-.2734-.5645-.4102-.9346-.4102-.2402,0-.4551,.0522-.6445,.1577-.1904,.105-.3389,.2505-.4453,.4375-.1064,.1865-.1602,.3979-.1602,.6348s.0537,.4482,.1602,.6348c.1064,.187,.2549,.3325,.4453,.4375,.1895,.1055,.4043,.1577,.6445,.1577,.3701,0,.6816-.1382,.9346-.415l.4209,.3999c-.1641,.1899-.3643,.335-.6025,.4351-.2393,.1001-.501,.1499-.7881,.1499-.3535,0-.6719-.0771-.957-.2324Z"/><path class="cls-3" d="M95.213,5.4678c-.2852-.1548-.5088-.3691-.6699-.6426-.1621-.2729-.2432-.5815-.2432-.9248s.082-.6519,.2451-.9248c.1631-.2734,.3877-.4878,.6729-.6426,.2852-.1553,.6035-.2324,.957-.2324,.2871,0,.5488,.0498,.7852,.1499s.4365,.2451,.6006,.4351l-.4209,.395c-.2529-.2734-.5645-.4102-.9346-.4102-.2402,0-.4551,.0522-.6445,.1577-.1904,.105-.3389,.2505-.4453,.4375-.1064,.1865-.1602,.3979-.1602,.6348s.0537,.4482,.1602,.6348c.1064,.187,.2549,.3325,.4453,.4375,.1895,.1055,.4043,.1577,.6445,.1577,.3701,0,.6816-.1382,.9346-.415l.4209,.3999c-.1641,.1899-.3643,.335-.6025,.4351-.2393,.1001-.501,.1499-.7881,.1499-.3535,0-.6719-.0771-.957-.2324Z"/><path class="cls-3" d="M98.1905,2.1504h.6396v2.4849l1.8799-2.4849h.6055v3.5h-.6406V3.1704l-1.8799,2.48h-.6045V2.1504Z"/><path class="cls-3" d="M102.3204,2.1504h.6396v2.4849l1.8799-2.4849h.6055v3.5h-.6406V3.1704l-1.8799,2.48h-.6045V2.1504Z"/></g><path class="cls-1" d="M19.0446,112.6664c0,4.6757-3.8035,8.4792-8.4792,8.4792s-8.4792-3.8035-8.4792-8.4792V54.4232c0-4.6757,3.8035-8.4792,8.4792-8.4792s8.4792,3.8035,8.4792,8.4792v58.2433Z"/><path class="cls-1" d="M125.902,116.9271c0,2.3257-1.8921,4.2186-4.2186,4.2186h-8.5212c-2.3265,0-4.2186-1.8929-4.2186-4.2186s1.8921-4.2186,4.2186-4.2186h8.5212c2.3265,0,4.2186,1.8929,4.2186,4.2186Z"/><path class="cls-1" d="M45.7589,112.6664c0,4.6757-3.8035,8.4792-8.4792,8.4792s-8.4792-3.8035-8.4792-8.4792v-18.2916c0-4.6757,3.8035-8.4793,8.4792-8.4793s8.4792,3.8035,8.4792,8.4793v18.2916Z"/><path class="cls-1" d="M72.2524,113.3322c0,4.3083-3.5048,7.8138-7.8138,7.8138h-1.3308c-4.3091,0-7.8138-3.5056-7.8138-7.8138s3.5047-7.8138,7.8138-7.8138h1.3308c4.3091,0,7.8138,3.5056,7.8138,7.8138Z"/><path class="cls-1" d="M152.6164,112.6664c0,4.6757-3.8035,8.4792-8.4792,8.4792s-8.4792-3.8035-8.4792-8.4792v-18.2916c0-4.6757,3.8035-8.4793,8.4792-8.4793s8.4792,3.8035,8.4792,8.4793v18.2916Z"/><path class="cls-1" d="M179.3308,112.6664c0,4.6757-3.8035,8.4792-8.4792,8.4792s-8.4792-3.8035-8.4792-8.4792v-36.0576c0-4.6757,3.8035-8.4792,8.4792-8.4792s8.4792,3.8035,8.4792,8.4792v36.0576Z"/><path class="cls-1" d="M99.1877,154.9357c0,4.6757-3.8035,8.4792-8.4792,8.4792s-8.4792-3.8035-8.4792-8.4792v-25.2075c0-4.6757,3.8035-8.4792,8.4792-8.4792s8.4792,3.8035,8.4792,8.4792v25.2075Z"/><path class="cls-1" d="M206.0448,112.6669c0,4.6749-3.8035,8.4792-8.4792,8.4792s-8.4784-3.8043-8.4784-8.4792v-22.5345c0-4.6749,3.8035-8.4784,8.4784-8.4784s8.4792,3.8035,8.4792,8.4784v22.5345Z"/><path class="cls-1" d="M232.7596,165.7861c0,4.6757-3.8035,8.4792-8.4792,8.4792s-8.4792-3.8035-8.4792-8.4792v-36.0576c0-4.6757,3.8035-8.4792,8.4792-8.4792s8.4792,3.8035,8.4792,8.4792v36.0576Z"/><path class="cls-2" d="M259.8777,112.6664c0,4.9058-3.9772,8.883-8.883,8.883s-8.883-3.9771-8.883-8.883V48.243c0-4.9066,3.9771-8.883,8.883-8.883s8.883,3.9764,8.883,8.883V112.6664Z"/><line class="cls-4" x1="10.5654" y1="116.806" x2="10.5654" y2="37.5795"/><path d="M9.8387,37.5794c0-.4013,.3254-.7268,.7268-.7268s.7268,.3255,.7268,.7268-.3254,.7268-.7268,.7268-.7268-.3255-.7268-.7268"/><line class="cls-4" x1="117.4226" y1="116.806" x2="117.4226" y2="37.5795"/><path d="M116.6959,37.5794c0-.4013,.3254-.7268,.7268-.7268s.7268,.3255,.7268,.7268-.3255,.7268-.7268,.7268-.7268-.3255-.7268-.7268"/><line class="cls-4" x1="37.2794" y1="116.806" x2="37.2794" y2="37.5795"/><path d="M36.5527,37.5794c0-.4013,.3254-.7268,.7268-.7268s.7268,.3255,.7268,.7268-.3255,.7268-.7268,.7268-.7268-.3255-.7268-.7268"/><line class="cls-4" x1="144.137" y1="116.806" x2="144.137" y2="37.5795"/><path d="M143.4103,37.5794c0-.4013,.3254-.7268,.7268-.7268s.7268,.3255,.7268,.7268-.3255,.7268-.7268,.7268-.7268-.3255-.7268-.7268"/><line class="cls-4" x1="63.9938" y1="116.806" x2="63.9938" y2="37.5795"/><path d="M63.2671,37.5794c0-.4013,.3254-.7268,.7268-.7268s.7268,.3255,.7268,.7268-.3255,.7268-.7268,.7268-.7268-.3255-.7268-.7268"/><line class="cls-4" x1="170.8514" y1="116.806" x2="170.8514" y2="37.5795"/><path d="M170.1247,37.5794c0-.4013,.3254-.7268,.7268-.7268s.7268,.3255,.7268,.7268-.3255,.7268-.7268,.7268-.7268-.3255-.7268-.7268"/><line class="cls-4" x1="90.7082" y1="155.9167" x2="90.7082" y2="37.5793"/><path d="M89.9815,37.5794c0-.4013,.3254-.7268,.7268-.7268s.7268,.3255,.7268,.7268-.3255,.7268-.7268,.7268-.7268-.3255-.7268-.7268"/><line class="cls-4" x1="197.5658" y1="116.806" x2="197.5658" y2="37.5795"/><path d="M196.8391,37.5794c0-.4013,.3254-.7268,.7268-.7268s.7268,.3255,.7268,.7268-.3255,.7268-.7268,.7268-.7268-.3255-.7268-.7268"/><line class="cls-4" x1="224.2802" y1="167.1993" x2="224.2802" y2="37.5796"/><path d="M223.5535,37.5794c0-.4013,.3254-.7268,.7268-.7268s.7268,.3255,.7268,.7268-.3255,.7268-.7268,.7268-.7268-.3255-.7268-.7268"/><line class="cls-4" x1="250.9946" y1="116.806" x2="250.9946" y2="37.5795"/><path d="M250.2679,37.5794c0-.4013,.3254-.7268,.7268-.7268s.7268,.3255,.7268,.7268-.3255,.7268-.7268,.7268-.7268-.3255-.7268-.7268"/><g><path d="M9.1173,31.2031h-.9043v1.1885h-.4648v-1.1885h-2.5518v-.3359l2.3965-2.998h.5166l-2.3125,2.9204h1.9639v-1.0469h.4521v1.0469h.9043v.4136Z"/><path d="M10.1447,31.8198c.0645,.0669,.0967,.1499,.0967,.2485,0,.0518-.0078,.1079-.0225,.168-.0146,.0605-.0381,.1294-.0674,.207l-.2715,.8916h-.3105l.2197-.937c-.0684-.0215-.125-.061-.168-.1196-.043-.0581-.0645-.1279-.0645-.21,0-.0986,.0322-.1816,.0967-.2485s.1465-.1001,.2461-.1001c.0986,0,.1807,.0332,.2451,.1001Z"/><path d="M11.7823,32.1523c-.2734-.1851-.4863-.4507-.6396-.7979-.1533-.3462-.2295-.7544-.2295-1.2241,0-.4692,.0762-.8774,.2295-1.2241s.3662-.6128,.6396-.7979,.585-.2778,.9336-.2778,.6602,.0928,.9336,.2778,.4873,.4512,.6426,.7979,.2324,.7549,.2324,1.2241c0,.4697-.0771,.8779-.2324,1.2241-.1553,.3472-.3691,.6128-.6426,.7979-.2734,.1855-.585,.2778-.9336,.2778s-.6602-.0923-.9336-.2778Zm1.6279-.3682c.2002-.146,.3564-.3594,.4688-.6396,.1113-.2798,.168-.6177,.168-1.0142,0-.396-.0566-.7344-.168-1.0142-.1123-.2798-.2686-.4932-.4688-.6396s-.4316-.2197-.6943-.2197-.4941,.0732-.6943,.2197-.3564,.3599-.4688,.6396-.168,.6182-.168,1.0142c0,.3965,.0557,.7344,.168,1.0142,.1123,.2803,.2686,.4937,.4688,.6396,.2002,.1465,.4316,.2197,.6943,.2197s.4941-.0732,.6943-.2197Z"/></g><g><path d="M34.0655,27.8691v4.5225h-.4658v-4.1089h-1.0654v-.4136h1.5312Z"/><path d="M35.7443,31.8198c.0654,.0669,.0977,.1499,.0977,.2485,0,.0518-.0078,.1079-.0225,.168-.0156,.0605-.0381,.1294-.0684,.207l-.2715,.8916h-.3096l.2197-.937c-.0693-.0215-.125-.061-.168-.1196-.0439-.0581-.0654-.1279-.0654-.21,0-.0986,.0332-.1816,.0977-.2485s.1465-.1001,.2451-.1001,.1807,.0332,.2451,.1001Z"/><path d="M39.7599,30.4473c.1523,.1895,.2295,.4175,.2295,.6846,0,.2627-.0713,.4922-.2129,.688-.1426,.1963-.3457,.3467-.6113,.4521-.2646,.1055-.5762,.1582-.9336,.1582-.542,0-.9688-.1162-1.2783-.3486-.3105-.2324-.4658-.5493-.4658-.9497,0-.2715,.0742-.5005,.2236-.688,.1484-.1875,.3643-.3286,.6484-.4233-.2324-.0903-.4092-.2207-.5293-.3906-.1211-.1704-.1807-.3716-.1807-.604,0-.3662,.1426-.6567,.4297-.8721,.2861-.2153,.6699-.3232,1.1523-.3232,.3193,0,.5977,.0483,.8369,.1455,.2393,.0967,.4258,.2358,.5586,.4165,.1338,.1812,.2002,.3921,.2002,.6333,0,.2324-.0625,.4336-.1865,.604-.125,.1699-.3037,.3003-.5361,.3906,.2842,.0947,.502,.2368,.6553,.4268Zm-.5879,1.3438c.2266-.1641,.3389-.3857,.3389-.6655,0-.2803-.1123-.501-.3389-.6621-.2266-.1616-.5391-.2427-.9404-.2427-.3955,0-.707,.0811-.9326,.2427-.2266,.1611-.3398,.3818-.3398,.6621,0,.2842,.1123,.5068,.3359,.6685s.5361,.2422,.9365,.2422c.4014,0,.7139-.0815,.9404-.2451Zm-1.7607-2.1582c.1982,.1465,.4717,.2197,.8203,.2197,.3496,0,.624-.0732,.8242-.2197,.2002-.146,.3008-.3423,.3008-.5879,0-.2539-.1025-.4541-.3076-.6006-.2041-.1465-.4766-.2197-.8174-.2197-.3438,0-.6162,.0732-.8164,.2197s-.3008,.3447-.3008,.5942c0,.25,.0986,.4482,.2969,.5942Z"/></g><g><path d="M60.1554,32.1523c-.2734-.1851-.4863-.4507-.6396-.7979-.1533-.3462-.2295-.7544-.2295-1.2241,0-.4692,.0762-.8774,.2295-1.2241s.3662-.6128,.6396-.7979,.585-.2778,.9336-.2778,.6602,.0928,.9336,.2778,.4873,.4512,.6426,.7979,.2324,.7549,.2324,1.2241c0,.4697-.0771,.8779-.2324,1.2241-.1553,.3472-.3691,.6128-.6426,.7979-.2734,.1855-.585,.2778-.9336,.2778s-.6602-.0923-.9336-.2778Zm1.6279-.3682c.2002-.146,.3564-.3594,.4688-.6396,.1113-.2798,.168-.6177,.168-1.0142,0-.396-.0566-.7344-.168-1.0142-.1123-.2798-.2686-.4932-.4688-.6396s-.4316-.2197-.6943-.2197-.4941,.0732-.6943,.2197-.3564,.3599-.4688,.6396-.168,.6182-.168,1.0142c0,.3965,.0557,.7344,.168,1.0142,.1123,.2803,.2686,.4937,.4688,.6396,.2002,.1465,.4316,.2197,.6943,.2197s.4941-.0732,.6943-.2197Z"/><path d="M64.1642,31.8198c.0645,.0669,.0967,.1499,.0967,.2485,0,.0518-.0078,.1079-.0225,.168-.0146,.0605-.0381,.1294-.0674,.207l-.2715,.8916h-.3105l.2197-.937c-.0684-.0215-.125-.061-.168-.1196-.043-.0581-.0645-.1279-.0645-.21,0-.0986,.0322-.1816,.0967-.2485s.1465-.1001,.2461-.1001c.0986,0,.1807,.0332,.2451,.1001Z"/><path d="M68.0011,27.8691v.3296l-1.8926,4.1929h-.5039l1.8604-4.1089h-2.3252v.8462h-.459v-1.2598h3.3203Z"/></g><g><path class="cls-3" d="M84.5079,30.4468h2.5859v.395h-2.5859v-.395Z"/><path d="M90.9044,31.978v.4136h-3.1719v-.3296l1.8799-1.8413c.2373-.2324,.3975-.4336,.4814-.604,.084-.1699,.126-.3413,.126-.5132,0-.2671-.0918-.4751-.2744-.6235-.1826-.1489-.4443-.2231-.7852-.2231-.5293,0-.9404,.168-1.2334,.5039l-.3301-.2842c.1768-.2065,.4023-.3657,.6758-.478,.2734-.1118,.582-.168,.9268-.168,.4609,0,.8262,.1089,1.0947,.3262,.2695,.2178,.4043,.5161,.4043,.895,0,.2324-.0518,.4565-.1553,.6719s-.2998,.4629-.5879,.7427l-1.5381,1.5117h2.4873Z"/><path d="M92.087,31.8198c.0645,.0669,.0967,.1499,.0967,.2485,0,.0518-.0078,.1079-.0225,.168-.0146,.0605-.0381,.1294-.0674,.207l-.2715,.8916h-.3105l.2197-.937c-.0684-.0215-.125-.061-.168-.1196-.043-.0581-.0645-.1279-.0645-.21,0-.0986,.0322-.1816,.0967-.2485s.1465-.1001,.2461-.1001c.0986,0,.1807,.0332,.2451,.1001Z"/><path d="M93.7247,32.1523c-.2734-.1851-.4863-.4507-.6396-.7979-.1533-.3462-.2295-.7544-.2295-1.2241,0-.4692,.0762-.8774,.2295-1.2241s.3662-.6128,.6396-.7979,.585-.2778,.9336-.2778,.6602,.0928,.9336,.2778,.4873,.4512,.6426,.7979,.2324,.7549,.2324,1.2241c0,.4697-.0771,.8779-.2324,1.2241-.1553,.3472-.3691,.6128-.6426,.7979-.2734,.1855-.585,.2778-.9336,.2778s-.6602-.0923-.9336-.2778Zm1.6279-.3682c.2002-.146,.3564-.3594,.4688-.6396,.1113-.2798,.168-.6177,.168-1.0142,0-.396-.0566-.7344-.168-1.0142-.1123-.2798-.2686-.4932-.4688-.6396s-.4316-.2197-.6943-.2197-.4941,.0732-.6943,.2197-.3564,.3599-.4688,.6396-.168,.6182-.168,1.0142c0,.3965,.0557,.7344,.168,1.0142,.1123,.2803,.2686,.4937,.4688,.6396,.2002,.1465,.4316,.2197,.6943,.2197s.4941-.0732,.6943-.2197Z"/></g><g><path d="M113.297,32.1523c-.2744-.1851-.4873-.4507-.6396-.7979-.1533-.3462-.2295-.7544-.2295-1.2241,0-.4692,.0762-.8774,.2295-1.2241,.1523-.3467,.3652-.6128,.6396-.7979,.2734-.1851,.584-.2778,.9326-.2778,.3496,0,.6602,.0928,.9336,.2778s.4883,.4512,.6436,.7979c.1543,.3467,.2324,.7549,.2324,1.2241,0,.4697-.0781,.8779-.2324,1.2241-.1553,.3472-.3701,.6128-.6436,.7979-.2734,.1855-.584,.2778-.9336,.2778-.3486,0-.6592-.0923-.9326-.2778Zm1.6279-.3682c.2002-.146,.3555-.3594,.4678-.6396,.1123-.2798,.168-.6177,.168-1.0142,0-.396-.0557-.7344-.168-1.0142s-.2676-.4932-.4678-.6396-.4326-.2197-.6953-.2197-.4941,.0732-.6943,.2197-.3564,.3599-.4678,.6396c-.1123,.2798-.168,.6182-.168,1.0142,0,.3965,.0557,.7344,.168,1.0142,.1113,.2803,.2676,.4937,.4678,.6396,.2002,.1465,.4316,.2197,.6943,.2197s.4951-.0732,.6953-.2197Z"/><path d="M117.3048,31.8198c.0654,.0669,.0977,.1499,.0977,.2485,0,.0518-.0078,.1079-.0225,.168-.0156,.0605-.0381,.1294-.0684,.207l-.2715,.8916h-.3096l.2197-.937c-.0693-.0215-.125-.061-.168-.1196-.0439-.0581-.0654-.1279-.0654-.21,0-.0986,.0332-.1816,.0977-.2485s.1465-.1001,.2451-.1001,.1807,.0332,.2451,.1001Z"/><path d="M121.1613,31.978v.4136h-3.1719v-.3296l1.8799-1.8413c.2373-.2324,.3975-.4336,.4814-.604,.084-.1699,.126-.3413,.126-.5132,0-.2671-.0918-.4751-.2744-.6235-.1826-.1489-.4443-.2231-.7852-.2231-.5293,0-.9404,.168-1.2334,.5039l-.3301-.2842c.1768-.2065,.4023-.3657,.6758-.478,.2734-.1118,.582-.168,.9268-.168,.4609,0,.8262,.1089,1.0947,.3262,.2695,.2178,.4043,.5161,.4043,.895,0,.2324-.0518,.4565-.1553,.6719s-.2998,.4629-.5879,.7427l-1.5381,1.5117h2.4873Z"/></g><g><path d="M141.1085,27.8691v4.5225h-.4648v-4.1089h-1.0664v-.4136h1.5312Z"/><path d="M142.7882,31.8198c.0645,.0669,.0967,.1499,.0967,.2485,0,.0518-.0078,.1079-.0225,.168-.0146,.0605-.0381,.1294-.0674,.207l-.2715,.8916h-.3105l.2197-.937c-.0684-.0215-.125-.061-.168-.1196-.043-.0581-.0645-.1279-.0645-.21,0-.0986,.0322-.1816,.0967-.2485s.1465-.1001,.2461-.1001c.0986,0,.1807,.0332,.2451,.1001Z"/><path d="M146.2218,29.8525c.2305,.1123,.4102,.2705,.5391,.4751,.1299,.2046,.1943,.4424,.1943,.7139,0,.2754-.0664,.519-.2002,.73s-.3174,.3735-.5527,.4878c-.2344,.1143-.498,.1709-.791,.1709-.5986,0-1.0576-.1968-1.376-.5908-.3193-.394-.4785-.9507-.4785-1.6699,0-.5039,.0859-.9307,.2588-1.2793,.1719-.3491,.4131-.6128,.7236-.7915,.3096-.1787,.6719-.2681,1.085-.2681,.4482,0,.8057,.082,1.0723,.2456l-.1875,.3745c-.2148-.1421-.5078-.2129-.8779-.2129-.5,0-.8916,.1582-1.1758,.4746s-.4268,.7764-.4268,1.3794c0,.1074,.0068,.2305,.0195,.3682,.1123-.2456,.291-.436,.5361-.5718s.5273-.2036,.8467-.2036c.2969,0,.5605,.0562,.791,.168Zm-.0322,1.9155c.2041-.1787,.3066-.4165,.3066-.7139,0-.2969-.1025-.5337-.3066-.7104s-.4814-.2651-.8301-.2651c-.2285,0-.4297,.0435-.6045,.1294-.1738,.0864-.3105,.2046-.4102,.3555-.0986,.1509-.1484,.3188-.1484,.5039,0,.1724,.0469,.3315,.1387,.478,.0928,.1465,.2295,.2646,.4102,.355,.1816,.0908,.3965,.1357,.6465,.1357,.3271,0,.5938-.0894,.7979-.2681Z"/></g><g><path d="M169.0597,31.978v.4136h-3.1719v-.3296l1.8799-1.8413c.2363-.2324,.3975-.4336,.4814-.604,.084-.1699,.126-.3413,.126-.5132,0-.2671-.0918-.4751-.2744-.6235-.1836-.1489-.4453-.2231-.7852-.2231-.5303,0-.9414,.168-1.2344,.5039l-.3291-.2842c.1768-.2065,.4014-.3657,.6748-.478,.2734-.1118,.583-.168,.9268-.168,.4609,0,.8262,.1089,1.0957,.3262,.2686,.2178,.4033,.5161,.4033,.895,0,.2324-.0518,.4565-.1553,.6719-.1025,.2153-.2988,.4629-.5879,.7427l-1.5371,1.5117h2.4873Z"/><path d="M170.2413,31.8198c.0654,.0669,.0977,.1499,.0977,.2485,0,.0518-.0078,.1079-.0225,.168-.0156,.0605-.0381,.1294-.0684,.207l-.2715,.8916h-.3096l.2197-.937c-.0693-.0215-.125-.061-.168-.1196-.0439-.0581-.0654-.1279-.0654-.21,0-.0986,.0332-.1816,.0977-.2485s.1465-.1001,.2451-.1001,.1807,.0332,.2451,.1001Z"/><path d="M174.257,30.4473c.1523,.1895,.2295,.4175,.2295,.6846,0,.2627-.0713,.4922-.2129,.688-.1426,.1963-.3457,.3467-.6113,.4521-.2646,.1055-.5762,.1582-.9336,.1582-.542,0-.9688-.1162-1.2783-.3486-.3105-.2324-.4658-.5493-.4658-.9497,0-.2715,.0742-.5005,.2236-.688,.1484-.1875,.3643-.3286,.6484-.4233-.2324-.0903-.4092-.2207-.5293-.3906-.1211-.1704-.1807-.3716-.1807-.604,0-.3662,.1426-.6567,.4297-.8721,.2861-.2153,.6699-.3232,1.1523-.3232,.3193,0,.5977,.0483,.8369,.1455,.2393,.0967,.4258,.2358,.5586,.4165,.1338,.1812,.2002,.3921,.2002,.6333,0,.2324-.0625,.4336-.1865,.604-.125,.1699-.3037,.3003-.5361,.3906,.2842,.0947,.502,.2368,.6553,.4268Zm-.5879,1.3438c.2266-.1641,.3389-.3857,.3389-.6655,0-.2803-.1123-.501-.3389-.6621-.2266-.1616-.5391-.2427-.9404-.2427-.3955,0-.707,.0811-.9326,.2427-.2266,.1611-.3398,.3818-.3398,.6621,0,.2842,.1123,.5068,.3359,.6685s.5361,.2422,.9365,.2422c.4014,0,.7139-.0815,.9404-.2451Zm-1.7607-2.1582c.1982,.1465,.4717,.2197,.8203,.2197,.3496,0,.624-.0732,.8242-.2197,.2002-.146,.3008-.3423,.3008-.5879,0-.2539-.1025-.4541-.3076-.6006-.2041-.1465-.4766-.2197-.8174-.2197-.3438,0-.6162,.0732-.8164,.2197s-.3008,.3447-.3008,.5942c0,.25,.0986,.4482,.2969,.5942Z"/></g><g><path d="M195.9777,31.978v.4136h-3.1719v-.3296l1.8799-1.8413c.2363-.2324,.3975-.4336,.4814-.604,.084-.1699,.126-.3413,.126-.5132,0-.2671-.0918-.4751-.2744-.6235-.1836-.1489-.4453-.2231-.7852-.2231-.5303,0-.9414,.168-1.2344,.5039l-.3291-.2842c.1768-.2065,.4014-.3657,.6748-.478,.2734-.1118,.583-.168,.9268-.168,.4609,0,.8262,.1089,1.0957,.3262,.2686,.2178,.4033,.5161,.4033,.895,0,.2324-.0518,.4565-.1553,.6719-.1025,.2153-.2988,.4629-.5879,.7427l-1.5371,1.5117h2.4873Z"/><path d="M197.1593,31.8198c.0654,.0669,.0977,.1499,.0977,.2485,0,.0518-.0078,.1079-.0225,.168-.0156,.0605-.0381,.1294-.0684,.207l-.2715,.8916h-.3096l.2197-.937c-.0693-.0215-.125-.061-.168-.1196-.0439-.0581-.0654-.1279-.0654-.21,0-.0986,.0332-.1816,.0977-.2485s.1465-.1001,.2451-.1001,.1807,.0332,.2451,.1001Z"/><path d="M201.0167,31.978v.4136h-3.1719v-.3296l1.8799-1.8413c.2363-.2324,.3975-.4336,.4814-.604,.084-.1699,.126-.3413,.126-.5132,0-.2671-.0918-.4751-.2744-.6235-.1836-.1489-.4453-.2231-.7852-.2231-.5303,0-.9414,.168-1.2344,.5039l-.3291-.2842c.1768-.2065,.4014-.3657,.6748-.478,.2734-.1118,.583-.168,.9268-.168,.4609,0,.8262,.1089,1.0957,.3262,.2686,.2178,.4033,.5161,.4033,.895,0,.2324-.0518,.4565-.1553,.6719-.1025,.2153-.2988,.4629-.5879,.7427l-1.5371,1.5117h2.4873Z"/></g><g><path class="cls-3" d="M218.7755,30.4468h2.5859v.395h-2.5859v-.395Z"/><path d="M225.172,31.978v.4136h-3.1719v-.3296l1.8799-1.8413c.2373-.2324,.3975-.4336,.4814-.604,.084-.1699,.126-.3413,.126-.5132,0-.2671-.0918-.4751-.2744-.6235-.1826-.1489-.4443-.2231-.7852-.2231-.5293,0-.9404,.168-1.2334,.5039l-.3301-.2842c.1768-.2065,.4023-.3657,.6758-.478,.2734-.1118,.582-.168,.9268-.168,.4609,0,.8262,.1089,1.0947,.3262,.2695,.2178,.4043,.5161,.4043,.895,0,.2324-.0518,.4565-.1553,.6719s-.2998,.4629-.5879,.7427l-1.5381,1.5117h2.4873Z"/><path d="M226.3546,31.8198c.0645,.0669,.0967,.1499,.0967,.2485,0,.0518-.0078,.1079-.0225,.168-.0146,.0605-.0381,.1294-.0674,.207l-.2715,.8916h-.3105l.2197-.937c-.0684-.0215-.125-.061-.168-.1196-.043-.0581-.0645-.1279-.0645-.21,0-.0986,.0322-.1816,.0967-.2485s.1465-.1001,.2461-.1001c.0986,0,.1807,.0332,.2451,.1001Z"/><path d="M230.1925,27.8691v.3296l-1.8936,4.1929h-.5039l1.8613-4.1089h-2.3262v.8462h-.459v-1.2598h3.3213Z"/></g><g><path d="M250.3322,31.2031h-.9043v1.1885h-.4648v-1.1885h-2.5518v-.3359l2.3965-2.998h.5166l-2.3125,2.9204h1.9639v-1.0469h.4521v1.0469h.9043v.4136Z"/><path d="M251.3595,31.8198c.0645,.0669,.0967,.1499,.0967,.2485,0,.0518-.0078,.1079-.0225,.168-.0146,.0605-.0381,.1294-.0674,.207l-.2715,.8916h-.3105l.2197-.937c-.0684-.0215-.125-.061-.168-.1196-.043-.0581-.0645-.1279-.0645-.21,0-.0986,.0322-.1816,.0967-.2485s.1465-.1001,.2461-.1001c.0986,0,.1807,.0332,.2451,.1001Z"/><path d="M255.1974,27.8691v.3296l-1.8936,4.1929h-.5039l1.8613-4.1089h-2.3262v.8462h-.459v-1.2598h3.3213Z"/></g><line class="cls-4" x1="10.3809" y1="120.9658" x2="250.2682" y2="120.9658"/><g><path d="M6.338,188.5659v.3198H3.8829v-.2549l1.4551-1.4253c.1836-.1797,.3076-.3354,.373-.4673,.0645-.1318,.0977-.2642,.0977-.3975,0-.2065-.0713-.3677-.2129-.4824-.1416-.1152-.3438-.1729-.6074-.1729-.4102,0-.7285,.1304-.9551,.3901l-.2549-.2197c.1367-.1602,.3105-.2837,.5225-.3701,.2119-.0869,.4512-.1299,.7178-.1299,.3564,0,.6387,.084,.8477,.2524,.208,.168,.3125,.3989,.3125,.6924,0,.1802-.04,.3535-.1201,.52s-.2324,.3584-.4551,.5747l-1.1904,1.1704h1.9248Z"/><path d="M7.4113,188.7007c-.2119-.1431-.377-.3491-.4951-.6177-.1182-.2681-.1777-.584-.1777-.9473s.0596-.6792,.1777-.9473c.1182-.2686,.2832-.4746,.4951-.6177,.2109-.1436,.4521-.2148,.7217-.2148,.2705,0,.5117,.0713,.7227,.2148,.2119,.1431,.3779,.3491,.498,.6177,.1201,.2681,.1797,.584,.1797,.9473s-.0596,.6792-.1797,.9473c-.1201,.2686-.2861,.4746-.498,.6177-.2109,.1436-.4521,.2148-.7227,.2148-.2695,0-.5107-.0713-.7217-.2148Zm1.2598-.2852c.1553-.1133,.2754-.2778,.3623-.4946s.1299-.4785,.1299-.7852-.043-.5684-.1299-.7852c-.0869-.2163-.207-.3813-.3623-.4946s-.334-.1704-.5381-.1704c-.2031,0-.3818,.0571-.5371,.1704s-.2754,.2783-.3623,.4946c-.0869,.2168-.1299,.4785-.1299,.7852s.043,.5684,.1299,.7852,.207,.3813,.3623,.4946c.1553,.1138,.334,.1704,.5371,.1704,.2041,0,.3828-.0566,.5381-.1704Z"/><path d="M10.9679,185.3857v3.5h-.3594v-3.1802h-.8252v-.3198h1.1846Z"/><path d="M14.1427,188.5659v.3198h-2.4551v-.2549l1.4551-1.4253c.1836-.1797,.3076-.3354,.373-.4673,.0645-.1318,.0977-.2642,.0977-.3975,0-.2065-.0713-.3677-.2129-.4824-.1416-.1152-.3438-.1729-.6074-.1729-.4102,0-.7285,.1304-.9551,.3901l-.2549-.2197c.1367-.1602,.3105-.2837,.5225-.3701,.2119-.0869,.4512-.1299,.7178-.1299,.3564,0,.6387,.084,.8477,.2524,.208,.168,.3125,.3989,.3125,.6924,0,.1802-.04,.3535-.1201,.52s-.2324,.3584-.4551,.5747l-1.1904,1.1704h1.9248Z"/></g><g><path d="M33.1241,188.5659v.3198h-2.4551v-.2549l1.4551-1.4253c.1836-.1797,.3076-.3354,.3721-.4673,.0654-.1318,.0977-.2642,.0977-.3975,0-.2065-.0703-.3677-.2119-.4824-.1426-.1152-.3447-.1729-.6084-.1729-.4092,0-.7275,.1304-.9541,.3901l-.2559-.2197c.1367-.1602,.3115-.2837,.5225-.3701,.2119-.0869,.4512-.1299,.7178-.1299,.3564,0,.6396,.084,.8477,.2524,.208,.168,.3125,.3989,.3125,.6924,0,.1802-.04,.3535-.1201,.52s-.2314,.3584-.4551,.5747l-1.1895,1.1704h1.9248Z"/><path d="M34.2013,188.7007c-.2119-.1431-.377-.3491-.4951-.6177-.1182-.2681-.1777-.584-.1777-.9473s.0596-.6792,.1777-.9473c.1182-.2686,.2832-.4746,.4951-.6177,.2119-.1436,.4521-.2148,.7227-.2148,.2695,0,.5107,.0713,.7227,.2148,.2119,.1431,.377,.3491,.4971,.6177,.1201,.2681,.1807,.584,.1807,.9473s-.0605,.6792-.1807,.9473c-.1201,.2686-.2852,.4746-.4971,.6177-.2119,.1436-.4531,.2148-.7227,.2148-.2705,0-.5107-.0713-.7227-.2148Zm1.2598-.2852c.1553-.1133,.2764-.2778,.3633-.4946,.0859-.2168,.1299-.4785,.1299-.7852s-.0439-.5684-.1299-.7852c-.0869-.2163-.208-.3813-.3633-.4946-.1543-.1133-.334-.1704-.5371-.1704s-.3828,.0571-.5371,.1704c-.1553,.1133-.2764,.2783-.3633,.4946-.0859,.2168-.1299,.4785-.1299,.7852s.0439,.5684,.1299,.7852c.0869,.2168,.208,.3813,.3633,.4946,.1543,.1138,.334,.1704,.5371,.1704s.3828-.0566,.5371-.1704Z"/><path d="M37.7638,185.3857v3.5h-.3594v-3.1802h-.8252v-.3198h1.1846Z"/><path d="M40.5812,187.1831c.1914,.1787,.2881,.4111,.2881,.6978,0,.1997-.0488,.3774-.1455,.5322-.0967,.1553-.2402,.2778-.4297,.3677-.1904,.0898-.4219,.1348-.6953,.1348-.2529,0-.4922-.0405-.7178-.1221-.2246-.082-.4053-.1909-.542-.3276l.1748-.2852c.1162,.1201,.2715,.2178,.4648,.2925,.1934,.0752,.4004,.1128,.6201,.1128,.2871,0,.5088-.0625,.665-.1875s.2354-.2979,.2354-.5176c0-.2168-.0791-.3867-.2354-.5103-.1562-.123-.3936-.1851-.71-.1851h-.25v-.2646l.9697-1.2153h-1.79v-.3198h2.25v.2549l-.9893,1.2451c.3662,.02,.6455,.1191,.8369,.2974Z"/></g><g><path d="M59.9386,188.5659v.3198h-2.4551v-.2549l1.4551-1.4253c.1836-.1797,.3076-.3354,.373-.4673,.0645-.1318,.0977-.2642,.0977-.3975,0-.2065-.0713-.3677-.2129-.4824-.1416-.1152-.3438-.1729-.6074-.1729-.4102,0-.7285,.1304-.9551,.3901l-.2549-.2197c.1367-.1602,.3105-.2837,.5225-.3701,.2119-.0869,.4512-.1299,.7178-.1299,.3564,0,.6387,.084,.8477,.2524,.208,.168,.3125,.3989,.3125,.6924,0,.1802-.04,.3535-.1201,.52s-.2324,.3584-.4551,.5747l-1.1904,1.1704h1.9248Z"/><path d="M61.0167,188.7007c-.2119-.1431-.377-.3491-.4951-.6177-.1182-.2681-.1777-.584-.1777-.9473s.0596-.6792,.1777-.9473c.1182-.2686,.2832-.4746,.4951-.6177,.2109-.1436,.4521-.2148,.7217-.2148,.2705,0,.5117,.0713,.7227,.2148,.2119,.1431,.3779,.3491,.498,.6177,.1201,.2681,.1797,.584,.1797,.9473s-.0596,.6792-.1797,.9473c-.1201,.2686-.2861,.4746-.498,.6177-.2109,.1436-.4521,.2148-.7227,.2148-.2695,0-.5107-.0713-.7217-.2148Zm1.2598-.2852c.1553-.1133,.2754-.2778,.3623-.4946s.1299-.4785,.1299-.7852-.043-.5684-.1299-.7852c-.0869-.2163-.207-.3813-.3623-.4946s-.334-.1704-.5381-.1704c-.2031,0-.3818,.0571-.5371,.1704s-.2754,.2783-.3623,.4946c-.0869,.2168-.1299,.4785-.1299,.7852s.043,.5684,.1299,.7852,.207,.3813,.3623,.4946c.1553,.1138,.334,.1704,.5371,.1704,.2041,0,.3828-.0566,.5381-.1704Z"/><path d="M64.5792,185.3857v3.5h-.3604v-3.1802h-.8252v-.3198h1.1855Z"/><path d="M68.3439,187.9658h-.7002v.9199h-.3604v-.9199h-1.9746v-.2603l1.8555-2.3198h.3994l-1.79,2.2598h1.5205v-.8096h.3496v.8096h.7002v.3203Z"/></g><g><path d="M86.9825,188.5659v.3198h-2.4551v-.2549l1.4551-1.4253c.1836-.1797,.3076-.3354,.373-.4673,.0645-.1318,.0977-.2642,.0977-.3975,0-.2065-.0713-.3677-.2129-.4824-.1416-.1152-.3438-.1729-.6074-.1729-.4102,0-.7285,.1304-.9551,.3901l-.2549-.2197c.1367-.1602,.3105-.2837,.5225-.3701,.2119-.0869,.4512-.1299,.7178-.1299,.3564,0,.6387,.084,.8477,.2524,.208,.168,.3125,.3989,.3125,.6924,0,.1802-.04,.3535-.1201,.52s-.2324,.3584-.4551,.5747l-1.1904,1.1704h1.9248Z"/><path d="M88.0607,188.7007c-.2119-.1431-.377-.3491-.4951-.6177-.1182-.2681-.1777-.584-.1777-.9473s.0596-.6792,.1777-.9473c.1182-.2686,.2832-.4746,.4951-.6177,.2109-.1436,.4521-.2148,.7217-.2148,.2705,0,.5117,.0713,.7227,.2148,.2119,.1431,.3779,.3491,.498,.6177,.1201,.2681,.1797,.584,.1797,.9473s-.0596,.6792-.1797,.9473c-.1201,.2686-.2861,.4746-.498,.6177-.2109,.1436-.4521,.2148-.7227,.2148-.2695,0-.5107-.0713-.7217-.2148Zm1.2598-.2852c.1553-.1133,.2754-.2778,.3623-.4946s.1299-.4785,.1299-.7852-.043-.5684-.1299-.7852c-.0869-.2163-.207-.3813-.3623-.4946s-.334-.1704-.5381-.1704c-.2031,0-.3818,.0571-.5371,.1704s-.2754,.2783-.3623,.4946c-.0869,.2168-.1299,.4785-.1299,.7852s.043,.5684,.1299,.7852,.207,.3813,.3623,.4946c.1553,.1138,.334,.1704,.5371,.1704,.2041,0,.3828-.0566,.5381-.1704Z"/><path d="M91.6232,185.3857v3.5h-.3604v-3.1802h-.8252v-.3198h1.1855Z"/><path d="M94.4405,187.0933c.2314,.1816,.3467,.436,.3467,.7627,0,.2031-.0469,.3848-.1416,.5449-.0957,.1597-.2383,.2856-.4277,.3774-.1904,.0918-.4238,.1372-.7002,.1372-.25,0-.4873-.0405-.7129-.1221-.2246-.082-.4053-.1909-.542-.3276l.1748-.2852c.1172,.1201,.2705,.2178,.46,.2925,.1904,.0752,.3955,.1128,.6152,.1128,.29,0,.5137-.0654,.6729-.1953,.1582-.1299,.2373-.3032,.2373-.52,0-.2397-.0898-.4214-.2676-.5449-.1787-.123-.4795-.1851-.9023-.1851h-.7451l.1797-1.7549h1.915v.3198h-1.5996l-.1201,1.1152h.4502c.5059,0,.875,.0908,1.1074,.2725Z"/></g><g><path d="M113.8068,188.5659v.3198h-2.4551v-.2549l1.4551-1.4253c.1836-.1797,.3076-.3354,.373-.4673,.0645-.1318,.0977-.2642,.0977-.3975,0-.2065-.0713-.3677-.2129-.4824-.1416-.1152-.3438-.1729-.6074-.1729-.4102,0-.7285,.1304-.9551,.3901l-.2549-.2197c.1367-.1602,.3105-.2837,.5225-.3701,.2119-.0869,.4512-.1299,.7178-.1299,.3564,0,.6387,.084,.8477,.2524,.208,.168,.3125,.3989,.3125,.6924,0,.1802-.04,.3535-.1201,.52s-.2324,.3584-.4551,.5747l-1.1904,1.1704h1.9248Z"/><path d="M114.8849,188.7007c-.2119-.1431-.377-.3491-.4951-.6177-.1182-.2681-.1777-.584-.1777-.9473s.0596-.6792,.1777-.9473c.1182-.2686,.2832-.4746,.4951-.6177,.2109-.1436,.4521-.2148,.7217-.2148,.2705,0,.5117,.0713,.7227,.2148,.2119,.1431,.3779,.3491,.498,.6177,.1201,.2681,.1797,.584,.1797,.9473s-.0596,.6792-.1797,.9473c-.1201,.2686-.2861,.4746-.498,.6177-.2109,.1436-.4521,.2148-.7227,.2148-.2695,0-.5107-.0713-.7217-.2148Zm1.2598-.2852c.1553-.1133,.2754-.2778,.3623-.4946s.1299-.4785,.1299-.7852-.043-.5684-.1299-.7852c-.0869-.2163-.207-.3813-.3623-.4946s-.334-.1704-.5381-.1704c-.2031,0-.3818,.0571-.5371,.1704s-.2754,.2783-.3623,.4946c-.0869,.2168-.1299,.4785-.1299,.7852s.043,.5684,.1299,.7852,.207,.3813,.3623,.4946c.1553,.1138,.334,.1704,.5371,.1704,.2041,0,.3828-.0566,.5381-.1704Z"/><path d="M118.4474,185.3857v3.5h-.3604v-3.1802h-.8252v-.3198h1.1855Z"/><path d="M121.2989,186.9209c.1787,.0864,.3184,.209,.418,.3672,.0996,.1587,.1504,.3428,.1504,.5527,0,.2134-.0518,.4019-.1553,.5649-.1035,.1636-.2461,.2891-.4277,.3774s-.3857,.1323-.6123,.1323c-.4639,0-.8184-.1523-1.0654-.4575-.2461-.3047-.3701-.7354-.3701-1.2925,0-.3896,.0674-.7197,.2002-.9897,.1338-.27,.3203-.4741,.5605-.6123,.2393-.1387,.5195-.2075,.8398-.2075,.3467,0,.623,.063,.8301,.1899l-.1455,.29c-.166-.1104-.3926-.165-.6797-.165-.3867,0-.6904,.1226-.9102,.3672-.2197,.2451-.3301,.6011-.3301,1.0679,0,.083,.0049,.1782,.0156,.2847,.0859-.1899,.2246-.3374,.415-.4424,.1895-.105,.4082-.1577,.6543-.1577,.2305,0,.4346,.0435,.6123,.1304Zm-.0244,1.4824c.1582-.1382,.2373-.3228,.2373-.5527s-.0791-.4131-.2373-.5498-.373-.2051-.6426-.2051c-.1768,0-.333,.0332-.4678,.1001s-.2402,.1582-.3174,.2749c-.0762,.1167-.1152,.2466-.1152,.3901,0,.1333,.0361,.2568,.1074,.3701,.0723,.1133,.1777,.2046,.3184,.2749,.1396,.0698,.3066,.105,.5,.105,.2529,0,.459-.0693,.6172-.2075Z"/></g><g><path d="M141.046,188.5659v.3198h-2.4551v-.2549l1.4551-1.4253c.1836-.1797,.3076-.3354,.3721-.4673,.0654-.1318,.0977-.2642,.0977-.3975,0-.2065-.0703-.3677-.2119-.4824-.1426-.1152-.3447-.1729-.6084-.1729-.4092,0-.7275,.1304-.9541,.3901l-.2559-.2197c.1367-.1602,.3115-.2837,.5225-.3701,.2119-.0869,.4512-.1299,.7178-.1299,.3564,0,.6396,.084,.8477,.2524,.208,.168,.3125,.3989,.3125,.6924,0,.1802-.04,.3535-.1201,.52s-.2314,.3584-.4551,.5747l-1.1895,1.1704h1.9248Z"/><path d="M142.1232,188.7007c-.2119-.1431-.377-.3491-.4951-.6177-.1182-.2681-.1777-.584-.1777-.9473s.0596-.6792,.1777-.9473c.1182-.2686,.2832-.4746,.4951-.6177,.2119-.1436,.4521-.2148,.7227-.2148,.2695,0,.5107,.0713,.7227,.2148,.2119,.1431,.377,.3491,.4971,.6177,.1201,.2681,.1807,.584,.1807,.9473s-.0605,.6792-.1807,.9473c-.1201,.2686-.2852,.4746-.4971,.6177-.2119,.1436-.4531,.2148-.7227,.2148-.2705,0-.5107-.0713-.7227-.2148Zm1.2598-.2852c.1553-.1133,.2764-.2778,.3633-.4946,.0859-.2168,.1299-.4785,.1299-.7852s-.0439-.5684-.1299-.7852c-.0869-.2163-.208-.3813-.3633-.4946-.1543-.1133-.334-.1704-.5371-.1704s-.3828,.0571-.5371,.1704c-.1553,.1133-.2764,.2783-.3633,.4946-.0859,.2168-.1299,.4785-.1299,.7852s.0439,.5684,.1299,.7852c.0869,.2168,.208,.3813,.3633,.4946,.1543,.1138,.334,.1704,.5371,.1704s.3828-.0566,.5371-.1704Z"/><path d="M145.6857,185.3857v3.5h-.3594v-3.1802h-.8252v-.3198h1.1846Z"/><path d="M148.9454,185.3857v.2549l-1.4648,3.2451h-.3896l1.4395-3.1802h-1.7998v.6553h-.3545v-.9751h2.5693Z"/></g><g><path d="M167.5724,188.5659v.3198h-2.4551v-.2549l1.4551-1.4253c.1836-.1797,.3076-.3354,.373-.4673,.0645-.1318,.0977-.2642,.0977-.3975,0-.2065-.0713-.3677-.2129-.4824-.1416-.1152-.3438-.1729-.6074-.1729-.4102,0-.7285,.1304-.9551,.3901l-.2549-.2197c.1367-.1602,.3105-.2837,.5225-.3701,.2119-.0869,.4512-.1299,.7178-.1299,.3564,0,.6387,.084,.8477,.2524,.208,.168,.3125,.3989,.3125,.6924,0,.1802-.04,.3535-.1201,.52s-.2324,.3584-.4551,.5747l-1.1904,1.1704h1.9248Z"/><path d="M168.6505,188.7007c-.2119-.1431-.377-.3491-.4951-.6177-.1182-.2681-.1777-.584-.1777-.9473s.0596-.6792,.1777-.9473c.1182-.2686,.2832-.4746,.4951-.6177,.2109-.1436,.4521-.2148,.7217-.2148,.2705,0,.5117,.0713,.7227,.2148,.2119,.1431,.3779,.3491,.498,.6177,.1201,.2681,.1797,.584,.1797,.9473s-.0596,.6792-.1797,.9473c-.1201,.2686-.2861,.4746-.498,.6177-.2109,.1436-.4521,.2148-.7227,.2148-.2695,0-.5107-.0713-.7217-.2148Zm1.2598-.2852c.1553-.1133,.2754-.2778,.3623-.4946s.1299-.4785,.1299-.7852-.043-.5684-.1299-.7852c-.0869-.2163-.207-.3813-.3623-.4946s-.334-.1704-.5381-.1704c-.2031,0-.3818,.0571-.5371,.1704s-.2754,.2783-.3623,.4946c-.0869,.2168-.1299,.4785-.1299,.7852s.043,.5684,.1299,.7852,.207,.3813,.3623,.4946c.1553,.1138,.334,.1704,.5371,.1704,.2041,0,.3828-.0566,.5381-.1704Z"/><path d="M172.213,185.3857v3.5h-.3604v-3.1802h-.8252v-.3198h1.1855Z"/><path d="M175.5148,187.3809c.1182,.1465,.1777,.3232,.1777,.5298,0,.2036-.0547,.3809-.165,.5327-.1104,.1514-.2676,.2681-.4727,.3501-.2051,.0815-.4453,.1221-.7227,.1221-.4199,0-.75-.0898-.9893-.27-.2402-.1797-.3604-.4248-.3604-.7349,0-.21,.0576-.3872,.1729-.5322,.1143-.145,.2822-.2544,.502-.3276-.1797-.0698-.3164-.1709-.4102-.3027-.0928-.1313-.1396-.2871-.1396-.4673,0-.2832,.1104-.5083,.332-.6748,.2217-.167,.5195-.25,.8926-.25,.2471,0,.4629,.0371,.6475,.1123,.1855,.0752,.3291,.1826,.4326,.3223,.1035,.1401,.1553,.3037,.1553,.4902,0,.1802-.0479,.3359-.1445,.4673-.0967,.1318-.2354,.2329-.415,.3027,.2197,.0732,.3887,.1831,.5068,.3301Zm-.4551,1.04c.1758-.127,.2627-.2983,.2627-.5151s-.0869-.3877-.2627-.5127c-.1748-.125-.417-.1875-.7275-.1875-.3066,0-.5469,.0625-.7217,.1875-.1758,.125-.2627,.2959-.2627,.5127,0,.2202,.0859,.3926,.2598,.5176,.1729,.125,.415,.1875,.7246,.1875,.3105,0,.5527-.0635,.7275-.1899Zm-1.3623-1.6699c.1533,.1133,.3652,.1699,.6348,.1699,.2705,0,.4824-.0566,.6377-.1699s.2324-.2651,.2324-.4551c0-.1968-.0791-.3516-.2373-.4653-.1582-.1133-.3691-.1699-.6328-.1699-.2666,0-.4775,.0566-.6318,.1699-.1553,.1138-.2324,.2671-.2324,.46,0,.1934,.0762,.3472,.2295,.4604Z"/></g><g><path d="M194.5011,188.5659v.3198h-2.4551v-.2549l1.4551-1.4253c.1836-.1797,.3076-.3354,.3721-.4673,.0654-.1318,.0977-.2642,.0977-.3975,0-.2065-.0703-.3677-.2119-.4824-.1426-.1152-.3447-.1729-.6084-.1729-.4092,0-.7275,.1304-.9541,.3901l-.2559-.2197c.1367-.1602,.3115-.2837,.5225-.3701,.2119-.0869,.4512-.1299,.7178-.1299,.3564,0,.6396,.084,.8477,.2524,.208,.168,.3125,.3989,.3125,.6924,0,.1802-.04,.3535-.1201,.52s-.2314,.3584-.4551,.5747l-1.1895,1.1704h1.9248Z"/><path d="M195.5782,188.7007c-.2119-.1431-.377-.3491-.4951-.6177-.1182-.2681-.1777-.584-.1777-.9473s.0596-.6792,.1777-.9473c.1182-.2686,.2832-.4746,.4951-.6177,.2119-.1436,.4521-.2148,.7227-.2148,.2695,0,.5107,.0713,.7227,.2148,.2119,.1431,.377,.3491,.4971,.6177,.1201,.2681,.1807,.584,.1807,.9473s-.0605,.6792-.1807,.9473c-.1201,.2686-.2852,.4746-.4971,.6177-.2119,.1436-.4531,.2148-.7227,.2148-.2705,0-.5107-.0713-.7227-.2148Zm1.2598-.2852c.1553-.1133,.2764-.2778,.3633-.4946,.0859-.2168,.1299-.4785,.1299-.7852s-.0439-.5684-.1299-.7852c-.0869-.2163-.208-.3813-.3633-.4946-.1543-.1133-.334-.1704-.5371-.1704s-.3828,.0571-.5371,.1704c-.1553,.1133-.2764,.2783-.3633,.4946-.0859,.2168-.1299,.4785-.1299,.7852s.0439,.5684,.1299,.7852c.0869,.2168,.208,.3813,.3633,.4946,.1543,.1138,.334,.1704,.5371,.1704s.3828-.0566,.5371-.1704Z"/><path d="M199.1407,185.3857v3.5h-.3594v-3.1802h-.8252v-.3198h1.1846Z"/><path d="M202.0861,185.8135c.2461,.3047,.3701,.7358,.3701,1.2925,0,.3896-.0674,.7197-.2002,.9897-.1338,.27-.3203,.4741-.5605,.6123-.2393,.1387-.5195,.2075-.8398,.2075-.3467,0-.623-.063-.8301-.1899l.1455-.29c.166,.1104,.3926,.165,.6797,.165,.3867,0,.6904-.1226,.9102-.3672,.2197-.2451,.3301-.6011,.3301-1.0679,0-.0864-.0049-.1816-.0156-.2847-.0859,.1899-.2246,.3374-.4141,.4424-.1904,.105-.4092,.1577-.6553,.1577-.2305,0-.4346-.0435-.6123-.1304-.1787-.0864-.3184-.209-.418-.3672s-.1504-.3428-.1504-.5527c0-.2134,.0518-.4014,.1553-.5649,.1035-.1631,.2461-.2891,.4277-.3774s.3857-.1323,.6123-.1323c.4639,0,.8184,.1523,1.0654,.4575Zm-.5576,1.2622c.1348-.0664,.2402-.1582,.3174-.2749,.0762-.1167,.1152-.2466,.1152-.3901,0-.1333-.0361-.2563-.1074-.3701-.0723-.1133-.1777-.2046-.3174-.2749-.1406-.0698-.3076-.105-.5-.105-.2539,0-.46,.0693-.6182,.2075-.1582,.1387-.2373,.3228-.2373,.5527s.0791,.4131,.2373,.5498,.373,.2051,.6426,.2051c.1768,0,.333-.0332,.4678-.1001Z"/></g><g><path d="M220.7023,188.5659v.3198h-2.4551v-.2549l1.4551-1.4253c.1836-.1797,.3076-.3354,.3721-.4673,.0654-.1318,.0977-.2642,.0977-.3975,0-.2065-.0703-.3677-.2119-.4824-.1426-.1152-.3447-.1729-.6084-.1729-.4092,0-.7275,.1304-.9541,.3901l-.2559-.2197c.1367-.1602,.3115-.2837,.5225-.3701,.2119-.0869,.4512-.1299,.7178-.1299,.3564,0,.6396,.084,.8477,.2524,.208,.168,.3125,.3989,.3125,.6924,0,.1802-.04,.3535-.1201,.52s-.2314,.3584-.4551,.5747l-1.1895,1.1704h1.9248Z"/><path d="M221.7794,188.7007c-.2119-.1431-.377-.3491-.4951-.6177-.1182-.2681-.1777-.584-.1777-.9473s.0596-.6792,.1777-.9473c.1182-.2686,.2832-.4746,.4951-.6177,.2119-.1436,.4521-.2148,.7227-.2148,.2695,0,.5107,.0713,.7227,.2148,.2119,.1431,.377,.3491,.4971,.6177,.1201,.2681,.1807,.584,.1807,.9473s-.0605,.6792-.1807,.9473c-.1201,.2686-.2852,.4746-.4971,.6177-.2119,.1436-.4531,.2148-.7227,.2148-.2705,0-.5107-.0713-.7227-.2148Zm1.2598-.2852c.1553-.1133,.2764-.2778,.3633-.4946,.0859-.2168,.1299-.4785,.1299-.7852s-.0439-.5684-.1299-.7852c-.0869-.2163-.208-.3813-.3633-.4946-.1543-.1133-.334-.1704-.5371-.1704s-.3828,.0571-.5371,.1704c-.1553,.1133-.2764,.2783-.3633,.4946-.0859,.2168-.1299,.4785-.1299,.7852s.0439,.5684,.1299,.7852c.0869,.2168,.208,.3813,.3633,.4946,.1543,.1138,.334,.1704,.5371,.1704s.3828-.0566,.5371-.1704Z"/><path d="M226.7618,188.5659v.3198h-2.4551v-.2549l1.4551-1.4253c.1836-.1797,.3076-.3354,.373-.4673,.0645-.1318,.0977-.2642,.0977-.3975,0-.2065-.0713-.3677-.2129-.4824-.1416-.1152-.3438-.1729-.6074-.1729-.4102,0-.7285,.1304-.9551,.3901l-.2549-.2197c.1367-.1602,.3105-.2837,.5225-.3701,.2119-.0869,.4512-.1299,.7178-.1299,.3564,0,.6387,.084,.8477,.2524,.208,.168,.3125,.3989,.3125,.6924,0,.1802-.04,.3535-.1201,.52s-.2324,.3584-.4551,.5747l-1.1904,1.1704h1.9248Z"/><path d="M227.84,188.7007c-.2119-.1431-.377-.3491-.4951-.6177-.1182-.2681-.1777-.584-.1777-.9473s.0596-.6792,.1777-.9473c.1182-.2686,.2832-.4746,.4951-.6177,.2109-.1436,.4521-.2148,.7217-.2148,.2705,0,.5117,.0713,.7227,.2148,.2119,.1431,.3779,.3491,.498,.6177,.1201,.2681,.1797,.584,.1797,.9473s-.0596,.6792-.1797,.9473c-.1201,.2686-.2861,.4746-.498,.6177-.2109,.1436-.4521,.2148-.7227,.2148-.2695,0-.5107-.0713-.7217-.2148Zm1.2598-.2852c.1553-.1133,.2754-.2778,.3623-.4946s.1299-.4785,.1299-.7852-.043-.5684-.1299-.7852c-.0869-.2163-.207-.3813-.3623-.4946s-.334-.1704-.5381-.1704c-.2031,0-.3818,.0571-.5371,.1704s-.2754,.2783-.3623,.4946c-.0869,.2168-.1299,.4785-.1299,.7852s.043,.5684,.1299,.7852,.207,.3813,.3623,.4946c.1553,.1138,.334,.1704,.5371,.1704,.2041,0,.3828-.0566,.5381-.1704Z"/></g><g><path d="M248.4279,188.5659v.3198h-2.4551v-.2549l1.4551-1.4253c.1836-.1797,.3076-.3354,.3721-.4673,.0654-.1318,.0977-.2642,.0977-.3975,0-.2065-.0703-.3677-.2119-.4824-.1426-.1152-.3447-.1729-.6084-.1729-.4092,0-.7275,.1304-.9541,.3901l-.2559-.2197c.1367-.1602,.3115-.2837,.5225-.3701,.2119-.0869,.4512-.1299,.7178-.1299,.3564,0,.6396,.084,.8477,.2524,.208,.168,.3125,.3989,.3125,.6924,0,.1802-.04,.3535-.1201,.52s-.2314,.3584-.4551,.5747l-1.1895,1.1704h1.9248Z"/><path d="M249.5001,188.7007c-.2119-.1431-.377-.3491-.4951-.6177-.1182-.2681-.1777-.584-.1777-.9473s.0596-.6792,.1777-.9473c.1182-.2686,.2832-.4746,.4951-.6177,.2119-.1436,.4521-.2148,.7227-.2148,.2695,0,.5107,.0713,.7227,.2148,.2119,.1431,.377,.3491,.4971,.6177,.1201,.2681,.1807,.584,.1807,.9473s-.0605,.6792-.1807,.9473c-.1201,.2686-.2852,.4746-.4971,.6177-.2119,.1436-.4531,.2148-.7227,.2148-.2705,0-.5107-.0713-.7227-.2148Zm1.2598-.2852c.1553-.1133,.2764-.2778,.3633-.4946,.0859-.2168,.1299-.4785,.1299-.7852s-.0439-.5684-.1299-.7852c-.0869-.2163-.208-.3813-.3633-.4946-.1543-.1133-.334-.1704-.5371-.1704s-.3828,.0571-.5371,.1704c-.1553,.1133-.2764,.2783-.3633,.4946-.0859,.2168-.1299,.4785-.1299,.7852s.0439,.5684,.1299,.7852c.0869,.2168,.208,.3813,.3633,.4946,.1543,.1138,.334,.1704,.5371,.1704s.3828-.0566,.5371-.1704Z"/><path d="M254.4777,188.5659v.3198h-2.4551v-.2549l1.4551-1.4253c.1836-.1797,.3076-.3354,.3721-.4673,.0654-.1318,.0977-.2642,.0977-.3975,0-.2065-.0703-.3677-.2119-.4824-.1426-.1152-.3447-.1729-.6084-.1729-.4092,0-.7275,.1304-.9541,.3901l-.2559-.2197c.1367-.1602,.3115-.2837,.5225-.3701,.2119-.0869,.4512-.1299,.7178-.1299,.3564,0,.6396,.084,.8477,.2524,.208,.168,.3125,.3989,.3125,.6924,0,.1802-.04,.3535-.1201,.52s-.2314,.3584-.4551,.5747l-1.1895,1.1704h1.9248Z"/><path d="M255.8478,185.3857v3.5h-.3604v-3.1802h-.8252v-.3198h1.1855Z"/></g><g><path d="M6.338,188.5659v.3198H3.8829v-.2549l1.4551-1.4253c.1836-.1797,.3076-.3354,.373-.4673,.0645-.1318,.0977-.2642,.0977-.3975,0-.2065-.0713-.3677-.2129-.4824-.1416-.1152-.3438-.1729-.6074-.1729-.4102,0-.7285,.1304-.9551,.3901l-.2549-.2197c.1367-.1602,.3105-.2837,.5225-.3701,.2119-.0869,.4512-.1299,.7178-.1299,.3564,0,.6387,.084,.8477,.2524,.208,.168,.3125,.3989,.3125,.6924,0,.1802-.04,.3535-.1201,.52s-.2324,.3584-.4551,.5747l-1.1904,1.1704h1.9248Z"/><path d="M7.4113,188.7007c-.2119-.1431-.377-.3491-.4951-.6177-.1182-.2681-.1777-.584-.1777-.9473s.0596-.6792,.1777-.9473c.1182-.2686,.2832-.4746,.4951-.6177,.2109-.1436,.4521-.2148,.7217-.2148,.2705,0,.5117,.0713,.7227,.2148,.2119,.1431,.3779,.3491,.498,.6177,.1201,.2681,.1797,.584,.1797,.9473s-.0596,.6792-.1797,.9473c-.1201,.2686-.2861,.4746-.498,.6177-.2109,.1436-.4521,.2148-.7227,.2148-.2695,0-.5107-.0713-.7217-.2148Zm1.2598-.2852c.1553-.1133,.2754-.2778,.3623-.4946s.1299-.4785,.1299-.7852-.043-.5684-.1299-.7852c-.0869-.2163-.207-.3813-.3623-.4946s-.334-.1704-.5381-.1704c-.2031,0-.3818,.0571-.5371,.1704s-.2754,.2783-.3623,.4946c-.0869,.2168-.1299,.4785-.1299,.7852s.043,.5684,.1299,.7852,.207,.3813,.3623,.4946c.1553,.1138,.334,.1704,.5371,.1704,.2041,0,.3828-.0566,.5381-.1704Z"/><path d="M10.9679,185.3857v3.5h-.3594v-3.1802h-.8252v-.3198h1.1846Z"/><path d="M14.1427,188.5659v.3198h-2.4551v-.2549l1.4551-1.4253c.1836-.1797,.3076-.3354,.373-.4673,.0645-.1318,.0977-.2642,.0977-.3975,0-.2065-.0713-.3677-.2129-.4824-.1416-.1152-.3438-.1729-.6074-.1729-.4102,0-.7285,.1304-.9551,.3901l-.2549-.2197c.1367-.1602,.3105-.2837,.5225-.3701,.2119-.0869,.4512-.1299,.7178-.1299,.3564,0,.6387,.084,.8477,.2524,.208,.168,.3125,.3989,.3125,.6924,0,.1802-.04,.3535-.1201,.52s-.2324,.3584-.4551,.5747l-1.1904,1.1704h1.9248Z"/></g><g><path d="M33.1241,188.5659v.3198h-2.4551v-.2549l1.4551-1.4253c.1836-.1797,.3076-.3354,.3721-.4673,.0654-.1318,.0977-.2642,.0977-.3975,0-.2065-.0703-.3677-.2119-.4824-.1426-.1152-.3447-.1729-.6084-.1729-.4092,0-.7275,.1304-.9541,.3901l-.2559-.2197c.1367-.1602,.3115-.2837,.5225-.3701,.2119-.0869,.4512-.1299,.7178-.1299,.3564,0,.6396,.084,.8477,.2524,.208,.168,.3125,.3989,.3125,.6924,0,.1802-.04,.3535-.1201,.52s-.2314,.3584-.4551,.5747l-1.1895,1.1704h1.9248Z"/><path d="M34.2013,188.7007c-.2119-.1431-.377-.3491-.4951-.6177-.1182-.2681-.1777-.584-.1777-.9473s.0596-.6792,.1777-.9473c.1182-.2686,.2832-.4746,.4951-.6177,.2119-.1436,.4521-.2148,.7227-.2148,.2695,0,.5107,.0713,.7227,.2148,.2119,.1431,.377,.3491,.4971,.6177,.1201,.2681,.1807,.584,.1807,.9473s-.0605,.6792-.1807,.9473c-.1201,.2686-.2852,.4746-.4971,.6177-.2119,.1436-.4531,.2148-.7227,.2148-.2705,0-.5107-.0713-.7227-.2148Zm1.2598-.2852c.1553-.1133,.2764-.2778,.3633-.4946,.0859-.2168,.1299-.4785,.1299-.7852s-.0439-.5684-.1299-.7852c-.0869-.2163-.208-.3813-.3633-.4946-.1543-.1133-.334-.1704-.5371-.1704s-.3828,.0571-.5371,.1704c-.1553,.1133-.2764,.2783-.3633,.4946-.0859,.2168-.1299,.4785-.1299,.7852s.0439,.5684,.1299,.7852c.0869,.2168,.208,.3813,.3633,.4946,.1543,.1138,.334,.1704,.5371,.1704s.3828-.0566,.5371-.1704Z"/><path d="M37.7638,185.3857v3.5h-.3594v-3.1802h-.8252v-.3198h1.1846Z"/><path d="M40.5812,187.1831c.1914,.1787,.2881,.4111,.2881,.6978,0,.1997-.0488,.3774-.1455,.5322-.0967,.1553-.2402,.2778-.4297,.3677-.1904,.0898-.4219,.1348-.6953,.1348-.2529,0-.4922-.0405-.7178-.1221-.2246-.082-.4053-.1909-.542-.3276l.1748-.2852c.1162,.1201,.2715,.2178,.4648,.2925,.1934,.0752,.4004,.1128,.6201,.1128,.2871,0,.5088-.0625,.665-.1875s.2354-.2979,.2354-.5176c0-.2168-.0791-.3867-.2354-.5103-.1562-.123-.3936-.1851-.71-.1851h-.25v-.2646l.9697-1.2153h-1.79v-.3198h2.25v.2549l-.9893,1.2451c.3662,.02,.6455,.1191,.8369,.2974Z"/></g><g><path d="M59.9386,188.5659v.3198h-2.4551v-.2549l1.4551-1.4253c.1836-.1797,.3076-.3354,.373-.4673,.0645-.1318,.0977-.2642,.0977-.3975,0-.2065-.0713-.3677-.2129-.4824-.1416-.1152-.3438-.1729-.6074-.1729-.4102,0-.7285,.1304-.9551,.3901l-.2549-.2197c.1367-.1602,.3105-.2837,.5225-.3701,.2119-.0869,.4512-.1299,.7178-.1299,.3564,0,.6387,.084,.8477,.2524,.208,.168,.3125,.3989,.3125,.6924,0,.1802-.04,.3535-.1201,.52s-.2324,.3584-.4551,.5747l-1.1904,1.1704h1.9248Z"/><path d="M61.0167,188.7007c-.2119-.1431-.377-.3491-.4951-.6177-.1182-.2681-.1777-.584-.1777-.9473s.0596-.6792,.1777-.9473c.1182-.2686,.2832-.4746,.4951-.6177,.2109-.1436,.4521-.2148,.7217-.2148,.2705,0,.5117,.0713,.7227,.2148,.2119,.1431,.3779,.3491,.498,.6177,.1201,.2681,.1797,.584,.1797,.9473s-.0596,.6792-.1797,.9473c-.1201,.2686-.2861,.4746-.498,.6177-.2109,.1436-.4521,.2148-.7227,.2148-.2695,0-.5107-.0713-.7217-.2148Zm1.2598-.2852c.1553-.1133,.2754-.2778,.3623-.4946s.1299-.4785,.1299-.7852-.043-.5684-.1299-.7852c-.0869-.2163-.207-.3813-.3623-.4946s-.334-.1704-.5381-.1704c-.2031,0-.3818,.0571-.5371,.1704s-.2754,.2783-.3623,.4946c-.0869,.2168-.1299,.4785-.1299,.7852s.043,.5684,.1299,.7852,.207,.3813,.3623,.4946c.1553,.1138,.334,.1704,.5371,.1704,.2041,0,.3828-.0566,.5381-.1704Z"/><path d="M64.5792,185.3857v3.5h-.3604v-3.1802h-.8252v-.3198h1.1855Z"/><path d="M68.3439,187.9658h-.7002v.9199h-.3604v-.9199h-1.9746v-.2603l1.8555-2.3198h.3994l-1.79,2.2598h1.5205v-.8096h.3496v.8096h.7002v.3203Z"/></g><g><path d="M86.9825,188.5659v.3198h-2.4551v-.2549l1.4551-1.4253c.1836-.1797,.3076-.3354,.373-.4673,.0645-.1318,.0977-.2642,.0977-.3975,0-.2065-.0713-.3677-.2129-.4824-.1416-.1152-.3438-.1729-.6074-.1729-.4102,0-.7285,.1304-.9551,.3901l-.2549-.2197c.1367-.1602,.3105-.2837,.5225-.3701,.2119-.0869,.4512-.1299,.7178-.1299,.3564,0,.6387,.084,.8477,.2524,.208,.168,.3125,.3989,.3125,.6924,0,.1802-.04,.3535-.1201,.52s-.2324,.3584-.4551,.5747l-1.1904,1.1704h1.9248Z"/><path d="M88.0607,188.7007c-.2119-.1431-.377-.3491-.4951-.6177-.1182-.2681-.1777-.584-.1777-.9473s.0596-.6792,.1777-.9473c.1182-.2686,.2832-.4746,.4951-.6177,.2109-.1436,.4521-.2148,.7217-.2148,.2705,0,.5117,.0713,.7227,.2148,.2119,.1431,.3779,.3491,.498,.6177,.1201,.2681,.1797,.584,.1797,.9473s-.0596,.6792-.1797,.9473c-.1201,.2686-.2861,.4746-.498,.6177-.2109,.1436-.4521,.2148-.7227,.2148-.2695,0-.5107-.0713-.7217-.2148Zm1.2598-.2852c.1553-.1133,.2754-.2778,.3623-.4946s.1299-.4785,.1299-.7852-.043-.5684-.1299-.7852c-.0869-.2163-.207-.3813-.3623-.4946s-.334-.1704-.5381-.1704c-.2031,0-.3818,.0571-.5371,.1704s-.2754,.2783-.3623,.4946c-.0869,.2168-.1299,.4785-.1299,.7852s.043,.5684,.1299,.7852,.207,.3813,.3623,.4946c.1553,.1138,.334,.1704,.5371,.1704,.2041,0,.3828-.0566,.5381-.1704Z"/><path d="M91.6232,185.3857v3.5h-.3604v-3.1802h-.8252v-.3198h1.1855Z"/><path d="M94.4405,187.0933c.2314,.1816,.3467,.436,.3467,.7627,0,.2031-.0469,.3848-.1416,.5449-.0957,.1597-.2383,.2856-.4277,.3774-.1904,.0918-.4238,.1372-.7002,.1372-.25,0-.4873-.0405-.7129-.1221-.2246-.082-.4053-.1909-.542-.3276l.1748-.2852c.1172,.1201,.2705,.2178,.46,.2925,.1904,.0752,.3955,.1128,.6152,.1128,.29,0,.5137-.0654,.6729-.1953,.1582-.1299,.2373-.3032,.2373-.52,0-.2397-.0898-.4214-.2676-.5449-.1787-.123-.4795-.1851-.9023-.1851h-.7451l.1797-1.7549h1.915v.3198h-1.5996l-.1201,1.1152h.4502c.5059,0,.875,.0908,1.1074,.2725Z"/></g><g><path d="M113.8068,188.5659v.3198h-2.4551v-.2549l1.4551-1.4253c.1836-.1797,.3076-.3354,.373-.4673,.0645-.1318,.0977-.2642,.0977-.3975,0-.2065-.0713-.3677-.2129-.4824-.1416-.1152-.3438-.1729-.6074-.1729-.4102,0-.7285,.1304-.9551,.3901l-.2549-.2197c.1367-.1602,.3105-.2837,.5225-.3701,.2119-.0869,.4512-.1299,.7178-.1299,.3564,0,.6387,.084,.8477,.2524,.208,.168,.3125,.3989,.3125,.6924,0,.1802-.04,.3535-.1201,.52s-.2324,.3584-.4551,.5747l-1.1904,1.1704h1.9248Z"/><path d="M114.8849,188.7007c-.2119-.1431-.377-.3491-.4951-.6177-.1182-.2681-.1777-.584-.1777-.9473s.0596-.6792,.1777-.9473c.1182-.2686,.2832-.4746,.4951-.6177,.2109-.1436,.4521-.2148,.7217-.2148,.2705,0,.5117,.0713,.7227,.2148,.2119,.1431,.3779,.3491,.498,.6177,.1201,.2681,.1797,.584,.1797,.9473s-.0596,.6792-.1797,.9473c-.1201,.2686-.2861,.4746-.498,.6177-.2109,.1436-.4521,.2148-.7227,.2148-.2695,0-.5107-.0713-.7217-.2148Zm1.2598-.2852c.1553-.1133,.2754-.2778,.3623-.4946s.1299-.4785,.1299-.7852-.043-.5684-.1299-.7852c-.0869-.2163-.207-.3813-.3623-.4946s-.334-.1704-.5381-.1704c-.2031,0-.3818,.0571-.5371,.1704s-.2754,.2783-.3623,.4946c-.0869,.2168-.1299,.4785-.1299,.7852s.043,.5684,.1299,.7852,.207,.3813,.3623,.4946c.1553,.1138,.334,.1704,.5371,.1704,.2041,0,.3828-.0566,.5381-.1704Z"/><path d="M118.4474,185.3857v3.5h-.3604v-3.1802h-.8252v-.3198h1.1855Z"/><path d="M121.2989,186.9209c.1787,.0864,.3184,.209,.418,.3672,.0996,.1587,.1504,.3428,.1504,.5527,0,.2134-.0518,.4019-.1553,.5649-.1035,.1636-.2461,.2891-.4277,.3774s-.3857,.1323-.6123,.1323c-.4639,0-.8184-.1523-1.0654-.4575-.2461-.3047-.3701-.7354-.3701-1.2925,0-.3896,.0674-.7197,.2002-.9897,.1338-.27,.3203-.4741,.5605-.6123,.2393-.1387,.5195-.2075,.8398-.2075,.3467,0,.623,.063,.8301,.1899l-.1455,.29c-.166-.1104-.3926-.165-.6797-.165-.3867,0-.6904,.1226-.9102,.3672-.2197,.2451-.3301,.6011-.3301,1.0679,0,.083,.0049,.1782,.0156,.2847,.0859-.1899,.2246-.3374,.415-.4424,.1895-.105,.4082-.1577,.6543-.1577,.2305,0,.4346,.0435,.6123,.1304Zm-.0244,1.4824c.1582-.1382,.2373-.3228,.2373-.5527s-.0791-.4131-.2373-.5498-.373-.2051-.6426-.2051c-.1768,0-.333,.0332-.4678,.1001s-.2402,.1582-.3174,.2749c-.0762,.1167-.1152,.2466-.1152,.3901,0,.1333,.0361,.2568,.1074,.3701,.0723,.1133,.1777,.2046,.3184,.2749,.1396,.0698,.3066,.105,.5,.105,.2529,0,.459-.0693,.6172-.2075Z"/></g><g><path d="M141.046,188.5659v.3198h-2.4551v-.2549l1.4551-1.4253c.1836-.1797,.3076-.3354,.3721-.4673,.0654-.1318,.0977-.2642,.0977-.3975,0-.2065-.0703-.3677-.2119-.4824-.1426-.1152-.3447-.1729-.6084-.1729-.4092,0-.7275,.1304-.9541,.3901l-.2559-.2197c.1367-.1602,.3115-.2837,.5225-.3701,.2119-.0869,.4512-.1299,.7178-.1299,.3564,0,.6396,.084,.8477,.2524,.208,.168,.3125,.3989,.3125,.6924,0,.1802-.04,.3535-.1201,.52s-.2314,.3584-.4551,.5747l-1.1895,1.1704h1.9248Z"/><path d="M142.1232,188.7007c-.2119-.1431-.377-.3491-.4951-.6177-.1182-.2681-.1777-.584-.1777-.9473s.0596-.6792,.1777-.9473c.1182-.2686,.2832-.4746,.4951-.6177,.2119-.1436,.4521-.2148,.7227-.2148,.2695,0,.5107,.0713,.7227,.2148,.2119,.1431,.377,.3491,.4971,.6177,.1201,.2681,.1807,.584,.1807,.9473s-.0605,.6792-.1807,.9473c-.1201,.2686-.2852,.4746-.4971,.6177-.2119,.1436-.4531,.2148-.7227,.2148-.2705,0-.5107-.0713-.7227-.2148Zm1.2598-.2852c.1553-.1133,.2764-.2778,.3633-.4946,.0859-.2168,.1299-.4785,.1299-.7852s-.0439-.5684-.1299-.7852c-.0869-.2163-.208-.3813-.3633-.4946-.1543-.1133-.334-.1704-.5371-.1704s-.3828,.0571-.5371,.1704c-.1553,.1133-.2764,.2783-.3633,.4946-.0859,.2168-.1299,.4785-.1299,.7852s.0439,.5684,.1299,.7852c.0869,.2168,.208,.3813,.3633,.4946,.1543,.1138,.334,.1704,.5371,.1704s.3828-.0566,.5371-.1704Z"/><path d="M145.6857,185.3857v3.5h-.3594v-3.1802h-.8252v-.3198h1.1846Z"/><path d="M148.9454,185.3857v.2549l-1.4648,3.2451h-.3896l1.4395-3.1802h-1.7998v.6553h-.3545v-.9751h2.5693Z"/></g><g><path d="M167.5724,188.5659v.3198h-2.4551v-.2549l1.4551-1.4253c.1836-.1797,.3076-.3354,.373-.4673,.0645-.1318,.0977-.2642,.0977-.3975,0-.2065-.0713-.3677-.2129-.4824-.1416-.1152-.3438-.1729-.6074-.1729-.4102,0-.7285,.1304-.9551,.3901l-.2549-.2197c.1367-.1602,.3105-.2837,.5225-.3701,.2119-.0869,.4512-.1299,.7178-.1299,.3564,0,.6387,.084,.8477,.2524,.208,.168,.3125,.3989,.3125,.6924,0,.1802-.04,.3535-.1201,.52s-.2324,.3584-.4551,.5747l-1.1904,1.1704h1.9248Z"/><path d="M168.6505,188.7007c-.2119-.1431-.377-.3491-.4951-.6177-.1182-.2681-.1777-.584-.1777-.9473s.0596-.6792,.1777-.9473c.1182-.2686,.2832-.4746,.4951-.6177,.2109-.1436,.4521-.2148,.7217-.2148,.2705,0,.5117,.0713,.7227,.2148,.2119,.1431,.3779,.3491,.498,.6177,.1201,.2681,.1797,.584,.1797,.9473s-.0596,.6792-.1797,.9473c-.1201,.2686-.2861,.4746-.498,.6177-.2109,.1436-.4521,.2148-.7227,.2148-.2695,0-.5107-.0713-.7217-.2148Zm1.2598-.2852c.1553-.1133,.2754-.2778,.3623-.4946s.1299-.4785,.1299-.7852-.043-.5684-.1299-.7852c-.0869-.2163-.207-.3813-.3623-.4946s-.334-.1704-.5381-.1704c-.2031,0-.3818,.0571-.5371,.1704s-.2754,.2783-.3623,.4946c-.0869,.2168-.1299,.4785-.1299,.7852s.043,.5684,.1299,.7852,.207,.3813,.3623,.4946c.1553,.1138,.334,.1704,.5371,.1704,.2041,0,.3828-.0566,.5381-.1704Z"/><path d="M172.213,185.3857v3.5h-.3604v-3.1802h-.8252v-.3198h1.1855Z"/><path d="M175.5148,187.3809c.1182,.1465,.1777,.3232,.1777,.5298,0,.2036-.0547,.3809-.165,.5327-.1104,.1514-.2676,.2681-.4727,.3501-.2051,.0815-.4453,.1221-.7227,.1221-.4199,0-.75-.0898-.9893-.27-.2402-.1797-.3604-.4248-.3604-.7349,0-.21,.0576-.3872,.1729-.5322,.1143-.145,.2822-.2544,.502-.3276-.1797-.0698-.3164-.1709-.4102-.3027-.0928-.1313-.1396-.2871-.1396-.4673,0-.2832,.1104-.5083,.332-.6748,.2217-.167,.5195-.25,.8926-.25,.2471,0,.4629,.0371,.6475,.1123,.1855,.0752,.3291,.1826,.4326,.3223,.1035,.1401,.1553,.3037,.1553,.4902,0,.1802-.0479,.3359-.1445,.4673-.0967,.1318-.2354,.2329-.415,.3027,.2197,.0732,.3887,.1831,.5068,.3301Zm-.4551,1.04c.1758-.127,.2627-.2983,.2627-.5151s-.0869-.3877-.2627-.5127c-.1748-.125-.417-.1875-.7275-.1875-.3066,0-.5469,.0625-.7217,.1875-.1758,.125-.2627,.2959-.2627,.5127,0,.2202,.0859,.3926,.2598,.5176,.1729,.125,.415,.1875,.7246,.1875,.3105,0,.5527-.0635,.7275-.1899Zm-1.3623-1.6699c.1533,.1133,.3652,.1699,.6348,.1699,.2705,0,.4824-.0566,.6377-.1699s.2324-.2651,.2324-.4551c0-.1968-.0791-.3516-.2373-.4653-.1582-.1133-.3691-.1699-.6328-.1699-.2666,0-.4775,.0566-.6318,.1699-.1553,.1138-.2324,.2671-.2324,.46,0,.1934,.0762,.3472,.2295,.4604Z"/></g><g><path d="M194.5011,188.5659v.3198h-2.4551v-.2549l1.4551-1.4253c.1836-.1797,.3076-.3354,.3721-.4673,.0654-.1318,.0977-.2642,.0977-.3975,0-.2065-.0703-.3677-.2119-.4824-.1426-.1152-.3447-.1729-.6084-.1729-.4092,0-.7275,.1304-.9541,.3901l-.2559-.2197c.1367-.1602,.3115-.2837,.5225-.3701,.2119-.0869,.4512-.1299,.7178-.1299,.3564,0,.6396,.084,.8477,.2524,.208,.168,.3125,.3989,.3125,.6924,0,.1802-.04,.3535-.1201,.52s-.2314,.3584-.4551,.5747l-1.1895,1.1704h1.9248Z"/><path d="M195.5782,188.7007c-.2119-.1431-.377-.3491-.4951-.6177-.1182-.2681-.1777-.584-.1777-.9473s.0596-.6792,.1777-.9473c.1182-.2686,.2832-.4746,.4951-.6177,.2119-.1436,.4521-.2148,.7227-.2148,.2695,0,.5107,.0713,.7227,.2148,.2119,.1431,.377,.3491,.4971,.6177,.1201,.2681,.1807,.584,.1807,.9473s-.0605,.6792-.1807,.9473c-.1201,.2686-.2852,.4746-.4971,.6177-.2119,.1436-.4531,.2148-.7227,.2148-.2705,0-.5107-.0713-.7227-.2148Zm1.2598-.2852c.1553-.1133,.2764-.2778,.3633-.4946,.0859-.2168,.1299-.4785,.1299-.7852s-.0439-.5684-.1299-.7852c-.0869-.2163-.208-.3813-.3633-.4946-.1543-.1133-.334-.1704-.5371-.1704s-.3828,.0571-.5371,.1704c-.1553,.1133-.2764,.2783-.3633,.4946-.0859,.2168-.1299,.4785-.1299,.7852s.0439,.5684,.1299,.7852c.0869,.2168,.208,.3813,.3633,.4946,.1543,.1138,.334,.1704,.5371,.1704s.3828-.0566,.5371-.1704Z"/><path d="M199.1407,185.3857v3.5h-.3594v-3.1802h-.8252v-.3198h1.1846Z"/><path d="M202.0861,185.8135c.2461,.3047,.3701,.7358,.3701,1.2925,0,.3896-.0674,.7197-.2002,.9897-.1338,.27-.3203,.4741-.5605,.6123-.2393,.1387-.5195,.2075-.8398,.2075-.3467,0-.623-.063-.8301-.1899l.1455-.29c.166,.1104,.3926,.165,.6797,.165,.3867,0,.6904-.1226,.9102-.3672,.2197-.2451,.3301-.6011,.3301-1.0679,0-.0864-.0049-.1816-.0156-.2847-.0859,.1899-.2246,.3374-.4141,.4424-.1904,.105-.4092,.1577-.6553,.1577-.2305,0-.4346-.0435-.6123-.1304-.1787-.0864-.3184-.209-.418-.3672s-.1504-.3428-.1504-.5527c0-.2134,.0518-.4014,.1553-.5649,.1035-.1631,.2461-.2891,.4277-.3774s.3857-.1323,.6123-.1323c.4639,0,.8184,.1523,1.0654,.4575Zm-.5576,1.2622c.1348-.0664,.2402-.1582,.3174-.2749,.0762-.1167,.1152-.2466,.1152-.3901,0-.1333-.0361-.2563-.1074-.3701-.0723-.1133-.1777-.2046-.3174-.2749-.1406-.0698-.3076-.105-.5-.105-.2539,0-.46,.0693-.6182,.2075-.1582,.1387-.2373,.3228-.2373,.5527s.0791,.4131,.2373,.5498,.373,.2051,.6426,.2051c.1768,0,.333-.0332,.4678-.1001Z"/></g><g><path d="M220.7023,188.5659v.3198h-2.4551v-.2549l1.4551-1.4253c.1836-.1797,.3076-.3354,.3721-.4673,.0654-.1318,.0977-.2642,.0977-.3975,0-.2065-.0703-.3677-.2119-.4824-.1426-.1152-.3447-.1729-.6084-.1729-.4092,0-.7275,.1304-.9541,.3901l-.2559-.2197c.1367-.1602,.3115-.2837,.5225-.3701,.2119-.0869,.4512-.1299,.7178-.1299,.3564,0,.6396,.084,.8477,.2524,.208,.168,.3125,.3989,.3125,.6924,0,.1802-.04,.3535-.1201,.52s-.2314,.3584-.4551,.5747l-1.1895,1.1704h1.9248Z"/><path d="M221.7794,188.7007c-.2119-.1431-.377-.3491-.4951-.6177-.1182-.2681-.1777-.584-.1777-.9473s.0596-.6792,.1777-.9473c.1182-.2686,.2832-.4746,.4951-.6177,.2119-.1436,.4521-.2148,.7227-.2148,.2695,0,.5107,.0713,.7227,.2148,.2119,.1431,.377,.3491,.4971,.6177,.1201,.2681,.1807,.584,.1807,.9473s-.0605,.6792-.1807,.9473c-.1201,.2686-.2852,.4746-.4971,.6177-.2119,.1436-.4531,.2148-.7227,.2148-.2705,0-.5107-.0713-.7227-.2148Zm1.2598-.2852c.1553-.1133,.2764-.2778,.3633-.4946,.0859-.2168,.1299-.4785,.1299-.7852s-.0439-.5684-.1299-.7852c-.0869-.2163-.208-.3813-.3633-.4946-.1543-.1133-.334-.1704-.5371-.1704s-.3828,.0571-.5371,.1704c-.1553,.1133-.2764,.2783-.3633,.4946-.0859,.2168-.1299,.4785-.1299,.7852s.0439,.5684,.1299,.7852c.0869,.2168,.208,.3813,.3633,.4946,.1543,.1138,.334,.1704,.5371,.1704s.3828-.0566,.5371-.1704Z"/><path d="M226.7618,188.5659v.3198h-2.4551v-.2549l1.4551-1.4253c.1836-.1797,.3076-.3354,.373-.4673,.0645-.1318,.0977-.2642,.0977-.3975,0-.2065-.0713-.3677-.2129-.4824-.1416-.1152-.3438-.1729-.6074-.1729-.4102,0-.7285,.1304-.9551,.3901l-.2549-.2197c.1367-.1602,.3105-.2837,.5225-.3701,.2119-.0869,.4512-.1299,.7178-.1299,.3564,0,.6387,.084,.8477,.2524,.208,.168,.3125,.3989,.3125,.6924,0,.1802-.04,.3535-.1201,.52s-.2324,.3584-.4551,.5747l-1.1904,1.1704h1.9248Z"/><path d="M227.84,188.7007c-.2119-.1431-.377-.3491-.4951-.6177-.1182-.2681-.1777-.584-.1777-.9473s.0596-.6792,.1777-.9473c.1182-.2686,.2832-.4746,.4951-.6177,.2109-.1436,.4521-.2148,.7217-.2148,.2705,0,.5117,.0713,.7227,.2148,.2119,.1431,.3779,.3491,.498,.6177,.1201,.2681,.1797,.584,.1797,.9473s-.0596,.6792-.1797,.9473c-.1201,.2686-.2861,.4746-.498,.6177-.2109,.1436-.4521,.2148-.7227,.2148-.2695,0-.5107-.0713-.7217-.2148Zm1.2598-.2852c.1553-.1133,.2754-.2778,.3623-.4946s.1299-.4785,.1299-.7852-.043-.5684-.1299-.7852c-.0869-.2163-.207-.3813-.3623-.4946s-.334-.1704-.5381-.1704c-.2031,0-.3818,.0571-.5371,.1704s-.2754,.2783-.3623,.4946c-.0869,.2168-.1299,.4785-.1299,.7852s.043,.5684,.1299,.7852,.207,.3813,.3623,.4946c.1553,.1138,.334,.1704,.5371,.1704,.2041,0,.3828-.0566,.5381-.1704Z"/></g><g><path d="M248.4279,188.5659v.3198h-2.4551v-.2549l1.4551-1.4253c.1836-.1797,.3076-.3354,.3721-.4673,.0654-.1318,.0977-.2642,.0977-.3975,0-.2065-.0703-.3677-.2119-.4824-.1426-.1152-.3447-.1729-.6084-.1729-.4092,0-.7275,.1304-.9541,.3901l-.2559-.2197c.1367-.1602,.3115-.2837,.5225-.3701,.2119-.0869,.4512-.1299,.7178-.1299,.3564,0,.6396,.084,.8477,.2524,.208,.168,.3125,.3989,.3125,.6924,0,.1802-.04,.3535-.1201,.52s-.2314,.3584-.4551,.5747l-1.1895,1.1704h1.9248Z"/><path d="M249.5001,188.7007c-.2119-.1431-.377-.3491-.4951-.6177-.1182-.2681-.1777-.584-.1777-.9473s.0596-.6792,.1777-.9473c.1182-.2686,.2832-.4746,.4951-.6177,.2119-.1436,.4521-.2148,.7227-.2148,.2695,0,.5107,.0713,.7227,.2148,.2119,.1431,.377,.3491,.4971,.6177,.1201,.2681,.1807,.584,.1807,.9473s-.0605,.6792-.1807,.9473c-.1201,.2686-.2852,.4746-.4971,.6177-.2119,.1436-.4531,.2148-.7227,.2148-.2705,0-.5107-.0713-.7227-.2148Zm1.2598-.2852c.1553-.1133,.2764-.2778,.3633-.4946,.0859-.2168,.1299-.4785,.1299-.7852s-.0439-.5684-.1299-.7852c-.0869-.2163-.208-.3813-.3633-.4946-.1543-.1133-.334-.1704-.5371-.1704s-.3828,.0571-.5371,.1704c-.1553,.1133-.2764,.2783-.3633,.4946-.0859,.2168-.1299,.4785-.1299,.7852s.0439,.5684,.1299,.7852c.0869,.2168,.208,.3813,.3633,.4946,.1543,.1138,.334,.1704,.5371,.1704s.3828-.0566,.5371-.1704Z"/><path d="M254.4777,188.5659v.3198h-2.4551v-.2549l1.4551-1.4253c.1836-.1797,.3076-.3354,.3721-.4673,.0654-.1318,.0977-.2642,.0977-.3975,0-.2065-.0703-.3677-.2119-.4824-.1426-.1152-.3447-.1729-.6084-.1729-.4092,0-.7275,.1304-.9541,.3901l-.2559-.2197c.1367-.1602,.3115-.2837,.5225-.3701,.2119-.0869,.4512-.1299,.7178-.1299,.3564,0,.6396,.084,.8477,.2524,.208,.168,.3125,.3989,.3125,.6924,0,.1802-.04,.3535-.1201,.52s-.2314,.3584-.4551,.5747l-1.1895,1.1704h1.9248Z"/><path d="M255.8478,185.3857v3.5h-.3604v-3.1802h-.8252v-.3198h1.1855Z"/></g></svg>