<?xml version="1.0" encoding="UTF-8"?><svg id="Layer_1" xmlns="http://www.w3.org/2000/svg" viewBox="0 0 339.9832 205.3148"><defs><style>.cls-1,.cls-2{fill:#c5c5c4;}.cls-3,.cls-4{fill:#e30510;}.cls-2{font-family:ArialMT, Arial;font-size:4.577px;letter-spacing:.0019em;}.cls-5{font-family:Montserrat-Regular, Montserrat;}.cls-5,.cls-6,.cls-4,.cls-7{font-size:5px;}.cls-8{stroke-dasharray:0 0 0 1.9917;}.cls-8,.cls-9{stroke:#858585;stroke-linecap:round;stroke-linejoin:round;}.cls-8,.cls-9,.cls-10,.cls-11{fill:none;}.cls-8,.cls-9,.cls-11{stroke-width:.5px;}.cls-12{opacity:.5;}.cls-6,.cls-4{font-family:Montserrat-Medium, Montserrat;}.cls-6,.cls-7{fill:#222;}.cls-7{font-family:ProximaNova-Semibold, 'Proxima Nova';font-weight:700;}.cls-10{stroke:#222221;stroke-width:.25px;}.cls-10,.cls-11{stroke-miterlimit:10;}.cls-11{stroke:#0f0f0f;}</style></defs><g class="cls-12"><g><line class="cls-9" x1="12.3823" y1="187.0665" x2="12.3823" y2="187.0665"/><line class="cls-8" x1="12.3823" y1="185.0748" x2="12.3823" y2="18.7653"/><line class="cls-9" x1="12.3823" y1="17.7694" x2="12.3823" y2="17.7694"/></g><g><line class="cls-9" x1="38.5245" y1="187.0665" x2="38.5245" y2="187.0665"/><line class="cls-8" x1="38.5245" y1="185.0748" x2="38.5245" y2="18.7653"/><line class="cls-9" x1="38.5245" y1="17.7694" x2="38.5245" y2="17.7694"/></g><g><line class="cls-9" x1="64.6666" y1="187.0665" x2="64.6666" y2="187.0665"/><line class="cls-8" x1="64.6666" y1="185.0748" x2="64.6666" y2="18.7653"/><line class="cls-9" x1="64.6666" y1="17.7694" x2="64.6666" y2="17.7694"/></g><g><line class="cls-9" x1="90.8088" y1="187.0665" x2="90.8088" y2="187.0665"/><line class="cls-8" x1="90.8088" y1="185.0748" x2="90.8088" y2="18.7653"/><line class="cls-9" x1="90.8088" y1="17.7694" x2="90.8088" y2="17.7694"/></g><g><line class="cls-9" x1="116.951" y1="187.0665" x2="116.951" y2="187.0665"/><line class="cls-8" x1="116.951" y1="185.0748" x2="116.951" y2="18.7653"/><line class="cls-9" x1="116.951" y1="17.7694" x2="116.951" y2="17.7694"/></g><g><line class="cls-9" x1="143.0931" y1="187.0665" x2="143.0931" y2="187.0665"/><line class="cls-8" x1="143.0931" y1="185.0748" x2="143.0931" y2="18.7653"/><line class="cls-9" x1="143.0931" y1="17.7694" x2="143.0931" y2="17.7694"/></g><g><line class="cls-9" x1="169.2353" y1="187.0665" x2="169.2353" y2="187.0665"/><line class="cls-8" x1="169.2353" y1="185.0748" x2="169.2353" y2="18.7653"/><line class="cls-9" x1="169.2353" y1="17.7694" x2="169.2353" y2="17.7694"/></g><g><line class="cls-9" x1="195.3775" y1="187.0665" x2="195.3775" y2="187.0665"/><line class="cls-8" x1="195.3775" y1="185.0748" x2="195.3775" y2="18.7653"/><line class="cls-9" x1="195.3775" y1="17.7694" x2="195.3775" y2="17.7694"/></g></g><text class="cls-7" transform="translate(.0013 5.6504)"><tspan x="0" y="0">ДИНАМИКА РЕАЛЬНОГО ВВП РОССИИ</tspan></text><text class="cls-2" transform="translate(227.8743 36.5811)"><tspan x="0" y="0">%</tspan></text><text class="cls-5" transform="translate(6.7043 197.1076)"><tspan x="0" y="0">2014</tspan></text><text class="cls-5" transform="translate(33.2119 197.1074)"><tspan x="0" y="0">2015</tspan></text><text class="cls-5" transform="translate(59.2643 197.1076)"><tspan x="0" y="0">2016</tspan></text><text class="cls-5" transform="translate(85.4483 197.1074)"><tspan x="0" y="0">2017</tspan></text><text class="cls-5" transform="translate(111.5762 197.1076)"><tspan x="0" y="0">2018</tspan></text><text class="cls-5" transform="translate(137.7297 197.1076)"><tspan x="0" y="0">2019</tspan></text><text class="cls-5" transform="translate(162.9943 197.1076)"><tspan x="0" y="0">2020</tspan></text><text class="cls-5" transform="translate(189.8505 197.1076)"><tspan x="0" y="0">2021</tspan></text><g><rect class="cls-1" x="157.656" y="121.0665" width="24.1091" height="43.8452"/><text class="cls-6" transform="translate(163.9924 171.5432) scale(1.1547 1)"><tspan x="0" y="0">−2,7</tspan></text><line class="cls-11" x1="181.7651" y1="164.9117" x2="157.6561" y2="164.9117"/></g><g><g><rect class="cls-3" x="183.804" y="42.858" width="24.1091" height="78.2085"/><text class="cls-4" transform="translate(191.5801 40.5798) scale(1.1547 1)"><tspan x="0" y="0">4,7</tspan></text></g><line class="cls-11" x1="207.913" y1="42.858" x2="183.804" y2="42.858"/></g><g><rect class="cls-1" x=".5261" y="109.6992" width="24.1091" height="11.3673"/><text class="cls-6" transform="translate(8.3492 105.8019) scale(1.1547 1)"><tspan x="0" y="0">0,7</tspan></text><line class="cls-11" x1="24.7113" y1="109.6992" x2=".6023" y2="109.6992"/></g><g><rect class="cls-1" x="26.7462" y="121.0665" width="24.1091" height="32.4779"/><text class="cls-6" transform="translate(36.0171 159.4343) scale(1.1547 1)"><tspan x="0" y="0">−2</tspan></text><line class="cls-11" x1="50.8552" y1="153.5444" x2="26.7462" y2="153.5444"/></g><g><rect class="cls-1" x="52.9281" y="117.8187" width="24.1091" height="3.2478"/><text class="cls-6" transform="translate(62.1255 113.3254) scale(1.1547 1)"><tspan x="0" y="0">0,2</tspan></text><line class="cls-11" x1="77.0372" y1="117.8187" x2="52.9281" y2="117.8187"/></g><g><rect class="cls-1" x="79.1101" y="95.0842" width="24.1091" height="25.9823"/><text class="cls-6" transform="translate(87.66 91.7312) scale(1.1547 1)"><tspan x="0" y="0">1,6</tspan></text><line class="cls-11" x1="103.2192" y1="95.0842" x2="79.1101" y2="95.0842"/></g><g><rect class="cls-1" x="105.2921" y="75.5974" width="24.1091" height="45.4691"/><text class="cls-6" transform="translate(112.8117 71.4836) scale(1.1547 1)"><tspan x="0" y="0">2,8</tspan></text><line class="cls-11" x1="129.4012" y1="75.451" x2="105.2921" y2="75.451"/></g><g><text class="cls-6" transform="translate(139.1957 81.7199) scale(1.1547 1)"><tspan x="0" y="0">2,2</tspan></text><g><rect class="cls-1" x="131.4741" y="85.3408" width="24.1091" height="35.7257"/><line class="cls-11" x1="155.5831" y1="85.3408" x2="131.4741" y2="85.3408"/></g></g><line class="cls-10" x1=".5261" y1="121.0665" x2="201.913" y2="121.0665"/></svg>