<?xml version="1.0" encoding="UTF-8"?><svg id="Layer_1" xmlns="http://www.w3.org/2000/svg" viewBox="0 0 339.9832 205.3148"><defs><style>.cls-1{stroke-dasharray:0 0 0 2;}.cls-1,.cls-2,.cls-3,.cls-4{stroke-linecap:round;}.cls-1,.cls-2,.cls-3,.cls-4,.cls-5{fill:none;}.cls-1,.cls-3{opacity:.5;stroke:#858585;stroke-linejoin:round;}.cls-1,.cls-4,.cls-5{stroke-width:.5px;}.cls-6{letter-spacing:-.0089em;}.cls-7{fill:#f4f4f4;}.cls-8{fill:#e30510;}.cls-9{fill:#585857;}.cls-2{stroke-width:.3px;}.cls-2,.cls-4{stroke:#000;stroke-linejoin:bevel;}.cls-3{stroke-width:.25px;}.cls-10{letter-spacing:-.009em;}.cls-11{font-size:4.9429px;}.cls-11,.cls-12,.cls-13{font-family:Montserrat-Regular, Montserrat;}.cls-12{fill:#858585;font-size:5.2376px;}.cls-14{letter-spacing:-.01em;}.cls-15{fill:#222;font-family:Montserrat-SemiBold, Montserrat;font-size:5px;letter-spacing:.004em;}.cls-13{font-size:6.1105px;}.cls-5{stroke:#e30510;stroke-miterlimit:10;}</style></defs><rect class="cls-7" x=".2057" width="339.7775" height="205.257"/><text class="cls-15" transform="translate(.0014 5.6503)"><tspan x="0" y="0">ИНДЕКС ПОТРЕБИТЕЛЬСКИХ ЦЕН</tspan></text><line class="cls-1" x1="2.8105" y1="169.4554" x2="2.8105" y2="19.6054"/><line class="cls-1" x1="11.6259" y1="169.4554" x2="11.6259" y2="19.6054"/><line class="cls-1" x1="20.4405" y1="169.4554" x2="20.4405" y2="19.6054"/><line class="cls-1" x1="29.2559" y1="178.9137" x2="29.2559" y2="26.6057"/><line class="cls-1" x1="38.0712" y1="169.4554" x2="38.0712" y2="19.6054"/><line class="cls-1" x1="46.8861" y1="169.4554" x2="46.8861" y2="19.6054"/><line class="cls-1" x1="55.7014" y1="169.4554" x2="55.7014" y2="19.6054"/><line class="cls-1" x1="64.5168" y1="178.9137" x2="64.5168" y2="26.6057"/><line class="cls-1" x1="73.3317" y1="169.4554" x2="73.3317" y2="19.6054"/><line class="cls-1" x1="82.147" y1="169.4554" x2="82.147" y2="19.6054"/><line class="cls-1" x1="90.9621" y1="169.4554" x2="90.9621" y2="19.6054"/><line class="cls-1" x1="99.777" y1="178.9137" x2="99.777" y2="26.6057"/><line class="cls-1" x1="108.5924" y1="169.4554" x2="108.5924" y2="19.6054"/><line class="cls-1" x1="117.4077" y1="169.4554" x2="117.4077" y2="19.6054"/><line class="cls-1" x1="126.2226" y1="169.4554" x2="126.2226" y2="19.6054"/><line class="cls-1" x1="135.0379" y1="178.9137" x2="135.0379" y2="26.6057"/><line class="cls-1" x1="143.8533" y1="169.4554" x2="143.8533" y2="19.6054"/><line class="cls-1" x1="152.6682" y1="169.4554" x2="152.6682" y2="19.6054"/><line class="cls-1" x1="161.4833" y1="169.4554" x2="161.4833" y2="19.6054"/><line class="cls-1" x1="170.2986" y1="178.9137" x2="170.2986" y2="26.6057"/><line class="cls-1" x1="179.1135" y1="169.4554" x2="179.1135" y2="50.6054"/><line class="cls-1" x1="187.9289" y1="169.4554" x2="187.9289" y2="50.6054"/><line class="cls-1" x1="196.7442" y1="169.4554" x2="196.7442" y2="49.6054"/><line class="cls-1" x1="205.559" y1="178.9137" x2="205.559" y2="56.6057"/><line class="cls-1" x1="214.3744" y1="169.4554" x2="214.3744" y2="49.6054"/><line class="cls-1" x1="223.1898" y1="169.4554" x2="223.1898" y2="49.6054"/><line class="cls-1" x1="232.0045" y1="169.4554" x2="232.0045" y2="49.6054"/><line class="cls-1" x1="240.8198" y1="178.9137" x2="240.8198" y2="56.6057"/><line class="cls-1" x1="249.6351" y1="169.4554" x2="249.6351" y2="49.6054"/><line class="cls-1" x1="258.4499" y1="169.4554" x2="258.4499" y2="49.6054"/><line class="cls-1" x1="267.2654" y1="169.4554" x2="267.2654" y2="49.6054"/><line class="cls-1" x1="276.0807" y1="178.9137" x2="276.0807" y2="56.6057"/><polyline class="cls-4" points="2.998 115.4123 11.7868 109.1053 20.5766 108.3963 29.3655 97.9793 38.1552 61.5543 46.9441 63.6093 55.7338 64.2473 64.5227 70.6963 73.3116 104.8533 81.9707 110.1683 90.7595 113.1443 99.6799 118.9553 108.4688 125.0813 117.2586 127.6723 126.0474 132.1373 134.8363 136.6013 143.6261 138.7273 152.2842 137.8063 161.2047 134.6883 169.9936 129.7983 178.7833 122.5703 187.5722 123.2783 196.2304 127.0343 205.1508 131.5703 213.9396 137.4523 222.7294 134.1213 231.5183 131.5703 240.308 126.7513 249.0969 120.5153 257.8866 117.8223 266.6755 113.2863 275.4644 105.4203"/><polyline class="cls-5" points="2.998 110.7356 11.7868 98.6886 20.5766 92.8776 29.3655 77.8536 38.1552 27.8926 46.8134 38.7356 55.6032 51.2786 64.5227 63.4676 73.3116 112.2946 82.232 119.2396 90.8902 116.2626 99.6799 122.4996 108.4688 130.0106 117.2586 128.3106 126.0474 135.0426 134.8363 143.9716 143.6261 145.6726 152.2842 148.6486 161.074 142.1296 169.9936 131.2866 178.7833 119.1686 187.5722 117.8216 196.3611 122.8396 205.1508 131.0036 213.9396 139.6766 222.7294 131.3426 231.5183 127.3746 240.308 119.6646 249.0969 110.0266 257.8866 110.7636 266.6755 106.3416 275.4644 91.6406"/><line class="cls-2" x1="3.1118" y1="151.2473" x2="276.2238" y2="151.2473"/><line class="cls-3" x1="29.2559" y1="198.7155" x2="29.2559" y2="19.6057"/><line class="cls-3" x1="64.5168" y1="198.7155" x2="64.5168" y2="19.6057"/><line class="cls-3" x1="99.777" y1="198.7155" x2="99.777" y2="19.6057"/><line class="cls-3" x1="135.0379" y1="198.7155" x2="135.0379" y2="19.6057"/><line class="cls-3" x1="170.2986" y1="198.7155" x2="170.2986" y2="19.6057"/><line class="cls-3" x1="205.559" y1="198.7155" x2="205.559" y2="49.6057"/><line class="cls-3" x1="240.8198" y1="198.7155" x2="240.8198" y2="49.6057"/><line class="cls-3" x1="276.0807" y1="198.7155" x2="276.0807" y2="49.6057"/><path class="cls-8" d="M178.2028,21.6218c0-1.1094,.899-2.0084,2.0084-2.0084h6.8271c1.1094,0,2.0084,.899,2.0084,2.0084s-.899,2.0084-2.0084,2.0084h-6.8271c-1.1094,0-2.0084-.899-2.0084-2.0084"/><text class="cls-11" transform="translate(192.711 22.8649)"><tspan x="0" y="0">Инфляция на продукты</tspan><tspan x="0" y="5.9316">питания, год к году, %</tspan></text><path class="cls-9" d="M178.2028,36.1239c0-1.1094,.899-2.0084,2.0084-2.0084h6.8271c1.1094,0,2.0084,.899,2.0084,2.0084s-.899,2.0084-2.0084,2.0084h-6.8271c-1.1094,0-2.0084-.899-2.0084-2.0084"/><text class="cls-11" transform="translate(192.711 37.3669)"><tspan x="0" y="0">Инфляция, год к году, %</tspan></text><rect class="cls-7" x="1.1191" y="172.004" width="278.7094" height="17.0824"/><text class="cls-12" transform="translate(5.0467 185.1754) rotate(-90)"><tspan x="0" y="0">1кв.</tspan></text><text class="cls-12" transform="translate(13.8197 186.1285) rotate(-90)"><tspan x="0" y="0">2кв.</tspan></text><text class="cls-12" transform="translate(22.5926 186.3434) rotate(-90)"><tspan x="0" y="0">3кв.</tspan></text><text class="cls-12" transform="translate(31.3661 186.443) rotate(-90)"><tspan x="0" y="0">4кв.</tspan></text><text class="cls-12" transform="translate(40.1385 185.1754) rotate(-90)"><tspan x="0" y="0">1кв.</tspan></text><text class="cls-12" transform="translate(48.912 186.1285) rotate(-90)"><tspan x="0" y="0">2кв.</tspan></text><text class="cls-12" transform="translate(57.6844 186.3434) rotate(-90)"><tspan x="0" y="0">3кв.</tspan></text><text class="cls-12" transform="translate(66.4579 186.443) rotate(-90)"><tspan x="0" y="0">4кв.</tspan></text><text class="cls-12" transform="translate(75.2308 185.1754) rotate(-90)"><tspan x="0" y="0">1кв.</tspan></text><text class="cls-12" transform="translate(84.0038 186.1285) rotate(-90)"><tspan x="0" y="0">2кв.</tspan></text><text class="cls-12" transform="translate(92.7767 186.3424) rotate(-90)"><tspan x="0" y="0">3кв.</tspan></text><text class="cls-12" transform="translate(101.5497 186.443) rotate(-90)"><tspan x="0" y="0">4кв.</tspan></text><text class="cls-12" transform="translate(110.3226 185.1754) rotate(-90)"><tspan x="0" y="0">1кв.</tspan></text><text class="cls-12" transform="translate(119.0956 186.1285) rotate(-90)"><tspan x="0" y="0">2кв.</tspan></text><text class="cls-12" transform="translate(127.8685 186.3434) rotate(-90)"><tspan x="0" y="0">3кв.</tspan></text><text class="cls-12" transform="translate(136.6415 186.443) rotate(-90)"><tspan x="0" y="0">4кв.</tspan></text><text class="cls-12" transform="translate(145.4144 185.1754) rotate(-90)"><tspan x="0" y="0">1кв.</tspan></text><text class="cls-12" transform="translate(154.1874 186.1285) rotate(-90)"><tspan x="0" y="0">2кв.</tspan></text><text class="cls-12" transform="translate(162.9603 186.3434) rotate(-90)"><tspan x="0" y="0">3кв.</tspan></text><text class="cls-12" transform="translate(171.7333 186.443) rotate(-90)"><tspan x="0" y="0">4кв.</tspan></text><text class="cls-12" transform="translate(180.5062 185.1754) rotate(-90)"><tspan x="0" y="0">1кв.</tspan></text><text class="cls-12" transform="translate(189.2792 186.1285) rotate(-90)"><tspan x="0" y="0">2кв.</tspan></text><text class="cls-12" transform="translate(198.0521 186.3434) rotate(-90)"><tspan x="0" y="0">3кв.</tspan></text><text class="cls-12" transform="translate(206.8256 186.444) rotate(-90)"><tspan x="0" y="0">4кв.</tspan></text><text class="cls-12" transform="translate(215.5985 185.1754) rotate(-90)"><tspan x="0" y="0">1кв.</tspan></text><text class="cls-12" transform="translate(224.371 186.1276) rotate(-90)"><tspan x="0" y="0">2кв.</tspan></text><text class="cls-12" transform="translate(233.1444 186.3434) rotate(-90)"><tspan x="0" y="0">3кв.</tspan></text><text class="cls-12" transform="translate(241.9174 186.443) rotate(-90)"><tspan x="0" y="0">4кв.</tspan></text><text class="cls-12" transform="translate(250.6903 185.1754) rotate(-90)"><tspan x="0" y="0">1кв.</tspan></text><text class="cls-12" transform="translate(259.4633 186.1285) rotate(-90)"><tspan x="0" y="0">2кв.</tspan></text><text class="cls-12" transform="translate(268.2362 186.3414) rotate(-90)"><tspan x="0" y="0">3кв.</tspan></text><text class="cls-12" transform="translate(277.0092 186.441) rotate(-90)"><tspan x="0" y="0">4кв.</tspan></text><text class="cls-13" transform="translate(5.4418 198.6784)"><tspan class="cls-14" x="0" y="0">2</tspan><tspan class="cls-6" x="3.4097" y="0">01</tspan><tspan x="9.5508" y="0">4</tspan></text><text class="cls-13" transform="translate(40.7548 198.6784)"><tspan class="cls-10" x="0" y="0">201</tspan><tspan x="9.5566" y="0">5</tspan></text><text class="cls-13" transform="translate(75.8592 198.6784)"><tspan class="cls-10" x="0" y="0">201</tspan><tspan x="9.5566" y="0">6</tspan></text><text class="cls-13" transform="translate(111.3549 198.6784)"><tspan class="cls-10" x="0" y="0">201</tspan><tspan x="9.5566" y="0">7</tspan></text><text class="cls-13" transform="translate(146.1791 198.6784)"><tspan class="cls-10" x="0" y="0">201</tspan><tspan x="9.5566" y="0">8</tspan></text><text class="cls-13" transform="translate(181.3812 198.6784)"><tspan class="cls-10" x="0" y="0">201</tspan><tspan x="9.5566" y="0">9</tspan></text><text class="cls-13" transform="translate(215.8964 198.6784)"><tspan class="cls-10" x="0" y="0">202</tspan><tspan x="10.8218" y="0">0</tspan></text><text class="cls-13" transform="translate(251.8534 198.6784)"><tspan class="cls-10" x="0" y="0">20</tspan><tspan class="cls-14" x="7.4058" y="0">2</tspan><tspan x="10.8154" y="0">1</tspan></text></svg>