<?xml version="1.0" encoding="UTF-8"?><svg id="Layer_1" xmlns="http://www.w3.org/2000/svg" viewBox="0 0 339.9832 205.3148"><defs><style>.cls-1{fill:#c4c4c4;}.cls-2{fill:#e30510;}.cls-3{fill:#222;}.cls-4{fill:none;stroke:#000;stroke-linecap:round;stroke-linejoin:bevel;stroke-width:.3px;}</style></defs><g><path class="cls-3" d="M3.7062,5.6504l-.0049-2.3203-1.1504,1.9199h-.29l-1.1494-1.8896v2.29H.4962V2.1504h.5352l1.3848,2.3145,1.3701-2.3145h.5303l.0098,3.5h-.6201Z"/><path class="cls-3" d="M5.3312,2.1504h.6396v2.4844l1.8809-2.4844h.6045v3.5h-.6396V3.17l-1.8799,2.4805h-.6055V2.1504Z"/><path class="cls-3" d="M12.5665,2.1504v3.5h-.6504v-1.5h-1.8096v1.5h-.6504V2.1504h.6504v1.4443h1.8096v-1.4443h.6504Z"/><path class="cls-3" d="M13.5714,2.1504h.6396v2.4844l1.8799-2.4844h.6055v3.5h-.6406V3.17l-1.8799,2.4805h-.6045V2.1504Z"/><path class="cls-3" d="M20.9113,5.6504l-.0049-2.3203-1.1504,1.9199h-.29l-1.1494-1.8896v2.29h-.6152V2.1504h.5352l1.3848,2.3145,1.3701-2.3145h.5303l.0098,3.5h-.6201Z"/><path class="cls-3" d="M24.8517,4.8399h-1.75l-.3457,.8105h-.6699l1.5752-3.5h.6396l1.5801,3.5h-.6797l-.3496-.8105Zm-.2148-.5098l-.6602-1.5303-.6553,1.5303h1.3154Z"/><path class="cls-3" d="M29.4259,2.1504v3.5h-.6396V2.7002h-1.3799l-.0303,.875c-.0166,.4902-.0566,.8877-.1201,1.1924s-.165,.5371-.3047,.6953-.333,.2373-.5801,.2373c-.0869,0-.2051-.0166-.3555-.0498l.0459-.5654c.043,.0137,.0928,.0205,.1494,.0205,.2031,0,.3477-.1211,.4326-.3633,.085-.2412,.1377-.6221,.1572-1.1416l.0498-1.4502h2.5752Z"/><path class="cls-3" d="M33.0138,3.6172c.2246,.1885,.3379,.4678,.3379,.8379,0,.3867-.124,.6826-.3701,.8877-.2471,.2051-.5938,.3076-1.04,.3076h-1.5049V2.1504h.6396v1.1846h.9697c.4199,0,.7432,.0947,.9678,.2822Zm-.5176,1.3584c.1367-.1172,.2051-.2871,.2051-.5107,0-.4229-.2637-.6348-.79-.6348h-.835v1.3203h.835c.2529,0,.4482-.0586,.585-.1748Z"/><path class="cls-3" d="M37.1466,2.1504v3.5h-.6504v-1.5h-1.8096v1.5h-.6504V2.1504h.6504v1.4443h1.8096v-1.4443h.6504Z"/><path class="cls-3" d="M40.4659,4.8399h-1.75l-.3447,.8105h-.6699l1.5752-3.5h.6396l1.5801,3.5h-.6797l-.3506-.8105Zm-.2148-.5098l-.6602-1.5303-.6553,1.5303h1.3154Z"/><path class="cls-3" d="M44.7257,2.1504v3.5h-.6396v-.9756h-.9355l-.6494,.9756h-.6855l.75-1.0801c-.2432-.0898-.4307-.2324-.5625-.4277s-.1973-.4307-.1973-.707c0-.2666,.0605-.4971,.1797-.6904,.1201-.1934,.29-.3408,.5107-.4424,.2197-.1016,.4775-.1523,.7744-.1523h1.4551Zm-2.0469,.7344c-.1426,.124-.2129,.3037-.2129,.54,0,.2305,.0684,.4082,.2051,.5332s.335,.1875,.5947,.1875h.8203v-1.4453h-.7949c-.2666,0-.4707,.0615-.6123,.1846Z"/><path class="cls-3" d="M50.3458,5.6504l-.0049-2.3203-1.1504,1.9199h-.29l-1.1494-1.8896v2.29h-.6152V2.1504h.5352l1.3848,2.3145,1.3701-2.3145h.5303l.0098,3.5h-.6201Z"/><path class="cls-3" d="M54.5909,5.1055v.5449h-2.625V2.1504h2.5547v.5449h-1.9043v.9102h1.6895v.5352h-1.6895v.9648h1.9746Z"/><path class="cls-3" d="M55.9884,5.4678c-.2852-.1553-.5078-.3691-.6699-.6426s-.2422-.582-.2422-.9248c0-.3438,.0811-.6523,.2451-.9248,.1631-.2734,.3867-.4883,.6719-.6426,.2852-.1553,.6045-.2324,.958-.2324,.2861,0,.5479,.0498,.7852,.1494,.2363,.1006,.4365,.2451,.5996,.4355l-.4199,.3945c-.2539-.2734-.5654-.4102-.9355-.4102-.2393,0-.4541,.0527-.6445,.1582-.1904,.1045-.3379,.25-.4453,.4375-.1064,.1865-.1602,.3975-.1602,.6348,0,.2363,.0537,.4482,.1602,.6348,.1074,.1865,.2549,.332,.4453,.4375s.4053,.1572,.6445,.1572c.3701,0,.6816-.1377,.9355-.415l.4199,.4004c-.1631,.1895-.3643,.335-.6025,.4346-.2383,.1006-.501,.1504-.7871,.1504-.3535,0-.6729-.0771-.958-.2324Z"/><path class="cls-3" d="M61.6359,2.1504v3.5h-.6396v-.9756h-.9355l-.6494,.9756h-.6855l.75-1.0801c-.2432-.0898-.4307-.2324-.5625-.4277s-.1973-.4307-.1973-.707c0-.2666,.0605-.4971,.1797-.6904,.1201-.1934,.29-.3408,.5107-.4424,.2197-.1016,.4775-.1523,.7744-.1523h1.4551Zm-2.0469,.7344c-.1426,.124-.2129,.3037-.2129,.54,0,.2305,.0684,.4082,.2051,.5332s.335,.1875,.5947,.1875h.8203v-1.4453h-.7949c-.2666,0-.4707,.0615-.6123,.1846Z"/><path class="cls-3" d="M65.3712,2.1504v3.5h-.6455v-1.3203c-.3301,.123-.6436,.1855-.9404,.1855-.4463,0-.79-.1084-1.0322-.3232-.2412-.2148-.3623-.5234-.3623-.9268v-1.1152h.6445v1.0449c0,.2461,.0723,.4346,.2158,.5645,.1426,.1309,.3477,.1953,.6143,.1953,.3037,0,.5908-.0615,.8604-.1846v-1.6201h.6455Z"/><path class="cls-3" d="M69.4806,2.1504v3.5h-.6494v-1.5h-1.8105v1.5h-.6494V2.1504h.6494v1.4443h1.8105v-1.4443h.6494Z"/><path class="cls-3" d="M72.8009,4.8399h-1.75l-.3457,.8105h-.6699l1.5752-3.5h.6396l1.5801,3.5h-.6797l-.3496-.8105Zm-.2148-.5098l-.6602-1.5303-.6553,1.5303h1.3154Z"/><path class="cls-3" d="M77.0607,2.1504v3.5h-.6396v-.9756h-.9355l-.6494,.9756h-.6855l.75-1.0801c-.2432-.0898-.4307-.2324-.5625-.4277s-.1973-.4307-.1973-.707c0-.2666,.0605-.4971,.1797-.6904,.1201-.1934,.29-.3408,.5107-.4424,.2197-.1016,.4775-.1523,.7744-.1523h1.4551Zm-2.0469,.7344c-.1426,.124-.2129,.3037-.2129,.54,0,.2305,.0684,.4082,.2051,.5332s.335,.1875,.5947,.1875h.8203v-1.4453h-.7949c-.2666,0-.4707,.0615-.6123,.1846Z"/><path class="cls-3" d="M81.798,4.1475c.1182,.1484,.1777,.3223,.1777,.5225,0,.21-.0684,.3926-.2051,.5479s-.3193,.2744-.5479,.3574-.4775,.125-.7471,.125c-.2334,0-.4678-.0322-.7031-.0977-.2344-.0645-.4521-.1621-.6523-.292l.21-.4756c.1533,.1035,.3232,.1826,.5107,.2373,.1865,.0557,.3711,.083,.5547,.083,.2627,0,.4824-.0518,.6572-.1553s.2627-.2451,.2627-.4248c0-.1533-.0635-.2705-.1904-.3496-.126-.0801-.3018-.1201-.5244-.1201h-.8154v-.5107h.7656c.1924,0,.3447-.04,.4541-.1191,.1104-.0801,.165-.1885,.165-.3252,0-.1631-.0742-.29-.2217-.3799-.1484-.0908-.3379-.1357-.5684-.1357-.1562,0-.3184,.0225-.4844,.0684-.167,.0449-.3232,.1104-.4697,.1973l-.2051-.5254c.1797-.0967,.3701-.1689,.5723-.2178,.2012-.0479,.4023-.0723,.6025-.0723,.2598,0,.499,.04,.7178,.1201,.2178,.0801,.3916,.1943,.5225,.3428,.1299,.1484,.1943,.3223,.1943,.5225,0,.1729-.0469,.3252-.1396,.4551-.0938,.1299-.2217,.2295-.3848,.2998,.21,.0664,.374,.1738,.4922,.3223Z"/><path class="cls-3" d="M85.0509,4.8399h-1.75l-.3457,.8105h-.6699l1.5752-3.5h.6396l1.5801,3.5h-.6797l-.3496-.8105Zm-.2148-.5098l-.6602-1.5303-.6553,1.5303h1.3154Z"/><path class="cls-3" d="M88.8683,2.2999c.2246,.1006,.3975,.2441,.5176,.4307,.1191,.1865,.1797,.4082,.1797,.665,0,.2529-.0605,.4736-.1797,.6621-.1201,.1885-.293,.333-.5176,.4326-.2256,.0996-.4893,.1504-.793,.1504h-.79v1.0098h-.6494V2.1504h1.4395c.3037,0,.5674,.0498,.793,.1494Zm-.1777,1.6104c.1465-.1201,.2197-.292,.2197-.5146,0-.2236-.0732-.3955-.2197-.5156s-.3623-.1797-.6455-.1797h-.7598v1.3896h.7598c.2832,0,.499-.0596,.6455-.1797Z"/><path class="cls-3" d="M92.5704,4.8399h-1.75l-.3447,.8105h-.6699l1.5752-3.5h.6396l1.5801,3.5h-.6797l-.3506-.8105Zm-.2148-.5098l-.6602-1.5303-.6553,1.5303h1.3154Z"/><path class="cls-3" d="M94.1603,2.1504h2.7256v.5352h-2.0859v.8594h1.0352c.4199,0,.7393,.0879,.958,.2627,.2178,.1748,.3271,.4277,.3271,.7578,0,.3467-.1201,.6143-.3594,.8018-.2402,.1885-.582,.2832-1.0254,.2832h-1.5752V2.1504Zm1.54,3c.25,0,.4404-.0488,.5703-.1455s.1943-.2363,.1943-.4199c0-.3594-.2549-.54-.7646-.54h-.9004v1.1055h.9004Z"/><path class="cls-3" d="M98.505,5.4678c-.2861-.1553-.5117-.3701-.6748-.6455-.1631-.2744-.2451-.582-.2451-.9219s.082-.6475,.2451-.9229c.1631-.2744,.3887-.4902,.6748-.6445,.2871-.1553,.6084-.2324,.9648-.2324,.3574,0,.6787,.0771,.9658,.2324,.2861,.1543,.5107,.3691,.6748,.6426,.1631,.2725,.2451,.5811,.2451,.9248,0,.3428-.082,.6514-.2451,.9248-.1641,.2734-.3887,.4873-.6748,.6426-.2871,.1553-.6084,.2324-.9658,.2324-.3564,0-.6777-.0771-.9648-.2324Zm1.5957-.4951c.1865-.1055,.333-.252,.4395-.4404,.1064-.1875,.1602-.3984,.1602-.6318s-.0537-.4443-.1602-.6328-.2529-.335-.4395-.4395c-.1875-.1055-.3975-.1582-.6309-.1582s-.4434,.0527-.6299,.1582c-.1865,.1045-.333,.251-.4395,.4395-.1074,.1885-.1602,.3994-.1602,.6328s.0527,.4443,.1602,.6318c.1064,.1885,.2529,.335,.4395,.4404s.3965,.1572,.6299,.1572,.4434-.0518,.6309-.1572Z"/><path class="cls-3" d="M104.6349,2.7002h-1.1592v2.9502h-.6455V2.7002h-1.1553v-.5498h2.96v.5498Z"/><path class="cls-3" d="M108.3253,2.1504v3.5h-.6494v-1.5h-1.8105v1.5h-.6494V2.1504h.6494v1.4443h1.8105v-1.4443h.6494Z"/><path class="cls-3" d="M111.6456,4.8399h-1.75l-.3457,.8105h-.6699l1.5752-3.5h.6396l1.5801,3.5h-.6797l-.3496-.8105Zm-.2148-.5098l-.6602-1.5303-.6553,1.5303h1.3154Z"/><path class="cls-3" d="M115.9054,2.1504v3.5h-.6406v-.9756h-.9346l-.6504,.9756h-.6846l.75-1.0801c-.2432-.0898-.4307-.2324-.5625-.4277s-.1973-.4307-.1973-.707c0-.2666,.0596-.4971,.1797-.6904s.29-.3408,.5098-.4424,.4785-.1523,.7754-.1523h1.4551Zm-2.0479,.7344c-.1416,.124-.2129,.3037-.2129,.54,0,.2305,.0684,.4082,.2051,.5332s.335,.1875,.5957,.1875h.8193v-1.4453h-.7949c-.2666,0-.4707,.0615-.6123,.1846Z"/><path class="cls-3" d="M121.4103,2.1504v3.5h-.6396V2.7002h-1.8154v2.9502h-.6396V2.1504h3.0947Z"/><path class="cls-3" d="M125.4054,2.1504v3.5h-.6406V2.7002h-1.3799l-.0293,.875c-.0176,.4902-.0576,.8877-.1201,1.1924-.0635,.3047-.165,.5371-.3057,.6953-.1396,.1582-.333,.2373-.5801,.2373-.0859,0-.2041-.0166-.3545-.0498l.0449-.5654c.043,.0137,.0938,.0205,.1504,.0205,.2031,0,.3467-.1211,.4316-.3633,.0859-.2412,.1377-.6221,.1582-1.1416l.0498-1.4502h2.5752Z"/><path class="cls-3" d="M128.7306,4.8399h-1.75l-.3457,.8105h-.6699l1.5752-3.5h.6396l1.5801,3.5h-.6797l-.3496-.8105Zm-.2148-.5098l-.6602-1.5303-.6553,1.5303h1.3154Z"/><path class="cls-3" d="M132.8546,2.7002h-1.1592v2.9502h-.6455V2.7002h-1.1553v-.5498h2.96v.5498Z"/><path class="cls-3" d="M135.755,4.8399h-1.75l-.3447,.8105h-.6699l1.5752-3.5h.6396l1.5801,3.5h-.6797l-.3506-.8105Zm-.2148-.5098l-.6602-1.5303-.6553,1.5303h1.3154Z"/><path class="cls-3" d="M141.5548,4.1377c.1172,.1445,.1748,.3262,.1748,.542,0,.3076-.1133,.5459-.3398,.7158s-.5547,.2549-.9854,.2549h-1.6592V2.1504h1.5645c.3936,0,.7002,.0781,.9199,.2344,.2207,.1572,.3301,.3789,.3301,.665,0,.1836-.0439,.3418-.1318,.4756-.0889,.1328-.2168,.2344-.3828,.3047,.2227,.0605,.3936,.1621,.5098,.3076Zm-2.1699-.4922h.8701c.21,0,.3701-.042,.4795-.125,.1104-.084,.165-.207,.165-.3701s-.0547-.2881-.165-.373c-.1094-.085-.2695-.127-.4795-.127h-.8701v.9951Zm1.6904,.9844c0-.3398-.2305-.5098-.6904-.5098h-1v1.0303h1c.46,0,.6904-.1738,.6904-.5205Z"/><path class="cls-3" d="M146.1222,2.2999c.2246,.1006,.3975,.2441,.5176,.4307s.1797,.4082,.1797,.665c0,.2529-.0596,.4736-.1797,.6621s-.293,.333-.5176,.4326-.4893,.1504-.792,.1504h-.79v1.0098h-.6504V2.1504h1.4404c.3027,0,.5674,.0498,.792,.1494Zm-.1777,1.6104c.1465-.1201,.2207-.292,.2207-.5146,0-.2236-.0742-.3955-.2207-.5156s-.3613-.1797-.6445-.1797h-.7598v1.3896h.7598c.2832,0,.498-.0596,.6445-.1797Z"/><path class="cls-3" d="M148.1593,5.4678c-.2861-.1553-.5117-.3701-.6748-.6455-.1631-.2744-.2451-.582-.2451-.9219s.082-.6475,.2451-.9229c.1631-.2744,.3887-.4902,.6748-.6445,.2871-.1553,.6084-.2324,.9648-.2324,.3574,0,.6787,.0771,.9658,.2324,.2861,.1543,.5107,.3691,.6748,.6426,.1631,.2725,.2451,.5811,.2451,.9248,0,.3428-.082,.6514-.2451,.9248-.1641,.2734-.3887,.4873-.6748,.6426-.2871,.1553-.6084,.2324-.9658,.2324-.3564,0-.6777-.0771-.9648-.2324Zm1.5957-.4951c.1865-.1055,.333-.252,.4395-.4404,.1064-.1875,.1602-.3984,.1602-.6318s-.0537-.4443-.1602-.6328-.2529-.335-.4395-.4395c-.1875-.1055-.3975-.1582-.6309-.1582s-.4434,.0527-.6299,.1582c-.1865,.1045-.333,.251-.4395,.4395-.1074,.1885-.1602,.3994-.1602,.6328s.0527,.4443,.1602,.6318c.1064,.1885,.2529,.335,.4395,.4404s.3965,.1572,.6299,.1572,.4434-.0518,.6309-.1572Z"/><path class="cls-3" d="M152.4025,5.4678c-.2852-.1553-.5088-.3691-.6699-.6426-.1621-.2734-.2432-.582-.2432-.9248,0-.3438,.082-.6523,.2451-.9248,.1631-.2734,.3877-.4883,.6729-.6426,.2852-.1553,.6035-.2324,.957-.2324,.2871,0,.5488,.0498,.7852,.1494,.2363,.1006,.4365,.2451,.6006,.4355l-.4209,.3945c-.2529-.2734-.5645-.4102-.9346-.4102-.2402,0-.4551,.0527-.6445,.1582-.1904,.1045-.3389,.25-.4453,.4375-.1064,.1865-.1602,.3975-.1602,.6348,0,.2363,.0537,.4482,.1602,.6348s.2549,.332,.4453,.4375c.1895,.1055,.4043,.1572,.6445,.1572,.3701,0,.6816-.1377,.9346-.415l.4209,.4004c-.1641,.1895-.3643,.335-.6025,.4346-.2393,.1006-.501,.1504-.7881,.1504-.3535,0-.6719-.0771-.957-.2324Z"/><path class="cls-3" d="M156.0275,5.4678c-.2852-.1553-.5088-.3691-.6699-.6426-.1621-.2734-.2432-.582-.2432-.9248,0-.3438,.082-.6523,.2451-.9248,.1631-.2734,.3877-.4883,.6729-.6426,.2852-.1553,.6035-.2324,.957-.2324,.2871,0,.5488,.0498,.7852,.1494,.2363,.1006,.4365,.2451,.6006,.4355l-.4209,.3945c-.2529-.2734-.5645-.4102-.9346-.4102-.2402,0-.4551,.0527-.6445,.1582-.1904,.1045-.3389,.25-.4453,.4375-.1064,.1865-.1602,.3975-.1602,.6348,0,.2363,.0537,.4482,.1602,.6348s.2549,.332,.4453,.4375c.1895,.1055,.4043,.1572,.6445,.1572,.3701,0,.6816-.1377,.9346-.415l.4209,.4004c-.1641,.1895-.3643,.335-.6025,.4346-.2393,.1006-.501,.1504-.7881,.1504-.3535,0-.6719-.0771-.957-.2324Z"/><path class="cls-3" d="M159.005,2.1504h.6396v2.4844l1.8799-2.4844h.6055v3.5h-.6406V3.17l-1.8799,2.4805h-.6045V2.1504Z"/><path class="cls-3" d="M163.1349,2.1504h.6396v2.4844l1.8799-2.4844h.6055v3.5h-.6406V3.17l-1.8799,2.4805h-.6045V2.1504Z"/><path class="cls-3" d="M167.6739,4.9698c.0771,.0771,.1152,.1768,.1152,.3008,0,.0527-.0068,.1084-.0225,.167-.0146,.0586-.0459,.1465-.0928,.2627l-.2549,.7051h-.4043l.1992-.7646c-.0732-.0303-.1309-.0781-.1719-.1426-.042-.0654-.0625-.1416-.0625-.2275,0-.124,.0381-.2236,.1152-.3008,.0762-.0762,.1729-.1143,.29-.1143,.1162,0,.2129,.0381,.2891,.1143Z"/><path class="cls-3" d="M172.4396,2.7002h-1.1602v2.9502h-.6445V2.7002h-1.1553v-.5498h2.96v.5498Z"/><path class="cls-3" d="M175.6017,3.6172c.2246,.1885,.3379,.4678,.3379,.8379,0,.3867-.124,.6826-.3701,.8877-.2471,.2051-.5938,.3076-1.04,.3076h-1.5049V2.1504h.6396v1.1846h.9697c.4199,0,.7432,.0947,.9678,.2822Zm-.5176,1.3584c.1367-.1172,.2051-.2871,.2051-.5107,0-.4229-.2637-.6348-.79-.6348h-.835v1.3203h.835c.2529,0,.4482-.0586,.585-.1748Zm1.3604-2.8252h.6396v3.5h-.6396V2.1504Z"/><path class="cls-3" d="M178.7423,5.4678c-.2852-.1553-.5088-.3691-.6699-.6426-.1621-.2734-.2432-.582-.2432-.9248,0-.3438,.082-.6523,.2451-.9248,.1631-.2734,.3877-.4883,.6729-.6426,.2852-.1553,.6035-.2324,.957-.2324,.2871,0,.5488,.0498,.7852,.1494,.2363,.1006,.4365,.2451,.6006,.4355l-.4209,.3945c-.2529-.2734-.5645-.4102-.9346-.4102-.2402,0-.4551,.0527-.6445,.1582-.1904,.1045-.3389,.25-.4453,.4375-.1064,.1865-.1602,.3975-.1602,.6348,0,.2363,.0537,.4482,.1602,.6348s.2549,.332,.4453,.4375c.1895,.1055,.4043,.1572,.6445,.1572,.3701,0,.6816-.1377,.9346-.415l.4209,.4004c-.1641,.1895-.3643,.335-.6025,.4346-.2393,.1006-.501,.1504-.7881,.1504-.3535,0-.6719-.0771-.957-.2324Z"/><path class="cls-3" d="M181.5441,5.5674c-.0791-.0781-.1191-.1768-.1191-.2969,0-.124,.0391-.2236,.1172-.3008,.0781-.0762,.1758-.1143,.292-.1143,.1172,0,.2148,.0381,.293,.1143,.0781,.0771,.1172,.1768,.1172,.3008,0,.1201-.04,.2188-.1201,.2969-.0801,.0791-.1768,.1182-.29,.1182s-.21-.0391-.29-.1182Z"/><path class="cls-3" d="M186.587,2.2999c.2246,.1006,.3975,.2441,.5176,.4307,.1191,.1865,.1797,.4082,.1797,.665,0,.2529-.0605,.4736-.1797,.6621-.1201,.1885-.293,.333-.5176,.4326-.2256,.0996-.4893,.1504-.793,.1504h-.79v1.0098h-.6494V2.1504h1.4395c.3037,0,.5674,.0498,.793,.1494Zm-.1777,1.6104c.1465-.1201,.2197-.292,.2197-.5146,0-.2236-.0732-.3955-.2197-.5156s-.3623-.1797-.6455-.1797h-.7598v1.3896h.7598c.2832,0,.499-.0596,.6455-.1797Z"/><path class="cls-3" d="M190.9738,2.1504l-1.5195,2.8252c-.1338,.25-.293,.4375-.4775,.5625-.1855,.125-.3857,.1875-.6025,.1875-.1738,0-.3457-.0371-.5156-.1104l.1602-.5098c.1367,.043,.25,.0645,.3398,.0645,.21,0,.3838-.1084,.5205-.3252l.0547-.085-1.3945-2.6094h.6943l1.0352,2.0547,1.0654-2.0547h.6396Z"/><path class="cls-3" d="M191.5245,2.1504h2.7246v.5352h-2.085v.8594h1.0352c.4199,0,.7393,.0879,.957,.2627,.2188,.1748,.3281,.4277,.3281,.7578,0,.3467-.1201,.6143-.3604,.8018-.2402,.1885-.582,.2832-1.0254,.2832h-1.5742V2.1504Zm1.54,3c.25,0,.4395-.0488,.5693-.1455s.1953-.2363,.1953-.4199c0-.3594-.2549-.54-.7646-.54h-.9004v1.1055h.9004Z"/></g><path class="cls-1" d="M19.0446,162.6664c0,4.6757-3.8035,8.4792-8.4792,8.4792s-8.4792-3.8035-8.4792-8.4792v-58.5841c0-4.6757,3.8035-8.4792,8.4792-8.4792s8.4792,3.8035,8.4792,8.4792v58.5841Z"/><path class="cls-1" d="M45.7589,162.6664c0,4.6757-3.8035,8.4792-8.4792,8.4792s-8.4792-3.8035-8.4792-8.4792v-62.06c0-4.6757,3.8035-8.4793,8.4792-8.4793s8.4792,3.8035,8.4792,8.4793v62.06Z"/><path class="cls-1" d="M72.2524,162.6664c0,4.6757-3.8035,8.4792-8.4792,8.4792s-8.4792-3.8035-8.4792-8.4792V98.6064c0-4.6757,3.8035-8.4793,8.4792-8.4793s8.4792,3.8035,8.4792,8.4793v64.06Z"/><path class="cls-1" d="M152.6164,162.6664c0,4.6757-3.8035,8.4792-8.4792,8.4792s-8.4792-3.8035-8.4792-8.4792V88.3748c0-4.6757,3.8035-8.4793,8.4792-8.4793s8.4792,3.8035,8.4792,8.4793v74.2916Z"/><path class="cls-1" d="M179.3308,162.6664c0,4.6757-3.8035,8.4792-8.4792,8.4792s-8.4792-3.8035-8.4792-8.4792V76.6088c0-4.6757,3.8035-8.4792,8.4792-8.4792s8.4792,3.8035,8.4792,8.4792v86.0576Z"/><path class="cls-1" d="M99.1877,162.6664c0,4.6757-3.8035,8.4792-8.4792,8.4792s-8.4792-3.8035-8.4792-8.4792V96.3668c0-4.6757,3.8035-8.4792,8.4792-8.4792s8.4792,3.8035,8.4792,8.4792v66.2996Z"/><path class="cls-1" d="M125.902,162.6664c0,4.6757-3.8035,8.4792-8.4792,8.4792s-8.4792-3.8035-8.4792-8.4792V95.1993c0-4.6757,3.8035-8.4792,8.4792-8.4792s8.4792,3.8035,8.4792,8.4792v67.4671Z"/><path class="cls-1" d="M206.0448,162.6669c0,4.6749-3.8035,8.4792-8.4792,8.4792s-8.4784-3.8043-8.4784-8.4792V67.1325c0-4.6749,3.8035-8.4784,8.4784-8.4784s8.4792,3.8035,8.4792,8.4784v95.5345Z"/><path class="cls-1" d="M232.7596,162.6664c0,4.6757-3.8035,8.4792-8.4792,8.4792s-8.4792-3.8035-8.4792-8.4792V62.6088c0-4.6757,3.8035-8.4792,8.4792-8.4792s8.4792,3.8035,8.4792,8.4792v100.0576Z"/><path class="cls-2" d="M259.8777,163.2506c0,4.2609-3.9772,7.7152-8.883,7.7152s-8.883-3.4543-8.883-7.7152V57.5362c0-4.2616,3.9771-7.7152,8.883-7.7152s8.883,3.4536,8.883,7.7152v105.7143Z"/><line class="cls-4" x1="10.5654" y1="166.806" x2="10.5654" y2="37.5795"/><path d="M9.8387,37.5794c0-.4013,.3254-.7268,.7268-.7268s.7268,.3255,.7268,.7268-.3254,.7268-.7268,.7268-.7268-.3255-.7268-.7268"/><line class="cls-4" x1="117.4226" y1="166.806" x2="117.4226" y2="37.5795"/><path d="M116.6959,37.5794c0-.4013,.3254-.7268,.7268-.7268s.7268,.3255,.7268,.7268-.3255,.7268-.7268,.7268-.7268-.3255-.7268-.7268"/><line class="cls-4" x1="37.2794" y1="166.806" x2="37.2794" y2="37.5795"/><path d="M36.5527,37.5794c0-.4013,.3254-.7268,.7268-.7268s.7268,.3255,.7268,.7268-.3255,.7268-.7268,.7268-.7268-.3255-.7268-.7268"/><line class="cls-4" x1="144.137" y1="166.806" x2="144.137" y2="37.5795"/><path d="M143.4103,37.5794c0-.4013,.3254-.7268,.7268-.7268s.7268,.3255,.7268,.7268-.3255,.7268-.7268,.7268-.7268-.3255-.7268-.7268"/><line class="cls-4" x1="63.9938" y1="166.806" x2="63.9938" y2="37.5795"/><path d="M63.2671,37.5794c0-.4013,.3254-.7268,.7268-.7268s.7268,.3255,.7268,.7268-.3255,.7268-.7268,.7268-.7268-.3255-.7268-.7268"/><line class="cls-4" x1="170.8514" y1="166.806" x2="170.8514" y2="37.5795"/><path d="M170.1247,37.5794c0-.4013,.3254-.7268,.7268-.7268s.7268,.3255,.7268,.7268-.3255,.7268-.7268,.7268-.7268-.3255-.7268-.7268"/><line class="cls-4" x1="90.7082" y1="166.806" x2="90.7082" y2="37.5793"/><path d="M89.9815,37.5794c0-.4013,.3254-.7268,.7268-.7268s.7268,.3255,.7268,.7268-.3255,.7268-.7268,.7268-.7268-.3255-.7268-.7268"/><line class="cls-4" x1="197.5658" y1="166.806" x2="197.5658" y2="37.5795"/><path d="M196.8391,37.5794c0-.4013,.3254-.7268,.7268-.7268s.7268,.3255,.7268,.7268-.3255,.7268-.7268,.7268-.7268-.3255-.7268-.7268"/><line class="cls-4" x1="224.2802" y1="166.806" x2="224.2802" y2="37.5796"/><path d="M223.5535,37.5794c0-.4013,.3254-.7268,.7268-.7268s.7268,.3255,.7268,.7268-.3255,.7268-.7268,.7268-.7268-.3255-.7268-.7268"/><line class="cls-4" x1="250.9946" y1="166.806" x2="250.9946" y2="37.5795"/><path d="M250.2679,37.5794c0-.4013,.3254-.7268,.7268-.7268s.7268,.3255,.7268,.7268-.3255,.7268-.7268,.7268-.7268-.3255-.7268-.7268"/><g><path d="M8.173,31.4717h-.7002v.9199h-.3604v-.9199h-1.9746v-.2607l1.8555-2.3193h.3994l-1.79,2.2598h1.5205v-.8096h.3496v.8096h.7002v.3203Z"/><path d="M8.9679,31.9493c.0498,.0518,.0752,.1152,.0752,.1924,0,.04-.0059,.083-.0176,.1299s-.0293,.0996-.0527,.1602l-.21,.6895h-.2402l.1709-.7246c-.0537-.0166-.0967-.0479-.1309-.0928-.0332-.0449-.0498-.0986-.0498-.1621,0-.0771,.0254-.1406,.0752-.1924s.1133-.0781,.1904-.0781c.0762,0,.1396,.0264,.1895,.0781Z"/><path d="M11.6251,30.4268c.1787,.0859,.3174,.209,.418,.3672,.0996,.1582,.1494,.3428,.1494,.5527,0,.2129-.0518,.4014-.1553,.5645-.1025,.1641-.2451,.2891-.4268,.3779-.1816,.0879-.3857,.1318-.6133,.1318-.4629,0-.8184-.1523-1.0645-.457-.2471-.3047-.3701-.7354-.3701-1.293,0-.3896,.0664-.7197,.2002-.9893,.1328-.2705,.3193-.4746,.5596-.6123,.2402-.1387,.5205-.208,.8398-.208,.3467,0,.624,.0635,.8301,.1904l-.1445,.29c-.167-.1104-.3936-.165-.6797-.165-.3867,0-.6904,.1221-.9102,.3672-.2207,.2451-.3301,.6006-.3301,1.0674,0,.083,.0049,.1787,.0146,.2852,.0869-.1904,.2256-.3379,.415-.4424,.1904-.1055,.4082-.1582,.6553-.1582,.2295,0,.4336,.0439,.6123,.1309Zm-.0254,1.4824c.1582-.1387,.2383-.3232,.2383-.5527,0-.2305-.0801-.4131-.2383-.5498s-.3721-.2051-.6426-.2051c-.1758,0-.332,.0332-.4668,.0996-.1348,.0674-.2412,.1582-.3174,.2754-.0771,.1162-.1152,.2461-.1152,.3896,0,.1338,.0361,.2568,.1074,.3701s.1777,.2051,.3174,.2754c.1396,.0693,.3066,.1045,.5,.1045,.2529,0,.459-.0693,.6172-.207Z"/></g><g><path d="M34.7638,30.5987c.2314,.1816,.3467,.4365,.3467,.7627,0,.2031-.0469,.3848-.1416,.5449-.0957,.1602-.2383,.2861-.4277,.3779-.1904,.0918-.4238,.1367-.7002,.1367-.25,0-.4873-.04-.7129-.1221-.2246-.082-.4053-.1904-.542-.3271l.1748-.2852c.1172,.1201,.2705,.2178,.46,.292,.1904,.0752,.3955,.1133,.6152,.1133,.29,0,.5137-.0654,.6729-.1953,.1582-.1299,.2373-.3037,.2373-.5205,0-.2393-.0898-.4209-.2676-.5449-.1787-.123-.4795-.1846-.9023-.1846h-.7451l.1797-1.7549h1.915v.3193h-1.5996l-.1201,1.1152h.4502c.5059,0,.875,.0908,1.1074,.2725Z"/><path d="M36.0314,31.9493c.0498,.0518,.0742,.1152,.0742,.1924,0,.04-.0059,.083-.0166,.1299-.0117,.0469-.0293,.0996-.0527,.1602l-.21,.6895h-.2402l.1699-.7246c-.0537-.0166-.0967-.0479-.1299-.0928s-.0498-.0986-.0498-.1621c0-.0771,.0244-.1406,.0752-.1924,.0498-.0518,.1133-.0781,.1895-.0781,.0771,0,.1396,.0264,.1904,.0781Z"/><path d="M39.0157,32.0713v.3203h-2.4551v-.2549l1.4551-1.4258c.1836-.1797,.3076-.335,.373-.4668,.0645-.1318,.0977-.2646,.0977-.3975,0-.207-.0713-.3682-.2129-.4824-.1416-.1152-.3438-.1729-.6074-.1729-.4102,0-.7285,.1299-.9551,.3896l-.2549-.2197c.1367-.1602,.3105-.2832,.5225-.3701s.4512-.1299,.7178-.1299c.3564,0,.6387,.084,.8477,.2529,.208,.168,.3125,.3984,.3125,.6924,0,.1797-.04,.3535-.1201,.5195-.0801,.167-.2324,.3584-.4551,.5752l-1.1904,1.1699h1.9248Z"/></g><g><path d="M61.2384,30.5987c.2314,.1816,.3467,.4365,.3467,.7627,0,.2031-.0469,.3848-.1416,.5449-.0957,.1602-.2383,.2861-.4277,.3779-.1904,.0918-.4238,.1367-.7002,.1367-.25,0-.4873-.04-.7129-.1221-.2246-.082-.4053-.1904-.542-.3271l.1748-.2852c.1172,.1201,.2705,.2178,.46,.292,.1904,.0752,.3955,.1133,.6152,.1133,.29,0,.5137-.0654,.6729-.1953,.1582-.1299,.2373-.3037,.2373-.5205,0-.2393-.0898-.4209-.2676-.5449-.1787-.123-.4795-.1846-.9023-.1846h-.7451l.1797-1.7549h1.915v.3193h-1.5996l-.1201,1.1152h.4502c.5059,0,.875,.0908,1.1074,.2725Z"/><path d="M62.506,31.9493c.0498,.0518,.0742,.1152,.0742,.1924,0,.04-.0059,.083-.0166,.1299-.0117,.0469-.0293,.0996-.0527,.1602l-.21,.6895h-.2402l.1699-.7246c-.0537-.0166-.0967-.0479-.1299-.0928s-.0498-.0986-.0498-.1621c0-.0771,.0244-.1406,.0752-.1924,.0498-.0518,.1133-.0781,.1895-.0781,.0771,0,.1396,.0264,.1904,.0781Z"/><path d="M65.128,30.5987c.2314,.1816,.3477,.4365,.3477,.7627,0,.2031-.0479,.3848-.1426,.5449s-.2373,.2861-.4277,.3779c-.1895,.0918-.4229,.1367-.6992,.1367-.25,0-.4883-.04-.7129-.1221s-.4062-.1904-.543-.3271l.1758-.2852c.1162,.1201,.2695,.2178,.46,.292,.1895,.0752,.3945,.1133,.6143,.1133,.29,0,.5146-.0654,.6729-.1953s.2373-.3037,.2373-.5205c0-.2393-.0889-.4209-.2676-.5449-.1777-.123-.4785-.1846-.9023-.1846h-.7451l.1807-1.7549h1.915v.3193h-1.6006l-.1201,1.1152h.4502c.5068,0,.876,.0908,1.1074,.2725Z"/></g><g><path d="M86.4083,30.5987c.2314,.1816,.3477,.4365,.3477,.7627,0,.2031-.0479,.3848-.1426,.5449s-.2373,.2861-.4277,.3779c-.1895,.0918-.4229,.1367-.6992,.1367-.25,0-.4883-.04-.7129-.1221s-.4062-.1904-.543-.3271l.1758-.2852c.1162,.1201,.2695,.2178,.46,.292,.1895,.0752,.3945,.1133,.6143,.1133,.29,0,.5146-.0654,.6729-.1953s.2373-.3037,.2373-.5205c0-.2393-.0889-.4209-.2676-.5449-.1777-.123-.4785-.1846-.9023-.1846h-.7451l.1807-1.7549h1.915v.3193h-1.6006l-.1201,1.1152h.4502c.5068,0,.876,.0908,1.1074,.2725Z"/><path d="M87.6759,31.9493c.0498,.0518,.0752,.1152,.0752,.1924,0,.04-.0059,.083-.0176,.1299s-.0293,.0996-.0527,.1602l-.21,.6895h-.2402l.1709-.7246c-.0537-.0166-.0967-.0479-.1309-.0928-.0332-.0449-.0498-.0986-.0498-.1621,0-.0771,.0254-.1406,.0752-.1924s.1133-.0781,.1904-.0781c.0762,0,.1396,.0264,.1895,.0781Z"/><path d="M90.4259,29.3194c.2471,.3047,.3701,.7354,.3701,1.292,0,.3896-.0664,.7197-.2002,.9902-.1328,.2695-.3193,.4736-.5596,.6123s-.5205,.207-.8398,.207c-.3467,0-.624-.0625-.8301-.1895l.1445-.29c.167,.1104,.3936,.165,.6807,.165,.3857,0,.6895-.123,.9092-.3672,.2207-.2451,.3301-.6016,.3301-1.0684,0-.0859-.0049-.1816-.0146-.2842-.0869,.1895-.2246,.3369-.415,.4424-.1904,.1045-.4082,.1572-.6553,.1572-.2295,0-.4336-.043-.6123-.1299s-.3174-.209-.417-.3672c-.1006-.1582-.1504-.3428-.1504-.5527,0-.2139,.0518-.4014,.1553-.5654,.1025-.1631,.2451-.2891,.4268-.377,.1816-.0889,.3857-.1328,.6133-.1328,.4629,0,.8184,.1523,1.0645,.458Zm-.5576,1.2617c.1357-.0664,.2412-.1582,.3174-.2744,.0771-.1172,.1152-.2471,.1152-.3906,0-.1328-.0361-.2559-.1074-.3701-.0713-.1133-.1777-.2041-.3174-.2744s-.3066-.1055-.5-.1055c-.2529,0-.459,.0693-.6172,.208s-.2383,.3223-.2383,.5527c0,.2295,.0801,.4131,.2383,.5498s.3721,.2051,.6426,.2051c.1758,0,.332-.0332,.4668-.1006Z"/></g><g><path d="M114.4142,30.4268c.1787,.0859,.3174,.209,.418,.3672,.0996,.1582,.1494,.3428,.1494,.5527,0,.2129-.0518,.4014-.1553,.5645-.1025,.1641-.2451,.2891-.4268,.3779-.1816,.0879-.3857,.1318-.6133,.1318-.4629,0-.8184-.1523-1.0645-.457-.2471-.3047-.3701-.7354-.3701-1.293,0-.3896,.0664-.7197,.2002-.9893,.1328-.2705,.3193-.4746,.5596-.6123,.2402-.1387,.5205-.208,.8398-.208,.3467,0,.624,.0635,.8301,.1904l-.1445,.29c-.167-.1104-.3936-.165-.6797-.165-.3867,0-.6904,.1221-.9102,.3672-.2207,.2451-.3301,.6006-.3301,1.0674,0,.083,.0049,.1787,.0146,.2852,.0869-.1904,.2256-.3379,.415-.4424,.1904-.1055,.4082-.1582,.6553-.1582,.2295,0,.4336,.0439,.6123,.1309Zm-.0254,1.4824c.1582-.1387,.2383-.3232,.2383-.5527,0-.2305-.0801-.4131-.2383-.5498s-.3721-.2051-.6426-.2051c-.1758,0-.332,.0332-.4668,.0996-.1348,.0674-.2412,.1582-.3174,.2754-.0771,.1162-.1152,.2461-.1152,.3896,0,.1338,.0361,.2568,.1074,.3701s.1777,.2051,.3174,.2754c.1396,.0693,.3066,.1045,.5,.1045,.2529,0,.459-.0693,.6172-.207Z"/><path d="M115.8614,31.9493c.0498,.0518,.0752,.1152,.0752,.1924,0,.04-.0059,.083-.0176,.1299s-.0293,.0996-.0527,.1602l-.21,.6895h-.2402l.1709-.7246c-.0537-.0166-.0967-.0479-.1309-.0928-.0332-.0449-.0498-.0986-.0498-.1621,0-.0771,.0254-.1406,.0752-.1924s.1133-.0781,.1904-.0781c.0762,0,.1396,.0264,.1895,.0781Z"/><path d="M118.8468,32.0713v.3203h-2.4551v-.2549l1.4551-1.4258c.1836-.1797,.3076-.335,.3721-.4668,.0654-.1318,.0977-.2646,.0977-.3975,0-.207-.0703-.3682-.2119-.4824-.1426-.1152-.3447-.1729-.6084-.1729-.4092,0-.7275,.1299-.9541,.3896l-.2559-.2197c.1367-.1602,.3115-.2832,.5225-.3701,.2119-.0869,.4512-.1299,.7178-.1299,.3564,0,.6396,.084,.8477,.2529,.208,.168,.3125,.3984,.3125,.6924,0,.1797-.04,.3535-.1201,.5195-.0801,.167-.2314,.3584-.4551,.5752l-1.1895,1.1699h1.9248Z"/></g><g><path d="M142.2491,28.8916v.2549l-1.4648,3.2451h-.3896l1.4395-3.1807h-1.7998v.6553h-.3545v-.9746h2.5693Z"/><path d="M143.1896,31.9493c.0498,.0518,.0742,.1152,.0742,.1924,0,.04-.0059,.083-.0166,.1299-.0117,.0469-.0293,.0996-.0527,.1602l-.21,.6895h-.2402l.1699-.7246c-.0537-.0166-.0967-.0479-.1299-.0928s-.0498-.0986-.0498-.1621c0-.0771,.0244-.1406,.0752-.1924,.0498-.0518,.1133-.0781,.1895-.0781,.0771,0,.1396,.0264,.1904,.0781Z"/><path d="M145.8116,30.5987c.2314,.1816,.3477,.4365,.3477,.7627,0,.2031-.0479,.3848-.1426,.5449s-.2373,.2861-.4277,.3779c-.1895,.0918-.4229,.1367-.6992,.1367-.25,0-.4883-.04-.7129-.1221s-.4062-.1904-.543-.3271l.1758-.2852c.1162,.1201,.2695,.2178,.46,.292,.1895,.0752,.3945,.1133,.6143,.1133,.29,0,.5146-.0654,.6729-.1953s.2373-.3037,.2373-.5205c0-.2393-.0889-.4209-.2676-.5449-.1777-.123-.4785-.1846-.9023-.1846h-.7451l.1807-1.7549h1.915v.3193h-1.6006l-.1201,1.1152h.4502c.5068,0,.876,.0908,1.1074,.2725Z"/></g><g><path d="M168.0509,29.3194c.2461,.3047,.3701,.7354,.3701,1.292,0,.3896-.0674,.7197-.2002,.9902-.1338,.2695-.3203,.4736-.5605,.6123-.2393,.1387-.5195,.207-.8398,.207-.3467,0-.623-.0625-.8301-.1895l.1455-.29c.166,.1104,.3926,.165,.6797,.165,.3867,0,.6904-.123,.9102-.3672,.2197-.2451,.3301-.6016,.3301-1.0684,0-.0859-.0049-.1816-.0156-.2842-.0859,.1895-.2246,.3369-.4141,.4424-.1904,.1045-.4092,.1572-.6553,.1572-.2305,0-.4346-.043-.6123-.1299-.1787-.0869-.3184-.209-.418-.3672s-.1504-.3428-.1504-.5527c0-.2139,.0518-.4014,.1553-.5654,.1035-.1631,.2461-.2891,.4277-.377,.1816-.0889,.3857-.1328,.6123-.1328,.4639,0,.8184,.1523,1.0654,.458Zm-.5576,1.2617c.1348-.0664,.2402-.1582,.3174-.2744,.0762-.1172,.1152-.2471,.1152-.3906,0-.1328-.0361-.2559-.1074-.3701-.0723-.1133-.1777-.2041-.3174-.2744-.1406-.0703-.3076-.1055-.5-.1055-.2539,0-.46,.0693-.6182,.208s-.2373,.3223-.2373,.5527c0,.2295,.0791,.4131,.2373,.5498s.373,.2051,.6426,.2051c.1768,0,.333-.0332,.4678-.1006Z"/><path d="M169.4054,31.9493c.0498,.0518,.0752,.1152,.0752,.1924,0,.04-.0059,.083-.0176,.1299s-.0293,.0996-.0527,.1602l-.21,.6895h-.2402l.1709-.7246c-.0537-.0166-.0967-.0479-.1309-.0928-.0332-.0449-.0498-.0986-.0498-.1621,0-.0771,.0254-.1406,.0752-.1924s.1133-.0781,.1904-.0781c.0762,0,.1396,.0264,.1895,.0781Z"/><path d="M172.9757,31.4717h-.7002v.9199h-.3604v-.9199h-1.9746v-.2607l1.8555-2.3193h.3994l-1.79,2.2598h1.5205v-.8096h.3496v.8096h.7002v.3203Z"/></g><g><path d="M193.7833,28.8916v3.5h-.3594v-3.1807h-.8252v-.3193h1.1846Z"/><path d="M195.589,28.8916v3.5h-.3604v-3.1807h-.8252v-.3193h1.1855Z"/><path d="M196.8888,31.9493c.0498,.0518,.0742,.1152,.0742,.1924,0,.04-.0059,.083-.0166,.1299-.0117,.0469-.0293,.0996-.0527,.1602l-.21,.6895h-.2402l.1699-.7246c-.0537-.0166-.0967-.0479-.1299-.0928s-.0498-.0986-.0498-.1621c0-.0771,.0244-.1406,.0752-.1924,.0498-.0518,.1133-.0781,.1895-.0781,.0771,0,.1396,.0264,.1904,.0781Z"/><path d="M199.5109,30.6885c.1914,.1787,.2881,.4111,.2881,.6982,0,.1992-.0488,.377-.1455,.5322s-.2402,.2773-.4297,.3672c-.1904,.0898-.4219,.1348-.6953,.1348-.2529,0-.4922-.04-.7178-.1221-.2246-.082-.4053-.1904-.542-.3271l.1748-.2852c.1162,.1201,.2715,.2178,.4648,.292,.1934,.0752,.4004,.1133,.6201,.1133,.2871,0,.5088-.0625,.665-.1875s.2354-.2979,.2354-.5176c0-.2168-.0791-.3867-.2354-.5107-.1562-.123-.3936-.1846-.71-.1846h-.25v-.2646l.9697-1.2158h-1.79v-.3193h2.25v.2549l-.9893,1.2451c.3662,.0195,.6455,.1191,.8369,.2969Z"/></g><g><path d="M219.6183,28.8916v3.5h-.3594v-3.1807h-.8252v-.3193h1.1846Z"/><path d="M222.8439,32.0713v.3203h-2.4551v-.2549l1.4551-1.4258c.1836-.1797,.3076-.335,.3721-.4668,.0654-.1318,.0977-.2646,.0977-.3975,0-.207-.0703-.3682-.2119-.4824-.1426-.1152-.3447-.1729-.6084-.1729-.4092,0-.7275,.1299-.9541,.3896l-.2559-.2197c.1367-.1602,.3115-.2832,.5225-.3701,.2119-.0869,.4512-.1299,.7178-.1299,.3564,0,.6396,.084,.8477,.2529,.208,.168,.3125,.3984,.3125,.6924,0,.1797-.04,.3535-.1201,.5195-.0801,.167-.2314,.3584-.4551,.5752l-1.1895,1.1699h1.9248Z"/><path d="M223.7589,31.9493c.0498,.0518,.0742,.1152,.0742,.1924,0,.04-.0059,.083-.0166,.1299-.0117,.0469-.0293,.0996-.0527,.1602l-.21,.6895h-.2402l.1699-.7246c-.0537-.0166-.0967-.0479-.1299-.0928s-.0498-.0986-.0498-.1621c0-.0771,.0244-.1406,.0752-.1924,.0498-.0518,.1133-.0781,.1895-.0781,.0771,0,.1396,.0264,.1904,.0781Z"/><path d="M225.3234,28.8916v3.5h-.3594v-3.1807h-.8252v-.3193h1.1846Z"/></g><g><path d="M247.3829,28.8916v3.5h-.3604v-3.1807h-.8252v-.3193h1.1855Z"/><path d="M250.6075,32.0713v.3203h-2.4551v-.2549l1.4551-1.4258c.1836-.1797,.3076-.335,.373-.4668,.0645-.1318,.0977-.2646,.0977-.3975,0-.207-.0713-.3682-.2129-.4824-.1416-.1152-.3438-.1729-.6074-.1729-.4102,0-.7285,.1299-.9551,.3896l-.2549-.2197c.1367-.1602,.3105-.2832,.5225-.3701s.4512-.1299,.7178-.1299c.3564,0,.6387,.084,.8477,.2529,.208,.168,.3125,.3984,.3125,.6924,0,.1797-.04,.3535-.1201,.5195-.0801,.167-.2324,.3584-.4551,.5752l-1.1904,1.1699h1.9248Z"/><path d="M251.5226,31.9493c.0498,.0518,.0752,.1152,.0752,.1924,0,.04-.0059,.083-.0176,.1299s-.0293,.0996-.0527,.1602l-.21,.6895h-.2402l.1709-.7246c-.0537-.0166-.0967-.0479-.1309-.0928-.0332-.0449-.0498-.0986-.0498-.1621,0-.0771,.0254-.1406,.0752-.1924s.1133-.0781,.1904-.0781c.0762,0,.1396,.0264,.1895,.0781Z"/><path d="M254.63,30.8868c.1182,.1465,.1777,.3232,.1777,.5293,0,.2041-.0547,.3809-.165,.5332-.1104,.1514-.2676,.2676-.4727,.3496s-.4453,.1221-.7227,.1221c-.4199,0-.75-.0898-.9893-.2695-.2402-.1797-.3604-.4248-.3604-.7354,0-.21,.0576-.3867,.1729-.5322,.1143-.1445,.2822-.2539,.502-.3271-.1797-.0703-.3164-.1709-.4102-.3027-.0928-.1318-.1396-.2871-.1396-.4678,0-.2832,.1104-.5078,.332-.6748s.5195-.25,.8926-.25c.2471,0,.4629,.0371,.6475,.1123,.1855,.0752,.3291,.1826,.4326,.3223,.1035,.1406,.1553,.3037,.1553,.4902,0,.1807-.0479,.3359-.1445,.4678s-.2354,.2324-.415,.3027c.2197,.0732,.3887,.1826,.5068,.3301Zm-.4551,1.04c.1758-.127,.2627-.2988,.2627-.5156s-.0869-.3877-.2627-.5127c-.1748-.125-.417-.1875-.7275-.1875-.3066,0-.5469,.0625-.7217,.1875-.1758,.125-.2627,.2959-.2627,.5127,0,.2207,.0859,.3926,.2598,.5176,.1729,.125,.415,.1875,.7246,.1875,.3105,0,.5527-.0635,.7275-.1895Zm-1.3623-1.6699c.1533,.1133,.3652,.1699,.6348,.1699,.2705,0,.4824-.0566,.6377-.1699s.2324-.2656,.2324-.4551c0-.1973-.0791-.3516-.2373-.4658-.1582-.1133-.3691-.1699-.6328-.1699-.2666,0-.4775,.0566-.6318,.1699-.1553,.1143-.2324,.2676-.2324,.46,0,.1934,.0762,.3477,.2295,.4609Z"/></g><line class="cls-4" x1="10.3809" y1="170.9658" x2="250.2682" y2="170.9658"/><g><path d="M6.338,188.5655v.3203H3.8829v-.2549l1.4551-1.4258c.1836-.1797,.3076-.335,.373-.4668,.0645-.1318,.0977-.2646,.0977-.3975,0-.207-.0713-.3682-.2129-.4824-.1416-.1152-.3438-.1729-.6074-.1729-.4102,0-.7285,.1299-.9551,.3896l-.2549-.2197c.1367-.1602,.3105-.2832,.5225-.3701s.4512-.1299,.7178-.1299c.3564,0,.6387,.084,.8477,.2529,.208,.168,.3125,.3984,.3125,.6924,0,.1797-.04,.3535-.1201,.5195-.0801,.167-.2324,.3584-.4551,.5752l-1.1904,1.1699h1.9248Z"/><path d="M7.4113,188.7002c-.2119-.1426-.377-.3486-.4951-.6172s-.1777-.584-.1777-.9473,.0596-.6797,.1777-.9473c.1182-.2686,.2832-.4746,.4951-.6182,.2109-.1436,.4521-.2148,.7217-.2148,.2705,0,.5117,.0713,.7227,.2148,.2119,.1436,.3779,.3496,.498,.6182,.1201,.2676,.1797,.584,.1797,.9473s-.0596,.6787-.1797,.9473-.2861,.4746-.498,.6172c-.2109,.1436-.4521,.2148-.7227,.2148-.2695,0-.5107-.0713-.7217-.2148Zm1.2598-.2852c.1553-.1133,.2754-.2773,.3623-.4941s.1299-.4785,.1299-.7852-.043-.5684-.1299-.7852-.207-.3818-.3623-.4951-.334-.1699-.5381-.1699c-.2031,0-.3818,.0566-.5371,.1699s-.2754,.2783-.3623,.4951-.1299,.4785-.1299,.7852,.043,.5684,.1299,.7852,.207,.3809,.3623,.4941c.1553,.1143,.334,.1709,.5371,.1709,.2041,0,.3828-.0566,.5381-.1709Z"/><path d="M10.9679,185.3858v3.5h-.3594v-3.1807h-.8252v-.3193h1.1846Z"/><path d="M14.1427,188.5655v.3203h-2.4551v-.2549l1.4551-1.4258c.1836-.1797,.3076-.335,.373-.4668,.0645-.1318,.0977-.2646,.0977-.3975,0-.207-.0713-.3682-.2129-.4824-.1416-.1152-.3438-.1729-.6074-.1729-.4102,0-.7285,.1299-.9551,.3896l-.2549-.2197c.1367-.1602,.3105-.2832,.5225-.3701s.4512-.1299,.7178-.1299c.3564,0,.6387,.084,.8477,.2529,.208,.168,.3125,.3984,.3125,.6924,0,.1797-.04,.3535-.1201,.5195-.0801,.167-.2324,.3584-.4551,.5752l-1.1904,1.1699h1.9248Z"/></g><g><path d="M33.1241,188.5655v.3203h-2.4551v-.2549l1.4551-1.4258c.1836-.1797,.3076-.335,.3721-.4668,.0654-.1318,.0977-.2646,.0977-.3975,0-.207-.0703-.3682-.2119-.4824-.1426-.1152-.3447-.1729-.6084-.1729-.4092,0-.7275,.1299-.9541,.3896l-.2559-.2197c.1367-.1602,.3115-.2832,.5225-.3701,.2119-.0869,.4512-.1299,.7178-.1299,.3564,0,.6396,.084,.8477,.2529,.208,.168,.3125,.3984,.3125,.6924,0,.1797-.04,.3535-.1201,.5195-.0801,.167-.2314,.3584-.4551,.5752l-1.1895,1.1699h1.9248Z"/><path d="M34.2013,188.7002c-.2119-.1426-.377-.3486-.4951-.6172s-.1777-.584-.1777-.9473,.0596-.6797,.1777-.9473c.1182-.2686,.2832-.4746,.4951-.6182s.4521-.2148,.7227-.2148c.2695,0,.5107,.0713,.7227,.2148s.377,.3496,.4971,.6182c.1201,.2676,.1807,.584,.1807,.9473s-.0605,.6787-.1807,.9473-.2852,.4746-.4971,.6172c-.2119,.1436-.4531,.2148-.7227,.2148-.2705,0-.5107-.0713-.7227-.2148Zm1.2598-.2852c.1553-.1133,.2764-.2773,.3633-.4941,.0859-.2168,.1299-.4785,.1299-.7852s-.0439-.5684-.1299-.7852c-.0869-.2168-.208-.3818-.3633-.4951-.1543-.1133-.334-.1699-.5371-.1699s-.3828,.0566-.5371,.1699c-.1553,.1133-.2764,.2783-.3633,.4951-.0859,.2168-.1299,.4785-.1299,.7852s.0439,.5684,.1299,.7852c.0869,.2168,.208,.3809,.3633,.4941,.1543,.1143,.334,.1709,.5371,.1709s.3828-.0566,.5371-.1709Z"/><path d="M37.7638,185.3858v3.5h-.3594v-3.1807h-.8252v-.3193h1.1846Z"/><path d="M40.5812,187.1827c.1914,.1787,.2881,.4111,.2881,.6982,0,.1992-.0488,.377-.1455,.5322s-.2402,.2773-.4297,.3672c-.1904,.0898-.4219,.1348-.6953,.1348-.2529,0-.4922-.04-.7178-.1221-.2246-.082-.4053-.1904-.542-.3271l.1748-.2852c.1162,.1201,.2715,.2178,.4648,.292,.1934,.0752,.4004,.1133,.6201,.1133,.2871,0,.5088-.0625,.665-.1875s.2354-.2979,.2354-.5176c0-.2168-.0791-.3867-.2354-.5107-.1562-.123-.3936-.1846-.71-.1846h-.25v-.2646l.9697-1.2158h-1.79v-.3193h2.25v.2549l-.9893,1.2451c.3662,.0195,.6455,.1191,.8369,.2969Z"/></g><g><path d="M59.9386,188.5655v.3203h-2.4551v-.2549l1.4551-1.4258c.1836-.1797,.3076-.335,.373-.4668,.0645-.1318,.0977-.2646,.0977-.3975,0-.207-.0713-.3682-.2129-.4824-.1416-.1152-.3438-.1729-.6074-.1729-.4102,0-.7285,.1299-.9551,.3896l-.2549-.2197c.1367-.1602,.3105-.2832,.5225-.3701s.4512-.1299,.7178-.1299c.3564,0,.6387,.084,.8477,.2529,.208,.168,.3125,.3984,.3125,.6924,0,.1797-.04,.3535-.1201,.5195-.0801,.167-.2324,.3584-.4551,.5752l-1.1904,1.1699h1.9248Z"/><path d="M61.0167,188.7002c-.2119-.1426-.377-.3486-.4951-.6172s-.1777-.584-.1777-.9473,.0596-.6797,.1777-.9473c.1182-.2686,.2832-.4746,.4951-.6182,.2109-.1436,.4521-.2148,.7217-.2148,.2705,0,.5117,.0713,.7227,.2148,.2119,.1436,.3779,.3496,.498,.6182,.1201,.2676,.1797,.584,.1797,.9473s-.0596,.6787-.1797,.9473-.2861,.4746-.498,.6172c-.2109,.1436-.4521,.2148-.7227,.2148-.2695,0-.5107-.0713-.7217-.2148Zm1.2598-.2852c.1553-.1133,.2754-.2773,.3623-.4941s.1299-.4785,.1299-.7852-.043-.5684-.1299-.7852-.207-.3818-.3623-.4951-.334-.1699-.5381-.1699c-.2031,0-.3818,.0566-.5371,.1699s-.2754,.2783-.3623,.4951-.1299,.4785-.1299,.7852,.043,.5684,.1299,.7852,.207,.3809,.3623,.4941c.1553,.1143,.334,.1709,.5371,.1709,.2041,0,.3828-.0566,.5381-.1709Z"/><path d="M64.5792,185.3858v3.5h-.3604v-3.1807h-.8252v-.3193h1.1855Z"/><path d="M68.3439,187.9659h-.7002v.9199h-.3604v-.9199h-1.9746v-.2607l1.8555-2.3193h.3994l-1.79,2.2598h1.5205v-.8096h.3496v.8096h.7002v.3203Z"/></g><g><path d="M86.9825,188.5655v.3203h-2.4551v-.2549l1.4551-1.4258c.1836-.1797,.3076-.335,.373-.4668,.0645-.1318,.0977-.2646,.0977-.3975,0-.207-.0713-.3682-.2129-.4824-.1416-.1152-.3438-.1729-.6074-.1729-.4102,0-.7285,.1299-.9551,.3896l-.2549-.2197c.1367-.1602,.3105-.2832,.5225-.3701s.4512-.1299,.7178-.1299c.3564,0,.6387,.084,.8477,.2529,.208,.168,.3125,.3984,.3125,.6924,0,.1797-.04,.3535-.1201,.5195-.0801,.167-.2324,.3584-.4551,.5752l-1.1904,1.1699h1.9248Z"/><path d="M88.0607,188.7002c-.2119-.1426-.377-.3486-.4951-.6172s-.1777-.584-.1777-.9473,.0596-.6797,.1777-.9473c.1182-.2686,.2832-.4746,.4951-.6182,.2109-.1436,.4521-.2148,.7217-.2148,.2705,0,.5117,.0713,.7227,.2148,.2119,.1436,.3779,.3496,.498,.6182,.1201,.2676,.1797,.584,.1797,.9473s-.0596,.6787-.1797,.9473-.2861,.4746-.498,.6172c-.2109,.1436-.4521,.2148-.7227,.2148-.2695,0-.5107-.0713-.7217-.2148Zm1.2598-.2852c.1553-.1133,.2754-.2773,.3623-.4941s.1299-.4785,.1299-.7852-.043-.5684-.1299-.7852-.207-.3818-.3623-.4951-.334-.1699-.5381-.1699c-.2031,0-.3818,.0566-.5371,.1699s-.2754,.2783-.3623,.4951-.1299,.4785-.1299,.7852,.043,.5684,.1299,.7852,.207,.3809,.3623,.4941c.1553,.1143,.334,.1709,.5371,.1709,.2041,0,.3828-.0566,.5381-.1709Z"/><path d="M91.6232,185.3858v3.5h-.3604v-3.1807h-.8252v-.3193h1.1855Z"/><path d="M94.4405,187.0928c.2314,.1816,.3467,.4365,.3467,.7627,0,.2031-.0469,.3848-.1416,.5449-.0957,.1602-.2383,.2861-.4277,.3779-.1904,.0918-.4238,.1367-.7002,.1367-.25,0-.4873-.04-.7129-.1221-.2246-.082-.4053-.1904-.542-.3271l.1748-.2852c.1172,.1201,.2705,.2178,.46,.292,.1904,.0752,.3955,.1133,.6152,.1133,.29,0,.5137-.0654,.6729-.1953,.1582-.1299,.2373-.3037,.2373-.5205,0-.2393-.0898-.4209-.2676-.5449-.1787-.123-.4795-.1846-.9023-.1846h-.7451l.1797-1.7549h1.915v.3193h-1.5996l-.1201,1.1152h.4502c.5059,0,.875,.0908,1.1074,.2725Z"/></g><g><path d="M113.8068,188.5655v.3203h-2.4551v-.2549l1.4551-1.4258c.1836-.1797,.3076-.335,.373-.4668,.0645-.1318,.0977-.2646,.0977-.3975,0-.207-.0713-.3682-.2129-.4824-.1416-.1152-.3438-.1729-.6074-.1729-.4102,0-.7285,.1299-.9551,.3896l-.2549-.2197c.1367-.1602,.3105-.2832,.5225-.3701s.4512-.1299,.7178-.1299c.3564,0,.6387,.084,.8477,.2529,.208,.168,.3125,.3984,.3125,.6924,0,.1797-.04,.3535-.1201,.5195-.0801,.167-.2324,.3584-.4551,.5752l-1.1904,1.1699h1.9248Z"/><path d="M114.8849,188.7002c-.2119-.1426-.377-.3486-.4951-.6172s-.1777-.584-.1777-.9473,.0596-.6797,.1777-.9473c.1182-.2686,.2832-.4746,.4951-.6182,.2109-.1436,.4521-.2148,.7217-.2148,.2705,0,.5117,.0713,.7227,.2148,.2119,.1436,.3779,.3496,.498,.6182,.1201,.2676,.1797,.584,.1797,.9473s-.0596,.6787-.1797,.9473-.2861,.4746-.498,.6172c-.2109,.1436-.4521,.2148-.7227,.2148-.2695,0-.5107-.0713-.7217-.2148Zm1.2598-.2852c.1553-.1133,.2754-.2773,.3623-.4941s.1299-.4785,.1299-.7852-.043-.5684-.1299-.7852-.207-.3818-.3623-.4951-.334-.1699-.5381-.1699c-.2031,0-.3818,.0566-.5371,.1699s-.2754,.2783-.3623,.4951-.1299,.4785-.1299,.7852,.043,.5684,.1299,.7852,.207,.3809,.3623,.4941c.1553,.1143,.334,.1709,.5371,.1709,.2041,0,.3828-.0566,.5381-.1709Z"/><path d="M118.4474,185.3858v3.5h-.3604v-3.1807h-.8252v-.3193h1.1855Z"/><path d="M121.2989,186.9209c.1787,.0859,.3184,.209,.418,.3672s.1504,.3428,.1504,.5527c0,.2129-.0518,.4014-.1553,.5645-.1035,.1641-.2461,.2891-.4277,.3779-.1816,.0879-.3857,.1318-.6123,.1318-.4639,0-.8184-.1523-1.0654-.457-.2461-.3047-.3701-.7354-.3701-1.293,0-.3896,.0674-.7197,.2002-.9893,.1338-.2705,.3203-.4746,.5605-.6123,.2393-.1387,.5195-.208,.8398-.208,.3467,0,.623,.0635,.8301,.1904l-.1455,.29c-.166-.1104-.3926-.165-.6797-.165-.3867,0-.6904,.1221-.9102,.3672s-.3301,.6006-.3301,1.0674c0,.083,.0049,.1787,.0156,.2852,.0859-.1904,.2246-.3379,.415-.4424,.1895-.1055,.4082-.1582,.6543-.1582,.2305,0,.4346,.0439,.6123,.1309Zm-.0244,1.4824c.1582-.1387,.2373-.3232,.2373-.5527,0-.2305-.0791-.4131-.2373-.5498s-.373-.2051-.6426-.2051c-.1768,0-.333,.0332-.4678,.0996-.1348,.0674-.2402,.1582-.3174,.2754-.0762,.1162-.1152,.2461-.1152,.3896,0,.1338,.0361,.2568,.1074,.3701,.0723,.1133,.1777,.2051,.3184,.2754,.1396,.0693,.3066,.1045,.5,.1045,.2529,0,.459-.0693,.6172-.207Z"/></g><g><path d="M141.046,188.5655v.3203h-2.4551v-.2549l1.4551-1.4258c.1836-.1797,.3076-.335,.3721-.4668,.0654-.1318,.0977-.2646,.0977-.3975,0-.207-.0703-.3682-.2119-.4824-.1426-.1152-.3447-.1729-.6084-.1729-.4092,0-.7275,.1299-.9541,.3896l-.2559-.2197c.1367-.1602,.3115-.2832,.5225-.3701,.2119-.0869,.4512-.1299,.7178-.1299,.3564,0,.6396,.084,.8477,.2529,.208,.168,.3125,.3984,.3125,.6924,0,.1797-.04,.3535-.1201,.5195-.0801,.167-.2314,.3584-.4551,.5752l-1.1895,1.1699h1.9248Z"/><path d="M142.1232,188.7002c-.2119-.1426-.377-.3486-.4951-.6172s-.1777-.584-.1777-.9473,.0596-.6797,.1777-.9473c.1182-.2686,.2832-.4746,.4951-.6182s.4521-.2148,.7227-.2148c.2695,0,.5107,.0713,.7227,.2148s.377,.3496,.4971,.6182c.1201,.2676,.1807,.584,.1807,.9473s-.0605,.6787-.1807,.9473-.2852,.4746-.4971,.6172c-.2119,.1436-.4531,.2148-.7227,.2148-.2705,0-.5107-.0713-.7227-.2148Zm1.2598-.2852c.1553-.1133,.2764-.2773,.3633-.4941,.0859-.2168,.1299-.4785,.1299-.7852s-.0439-.5684-.1299-.7852c-.0869-.2168-.208-.3818-.3633-.4951-.1543-.1133-.334-.1699-.5371-.1699s-.3828,.0566-.5371,.1699c-.1553,.1133-.2764,.2783-.3633,.4951-.0859,.2168-.1299,.4785-.1299,.7852s.0439,.5684,.1299,.7852c.0869,.2168,.208,.3809,.3633,.4941,.1543,.1143,.334,.1709,.5371,.1709s.3828-.0566,.5371-.1709Z"/><path d="M145.6857,185.3858v3.5h-.3594v-3.1807h-.8252v-.3193h1.1846Z"/><path d="M148.9454,185.3858v.2549l-1.4648,3.2451h-.3896l1.4395-3.1807h-1.7998v.6553h-.3545v-.9746h2.5693Z"/></g><g><path d="M167.5724,188.5655v.3203h-2.4551v-.2549l1.4551-1.4258c.1836-.1797,.3076-.335,.373-.4668,.0645-.1318,.0977-.2646,.0977-.3975,0-.207-.0713-.3682-.2129-.4824-.1416-.1152-.3438-.1729-.6074-.1729-.4102,0-.7285,.1299-.9551,.3896l-.2549-.2197c.1367-.1602,.3105-.2832,.5225-.3701s.4512-.1299,.7178-.1299c.3564,0,.6387,.084,.8477,.2529,.208,.168,.3125,.3984,.3125,.6924,0,.1797-.04,.3535-.1201,.5195-.0801,.167-.2324,.3584-.4551,.5752l-1.1904,1.1699h1.9248Z"/><path d="M168.6505,188.7002c-.2119-.1426-.377-.3486-.4951-.6172s-.1777-.584-.1777-.9473,.0596-.6797,.1777-.9473c.1182-.2686,.2832-.4746,.4951-.6182,.2109-.1436,.4521-.2148,.7217-.2148,.2705,0,.5117,.0713,.7227,.2148,.2119,.1436,.3779,.3496,.498,.6182,.1201,.2676,.1797,.584,.1797,.9473s-.0596,.6787-.1797,.9473-.2861,.4746-.498,.6172c-.2109,.1436-.4521,.2148-.7227,.2148-.2695,0-.5107-.0713-.7217-.2148Zm1.2598-.2852c.1553-.1133,.2754-.2773,.3623-.4941s.1299-.4785,.1299-.7852-.043-.5684-.1299-.7852-.207-.3818-.3623-.4951-.334-.1699-.5381-.1699c-.2031,0-.3818,.0566-.5371,.1699s-.2754,.2783-.3623,.4951-.1299,.4785-.1299,.7852,.043,.5684,.1299,.7852,.207,.3809,.3623,.4941c.1553,.1143,.334,.1709,.5371,.1709,.2041,0,.3828-.0566,.5381-.1709Z"/><path d="M172.213,185.3858v3.5h-.3604v-3.1807h-.8252v-.3193h1.1855Z"/><path d="M175.5148,187.3809c.1182,.1465,.1777,.3232,.1777,.5293,0,.2041-.0547,.3809-.165,.5332-.1104,.1514-.2676,.2676-.4727,.3496s-.4453,.1221-.7227,.1221c-.4199,0-.75-.0898-.9893-.2695-.2402-.1797-.3604-.4248-.3604-.7354,0-.21,.0576-.3867,.1729-.5322,.1143-.1445,.2822-.2539,.502-.3271-.1797-.0703-.3164-.1709-.4102-.3027-.0928-.1318-.1396-.2871-.1396-.4678,0-.2832,.1104-.5078,.332-.6748s.5195-.25,.8926-.25c.2471,0,.4629,.0371,.6475,.1123,.1855,.0752,.3291,.1826,.4326,.3223,.1035,.1406,.1553,.3037,.1553,.4902,0,.1807-.0479,.3359-.1445,.4678s-.2354,.2324-.415,.3027c.2197,.0732,.3887,.1826,.5068,.3301Zm-.4551,1.04c.1758-.127,.2627-.2988,.2627-.5156s-.0869-.3877-.2627-.5127c-.1748-.125-.417-.1875-.7275-.1875-.3066,0-.5469,.0625-.7217,.1875-.1758,.125-.2627,.2959-.2627,.5127,0,.2207,.0859,.3926,.2598,.5176,.1729,.125,.415,.1875,.7246,.1875,.3105,0,.5527-.0635,.7275-.1895Zm-1.3623-1.6699c.1533,.1133,.3652,.1699,.6348,.1699,.2705,0,.4824-.0566,.6377-.1699s.2324-.2656,.2324-.4551c0-.1973-.0791-.3516-.2373-.4658-.1582-.1133-.3691-.1699-.6328-.1699-.2666,0-.4775,.0566-.6318,.1699-.1553,.1143-.2324,.2676-.2324,.46,0,.1934,.0762,.3477,.2295,.4609Z"/></g><g><path d="M194.5011,188.5655v.3203h-2.4551v-.2549l1.4551-1.4258c.1836-.1797,.3076-.335,.3721-.4668,.0654-.1318,.0977-.2646,.0977-.3975,0-.207-.0703-.3682-.2119-.4824-.1426-.1152-.3447-.1729-.6084-.1729-.4092,0-.7275,.1299-.9541,.3896l-.2559-.2197c.1367-.1602,.3115-.2832,.5225-.3701,.2119-.0869,.4512-.1299,.7178-.1299,.3564,0,.6396,.084,.8477,.2529,.208,.168,.3125,.3984,.3125,.6924,0,.1797-.04,.3535-.1201,.5195-.0801,.167-.2314,.3584-.4551,.5752l-1.1895,1.1699h1.9248Z"/><path d="M195.5782,188.7002c-.2119-.1426-.377-.3486-.4951-.6172s-.1777-.584-.1777-.9473,.0596-.6797,.1777-.9473c.1182-.2686,.2832-.4746,.4951-.6182s.4521-.2148,.7227-.2148c.2695,0,.5107,.0713,.7227,.2148s.377,.3496,.4971,.6182c.1201,.2676,.1807,.584,.1807,.9473s-.0605,.6787-.1807,.9473-.2852,.4746-.4971,.6172c-.2119,.1436-.4531,.2148-.7227,.2148-.2705,0-.5107-.0713-.7227-.2148Zm1.2598-.2852c.1553-.1133,.2764-.2773,.3633-.4941,.0859-.2168,.1299-.4785,.1299-.7852s-.0439-.5684-.1299-.7852c-.0869-.2168-.208-.3818-.3633-.4951-.1543-.1133-.334-.1699-.5371-.1699s-.3828,.0566-.5371,.1699c-.1553,.1133-.2764,.2783-.3633,.4951-.0859,.2168-.1299,.4785-.1299,.7852s.0439,.5684,.1299,.7852c.0869,.2168,.208,.3809,.3633,.4941,.1543,.1143,.334,.1709,.5371,.1709s.3828-.0566,.5371-.1709Z"/><path d="M199.1407,185.3858v3.5h-.3594v-3.1807h-.8252v-.3193h1.1846Z"/><path d="M202.0861,185.8135c.2461,.3047,.3701,.7354,.3701,1.292,0,.3896-.0674,.7197-.2002,.9902-.1338,.2695-.3203,.4736-.5605,.6123-.2393,.1387-.5195,.207-.8398,.207-.3467,0-.623-.0625-.8301-.1895l.1455-.29c.166,.1104,.3926,.165,.6797,.165,.3867,0,.6904-.123,.9102-.3672,.2197-.2451,.3301-.6016,.3301-1.0684,0-.0859-.0049-.1816-.0156-.2842-.0859,.1895-.2246,.3369-.4141,.4424-.1904,.1045-.4092,.1572-.6553,.1572-.2305,0-.4346-.043-.6123-.1299-.1787-.0869-.3184-.209-.418-.3672s-.1504-.3428-.1504-.5527c0-.2139,.0518-.4014,.1553-.5654,.1035-.1631,.2461-.2891,.4277-.377,.1816-.0889,.3857-.1328,.6123-.1328,.4639,0,.8184,.1523,1.0654,.458Zm-.5576,1.2617c.1348-.0664,.2402-.1582,.3174-.2744,.0762-.1172,.1152-.2471,.1152-.3906,0-.1328-.0361-.2559-.1074-.3701-.0723-.1133-.1777-.2041-.3174-.2744-.1406-.0703-.3076-.1055-.5-.1055-.2539,0-.46,.0693-.6182,.208s-.2373,.3223-.2373,.5527c0,.2295,.0791,.4131,.2373,.5498s.373,.2051,.6426,.2051c.1768,0,.333-.0332,.4678-.1006Z"/></g><g><path d="M220.7023,188.5655v.3203h-2.4551v-.2549l1.4551-1.4258c.1836-.1797,.3076-.335,.3721-.4668,.0654-.1318,.0977-.2646,.0977-.3975,0-.207-.0703-.3682-.2119-.4824-.1426-.1152-.3447-.1729-.6084-.1729-.4092,0-.7275,.1299-.9541,.3896l-.2559-.2197c.1367-.1602,.3115-.2832,.5225-.3701,.2119-.0869,.4512-.1299,.7178-.1299,.3564,0,.6396,.084,.8477,.2529,.208,.168,.3125,.3984,.3125,.6924,0,.1797-.04,.3535-.1201,.5195-.0801,.167-.2314,.3584-.4551,.5752l-1.1895,1.1699h1.9248Z"/><path d="M221.7794,188.7002c-.2119-.1426-.377-.3486-.4951-.6172s-.1777-.584-.1777-.9473,.0596-.6797,.1777-.9473c.1182-.2686,.2832-.4746,.4951-.6182s.4521-.2148,.7227-.2148c.2695,0,.5107,.0713,.7227,.2148s.377,.3496,.4971,.6182c.1201,.2676,.1807,.584,.1807,.9473s-.0605,.6787-.1807,.9473-.2852,.4746-.4971,.6172c-.2119,.1436-.4531,.2148-.7227,.2148-.2705,0-.5107-.0713-.7227-.2148Zm1.2598-.2852c.1553-.1133,.2764-.2773,.3633-.4941,.0859-.2168,.1299-.4785,.1299-.7852s-.0439-.5684-.1299-.7852c-.0869-.2168-.208-.3818-.3633-.4951-.1543-.1133-.334-.1699-.5371-.1699s-.3828,.0566-.5371,.1699c-.1553,.1133-.2764,.2783-.3633,.4951-.0859,.2168-.1299,.4785-.1299,.7852s.0439,.5684,.1299,.7852c.0869,.2168,.208,.3809,.3633,.4941,.1543,.1143,.334,.1709,.5371,.1709s.3828-.0566,.5371-.1709Z"/><path d="M226.7618,188.5655v.3203h-2.4551v-.2549l1.4551-1.4258c.1836-.1797,.3076-.335,.373-.4668,.0645-.1318,.0977-.2646,.0977-.3975,0-.207-.0713-.3682-.2129-.4824-.1416-.1152-.3438-.1729-.6074-.1729-.4102,0-.7285,.1299-.9551,.3896l-.2549-.2197c.1367-.1602,.3105-.2832,.5225-.3701s.4512-.1299,.7178-.1299c.3564,0,.6387,.084,.8477,.2529,.208,.168,.3125,.3984,.3125,.6924,0,.1797-.04,.3535-.1201,.5195-.0801,.167-.2324,.3584-.4551,.5752l-1.1904,1.1699h1.9248Z"/><path d="M227.84,188.7002c-.2119-.1426-.377-.3486-.4951-.6172s-.1777-.584-.1777-.9473,.0596-.6797,.1777-.9473c.1182-.2686,.2832-.4746,.4951-.6182,.2109-.1436,.4521-.2148,.7217-.2148,.2705,0,.5117,.0713,.7227,.2148,.2119,.1436,.3779,.3496,.498,.6182,.1201,.2676,.1797,.584,.1797,.9473s-.0596,.6787-.1797,.9473-.2861,.4746-.498,.6172c-.2109,.1436-.4521,.2148-.7227,.2148-.2695,0-.5107-.0713-.7217-.2148Zm1.2598-.2852c.1553-.1133,.2754-.2773,.3623-.4941s.1299-.4785,.1299-.7852-.043-.5684-.1299-.7852-.207-.3818-.3623-.4951-.334-.1699-.5381-.1699c-.2031,0-.3818,.0566-.5371,.1699s-.2754,.2783-.3623,.4951-.1299,.4785-.1299,.7852,.043,.5684,.1299,.7852,.207,.3809,.3623,.4941c.1553,.1143,.334,.1709,.5371,.1709,.2041,0,.3828-.0566,.5381-.1709Z"/></g><g><path d="M248.4279,188.5655v.3203h-2.4551v-.2549l1.4551-1.4258c.1836-.1797,.3076-.335,.3721-.4668,.0654-.1318,.0977-.2646,.0977-.3975,0-.207-.0703-.3682-.2119-.4824-.1426-.1152-.3447-.1729-.6084-.1729-.4092,0-.7275,.1299-.9541,.3896l-.2559-.2197c.1367-.1602,.3115-.2832,.5225-.3701,.2119-.0869,.4512-.1299,.7178-.1299,.3564,0,.6396,.084,.8477,.2529,.208,.168,.3125,.3984,.3125,.6924,0,.1797-.04,.3535-.1201,.5195-.0801,.167-.2314,.3584-.4551,.5752l-1.1895,1.1699h1.9248Z"/><path d="M249.5001,188.7002c-.2119-.1426-.377-.3486-.4951-.6172s-.1777-.584-.1777-.9473,.0596-.6797,.1777-.9473c.1182-.2686,.2832-.4746,.4951-.6182s.4521-.2148,.7227-.2148c.2695,0,.5107,.0713,.7227,.2148s.377,.3496,.4971,.6182c.1201,.2676,.1807,.584,.1807,.9473s-.0605,.6787-.1807,.9473-.2852,.4746-.4971,.6172c-.2119,.1436-.4531,.2148-.7227,.2148-.2705,0-.5107-.0713-.7227-.2148Zm1.2598-.2852c.1553-.1133,.2764-.2773,.3633-.4941,.0859-.2168,.1299-.4785,.1299-.7852s-.0439-.5684-.1299-.7852c-.0869-.2168-.208-.3818-.3633-.4951-.1543-.1133-.334-.1699-.5371-.1699s-.3828,.0566-.5371,.1699c-.1553,.1133-.2764,.2783-.3633,.4951-.0859,.2168-.1299,.4785-.1299,.7852s.0439,.5684,.1299,.7852c.0869,.2168,.208,.3809,.3633,.4941,.1543,.1143,.334,.1709,.5371,.1709s.3828-.0566,.5371-.1709Z"/><path d="M254.4777,188.5655v.3203h-2.4551v-.2549l1.4551-1.4258c.1836-.1797,.3076-.335,.3721-.4668,.0654-.1318,.0977-.2646,.0977-.3975,0-.207-.0703-.3682-.2119-.4824-.1426-.1152-.3447-.1729-.6084-.1729-.4092,0-.7275,.1299-.9541,.3896l-.2559-.2197c.1367-.1602,.3115-.2832,.5225-.3701,.2119-.0869,.4512-.1299,.7178-.1299,.3564,0,.6396,.084,.8477,.2529,.208,.168,.3125,.3984,.3125,.6924,0,.1797-.04,.3535-.1201,.5195-.0801,.167-.2314,.3584-.4551,.5752l-1.1895,1.1699h1.9248Z"/><path d="M255.8478,185.3858v3.5h-.3604v-3.1807h-.8252v-.3193h1.1855Z"/></g></svg>