<?xml version="1.0" encoding="UTF-8"?><svg id="Layer_1" xmlns="http://www.w3.org/2000/svg" viewBox="0 0 339.9832 205.3148"><defs><style>.cls-1{stroke-dasharray:0 0 0 2;}.cls-1,.cls-2,.cls-3{stroke-linecap:round;}.cls-1,.cls-2,.cls-3,.cls-4,.cls-5{fill:none;}.cls-1,.cls-3{opacity:.5;stroke:#858585;stroke-linejoin:round;}.cls-1,.cls-4,.cls-5{stroke-width:.5px;}.cls-6{letter-spacing:-.0089em;}.cls-7{fill:#f4f4f4;}.cls-8{fill:#e30510;}.cls-9{fill:#585857;}.cls-2{stroke:#000;stroke-linejoin:bevel;stroke-width:.3px;}.cls-3{stroke-width:.25px;}.cls-4{stroke:#222221;}.cls-10{letter-spacing:-.009em;}.cls-11{font-size:4.9429px;}.cls-11,.cls-12,.cls-13{font-family:Montserrat-Regular, Montserrat;}.cls-12{fill:#858585;font-size:5.2376px;}.cls-14{letter-spacing:-.01em;}.cls-15{fill:#222;font-family:Montserrat-SemiBold, Montserrat;font-size:5px;letter-spacing:.004em;}.cls-13{font-size:6.1105px;}.cls-5{stroke:#e30510;stroke-miterlimit:10;}</style></defs><polygon class="cls-7" points="339.9832 205.257 .2057 194.257 .2057 -1 339.9832 0 339.9832 205.257"/><text class="cls-15" transform="translate(.2057 5.6504)"><tspan x="0" y="0">ИЗМЕНЕНИЕ РЕАЛЬНОЙ ЗАРАБОТНОЙ ПЛАТЫ, </tspan><tspan x="0" y="6.25">РЕАЛЬНЫХ РАСПОЛАГАЕМЫХ ДОХОДОВ НАСЕЛЕНИЯ</tspan></text><polyline class="cls-4" points="2.8105 86.3758 20.4245 107.4092 29.2315 120.1025 38.0386 160.6843 46.8456 157.9617 55.6526 163.5048 64.4597 165.1878 73.2667 113.882 82.0729 108.9185 90.8799 104.0894 99.6869 100.7426 108.494 100.6038 117.301 91.7453 126.108 93.4283 134.915 77.7897 143.7221 53.9857 152.5291 68.3873 161.3361 75.7357 170.1432 87.7865 178.9502 103.4251 187.7572 96.1999 196.5642 93.973 205.3713 85.0647 214.1783 76.1067 222.9845 111.127 231.7915 100.6536 240.5985 98.4267 249.4055 101.743 258.2126 80.0663 267.0196 99.4288 275.8266 95.1602"/><line class="cls-3" x1="29.2559" y1="198.7155" x2="29.2559" y2="51.6057"/><line class="cls-3" x1="64.5168" y1="198.7155" x2="64.5168" y2="51.6057"/><line class="cls-3" x1="99.777" y1="198.7155" x2="99.777" y2="19.6057"/><line class="cls-3" x1="135.0379" y1="198.7155" x2="135.0379" y2="19.6057"/><line class="cls-3" x1="170.2986" y1="198.7155" x2="170.2986" y2="19.6057"/><line class="cls-3" x1="205.559" y1="198.7155" x2="205.559" y2="19.6057"/><line class="cls-3" x1="240.8198" y1="198.7155" x2="240.8198" y2="19.6057"/><line class="cls-3" x1="276.0807" y1="198.7155" x2="276.0807" y2="19.6057"/><rect class="cls-7" x="1.1191" y="172.004" width="278.7094" height="17.0824"/><text class="cls-12" transform="translate(5.0467 185.1754) rotate(-90)"><tspan x="0" y="0">1кв.</tspan></text><text class="cls-12" transform="translate(13.8197 186.1285) rotate(-90)"><tspan x="0" y="0">2кв.</tspan></text><text class="cls-12" transform="translate(22.5926 186.3434) rotate(-90)"><tspan x="0" y="0">3кв.</tspan></text><text class="cls-12" transform="translate(31.3661 186.443) rotate(-90)"><tspan x="0" y="0">4кв.</tspan></text><text class="cls-12" transform="translate(40.1385 185.1754) rotate(-90)"><tspan x="0" y="0">1кв.</tspan></text><text class="cls-12" transform="translate(48.912 186.1285) rotate(-90)"><tspan x="0" y="0">2кв.</tspan></text><text class="cls-12" transform="translate(57.6844 186.3434) rotate(-90)"><tspan x="0" y="0">3кв.</tspan></text><text class="cls-12" transform="translate(66.4579 186.443) rotate(-90)"><tspan x="0" y="0">4кв.</tspan></text><text class="cls-12" transform="translate(75.2308 185.1754) rotate(-90)"><tspan x="0" y="0">1кв.</tspan></text><text class="cls-12" transform="translate(84.0038 186.1285) rotate(-90)"><tspan x="0" y="0">2кв.</tspan></text><text class="cls-12" transform="translate(92.7767 186.3424) rotate(-90)"><tspan x="0" y="0">3кв.</tspan></text><text class="cls-12" transform="translate(101.5497 186.443) rotate(-90)"><tspan x="0" y="0">4кв.</tspan></text><text class="cls-12" transform="translate(110.3226 185.1754) rotate(-90)"><tspan x="0" y="0">1кв.</tspan></text><text class="cls-12" transform="translate(119.0956 186.1285) rotate(-90)"><tspan x="0" y="0">2кв.</tspan></text><text class="cls-12" transform="translate(127.8685 186.3434) rotate(-90)"><tspan x="0" y="0">3кв.</tspan></text><text class="cls-12" transform="translate(136.6415 186.443) rotate(-90)"><tspan x="0" y="0">4кв.</tspan></text><text class="cls-12" transform="translate(145.4144 185.1754) rotate(-90)"><tspan x="0" y="0">1кв.</tspan></text><text class="cls-12" transform="translate(154.1874 186.1285) rotate(-90)"><tspan x="0" y="0">2кв.</tspan></text><text class="cls-12" transform="translate(162.9603 186.3434) rotate(-90)"><tspan x="0" y="0">3кв.</tspan></text><text class="cls-12" transform="translate(171.7333 186.443) rotate(-90)"><tspan x="0" y="0">4кв.</tspan></text><text class="cls-12" transform="translate(180.5062 185.1754) rotate(-90)"><tspan x="0" y="0">1кв.</tspan></text><text class="cls-12" transform="translate(189.2792 186.1285) rotate(-90)"><tspan x="0" y="0">2кв.</tspan></text><text class="cls-12" transform="translate(198.0521 186.3434) rotate(-90)"><tspan x="0" y="0">3кв.</tspan></text><text class="cls-12" transform="translate(206.8256 186.444) rotate(-90)"><tspan x="0" y="0">4кв.</tspan></text><text class="cls-12" transform="translate(215.5985 185.1754) rotate(-90)"><tspan x="0" y="0">1кв.</tspan></text><text class="cls-12" transform="translate(224.371 186.1276) rotate(-90)"><tspan x="0" y="0">2кв.</tspan></text><text class="cls-12" transform="translate(233.1444 186.3434) rotate(-90)"><tspan x="0" y="0">3кв.</tspan></text><text class="cls-12" transform="translate(241.9174 186.443) rotate(-90)"><tspan x="0" y="0">4кв.</tspan></text><text class="cls-12" transform="translate(250.6903 185.1754) rotate(-90)"><tspan x="0" y="0">1кв.</tspan></text><text class="cls-12" transform="translate(259.4633 186.1285) rotate(-90)"><tspan x="0" y="0">2кв.</tspan></text><text class="cls-12" transform="translate(268.2362 186.3414) rotate(-90)"><tspan x="0" y="0">3кв.</tspan></text><text class="cls-12" transform="translate(277.0092 186.441) rotate(-90)"><tspan x="0" y="0">4кв.</tspan></text><text class="cls-13" transform="translate(5.4418 198.6784)"><tspan class="cls-14" x="0" y="0">2</tspan><tspan class="cls-6" x="3.4097" y="0">01</tspan><tspan x="9.5508" y="0">4</tspan></text><text class="cls-13" transform="translate(40.7548 198.6784)"><tspan class="cls-10" x="0" y="0">201</tspan><tspan x="9.5566" y="0">5</tspan></text><text class="cls-13" transform="translate(75.8592 198.6784)"><tspan class="cls-10" x="0" y="0">201</tspan><tspan x="9.5566" y="0">6</tspan></text><text class="cls-13" transform="translate(111.3549 198.6784)"><tspan class="cls-10" x="0" y="0">201</tspan><tspan x="9.5566" y="0">7</tspan></text><text class="cls-13" transform="translate(146.1791 198.6784)"><tspan class="cls-10" x="0" y="0">201</tspan><tspan x="9.5566" y="0">8</tspan></text><text class="cls-13" transform="translate(181.3812 198.6784)"><tspan class="cls-10" x="0" y="0">201</tspan><tspan x="9.5566" y="0">9</tspan></text><text class="cls-13" transform="translate(215.8964 198.6784)"><tspan class="cls-10" x="0" y="0">202</tspan><tspan x="10.8218" y="0">0</tspan></text><text class="cls-13" transform="translate(251.8534 198.6784)"><tspan class="cls-10" x="0" y="0">20</tspan><tspan class="cls-14" x="7.4058" y="0">2</tspan><tspan x="10.8154" y="0">1</tspan></text><polyline class="cls-5" points="2.6692 133.7619 11.6177 106.0821 20.4247 100.8514 29.2317 130.1122 38.0388 110.0976 46.8449 125.2246 55.6519 141.9273 64.6004 115.6983 73.266 125.2246 82.073 139.7005 90.8801 131.8441 99.6871 141.8287 108.4941 110.0976 117.3011 114.5844 126.1082 116.1583 134.9152 111.7884 143.7223 103.4746 152.5293 107.8794 161.3363 108.9182 170.1433 113.9664 178.9504 122.2313 187.7565 106.7909 196.705 96.6945 205.3706 96.7687 214.1776 98.4264 222.9846 144.5261 231.7917 132.4255 240.5987 111.3555 249.4057 132.0789 258.2127 72.8407 267.0198 61.7056 275.8268 106.9384"/><line class="cls-1" x1="2.8105" y1="162.4554" x2="2.8105" y2="51.6054"/><line class="cls-1" x1="11.6259" y1="162.4554" x2="11.6259" y2="51.6054"/><line class="cls-1" x1="20.4405" y1="162.4554" x2="20.4405" y2="51.6054"/><line class="cls-1" x1="38.0712" y1="162.4554" x2="38.0712" y2="51.6054"/><line class="cls-1" x1="46.8861" y1="162.4554" x2="46.8861" y2="51.6054"/><line class="cls-1" x1="55.7014" y1="162.4554" x2="55.7014" y2="51.6054"/><line class="cls-2" x1="2.6692" y1="110.9658" x2="277.0092" y2="110.9658"/><line class="cls-1" x1="73.3317" y1="162.4554" x2="73.3317" y2="51.6054"/><line class="cls-1" x1="82.147" y1="162.4554" x2="82.147" y2="43.6054"/><line class="cls-1" x1="90.9621" y1="162.4554" x2="90.9621" y2="43.6054"/><line class="cls-1" x1="108.5924" y1="162.4554" x2="108.5924" y2="19.6054"/><line class="cls-1" x1="117.4077" y1="162.4554" x2="117.4077" y2="19.6054"/><line class="cls-1" x1="126.2226" y1="162.4554" x2="126.2226" y2="19.6054"/><line class="cls-1" x1="143.8533" y1="162.4554" x2="143.8533" y2="19.6054"/><line class="cls-1" x1="152.6682" y1="162.4554" x2="152.6682" y2="19.6054"/><line class="cls-1" x1="161.4833" y1="162.4554" x2="161.4833" y2="19.6054"/><line class="cls-1" x1="179.1135" y1="162.4554" x2="179.1135" y2="19.6054"/><line class="cls-1" x1="187.9289" y1="162.4554" x2="187.9289" y2="19.6054"/><line class="cls-1" x1="196.7442" y1="162.4554" x2="196.7442" y2="19.6054"/><line class="cls-1" x1="214.3744" y1="162.4554" x2="214.3744" y2="19.6054"/><line class="cls-1" x1="223.1898" y1="162.4554" x2="223.1898" y2="19.6054"/><line class="cls-1" x1="232.0045" y1="162.4554" x2="232.0045" y2="19.6054"/><line class="cls-1" x1="249.6351" y1="162.4554" x2="249.6351" y2="19.6054"/><line class="cls-1" x1="258.4499" y1="162.4554" x2="258.4499" y2="19.6054"/><line class="cls-1" x1="267.2654" y1="162.4554" x2="267.2654" y2="19.6054"/><path class="cls-8" d="M.2578,21.6637c0-1.1094,.899-2.0084,2.0084-2.0084h6.8271c1.1094,0,2.0084,.899,2.0084,2.0084s-.899,2.0084-2.0084,2.0084H2.2662c-1.1094,0-2.0084-.899-2.0084-2.0084"/><text class="cls-11" transform="translate(14.766 22.9069)"><tspan x="0" y="0">Рост реальных распола-</tspan><tspan x="0" y="5.9316">гаемых доходов, год к году, %</tspan></text><path class="cls-9" d="M.2578,37.1659c0-1.1094,.899-2.0084,2.0084-2.0084h6.8271c1.1094,0,2.0084,.899,2.0084,2.0084s-.899,2.0084-2.0084,2.0084H2.2662c-1.1094,0-2.0084-.899-2.0084-2.0084"/><text class="cls-11" transform="translate(14.766 38.4088)"><tspan x="0" y="0">Рост реальной заработной</tspan><tspan x="0" y="5.9316">платы, год к году, %</tspan></text></svg>