<?xml version="1.0" encoding="UTF-8"?><svg id="Layer_1" xmlns="http://www.w3.org/2000/svg" viewBox="0 0 339.9832 205.3148"><defs><style>.cls-1{letter-spacing:0em;}.cls-2{fill:#c4c4c4;}.cls-3{fill:#e30510;}.cls-4{letter-spacing:-.009em;}.cls-5{fill:none;stroke:#000;stroke-linecap:round;stroke-linejoin:bevel;stroke-width:.3px;}.cls-6{font-family:Montserrat-Regular, Montserrat;}.cls-6,.cls-7{font-size:5px;}.cls-8{letter-spacing:-.01em;}.cls-7{fill:#222;font-family:Montserrat-SemiBold, Montserrat;letter-spacing:.004em;}</style></defs><text class="cls-7" transform="translate(.0013 5.6503)"><tspan x="0" y="0">МИНИМАЛЬНАЯ МЕСЯЧНАЯ ЗАРАБОТНАЯ ПЛАТА В РОССИИ, ТЫС. РУБ</tspan></text><path class="cls-2" d="M19.0446,162.6664c0,4.6757-3.8035,8.4792-8.4792,8.4792s-8.4792-3.8035-8.4792-8.4792v-58.5841c0-4.6757,3.8035-8.4792,8.4792-8.4792s8.4792,3.8035,8.4792,8.4792v58.5841Z"/><path class="cls-2" d="M45.7589,162.6664c0,4.6757-3.8035,8.4792-8.4792,8.4792s-8.4792-3.8035-8.4792-8.4792v-62.06c0-4.6757,3.8035-8.4793,8.4792-8.4793s8.4792,3.8035,8.4792,8.4793v62.06Z"/><path class="cls-2" d="M72.2524,162.6664c0,4.6757-3.8035,8.4792-8.4792,8.4792s-8.4792-3.8035-8.4792-8.4792V98.6064c0-4.6757,3.8035-8.4793,8.4792-8.4793s8.4792,3.8035,8.4792,8.4793v64.06Z"/><path class="cls-2" d="M152.6164,162.6664c0,4.6757-3.8035,8.4792-8.4792,8.4792s-8.4792-3.8035-8.4792-8.4792V88.3748c0-4.6757,3.8035-8.4793,8.4792-8.4793s8.4792,3.8035,8.4792,8.4793v74.2916Z"/><path class="cls-2" d="M179.3308,162.6664c0,4.6757-3.8035,8.4792-8.4792,8.4792s-8.4792-3.8035-8.4792-8.4792V76.6088c0-4.6757,3.8035-8.4792,8.4792-8.4792s8.4792,3.8035,8.4792,8.4792v86.0576Z"/><path class="cls-2" d="M99.1877,162.6664c0,4.6757-3.8035,8.4792-8.4792,8.4792s-8.4792-3.8035-8.4792-8.4792V96.3668c0-4.6757,3.8035-8.4792,8.4792-8.4792s8.4792,3.8035,8.4792,8.4792v66.2996Z"/><path class="cls-2" d="M125.902,162.6664c0,4.6757-3.8035,8.4792-8.4792,8.4792s-8.4792-3.8035-8.4792-8.4792V95.1993c0-4.6757,3.8035-8.4792,8.4792-8.4792s8.4792,3.8035,8.4792,8.4792v67.4671Z"/><path class="cls-2" d="M206.0448,162.6669c0,4.6749-3.8035,8.4792-8.4792,8.4792s-8.4784-3.8043-8.4784-8.4792V67.1325c0-4.6749,3.8035-8.4784,8.4784-8.4784s8.4792,3.8035,8.4792,8.4784v95.5345Z"/><path class="cls-2" d="M232.7596,162.6664c0,4.6757-3.8035,8.4792-8.4792,8.4792s-8.4792-3.8035-8.4792-8.4792V62.6088c0-4.6757,3.8035-8.4792,8.4792-8.4792s8.4792,3.8035,8.4792,8.4792v100.0576Z"/><path class="cls-3" d="M259.8777,163.2506c0,4.2609-3.9772,7.7152-8.883,7.7152s-8.883-3.4543-8.883-7.7152V57.5362c0-4.2616,3.9771-7.7152,8.883-7.7152s8.883,3.4536,8.883,7.7152v105.7143Z"/><line class="cls-5" x1="10.5654" y1="166.806" x2="10.5654" y2="37.5795"/><path d="M9.8387,37.5794c0-.4013,.3254-.7268,.7268-.7268s.7268,.3255,.7268,.7268-.3254,.7268-.7268,.7268-.7268-.3255-.7268-.7268"/><line class="cls-5" x1="117.4226" y1="166.806" x2="117.4226" y2="37.5795"/><path d="M116.6959,37.5794c0-.4013,.3254-.7268,.7268-.7268s.7268,.3255,.7268,.7268-.3255,.7268-.7268,.7268-.7268-.3255-.7268-.7268"/><line class="cls-5" x1="37.2794" y1="166.806" x2="37.2794" y2="37.5795"/><path d="M36.5527,37.5794c0-.4013,.3254-.7268,.7268-.7268s.7268,.3255,.7268,.7268-.3255,.7268-.7268,.7268-.7268-.3255-.7268-.7268"/><line class="cls-5" x1="144.137" y1="166.806" x2="144.137" y2="37.5795"/><path d="M143.4103,37.5794c0-.4013,.3254-.7268,.7268-.7268s.7268,.3255,.7268,.7268-.3255,.7268-.7268,.7268-.7268-.3255-.7268-.7268"/><line class="cls-5" x1="63.9938" y1="166.806" x2="63.9938" y2="37.5795"/><path d="M63.2671,37.5794c0-.4013,.3254-.7268,.7268-.7268s.7268,.3255,.7268,.7268-.3255,.7268-.7268,.7268-.7268-.3255-.7268-.7268"/><line class="cls-5" x1="170.8514" y1="166.806" x2="170.8514" y2="37.5795"/><path d="M170.1247,37.5794c0-.4013,.3254-.7268,.7268-.7268s.7268,.3255,.7268,.7268-.3255,.7268-.7268,.7268-.7268-.3255-.7268-.7268"/><line class="cls-5" x1="90.7082" y1="166.806" x2="90.7082" y2="37.5793"/><path d="M89.9815,37.5794c0-.4013,.3254-.7268,.7268-.7268s.7268,.3255,.7268,.7268-.3255,.7268-.7268,.7268-.7268-.3255-.7268-.7268"/><line class="cls-5" x1="197.5658" y1="166.806" x2="197.5658" y2="37.5795"/><path d="M196.8391,37.5794c0-.4013,.3254-.7268,.7268-.7268s.7268,.3255,.7268,.7268-.3255,.7268-.7268,.7268-.7268-.3255-.7268-.7268"/><line class="cls-5" x1="224.2802" y1="166.806" x2="224.2802" y2="37.5796"/><path d="M223.5535,37.5794c0-.4013,.3254-.7268,.7268-.7268s.7268,.3255,.7268,.7268-.3255,.7268-.7268,.7268-.7268-.3255-.7268-.7268"/><line class="cls-5" x1="250.9946" y1="166.806" x2="250.9946" y2="37.5795"/><path d="M250.2679,37.5794c0-.4013,.3254-.7268,.7268-.7268s.7268,.3255,.7268,.7268-.3255,.7268-.7268,.7268-.7268-.3255-.7268-.7268"/><text class="cls-6" transform="translate(4.9379 32.3916)"><tspan x="0" y="0">4,6</tspan></text><text class="cls-6" transform="translate(32.476 32.3916)"><tspan x="0" y="0">5,2</tspan></text><text class="cls-6" transform="translate(58.9506 32.3916)"><tspan x="0" y="0">5,5</tspan></text><text class="cls-6" transform="translate(84.121 32.3916)"><tspan x="0" y="0">5,9</tspan></text><text class="cls-6" transform="translate(112.0917 32.3916)"><tspan x="0" y="0">6,2</tspan></text><text class="cls-6" transform="translate(139.5195 32.3916)"><tspan x="0" y="0">7,5</tspan></text><text class="cls-6" transform="translate(165.6357 32.3916)"><tspan x="0" y="0">9,4</tspan></text><text class="cls-6" transform="translate(192.5536 32.3916)"><tspan x="0" y="0">11,3</tspan></text><text class="cls-6" transform="translate(218.3886 32.3916)"><tspan x="0" y="0">12,1</tspan></text><text class="cls-6" transform="translate(246.1528 32.3916)"><tspan x="0" y="0">12,8</tspan></text><line class="cls-5" x1="10.3809" y1="170.9658" x2="250.2682" y2="170.9658"/><text class="cls-6" transform="translate(3.6884 188.8857)"><tspan class="cls-8" x="0" y="0">201</tspan><tspan class="cls-1" x="7.8047" y="0">2 </tspan></text><text class="cls-6" transform="translate(30.4741 188.8857)"><tspan class="cls-4" x="0" y="0">201</tspan><tspan x="7.8198" y="0">3 </tspan></text><text class="cls-6" transform="translate(57.289 188.8857)"><tspan class="cls-4" x="0" y="0">201</tspan><tspan x="7.8198" y="0">4 </tspan></text><text class="cls-6" transform="translate(84.3329 188.8857)"><tspan class="cls-4" x="0" y="0">201</tspan><tspan x="7.8198" y="0">5 </tspan></text><text class="cls-6" transform="translate(111.1572 188.8857)"><tspan class="cls-4" x="0" y="0">201</tspan><tspan x="7.8198" y="0">6 </tspan></text><text class="cls-6" transform="translate(138.3959 188.8857)"><tspan class="cls-4" x="0" y="0">201</tspan><tspan x="7.8198" y="0">7 </tspan></text><text class="cls-6" transform="translate(164.9228 188.8857)"><tspan class="cls-4" x="0" y="0">201</tspan><tspan x="7.8198" y="0">8 </tspan></text><text class="cls-6" transform="translate(191.851 188.8857)"><tspan class="cls-4" x="0" y="0">201</tspan><tspan x="7.8198" y="0">9 </tspan></text><text class="cls-6" transform="translate(218.0522 188.8857)"><tspan class="cls-4" x="0" y="0">202</tspan><tspan x="8.855" y="0">0</tspan></text><text class="cls-6" transform="translate(245.7778 188.8857)"><tspan class="cls-8" x="0" y="0">202</tspan><tspan x="8.8398" y="0">1</tspan></text></svg>