<svg width="323" height="32" viewBox="0 0 323 32" fill="none" xmlns="http://www.w3.org/2000/svg">
<path d="M22.9491 4.00233V31.5525H27.8318V0.447468H19.3536L4.88278 28.0421V0.447468H0V31.5525H8.47828L22.9491 4.00233Z" fill="white"/>
<path d="M52.8887 18.444V31.5525H57.7715V0.447468H52.8887V14.0004H36.0209V0.447468H31.1381V31.5525H36.0209V18.444H52.8887Z" fill="white"/>
<path d="M78.6849 31.5525V27.9977H81.215C87.7846 27.9977 92.7562 22.6209 92.7562 16C92.8893 9.69011 87.6514 3.86902 81.215 4.00233H78.6849V0.447468H73.8021V4.00233H71.2719C64.8355 3.86902 59.5976 9.69011 59.7308 16C59.7308 22.6209 64.7024 27.9977 71.2719 27.9977H73.8021V31.5525H78.6849ZM71.8934 23.3319C67.5877 23.3319 64.6136 20.0436 64.6136 16C64.6136 11.9563 67.5877 8.66809 71.8934 8.66809H73.8021V23.3319H71.8934ZM80.5936 8.66809C84.8993 8.66809 87.8734 11.9563 87.8734 16C87.8734 20.0436 84.8993 23.3319 80.5936 23.3319H78.6849V8.66809H80.5936Z" fill="white"/>
<path d="M109.585 0.00311032C100.707 -0.174633 93.2056 7.29058 93.3831 16C93.2056 24.7538 100.707 32.1746 109.585 31.9969C118.463 32.1746 125.965 24.7538 125.787 16C125.965 7.29058 118.463 -0.174633 109.585 0.00311032ZM109.585 27.3311C103.459 27.3311 98.4879 22.7987 98.4879 16.0444C98.4879 9.37906 103.326 4.66887 109.585 4.66887C115.844 4.66887 120.682 9.29019 120.682 16C120.682 22.7098 115.711 27.3311 109.585 27.3311Z" fill="white"/>
<path d="M150.842 5.11322V0.447468H127.76V31.5525H132.643V5.11322H150.842Z" fill="white"/>
<path d="M157.062 19.1105H166.606C173.042 19.1105 176.593 14.6225 176.593 9.77898C176.593 4.75774 173.087 0.447468 166.606 0.447468H152.179V31.5525H157.062V19.1105ZM157.062 14.4447V5.11322H166.162C169.313 5.11322 171.489 6.93509 171.489 9.77898C171.489 12.6229 169.313 14.4447 166.162 14.4447H157.062Z" fill="white"/>
<path d="M171.811 31.5525H177.315L180.289 23.9984H195.648L198.622 31.5525H204.126L191.342 0.447468H184.595L171.811 31.5525ZM182.02 19.5549L187.969 4.49112L193.917 19.5549H182.02Z" fill="white"/>
<path d="M220.157 31.5525V27.9977H222.687C229.257 27.9977 234.228 22.6209 234.228 16C234.362 9.69011 229.124 3.86902 222.687 4.00233H220.157V0.447468H215.274V4.00233H212.744C206.308 3.86902 201.07 9.69011 201.203 16C201.203 22.6209 206.175 27.9977 212.744 27.9977H215.274V31.5525H220.157ZM213.366 23.3319C209.06 23.3319 206.086 20.0436 206.086 16C206.086 11.9563 209.06 8.66809 213.366 8.66809H215.274V23.3319H213.366ZM222.066 8.66809C226.372 8.66809 229.346 11.9563 229.346 16C229.346 20.0436 226.372 23.3319 222.066 23.3319H220.157V8.66809H222.066Z" fill="white"/>
<path d="M259.136 4.00233V31.5525H264.019V0.447468H255.541L241.07 28.0421V0.447468H236.187V31.5525H244.665L259.136 4.00233Z" fill="white"/>
<path d="M267.325 31.5525H272.208V17.4664L285.747 31.5525H292.627L276.869 15.3335L291.739 0.447468H285.303L272.208 13.6005V0.447468H267.325V31.5525Z" fill="white"/>
<path d="M290.685 31.5525H296.189L299.163 23.9984H314.522L317.496 31.5525H323L310.216 0.447468H303.469L290.685 31.5525ZM300.894 19.5549L306.842 4.49112L312.791 19.5549H300.894Z" fill="white"/>
</svg>
