<?xml version="1.0" encoding="UTF-8"?><svg id="Layer_1" xmlns="http://www.w3.org/2000/svg" viewBox="0 0 40.8712 7.5656"><defs><style>.cls-1{fill:#fff;}</style></defs><polygon class="cls-1" points="21.8206 6.2964 21.8206 1.2695 24.9955 1.2695 24.9955 2.4365 23.1445 2.4365 23.1445 6.2964 21.8206 6.2964"/><polygon class="cls-1" points="28.9889 6.2964 28.9889 4.3275 27.0228 4.3275 27.0228 6.2964 25.6998 6.2964 25.6998 1.2695 27.0228 1.2695 27.0228 3.1455 28.9889 3.1455 28.9889 1.2695 30.3129 1.2695 30.3129 6.2964 28.9889 6.2964"/><polygon class="cls-1" points="37.9943 6.2964 37.9943 2.4365 36.4482 2.4365 36.4482 1.2695 40.8712 1.2695 40.8712 2.4365 39.3182 2.4365 39.3182 6.2964 37.9943 6.2964"/><polygon class="cls-1" points="34.5004 6.2961 34.5004 3.4312 32.3933 6.2961 31.2863 6.2961 31.2863 1.2692 32.6104 1.2692 32.6104 4.1042 34.6813 1.2692 35.8243 1.2692 35.8243 6.2961 34.5004 6.2961"/><polygon class="cls-1" points="14.2141 6.2964 14.2141 3.3085 12.8921 4.8865 11.572 3.3085 11.572 6.2964 10.248 6.2964 10.248 1.2695 11.5531 1.2695 12.8921 2.9975 14.2321 1.2695 15.5371 1.2695 15.5371 6.2964 14.2141 6.2964"/><path class="cls-1" d="M19.9705,6.2968l-.275-.705h-2.0599l-.275,.705h-1.332l2.036-5.028h1.224l2.036,5.028h-1.354Zm-1.9199-1.768h1.23l-.615-1.577-.615,1.577Z"/><g><path class="cls-1" d="M0,2.291C0,1.681,.2389,1.106,.672,.672c.434-.433,1.0089-.672,1.6189-.672H7.58V1.164H2.2909c-.299,0-.5819,.118-.7959,.331-.213,.214-.3311,.497-.3311,.796l-.007,1.954c-.0541,.519-.4451,.938-.951,1.015l-.2059,.032V2.291Z"/><path class="cls-1" d="M0,7.5656v-1.1639H5.2899c.2991,0,.5811-.118,.795-.332,.214-.213,.3309-.496,.3309-.795l.0011-1.855c0-.552,.412-1.0309,.958-1.114l.205-.032v3.001c0,.61-.238,1.185-.672,1.619-.433,.433-1.0081,.672-1.618,.672H0Z"/></g><polygon class="cls-1" points="4.4796 5.2957 4.4796 3.7907 3.7905 4.6147 3.1006 3.7907 3.1006 5.2957 2.1875 5.2957 2.1875 2.3337 3.0526 2.3337 3.7905 3.2857 4.5276 2.3337 5.3936 2.3337 5.3936 5.2957 4.4796 5.2957"/></svg>