<?xml version="1.0" encoding="utf-8"?>
<!-- Generator: Adobe Illustrator 26.5.0, SVG Export Plug-In . SVG Version: 6.00 Build 0)  -->
<svg version="1.1" id="Layer_1" xmlns="http://www.w3.org/2000/svg" xmlns:xlink="http://www.w3.org/1999/xlink" x="0px" y="0px"
	 viewBox="0 0 102.6 19" style="enable-background:new 0 0 102.6 19;" xml:space="preserve">
<style type="text/css">
	.st0{fill:#FFFFFF;}
</style>
<g>
	<polygon class="st0" points="54.8,15.8 54.8,3.2 62.8,3.2 62.8,6.1 58.1,6.1 58.1,15.8 	"/>
	<polygon class="st0" points="72.8,15.8 72.8,10.9 67.9,10.9 67.9,15.8 64.5,15.8 64.5,3.2 67.9,3.2 67.9,7.9 72.8,7.9 72.8,3.2 
		76.1,3.2 76.1,15.8 	"/>
	<polygon class="st0" points="95.4,15.8 95.4,6.1 91.5,6.1 91.5,3.2 102.6,3.2 102.6,6.1 98.7,6.1 98.7,15.8 	"/>
	<polygon class="st0" points="86.6,15.8 86.6,8.6 81.3,15.8 78.6,15.8 78.6,3.2 81.9,3.2 81.9,10.3 87.1,3.2 90,3.2 90,15.8 	"/>
	<polygon class="st0" points="35.7,15.8 35.7,8.3 32.4,12.3 29.1,8.3 29.1,15.8 25.7,15.8 25.7,3.2 29,3.2 32.4,7.5 35.7,3.2 
		39,3.2 39,15.8 	"/>
	<path class="st0" d="M50.1,15.8L49.5,14h-5.2l-0.7,1.8h-3.3l5.1-12.6h3.1l5.1,12.6H50.1L50.1,15.8z M45.3,11.4h3.1l-1.5-4
		L45.3,11.4z"/>
	<g>
		<path class="st0" d="M0,5.8c0-1.5,0.6-3,1.7-4.1C2.8,0.6,4.2,0,5.8,0H19v2.9H5.8c-0.8,0-1.5,0.3-2,0.8C3.2,4.3,2.9,5,2.9,5.8
			l0,4.9C2.8,12,1.8,13,0.5,13.2L0,13.3C0,13.3,0,5.8,0,5.8z"/>
		<path class="st0" d="M0,19v-2.9h13.3c0.8,0,1.5-0.3,2-0.8c0.5-0.5,0.8-1.2,0.8-2l0-4.7c0-1.4,1-2.6,2.4-2.8L19,5.7v7.5
			c0,1.5-0.6,3-1.7,4.1c-1.1,1.1-2.5,1.7-4.1,1.7L0,19L0,19z"/>
	</g>
	<polygon class="st0" points="11.2,13.3 11.2,9.5 9.5,11.6 7.8,9.5 7.8,13.3 5.5,13.3 5.5,5.9 7.7,5.9 9.5,8.3 11.4,5.9 13.5,5.9 
		13.5,13.3 	"/>
</g>
</svg>
